%TF.GenerationSoftware,KiCad,Pcbnew,6.0.4-6f826c9f35~116~ubuntu20.04.1*%
%TF.CreationDate,2022-05-25T09:51:51+00:00*%
%TF.ProjectId,ADCoctoSPI01B,4144436f-6374-46f5-9350-493031422e6b,rev?*%
%TF.SameCoordinates,Original*%
%TF.FileFunction,Legend,Top*%
%TF.FilePolarity,Positive*%
%FSLAX46Y46*%
G04 Gerber Fmt 4.6, Leading zero omitted, Abs format (unit mm)*
G04 Created by KiCad (PCBNEW 6.0.4-6f826c9f35~116~ubuntu20.04.1) date 2022-05-25 09:51:51*
%MOMM*%
%LPD*%
G01*
G04 APERTURE LIST*
%ADD10C,0.150000*%
%ADD11C,0.200000*%
%ADD12C,0.300000*%
%ADD13C,0.050000*%
%ADD14C,0.254000*%
%ADD15C,0.120000*%
%ADD16C,0.250000*%
%ADD17R,1.524000X1.524000*%
G04 APERTURE END LIST*
D10*
X91100000Y-123600000D02*
X92100000Y-124300000D01*
X86550000Y-121178571D02*
X86692857Y-121226190D01*
X86740476Y-121273809D01*
X86788095Y-121369047D01*
X86788095Y-121511904D01*
X86740476Y-121607142D01*
X86692857Y-121654761D01*
X86597619Y-121702380D01*
X86216666Y-121702380D01*
X86216666Y-120702380D01*
X86550000Y-120702380D01*
X86645238Y-120750000D01*
X86692857Y-120797619D01*
X86740476Y-120892857D01*
X86740476Y-120988095D01*
X86692857Y-121083333D01*
X86645238Y-121130952D01*
X86550000Y-121178571D01*
X86216666Y-121178571D01*
X87216666Y-121702380D02*
X87216666Y-121035714D01*
X87216666Y-120702380D02*
X87169047Y-120750000D01*
X87216666Y-120797619D01*
X87264285Y-120750000D01*
X87216666Y-120702380D01*
X87216666Y-120797619D01*
X88121428Y-121702380D02*
X88121428Y-121178571D01*
X88073809Y-121083333D01*
X87978571Y-121035714D01*
X87788095Y-121035714D01*
X87692857Y-121083333D01*
X88121428Y-121654761D02*
X88026190Y-121702380D01*
X87788095Y-121702380D01*
X87692857Y-121654761D01*
X87645238Y-121559523D01*
X87645238Y-121464285D01*
X87692857Y-121369047D01*
X87788095Y-121321428D01*
X88026190Y-121321428D01*
X88121428Y-121273809D01*
X88550000Y-121654761D02*
X88645238Y-121702380D01*
X88835714Y-121702380D01*
X88930952Y-121654761D01*
X88978571Y-121559523D01*
X88978571Y-121511904D01*
X88930952Y-121416666D01*
X88835714Y-121369047D01*
X88692857Y-121369047D01*
X88597619Y-121321428D01*
X88550000Y-121226190D01*
X88550000Y-121178571D01*
X88597619Y-121083333D01*
X88692857Y-121035714D01*
X88835714Y-121035714D01*
X88930952Y-121083333D01*
X89930952Y-121702380D02*
X89359523Y-121702380D01*
X89645238Y-121702380D02*
X89645238Y-120702380D01*
X89550000Y-120845238D01*
X89454761Y-120940476D01*
X89359523Y-120988095D01*
D11*
X79975200Y-69184780D02*
X79975200Y-68184780D01*
X80451390Y-69184780D02*
X80451390Y-68184780D01*
X81022819Y-69184780D01*
X81022819Y-68184780D01*
X82022819Y-69184780D02*
X81451390Y-69184780D01*
X81737104Y-69184780D02*
X81737104Y-68184780D01*
X81641866Y-68327638D01*
X81546628Y-68422876D01*
X81451390Y-68470495D01*
X73523600Y-135021580D02*
X73523600Y-134021580D01*
X73999790Y-135021580D02*
X73999790Y-134021580D01*
X74571219Y-135021580D01*
X74571219Y-134021580D01*
X74952171Y-134021580D02*
X75618838Y-134021580D01*
X75190266Y-135021580D01*
X73472800Y-69133980D02*
X73472800Y-68133980D01*
X73948990Y-69133980D02*
X73948990Y-68133980D01*
X74520419Y-69133980D01*
X74520419Y-68133980D01*
X74948990Y-68229219D02*
X74996609Y-68181600D01*
X75091847Y-68133980D01*
X75329942Y-68133980D01*
X75425180Y-68181600D01*
X75472800Y-68229219D01*
X75520419Y-68324457D01*
X75520419Y-68419695D01*
X75472800Y-68562552D01*
X74901371Y-69133980D01*
X75520419Y-69133980D01*
X121940628Y-72437523D02*
X121940628Y-71675619D01*
X122321580Y-72056571D02*
X121559676Y-72056571D01*
X121321580Y-71342285D02*
X122321580Y-71008952D01*
X121321580Y-70675619D01*
X85126723Y-90320761D02*
X85269580Y-90368380D01*
X85507676Y-90368380D01*
X85602914Y-90320761D01*
X85650533Y-90273142D01*
X85698152Y-90177904D01*
X85698152Y-90082666D01*
X85650533Y-89987428D01*
X85602914Y-89939809D01*
X85507676Y-89892190D01*
X85317200Y-89844571D01*
X85221961Y-89796952D01*
X85174342Y-89749333D01*
X85126723Y-89654095D01*
X85126723Y-89558857D01*
X85174342Y-89463619D01*
X85221961Y-89416000D01*
X85317200Y-89368380D01*
X85555295Y-89368380D01*
X85698152Y-89416000D01*
X86698152Y-90273142D02*
X86650533Y-90320761D01*
X86507676Y-90368380D01*
X86412438Y-90368380D01*
X86269580Y-90320761D01*
X86174342Y-90225523D01*
X86126723Y-90130285D01*
X86079104Y-89939809D01*
X86079104Y-89796952D01*
X86126723Y-89606476D01*
X86174342Y-89511238D01*
X86269580Y-89416000D01*
X86412438Y-89368380D01*
X86507676Y-89368380D01*
X86650533Y-89416000D01*
X86698152Y-89463619D01*
X87602914Y-90368380D02*
X87126723Y-90368380D01*
X87126723Y-89368380D01*
X87936247Y-90368380D02*
X87936247Y-89368380D01*
X88507676Y-90368380D02*
X88079104Y-89796952D01*
X88507676Y-89368380D02*
X87936247Y-89939809D01*
D10*
X85480899Y-76540321D02*
X85623756Y-76587940D01*
X85671375Y-76635559D01*
X85718994Y-76730797D01*
X85718994Y-76873654D01*
X85671375Y-76968892D01*
X85623756Y-77016511D01*
X85528518Y-77064130D01*
X85147565Y-77064130D01*
X85147565Y-76064130D01*
X85480899Y-76064130D01*
X85576137Y-76111750D01*
X85623756Y-76159369D01*
X85671375Y-76254607D01*
X85671375Y-76349845D01*
X85623756Y-76445083D01*
X85576137Y-76492702D01*
X85480899Y-76540321D01*
X85147565Y-76540321D01*
X86147565Y-77064130D02*
X86147565Y-76397464D01*
X86147565Y-76064130D02*
X86099946Y-76111750D01*
X86147565Y-76159369D01*
X86195184Y-76111750D01*
X86147565Y-76064130D01*
X86147565Y-76159369D01*
X87052327Y-77064130D02*
X87052327Y-76540321D01*
X87004708Y-76445083D01*
X86909470Y-76397464D01*
X86718994Y-76397464D01*
X86623756Y-76445083D01*
X87052327Y-77016511D02*
X86957089Y-77064130D01*
X86718994Y-77064130D01*
X86623756Y-77016511D01*
X86576137Y-76921273D01*
X86576137Y-76826035D01*
X86623756Y-76730797D01*
X86718994Y-76683178D01*
X86957089Y-76683178D01*
X87052327Y-76635559D01*
X87480899Y-77016511D02*
X87576137Y-77064130D01*
X87766613Y-77064130D01*
X87861851Y-77016511D01*
X87909470Y-76921273D01*
X87909470Y-76873654D01*
X87861851Y-76778416D01*
X87766613Y-76730797D01*
X87623756Y-76730797D01*
X87528518Y-76683178D01*
X87480899Y-76587940D01*
X87480899Y-76540321D01*
X87528518Y-76445083D01*
X87623756Y-76397464D01*
X87766613Y-76397464D01*
X87861851Y-76445083D01*
X88290422Y-76159369D02*
X88338041Y-76111750D01*
X88433279Y-76064130D01*
X88671375Y-76064130D01*
X88766613Y-76111750D01*
X88814232Y-76159369D01*
X88861851Y-76254607D01*
X88861851Y-76349845D01*
X88814232Y-76492702D01*
X88242803Y-77064130D01*
X88861851Y-77064130D01*
D11*
X121400000Y-75261904D02*
X121352380Y-75357142D01*
X121352380Y-75500000D01*
X121400000Y-75642857D01*
X121495238Y-75738095D01*
X121590476Y-75785714D01*
X121780952Y-75833333D01*
X121923809Y-75833333D01*
X122114285Y-75785714D01*
X122209523Y-75738095D01*
X122304761Y-75642857D01*
X122352380Y-75500000D01*
X122352380Y-75404761D01*
X122304761Y-75261904D01*
X122257142Y-75214285D01*
X121923809Y-75214285D01*
X121923809Y-75404761D01*
X122352380Y-74785714D02*
X121352380Y-74785714D01*
X122352380Y-74214285D01*
X121352380Y-74214285D01*
X122352380Y-73738095D02*
X121352380Y-73738095D01*
X121352380Y-73500000D01*
X121400000Y-73357142D01*
X121495238Y-73261904D01*
X121590476Y-73214285D01*
X121780952Y-73166666D01*
X121923809Y-73166666D01*
X122114285Y-73214285D01*
X122209523Y-73261904D01*
X122304761Y-73357142D01*
X122352380Y-73500000D01*
X122352380Y-73738095D01*
X94496095Y-85443961D02*
X94638952Y-85491580D01*
X94877047Y-85491580D01*
X94972285Y-85443961D01*
X95019904Y-85396342D01*
X95067523Y-85301104D01*
X95067523Y-85205866D01*
X95019904Y-85110628D01*
X94972285Y-85063009D01*
X94877047Y-85015390D01*
X94686571Y-84967771D01*
X94591333Y-84920152D01*
X94543714Y-84872533D01*
X94496095Y-84777295D01*
X94496095Y-84682057D01*
X94543714Y-84586819D01*
X94591333Y-84539200D01*
X94686571Y-84491580D01*
X94924666Y-84491580D01*
X95067523Y-84539200D01*
X95496095Y-84967771D02*
X95829428Y-84967771D01*
X95972285Y-85491580D02*
X95496095Y-85491580D01*
X95496095Y-84491580D01*
X95972285Y-84491580D01*
X96400857Y-85491580D02*
X96400857Y-84491580D01*
X96972285Y-85491580D01*
X96972285Y-84491580D01*
X86625180Y-87828380D02*
X86291847Y-87352190D01*
X86053752Y-87828380D02*
X86053752Y-86828380D01*
X86434704Y-86828380D01*
X86529942Y-86876000D01*
X86577561Y-86923619D01*
X86625180Y-87018857D01*
X86625180Y-87161714D01*
X86577561Y-87256952D01*
X86529942Y-87304571D01*
X86434704Y-87352190D01*
X86053752Y-87352190D01*
X87006133Y-87780761D02*
X87148990Y-87828380D01*
X87387085Y-87828380D01*
X87482323Y-87780761D01*
X87529942Y-87733142D01*
X87577561Y-87637904D01*
X87577561Y-87542666D01*
X87529942Y-87447428D01*
X87482323Y-87399809D01*
X87387085Y-87352190D01*
X87196609Y-87304571D01*
X87101371Y-87256952D01*
X87053752Y-87209333D01*
X87006133Y-87114095D01*
X87006133Y-87018857D01*
X87053752Y-86923619D01*
X87101371Y-86876000D01*
X87196609Y-86828380D01*
X87434704Y-86828380D01*
X87577561Y-86876000D01*
X87863276Y-86828380D02*
X88434704Y-86828380D01*
X88148990Y-87828380D02*
X88148990Y-86828380D01*
X95046895Y-89619200D02*
X94951657Y-89571580D01*
X94808800Y-89571580D01*
X94665942Y-89619200D01*
X94570704Y-89714438D01*
X94523085Y-89809676D01*
X94475466Y-90000152D01*
X94475466Y-90143009D01*
X94523085Y-90333485D01*
X94570704Y-90428723D01*
X94665942Y-90523961D01*
X94808800Y-90571580D01*
X94904038Y-90571580D01*
X95046895Y-90523961D01*
X95094514Y-90476342D01*
X95094514Y-90143009D01*
X94904038Y-90143009D01*
X95523085Y-90571580D02*
X95523085Y-89571580D01*
X96094514Y-90571580D01*
X96094514Y-89571580D01*
X96570704Y-90571580D02*
X96570704Y-89571580D01*
X96808800Y-89571580D01*
X96951657Y-89619200D01*
X97046895Y-89714438D01*
X97094514Y-89809676D01*
X97142133Y-90000152D01*
X97142133Y-90143009D01*
X97094514Y-90333485D01*
X97046895Y-90428723D01*
X96951657Y-90523961D01*
X96808800Y-90571580D01*
X96570704Y-90571580D01*
X62936380Y-117230400D02*
X61936380Y-117230400D01*
X62936380Y-116754209D02*
X61936380Y-116754209D01*
X62936380Y-116182780D01*
X61936380Y-116182780D01*
X61936380Y-115278019D02*
X61936380Y-115468495D01*
X61984000Y-115563733D01*
X62031619Y-115611352D01*
X62174476Y-115706590D01*
X62364952Y-115754209D01*
X62745904Y-115754209D01*
X62841142Y-115706590D01*
X62888761Y-115658971D01*
X62936380Y-115563733D01*
X62936380Y-115373257D01*
X62888761Y-115278019D01*
X62841142Y-115230400D01*
X62745904Y-115182780D01*
X62507809Y-115182780D01*
X62412571Y-115230400D01*
X62364952Y-115278019D01*
X62317333Y-115373257D01*
X62317333Y-115563733D01*
X62364952Y-115658971D01*
X62412571Y-115706590D01*
X62507809Y-115754209D01*
X79772000Y-134970780D02*
X79772000Y-133970780D01*
X80248190Y-134970780D02*
X80248190Y-133970780D01*
X80819619Y-134970780D01*
X80819619Y-133970780D01*
X81438666Y-134399352D02*
X81343428Y-134351733D01*
X81295809Y-134304114D01*
X81248190Y-134208876D01*
X81248190Y-134161257D01*
X81295809Y-134066019D01*
X81343428Y-134018400D01*
X81438666Y-133970780D01*
X81629142Y-133970780D01*
X81724380Y-134018400D01*
X81772000Y-134066019D01*
X81819619Y-134161257D01*
X81819619Y-134208876D01*
X81772000Y-134304114D01*
X81724380Y-134351733D01*
X81629142Y-134399352D01*
X81438666Y-134399352D01*
X81343428Y-134446971D01*
X81295809Y-134494590D01*
X81248190Y-134589828D01*
X81248190Y-134780304D01*
X81295809Y-134875542D01*
X81343428Y-134923161D01*
X81438666Y-134970780D01*
X81629142Y-134970780D01*
X81724380Y-134923161D01*
X81772000Y-134875542D01*
X81819619Y-134780304D01*
X81819619Y-134589828D01*
X81772000Y-134494590D01*
X81724380Y-134446971D01*
X81629142Y-134399352D01*
X94394590Y-87983961D02*
X94537447Y-88031580D01*
X94775542Y-88031580D01*
X94870780Y-87983961D01*
X94918400Y-87936342D01*
X94966019Y-87841104D01*
X94966019Y-87745866D01*
X94918400Y-87650628D01*
X94870780Y-87603009D01*
X94775542Y-87555390D01*
X94585066Y-87507771D01*
X94489828Y-87460152D01*
X94442209Y-87412533D01*
X94394590Y-87317295D01*
X94394590Y-87222057D01*
X94442209Y-87126819D01*
X94489828Y-87079200D01*
X94585066Y-87031580D01*
X94823161Y-87031580D01*
X94966019Y-87079200D01*
X95394590Y-88031580D02*
X95394590Y-87031580D01*
X95632685Y-87031580D01*
X95775542Y-87079200D01*
X95870780Y-87174438D01*
X95918400Y-87269676D01*
X95966019Y-87460152D01*
X95966019Y-87603009D01*
X95918400Y-87793485D01*
X95870780Y-87888723D01*
X95775542Y-87983961D01*
X95632685Y-88031580D01*
X95394590Y-88031580D01*
X96346971Y-87745866D02*
X96823161Y-87745866D01*
X96251733Y-88031580D02*
X96585066Y-87031580D01*
X96918400Y-88031580D01*
X97108876Y-87031580D02*
X97680304Y-87031580D01*
X97394590Y-88031580D02*
X97394590Y-87031580D01*
X97966019Y-87745866D02*
X98442209Y-87745866D01*
X97870780Y-88031580D02*
X98204114Y-87031580D01*
X98537447Y-88031580D01*
X62834780Y-110829600D02*
X61834780Y-110829600D01*
X62834780Y-110353409D02*
X61834780Y-110353409D01*
X62834780Y-109781980D01*
X61834780Y-109781980D01*
X61834780Y-108829600D02*
X61834780Y-109305790D01*
X62310971Y-109353409D01*
X62263352Y-109305790D01*
X62215733Y-109210552D01*
X62215733Y-108972457D01*
X62263352Y-108877219D01*
X62310971Y-108829600D01*
X62406209Y-108781980D01*
X62644304Y-108781980D01*
X62739542Y-108829600D01*
X62787161Y-108877219D01*
X62834780Y-108972457D01*
X62834780Y-109210552D01*
X62787161Y-109305790D01*
X62739542Y-109353409D01*
X97304761Y-135157142D02*
X97257142Y-135204761D01*
X97114285Y-135252380D01*
X97019047Y-135252380D01*
X96876190Y-135204761D01*
X96780952Y-135109523D01*
X96733333Y-135014285D01*
X96685714Y-134823809D01*
X96685714Y-134680952D01*
X96733333Y-134490476D01*
X96780952Y-134395238D01*
X96876190Y-134300000D01*
X97019047Y-134252380D01*
X97114285Y-134252380D01*
X97257142Y-134300000D01*
X97304761Y-134347619D01*
X98209523Y-135252380D02*
X97733333Y-135252380D01*
X97733333Y-134252380D01*
X98542857Y-135252380D02*
X98542857Y-134252380D01*
X99114285Y-135252380D02*
X98685714Y-134680952D01*
X99114285Y-134252380D02*
X98542857Y-134823809D01*
X87279219Y-80502285D02*
X88279219Y-80502285D01*
X88279219Y-80883238D01*
X88231600Y-80978476D01*
X88183980Y-81026095D01*
X88088742Y-81073714D01*
X87945885Y-81073714D01*
X87850647Y-81026095D01*
X87803028Y-80978476D01*
X87755409Y-80883238D01*
X87755409Y-80502285D01*
X87279219Y-81502285D02*
X88279219Y-81502285D01*
X88279219Y-81740380D01*
X88231600Y-81883238D01*
X88136361Y-81978476D01*
X88041123Y-82026095D01*
X87850647Y-82073714D01*
X87707790Y-82073714D01*
X87517314Y-82026095D01*
X87422076Y-81978476D01*
X87326838Y-81883238D01*
X87279219Y-81740380D01*
X87279219Y-81502285D01*
X87279219Y-82502285D02*
X88279219Y-82502285D01*
X87279219Y-83073714D01*
X88279219Y-83073714D01*
X84977504Y-85596361D02*
X85120361Y-85643980D01*
X85358457Y-85643980D01*
X85453695Y-85596361D01*
X85501314Y-85548742D01*
X85548933Y-85453504D01*
X85548933Y-85358266D01*
X85501314Y-85263028D01*
X85453695Y-85215409D01*
X85358457Y-85167790D01*
X85167980Y-85120171D01*
X85072742Y-85072552D01*
X85025123Y-85024933D01*
X84977504Y-84929695D01*
X84977504Y-84834457D01*
X85025123Y-84739219D01*
X85072742Y-84691600D01*
X85167980Y-84643980D01*
X85406076Y-84643980D01*
X85548933Y-84691600D01*
X86167980Y-85167790D02*
X86167980Y-85643980D01*
X85834647Y-84643980D02*
X86167980Y-85167790D01*
X86501314Y-84643980D01*
X86834647Y-85643980D02*
X86834647Y-84643980D01*
X87406076Y-85643980D01*
X87406076Y-84643980D01*
X88453695Y-85548742D02*
X88406076Y-85596361D01*
X88263219Y-85643980D01*
X88167980Y-85643980D01*
X88025123Y-85596361D01*
X87929885Y-85501123D01*
X87882266Y-85405885D01*
X87834647Y-85215409D01*
X87834647Y-85072552D01*
X87882266Y-84882076D01*
X87929885Y-84786838D01*
X88025123Y-84691600D01*
X88167980Y-84643980D01*
X88263219Y-84643980D01*
X88406076Y-84691600D01*
X88453695Y-84739219D01*
X62783980Y-87969600D02*
X61783980Y-87969600D01*
X62783980Y-87493409D02*
X61783980Y-87493409D01*
X62783980Y-86921980D01*
X61783980Y-86921980D01*
X61783980Y-86541028D02*
X61783980Y-85921980D01*
X62164933Y-86255314D01*
X62164933Y-86112457D01*
X62212552Y-86017219D01*
X62260171Y-85969600D01*
X62355409Y-85921980D01*
X62593504Y-85921980D01*
X62688742Y-85969600D01*
X62736361Y-86017219D01*
X62783980Y-86112457D01*
X62783980Y-86398171D01*
X62736361Y-86493409D01*
X62688742Y-86541028D01*
X94458114Y-82954761D02*
X94600971Y-83002380D01*
X94839066Y-83002380D01*
X94934304Y-82954761D01*
X94981923Y-82907142D01*
X95029542Y-82811904D01*
X95029542Y-82716666D01*
X94981923Y-82621428D01*
X94934304Y-82573809D01*
X94839066Y-82526190D01*
X94648590Y-82478571D01*
X94553352Y-82430952D01*
X94505733Y-82383333D01*
X94458114Y-82288095D01*
X94458114Y-82192857D01*
X94505733Y-82097619D01*
X94553352Y-82050000D01*
X94648590Y-82002380D01*
X94886685Y-82002380D01*
X95029542Y-82050000D01*
X95458114Y-83002380D02*
X95458114Y-82002380D01*
X95696209Y-82002380D01*
X95839066Y-82050000D01*
X95934304Y-82145238D01*
X95981923Y-82240476D01*
X96029542Y-82430952D01*
X96029542Y-82573809D01*
X95981923Y-82764285D01*
X95934304Y-82859523D01*
X95839066Y-82954761D01*
X95696209Y-83002380D01*
X95458114Y-83002380D01*
X96648590Y-82002380D02*
X96839066Y-82002380D01*
X96934304Y-82050000D01*
X97029542Y-82145238D01*
X97077161Y-82335714D01*
X97077161Y-82669047D01*
X97029542Y-82859523D01*
X96934304Y-82954761D01*
X96839066Y-83002380D01*
X96648590Y-83002380D01*
X96553352Y-82954761D01*
X96458114Y-82859523D01*
X96410495Y-82669047D01*
X96410495Y-82335714D01*
X96458114Y-82145238D01*
X96553352Y-82050000D01*
X96648590Y-82002380D01*
X97505733Y-82002380D02*
X97505733Y-82811904D01*
X97553352Y-82907142D01*
X97600971Y-82954761D01*
X97696209Y-83002380D01*
X97886685Y-83002380D01*
X97981923Y-82954761D01*
X98029542Y-82907142D01*
X98077161Y-82811904D01*
X98077161Y-82002380D01*
X98410495Y-82002380D02*
X98981923Y-82002380D01*
X98696209Y-83002380D02*
X98696209Y-82002380D01*
X121420000Y-69443504D02*
X121372380Y-69538742D01*
X121372380Y-69681600D01*
X121420000Y-69824457D01*
X121515238Y-69919695D01*
X121610476Y-69967314D01*
X121800952Y-70014933D01*
X121943809Y-70014933D01*
X122134285Y-69967314D01*
X122229523Y-69919695D01*
X122324761Y-69824457D01*
X122372380Y-69681600D01*
X122372380Y-69586361D01*
X122324761Y-69443504D01*
X122277142Y-69395885D01*
X121943809Y-69395885D01*
X121943809Y-69586361D01*
X122372380Y-68967314D02*
X121372380Y-68967314D01*
X122372380Y-68395885D01*
X121372380Y-68395885D01*
X122372380Y-67919695D02*
X121372380Y-67919695D01*
X121372380Y-67681600D01*
X121420000Y-67538742D01*
X121515238Y-67443504D01*
X121610476Y-67395885D01*
X121800952Y-67348266D01*
X121943809Y-67348266D01*
X122134285Y-67395885D01*
X122229523Y-67443504D01*
X122324761Y-67538742D01*
X122372380Y-67681600D01*
X122372380Y-67919695D01*
X62783980Y-94472000D02*
X61783980Y-94472000D01*
X62783980Y-93995809D02*
X61783980Y-93995809D01*
X62783980Y-93424380D01*
X61783980Y-93424380D01*
X62117314Y-92519619D02*
X62783980Y-92519619D01*
X61736361Y-92757714D02*
X62450647Y-92995809D01*
X62450647Y-92376761D01*
D12*
X87675485Y-72716200D02*
X88389771Y-72716200D01*
X87532628Y-73144771D02*
X88032628Y-71644771D01*
X88532628Y-73144771D01*
X89032628Y-73144771D02*
X89032628Y-71644771D01*
X89389771Y-71644771D01*
X89604057Y-71716200D01*
X89746914Y-71859057D01*
X89818342Y-72001914D01*
X89889771Y-72287628D01*
X89889771Y-72501914D01*
X89818342Y-72787628D01*
X89746914Y-72930485D01*
X89604057Y-73073342D01*
X89389771Y-73144771D01*
X89032628Y-73144771D01*
X91389771Y-73001914D02*
X91318342Y-73073342D01*
X91104057Y-73144771D01*
X90961200Y-73144771D01*
X90746914Y-73073342D01*
X90604057Y-72930485D01*
X90532628Y-72787628D01*
X90461200Y-72501914D01*
X90461200Y-72287628D01*
X90532628Y-72001914D01*
X90604057Y-71859057D01*
X90746914Y-71716200D01*
X90961200Y-71644771D01*
X91104057Y-71644771D01*
X91318342Y-71716200D01*
X91389771Y-71787628D01*
X92246914Y-73144771D02*
X92104057Y-73073342D01*
X92032628Y-73001914D01*
X91961200Y-72859057D01*
X91961200Y-72430485D01*
X92032628Y-72287628D01*
X92104057Y-72216200D01*
X92246914Y-72144771D01*
X92461200Y-72144771D01*
X92604057Y-72216200D01*
X92675485Y-72287628D01*
X92746914Y-72430485D01*
X92746914Y-72859057D01*
X92675485Y-73001914D01*
X92604057Y-73073342D01*
X92461200Y-73144771D01*
X92246914Y-73144771D01*
X94032628Y-73073342D02*
X93889771Y-73144771D01*
X93604057Y-73144771D01*
X93461200Y-73073342D01*
X93389771Y-73001914D01*
X93318342Y-72859057D01*
X93318342Y-72430485D01*
X93389771Y-72287628D01*
X93461200Y-72216200D01*
X93604057Y-72144771D01*
X93889771Y-72144771D01*
X94032628Y-72216200D01*
X94461200Y-72144771D02*
X95032628Y-72144771D01*
X94675485Y-71644771D02*
X94675485Y-72930485D01*
X94746914Y-73073342D01*
X94889771Y-73144771D01*
X95032628Y-73144771D01*
X95746914Y-73144771D02*
X95604057Y-73073342D01*
X95532628Y-73001914D01*
X95461200Y-72859057D01*
X95461200Y-72430485D01*
X95532628Y-72287628D01*
X95604057Y-72216200D01*
X95746914Y-72144771D01*
X95961200Y-72144771D01*
X96104057Y-72216200D01*
X96175485Y-72287628D01*
X96246914Y-72430485D01*
X96246914Y-72859057D01*
X96175485Y-73001914D01*
X96104057Y-73073342D01*
X95961200Y-73144771D01*
X95746914Y-73144771D01*
X96818342Y-73073342D02*
X97032628Y-73144771D01*
X97389771Y-73144771D01*
X97532628Y-73073342D01*
X97604057Y-73001914D01*
X97675485Y-72859057D01*
X97675485Y-72716200D01*
X97604057Y-72573342D01*
X97532628Y-72501914D01*
X97389771Y-72430485D01*
X97104057Y-72359057D01*
X96961200Y-72287628D01*
X96889771Y-72216200D01*
X96818342Y-72073342D01*
X96818342Y-71930485D01*
X96889771Y-71787628D01*
X96961200Y-71716200D01*
X97104057Y-71644771D01*
X97461200Y-71644771D01*
X97675485Y-71716200D01*
X98318342Y-73144771D02*
X98318342Y-71644771D01*
X98889771Y-71644771D01*
X99032628Y-71716200D01*
X99104057Y-71787628D01*
X99175485Y-71930485D01*
X99175485Y-72144771D01*
X99104057Y-72287628D01*
X99032628Y-72359057D01*
X98889771Y-72430485D01*
X98318342Y-72430485D01*
X99818342Y-73144771D02*
X99818342Y-71644771D01*
X100818342Y-71644771D02*
X100961200Y-71644771D01*
X101104057Y-71716200D01*
X101175485Y-71787628D01*
X101246914Y-71930485D01*
X101318342Y-72216200D01*
X101318342Y-72573342D01*
X101246914Y-72859057D01*
X101175485Y-73001914D01*
X101104057Y-73073342D01*
X100961200Y-73144771D01*
X100818342Y-73144771D01*
X100675485Y-73073342D01*
X100604057Y-73001914D01*
X100532628Y-72859057D01*
X100461200Y-72573342D01*
X100461200Y-72216200D01*
X100532628Y-71930485D01*
X100604057Y-71787628D01*
X100675485Y-71716200D01*
X100818342Y-71644771D01*
X102746914Y-73144771D02*
X101889771Y-73144771D01*
X102318342Y-73144771D02*
X102318342Y-71644771D01*
X102175485Y-71859057D01*
X102032628Y-72001914D01*
X101889771Y-72073342D01*
X103889771Y-72359057D02*
X104104057Y-72430485D01*
X104175485Y-72501914D01*
X104246914Y-72644771D01*
X104246914Y-72859057D01*
X104175485Y-73001914D01*
X104104057Y-73073342D01*
X103961200Y-73144771D01*
X103389771Y-73144771D01*
X103389771Y-71644771D01*
X103889771Y-71644771D01*
X104032628Y-71716200D01*
X104104057Y-71787628D01*
X104175485Y-71930485D01*
X104175485Y-72073342D01*
X104104057Y-72216200D01*
X104032628Y-72287628D01*
X103889771Y-72359057D01*
X103389771Y-72359057D01*
D10*
%TO.C,C31*%
X107434142Y-75214782D02*
X107386523Y-75262401D01*
X107243666Y-75310020D01*
X107148428Y-75310020D01*
X107005571Y-75262401D01*
X106910333Y-75167163D01*
X106862714Y-75071925D01*
X106815095Y-74881449D01*
X106815095Y-74738592D01*
X106862714Y-74548116D01*
X106910333Y-74452878D01*
X107005571Y-74357640D01*
X107148428Y-74310020D01*
X107243666Y-74310020D01*
X107386523Y-74357640D01*
X107434142Y-74405259D01*
X107767476Y-74310020D02*
X108386523Y-74310020D01*
X108053190Y-74690973D01*
X108196047Y-74690973D01*
X108291285Y-74738592D01*
X108338904Y-74786211D01*
X108386523Y-74881449D01*
X108386523Y-75119544D01*
X108338904Y-75214782D01*
X108291285Y-75262401D01*
X108196047Y-75310020D01*
X107910333Y-75310020D01*
X107815095Y-75262401D01*
X107767476Y-75214782D01*
X109338904Y-75310020D02*
X108767476Y-75310020D01*
X109053190Y-75310020D02*
X109053190Y-74310020D01*
X108957952Y-74452878D01*
X108862714Y-74548116D01*
X108767476Y-74595735D01*
%TO.C,D1*%
X111852380Y-68438095D02*
X110852380Y-68438095D01*
X110852380Y-68200000D01*
X110900000Y-68057142D01*
X110995238Y-67961904D01*
X111090476Y-67914285D01*
X111280952Y-67866666D01*
X111423809Y-67866666D01*
X111614285Y-67914285D01*
X111709523Y-67961904D01*
X111804761Y-68057142D01*
X111852380Y-68200000D01*
X111852380Y-68438095D01*
X111852380Y-66914285D02*
X111852380Y-67485714D01*
X111852380Y-67200000D02*
X110852380Y-67200000D01*
X110995238Y-67295238D01*
X111090476Y-67390476D01*
X111138095Y-67485714D01*
%TO.C,R1*%
X79436933Y-75941180D02*
X79103600Y-75464990D01*
X78865504Y-75941180D02*
X78865504Y-74941180D01*
X79246457Y-74941180D01*
X79341695Y-74988800D01*
X79389314Y-75036419D01*
X79436933Y-75131657D01*
X79436933Y-75274514D01*
X79389314Y-75369752D01*
X79341695Y-75417371D01*
X79246457Y-75464990D01*
X78865504Y-75464990D01*
X80389314Y-75941180D02*
X79817885Y-75941180D01*
X80103600Y-75941180D02*
X80103600Y-74941180D01*
X80008361Y-75084038D01*
X79913123Y-75179276D01*
X79817885Y-75226895D01*
%TO.C,R2*%
X75576133Y-75941180D02*
X75242800Y-75464990D01*
X75004704Y-75941180D02*
X75004704Y-74941180D01*
X75385657Y-74941180D01*
X75480895Y-74988800D01*
X75528514Y-75036419D01*
X75576133Y-75131657D01*
X75576133Y-75274514D01*
X75528514Y-75369752D01*
X75480895Y-75417371D01*
X75385657Y-75464990D01*
X75004704Y-75464990D01*
X75957085Y-75036419D02*
X76004704Y-74988800D01*
X76099942Y-74941180D01*
X76338038Y-74941180D01*
X76433276Y-74988800D01*
X76480895Y-75036419D01*
X76528514Y-75131657D01*
X76528514Y-75226895D01*
X76480895Y-75369752D01*
X75909466Y-75941180D01*
X76528514Y-75941180D01*
%TO.C,R3*%
X69641980Y-88355466D02*
X69165790Y-88688800D01*
X69641980Y-88926895D02*
X68641980Y-88926895D01*
X68641980Y-88545942D01*
X68689600Y-88450704D01*
X68737219Y-88403085D01*
X68832457Y-88355466D01*
X68975314Y-88355466D01*
X69070552Y-88403085D01*
X69118171Y-88450704D01*
X69165790Y-88545942D01*
X69165790Y-88926895D01*
X68641980Y-88022133D02*
X68641980Y-87403085D01*
X69022933Y-87736419D01*
X69022933Y-87593561D01*
X69070552Y-87498323D01*
X69118171Y-87450704D01*
X69213409Y-87403085D01*
X69451504Y-87403085D01*
X69546742Y-87450704D01*
X69594361Y-87498323D01*
X69641980Y-87593561D01*
X69641980Y-87879276D01*
X69594361Y-87974514D01*
X69546742Y-88022133D01*
%TO.C,R4*%
X69591180Y-92216266D02*
X69114990Y-92549600D01*
X69591180Y-92787695D02*
X68591180Y-92787695D01*
X68591180Y-92406742D01*
X68638800Y-92311504D01*
X68686419Y-92263885D01*
X68781657Y-92216266D01*
X68924514Y-92216266D01*
X69019752Y-92263885D01*
X69067371Y-92311504D01*
X69114990Y-92406742D01*
X69114990Y-92787695D01*
X68924514Y-91359123D02*
X69591180Y-91359123D01*
X68543561Y-91597219D02*
X69257847Y-91835314D01*
X69257847Y-91216266D01*
%TO.C,R5*%
X69652380Y-111266666D02*
X69176190Y-111600000D01*
X69652380Y-111838095D02*
X68652380Y-111838095D01*
X68652380Y-111457142D01*
X68700000Y-111361904D01*
X68747619Y-111314285D01*
X68842857Y-111266666D01*
X68985714Y-111266666D01*
X69080952Y-111314285D01*
X69128571Y-111361904D01*
X69176190Y-111457142D01*
X69176190Y-111838095D01*
X68652380Y-110361904D02*
X68652380Y-110838095D01*
X69128571Y-110885714D01*
X69080952Y-110838095D01*
X69033333Y-110742857D01*
X69033333Y-110504761D01*
X69080952Y-110409523D01*
X69128571Y-110361904D01*
X69223809Y-110314285D01*
X69461904Y-110314285D01*
X69557142Y-110361904D01*
X69604761Y-110409523D01*
X69652380Y-110504761D01*
X69652380Y-110742857D01*
X69604761Y-110838095D01*
X69557142Y-110885714D01*
%TO.C,R6*%
X69652380Y-114966666D02*
X69176190Y-115300000D01*
X69652380Y-115538095D02*
X68652380Y-115538095D01*
X68652380Y-115157142D01*
X68700000Y-115061904D01*
X68747619Y-115014285D01*
X68842857Y-114966666D01*
X68985714Y-114966666D01*
X69080952Y-115014285D01*
X69128571Y-115061904D01*
X69176190Y-115157142D01*
X69176190Y-115538095D01*
X68652380Y-114109523D02*
X68652380Y-114300000D01*
X68700000Y-114395238D01*
X68747619Y-114442857D01*
X68890476Y-114538095D01*
X69080952Y-114585714D01*
X69461904Y-114585714D01*
X69557142Y-114538095D01*
X69604761Y-114490476D01*
X69652380Y-114395238D01*
X69652380Y-114204761D01*
X69604761Y-114109523D01*
X69557142Y-114061904D01*
X69461904Y-114014285D01*
X69223809Y-114014285D01*
X69128571Y-114061904D01*
X69080952Y-114109523D01*
X69033333Y-114204761D01*
X69033333Y-114395238D01*
X69080952Y-114490476D01*
X69128571Y-114538095D01*
X69223809Y-114585714D01*
%TO.C,R7*%
X75601533Y-128352380D02*
X75268200Y-127876190D01*
X75030104Y-128352380D02*
X75030104Y-127352380D01*
X75411057Y-127352380D01*
X75506295Y-127400000D01*
X75553914Y-127447619D01*
X75601533Y-127542857D01*
X75601533Y-127685714D01*
X75553914Y-127780952D01*
X75506295Y-127828571D01*
X75411057Y-127876190D01*
X75030104Y-127876190D01*
X75934866Y-127352380D02*
X76601533Y-127352380D01*
X76172961Y-128352380D01*
%TO.C,R8*%
X79333333Y-128352380D02*
X79000000Y-127876190D01*
X78761904Y-128352380D02*
X78761904Y-127352380D01*
X79142857Y-127352380D01*
X79238095Y-127400000D01*
X79285714Y-127447619D01*
X79333333Y-127542857D01*
X79333333Y-127685714D01*
X79285714Y-127780952D01*
X79238095Y-127828571D01*
X79142857Y-127876190D01*
X78761904Y-127876190D01*
X79904761Y-127780952D02*
X79809523Y-127733333D01*
X79761904Y-127685714D01*
X79714285Y-127590476D01*
X79714285Y-127542857D01*
X79761904Y-127447619D01*
X79809523Y-127400000D01*
X79904761Y-127352380D01*
X80095238Y-127352380D01*
X80190476Y-127400000D01*
X80238095Y-127447619D01*
X80285714Y-127542857D01*
X80285714Y-127590476D01*
X80238095Y-127685714D01*
X80190476Y-127733333D01*
X80095238Y-127780952D01*
X79904761Y-127780952D01*
X79809523Y-127828571D01*
X79761904Y-127876190D01*
X79714285Y-127971428D01*
X79714285Y-128161904D01*
X79761904Y-128257142D01*
X79809523Y-128304761D01*
X79904761Y-128352380D01*
X80095238Y-128352380D01*
X80190476Y-128304761D01*
X80238095Y-128257142D01*
X80285714Y-128161904D01*
X80285714Y-127971428D01*
X80238095Y-127876190D01*
X80190476Y-127828571D01*
X80095238Y-127780952D01*
%TO.C,R9*%
X98433333Y-125652380D02*
X98100000Y-125176190D01*
X97861904Y-125652380D02*
X97861904Y-124652380D01*
X98242857Y-124652380D01*
X98338095Y-124700000D01*
X98385714Y-124747619D01*
X98433333Y-124842857D01*
X98433333Y-124985714D01*
X98385714Y-125080952D01*
X98338095Y-125128571D01*
X98242857Y-125176190D01*
X97861904Y-125176190D01*
X98909523Y-125652380D02*
X99100000Y-125652380D01*
X99195238Y-125604761D01*
X99242857Y-125557142D01*
X99338095Y-125414285D01*
X99385714Y-125223809D01*
X99385714Y-124842857D01*
X99338095Y-124747619D01*
X99290476Y-124700000D01*
X99195238Y-124652380D01*
X99004761Y-124652380D01*
X98909523Y-124700000D01*
X98861904Y-124747619D01*
X98814285Y-124842857D01*
X98814285Y-125080952D01*
X98861904Y-125176190D01*
X98909523Y-125223809D01*
X99004761Y-125271428D01*
X99195238Y-125271428D01*
X99290476Y-125223809D01*
X99338095Y-125176190D01*
X99385714Y-125080952D01*
%TO.C,R14*%
X98057142Y-127552380D02*
X97723809Y-127076190D01*
X97485714Y-127552380D02*
X97485714Y-126552380D01*
X97866666Y-126552380D01*
X97961904Y-126600000D01*
X98009523Y-126647619D01*
X98057142Y-126742857D01*
X98057142Y-126885714D01*
X98009523Y-126980952D01*
X97961904Y-127028571D01*
X97866666Y-127076190D01*
X97485714Y-127076190D01*
X99009523Y-127552380D02*
X98438095Y-127552380D01*
X98723809Y-127552380D02*
X98723809Y-126552380D01*
X98628571Y-126695238D01*
X98533333Y-126790476D01*
X98438095Y-126838095D01*
X99866666Y-126885714D02*
X99866666Y-127552380D01*
X99628571Y-126504761D02*
X99390476Y-127219047D01*
X100009523Y-127219047D01*
%TO.C,R10*%
X89457142Y-123352380D02*
X89123809Y-122876190D01*
X88885714Y-123352380D02*
X88885714Y-122352380D01*
X89266666Y-122352380D01*
X89361904Y-122400000D01*
X89409523Y-122447619D01*
X89457142Y-122542857D01*
X89457142Y-122685714D01*
X89409523Y-122780952D01*
X89361904Y-122828571D01*
X89266666Y-122876190D01*
X88885714Y-122876190D01*
X90409523Y-123352380D02*
X89838095Y-123352380D01*
X90123809Y-123352380D02*
X90123809Y-122352380D01*
X90028571Y-122495238D01*
X89933333Y-122590476D01*
X89838095Y-122638095D01*
X91028571Y-122352380D02*
X91123809Y-122352380D01*
X91219047Y-122400000D01*
X91266666Y-122447619D01*
X91314285Y-122542857D01*
X91361904Y-122733333D01*
X91361904Y-122971428D01*
X91314285Y-123161904D01*
X91266666Y-123257142D01*
X91219047Y-123304761D01*
X91123809Y-123352380D01*
X91028571Y-123352380D01*
X90933333Y-123304761D01*
X90885714Y-123257142D01*
X90838095Y-123161904D01*
X90790476Y-122971428D01*
X90790476Y-122733333D01*
X90838095Y-122542857D01*
X90885714Y-122447619D01*
X90933333Y-122400000D01*
X91028571Y-122352380D01*
%TO.C,R15*%
X88857142Y-128052380D02*
X88523809Y-127576190D01*
X88285714Y-128052380D02*
X88285714Y-127052380D01*
X88666666Y-127052380D01*
X88761904Y-127100000D01*
X88809523Y-127147619D01*
X88857142Y-127242857D01*
X88857142Y-127385714D01*
X88809523Y-127480952D01*
X88761904Y-127528571D01*
X88666666Y-127576190D01*
X88285714Y-127576190D01*
X89809523Y-128052380D02*
X89238095Y-128052380D01*
X89523809Y-128052380D02*
X89523809Y-127052380D01*
X89428571Y-127195238D01*
X89333333Y-127290476D01*
X89238095Y-127338095D01*
X90714285Y-127052380D02*
X90238095Y-127052380D01*
X90190476Y-127528571D01*
X90238095Y-127480952D01*
X90333333Y-127433333D01*
X90571428Y-127433333D01*
X90666666Y-127480952D01*
X90714285Y-127528571D01*
X90761904Y-127623809D01*
X90761904Y-127861904D01*
X90714285Y-127957142D01*
X90666666Y-128004761D01*
X90571428Y-128052380D01*
X90333333Y-128052380D01*
X90238095Y-128004761D01*
X90190476Y-127957142D01*
%TO.C,C34*%
X108857142Y-69942857D02*
X108904761Y-69990476D01*
X108952380Y-70133333D01*
X108952380Y-70228571D01*
X108904761Y-70371428D01*
X108809523Y-70466666D01*
X108714285Y-70514285D01*
X108523809Y-70561904D01*
X108380952Y-70561904D01*
X108190476Y-70514285D01*
X108095238Y-70466666D01*
X108000000Y-70371428D01*
X107952380Y-70228571D01*
X107952380Y-70133333D01*
X108000000Y-69990476D01*
X108047619Y-69942857D01*
X107952380Y-69609523D02*
X107952380Y-68990476D01*
X108333333Y-69323809D01*
X108333333Y-69180952D01*
X108380952Y-69085714D01*
X108428571Y-69038095D01*
X108523809Y-68990476D01*
X108761904Y-68990476D01*
X108857142Y-69038095D01*
X108904761Y-69085714D01*
X108952380Y-69180952D01*
X108952380Y-69466666D01*
X108904761Y-69561904D01*
X108857142Y-69609523D01*
X108285714Y-68133333D02*
X108952380Y-68133333D01*
X107904761Y-68371428D02*
X108619047Y-68609523D01*
X108619047Y-67990476D01*
%TO.C,C1*%
X80957142Y-81866666D02*
X81004761Y-81914285D01*
X81052380Y-82057142D01*
X81052380Y-82152380D01*
X81004761Y-82295238D01*
X80909523Y-82390476D01*
X80814285Y-82438095D01*
X80623809Y-82485714D01*
X80480952Y-82485714D01*
X80290476Y-82438095D01*
X80195238Y-82390476D01*
X80100000Y-82295238D01*
X80052380Y-82152380D01*
X80052380Y-82057142D01*
X80100000Y-81914285D01*
X80147619Y-81866666D01*
X81052380Y-80914285D02*
X81052380Y-81485714D01*
X81052380Y-81200000D02*
X80052380Y-81200000D01*
X80195238Y-81295238D01*
X80290476Y-81390476D01*
X80338095Y-81485714D01*
%TO.C,C2*%
X79057142Y-81966666D02*
X79104761Y-82014285D01*
X79152380Y-82157142D01*
X79152380Y-82252380D01*
X79104761Y-82395238D01*
X79009523Y-82490476D01*
X78914285Y-82538095D01*
X78723809Y-82585714D01*
X78580952Y-82585714D01*
X78390476Y-82538095D01*
X78295238Y-82490476D01*
X78200000Y-82395238D01*
X78152380Y-82252380D01*
X78152380Y-82157142D01*
X78200000Y-82014285D01*
X78247619Y-81966666D01*
X78247619Y-81585714D02*
X78200000Y-81538095D01*
X78152380Y-81442857D01*
X78152380Y-81204761D01*
X78200000Y-81109523D01*
X78247619Y-81061904D01*
X78342857Y-81014285D01*
X78438095Y-81014285D01*
X78580952Y-81061904D01*
X79152380Y-81633333D01*
X79152380Y-81014285D01*
%TO.C,C9*%
X77057142Y-82066666D02*
X77104761Y-82114285D01*
X77152380Y-82257142D01*
X77152380Y-82352380D01*
X77104761Y-82495238D01*
X77009523Y-82590476D01*
X76914285Y-82638095D01*
X76723809Y-82685714D01*
X76580952Y-82685714D01*
X76390476Y-82638095D01*
X76295238Y-82590476D01*
X76200000Y-82495238D01*
X76152380Y-82352380D01*
X76152380Y-82257142D01*
X76200000Y-82114285D01*
X76247619Y-82066666D01*
X77152380Y-81590476D02*
X77152380Y-81400000D01*
X77104761Y-81304761D01*
X77057142Y-81257142D01*
X76914285Y-81161904D01*
X76723809Y-81114285D01*
X76342857Y-81114285D01*
X76247619Y-81161904D01*
X76200000Y-81209523D01*
X76152380Y-81304761D01*
X76152380Y-81495238D01*
X76200000Y-81590476D01*
X76247619Y-81638095D01*
X76342857Y-81685714D01*
X76580952Y-81685714D01*
X76676190Y-81638095D01*
X76723809Y-81590476D01*
X76771428Y-81495238D01*
X76771428Y-81304761D01*
X76723809Y-81209523D01*
X76676190Y-81161904D01*
X76580952Y-81114285D01*
%TO.C,C10*%
X75157142Y-83042857D02*
X75204761Y-83090476D01*
X75252380Y-83233333D01*
X75252380Y-83328571D01*
X75204761Y-83471428D01*
X75109523Y-83566666D01*
X75014285Y-83614285D01*
X74823809Y-83661904D01*
X74680952Y-83661904D01*
X74490476Y-83614285D01*
X74395238Y-83566666D01*
X74300000Y-83471428D01*
X74252380Y-83328571D01*
X74252380Y-83233333D01*
X74300000Y-83090476D01*
X74347619Y-83042857D01*
X75252380Y-82090476D02*
X75252380Y-82661904D01*
X75252380Y-82376190D02*
X74252380Y-82376190D01*
X74395238Y-82471428D01*
X74490476Y-82566666D01*
X74538095Y-82661904D01*
X74252380Y-81471428D02*
X74252380Y-81376190D01*
X74300000Y-81280952D01*
X74347619Y-81233333D01*
X74442857Y-81185714D01*
X74633333Y-81138095D01*
X74871428Y-81138095D01*
X75061904Y-81185714D01*
X75157142Y-81233333D01*
X75204761Y-81280952D01*
X75252380Y-81376190D01*
X75252380Y-81471428D01*
X75204761Y-81566666D01*
X75157142Y-81614285D01*
X75061904Y-81661904D01*
X74871428Y-81709523D01*
X74633333Y-81709523D01*
X74442857Y-81661904D01*
X74347619Y-81614285D01*
X74300000Y-81566666D01*
X74252380Y-81471428D01*
%TO.C,C3*%
X75533333Y-87757142D02*
X75485714Y-87804761D01*
X75342857Y-87852380D01*
X75247619Y-87852380D01*
X75104761Y-87804761D01*
X75009523Y-87709523D01*
X74961904Y-87614285D01*
X74914285Y-87423809D01*
X74914285Y-87280952D01*
X74961904Y-87090476D01*
X75009523Y-86995238D01*
X75104761Y-86900000D01*
X75247619Y-86852380D01*
X75342857Y-86852380D01*
X75485714Y-86900000D01*
X75533333Y-86947619D01*
X75866666Y-86852380D02*
X76485714Y-86852380D01*
X76152380Y-87233333D01*
X76295238Y-87233333D01*
X76390476Y-87280952D01*
X76438095Y-87328571D01*
X76485714Y-87423809D01*
X76485714Y-87661904D01*
X76438095Y-87757142D01*
X76390476Y-87804761D01*
X76295238Y-87852380D01*
X76009523Y-87852380D01*
X75914285Y-87804761D01*
X75866666Y-87757142D01*
%TO.C,C4*%
X75533333Y-89457142D02*
X75485714Y-89504761D01*
X75342857Y-89552380D01*
X75247619Y-89552380D01*
X75104761Y-89504761D01*
X75009523Y-89409523D01*
X74961904Y-89314285D01*
X74914285Y-89123809D01*
X74914285Y-88980952D01*
X74961904Y-88790476D01*
X75009523Y-88695238D01*
X75104761Y-88600000D01*
X75247619Y-88552380D01*
X75342857Y-88552380D01*
X75485714Y-88600000D01*
X75533333Y-88647619D01*
X76390476Y-88885714D02*
X76390476Y-89552380D01*
X76152380Y-88504761D02*
X75914285Y-89219047D01*
X76533333Y-89219047D01*
%TO.C,C11*%
X75057142Y-91457142D02*
X75009523Y-91504761D01*
X74866666Y-91552380D01*
X74771428Y-91552380D01*
X74628571Y-91504761D01*
X74533333Y-91409523D01*
X74485714Y-91314285D01*
X74438095Y-91123809D01*
X74438095Y-90980952D01*
X74485714Y-90790476D01*
X74533333Y-90695238D01*
X74628571Y-90600000D01*
X74771428Y-90552380D01*
X74866666Y-90552380D01*
X75009523Y-90600000D01*
X75057142Y-90647619D01*
X76009523Y-91552380D02*
X75438095Y-91552380D01*
X75723809Y-91552380D02*
X75723809Y-90552380D01*
X75628571Y-90695238D01*
X75533333Y-90790476D01*
X75438095Y-90838095D01*
X76961904Y-91552380D02*
X76390476Y-91552380D01*
X76676190Y-91552380D02*
X76676190Y-90552380D01*
X76580952Y-90695238D01*
X76485714Y-90790476D01*
X76390476Y-90838095D01*
%TO.C,C12*%
X75457142Y-93257142D02*
X75409523Y-93304761D01*
X75266666Y-93352380D01*
X75171428Y-93352380D01*
X75028571Y-93304761D01*
X74933333Y-93209523D01*
X74885714Y-93114285D01*
X74838095Y-92923809D01*
X74838095Y-92780952D01*
X74885714Y-92590476D01*
X74933333Y-92495238D01*
X75028571Y-92400000D01*
X75171428Y-92352380D01*
X75266666Y-92352380D01*
X75409523Y-92400000D01*
X75457142Y-92447619D01*
X76409523Y-93352380D02*
X75838095Y-93352380D01*
X76123809Y-93352380D02*
X76123809Y-92352380D01*
X76028571Y-92495238D01*
X75933333Y-92590476D01*
X75838095Y-92638095D01*
X76790476Y-92447619D02*
X76838095Y-92400000D01*
X76933333Y-92352380D01*
X77171428Y-92352380D01*
X77266666Y-92400000D01*
X77314285Y-92447619D01*
X77361904Y-92542857D01*
X77361904Y-92638095D01*
X77314285Y-92780952D01*
X76742857Y-93352380D01*
X77361904Y-93352380D01*
%TO.C,C5*%
X75833333Y-110557142D02*
X75785714Y-110604761D01*
X75642857Y-110652380D01*
X75547619Y-110652380D01*
X75404761Y-110604761D01*
X75309523Y-110509523D01*
X75261904Y-110414285D01*
X75214285Y-110223809D01*
X75214285Y-110080952D01*
X75261904Y-109890476D01*
X75309523Y-109795238D01*
X75404761Y-109700000D01*
X75547619Y-109652380D01*
X75642857Y-109652380D01*
X75785714Y-109700000D01*
X75833333Y-109747619D01*
X76738095Y-109652380D02*
X76261904Y-109652380D01*
X76214285Y-110128571D01*
X76261904Y-110080952D01*
X76357142Y-110033333D01*
X76595238Y-110033333D01*
X76690476Y-110080952D01*
X76738095Y-110128571D01*
X76785714Y-110223809D01*
X76785714Y-110461904D01*
X76738095Y-110557142D01*
X76690476Y-110604761D01*
X76595238Y-110652380D01*
X76357142Y-110652380D01*
X76261904Y-110604761D01*
X76214285Y-110557142D01*
%TO.C,C6*%
X75933333Y-112357142D02*
X75885714Y-112404761D01*
X75742857Y-112452380D01*
X75647619Y-112452380D01*
X75504761Y-112404761D01*
X75409523Y-112309523D01*
X75361904Y-112214285D01*
X75314285Y-112023809D01*
X75314285Y-111880952D01*
X75361904Y-111690476D01*
X75409523Y-111595238D01*
X75504761Y-111500000D01*
X75647619Y-111452380D01*
X75742857Y-111452380D01*
X75885714Y-111500000D01*
X75933333Y-111547619D01*
X76790476Y-111452380D02*
X76600000Y-111452380D01*
X76504761Y-111500000D01*
X76457142Y-111547619D01*
X76361904Y-111690476D01*
X76314285Y-111880952D01*
X76314285Y-112261904D01*
X76361904Y-112357142D01*
X76409523Y-112404761D01*
X76504761Y-112452380D01*
X76695238Y-112452380D01*
X76790476Y-112404761D01*
X76838095Y-112357142D01*
X76885714Y-112261904D01*
X76885714Y-112023809D01*
X76838095Y-111928571D01*
X76790476Y-111880952D01*
X76695238Y-111833333D01*
X76504761Y-111833333D01*
X76409523Y-111880952D01*
X76361904Y-111928571D01*
X76314285Y-112023809D01*
%TO.C,C13*%
X75457142Y-114357142D02*
X75409523Y-114404761D01*
X75266666Y-114452380D01*
X75171428Y-114452380D01*
X75028571Y-114404761D01*
X74933333Y-114309523D01*
X74885714Y-114214285D01*
X74838095Y-114023809D01*
X74838095Y-113880952D01*
X74885714Y-113690476D01*
X74933333Y-113595238D01*
X75028571Y-113500000D01*
X75171428Y-113452380D01*
X75266666Y-113452380D01*
X75409523Y-113500000D01*
X75457142Y-113547619D01*
X76409523Y-114452380D02*
X75838095Y-114452380D01*
X76123809Y-114452380D02*
X76123809Y-113452380D01*
X76028571Y-113595238D01*
X75933333Y-113690476D01*
X75838095Y-113738095D01*
X76742857Y-113452380D02*
X77361904Y-113452380D01*
X77028571Y-113833333D01*
X77171428Y-113833333D01*
X77266666Y-113880952D01*
X77314285Y-113928571D01*
X77361904Y-114023809D01*
X77361904Y-114261904D01*
X77314285Y-114357142D01*
X77266666Y-114404761D01*
X77171428Y-114452380D01*
X76885714Y-114452380D01*
X76790476Y-114404761D01*
X76742857Y-114357142D01*
%TO.C,C14*%
X75457142Y-116057142D02*
X75409523Y-116104761D01*
X75266666Y-116152380D01*
X75171428Y-116152380D01*
X75028571Y-116104761D01*
X74933333Y-116009523D01*
X74885714Y-115914285D01*
X74838095Y-115723809D01*
X74838095Y-115580952D01*
X74885714Y-115390476D01*
X74933333Y-115295238D01*
X75028571Y-115200000D01*
X75171428Y-115152380D01*
X75266666Y-115152380D01*
X75409523Y-115200000D01*
X75457142Y-115247619D01*
X76409523Y-116152380D02*
X75838095Y-116152380D01*
X76123809Y-116152380D02*
X76123809Y-115152380D01*
X76028571Y-115295238D01*
X75933333Y-115390476D01*
X75838095Y-115438095D01*
X77266666Y-115485714D02*
X77266666Y-116152380D01*
X77028571Y-115104761D02*
X76790476Y-115819047D01*
X77409523Y-115819047D01*
%TO.C,C7*%
X75257142Y-120866666D02*
X75304761Y-120914285D01*
X75352380Y-121057142D01*
X75352380Y-121152380D01*
X75304761Y-121295238D01*
X75209523Y-121390476D01*
X75114285Y-121438095D01*
X74923809Y-121485714D01*
X74780952Y-121485714D01*
X74590476Y-121438095D01*
X74495238Y-121390476D01*
X74400000Y-121295238D01*
X74352380Y-121152380D01*
X74352380Y-121057142D01*
X74400000Y-120914285D01*
X74447619Y-120866666D01*
X74352380Y-120533333D02*
X74352380Y-119866666D01*
X75352380Y-120295238D01*
%TO.C,C8*%
X76957142Y-120866666D02*
X77004761Y-120914285D01*
X77052380Y-121057142D01*
X77052380Y-121152380D01*
X77004761Y-121295238D01*
X76909523Y-121390476D01*
X76814285Y-121438095D01*
X76623809Y-121485714D01*
X76480952Y-121485714D01*
X76290476Y-121438095D01*
X76195238Y-121390476D01*
X76100000Y-121295238D01*
X76052380Y-121152380D01*
X76052380Y-121057142D01*
X76100000Y-120914285D01*
X76147619Y-120866666D01*
X76480952Y-120295238D02*
X76433333Y-120390476D01*
X76385714Y-120438095D01*
X76290476Y-120485714D01*
X76242857Y-120485714D01*
X76147619Y-120438095D01*
X76100000Y-120390476D01*
X76052380Y-120295238D01*
X76052380Y-120104761D01*
X76100000Y-120009523D01*
X76147619Y-119961904D01*
X76242857Y-119914285D01*
X76290476Y-119914285D01*
X76385714Y-119961904D01*
X76433333Y-120009523D01*
X76480952Y-120104761D01*
X76480952Y-120295238D01*
X76528571Y-120390476D01*
X76576190Y-120438095D01*
X76671428Y-120485714D01*
X76861904Y-120485714D01*
X76957142Y-120438095D01*
X77004761Y-120390476D01*
X77052380Y-120295238D01*
X77052380Y-120104761D01*
X77004761Y-120009523D01*
X76957142Y-119961904D01*
X76861904Y-119914285D01*
X76671428Y-119914285D01*
X76576190Y-119961904D01*
X76528571Y-120009523D01*
X76480952Y-120104761D01*
%TO.C,C15*%
X79057142Y-121442857D02*
X79104761Y-121490476D01*
X79152380Y-121633333D01*
X79152380Y-121728571D01*
X79104761Y-121871428D01*
X79009523Y-121966666D01*
X78914285Y-122014285D01*
X78723809Y-122061904D01*
X78580952Y-122061904D01*
X78390476Y-122014285D01*
X78295238Y-121966666D01*
X78200000Y-121871428D01*
X78152380Y-121728571D01*
X78152380Y-121633333D01*
X78200000Y-121490476D01*
X78247619Y-121442857D01*
X79152380Y-120490476D02*
X79152380Y-121061904D01*
X79152380Y-120776190D02*
X78152380Y-120776190D01*
X78295238Y-120871428D01*
X78390476Y-120966666D01*
X78438095Y-121061904D01*
X78152380Y-119585714D02*
X78152380Y-120061904D01*
X78628571Y-120109523D01*
X78580952Y-120061904D01*
X78533333Y-119966666D01*
X78533333Y-119728571D01*
X78580952Y-119633333D01*
X78628571Y-119585714D01*
X78723809Y-119538095D01*
X78961904Y-119538095D01*
X79057142Y-119585714D01*
X79104761Y-119633333D01*
X79152380Y-119728571D01*
X79152380Y-119966666D01*
X79104761Y-120061904D01*
X79057142Y-120109523D01*
%TO.C,C16*%
X80857142Y-121442857D02*
X80904761Y-121490476D01*
X80952380Y-121633333D01*
X80952380Y-121728571D01*
X80904761Y-121871428D01*
X80809523Y-121966666D01*
X80714285Y-122014285D01*
X80523809Y-122061904D01*
X80380952Y-122061904D01*
X80190476Y-122014285D01*
X80095238Y-121966666D01*
X80000000Y-121871428D01*
X79952380Y-121728571D01*
X79952380Y-121633333D01*
X80000000Y-121490476D01*
X80047619Y-121442857D01*
X80952380Y-120490476D02*
X80952380Y-121061904D01*
X80952380Y-120776190D02*
X79952380Y-120776190D01*
X80095238Y-120871428D01*
X80190476Y-120966666D01*
X80238095Y-121061904D01*
X79952380Y-119633333D02*
X79952380Y-119823809D01*
X80000000Y-119919047D01*
X80047619Y-119966666D01*
X80190476Y-120061904D01*
X80380952Y-120109523D01*
X80761904Y-120109523D01*
X80857142Y-120061904D01*
X80904761Y-120014285D01*
X80952380Y-119919047D01*
X80952380Y-119728571D01*
X80904761Y-119633333D01*
X80857142Y-119585714D01*
X80761904Y-119538095D01*
X80523809Y-119538095D01*
X80428571Y-119585714D01*
X80380952Y-119633333D01*
X80333333Y-119728571D01*
X80333333Y-119919047D01*
X80380952Y-120014285D01*
X80428571Y-120061904D01*
X80523809Y-120109523D01*
%TO.C,C19*%
X83857142Y-84342857D02*
X83904761Y-84390476D01*
X83952380Y-84533333D01*
X83952380Y-84628571D01*
X83904761Y-84771428D01*
X83809523Y-84866666D01*
X83714285Y-84914285D01*
X83523809Y-84961904D01*
X83380952Y-84961904D01*
X83190476Y-84914285D01*
X83095238Y-84866666D01*
X83000000Y-84771428D01*
X82952380Y-84628571D01*
X82952380Y-84533333D01*
X83000000Y-84390476D01*
X83047619Y-84342857D01*
X83952380Y-83390476D02*
X83952380Y-83961904D01*
X83952380Y-83676190D02*
X82952380Y-83676190D01*
X83095238Y-83771428D01*
X83190476Y-83866666D01*
X83238095Y-83961904D01*
X83952380Y-82914285D02*
X83952380Y-82723809D01*
X83904761Y-82628571D01*
X83857142Y-82580952D01*
X83714285Y-82485714D01*
X83523809Y-82438095D01*
X83142857Y-82438095D01*
X83047619Y-82485714D01*
X83000000Y-82533333D01*
X82952380Y-82628571D01*
X82952380Y-82819047D01*
X83000000Y-82914285D01*
X83047619Y-82961904D01*
X83142857Y-83009523D01*
X83380952Y-83009523D01*
X83476190Y-82961904D01*
X83523809Y-82914285D01*
X83571428Y-82819047D01*
X83571428Y-82628571D01*
X83523809Y-82533333D01*
X83476190Y-82485714D01*
X83380952Y-82438095D01*
%TO.C,C20*%
X93357142Y-120142857D02*
X93404761Y-120190476D01*
X93452380Y-120333333D01*
X93452380Y-120428571D01*
X93404761Y-120571428D01*
X93309523Y-120666666D01*
X93214285Y-120714285D01*
X93023809Y-120761904D01*
X92880952Y-120761904D01*
X92690476Y-120714285D01*
X92595238Y-120666666D01*
X92500000Y-120571428D01*
X92452380Y-120428571D01*
X92452380Y-120333333D01*
X92500000Y-120190476D01*
X92547619Y-120142857D01*
X92547619Y-119761904D02*
X92500000Y-119714285D01*
X92452380Y-119619047D01*
X92452380Y-119380952D01*
X92500000Y-119285714D01*
X92547619Y-119238095D01*
X92642857Y-119190476D01*
X92738095Y-119190476D01*
X92880952Y-119238095D01*
X93452380Y-119809523D01*
X93452380Y-119190476D01*
X92452380Y-118571428D02*
X92452380Y-118476190D01*
X92500000Y-118380952D01*
X92547619Y-118333333D01*
X92642857Y-118285714D01*
X92833333Y-118238095D01*
X93071428Y-118238095D01*
X93261904Y-118285714D01*
X93357142Y-118333333D01*
X93404761Y-118380952D01*
X93452380Y-118476190D01*
X93452380Y-118571428D01*
X93404761Y-118666666D01*
X93357142Y-118714285D01*
X93261904Y-118761904D01*
X93071428Y-118809523D01*
X92833333Y-118809523D01*
X92642857Y-118761904D01*
X92547619Y-118714285D01*
X92500000Y-118666666D01*
X92452380Y-118571428D01*
%TO.C,C21*%
X95257142Y-120142857D02*
X95304761Y-120190476D01*
X95352380Y-120333333D01*
X95352380Y-120428571D01*
X95304761Y-120571428D01*
X95209523Y-120666666D01*
X95114285Y-120714285D01*
X94923809Y-120761904D01*
X94780952Y-120761904D01*
X94590476Y-120714285D01*
X94495238Y-120666666D01*
X94400000Y-120571428D01*
X94352380Y-120428571D01*
X94352380Y-120333333D01*
X94400000Y-120190476D01*
X94447619Y-120142857D01*
X94447619Y-119761904D02*
X94400000Y-119714285D01*
X94352380Y-119619047D01*
X94352380Y-119380952D01*
X94400000Y-119285714D01*
X94447619Y-119238095D01*
X94542857Y-119190476D01*
X94638095Y-119190476D01*
X94780952Y-119238095D01*
X95352380Y-119809523D01*
X95352380Y-119190476D01*
X95352380Y-118238095D02*
X95352380Y-118809523D01*
X95352380Y-118523809D02*
X94352380Y-118523809D01*
X94495238Y-118619047D01*
X94590476Y-118714285D01*
X94638095Y-118809523D01*
%TO.C,C17*%
X90006422Y-113870977D02*
X90054041Y-113918596D01*
X90101660Y-114061453D01*
X90101660Y-114156691D01*
X90054041Y-114299548D01*
X89958803Y-114394786D01*
X89863565Y-114442405D01*
X89673089Y-114490024D01*
X89530232Y-114490024D01*
X89339756Y-114442405D01*
X89244518Y-114394786D01*
X89149280Y-114299548D01*
X89101660Y-114156691D01*
X89101660Y-114061453D01*
X89149280Y-113918596D01*
X89196899Y-113870977D01*
X90101660Y-112918596D02*
X90101660Y-113490024D01*
X90101660Y-113204310D02*
X89101660Y-113204310D01*
X89244518Y-113299548D01*
X89339756Y-113394786D01*
X89387375Y-113490024D01*
X89101660Y-112585262D02*
X89101660Y-111918596D01*
X90101660Y-112347167D01*
%TO.C,J7*%
X101841666Y-127087380D02*
X101841666Y-127801666D01*
X101794047Y-127944523D01*
X101698809Y-128039761D01*
X101555952Y-128087380D01*
X101460714Y-128087380D01*
X102222619Y-127087380D02*
X102889285Y-127087380D01*
X102460714Y-128087380D01*
%TO.C,J4*%
X83691666Y-127087380D02*
X83691666Y-127801666D01*
X83644047Y-127944523D01*
X83548809Y-128039761D01*
X83405952Y-128087380D01*
X83310714Y-128087380D01*
X84596428Y-127420714D02*
X84596428Y-128087380D01*
X84358333Y-127039761D02*
X84120238Y-127754047D01*
X84739285Y-127754047D01*
%TO.C,J1*%
X71041666Y-75041380D02*
X71041666Y-75755666D01*
X70994047Y-75898523D01*
X70898809Y-75993761D01*
X70755952Y-76041380D01*
X70660714Y-76041380D01*
X72041666Y-76041380D02*
X71470238Y-76041380D01*
X71755952Y-76041380D02*
X71755952Y-75041380D01*
X71660714Y-75184238D01*
X71565476Y-75279476D01*
X71470238Y-75327095D01*
%TO.C,J2*%
X68667380Y-96853333D02*
X69381666Y-96853333D01*
X69524523Y-96900952D01*
X69619761Y-96996190D01*
X69667380Y-97139047D01*
X69667380Y-97234285D01*
X68762619Y-96424761D02*
X68715000Y-96377142D01*
X68667380Y-96281904D01*
X68667380Y-96043809D01*
X68715000Y-95948571D01*
X68762619Y-95900952D01*
X68857857Y-95853333D01*
X68953095Y-95853333D01*
X69095952Y-95900952D01*
X69667380Y-96472380D01*
X69667380Y-95853333D01*
%TO.C,J3*%
X68667380Y-119713333D02*
X69381666Y-119713333D01*
X69524523Y-119760952D01*
X69619761Y-119856190D01*
X69667380Y-119999047D01*
X69667380Y-120094285D01*
X68667380Y-119332380D02*
X68667380Y-118713333D01*
X69048333Y-119046666D01*
X69048333Y-118903809D01*
X69095952Y-118808571D01*
X69143571Y-118760952D01*
X69238809Y-118713333D01*
X69476904Y-118713333D01*
X69572142Y-118760952D01*
X69619761Y-118808571D01*
X69667380Y-118903809D01*
X69667380Y-119189523D01*
X69619761Y-119284761D01*
X69572142Y-119332380D01*
%TO.C,J8*%
X89966666Y-79302380D02*
X89966666Y-80016666D01*
X89919047Y-80159523D01*
X89823809Y-80254761D01*
X89680952Y-80302380D01*
X89585714Y-80302380D01*
X90585714Y-79730952D02*
X90490476Y-79683333D01*
X90442857Y-79635714D01*
X90395238Y-79540476D01*
X90395238Y-79492857D01*
X90442857Y-79397619D01*
X90490476Y-79350000D01*
X90585714Y-79302380D01*
X90776190Y-79302380D01*
X90871428Y-79350000D01*
X90919047Y-79397619D01*
X90966666Y-79492857D01*
X90966666Y-79540476D01*
X90919047Y-79635714D01*
X90871428Y-79683333D01*
X90776190Y-79730952D01*
X90585714Y-79730952D01*
X90490476Y-79778571D01*
X90442857Y-79826190D01*
X90395238Y-79921428D01*
X90395238Y-80111904D01*
X90442857Y-80207142D01*
X90490476Y-80254761D01*
X90585714Y-80302380D01*
X90776190Y-80302380D01*
X90871428Y-80254761D01*
X90919047Y-80207142D01*
X90966666Y-80111904D01*
X90966666Y-79921428D01*
X90919047Y-79826190D01*
X90871428Y-79778571D01*
X90776190Y-79730952D01*
%TO.C,J6*%
X85366666Y-83102380D02*
X85366666Y-83816666D01*
X85319047Y-83959523D01*
X85223809Y-84054761D01*
X85080952Y-84102380D01*
X84985714Y-84102380D01*
X86271428Y-83102380D02*
X86080952Y-83102380D01*
X85985714Y-83150000D01*
X85938095Y-83197619D01*
X85842857Y-83340476D01*
X85795238Y-83530952D01*
X85795238Y-83911904D01*
X85842857Y-84007142D01*
X85890476Y-84054761D01*
X85985714Y-84102380D01*
X86176190Y-84102380D01*
X86271428Y-84054761D01*
X86319047Y-84007142D01*
X86366666Y-83911904D01*
X86366666Y-83673809D01*
X86319047Y-83578571D01*
X86271428Y-83530952D01*
X86176190Y-83483333D01*
X85985714Y-83483333D01*
X85890476Y-83530952D01*
X85842857Y-83578571D01*
X85795238Y-83673809D01*
%TO.C,J5*%
X85566666Y-115302380D02*
X85566666Y-116016666D01*
X85519047Y-116159523D01*
X85423809Y-116254761D01*
X85280952Y-116302380D01*
X85185714Y-116302380D01*
X86519047Y-115302380D02*
X86042857Y-115302380D01*
X85995238Y-115778571D01*
X86042857Y-115730952D01*
X86138095Y-115683333D01*
X86376190Y-115683333D01*
X86471428Y-115730952D01*
X86519047Y-115778571D01*
X86566666Y-115873809D01*
X86566666Y-116111904D01*
X86519047Y-116207142D01*
X86471428Y-116254761D01*
X86376190Y-116302380D01*
X86138095Y-116302380D01*
X86042857Y-116254761D01*
X85995238Y-116207142D01*
%TO.C,J9*%
X93666666Y-107702380D02*
X93666666Y-108416666D01*
X93619047Y-108559523D01*
X93523809Y-108654761D01*
X93380952Y-108702380D01*
X93285714Y-108702380D01*
X94190476Y-108702380D02*
X94380952Y-108702380D01*
X94476190Y-108654761D01*
X94523809Y-108607142D01*
X94619047Y-108464285D01*
X94666666Y-108273809D01*
X94666666Y-107892857D01*
X94619047Y-107797619D01*
X94571428Y-107750000D01*
X94476190Y-107702380D01*
X94285714Y-107702380D01*
X94190476Y-107750000D01*
X94142857Y-107797619D01*
X94095238Y-107892857D01*
X94095238Y-108130952D01*
X94142857Y-108226190D01*
X94190476Y-108273809D01*
X94285714Y-108321428D01*
X94476190Y-108321428D01*
X94571428Y-108273809D01*
X94619047Y-108226190D01*
X94666666Y-108130952D01*
%TO.C,J11*%
X115910476Y-75402380D02*
X115910476Y-76116666D01*
X115862857Y-76259523D01*
X115767619Y-76354761D01*
X115624761Y-76402380D01*
X115529523Y-76402380D01*
X116910476Y-76402380D02*
X116339047Y-76402380D01*
X116624761Y-76402380D02*
X116624761Y-75402380D01*
X116529523Y-75545238D01*
X116434285Y-75640476D01*
X116339047Y-75688095D01*
X117862857Y-76402380D02*
X117291428Y-76402380D01*
X117577142Y-76402380D02*
X117577142Y-75402380D01*
X117481904Y-75545238D01*
X117386666Y-75640476D01*
X117291428Y-75688095D01*
D13*
X115431857Y-68956190D02*
X115146142Y-68956190D01*
X115289000Y-68956190D02*
X115289000Y-68456190D01*
X115241380Y-68527619D01*
X115193761Y-68575238D01*
X115146142Y-68599047D01*
D10*
%TO.C,J10*%
X114270756Y-108452380D02*
X114270756Y-109166666D01*
X114223137Y-109309523D01*
X114127899Y-109404761D01*
X113985041Y-109452380D01*
X113889803Y-109452380D01*
X115270756Y-109452380D02*
X114699327Y-109452380D01*
X114985041Y-109452380D02*
X114985041Y-108452380D01*
X114889803Y-108595238D01*
X114794565Y-108690476D01*
X114699327Y-108738095D01*
X115889803Y-108452380D02*
X115985041Y-108452380D01*
X116080280Y-108500000D01*
X116127899Y-108547619D01*
X116175518Y-108642857D01*
X116223137Y-108833333D01*
X116223137Y-109071428D01*
X116175518Y-109261904D01*
X116127899Y-109357142D01*
X116080280Y-109404761D01*
X115985041Y-109452380D01*
X115889803Y-109452380D01*
X115794565Y-109404761D01*
X115746946Y-109357142D01*
X115699327Y-109261904D01*
X115651708Y-109071428D01*
X115651708Y-108833333D01*
X115699327Y-108642857D01*
X115746946Y-108547619D01*
X115794565Y-108500000D01*
X115889803Y-108452380D01*
D14*
%TO.C,U1*%
X85432380Y-97804523D02*
X85432380Y-98832619D01*
X85492857Y-98953571D01*
X85553333Y-99014047D01*
X85674285Y-99074523D01*
X85916190Y-99074523D01*
X86037142Y-99014047D01*
X86097619Y-98953571D01*
X86158095Y-98832619D01*
X86158095Y-97804523D01*
X87428095Y-99074523D02*
X86702380Y-99074523D01*
X87065238Y-99074523D02*
X87065238Y-97804523D01*
X86944285Y-97985952D01*
X86823333Y-98106904D01*
X86702380Y-98167380D01*
D10*
%TO.C,L1*%
X87033333Y-124052380D02*
X86557142Y-124052380D01*
X86557142Y-123052380D01*
X87890476Y-124052380D02*
X87319047Y-124052380D01*
X87604761Y-124052380D02*
X87604761Y-123052380D01*
X87509523Y-123195238D01*
X87414285Y-123290476D01*
X87319047Y-123338095D01*
D15*
%TO.C,C31*%
X108788252Y-73917640D02*
X107365748Y-73917640D01*
X108788252Y-71197640D02*
X107365748Y-71197640D01*
%TO.C,D1*%
X111634000Y-74266000D02*
X114934000Y-74266000D01*
X114934000Y-74266000D02*
X114934000Y-68866000D01*
X111634000Y-74266000D02*
X111634000Y-68866000D01*
%TO.C,R1*%
X79866258Y-76312500D02*
X79391742Y-76312500D01*
X79866258Y-77357500D02*
X79391742Y-77357500D01*
%TO.C,R2*%
X76056258Y-76312500D02*
X75581742Y-76312500D01*
X76056258Y-77357500D02*
X75581742Y-77357500D01*
%TO.C,R3*%
X71104020Y-88020122D02*
X71104020Y-88494638D01*
X70059020Y-88020122D02*
X70059020Y-88494638D01*
%TO.C,R4*%
X71109100Y-91837742D02*
X71109100Y-92312258D01*
X70064100Y-91837742D02*
X70064100Y-92312258D01*
%TO.C,R5*%
X71109100Y-110900442D02*
X71109100Y-111374958D01*
X70064100Y-110900442D02*
X70064100Y-111374958D01*
%TO.C,R6*%
X70076800Y-114659642D02*
X70076800Y-115134158D01*
X71121800Y-114659642D02*
X71121800Y-115134158D01*
%TO.C,R7*%
X75530942Y-126887500D02*
X76005458Y-126887500D01*
X75530942Y-125842500D02*
X76005458Y-125842500D01*
%TO.C,R8*%
X79353642Y-125842500D02*
X79828158Y-125842500D01*
X79353642Y-126887500D02*
X79828158Y-126887500D01*
%TO.C,R9*%
X95139742Y-125744500D02*
X95614258Y-125744500D01*
X95139742Y-124699500D02*
X95614258Y-124699500D01*
%TO.C,R14*%
X95614258Y-126604500D02*
X95139742Y-126604500D01*
X95614258Y-127649500D02*
X95139742Y-127649500D01*
%TO.C,R10*%
X92566258Y-125744500D02*
X92091742Y-125744500D01*
X92566258Y-124699500D02*
X92091742Y-124699500D01*
%TO.C,R15*%
X92103742Y-126604500D02*
X92578258Y-126604500D01*
X92103742Y-127649500D02*
X92578258Y-127649500D01*
%TO.C,C34*%
X109345000Y-69316420D02*
X109345000Y-69597580D01*
X110365000Y-69316420D02*
X110365000Y-69597580D01*
%TO.C,C1*%
X81028000Y-79515580D02*
X81028000Y-79234420D01*
X80008000Y-79515580D02*
X80008000Y-79234420D01*
%TO.C,C2*%
X78230000Y-79515580D02*
X78230000Y-79234420D01*
X79250000Y-79515580D02*
X79250000Y-79234420D01*
%TO.C,C9*%
X76198000Y-79515580D02*
X76198000Y-79234420D01*
X77218000Y-79515580D02*
X77218000Y-79234420D01*
%TO.C,C10*%
X75440000Y-79515580D02*
X75440000Y-79234420D01*
X74420000Y-79515580D02*
X74420000Y-79234420D01*
%TO.C,C3*%
X73262100Y-86858380D02*
X72980940Y-86858380D01*
X73262100Y-87878380D02*
X72980940Y-87878380D01*
%TO.C,C4*%
X73262100Y-88636380D02*
X72980940Y-88636380D01*
X73262100Y-89656380D02*
X72980940Y-89656380D01*
%TO.C,C11*%
X73267180Y-91696000D02*
X72986020Y-91696000D01*
X73267180Y-90676000D02*
X72986020Y-90676000D01*
%TO.C,C12*%
X73267180Y-92454000D02*
X72986020Y-92454000D01*
X73267180Y-93474000D02*
X72986020Y-93474000D01*
%TO.C,C5*%
X73267180Y-110758700D02*
X72986020Y-110758700D01*
X73267180Y-109738700D02*
X72986020Y-109738700D01*
%TO.C,C6*%
X73267180Y-111516700D02*
X72986020Y-111516700D01*
X73267180Y-112536700D02*
X72986020Y-112536700D01*
%TO.C,C13*%
X73279880Y-114517900D02*
X72998720Y-114517900D01*
X73279880Y-113497900D02*
X72998720Y-113497900D01*
%TO.C,C14*%
X73279880Y-115275900D02*
X72998720Y-115275900D01*
X73279880Y-116295900D02*
X72998720Y-116295900D01*
%TO.C,C7*%
X75389200Y-123684420D02*
X75389200Y-123965580D01*
X74369200Y-123684420D02*
X74369200Y-123965580D01*
%TO.C,C8*%
X76147200Y-123684420D02*
X76147200Y-123965580D01*
X77167200Y-123684420D02*
X77167200Y-123965580D01*
%TO.C,C15*%
X78191900Y-123684420D02*
X78191900Y-123965580D01*
X79211900Y-123684420D02*
X79211900Y-123965580D01*
%TO.C,C16*%
X79969900Y-123684420D02*
X79969900Y-123965580D01*
X80989900Y-123684420D02*
X80989900Y-123965580D01*
%TO.C,C19*%
X83954080Y-80963380D02*
X83954080Y-80682220D01*
X82934080Y-80963380D02*
X82934080Y-80682220D01*
%TO.C,C20*%
X93410500Y-122822580D02*
X93410500Y-122541420D01*
X92390500Y-122822580D02*
X92390500Y-122541420D01*
%TO.C,C21*%
X94295500Y-122822580D02*
X94295500Y-122541420D01*
X95315500Y-122822580D02*
X95315500Y-122541420D01*
%TO.C,C17*%
X88729280Y-113087540D02*
X88729280Y-113368700D01*
X87709280Y-113087540D02*
X87709280Y-113368700D01*
%TO.C,J7*%
X104125000Y-128588000D02*
X104125000Y-133588000D01*
X104125000Y-133588000D02*
X87525000Y-133588000D01*
X87525000Y-133588000D02*
X87525000Y-128588000D01*
X87525000Y-128588000D02*
X104125000Y-128588000D01*
%TO.C,J4*%
X85975000Y-128588000D02*
X85975000Y-133588000D01*
X69375000Y-133588000D02*
X69375000Y-128588000D01*
X69375000Y-128588000D02*
X85975000Y-128588000D01*
X85975000Y-133588000D02*
X69375000Y-133588000D01*
%TO.C,J1*%
X69425000Y-69636000D02*
X86025000Y-69636000D01*
X86025000Y-74636000D02*
X69425000Y-74636000D01*
X86025000Y-69636000D02*
X86025000Y-74636000D01*
X69425000Y-74636000D02*
X69425000Y-69636000D01*
%TO.C,J2*%
X68262000Y-81870000D02*
X68262000Y-98470000D01*
X68262000Y-98470000D02*
X63262000Y-98470000D01*
X63262000Y-81870000D02*
X68262000Y-81870000D01*
X63262000Y-98470000D02*
X63262000Y-81870000D01*
%TO.C,J3*%
X63262000Y-121330000D02*
X63262000Y-104730000D01*
X68262000Y-121330000D02*
X63262000Y-121330000D01*
X68262000Y-104730000D02*
X68262000Y-121330000D01*
X63262000Y-104730000D02*
X68262000Y-104730000D01*
D10*
%TO.C,J8*%
X93980000Y-90932000D02*
X88900000Y-90932000D01*
X88900000Y-90932000D02*
X88900000Y-80772000D01*
X88900000Y-80772000D02*
X93980000Y-80772000D01*
X93980000Y-80772000D02*
X93980000Y-90932000D01*
%TO.C,J6*%
X84405000Y-77800000D02*
X86945000Y-77800000D01*
X84405000Y-82880000D02*
X84405000Y-77800000D01*
X86945000Y-82880000D02*
X84405000Y-82880000D01*
X86945000Y-77800000D02*
X86945000Y-82880000D01*
%TO.C,J5*%
X89410000Y-115190000D02*
X89410000Y-120270000D01*
X86870000Y-115190000D02*
X89410000Y-115190000D01*
X86870000Y-120270000D02*
X86870000Y-115190000D01*
X89410000Y-120270000D02*
X86870000Y-120270000D01*
%TO.C,J9*%
X92460000Y-109280000D02*
X95000000Y-109280000D01*
X95000000Y-114360000D02*
X92460000Y-114360000D01*
X95000000Y-109280000D02*
X95000000Y-114360000D01*
X92460000Y-114360000D02*
X92460000Y-109280000D01*
%TO.C,J11*%
X120750000Y-75080000D02*
X115670000Y-75080000D01*
X120750000Y-67460000D02*
X120750000Y-75080000D01*
X115670000Y-75080000D02*
X115670000Y-67460000D01*
X115670000Y-67460000D02*
X120750000Y-67460000D01*
D15*
%TO.C,J10*%
X128580280Y-108100000D02*
X128580280Y-107660000D01*
X128580280Y-95100000D02*
X109580280Y-95100000D01*
X109580280Y-98800000D02*
X109580280Y-98380000D01*
X128580280Y-96779000D02*
X128580280Y-95100000D01*
X111150280Y-108100000D02*
X128580280Y-108100000D01*
X128580280Y-98809000D02*
X128580280Y-98381000D01*
X109580280Y-102800000D02*
X109580280Y-100410000D01*
X109580280Y-96770000D02*
X109580280Y-95100000D01*
X128580280Y-102800000D02*
X128580280Y-100411000D01*
X125580280Y-94710000D02*
X126080280Y-94260000D01*
X125080280Y-94260000D02*
X125580280Y-94710000D01*
X109580280Y-107040000D02*
X109580280Y-104410000D01*
X126080280Y-94260000D02*
X125080280Y-94260000D01*
X128580280Y-106040000D02*
X128580280Y-104410000D01*
D16*
%TO.C,U1*%
X87919800Y-97100000D02*
G75*
G03*
X87919800Y-97100000I-125000J0D01*
G01*
D15*
%TO.C,L1*%
X88331448Y-124512000D02*
X88853952Y-124512000D01*
X88331448Y-125932000D02*
X88853952Y-125932000D01*
%TD*%
D17*
%TO.C,J8*%
X90170000Y-82042000D03*
X92710000Y-82042000D03*
X90170000Y-84582000D03*
X92710000Y-84582000D03*
X90170000Y-87122000D03*
X92710000Y-87122000D03*
X90170000Y-89662000D03*
X92710000Y-89662000D03*
%TD*%
%TO.C,J6*%
X85675000Y-81610000D03*
X85675000Y-79070000D03*
%TD*%
%TO.C,J5*%
X88140000Y-116460000D03*
X88140000Y-119000000D03*
%TD*%
%TO.C,J9*%
X93730000Y-110550000D03*
X93730000Y-113090000D03*
%TD*%
M02*
