%TF.GenerationSoftware,KiCad,Pcbnew,6.0.4-6f826c9f35~116~ubuntu20.04.1*%
%TF.CreationDate,2022-05-19T09:34:47+00:00*%
%TF.ProjectId,ADCoctoSPI01B,4144436f-6374-46f5-9350-493031422e6b,rev?*%
%TF.SameCoordinates,Original*%
%TF.FileFunction,Soldermask,Top*%
%TF.FilePolarity,Negative*%
%FSLAX46Y46*%
G04 Gerber Fmt 4.6, Leading zero omitted, Abs format (unit mm)*
G04 Created by KiCad (PCBNEW 6.0.4-6f826c9f35~116~ubuntu20.04.1) date 2022-05-19 09:34:47*
%MOMM*%
%LPD*%
G01*
G04 APERTURE LIST*
G04 Aperture macros list*
%AMRoundRect*
0 Rectangle with rounded corners*
0 $1 Rounding radius*
0 $2 $3 $4 $5 $6 $7 $8 $9 X,Y pos of 4 corners*
0 Add a 4 corners polygon primitive as box body*
4,1,4,$2,$3,$4,$5,$6,$7,$8,$9,$2,$3,0*
0 Add four circle primitives for the rounded corners*
1,1,$1+$1,$2,$3*
1,1,$1+$1,$4,$5*
1,1,$1+$1,$6,$7*
1,1,$1+$1,$8,$9*
0 Add four rect primitives between the rounded corners*
20,1,$1+$1,$2,$3,$4,$5,0*
20,1,$1+$1,$4,$5,$6,$7,0*
20,1,$1+$1,$6,$7,$8,$9,0*
20,1,$1+$1,$8,$9,$2,$3,0*%
G04 Aperture macros list end*
%ADD10C,6.300000*%
%ADD11RoundRect,0.400000X0.412500X1.100000X-0.412500X1.100000X-0.412500X-1.100000X0.412500X-1.100000X0*%
%ADD12RoundRect,0.150000X0.900000X-1.250000X0.900000X1.250000X-0.900000X1.250000X-0.900000X-1.250000X0*%
%ADD13RoundRect,0.350000X0.200000X0.275000X-0.200000X0.275000X-0.200000X-0.275000X0.200000X-0.275000X0*%
%ADD14RoundRect,0.350000X-0.275000X0.200000X-0.275000X-0.200000X0.275000X-0.200000X0.275000X0.200000X0*%
%ADD15RoundRect,0.350000X-0.200000X-0.275000X0.200000X-0.275000X0.200000X0.275000X-0.200000X0.275000X0*%
%ADD16RoundRect,0.375000X-0.250000X0.225000X-0.250000X-0.225000X0.250000X-0.225000X0.250000X0.225000X0*%
%ADD17RoundRect,0.375000X0.250000X-0.225000X0.250000X0.225000X-0.250000X0.225000X-0.250000X-0.225000X0*%
%ADD18RoundRect,0.375000X0.225000X0.250000X-0.225000X0.250000X-0.225000X-0.250000X0.225000X-0.250000X0*%
%ADD19O,1.400000X1.600000*%
%ADD20C,2.800000*%
%ADD21O,1.600000X1.400000*%
%ADD22RoundRect,0.150000X-0.762000X-0.762000X0.762000X-0.762000X0.762000X0.762000X-0.762000X0.762000X0*%
%ADD23RoundRect,0.150000X0.762000X0.762000X-0.762000X0.762000X-0.762000X-0.762000X0.762000X-0.762000X0*%
%ADD24C,1.850000*%
%ADD25O,0.650000X2.100000*%
%ADD26RoundRect,0.210000X0.340000X-0.060000X0.340000X0.060000X-0.340000X0.060000X-0.340000X-0.060000X0*%
%ADD27RoundRect,0.210000X-0.060000X-0.340000X0.060000X-0.340000X0.060000X0.340000X-0.060000X0.340000X0*%
%ADD28C,0.700000*%
%ADD29RoundRect,0.150000X-3.700000X-3.700000X3.700000X-3.700000X3.700000X3.700000X-3.700000X3.700000X0*%
%ADD30RoundRect,0.400000X-0.325000X-0.450000X0.325000X-0.450000X0.325000X0.450000X-0.325000X0.450000X0*%
G04 APERTURE END LIST*
D10*
%TO.C,M1*%
X64770000Y-71120000D03*
%TD*%
%TO.C,M2*%
X125730000Y-71120000D03*
%TD*%
%TO.C,M3*%
X125730000Y-132080000D03*
%TD*%
%TO.C,M4*%
X64770000Y-132080000D03*
%TD*%
D11*
%TO.C,C31*%
X109639500Y-72557640D03*
X106514500Y-72557640D03*
%TD*%
D12*
%TO.C,D1*%
X113284000Y-72866000D03*
X113284000Y-68866000D03*
%TD*%
D13*
%TO.C,R1*%
X80454000Y-76835000D03*
X78804000Y-76835000D03*
%TD*%
%TO.C,R2*%
X76644000Y-76835000D03*
X74994000Y-76835000D03*
%TD*%
D14*
%TO.C,R3*%
X70581520Y-87432380D03*
X70581520Y-89082380D03*
%TD*%
%TO.C,R4*%
X70586600Y-91250000D03*
X70586600Y-92900000D03*
%TD*%
%TO.C,R5*%
X70586600Y-110312700D03*
X70586600Y-111962700D03*
%TD*%
%TO.C,R6*%
X70599300Y-114071900D03*
X70599300Y-115721900D03*
%TD*%
D15*
%TO.C,R7*%
X74943200Y-126365000D03*
X76593200Y-126365000D03*
%TD*%
%TO.C,R8*%
X78765900Y-126365000D03*
X80415900Y-126365000D03*
%TD*%
%TO.C,R9*%
X94552000Y-125222000D03*
X96202000Y-125222000D03*
%TD*%
D13*
%TO.C,R14*%
X96202000Y-127127000D03*
X94552000Y-127127000D03*
%TD*%
%TO.C,R10*%
X93154000Y-125222000D03*
X91504000Y-125222000D03*
%TD*%
D15*
%TO.C,R15*%
X91516000Y-127127000D03*
X93166000Y-127127000D03*
%TD*%
D16*
%TO.C,C34*%
X109855000Y-68682000D03*
X109855000Y-70232000D03*
%TD*%
D17*
%TO.C,C1*%
X80518000Y-80150000D03*
X80518000Y-78600000D03*
%TD*%
%TO.C,C2*%
X78740000Y-80150000D03*
X78740000Y-78600000D03*
%TD*%
%TO.C,C9*%
X76708000Y-80150000D03*
X76708000Y-78600000D03*
%TD*%
%TO.C,C10*%
X74930000Y-80150000D03*
X74930000Y-78600000D03*
%TD*%
D18*
%TO.C,C3*%
X73896520Y-87368380D03*
X72346520Y-87368380D03*
%TD*%
%TO.C,C4*%
X73896520Y-89146380D03*
X72346520Y-89146380D03*
%TD*%
%TO.C,C11*%
X73901600Y-91186000D03*
X72351600Y-91186000D03*
%TD*%
%TO.C,C12*%
X73901600Y-92964000D03*
X72351600Y-92964000D03*
%TD*%
%TO.C,C5*%
X73901600Y-110248700D03*
X72351600Y-110248700D03*
%TD*%
%TO.C,C6*%
X73901600Y-112026700D03*
X72351600Y-112026700D03*
%TD*%
%TO.C,C13*%
X73914300Y-114007900D03*
X72364300Y-114007900D03*
%TD*%
%TO.C,C14*%
X73914300Y-115785900D03*
X72364300Y-115785900D03*
%TD*%
D16*
%TO.C,C7*%
X74879200Y-123050000D03*
X74879200Y-124600000D03*
%TD*%
%TO.C,C8*%
X76657200Y-123050000D03*
X76657200Y-124600000D03*
%TD*%
%TO.C,C15*%
X78701900Y-123050000D03*
X78701900Y-124600000D03*
%TD*%
%TO.C,C16*%
X80479900Y-123050000D03*
X80479900Y-124600000D03*
%TD*%
D17*
%TO.C,C19*%
X83700000Y-78975000D03*
X83700000Y-77425000D03*
%TD*%
%TO.C,C20*%
X92900500Y-123457000D03*
X92900500Y-121907000D03*
%TD*%
%TO.C,C21*%
X94805500Y-123457000D03*
X94805500Y-121907000D03*
%TD*%
D16*
%TO.C,C17*%
X88219280Y-112453120D03*
X88219280Y-114003120D03*
%TD*%
D19*
%TO.C,J7*%
X99635000Y-132588000D03*
X98365000Y-131088000D03*
X97095000Y-131088000D03*
X95825000Y-132588000D03*
X94555000Y-131088000D03*
X93285000Y-131088000D03*
X92015000Y-132588000D03*
D20*
X89265000Y-130088000D03*
X102095000Y-131088000D03*
%TD*%
D19*
%TO.C,J4*%
X81485000Y-132588000D03*
X80215000Y-131088000D03*
X78945000Y-131088000D03*
X77675000Y-132588000D03*
X76405000Y-131088000D03*
X75135000Y-131088000D03*
X73865000Y-132588000D03*
D20*
X71115000Y-130088000D03*
X83945000Y-131088000D03*
%TD*%
D19*
%TO.C,J1*%
X73915000Y-70636000D03*
X75185000Y-72136000D03*
X76455000Y-72136000D03*
X77725000Y-70636000D03*
X78995000Y-72136000D03*
X80265000Y-72136000D03*
X81535000Y-70636000D03*
D20*
X84285000Y-73136000D03*
X71455000Y-72136000D03*
%TD*%
D21*
%TO.C,J2*%
X64262000Y-93980000D03*
X65762000Y-92710000D03*
X65762000Y-91440000D03*
X64262000Y-90170000D03*
X65762000Y-88900000D03*
X65762000Y-87630000D03*
X64262000Y-86360000D03*
D20*
X66762000Y-83610000D03*
X65762000Y-96440000D03*
%TD*%
D21*
%TO.C,J3*%
X64262000Y-116840000D03*
X65762000Y-115570000D03*
X65762000Y-114300000D03*
X64262000Y-113030000D03*
X65762000Y-111760000D03*
X65762000Y-110490000D03*
X64262000Y-109220000D03*
D20*
X66762000Y-106470000D03*
X65762000Y-119300000D03*
%TD*%
D22*
%TO.C,J8*%
X90330000Y-81990000D03*
X92870000Y-81990000D03*
X90330000Y-84530000D03*
X92870000Y-84530000D03*
X90330000Y-87070000D03*
X92870000Y-87070000D03*
X90330000Y-89610000D03*
X92870000Y-89610000D03*
%TD*%
D23*
%TO.C,J6*%
X85500000Y-80100000D03*
X85500000Y-77560000D03*
%TD*%
D22*
%TO.C,J5*%
X88140000Y-116460000D03*
X88140000Y-119000000D03*
%TD*%
%TO.C,J9*%
X94000000Y-112200000D03*
X94000000Y-114740000D03*
%TD*%
%TO.C,J11*%
X116940000Y-68730000D03*
X119480000Y-68730000D03*
X116940000Y-71270000D03*
X119480000Y-71270000D03*
X116940000Y-73810000D03*
X119480000Y-73810000D03*
%TD*%
D24*
%TO.C,J10*%
X127080280Y-101600000D03*
X111080280Y-101600000D03*
X127980280Y-106840000D03*
X127980280Y-103600000D03*
X127980280Y-99610000D03*
X127980280Y-97580000D03*
X110180280Y-107840000D03*
X110180280Y-103600000D03*
X110180280Y-99610000D03*
X110180280Y-97580000D03*
D25*
X125680280Y-98700000D03*
X124880280Y-98700000D03*
X124080280Y-98700000D03*
X123280280Y-98700000D03*
X122480280Y-98700000D03*
X121680280Y-98700000D03*
X120880280Y-98700000D03*
X120080280Y-98700000D03*
X119280280Y-98700000D03*
X118480280Y-98700000D03*
X117680280Y-98700000D03*
X116880280Y-98700000D03*
X116080280Y-98700000D03*
X115280280Y-98700000D03*
X114480280Y-98700000D03*
X113680280Y-98700000D03*
X112880280Y-98700000D03*
X112080280Y-98700000D03*
X126080280Y-104510000D03*
X125280280Y-104510000D03*
X124480280Y-104510000D03*
X123680280Y-104510000D03*
X122880280Y-104510000D03*
X122080280Y-104510000D03*
X121280280Y-104510000D03*
X120480280Y-104510000D03*
X119680280Y-104510000D03*
X118880280Y-104510000D03*
X118080280Y-104510000D03*
X117280280Y-104510000D03*
X116480280Y-104510000D03*
X115680280Y-104510000D03*
X114880280Y-104510000D03*
X114080280Y-104510000D03*
X113280280Y-104510000D03*
X112480280Y-104510000D03*
%TD*%
D26*
%TO.C,U1*%
X88194800Y-97850000D03*
X88194800Y-98350000D03*
X88194800Y-98850000D03*
X88194800Y-99350000D03*
X88194800Y-99850000D03*
X88194800Y-100350000D03*
X88194800Y-100850000D03*
X88194800Y-101350000D03*
X88194800Y-101850000D03*
X88194800Y-102350000D03*
X88194800Y-102850000D03*
X88194800Y-103350000D03*
X88194800Y-103850000D03*
X88194800Y-104350000D03*
X88194800Y-104850000D03*
X88194800Y-105350000D03*
D27*
X88944800Y-106100000D03*
X89444800Y-106100000D03*
X89944800Y-106100000D03*
X90444800Y-106100000D03*
X90944800Y-106100000D03*
X91444800Y-106100000D03*
X91944800Y-106100000D03*
X92444800Y-106100000D03*
X92944800Y-106100000D03*
X93444800Y-106100000D03*
X93944800Y-106100000D03*
X94444800Y-106100000D03*
X94944800Y-106100000D03*
X95444800Y-106100000D03*
X95944800Y-106100000D03*
X96444800Y-106100000D03*
D26*
X97194800Y-105350000D03*
X97194800Y-104850000D03*
X97194800Y-104350000D03*
X97194800Y-103850000D03*
X97194800Y-103350000D03*
X97194800Y-102850000D03*
X97194800Y-102350000D03*
X97194800Y-101850000D03*
X97194800Y-101350000D03*
X97194800Y-100850000D03*
X97194800Y-100350000D03*
X97194800Y-99850000D03*
X97194800Y-99350000D03*
X97194800Y-98850000D03*
X97194800Y-98350000D03*
X97194800Y-97850000D03*
D27*
X96444800Y-97100000D03*
X95944800Y-97100000D03*
X95444800Y-97100000D03*
X94944800Y-97100000D03*
X94444800Y-97100000D03*
X93944800Y-97100000D03*
X93444800Y-97100000D03*
X92944800Y-97100000D03*
X92444800Y-97100000D03*
X91944800Y-97100000D03*
X91444800Y-97100000D03*
X90944800Y-97100000D03*
X90444800Y-97100000D03*
X89944800Y-97100000D03*
X89444800Y-97100000D03*
X88944800Y-97100000D03*
D28*
X93844800Y-101600000D03*
X96144800Y-102750000D03*
X92694800Y-98150000D03*
X96144800Y-101600000D03*
X92694800Y-105050000D03*
X93844800Y-98150000D03*
X94994800Y-99300000D03*
X92694800Y-102750000D03*
X96144800Y-103900000D03*
X91544800Y-103900000D03*
X94994800Y-100450000D03*
X90394800Y-105050000D03*
X94994800Y-102750000D03*
X90394800Y-100450000D03*
X93844800Y-103900000D03*
X90394800Y-102750000D03*
X93844800Y-105050000D03*
X91544800Y-102750000D03*
X92694800Y-99300000D03*
X96144800Y-100450000D03*
X91544800Y-101600000D03*
X89244800Y-100450000D03*
X89244800Y-99300000D03*
X91544800Y-99300000D03*
X91544800Y-105050000D03*
X93844800Y-99300000D03*
X93844800Y-100450000D03*
X92694800Y-101600000D03*
X94994800Y-98150000D03*
X89244800Y-101600000D03*
X89244800Y-102750000D03*
X94994800Y-105050000D03*
X92694800Y-103900000D03*
X92694800Y-100450000D03*
X90394800Y-99300000D03*
X96144800Y-99300000D03*
X93844800Y-102750000D03*
D29*
X92694800Y-101600000D03*
D28*
X94994800Y-101600000D03*
X90394800Y-103900000D03*
X94994800Y-103900000D03*
X91544800Y-98150000D03*
X91544800Y-100450000D03*
X89244800Y-103900000D03*
X90394800Y-98150000D03*
X90394800Y-101600000D03*
%TD*%
D30*
%TO.C,L1*%
X87567700Y-125222000D03*
X89617700Y-125222000D03*
%TD*%
M02*
