M48
; DRILL file {KiCad 6.0.4-6f826c9f35~116~ubuntu20.04.1} date Wed May 18 14:08:31 2022
; FORMAT={-:-/ absolute / metric / decimal}
; #@! TF.CreationDate,2022-05-18T14:08:31+00:00
; #@! TF.GenerationSoftware,Kicad,Pcbnew,6.0.4-6f826c9f35~116~ubuntu20.04.1
; #@! TF.FileFunction,Plated,1,2,PTH
FMAT,2
METRIC
; #@! TA.AperFunction,Plated,PTH,ComponentDrill
T1C0.200
; #@! TA.AperFunction,Plated,PTH,ViaDrill
T2C0.400
; #@! TA.AperFunction,Plated,PTH,ComponentDrill
T3C0.740
; #@! TA.AperFunction,Plated,PTH,ComponentDrill
T4C0.800
; #@! TA.AperFunction,Plated,PTH,ComponentDrill
T5C0.889
; #@! TA.AperFunction,Plated,PTH,ComponentDrill
T6C1.350
; #@! TA.AperFunction,Plated,PTH,ComponentDrill
T7C3.000
%
G90
G05
T1
X89.245Y-99.3
X89.245Y-100.45
X89.245Y-101.6
X89.245Y-102.75
X89.245Y-103.9
X90.395Y-98.15
X90.395Y-99.3
X90.395Y-100.45
X90.395Y-101.6
X90.395Y-102.75
X90.395Y-103.9
X90.395Y-105.05
X91.545Y-98.15
X91.545Y-99.3
X91.545Y-100.45
X91.545Y-101.6
X91.545Y-102.75
X91.545Y-103.9
X91.545Y-105.05
X92.695Y-98.15
X92.695Y-99.3
X92.695Y-100.45
X92.695Y-101.6
X92.695Y-102.75
X92.695Y-103.9
X92.695Y-105.05
X93.845Y-98.15
X93.845Y-99.3
X93.845Y-100.45
X93.845Y-101.6
X93.845Y-102.75
X93.845Y-103.9
X93.845Y-105.05
X94.995Y-98.15
X94.995Y-99.3
X94.995Y-100.45
X94.995Y-101.6
X94.995Y-102.75
X94.995Y-103.9
X94.995Y-105.05
X96.145Y-99.3
X96.145Y-100.45
X96.145Y-101.6
X96.145Y-102.75
X96.145Y-103.9
T2
X62.23Y-76.2
X62.23Y-82.55
X62.23Y-88.9
X62.23Y-95.25
X62.23Y-101.6
X62.23Y-107.95
X62.23Y-114.3
X62.23Y-120.65
X62.23Y-127.0
X64.3Y-88.2
X64.3Y-92.1
X64.3Y-111.1
X64.3Y-114.9
X67.308Y-90.168
X67.31Y-86.36
X67.31Y-93.98
X67.31Y-109.22
X67.31Y-113.03
X67.31Y-116.84
X69.848Y-76.198
X69.848Y-86.358
X69.85Y-68.58
X69.85Y-90.17
X69.85Y-93.98
X69.85Y-109.22
X69.85Y-113.03
X69.85Y-116.84
X69.85Y-127.0
X69.85Y-134.62
X71.5Y-90.2
X72.388Y-94.2
X72.5Y-86.2
X72.6Y-109.1
X72.6Y-116.9
X73.1Y-113.0
X73.658Y-78.738
X73.66Y-73.66
X73.66Y-76.2
X73.66Y-81.28
X73.66Y-121.92
X73.66Y-124.46
X73.66Y-127.0
X73.66Y-129.54
X74.676Y-82.55
X74.676Y-120.65
X74.928Y-86.358
X74.93Y-90.17
X74.93Y-113.03
X74.93Y-116.84
X75.184Y-118.364
X75.311Y-84.836
X75.69Y-93.978
X75.69Y-98.931
X75.692Y-96.52
X75.692Y-104.267
X75.692Y-106.68
X75.692Y-109.22
X75.8Y-70.6
X75.8Y-132.6
X76.198Y-91.057
X76.2Y-68.58
X76.2Y-100.584
X76.2Y-102.616
X76.2Y-112.141
X76.2Y-134.62
X76.325Y-87.12
X76.327Y-89.408
X76.327Y-113.792
X76.327Y-116.078
X76.962Y-82.55
X76.962Y-86.233
X76.962Y-116.967
X76.962Y-120.65
X77.47Y-101.6
X77.7Y-123.9
X77.722Y-76.198
X77.722Y-79.3
X77.722Y-81.278
X77.724Y-73.66
X77.724Y-121.92
X77.724Y-127.0
X77.724Y-129.54
X77.851Y-89.789
X77.851Y-113.411
X78.103Y-91.438
X78.103Y-93.978
X78.103Y-96.518
X78.105Y-84.201
X78.105Y-106.68
X78.105Y-109.22
X78.105Y-111.76
X78.105Y-118.999
X78.23Y-99.058
X78.232Y-104.14
X78.486Y-82.548
X78.486Y-87.122
X78.486Y-116.078
X78.486Y-120.65
X79.248Y-99.695
X79.248Y-103.505
X79.6Y-70.6
X79.6Y-132.6
X79.629Y-84.201
X79.629Y-118.872
X80.137Y-88.519
X80.137Y-114.681
X80.289Y-85.319
X80.391Y-117.856
X80.645Y-91.44
X80.645Y-93.98
X80.645Y-96.52
X80.645Y-106.68
X80.645Y-109.22
X80.645Y-111.76
X80.772Y-120.904
X80.899Y-82.22
X81.659Y-76.198
X81.659Y-78.738
X81.661Y-73.66
X81.661Y-124.46
X81.661Y-127.0
X81.661Y-129.54
X81.786Y-81.278
X81.786Y-86.739
X81.788Y-98.298
X81.788Y-104.902
X81.788Y-116.459
X81.788Y-121.92
X81.915Y-85.09
X81.915Y-118.11
X82.55Y-68.58
X82.55Y-134.62
X82.931Y-88.9
X82.931Y-114.3
X83.056Y-83.056
X83.058Y-120.142
X83.183Y-91.438
X83.183Y-93.978
X83.185Y-109.22
X83.185Y-111.76
X83.31Y-86.739
X83.312Y-96.52
X83.312Y-106.68
X83.312Y-116.459
X84.199Y-88.898
X84.201Y-114.3
X84.58Y-91.438
X84.58Y-93.978
X84.582Y-84.455
X84.582Y-109.22
X84.582Y-111.76
X84.582Y-118.745
X84.709Y-96.901
X84.836Y-106.299
X85.725Y-116.84
X86.487Y-114.3
X86.792Y-111.531
X86.868Y-109.22
X86.9Y-107.4
X87.5Y-96.7
X87.63Y-123.8
X88.3Y-93.2
X88.5Y-95.4
X88.7Y-111.3
X88.9Y-134.62
X89.4Y-109.8
X89.418Y-70.932
X89.9Y-94.9
X89.9Y-110.7
X90.0Y-108.4
X90.065Y-111.76
X90.065Y-114.303
X90.1Y-107.3
X90.564Y-127.102
X90.627Y-125.222
X91.059Y-116.84
X91.2Y-76.65
X91.4Y-80.8
X91.4Y-85.9
X91.669Y-122.644
X92.2Y-107.2
X92.32Y-111.55
X92.5Y-114.66
X92.583Y-119.38
X92.6Y-129.3
X94.0Y-132.5
X94.234Y-116.84
X94.6Y-107.8
X94.7Y-108.9
X94.996Y-119.38
X95.1Y-92.3
X95.1Y-111.6
X95.1Y-115.3
X95.22Y-89.888
X95.225Y-83.3
X95.225Y-86.36
X95.225Y-88.9
X95.25Y-68.58
X95.25Y-134.62
X96.1Y-81.2
X96.52Y-121.92
X96.7Y-80.1
X97.079Y-125.222
X97.2Y-127.1
X97.4Y-106.1
X97.7Y-74.9
X97.7Y-96.8
X97.7Y-132.5
X97.79Y-78.74
X97.9Y-108.8
X98.0Y-71.7
X98.0Y-93.1
X99.06Y-124.46
X99.3Y-77.7
X99.6Y-129.3
X100.33Y-76.2
X101.6Y-127.0
X101.6Y-134.62
X105.321Y-70.472
X105.41Y-128.27
X107.95Y-128.27
X107.95Y-134.62
X108.5Y-68.9
X110.49Y-74.93
X110.49Y-128.27
X112.014Y-97.028
X112.522Y-106.172
X113.03Y-128.27
X114.3Y-134.62
X114.427Y-97.028
X114.935Y-106.172
X115.57Y-128.27
X117.348Y-97.028
X117.602Y-106.172
X118.11Y-128.27
X120.65Y-76.2
X120.65Y-127.0
X120.65Y-134.62
X120.777Y-97.028
X121.285Y-106.172
X123.19Y-78.74
X123.19Y-97.028
X123.19Y-124.46
X123.698Y-106.172
X125.476Y-96.266
X125.73Y-81.28
X125.73Y-83.82
X125.73Y-86.36
X125.73Y-88.9
X125.73Y-91.44
X125.73Y-93.98
X125.73Y-121.92
X126.365Y-109.22
X126.365Y-111.76
X126.365Y-114.3
X126.365Y-116.84
X126.365Y-119.38
X128.27Y-76.2
X128.27Y-82.55
X128.27Y-88.9
X128.27Y-114.3
X128.27Y-120.65
X128.27Y-127.0
T3
X64.262Y-86.36
X64.262Y-90.17
X64.262Y-93.98
X64.262Y-109.22
X64.262Y-113.03
X64.262Y-116.84
X65.762Y-87.63
X65.762Y-88.9
X65.762Y-91.44
X65.762Y-92.71
X65.762Y-110.49
X65.762Y-111.76
X65.762Y-114.3
X65.762Y-115.57
X73.865Y-132.588
X73.915Y-70.636
X75.135Y-131.088
X75.185Y-72.136
X76.405Y-131.088
X76.455Y-72.136
X77.675Y-132.588
X77.725Y-70.636
X78.945Y-131.088
X78.995Y-72.136
X80.215Y-131.088
X80.265Y-72.136
X81.485Y-132.588
X81.535Y-70.636
X92.015Y-132.588
X93.285Y-131.088
X94.555Y-131.088
X95.825Y-132.588
X97.095Y-131.088
X98.365Y-131.088
X99.635Y-132.588
T4
X110.18Y-97.58
X110.18Y-99.61
X110.18Y-103.6
X110.18Y-107.84
X127.98Y-97.58
X127.98Y-99.61
X127.98Y-103.6
X127.98Y-106.84
T5
X85.675Y-79.07
X85.675Y-81.61
X88.14Y-116.46
X88.14Y-119.0
X90.17Y-82.042
X90.17Y-84.582
X90.17Y-87.122
X90.17Y-89.662
X92.71Y-82.042
X92.71Y-84.582
X92.71Y-87.122
X92.71Y-89.662
X93.73Y-110.55
X93.73Y-113.09
X116.94Y-68.73
X116.94Y-71.27
X116.94Y-73.81
X119.48Y-68.73
X119.48Y-71.27
X119.48Y-73.81
T6
X65.762Y-96.44
X65.762Y-119.3
X66.762Y-83.61
X66.762Y-106.47
X71.115Y-130.088
X71.455Y-72.136
X83.945Y-131.088
X84.285Y-73.136
X89.265Y-130.088
X102.095Y-131.088
T7
X64.77Y-71.12
X64.77Y-132.08
X125.73Y-71.12
X125.73Y-132.08
T0
M30
