M48
; DRILL file {KiCad 6.0.4-6f826c9f35~116~ubuntu20.04.1} date Wed May 18 19:38:48 2022
; FORMAT={-:-/ absolute / metric / decimal}
; #@! TF.CreationDate,2022-05-18T19:38:48+00:00
; #@! TF.GenerationSoftware,Kicad,Pcbnew,6.0.4-6f826c9f35~116~ubuntu20.04.1
; #@! TF.FileFunction,Plated,1,2,PTH
FMAT,2
METRIC
; #@! TA.AperFunction,Plated,PTH,ViaDrill
T1C0.200
; #@! TA.AperFunction,Plated,PTH,ComponentDrill
T2C0.200
; #@! TA.AperFunction,Plated,PTH,ViaDrill
T3C0.400
; #@! TA.AperFunction,Plated,PTH,ComponentDrill
T4C0.740
; #@! TA.AperFunction,Plated,PTH,ComponentDrill
T5C0.800
; #@! TA.AperFunction,Plated,PTH,ComponentDrill
T6C0.889
; #@! TA.AperFunction,Plated,PTH,ComponentDrill
T7C1.350
; #@! TA.AperFunction,Plated,PTH,ComponentDrill
T8C3.000
%
G90
G05
T1
X90.8Y-92.1
T2
X89.245Y-99.3
X89.245Y-100.45
X89.245Y-101.6
X89.245Y-102.75
X89.245Y-103.9
X90.395Y-98.15
X90.395Y-99.3
X90.395Y-100.45
X90.395Y-101.6
X90.395Y-102.75
X90.395Y-103.9
X90.395Y-105.05
X91.545Y-98.15
X91.545Y-99.3
X91.545Y-100.45
X91.545Y-101.6
X91.545Y-102.75
X91.545Y-103.9
X91.545Y-105.05
X92.695Y-98.15
X92.695Y-99.3
X92.695Y-100.45
X92.695Y-101.6
X92.695Y-102.75
X92.695Y-103.9
X92.695Y-105.05
X93.845Y-98.15
X93.845Y-99.3
X93.845Y-100.45
X93.845Y-101.6
X93.845Y-102.75
X93.845Y-103.9
X93.845Y-105.05
X94.995Y-98.15
X94.995Y-99.3
X94.995Y-100.45
X94.995Y-101.6
X94.995Y-102.75
X94.995Y-103.9
X94.995Y-105.05
X96.145Y-99.3
X96.145Y-100.45
X96.145Y-101.6
X96.145Y-102.75
X96.145Y-103.9
T3
X61.0Y-77.0
X61.0Y-80.0
X61.0Y-84.0
X61.0Y-87.0
X61.0Y-90.0
X61.0Y-93.0
X61.0Y-96.0
X61.0Y-99.0
X61.0Y-102.0
X61.0Y-106.0
X61.0Y-109.0
X61.0Y-112.0
X61.0Y-115.0
X61.0Y-119.0
X61.0Y-122.0
X61.0Y-125.0
X63.0Y-77.0
X63.0Y-79.0
X63.0Y-81.0
X63.0Y-83.0
X63.0Y-97.0
X63.0Y-99.0
X63.0Y-102.0
X63.0Y-104.0
X63.0Y-119.0
X63.0Y-121.0
X63.0Y-124.0
X63.0Y-126.0
X64.2Y-111.1
X64.2Y-115.0
X64.3Y-88.3
X64.4Y-92.1
X65.0Y-126.0
X65.6Y-99.0
X65.7Y-104.3
X66.0Y-77.0
X66.6Y-113.0
X66.7Y-86.3
X66.7Y-90.2
X66.7Y-94.0
X67.0Y-126.0
X67.1Y-109.3
X67.2Y-116.8
X68.0Y-77.0
X69.0Y-126.0
X69.4Y-86.2
X69.4Y-113.0
X69.7Y-90.2
X69.7Y-94.1
X70.0Y-68.0
X70.0Y-70.0
X70.4Y-109.0
X70.4Y-117.0
X71.0Y-126.0
X71.0Y-135.0
X73.0Y-68.0
X73.0Y-135.0
X73.1Y-113.0
X73.2Y-86.2
X73.2Y-90.2
X73.2Y-94.2
X73.2Y-108.9
X73.2Y-117.0
X73.6Y-123.8
X73.8Y-127.4
X73.9Y-77.7
X73.9Y-130.0
X74.0Y-73.2
X74.1Y-75.2
X74.4Y-82.1
X74.6Y-121.4
X74.8Y-84.2
X74.8Y-118.8
X74.9Y-113.0
X75.3Y-99.2
X75.4Y-93.6
X75.4Y-97.5
X75.4Y-104.5
X75.5Y-95.4
X75.5Y-106.4
X75.5Y-107.9
X75.5Y-109.6
X75.6Y-89.5
X75.7Y-132.6
X75.8Y-70.7
X75.8Y-85.6
X75.9Y-102.6
X76.0Y-68.0
X76.0Y-87.1
X76.0Y-100.8
X76.0Y-135.0
X76.2Y-112.2
X76.3Y-113.7
X76.3Y-117.2
X76.6Y-91.0
X76.9Y-101.6
X76.9Y-121.4
X77.1Y-81.7
X77.1Y-119.7
X77.3Y-83.6
X77.6Y-123.8
X77.7Y-73.2
X77.7Y-75.1
X77.7Y-77.7
X77.7Y-79.4
X77.7Y-127.3
X77.7Y-130.0
X77.9Y-86.8
X77.9Y-89.8
X78.0Y-94.5
X78.0Y-98.2
X78.0Y-108.7
X78.0Y-113.3
X78.1Y-105.7
X78.2Y-92.2
X78.2Y-96.3
X78.2Y-111.1
X78.3Y-82.4
X78.4Y-116.2
X78.4Y-121.3
X78.6Y-103.6
X78.8Y-99.5
X79.0Y-68.0
X79.0Y-135.0
X79.2Y-84.4
X79.4Y-118.6
X79.6Y-70.5
X79.6Y-132.8
X79.8Y-88.1
X80.3Y-114.6
X80.5Y-92.6
X80.5Y-112.0
X80.6Y-96.9
X80.6Y-107.1
X80.7Y-90.2
X80.7Y-94.5
X80.7Y-109.7
X81.1Y-81.6
X81.1Y-121.1
X81.4Y-73.2
X81.4Y-98.2
X81.4Y-130.1
X81.5Y-75.3
X81.5Y-77.7
X81.5Y-104.9
X81.6Y-118.1
X81.6Y-127.3
X81.7Y-116.7
X81.7Y-123.8
X81.8Y-85.1
X82.0Y-68.0
X82.0Y-86.9
X82.0Y-135.0
X82.6Y-82.6
X83.0Y-89.5
X83.0Y-113.3
X83.0Y-120.6
X83.1Y-95.3
X83.1Y-109.7
X83.2Y-92.8
X83.5Y-115.6
X83.7Y-87.7
X84.4Y-91.1
X84.4Y-111.2
X84.5Y-94.3
X84.5Y-96.8
X84.5Y-107.9
X84.6Y-84.1
X84.6Y-106.4
X84.8Y-119.3
X85.0Y-68.0
X85.0Y-135.0
X85.7Y-117.7
X86.0Y-69.0
X86.0Y-71.0
X86.0Y-75.0
X86.7Y-113.9
X86.9Y-107.4
X86.9Y-109.9
X86.9Y-112.2
X87.3Y-78.3
X87.63Y-123.8
X88.0Y-68.0
X88.0Y-72.0
X88.0Y-135.0
X88.2Y-93.5
X88.5Y-95.4
X88.7Y-111.3
X89.4Y-109.8
X89.418Y-70.932
X89.5Y-80.0
X90.0Y-108.6
X90.0Y-110.9
X90.0Y-112.3
X90.0Y-114.1
X90.1Y-107.3
X90.387Y-95.647
X90.6Y-116.2
X90.627Y-125.222
X91.0Y-135.0
X91.4Y-77.2
X91.4Y-117.3
X91.8Y-121.3
X92.1Y-128.2
X92.2Y-91.6
X92.2Y-107.2
X92.4Y-109.3
X92.4Y-111.4
X92.4Y-113.6
X92.4Y-119.2
X92.435Y-79.984
X92.5Y-129.4
X93.9Y-132.7
X94.0Y-135.0
X94.3Y-116.9
X94.695Y-107.7
X94.7Y-108.9
X95.2Y-93.2
X95.225Y-83.3
X95.25Y-68.58
X96.0Y-121.7
X96.1Y-123.6
X96.7Y-80.1
X96.8Y-128.0
X97.0Y-135.0
X97.079Y-125.222
X97.4Y-106.1
X97.7Y-74.9
X97.7Y-96.8
X97.79Y-78.74
X97.9Y-109.1
X97.9Y-132.7
X98.0Y-71.7
X98.0Y-93.1
X99.1Y-129.3
X99.3Y-77.7
X100.0Y-126.0
X100.0Y-135.0
X100.33Y-76.2
X102.0Y-128.0
X103.0Y-135.0
X105.0Y-130.0
X105.0Y-132.0
X105.0Y-134.0
X105.0Y-136.0
X105.321Y-70.472
X105.41Y-128.27
X107.95Y-128.27
X107.95Y-134.62
X108.5Y-68.9
X110.49Y-74.93
X110.49Y-128.27
X112.014Y-97.028
X112.522Y-106.172
X113.03Y-128.27
X114.3Y-134.62
X114.427Y-97.028
X114.935Y-106.172
X115.57Y-128.27
X117.348Y-97.028
X117.602Y-106.172
X118.11Y-128.27
X120.65Y-76.2
X120.65Y-127.0
X120.65Y-134.62
X120.777Y-97.028
X121.285Y-106.172
X123.19Y-78.74
X123.19Y-97.028
X123.19Y-124.46
X123.698Y-106.172
X125.476Y-96.266
X125.73Y-81.28
X125.73Y-83.82
X125.73Y-86.36
X125.73Y-88.9
X125.73Y-91.44
X125.73Y-93.98
X125.73Y-121.92
X126.365Y-109.22
X126.365Y-111.76
X126.365Y-114.3
X126.365Y-116.84
X126.365Y-119.38
X128.27Y-76.2
X128.27Y-82.55
X128.27Y-88.9
X128.27Y-114.3
X128.27Y-120.65
X128.27Y-127.0
T4
X64.262Y-86.36
X64.262Y-90.17
X64.262Y-93.98
X64.262Y-109.22
X64.262Y-113.03
X64.262Y-116.84
X65.762Y-87.63
X65.762Y-88.9
X65.762Y-91.44
X65.762Y-92.71
X65.762Y-110.49
X65.762Y-111.76
X65.762Y-114.3
X65.762Y-115.57
X73.865Y-132.588
X73.915Y-70.636
X75.135Y-131.088
X75.185Y-72.136
X76.405Y-131.088
X76.455Y-72.136
X77.675Y-132.588
X77.725Y-70.636
X78.945Y-131.088
X78.995Y-72.136
X80.215Y-131.088
X80.265Y-72.136
X81.485Y-132.588
X81.535Y-70.636
X92.015Y-132.588
X93.285Y-131.088
X94.555Y-131.088
X95.825Y-132.588
X97.095Y-131.088
X98.365Y-131.088
X99.635Y-132.588
T5
X110.18Y-97.58
X110.18Y-99.61
X110.18Y-103.6
X110.18Y-107.84
X127.98Y-97.58
X127.98Y-99.61
X127.98Y-103.6
X127.98Y-106.84
T6
X85.5Y-77.56
X85.5Y-80.1
X88.14Y-116.46
X88.14Y-119.0
X90.33Y-81.99
X90.33Y-84.53
X90.33Y-87.07
X90.33Y-89.61
X92.87Y-81.99
X92.87Y-84.53
X92.87Y-87.07
X92.87Y-89.61
X94.0Y-112.2
X94.0Y-114.74
X116.94Y-68.73
X116.94Y-71.27
X116.94Y-73.81
X119.48Y-68.73
X119.48Y-71.27
X119.48Y-73.81
T7
X65.762Y-96.44
X65.762Y-119.3
X66.762Y-83.61
X66.762Y-106.47
X71.115Y-130.088
X71.455Y-72.136
X83.945Y-131.088
X84.285Y-73.136
X89.265Y-130.088
X102.095Y-131.088
T8
X64.77Y-71.12
X64.77Y-132.08
X125.73Y-71.12
X125.73Y-132.08
T0
M30
