%TF.GenerationSoftware,KiCad,Pcbnew,6.0.4-6f826c9f35~116~ubuntu20.04.1*%
%TF.CreationDate,2022-05-18T12:06:02+00:00*%
%TF.ProjectId,ADCoctoSPI01B,4144436f-6374-46f5-9350-493031422e6b,rev?*%
%TF.SameCoordinates,Original*%
%TF.FileFunction,Paste,Bot*%
%TF.FilePolarity,Positive*%
%FSLAX46Y46*%
G04 Gerber Fmt 4.6, Leading zero omitted, Abs format (unit mm)*
G04 Created by KiCad (PCBNEW 6.0.4-6f826c9f35~116~ubuntu20.04.1) date 2022-05-18 12:06:02*
%MOMM*%
%LPD*%
G01*
G04 APERTURE LIST*
G04 Aperture macros list*
%AMRoundRect*
0 Rectangle with rounded corners*
0 $1 Rounding radius*
0 $2 $3 $4 $5 $6 $7 $8 $9 X,Y pos of 4 corners*
0 Add a 4 corners polygon primitive as box body*
4,1,4,$2,$3,$4,$5,$6,$7,$8,$9,$2,$3,0*
0 Add four circle primitives for the rounded corners*
1,1,$1+$1,$2,$3*
1,1,$1+$1,$4,$5*
1,1,$1+$1,$6,$7*
1,1,$1+$1,$8,$9*
0 Add four rect primitives between the rounded corners*
20,1,$1+$1,$2,$3,$4,$5,0*
20,1,$1+$1,$4,$5,$6,$7,0*
20,1,$1+$1,$6,$7,$8,$9,0*
20,1,$1+$1,$8,$9,$2,$3,0*%
G04 Aperture macros list end*
%ADD10R,2.000000X1.500000*%
%ADD11R,2.000000X3.800000*%
%ADD12RoundRect,0.200000X0.275000X-0.200000X0.275000X0.200000X-0.275000X0.200000X-0.275000X-0.200000X0*%
%ADD13RoundRect,0.200000X-0.275000X0.200000X-0.275000X-0.200000X0.275000X-0.200000X0.275000X0.200000X0*%
%ADD14RoundRect,0.225000X0.225000X0.250000X-0.225000X0.250000X-0.225000X-0.250000X0.225000X-0.250000X0*%
%ADD15RoundRect,0.225000X0.250000X-0.225000X0.250000X0.225000X-0.250000X0.225000X-0.250000X-0.225000X0*%
%ADD16RoundRect,0.225000X-0.225000X-0.250000X0.225000X-0.250000X0.225000X0.250000X-0.225000X0.250000X0*%
%ADD17RoundRect,0.225000X-0.250000X0.225000X-0.250000X-0.225000X0.250000X-0.225000X0.250000X0.225000X0*%
%ADD18RoundRect,0.250000X-0.450000X0.325000X-0.450000X-0.325000X0.450000X-0.325000X0.450000X0.325000X0*%
%ADD19RoundRect,0.250000X0.450000X-0.325000X0.450000X0.325000X-0.450000X0.325000X-0.450000X-0.325000X0*%
%ADD20RoundRect,0.250000X-0.475000X0.250000X-0.475000X-0.250000X0.475000X-0.250000X0.475000X0.250000X0*%
G04 APERTURE END LIST*
D10*
%TO.C,U2*%
X94450000Y-75562520D03*
X94450000Y-73262520D03*
D11*
X100750000Y-73262520D03*
D10*
X94450000Y-70962520D03*
%TD*%
%TO.C,U3*%
X107088540Y-75741560D03*
D11*
X113388540Y-73441560D03*
D10*
X107088540Y-73441560D03*
X107088540Y-71141560D03*
%TD*%
D12*
%TO.C,R9*%
X109728000Y-111061000D03*
X109728000Y-109411000D03*
%TD*%
D13*
%TO.C,R12*%
X90180160Y-78438240D03*
X90180160Y-80088240D03*
%TD*%
%TO.C,R13*%
X88400000Y-84850000D03*
X88400000Y-86500000D03*
%TD*%
%TO.C,R14*%
X88400000Y-87850000D03*
X88400000Y-89500000D03*
%TD*%
D12*
%TO.C,R15*%
X91400000Y-95795600D03*
X91400000Y-94145600D03*
%TD*%
%TO.C,R16*%
X93100000Y-95795600D03*
X93100000Y-94145600D03*
%TD*%
%TO.C,R17*%
X95000000Y-95793760D03*
X95000000Y-94143760D03*
%TD*%
D14*
%TO.C,C19*%
X99168826Y-97800000D03*
X97618826Y-97800000D03*
%TD*%
%TO.C,C20*%
X99168826Y-100900000D03*
X97618826Y-100900000D03*
%TD*%
%TO.C,C21*%
X99168826Y-99400000D03*
X97618826Y-99400000D03*
%TD*%
D15*
%TO.C,C24*%
X111252000Y-111023000D03*
X111252000Y-109473000D03*
%TD*%
%TO.C,C25*%
X90627200Y-124125000D03*
X90627200Y-122575000D03*
%TD*%
D16*
%TO.C,C26*%
X90563400Y-70967600D03*
X92113400Y-70967600D03*
%TD*%
%TO.C,C27*%
X105491680Y-69000000D03*
X107041680Y-69000000D03*
%TD*%
D15*
%TO.C,C28*%
X92200000Y-74790600D03*
X92200000Y-73240600D03*
%TD*%
D17*
%TO.C,C29*%
X104038400Y-69842780D03*
X104038400Y-71392780D03*
%TD*%
D14*
%TO.C,C33*%
X98250000Y-104200000D03*
X96700000Y-104200000D03*
%TD*%
%TO.C,C34*%
X98250000Y-102700000D03*
X96700000Y-102700000D03*
%TD*%
%TO.C,C35*%
X98250000Y-105700000D03*
X96700000Y-105700000D03*
%TD*%
%TO.C,C36*%
X88200000Y-100200000D03*
X86650000Y-100200000D03*
%TD*%
D16*
%TO.C,C39*%
X90450000Y-110200000D03*
X92000000Y-110200000D03*
%TD*%
D18*
%TO.C,L2*%
X87416640Y-102119320D03*
X87416640Y-104169320D03*
%TD*%
D19*
%TO.C,L3*%
X89700000Y-95225000D03*
X89700000Y-93175000D03*
%TD*%
D20*
%TO.C,C31*%
X90300000Y-73332300D03*
X90300000Y-75232300D03*
%TD*%
%TO.C,C30*%
X104038400Y-73484700D03*
X104038400Y-75384700D03*
%TD*%
M02*
