%TF.GenerationSoftware,KiCad,Pcbnew,6.0.4-6f826c9f35~116~ubuntu20.04.1*%
%TF.CreationDate,2022-05-19T09:34:47+00:00*%
%TF.ProjectId,ADCoctoSPI01B,4144436f-6374-46f5-9350-493031422e6b,rev?*%
%TF.SameCoordinates,Original*%
%TF.FileFunction,Legend,Top*%
%TF.FilePolarity,Positive*%
%FSLAX46Y46*%
G04 Gerber Fmt 4.6, Leading zero omitted, Abs format (unit mm)*
G04 Created by KiCad (PCBNEW 6.0.4-6f826c9f35~116~ubuntu20.04.1) date 2022-05-19 09:34:47*
%MOMM*%
%LPD*%
G01*
G04 APERTURE LIST*
%ADD10C,0.150000*%
%ADD11C,0.200000*%
%ADD12C,0.300000*%
%ADD13C,0.050000*%
%ADD14C,0.254000*%
%ADD15C,0.120000*%
%ADD16C,0.250000*%
%ADD17R,1.524000X1.524000*%
G04 APERTURE END LIST*
D10*
X91100000Y-123600000D02*
X92100000Y-124300000D01*
X83100000Y-119128571D02*
X83242857Y-119176190D01*
X83290476Y-119223809D01*
X83338095Y-119319047D01*
X83338095Y-119461904D01*
X83290476Y-119557142D01*
X83242857Y-119604761D01*
X83147619Y-119652380D01*
X82766666Y-119652380D01*
X82766666Y-118652380D01*
X83100000Y-118652380D01*
X83195238Y-118700000D01*
X83242857Y-118747619D01*
X83290476Y-118842857D01*
X83290476Y-118938095D01*
X83242857Y-119033333D01*
X83195238Y-119080952D01*
X83100000Y-119128571D01*
X82766666Y-119128571D01*
X83766666Y-119652380D02*
X83766666Y-118985714D01*
X83766666Y-118652380D02*
X83719047Y-118700000D01*
X83766666Y-118747619D01*
X83814285Y-118700000D01*
X83766666Y-118652380D01*
X83766666Y-118747619D01*
X84671428Y-119652380D02*
X84671428Y-119128571D01*
X84623809Y-119033333D01*
X84528571Y-118985714D01*
X84338095Y-118985714D01*
X84242857Y-119033333D01*
X84671428Y-119604761D02*
X84576190Y-119652380D01*
X84338095Y-119652380D01*
X84242857Y-119604761D01*
X84195238Y-119509523D01*
X84195238Y-119414285D01*
X84242857Y-119319047D01*
X84338095Y-119271428D01*
X84576190Y-119271428D01*
X84671428Y-119223809D01*
X85100000Y-119604761D02*
X85195238Y-119652380D01*
X85385714Y-119652380D01*
X85480952Y-119604761D01*
X85528571Y-119509523D01*
X85528571Y-119461904D01*
X85480952Y-119366666D01*
X85385714Y-119319047D01*
X85242857Y-119319047D01*
X85147619Y-119271428D01*
X85100000Y-119176190D01*
X85100000Y-119128571D01*
X85147619Y-119033333D01*
X85242857Y-118985714D01*
X85385714Y-118985714D01*
X85480952Y-119033333D01*
X86480952Y-119652380D02*
X85909523Y-119652380D01*
X86195238Y-119652380D02*
X86195238Y-118652380D01*
X86100000Y-118795238D01*
X86004761Y-118890476D01*
X85909523Y-118938095D01*
D11*
X79975200Y-69184780D02*
X79975200Y-68184780D01*
X80451390Y-69184780D02*
X80451390Y-68184780D01*
X81022819Y-69184780D01*
X81022819Y-68184780D01*
X82022819Y-69184780D02*
X81451390Y-69184780D01*
X81737104Y-69184780D02*
X81737104Y-68184780D01*
X81641866Y-68327638D01*
X81546628Y-68422876D01*
X81451390Y-68470495D01*
X73523600Y-135021580D02*
X73523600Y-134021580D01*
X73999790Y-135021580D02*
X73999790Y-134021580D01*
X74571219Y-135021580D01*
X74571219Y-134021580D01*
X74952171Y-134021580D02*
X75618838Y-134021580D01*
X75190266Y-135021580D01*
X73472800Y-69133980D02*
X73472800Y-68133980D01*
X73948990Y-69133980D02*
X73948990Y-68133980D01*
X74520419Y-69133980D01*
X74520419Y-68133980D01*
X74948990Y-68229219D02*
X74996609Y-68181600D01*
X75091847Y-68133980D01*
X75329942Y-68133980D01*
X75425180Y-68181600D01*
X75472800Y-68229219D01*
X75520419Y-68324457D01*
X75520419Y-68419695D01*
X75472800Y-68562552D01*
X74901371Y-69133980D01*
X75520419Y-69133980D01*
X121940628Y-72437523D02*
X121940628Y-71675619D01*
X122321580Y-72056571D02*
X121559676Y-72056571D01*
X121321580Y-71342285D02*
X122321580Y-71008952D01*
X121321580Y-70675619D01*
X85009523Y-90104761D02*
X85152380Y-90152380D01*
X85390476Y-90152380D01*
X85485714Y-90104761D01*
X85533333Y-90057142D01*
X85580952Y-89961904D01*
X85580952Y-89866666D01*
X85533333Y-89771428D01*
X85485714Y-89723809D01*
X85390476Y-89676190D01*
X85200000Y-89628571D01*
X85104761Y-89580952D01*
X85057142Y-89533333D01*
X85009523Y-89438095D01*
X85009523Y-89342857D01*
X85057142Y-89247619D01*
X85104761Y-89200000D01*
X85200000Y-89152380D01*
X85438095Y-89152380D01*
X85580952Y-89200000D01*
X86580952Y-90057142D02*
X86533333Y-90104761D01*
X86390476Y-90152380D01*
X86295238Y-90152380D01*
X86152380Y-90104761D01*
X86057142Y-90009523D01*
X86009523Y-89914285D01*
X85961904Y-89723809D01*
X85961904Y-89580952D01*
X86009523Y-89390476D01*
X86057142Y-89295238D01*
X86152380Y-89200000D01*
X86295238Y-89152380D01*
X86390476Y-89152380D01*
X86533333Y-89200000D01*
X86580952Y-89247619D01*
X87485714Y-90152380D02*
X87009523Y-90152380D01*
X87009523Y-89152380D01*
X87819047Y-90152380D02*
X87819047Y-89152380D01*
X88390476Y-90152380D02*
X87961904Y-89580952D01*
X88390476Y-89152380D02*
X87819047Y-89723809D01*
D10*
X86700000Y-75528571D02*
X86842857Y-75576190D01*
X86890476Y-75623809D01*
X86938095Y-75719047D01*
X86938095Y-75861904D01*
X86890476Y-75957142D01*
X86842857Y-76004761D01*
X86747619Y-76052380D01*
X86366666Y-76052380D01*
X86366666Y-75052380D01*
X86700000Y-75052380D01*
X86795238Y-75100000D01*
X86842857Y-75147619D01*
X86890476Y-75242857D01*
X86890476Y-75338095D01*
X86842857Y-75433333D01*
X86795238Y-75480952D01*
X86700000Y-75528571D01*
X86366666Y-75528571D01*
X87366666Y-76052380D02*
X87366666Y-75385714D01*
X87366666Y-75052380D02*
X87319047Y-75100000D01*
X87366666Y-75147619D01*
X87414285Y-75100000D01*
X87366666Y-75052380D01*
X87366666Y-75147619D01*
X88271428Y-76052380D02*
X88271428Y-75528571D01*
X88223809Y-75433333D01*
X88128571Y-75385714D01*
X87938095Y-75385714D01*
X87842857Y-75433333D01*
X88271428Y-76004761D02*
X88176190Y-76052380D01*
X87938095Y-76052380D01*
X87842857Y-76004761D01*
X87795238Y-75909523D01*
X87795238Y-75814285D01*
X87842857Y-75719047D01*
X87938095Y-75671428D01*
X88176190Y-75671428D01*
X88271428Y-75623809D01*
X88700000Y-76004761D02*
X88795238Y-76052380D01*
X88985714Y-76052380D01*
X89080952Y-76004761D01*
X89128571Y-75909523D01*
X89128571Y-75861904D01*
X89080952Y-75766666D01*
X88985714Y-75719047D01*
X88842857Y-75719047D01*
X88747619Y-75671428D01*
X88700000Y-75576190D01*
X88700000Y-75528571D01*
X88747619Y-75433333D01*
X88842857Y-75385714D01*
X88985714Y-75385714D01*
X89080952Y-75433333D01*
X89509523Y-75147619D02*
X89557142Y-75100000D01*
X89652380Y-75052380D01*
X89890476Y-75052380D01*
X89985714Y-75100000D01*
X90033333Y-75147619D01*
X90080952Y-75242857D01*
X90080952Y-75338095D01*
X90033333Y-75480952D01*
X89461904Y-76052380D01*
X90080952Y-76052380D01*
D11*
X121400000Y-75261904D02*
X121352380Y-75357142D01*
X121352380Y-75500000D01*
X121400000Y-75642857D01*
X121495238Y-75738095D01*
X121590476Y-75785714D01*
X121780952Y-75833333D01*
X121923809Y-75833333D01*
X122114285Y-75785714D01*
X122209523Y-75738095D01*
X122304761Y-75642857D01*
X122352380Y-75500000D01*
X122352380Y-75404761D01*
X122304761Y-75261904D01*
X122257142Y-75214285D01*
X121923809Y-75214285D01*
X121923809Y-75404761D01*
X122352380Y-74785714D02*
X121352380Y-74785714D01*
X122352380Y-74214285D01*
X121352380Y-74214285D01*
X122352380Y-73738095D02*
X121352380Y-73738095D01*
X121352380Y-73500000D01*
X121400000Y-73357142D01*
X121495238Y-73261904D01*
X121590476Y-73214285D01*
X121780952Y-73166666D01*
X121923809Y-73166666D01*
X122114285Y-73214285D01*
X122209523Y-73261904D01*
X122304761Y-73357142D01*
X122352380Y-73500000D01*
X122352380Y-73738095D01*
X95238095Y-89904761D02*
X95380952Y-89952380D01*
X95619047Y-89952380D01*
X95714285Y-89904761D01*
X95761904Y-89857142D01*
X95809523Y-89761904D01*
X95809523Y-89666666D01*
X95761904Y-89571428D01*
X95714285Y-89523809D01*
X95619047Y-89476190D01*
X95428571Y-89428571D01*
X95333333Y-89380952D01*
X95285714Y-89333333D01*
X95238095Y-89238095D01*
X95238095Y-89142857D01*
X95285714Y-89047619D01*
X95333333Y-89000000D01*
X95428571Y-88952380D01*
X95666666Y-88952380D01*
X95809523Y-89000000D01*
X96238095Y-89428571D02*
X96571428Y-89428571D01*
X96714285Y-89952380D02*
X96238095Y-89952380D01*
X96238095Y-88952380D01*
X96714285Y-88952380D01*
X97142857Y-89952380D02*
X97142857Y-88952380D01*
X97714285Y-89952380D01*
X97714285Y-88952380D01*
X86752380Y-87552380D02*
X86419047Y-87076190D01*
X86180952Y-87552380D02*
X86180952Y-86552380D01*
X86561904Y-86552380D01*
X86657142Y-86600000D01*
X86704761Y-86647619D01*
X86752380Y-86742857D01*
X86752380Y-86885714D01*
X86704761Y-86980952D01*
X86657142Y-87028571D01*
X86561904Y-87076190D01*
X86180952Y-87076190D01*
X87133333Y-87504761D02*
X87276190Y-87552380D01*
X87514285Y-87552380D01*
X87609523Y-87504761D01*
X87657142Y-87457142D01*
X87704761Y-87361904D01*
X87704761Y-87266666D01*
X87657142Y-87171428D01*
X87609523Y-87123809D01*
X87514285Y-87076190D01*
X87323809Y-87028571D01*
X87228571Y-86980952D01*
X87180952Y-86933333D01*
X87133333Y-86838095D01*
X87133333Y-86742857D01*
X87180952Y-86647619D01*
X87228571Y-86600000D01*
X87323809Y-86552380D01*
X87561904Y-86552380D01*
X87704761Y-86600000D01*
X87990476Y-86552380D02*
X88561904Y-86552380D01*
X88276190Y-87552380D02*
X88276190Y-86552380D01*
X95738095Y-81500000D02*
X95642857Y-81452380D01*
X95500000Y-81452380D01*
X95357142Y-81500000D01*
X95261904Y-81595238D01*
X95214285Y-81690476D01*
X95166666Y-81880952D01*
X95166666Y-82023809D01*
X95214285Y-82214285D01*
X95261904Y-82309523D01*
X95357142Y-82404761D01*
X95500000Y-82452380D01*
X95595238Y-82452380D01*
X95738095Y-82404761D01*
X95785714Y-82357142D01*
X95785714Y-82023809D01*
X95595238Y-82023809D01*
X96214285Y-82452380D02*
X96214285Y-81452380D01*
X96785714Y-82452380D01*
X96785714Y-81452380D01*
X97261904Y-82452380D02*
X97261904Y-81452380D01*
X97500000Y-81452380D01*
X97642857Y-81500000D01*
X97738095Y-81595238D01*
X97785714Y-81690476D01*
X97833333Y-81880952D01*
X97833333Y-82023809D01*
X97785714Y-82214285D01*
X97738095Y-82309523D01*
X97642857Y-82404761D01*
X97500000Y-82452380D01*
X97261904Y-82452380D01*
X62936380Y-117230400D02*
X61936380Y-117230400D01*
X62936380Y-116754209D02*
X61936380Y-116754209D01*
X62936380Y-116182780D01*
X61936380Y-116182780D01*
X61936380Y-115278019D02*
X61936380Y-115468495D01*
X61984000Y-115563733D01*
X62031619Y-115611352D01*
X62174476Y-115706590D01*
X62364952Y-115754209D01*
X62745904Y-115754209D01*
X62841142Y-115706590D01*
X62888761Y-115658971D01*
X62936380Y-115563733D01*
X62936380Y-115373257D01*
X62888761Y-115278019D01*
X62841142Y-115230400D01*
X62745904Y-115182780D01*
X62507809Y-115182780D01*
X62412571Y-115230400D01*
X62364952Y-115278019D01*
X62317333Y-115373257D01*
X62317333Y-115563733D01*
X62364952Y-115658971D01*
X62412571Y-115706590D01*
X62507809Y-115754209D01*
X79772000Y-134970780D02*
X79772000Y-133970780D01*
X80248190Y-134970780D02*
X80248190Y-133970780D01*
X80819619Y-134970780D01*
X80819619Y-133970780D01*
X81438666Y-134399352D02*
X81343428Y-134351733D01*
X81295809Y-134304114D01*
X81248190Y-134208876D01*
X81248190Y-134161257D01*
X81295809Y-134066019D01*
X81343428Y-134018400D01*
X81438666Y-133970780D01*
X81629142Y-133970780D01*
X81724380Y-134018400D01*
X81772000Y-134066019D01*
X81819619Y-134161257D01*
X81819619Y-134208876D01*
X81772000Y-134304114D01*
X81724380Y-134351733D01*
X81629142Y-134399352D01*
X81438666Y-134399352D01*
X81343428Y-134446971D01*
X81295809Y-134494590D01*
X81248190Y-134589828D01*
X81248190Y-134780304D01*
X81295809Y-134875542D01*
X81343428Y-134923161D01*
X81438666Y-134970780D01*
X81629142Y-134970780D01*
X81724380Y-134923161D01*
X81772000Y-134875542D01*
X81819619Y-134780304D01*
X81819619Y-134589828D01*
X81772000Y-134494590D01*
X81724380Y-134446971D01*
X81629142Y-134399352D01*
X95276190Y-87404761D02*
X95419047Y-87452380D01*
X95657142Y-87452380D01*
X95752380Y-87404761D01*
X95800000Y-87357142D01*
X95847619Y-87261904D01*
X95847619Y-87166666D01*
X95800000Y-87071428D01*
X95752380Y-87023809D01*
X95657142Y-86976190D01*
X95466666Y-86928571D01*
X95371428Y-86880952D01*
X95323809Y-86833333D01*
X95276190Y-86738095D01*
X95276190Y-86642857D01*
X95323809Y-86547619D01*
X95371428Y-86500000D01*
X95466666Y-86452380D01*
X95704761Y-86452380D01*
X95847619Y-86500000D01*
X96276190Y-87452380D02*
X96276190Y-86452380D01*
X96514285Y-86452380D01*
X96657142Y-86500000D01*
X96752380Y-86595238D01*
X96800000Y-86690476D01*
X96847619Y-86880952D01*
X96847619Y-87023809D01*
X96800000Y-87214285D01*
X96752380Y-87309523D01*
X96657142Y-87404761D01*
X96514285Y-87452380D01*
X96276190Y-87452380D01*
X97228571Y-87166666D02*
X97704761Y-87166666D01*
X97133333Y-87452380D02*
X97466666Y-86452380D01*
X97800000Y-87452380D01*
X97990476Y-86452380D02*
X98561904Y-86452380D01*
X98276190Y-87452380D02*
X98276190Y-86452380D01*
X98847619Y-87166666D02*
X99323809Y-87166666D01*
X98752380Y-87452380D02*
X99085714Y-86452380D01*
X99419047Y-87452380D01*
X62834780Y-110829600D02*
X61834780Y-110829600D01*
X62834780Y-110353409D02*
X61834780Y-110353409D01*
X62834780Y-109781980D01*
X61834780Y-109781980D01*
X61834780Y-108829600D02*
X61834780Y-109305790D01*
X62310971Y-109353409D01*
X62263352Y-109305790D01*
X62215733Y-109210552D01*
X62215733Y-108972457D01*
X62263352Y-108877219D01*
X62310971Y-108829600D01*
X62406209Y-108781980D01*
X62644304Y-108781980D01*
X62739542Y-108829600D01*
X62787161Y-108877219D01*
X62834780Y-108972457D01*
X62834780Y-109210552D01*
X62787161Y-109305790D01*
X62739542Y-109353409D01*
X97304761Y-135157142D02*
X97257142Y-135204761D01*
X97114285Y-135252380D01*
X97019047Y-135252380D01*
X96876190Y-135204761D01*
X96780952Y-135109523D01*
X96733333Y-135014285D01*
X96685714Y-134823809D01*
X96685714Y-134680952D01*
X96733333Y-134490476D01*
X96780952Y-134395238D01*
X96876190Y-134300000D01*
X97019047Y-134252380D01*
X97114285Y-134252380D01*
X97257142Y-134300000D01*
X97304761Y-134347619D01*
X98209523Y-135252380D02*
X97733333Y-135252380D01*
X97733333Y-134252380D01*
X98542857Y-135252380D02*
X98542857Y-134252380D01*
X99114285Y-135252380D02*
X98685714Y-134680952D01*
X99114285Y-134252380D02*
X98542857Y-134823809D01*
X85814285Y-82952380D02*
X85814285Y-81952380D01*
X86195238Y-81952380D01*
X86290476Y-82000000D01*
X86338095Y-82047619D01*
X86385714Y-82142857D01*
X86385714Y-82285714D01*
X86338095Y-82380952D01*
X86290476Y-82428571D01*
X86195238Y-82476190D01*
X85814285Y-82476190D01*
X86814285Y-82952380D02*
X86814285Y-81952380D01*
X87052380Y-81952380D01*
X87195238Y-82000000D01*
X87290476Y-82095238D01*
X87338095Y-82190476D01*
X87385714Y-82380952D01*
X87385714Y-82523809D01*
X87338095Y-82714285D01*
X87290476Y-82809523D01*
X87195238Y-82904761D01*
X87052380Y-82952380D01*
X86814285Y-82952380D01*
X87814285Y-82952380D02*
X87814285Y-81952380D01*
X88385714Y-82952380D01*
X88385714Y-81952380D01*
D10*
X92961904Y-72547380D02*
X92961904Y-71547380D01*
X93295238Y-72261666D01*
X93628571Y-71547380D01*
X93628571Y-72547380D01*
X94580952Y-72547380D02*
X94104761Y-72547380D01*
X94104761Y-71547380D01*
X94866666Y-72261666D02*
X95342857Y-72261666D01*
X94771428Y-72547380D02*
X95104761Y-71547380D01*
X95438095Y-72547380D01*
X96104761Y-72023571D02*
X96247619Y-72071190D01*
X96295238Y-72118809D01*
X96342857Y-72214047D01*
X96342857Y-72356904D01*
X96295238Y-72452142D01*
X96247619Y-72499761D01*
X96152380Y-72547380D01*
X95771428Y-72547380D01*
X95771428Y-71547380D01*
X96104761Y-71547380D01*
X96200000Y-71595000D01*
X96247619Y-71642619D01*
X96295238Y-71737857D01*
X96295238Y-71833095D01*
X96247619Y-71928333D01*
X96200000Y-71975952D01*
X96104761Y-72023571D01*
X95771428Y-72023571D01*
X96771428Y-72452142D02*
X96819047Y-72499761D01*
X96771428Y-72547380D01*
X96723809Y-72499761D01*
X96771428Y-72452142D01*
X96771428Y-72547380D01*
X97676190Y-72499761D02*
X97580952Y-72547380D01*
X97390476Y-72547380D01*
X97295238Y-72499761D01*
X97247619Y-72452142D01*
X97200000Y-72356904D01*
X97200000Y-72071190D01*
X97247619Y-71975952D01*
X97295238Y-71928333D01*
X97390476Y-71880714D01*
X97580952Y-71880714D01*
X97676190Y-71928333D01*
X98009523Y-71880714D02*
X98533333Y-71880714D01*
X98009523Y-72547380D01*
X98533333Y-72547380D01*
X93985714Y-73252619D02*
X94033333Y-73205000D01*
X94128571Y-73157380D01*
X94366666Y-73157380D01*
X94461904Y-73205000D01*
X94509523Y-73252619D01*
X94557142Y-73347857D01*
X94557142Y-73443095D01*
X94509523Y-73585952D01*
X93938095Y-74157380D01*
X94557142Y-74157380D01*
X95176190Y-73157380D02*
X95271428Y-73157380D01*
X95366666Y-73205000D01*
X95414285Y-73252619D01*
X95461904Y-73347857D01*
X95509523Y-73538333D01*
X95509523Y-73776428D01*
X95461904Y-73966904D01*
X95414285Y-74062142D01*
X95366666Y-74109761D01*
X95271428Y-74157380D01*
X95176190Y-74157380D01*
X95080952Y-74109761D01*
X95033333Y-74062142D01*
X94985714Y-73966904D01*
X94938095Y-73776428D01*
X94938095Y-73538333D01*
X94985714Y-73347857D01*
X95033333Y-73252619D01*
X95080952Y-73205000D01*
X95176190Y-73157380D01*
X95890476Y-73252619D02*
X95938095Y-73205000D01*
X96033333Y-73157380D01*
X96271428Y-73157380D01*
X96366666Y-73205000D01*
X96414285Y-73252619D01*
X96461904Y-73347857D01*
X96461904Y-73443095D01*
X96414285Y-73585952D01*
X95842857Y-74157380D01*
X96461904Y-74157380D01*
X96842857Y-73252619D02*
X96890476Y-73205000D01*
X96985714Y-73157380D01*
X97223809Y-73157380D01*
X97319047Y-73205000D01*
X97366666Y-73252619D01*
X97414285Y-73347857D01*
X97414285Y-73443095D01*
X97366666Y-73585952D01*
X96795238Y-74157380D01*
X97414285Y-74157380D01*
D11*
X84961904Y-85104761D02*
X85104761Y-85152380D01*
X85342857Y-85152380D01*
X85438095Y-85104761D01*
X85485714Y-85057142D01*
X85533333Y-84961904D01*
X85533333Y-84866666D01*
X85485714Y-84771428D01*
X85438095Y-84723809D01*
X85342857Y-84676190D01*
X85152380Y-84628571D01*
X85057142Y-84580952D01*
X85009523Y-84533333D01*
X84961904Y-84438095D01*
X84961904Y-84342857D01*
X85009523Y-84247619D01*
X85057142Y-84200000D01*
X85152380Y-84152380D01*
X85390476Y-84152380D01*
X85533333Y-84200000D01*
X86152380Y-84676190D02*
X86152380Y-85152380D01*
X85819047Y-84152380D02*
X86152380Y-84676190D01*
X86485714Y-84152380D01*
X86819047Y-85152380D02*
X86819047Y-84152380D01*
X87390476Y-85152380D01*
X87390476Y-84152380D01*
X88438095Y-85057142D02*
X88390476Y-85104761D01*
X88247619Y-85152380D01*
X88152380Y-85152380D01*
X88009523Y-85104761D01*
X87914285Y-85009523D01*
X87866666Y-84914285D01*
X87819047Y-84723809D01*
X87819047Y-84580952D01*
X87866666Y-84390476D01*
X87914285Y-84295238D01*
X88009523Y-84200000D01*
X88152380Y-84152380D01*
X88247619Y-84152380D01*
X88390476Y-84200000D01*
X88438095Y-84247619D01*
X62783980Y-87969600D02*
X61783980Y-87969600D01*
X62783980Y-87493409D02*
X61783980Y-87493409D01*
X62783980Y-86921980D01*
X61783980Y-86921980D01*
X61783980Y-86541028D02*
X61783980Y-85921980D01*
X62164933Y-86255314D01*
X62164933Y-86112457D01*
X62212552Y-86017219D01*
X62260171Y-85969600D01*
X62355409Y-85921980D01*
X62593504Y-85921980D01*
X62688742Y-85969600D01*
X62736361Y-86017219D01*
X62783980Y-86112457D01*
X62783980Y-86398171D01*
X62736361Y-86493409D01*
X62688742Y-86541028D01*
X95185714Y-84904761D02*
X95328571Y-84952380D01*
X95566666Y-84952380D01*
X95661904Y-84904761D01*
X95709523Y-84857142D01*
X95757142Y-84761904D01*
X95757142Y-84666666D01*
X95709523Y-84571428D01*
X95661904Y-84523809D01*
X95566666Y-84476190D01*
X95376190Y-84428571D01*
X95280952Y-84380952D01*
X95233333Y-84333333D01*
X95185714Y-84238095D01*
X95185714Y-84142857D01*
X95233333Y-84047619D01*
X95280952Y-84000000D01*
X95376190Y-83952380D01*
X95614285Y-83952380D01*
X95757142Y-84000000D01*
X96185714Y-84952380D02*
X96185714Y-83952380D01*
X96423809Y-83952380D01*
X96566666Y-84000000D01*
X96661904Y-84095238D01*
X96709523Y-84190476D01*
X96757142Y-84380952D01*
X96757142Y-84523809D01*
X96709523Y-84714285D01*
X96661904Y-84809523D01*
X96566666Y-84904761D01*
X96423809Y-84952380D01*
X96185714Y-84952380D01*
X97376190Y-83952380D02*
X97566666Y-83952380D01*
X97661904Y-84000000D01*
X97757142Y-84095238D01*
X97804761Y-84285714D01*
X97804761Y-84619047D01*
X97757142Y-84809523D01*
X97661904Y-84904761D01*
X97566666Y-84952380D01*
X97376190Y-84952380D01*
X97280952Y-84904761D01*
X97185714Y-84809523D01*
X97138095Y-84619047D01*
X97138095Y-84285714D01*
X97185714Y-84095238D01*
X97280952Y-84000000D01*
X97376190Y-83952380D01*
X98233333Y-83952380D02*
X98233333Y-84761904D01*
X98280952Y-84857142D01*
X98328571Y-84904761D01*
X98423809Y-84952380D01*
X98614285Y-84952380D01*
X98709523Y-84904761D01*
X98757142Y-84857142D01*
X98804761Y-84761904D01*
X98804761Y-83952380D01*
X99138095Y-83952380D02*
X99709523Y-83952380D01*
X99423809Y-84952380D02*
X99423809Y-83952380D01*
X121420000Y-69443504D02*
X121372380Y-69538742D01*
X121372380Y-69681600D01*
X121420000Y-69824457D01*
X121515238Y-69919695D01*
X121610476Y-69967314D01*
X121800952Y-70014933D01*
X121943809Y-70014933D01*
X122134285Y-69967314D01*
X122229523Y-69919695D01*
X122324761Y-69824457D01*
X122372380Y-69681600D01*
X122372380Y-69586361D01*
X122324761Y-69443504D01*
X122277142Y-69395885D01*
X121943809Y-69395885D01*
X121943809Y-69586361D01*
X122372380Y-68967314D02*
X121372380Y-68967314D01*
X122372380Y-68395885D01*
X121372380Y-68395885D01*
X122372380Y-67919695D02*
X121372380Y-67919695D01*
X121372380Y-67681600D01*
X121420000Y-67538742D01*
X121515238Y-67443504D01*
X121610476Y-67395885D01*
X121800952Y-67348266D01*
X121943809Y-67348266D01*
X122134285Y-67395885D01*
X122229523Y-67443504D01*
X122324761Y-67538742D01*
X122372380Y-67681600D01*
X122372380Y-67919695D01*
X62783980Y-94472000D02*
X61783980Y-94472000D01*
X62783980Y-93995809D02*
X61783980Y-93995809D01*
X62783980Y-93424380D01*
X61783980Y-93424380D01*
X62117314Y-92519619D02*
X62783980Y-92519619D01*
X61736361Y-92757714D02*
X62450647Y-92995809D01*
X62450647Y-92376761D01*
D12*
X87714285Y-70050000D02*
X88428571Y-70050000D01*
X87571428Y-70478571D02*
X88071428Y-68978571D01*
X88571428Y-70478571D01*
X89071428Y-70478571D02*
X89071428Y-68978571D01*
X89428571Y-68978571D01*
X89642857Y-69050000D01*
X89785714Y-69192857D01*
X89857142Y-69335714D01*
X89928571Y-69621428D01*
X89928571Y-69835714D01*
X89857142Y-70121428D01*
X89785714Y-70264285D01*
X89642857Y-70407142D01*
X89428571Y-70478571D01*
X89071428Y-70478571D01*
X91428571Y-70335714D02*
X91357142Y-70407142D01*
X91142857Y-70478571D01*
X91000000Y-70478571D01*
X90785714Y-70407142D01*
X90642857Y-70264285D01*
X90571428Y-70121428D01*
X90500000Y-69835714D01*
X90500000Y-69621428D01*
X90571428Y-69335714D01*
X90642857Y-69192857D01*
X90785714Y-69050000D01*
X91000000Y-68978571D01*
X91142857Y-68978571D01*
X91357142Y-69050000D01*
X91428571Y-69121428D01*
X92285714Y-70478571D02*
X92142857Y-70407142D01*
X92071428Y-70335714D01*
X92000000Y-70192857D01*
X92000000Y-69764285D01*
X92071428Y-69621428D01*
X92142857Y-69550000D01*
X92285714Y-69478571D01*
X92500000Y-69478571D01*
X92642857Y-69550000D01*
X92714285Y-69621428D01*
X92785714Y-69764285D01*
X92785714Y-70192857D01*
X92714285Y-70335714D01*
X92642857Y-70407142D01*
X92500000Y-70478571D01*
X92285714Y-70478571D01*
X94071428Y-70407142D02*
X93928571Y-70478571D01*
X93642857Y-70478571D01*
X93500000Y-70407142D01*
X93428571Y-70335714D01*
X93357142Y-70192857D01*
X93357142Y-69764285D01*
X93428571Y-69621428D01*
X93500000Y-69550000D01*
X93642857Y-69478571D01*
X93928571Y-69478571D01*
X94071428Y-69550000D01*
X94500000Y-69478571D02*
X95071428Y-69478571D01*
X94714285Y-68978571D02*
X94714285Y-70264285D01*
X94785714Y-70407142D01*
X94928571Y-70478571D01*
X95071428Y-70478571D01*
X95785714Y-70478571D02*
X95642857Y-70407142D01*
X95571428Y-70335714D01*
X95500000Y-70192857D01*
X95500000Y-69764285D01*
X95571428Y-69621428D01*
X95642857Y-69550000D01*
X95785714Y-69478571D01*
X96000000Y-69478571D01*
X96142857Y-69550000D01*
X96214285Y-69621428D01*
X96285714Y-69764285D01*
X96285714Y-70192857D01*
X96214285Y-70335714D01*
X96142857Y-70407142D01*
X96000000Y-70478571D01*
X95785714Y-70478571D01*
X96857142Y-70407142D02*
X97071428Y-70478571D01*
X97428571Y-70478571D01*
X97571428Y-70407142D01*
X97642857Y-70335714D01*
X97714285Y-70192857D01*
X97714285Y-70050000D01*
X97642857Y-69907142D01*
X97571428Y-69835714D01*
X97428571Y-69764285D01*
X97142857Y-69692857D01*
X97000000Y-69621428D01*
X96928571Y-69550000D01*
X96857142Y-69407142D01*
X96857142Y-69264285D01*
X96928571Y-69121428D01*
X97000000Y-69050000D01*
X97142857Y-68978571D01*
X97500000Y-68978571D01*
X97714285Y-69050000D01*
X98357142Y-70478571D02*
X98357142Y-68978571D01*
X98928571Y-68978571D01*
X99071428Y-69050000D01*
X99142857Y-69121428D01*
X99214285Y-69264285D01*
X99214285Y-69478571D01*
X99142857Y-69621428D01*
X99071428Y-69692857D01*
X98928571Y-69764285D01*
X98357142Y-69764285D01*
X99857142Y-70478571D02*
X99857142Y-68978571D01*
X100857142Y-68978571D02*
X101000000Y-68978571D01*
X101142857Y-69050000D01*
X101214285Y-69121428D01*
X101285714Y-69264285D01*
X101357142Y-69550000D01*
X101357142Y-69907142D01*
X101285714Y-70192857D01*
X101214285Y-70335714D01*
X101142857Y-70407142D01*
X101000000Y-70478571D01*
X100857142Y-70478571D01*
X100714285Y-70407142D01*
X100642857Y-70335714D01*
X100571428Y-70192857D01*
X100500000Y-69907142D01*
X100500000Y-69550000D01*
X100571428Y-69264285D01*
X100642857Y-69121428D01*
X100714285Y-69050000D01*
X100857142Y-68978571D01*
X102785714Y-70478571D02*
X101928571Y-70478571D01*
X102357142Y-70478571D02*
X102357142Y-68978571D01*
X102214285Y-69192857D01*
X102071428Y-69335714D01*
X101928571Y-69407142D01*
X103928571Y-69692857D02*
X104142857Y-69764285D01*
X104214285Y-69835714D01*
X104285714Y-69978571D01*
X104285714Y-70192857D01*
X104214285Y-70335714D01*
X104142857Y-70407142D01*
X104000000Y-70478571D01*
X103428571Y-70478571D01*
X103428571Y-68978571D01*
X103928571Y-68978571D01*
X104071428Y-69050000D01*
X104142857Y-69121428D01*
X104214285Y-69264285D01*
X104214285Y-69407142D01*
X104142857Y-69550000D01*
X104071428Y-69621428D01*
X103928571Y-69692857D01*
X103428571Y-69692857D01*
D10*
%TO.C,C31*%
X107434142Y-75214782D02*
X107386523Y-75262401D01*
X107243666Y-75310020D01*
X107148428Y-75310020D01*
X107005571Y-75262401D01*
X106910333Y-75167163D01*
X106862714Y-75071925D01*
X106815095Y-74881449D01*
X106815095Y-74738592D01*
X106862714Y-74548116D01*
X106910333Y-74452878D01*
X107005571Y-74357640D01*
X107148428Y-74310020D01*
X107243666Y-74310020D01*
X107386523Y-74357640D01*
X107434142Y-74405259D01*
X107767476Y-74310020D02*
X108386523Y-74310020D01*
X108053190Y-74690973D01*
X108196047Y-74690973D01*
X108291285Y-74738592D01*
X108338904Y-74786211D01*
X108386523Y-74881449D01*
X108386523Y-75119544D01*
X108338904Y-75214782D01*
X108291285Y-75262401D01*
X108196047Y-75310020D01*
X107910333Y-75310020D01*
X107815095Y-75262401D01*
X107767476Y-75214782D01*
X109338904Y-75310020D02*
X108767476Y-75310020D01*
X109053190Y-75310020D02*
X109053190Y-74310020D01*
X108957952Y-74452878D01*
X108862714Y-74548116D01*
X108767476Y-74595735D01*
%TO.C,D1*%
X111852380Y-68438095D02*
X110852380Y-68438095D01*
X110852380Y-68200000D01*
X110900000Y-68057142D01*
X110995238Y-67961904D01*
X111090476Y-67914285D01*
X111280952Y-67866666D01*
X111423809Y-67866666D01*
X111614285Y-67914285D01*
X111709523Y-67961904D01*
X111804761Y-68057142D01*
X111852380Y-68200000D01*
X111852380Y-68438095D01*
X111852380Y-66914285D02*
X111852380Y-67485714D01*
X111852380Y-67200000D02*
X110852380Y-67200000D01*
X110995238Y-67295238D01*
X111090476Y-67390476D01*
X111138095Y-67485714D01*
%TO.C,R1*%
X79436933Y-75941180D02*
X79103600Y-75464990D01*
X78865504Y-75941180D02*
X78865504Y-74941180D01*
X79246457Y-74941180D01*
X79341695Y-74988800D01*
X79389314Y-75036419D01*
X79436933Y-75131657D01*
X79436933Y-75274514D01*
X79389314Y-75369752D01*
X79341695Y-75417371D01*
X79246457Y-75464990D01*
X78865504Y-75464990D01*
X80389314Y-75941180D02*
X79817885Y-75941180D01*
X80103600Y-75941180D02*
X80103600Y-74941180D01*
X80008361Y-75084038D01*
X79913123Y-75179276D01*
X79817885Y-75226895D01*
%TO.C,R2*%
X75576133Y-75941180D02*
X75242800Y-75464990D01*
X75004704Y-75941180D02*
X75004704Y-74941180D01*
X75385657Y-74941180D01*
X75480895Y-74988800D01*
X75528514Y-75036419D01*
X75576133Y-75131657D01*
X75576133Y-75274514D01*
X75528514Y-75369752D01*
X75480895Y-75417371D01*
X75385657Y-75464990D01*
X75004704Y-75464990D01*
X75957085Y-75036419D02*
X76004704Y-74988800D01*
X76099942Y-74941180D01*
X76338038Y-74941180D01*
X76433276Y-74988800D01*
X76480895Y-75036419D01*
X76528514Y-75131657D01*
X76528514Y-75226895D01*
X76480895Y-75369752D01*
X75909466Y-75941180D01*
X76528514Y-75941180D01*
%TO.C,R3*%
X69641980Y-88355466D02*
X69165790Y-88688800D01*
X69641980Y-88926895D02*
X68641980Y-88926895D01*
X68641980Y-88545942D01*
X68689600Y-88450704D01*
X68737219Y-88403085D01*
X68832457Y-88355466D01*
X68975314Y-88355466D01*
X69070552Y-88403085D01*
X69118171Y-88450704D01*
X69165790Y-88545942D01*
X69165790Y-88926895D01*
X68641980Y-88022133D02*
X68641980Y-87403085D01*
X69022933Y-87736419D01*
X69022933Y-87593561D01*
X69070552Y-87498323D01*
X69118171Y-87450704D01*
X69213409Y-87403085D01*
X69451504Y-87403085D01*
X69546742Y-87450704D01*
X69594361Y-87498323D01*
X69641980Y-87593561D01*
X69641980Y-87879276D01*
X69594361Y-87974514D01*
X69546742Y-88022133D01*
%TO.C,R4*%
X69591180Y-92216266D02*
X69114990Y-92549600D01*
X69591180Y-92787695D02*
X68591180Y-92787695D01*
X68591180Y-92406742D01*
X68638800Y-92311504D01*
X68686419Y-92263885D01*
X68781657Y-92216266D01*
X68924514Y-92216266D01*
X69019752Y-92263885D01*
X69067371Y-92311504D01*
X69114990Y-92406742D01*
X69114990Y-92787695D01*
X68924514Y-91359123D02*
X69591180Y-91359123D01*
X68543561Y-91597219D02*
X69257847Y-91835314D01*
X69257847Y-91216266D01*
%TO.C,R5*%
X69652380Y-111266666D02*
X69176190Y-111600000D01*
X69652380Y-111838095D02*
X68652380Y-111838095D01*
X68652380Y-111457142D01*
X68700000Y-111361904D01*
X68747619Y-111314285D01*
X68842857Y-111266666D01*
X68985714Y-111266666D01*
X69080952Y-111314285D01*
X69128571Y-111361904D01*
X69176190Y-111457142D01*
X69176190Y-111838095D01*
X68652380Y-110361904D02*
X68652380Y-110838095D01*
X69128571Y-110885714D01*
X69080952Y-110838095D01*
X69033333Y-110742857D01*
X69033333Y-110504761D01*
X69080952Y-110409523D01*
X69128571Y-110361904D01*
X69223809Y-110314285D01*
X69461904Y-110314285D01*
X69557142Y-110361904D01*
X69604761Y-110409523D01*
X69652380Y-110504761D01*
X69652380Y-110742857D01*
X69604761Y-110838095D01*
X69557142Y-110885714D01*
%TO.C,R6*%
X69652380Y-114966666D02*
X69176190Y-115300000D01*
X69652380Y-115538095D02*
X68652380Y-115538095D01*
X68652380Y-115157142D01*
X68700000Y-115061904D01*
X68747619Y-115014285D01*
X68842857Y-114966666D01*
X68985714Y-114966666D01*
X69080952Y-115014285D01*
X69128571Y-115061904D01*
X69176190Y-115157142D01*
X69176190Y-115538095D01*
X68652380Y-114109523D02*
X68652380Y-114300000D01*
X68700000Y-114395238D01*
X68747619Y-114442857D01*
X68890476Y-114538095D01*
X69080952Y-114585714D01*
X69461904Y-114585714D01*
X69557142Y-114538095D01*
X69604761Y-114490476D01*
X69652380Y-114395238D01*
X69652380Y-114204761D01*
X69604761Y-114109523D01*
X69557142Y-114061904D01*
X69461904Y-114014285D01*
X69223809Y-114014285D01*
X69128571Y-114061904D01*
X69080952Y-114109523D01*
X69033333Y-114204761D01*
X69033333Y-114395238D01*
X69080952Y-114490476D01*
X69128571Y-114538095D01*
X69223809Y-114585714D01*
%TO.C,R7*%
X75601533Y-128352380D02*
X75268200Y-127876190D01*
X75030104Y-128352380D02*
X75030104Y-127352380D01*
X75411057Y-127352380D01*
X75506295Y-127400000D01*
X75553914Y-127447619D01*
X75601533Y-127542857D01*
X75601533Y-127685714D01*
X75553914Y-127780952D01*
X75506295Y-127828571D01*
X75411057Y-127876190D01*
X75030104Y-127876190D01*
X75934866Y-127352380D02*
X76601533Y-127352380D01*
X76172961Y-128352380D01*
%TO.C,R8*%
X79333333Y-128352380D02*
X79000000Y-127876190D01*
X78761904Y-128352380D02*
X78761904Y-127352380D01*
X79142857Y-127352380D01*
X79238095Y-127400000D01*
X79285714Y-127447619D01*
X79333333Y-127542857D01*
X79333333Y-127685714D01*
X79285714Y-127780952D01*
X79238095Y-127828571D01*
X79142857Y-127876190D01*
X78761904Y-127876190D01*
X79904761Y-127780952D02*
X79809523Y-127733333D01*
X79761904Y-127685714D01*
X79714285Y-127590476D01*
X79714285Y-127542857D01*
X79761904Y-127447619D01*
X79809523Y-127400000D01*
X79904761Y-127352380D01*
X80095238Y-127352380D01*
X80190476Y-127400000D01*
X80238095Y-127447619D01*
X80285714Y-127542857D01*
X80285714Y-127590476D01*
X80238095Y-127685714D01*
X80190476Y-127733333D01*
X80095238Y-127780952D01*
X79904761Y-127780952D01*
X79809523Y-127828571D01*
X79761904Y-127876190D01*
X79714285Y-127971428D01*
X79714285Y-128161904D01*
X79761904Y-128257142D01*
X79809523Y-128304761D01*
X79904761Y-128352380D01*
X80095238Y-128352380D01*
X80190476Y-128304761D01*
X80238095Y-128257142D01*
X80285714Y-128161904D01*
X80285714Y-127971428D01*
X80238095Y-127876190D01*
X80190476Y-127828571D01*
X80095238Y-127780952D01*
%TO.C,R9*%
X98433333Y-125652380D02*
X98100000Y-125176190D01*
X97861904Y-125652380D02*
X97861904Y-124652380D01*
X98242857Y-124652380D01*
X98338095Y-124700000D01*
X98385714Y-124747619D01*
X98433333Y-124842857D01*
X98433333Y-124985714D01*
X98385714Y-125080952D01*
X98338095Y-125128571D01*
X98242857Y-125176190D01*
X97861904Y-125176190D01*
X98909523Y-125652380D02*
X99100000Y-125652380D01*
X99195238Y-125604761D01*
X99242857Y-125557142D01*
X99338095Y-125414285D01*
X99385714Y-125223809D01*
X99385714Y-124842857D01*
X99338095Y-124747619D01*
X99290476Y-124700000D01*
X99195238Y-124652380D01*
X99004761Y-124652380D01*
X98909523Y-124700000D01*
X98861904Y-124747619D01*
X98814285Y-124842857D01*
X98814285Y-125080952D01*
X98861904Y-125176190D01*
X98909523Y-125223809D01*
X99004761Y-125271428D01*
X99195238Y-125271428D01*
X99290476Y-125223809D01*
X99338095Y-125176190D01*
X99385714Y-125080952D01*
%TO.C,R14*%
X98057142Y-127552380D02*
X97723809Y-127076190D01*
X97485714Y-127552380D02*
X97485714Y-126552380D01*
X97866666Y-126552380D01*
X97961904Y-126600000D01*
X98009523Y-126647619D01*
X98057142Y-126742857D01*
X98057142Y-126885714D01*
X98009523Y-126980952D01*
X97961904Y-127028571D01*
X97866666Y-127076190D01*
X97485714Y-127076190D01*
X99009523Y-127552380D02*
X98438095Y-127552380D01*
X98723809Y-127552380D02*
X98723809Y-126552380D01*
X98628571Y-126695238D01*
X98533333Y-126790476D01*
X98438095Y-126838095D01*
X99866666Y-126885714D02*
X99866666Y-127552380D01*
X99628571Y-126504761D02*
X99390476Y-127219047D01*
X100009523Y-127219047D01*
%TO.C,R10*%
X89457142Y-123352380D02*
X89123809Y-122876190D01*
X88885714Y-123352380D02*
X88885714Y-122352380D01*
X89266666Y-122352380D01*
X89361904Y-122400000D01*
X89409523Y-122447619D01*
X89457142Y-122542857D01*
X89457142Y-122685714D01*
X89409523Y-122780952D01*
X89361904Y-122828571D01*
X89266666Y-122876190D01*
X88885714Y-122876190D01*
X90409523Y-123352380D02*
X89838095Y-123352380D01*
X90123809Y-123352380D02*
X90123809Y-122352380D01*
X90028571Y-122495238D01*
X89933333Y-122590476D01*
X89838095Y-122638095D01*
X91028571Y-122352380D02*
X91123809Y-122352380D01*
X91219047Y-122400000D01*
X91266666Y-122447619D01*
X91314285Y-122542857D01*
X91361904Y-122733333D01*
X91361904Y-122971428D01*
X91314285Y-123161904D01*
X91266666Y-123257142D01*
X91219047Y-123304761D01*
X91123809Y-123352380D01*
X91028571Y-123352380D01*
X90933333Y-123304761D01*
X90885714Y-123257142D01*
X90838095Y-123161904D01*
X90790476Y-122971428D01*
X90790476Y-122733333D01*
X90838095Y-122542857D01*
X90885714Y-122447619D01*
X90933333Y-122400000D01*
X91028571Y-122352380D01*
%TO.C,R15*%
X88857142Y-128052380D02*
X88523809Y-127576190D01*
X88285714Y-128052380D02*
X88285714Y-127052380D01*
X88666666Y-127052380D01*
X88761904Y-127100000D01*
X88809523Y-127147619D01*
X88857142Y-127242857D01*
X88857142Y-127385714D01*
X88809523Y-127480952D01*
X88761904Y-127528571D01*
X88666666Y-127576190D01*
X88285714Y-127576190D01*
X89809523Y-128052380D02*
X89238095Y-128052380D01*
X89523809Y-128052380D02*
X89523809Y-127052380D01*
X89428571Y-127195238D01*
X89333333Y-127290476D01*
X89238095Y-127338095D01*
X90714285Y-127052380D02*
X90238095Y-127052380D01*
X90190476Y-127528571D01*
X90238095Y-127480952D01*
X90333333Y-127433333D01*
X90571428Y-127433333D01*
X90666666Y-127480952D01*
X90714285Y-127528571D01*
X90761904Y-127623809D01*
X90761904Y-127861904D01*
X90714285Y-127957142D01*
X90666666Y-128004761D01*
X90571428Y-128052380D01*
X90333333Y-128052380D01*
X90238095Y-128004761D01*
X90190476Y-127957142D01*
%TO.C,C34*%
X108857142Y-69942857D02*
X108904761Y-69990476D01*
X108952380Y-70133333D01*
X108952380Y-70228571D01*
X108904761Y-70371428D01*
X108809523Y-70466666D01*
X108714285Y-70514285D01*
X108523809Y-70561904D01*
X108380952Y-70561904D01*
X108190476Y-70514285D01*
X108095238Y-70466666D01*
X108000000Y-70371428D01*
X107952380Y-70228571D01*
X107952380Y-70133333D01*
X108000000Y-69990476D01*
X108047619Y-69942857D01*
X107952380Y-69609523D02*
X107952380Y-68990476D01*
X108333333Y-69323809D01*
X108333333Y-69180952D01*
X108380952Y-69085714D01*
X108428571Y-69038095D01*
X108523809Y-68990476D01*
X108761904Y-68990476D01*
X108857142Y-69038095D01*
X108904761Y-69085714D01*
X108952380Y-69180952D01*
X108952380Y-69466666D01*
X108904761Y-69561904D01*
X108857142Y-69609523D01*
X108285714Y-68133333D02*
X108952380Y-68133333D01*
X107904761Y-68371428D02*
X108619047Y-68609523D01*
X108619047Y-67990476D01*
%TO.C,C1*%
X80957142Y-81866666D02*
X81004761Y-81914285D01*
X81052380Y-82057142D01*
X81052380Y-82152380D01*
X81004761Y-82295238D01*
X80909523Y-82390476D01*
X80814285Y-82438095D01*
X80623809Y-82485714D01*
X80480952Y-82485714D01*
X80290476Y-82438095D01*
X80195238Y-82390476D01*
X80100000Y-82295238D01*
X80052380Y-82152380D01*
X80052380Y-82057142D01*
X80100000Y-81914285D01*
X80147619Y-81866666D01*
X81052380Y-80914285D02*
X81052380Y-81485714D01*
X81052380Y-81200000D02*
X80052380Y-81200000D01*
X80195238Y-81295238D01*
X80290476Y-81390476D01*
X80338095Y-81485714D01*
%TO.C,C2*%
X79057142Y-81966666D02*
X79104761Y-82014285D01*
X79152380Y-82157142D01*
X79152380Y-82252380D01*
X79104761Y-82395238D01*
X79009523Y-82490476D01*
X78914285Y-82538095D01*
X78723809Y-82585714D01*
X78580952Y-82585714D01*
X78390476Y-82538095D01*
X78295238Y-82490476D01*
X78200000Y-82395238D01*
X78152380Y-82252380D01*
X78152380Y-82157142D01*
X78200000Y-82014285D01*
X78247619Y-81966666D01*
X78247619Y-81585714D02*
X78200000Y-81538095D01*
X78152380Y-81442857D01*
X78152380Y-81204761D01*
X78200000Y-81109523D01*
X78247619Y-81061904D01*
X78342857Y-81014285D01*
X78438095Y-81014285D01*
X78580952Y-81061904D01*
X79152380Y-81633333D01*
X79152380Y-81014285D01*
%TO.C,C9*%
X77057142Y-82066666D02*
X77104761Y-82114285D01*
X77152380Y-82257142D01*
X77152380Y-82352380D01*
X77104761Y-82495238D01*
X77009523Y-82590476D01*
X76914285Y-82638095D01*
X76723809Y-82685714D01*
X76580952Y-82685714D01*
X76390476Y-82638095D01*
X76295238Y-82590476D01*
X76200000Y-82495238D01*
X76152380Y-82352380D01*
X76152380Y-82257142D01*
X76200000Y-82114285D01*
X76247619Y-82066666D01*
X77152380Y-81590476D02*
X77152380Y-81400000D01*
X77104761Y-81304761D01*
X77057142Y-81257142D01*
X76914285Y-81161904D01*
X76723809Y-81114285D01*
X76342857Y-81114285D01*
X76247619Y-81161904D01*
X76200000Y-81209523D01*
X76152380Y-81304761D01*
X76152380Y-81495238D01*
X76200000Y-81590476D01*
X76247619Y-81638095D01*
X76342857Y-81685714D01*
X76580952Y-81685714D01*
X76676190Y-81638095D01*
X76723809Y-81590476D01*
X76771428Y-81495238D01*
X76771428Y-81304761D01*
X76723809Y-81209523D01*
X76676190Y-81161904D01*
X76580952Y-81114285D01*
%TO.C,C10*%
X75157142Y-83042857D02*
X75204761Y-83090476D01*
X75252380Y-83233333D01*
X75252380Y-83328571D01*
X75204761Y-83471428D01*
X75109523Y-83566666D01*
X75014285Y-83614285D01*
X74823809Y-83661904D01*
X74680952Y-83661904D01*
X74490476Y-83614285D01*
X74395238Y-83566666D01*
X74300000Y-83471428D01*
X74252380Y-83328571D01*
X74252380Y-83233333D01*
X74300000Y-83090476D01*
X74347619Y-83042857D01*
X75252380Y-82090476D02*
X75252380Y-82661904D01*
X75252380Y-82376190D02*
X74252380Y-82376190D01*
X74395238Y-82471428D01*
X74490476Y-82566666D01*
X74538095Y-82661904D01*
X74252380Y-81471428D02*
X74252380Y-81376190D01*
X74300000Y-81280952D01*
X74347619Y-81233333D01*
X74442857Y-81185714D01*
X74633333Y-81138095D01*
X74871428Y-81138095D01*
X75061904Y-81185714D01*
X75157142Y-81233333D01*
X75204761Y-81280952D01*
X75252380Y-81376190D01*
X75252380Y-81471428D01*
X75204761Y-81566666D01*
X75157142Y-81614285D01*
X75061904Y-81661904D01*
X74871428Y-81709523D01*
X74633333Y-81709523D01*
X74442857Y-81661904D01*
X74347619Y-81614285D01*
X74300000Y-81566666D01*
X74252380Y-81471428D01*
%TO.C,C3*%
X75533333Y-87757142D02*
X75485714Y-87804761D01*
X75342857Y-87852380D01*
X75247619Y-87852380D01*
X75104761Y-87804761D01*
X75009523Y-87709523D01*
X74961904Y-87614285D01*
X74914285Y-87423809D01*
X74914285Y-87280952D01*
X74961904Y-87090476D01*
X75009523Y-86995238D01*
X75104761Y-86900000D01*
X75247619Y-86852380D01*
X75342857Y-86852380D01*
X75485714Y-86900000D01*
X75533333Y-86947619D01*
X75866666Y-86852380D02*
X76485714Y-86852380D01*
X76152380Y-87233333D01*
X76295238Y-87233333D01*
X76390476Y-87280952D01*
X76438095Y-87328571D01*
X76485714Y-87423809D01*
X76485714Y-87661904D01*
X76438095Y-87757142D01*
X76390476Y-87804761D01*
X76295238Y-87852380D01*
X76009523Y-87852380D01*
X75914285Y-87804761D01*
X75866666Y-87757142D01*
%TO.C,C4*%
X75533333Y-89457142D02*
X75485714Y-89504761D01*
X75342857Y-89552380D01*
X75247619Y-89552380D01*
X75104761Y-89504761D01*
X75009523Y-89409523D01*
X74961904Y-89314285D01*
X74914285Y-89123809D01*
X74914285Y-88980952D01*
X74961904Y-88790476D01*
X75009523Y-88695238D01*
X75104761Y-88600000D01*
X75247619Y-88552380D01*
X75342857Y-88552380D01*
X75485714Y-88600000D01*
X75533333Y-88647619D01*
X76390476Y-88885714D02*
X76390476Y-89552380D01*
X76152380Y-88504761D02*
X75914285Y-89219047D01*
X76533333Y-89219047D01*
%TO.C,C11*%
X75057142Y-91457142D02*
X75009523Y-91504761D01*
X74866666Y-91552380D01*
X74771428Y-91552380D01*
X74628571Y-91504761D01*
X74533333Y-91409523D01*
X74485714Y-91314285D01*
X74438095Y-91123809D01*
X74438095Y-90980952D01*
X74485714Y-90790476D01*
X74533333Y-90695238D01*
X74628571Y-90600000D01*
X74771428Y-90552380D01*
X74866666Y-90552380D01*
X75009523Y-90600000D01*
X75057142Y-90647619D01*
X76009523Y-91552380D02*
X75438095Y-91552380D01*
X75723809Y-91552380D02*
X75723809Y-90552380D01*
X75628571Y-90695238D01*
X75533333Y-90790476D01*
X75438095Y-90838095D01*
X76961904Y-91552380D02*
X76390476Y-91552380D01*
X76676190Y-91552380D02*
X76676190Y-90552380D01*
X76580952Y-90695238D01*
X76485714Y-90790476D01*
X76390476Y-90838095D01*
%TO.C,C12*%
X75457142Y-93257142D02*
X75409523Y-93304761D01*
X75266666Y-93352380D01*
X75171428Y-93352380D01*
X75028571Y-93304761D01*
X74933333Y-93209523D01*
X74885714Y-93114285D01*
X74838095Y-92923809D01*
X74838095Y-92780952D01*
X74885714Y-92590476D01*
X74933333Y-92495238D01*
X75028571Y-92400000D01*
X75171428Y-92352380D01*
X75266666Y-92352380D01*
X75409523Y-92400000D01*
X75457142Y-92447619D01*
X76409523Y-93352380D02*
X75838095Y-93352380D01*
X76123809Y-93352380D02*
X76123809Y-92352380D01*
X76028571Y-92495238D01*
X75933333Y-92590476D01*
X75838095Y-92638095D01*
X76790476Y-92447619D02*
X76838095Y-92400000D01*
X76933333Y-92352380D01*
X77171428Y-92352380D01*
X77266666Y-92400000D01*
X77314285Y-92447619D01*
X77361904Y-92542857D01*
X77361904Y-92638095D01*
X77314285Y-92780952D01*
X76742857Y-93352380D01*
X77361904Y-93352380D01*
%TO.C,C5*%
X75833333Y-110557142D02*
X75785714Y-110604761D01*
X75642857Y-110652380D01*
X75547619Y-110652380D01*
X75404761Y-110604761D01*
X75309523Y-110509523D01*
X75261904Y-110414285D01*
X75214285Y-110223809D01*
X75214285Y-110080952D01*
X75261904Y-109890476D01*
X75309523Y-109795238D01*
X75404761Y-109700000D01*
X75547619Y-109652380D01*
X75642857Y-109652380D01*
X75785714Y-109700000D01*
X75833333Y-109747619D01*
X76738095Y-109652380D02*
X76261904Y-109652380D01*
X76214285Y-110128571D01*
X76261904Y-110080952D01*
X76357142Y-110033333D01*
X76595238Y-110033333D01*
X76690476Y-110080952D01*
X76738095Y-110128571D01*
X76785714Y-110223809D01*
X76785714Y-110461904D01*
X76738095Y-110557142D01*
X76690476Y-110604761D01*
X76595238Y-110652380D01*
X76357142Y-110652380D01*
X76261904Y-110604761D01*
X76214285Y-110557142D01*
%TO.C,C6*%
X75933333Y-112357142D02*
X75885714Y-112404761D01*
X75742857Y-112452380D01*
X75647619Y-112452380D01*
X75504761Y-112404761D01*
X75409523Y-112309523D01*
X75361904Y-112214285D01*
X75314285Y-112023809D01*
X75314285Y-111880952D01*
X75361904Y-111690476D01*
X75409523Y-111595238D01*
X75504761Y-111500000D01*
X75647619Y-111452380D01*
X75742857Y-111452380D01*
X75885714Y-111500000D01*
X75933333Y-111547619D01*
X76790476Y-111452380D02*
X76600000Y-111452380D01*
X76504761Y-111500000D01*
X76457142Y-111547619D01*
X76361904Y-111690476D01*
X76314285Y-111880952D01*
X76314285Y-112261904D01*
X76361904Y-112357142D01*
X76409523Y-112404761D01*
X76504761Y-112452380D01*
X76695238Y-112452380D01*
X76790476Y-112404761D01*
X76838095Y-112357142D01*
X76885714Y-112261904D01*
X76885714Y-112023809D01*
X76838095Y-111928571D01*
X76790476Y-111880952D01*
X76695238Y-111833333D01*
X76504761Y-111833333D01*
X76409523Y-111880952D01*
X76361904Y-111928571D01*
X76314285Y-112023809D01*
%TO.C,C13*%
X75457142Y-114357142D02*
X75409523Y-114404761D01*
X75266666Y-114452380D01*
X75171428Y-114452380D01*
X75028571Y-114404761D01*
X74933333Y-114309523D01*
X74885714Y-114214285D01*
X74838095Y-114023809D01*
X74838095Y-113880952D01*
X74885714Y-113690476D01*
X74933333Y-113595238D01*
X75028571Y-113500000D01*
X75171428Y-113452380D01*
X75266666Y-113452380D01*
X75409523Y-113500000D01*
X75457142Y-113547619D01*
X76409523Y-114452380D02*
X75838095Y-114452380D01*
X76123809Y-114452380D02*
X76123809Y-113452380D01*
X76028571Y-113595238D01*
X75933333Y-113690476D01*
X75838095Y-113738095D01*
X76742857Y-113452380D02*
X77361904Y-113452380D01*
X77028571Y-113833333D01*
X77171428Y-113833333D01*
X77266666Y-113880952D01*
X77314285Y-113928571D01*
X77361904Y-114023809D01*
X77361904Y-114261904D01*
X77314285Y-114357142D01*
X77266666Y-114404761D01*
X77171428Y-114452380D01*
X76885714Y-114452380D01*
X76790476Y-114404761D01*
X76742857Y-114357142D01*
%TO.C,C14*%
X75457142Y-116057142D02*
X75409523Y-116104761D01*
X75266666Y-116152380D01*
X75171428Y-116152380D01*
X75028571Y-116104761D01*
X74933333Y-116009523D01*
X74885714Y-115914285D01*
X74838095Y-115723809D01*
X74838095Y-115580952D01*
X74885714Y-115390476D01*
X74933333Y-115295238D01*
X75028571Y-115200000D01*
X75171428Y-115152380D01*
X75266666Y-115152380D01*
X75409523Y-115200000D01*
X75457142Y-115247619D01*
X76409523Y-116152380D02*
X75838095Y-116152380D01*
X76123809Y-116152380D02*
X76123809Y-115152380D01*
X76028571Y-115295238D01*
X75933333Y-115390476D01*
X75838095Y-115438095D01*
X77266666Y-115485714D02*
X77266666Y-116152380D01*
X77028571Y-115104761D02*
X76790476Y-115819047D01*
X77409523Y-115819047D01*
%TO.C,C7*%
X75257142Y-120866666D02*
X75304761Y-120914285D01*
X75352380Y-121057142D01*
X75352380Y-121152380D01*
X75304761Y-121295238D01*
X75209523Y-121390476D01*
X75114285Y-121438095D01*
X74923809Y-121485714D01*
X74780952Y-121485714D01*
X74590476Y-121438095D01*
X74495238Y-121390476D01*
X74400000Y-121295238D01*
X74352380Y-121152380D01*
X74352380Y-121057142D01*
X74400000Y-120914285D01*
X74447619Y-120866666D01*
X74352380Y-120533333D02*
X74352380Y-119866666D01*
X75352380Y-120295238D01*
%TO.C,C8*%
X76957142Y-120866666D02*
X77004761Y-120914285D01*
X77052380Y-121057142D01*
X77052380Y-121152380D01*
X77004761Y-121295238D01*
X76909523Y-121390476D01*
X76814285Y-121438095D01*
X76623809Y-121485714D01*
X76480952Y-121485714D01*
X76290476Y-121438095D01*
X76195238Y-121390476D01*
X76100000Y-121295238D01*
X76052380Y-121152380D01*
X76052380Y-121057142D01*
X76100000Y-120914285D01*
X76147619Y-120866666D01*
X76480952Y-120295238D02*
X76433333Y-120390476D01*
X76385714Y-120438095D01*
X76290476Y-120485714D01*
X76242857Y-120485714D01*
X76147619Y-120438095D01*
X76100000Y-120390476D01*
X76052380Y-120295238D01*
X76052380Y-120104761D01*
X76100000Y-120009523D01*
X76147619Y-119961904D01*
X76242857Y-119914285D01*
X76290476Y-119914285D01*
X76385714Y-119961904D01*
X76433333Y-120009523D01*
X76480952Y-120104761D01*
X76480952Y-120295238D01*
X76528571Y-120390476D01*
X76576190Y-120438095D01*
X76671428Y-120485714D01*
X76861904Y-120485714D01*
X76957142Y-120438095D01*
X77004761Y-120390476D01*
X77052380Y-120295238D01*
X77052380Y-120104761D01*
X77004761Y-120009523D01*
X76957142Y-119961904D01*
X76861904Y-119914285D01*
X76671428Y-119914285D01*
X76576190Y-119961904D01*
X76528571Y-120009523D01*
X76480952Y-120104761D01*
%TO.C,C15*%
X79057142Y-121442857D02*
X79104761Y-121490476D01*
X79152380Y-121633333D01*
X79152380Y-121728571D01*
X79104761Y-121871428D01*
X79009523Y-121966666D01*
X78914285Y-122014285D01*
X78723809Y-122061904D01*
X78580952Y-122061904D01*
X78390476Y-122014285D01*
X78295238Y-121966666D01*
X78200000Y-121871428D01*
X78152380Y-121728571D01*
X78152380Y-121633333D01*
X78200000Y-121490476D01*
X78247619Y-121442857D01*
X79152380Y-120490476D02*
X79152380Y-121061904D01*
X79152380Y-120776190D02*
X78152380Y-120776190D01*
X78295238Y-120871428D01*
X78390476Y-120966666D01*
X78438095Y-121061904D01*
X78152380Y-119585714D02*
X78152380Y-120061904D01*
X78628571Y-120109523D01*
X78580952Y-120061904D01*
X78533333Y-119966666D01*
X78533333Y-119728571D01*
X78580952Y-119633333D01*
X78628571Y-119585714D01*
X78723809Y-119538095D01*
X78961904Y-119538095D01*
X79057142Y-119585714D01*
X79104761Y-119633333D01*
X79152380Y-119728571D01*
X79152380Y-119966666D01*
X79104761Y-120061904D01*
X79057142Y-120109523D01*
%TO.C,C16*%
X80857142Y-121442857D02*
X80904761Y-121490476D01*
X80952380Y-121633333D01*
X80952380Y-121728571D01*
X80904761Y-121871428D01*
X80809523Y-121966666D01*
X80714285Y-122014285D01*
X80523809Y-122061904D01*
X80380952Y-122061904D01*
X80190476Y-122014285D01*
X80095238Y-121966666D01*
X80000000Y-121871428D01*
X79952380Y-121728571D01*
X79952380Y-121633333D01*
X80000000Y-121490476D01*
X80047619Y-121442857D01*
X80952380Y-120490476D02*
X80952380Y-121061904D01*
X80952380Y-120776190D02*
X79952380Y-120776190D01*
X80095238Y-120871428D01*
X80190476Y-120966666D01*
X80238095Y-121061904D01*
X79952380Y-119633333D02*
X79952380Y-119823809D01*
X80000000Y-119919047D01*
X80047619Y-119966666D01*
X80190476Y-120061904D01*
X80380952Y-120109523D01*
X80761904Y-120109523D01*
X80857142Y-120061904D01*
X80904761Y-120014285D01*
X80952380Y-119919047D01*
X80952380Y-119728571D01*
X80904761Y-119633333D01*
X80857142Y-119585714D01*
X80761904Y-119538095D01*
X80523809Y-119538095D01*
X80428571Y-119585714D01*
X80380952Y-119633333D01*
X80333333Y-119728571D01*
X80333333Y-119919047D01*
X80380952Y-120014285D01*
X80428571Y-120061904D01*
X80523809Y-120109523D01*
%TO.C,C19*%
X83557142Y-81842857D02*
X83604761Y-81890476D01*
X83652380Y-82033333D01*
X83652380Y-82128571D01*
X83604761Y-82271428D01*
X83509523Y-82366666D01*
X83414285Y-82414285D01*
X83223809Y-82461904D01*
X83080952Y-82461904D01*
X82890476Y-82414285D01*
X82795238Y-82366666D01*
X82700000Y-82271428D01*
X82652380Y-82128571D01*
X82652380Y-82033333D01*
X82700000Y-81890476D01*
X82747619Y-81842857D01*
X83652380Y-80890476D02*
X83652380Y-81461904D01*
X83652380Y-81176190D02*
X82652380Y-81176190D01*
X82795238Y-81271428D01*
X82890476Y-81366666D01*
X82938095Y-81461904D01*
X83652380Y-80414285D02*
X83652380Y-80223809D01*
X83604761Y-80128571D01*
X83557142Y-80080952D01*
X83414285Y-79985714D01*
X83223809Y-79938095D01*
X82842857Y-79938095D01*
X82747619Y-79985714D01*
X82700000Y-80033333D01*
X82652380Y-80128571D01*
X82652380Y-80319047D01*
X82700000Y-80414285D01*
X82747619Y-80461904D01*
X82842857Y-80509523D01*
X83080952Y-80509523D01*
X83176190Y-80461904D01*
X83223809Y-80414285D01*
X83271428Y-80319047D01*
X83271428Y-80128571D01*
X83223809Y-80033333D01*
X83176190Y-79985714D01*
X83080952Y-79938095D01*
%TO.C,C20*%
X93357142Y-120142857D02*
X93404761Y-120190476D01*
X93452380Y-120333333D01*
X93452380Y-120428571D01*
X93404761Y-120571428D01*
X93309523Y-120666666D01*
X93214285Y-120714285D01*
X93023809Y-120761904D01*
X92880952Y-120761904D01*
X92690476Y-120714285D01*
X92595238Y-120666666D01*
X92500000Y-120571428D01*
X92452380Y-120428571D01*
X92452380Y-120333333D01*
X92500000Y-120190476D01*
X92547619Y-120142857D01*
X92547619Y-119761904D02*
X92500000Y-119714285D01*
X92452380Y-119619047D01*
X92452380Y-119380952D01*
X92500000Y-119285714D01*
X92547619Y-119238095D01*
X92642857Y-119190476D01*
X92738095Y-119190476D01*
X92880952Y-119238095D01*
X93452380Y-119809523D01*
X93452380Y-119190476D01*
X92452380Y-118571428D02*
X92452380Y-118476190D01*
X92500000Y-118380952D01*
X92547619Y-118333333D01*
X92642857Y-118285714D01*
X92833333Y-118238095D01*
X93071428Y-118238095D01*
X93261904Y-118285714D01*
X93357142Y-118333333D01*
X93404761Y-118380952D01*
X93452380Y-118476190D01*
X93452380Y-118571428D01*
X93404761Y-118666666D01*
X93357142Y-118714285D01*
X93261904Y-118761904D01*
X93071428Y-118809523D01*
X92833333Y-118809523D01*
X92642857Y-118761904D01*
X92547619Y-118714285D01*
X92500000Y-118666666D01*
X92452380Y-118571428D01*
%TO.C,C21*%
X95257142Y-120142857D02*
X95304761Y-120190476D01*
X95352380Y-120333333D01*
X95352380Y-120428571D01*
X95304761Y-120571428D01*
X95209523Y-120666666D01*
X95114285Y-120714285D01*
X94923809Y-120761904D01*
X94780952Y-120761904D01*
X94590476Y-120714285D01*
X94495238Y-120666666D01*
X94400000Y-120571428D01*
X94352380Y-120428571D01*
X94352380Y-120333333D01*
X94400000Y-120190476D01*
X94447619Y-120142857D01*
X94447619Y-119761904D02*
X94400000Y-119714285D01*
X94352380Y-119619047D01*
X94352380Y-119380952D01*
X94400000Y-119285714D01*
X94447619Y-119238095D01*
X94542857Y-119190476D01*
X94638095Y-119190476D01*
X94780952Y-119238095D01*
X95352380Y-119809523D01*
X95352380Y-119190476D01*
X95352380Y-118238095D02*
X95352380Y-118809523D01*
X95352380Y-118523809D02*
X94352380Y-118523809D01*
X94495238Y-118619047D01*
X94590476Y-118714285D01*
X94638095Y-118809523D01*
%TO.C,C17*%
X90006422Y-113870977D02*
X90054041Y-113918596D01*
X90101660Y-114061453D01*
X90101660Y-114156691D01*
X90054041Y-114299548D01*
X89958803Y-114394786D01*
X89863565Y-114442405D01*
X89673089Y-114490024D01*
X89530232Y-114490024D01*
X89339756Y-114442405D01*
X89244518Y-114394786D01*
X89149280Y-114299548D01*
X89101660Y-114156691D01*
X89101660Y-114061453D01*
X89149280Y-113918596D01*
X89196899Y-113870977D01*
X90101660Y-112918596D02*
X90101660Y-113490024D01*
X90101660Y-113204310D02*
X89101660Y-113204310D01*
X89244518Y-113299548D01*
X89339756Y-113394786D01*
X89387375Y-113490024D01*
X89101660Y-112585262D02*
X89101660Y-111918596D01*
X90101660Y-112347167D01*
%TO.C,J7*%
X101841666Y-127087380D02*
X101841666Y-127801666D01*
X101794047Y-127944523D01*
X101698809Y-128039761D01*
X101555952Y-128087380D01*
X101460714Y-128087380D01*
X102222619Y-127087380D02*
X102889285Y-127087380D01*
X102460714Y-128087380D01*
%TO.C,J4*%
X83691666Y-127087380D02*
X83691666Y-127801666D01*
X83644047Y-127944523D01*
X83548809Y-128039761D01*
X83405952Y-128087380D01*
X83310714Y-128087380D01*
X84596428Y-127420714D02*
X84596428Y-128087380D01*
X84358333Y-127039761D02*
X84120238Y-127754047D01*
X84739285Y-127754047D01*
%TO.C,J1*%
X71041666Y-75041380D02*
X71041666Y-75755666D01*
X70994047Y-75898523D01*
X70898809Y-75993761D01*
X70755952Y-76041380D01*
X70660714Y-76041380D01*
X72041666Y-76041380D02*
X71470238Y-76041380D01*
X71755952Y-76041380D02*
X71755952Y-75041380D01*
X71660714Y-75184238D01*
X71565476Y-75279476D01*
X71470238Y-75327095D01*
%TO.C,J2*%
X68667380Y-96853333D02*
X69381666Y-96853333D01*
X69524523Y-96900952D01*
X69619761Y-96996190D01*
X69667380Y-97139047D01*
X69667380Y-97234285D01*
X68762619Y-96424761D02*
X68715000Y-96377142D01*
X68667380Y-96281904D01*
X68667380Y-96043809D01*
X68715000Y-95948571D01*
X68762619Y-95900952D01*
X68857857Y-95853333D01*
X68953095Y-95853333D01*
X69095952Y-95900952D01*
X69667380Y-96472380D01*
X69667380Y-95853333D01*
%TO.C,J3*%
X68667380Y-119713333D02*
X69381666Y-119713333D01*
X69524523Y-119760952D01*
X69619761Y-119856190D01*
X69667380Y-119999047D01*
X69667380Y-120094285D01*
X68667380Y-119332380D02*
X68667380Y-118713333D01*
X69048333Y-119046666D01*
X69048333Y-118903809D01*
X69095952Y-118808571D01*
X69143571Y-118760952D01*
X69238809Y-118713333D01*
X69476904Y-118713333D01*
X69572142Y-118760952D01*
X69619761Y-118808571D01*
X69667380Y-118903809D01*
X69667380Y-119189523D01*
X69619761Y-119284761D01*
X69572142Y-119332380D01*
%TO.C,J8*%
X90126666Y-79250380D02*
X90126666Y-79964666D01*
X90079047Y-80107523D01*
X89983809Y-80202761D01*
X89840952Y-80250380D01*
X89745714Y-80250380D01*
X90745714Y-79678952D02*
X90650476Y-79631333D01*
X90602857Y-79583714D01*
X90555238Y-79488476D01*
X90555238Y-79440857D01*
X90602857Y-79345619D01*
X90650476Y-79298000D01*
X90745714Y-79250380D01*
X90936190Y-79250380D01*
X91031428Y-79298000D01*
X91079047Y-79345619D01*
X91126666Y-79440857D01*
X91126666Y-79488476D01*
X91079047Y-79583714D01*
X91031428Y-79631333D01*
X90936190Y-79678952D01*
X90745714Y-79678952D01*
X90650476Y-79726571D01*
X90602857Y-79774190D01*
X90555238Y-79869428D01*
X90555238Y-80059904D01*
X90602857Y-80155142D01*
X90650476Y-80202761D01*
X90745714Y-80250380D01*
X90936190Y-80250380D01*
X91031428Y-80202761D01*
X91079047Y-80155142D01*
X91126666Y-80059904D01*
X91126666Y-79869428D01*
X91079047Y-79774190D01*
X91031428Y-79726571D01*
X90936190Y-79678952D01*
%TO.C,J6*%
X82866666Y-76152380D02*
X82866666Y-76866666D01*
X82819047Y-77009523D01*
X82723809Y-77104761D01*
X82580952Y-77152380D01*
X82485714Y-77152380D01*
X83771428Y-76152380D02*
X83580952Y-76152380D01*
X83485714Y-76200000D01*
X83438095Y-76247619D01*
X83342857Y-76390476D01*
X83295238Y-76580952D01*
X83295238Y-76961904D01*
X83342857Y-77057142D01*
X83390476Y-77104761D01*
X83485714Y-77152380D01*
X83676190Y-77152380D01*
X83771428Y-77104761D01*
X83819047Y-77057142D01*
X83866666Y-76961904D01*
X83866666Y-76723809D01*
X83819047Y-76628571D01*
X83771428Y-76580952D01*
X83676190Y-76533333D01*
X83485714Y-76533333D01*
X83390476Y-76580952D01*
X83342857Y-76628571D01*
X83295238Y-76723809D01*
%TO.C,J5*%
X85566666Y-115302380D02*
X85566666Y-116016666D01*
X85519047Y-116159523D01*
X85423809Y-116254761D01*
X85280952Y-116302380D01*
X85185714Y-116302380D01*
X86519047Y-115302380D02*
X86042857Y-115302380D01*
X85995238Y-115778571D01*
X86042857Y-115730952D01*
X86138095Y-115683333D01*
X86376190Y-115683333D01*
X86471428Y-115730952D01*
X86519047Y-115778571D01*
X86566666Y-115873809D01*
X86566666Y-116111904D01*
X86519047Y-116207142D01*
X86471428Y-116254761D01*
X86376190Y-116302380D01*
X86138095Y-116302380D01*
X86042857Y-116254761D01*
X85995238Y-116207142D01*
%TO.C,J9*%
X93936666Y-109352380D02*
X93936666Y-110066666D01*
X93889047Y-110209523D01*
X93793809Y-110304761D01*
X93650952Y-110352380D01*
X93555714Y-110352380D01*
X94460476Y-110352380D02*
X94650952Y-110352380D01*
X94746190Y-110304761D01*
X94793809Y-110257142D01*
X94889047Y-110114285D01*
X94936666Y-109923809D01*
X94936666Y-109542857D01*
X94889047Y-109447619D01*
X94841428Y-109400000D01*
X94746190Y-109352380D01*
X94555714Y-109352380D01*
X94460476Y-109400000D01*
X94412857Y-109447619D01*
X94365238Y-109542857D01*
X94365238Y-109780952D01*
X94412857Y-109876190D01*
X94460476Y-109923809D01*
X94555714Y-109971428D01*
X94746190Y-109971428D01*
X94841428Y-109923809D01*
X94889047Y-109876190D01*
X94936666Y-109780952D01*
%TO.C,J11*%
X115910476Y-75402380D02*
X115910476Y-76116666D01*
X115862857Y-76259523D01*
X115767619Y-76354761D01*
X115624761Y-76402380D01*
X115529523Y-76402380D01*
X116910476Y-76402380D02*
X116339047Y-76402380D01*
X116624761Y-76402380D02*
X116624761Y-75402380D01*
X116529523Y-75545238D01*
X116434285Y-75640476D01*
X116339047Y-75688095D01*
X117862857Y-76402380D02*
X117291428Y-76402380D01*
X117577142Y-76402380D02*
X117577142Y-75402380D01*
X117481904Y-75545238D01*
X117386666Y-75640476D01*
X117291428Y-75688095D01*
D13*
X115431857Y-68956190D02*
X115146142Y-68956190D01*
X115289000Y-68956190D02*
X115289000Y-68456190D01*
X115241380Y-68527619D01*
X115193761Y-68575238D01*
X115146142Y-68599047D01*
D10*
%TO.C,J10*%
X114270756Y-108452380D02*
X114270756Y-109166666D01*
X114223137Y-109309523D01*
X114127899Y-109404761D01*
X113985041Y-109452380D01*
X113889803Y-109452380D01*
X115270756Y-109452380D02*
X114699327Y-109452380D01*
X114985041Y-109452380D02*
X114985041Y-108452380D01*
X114889803Y-108595238D01*
X114794565Y-108690476D01*
X114699327Y-108738095D01*
X115889803Y-108452380D02*
X115985041Y-108452380D01*
X116080280Y-108500000D01*
X116127899Y-108547619D01*
X116175518Y-108642857D01*
X116223137Y-108833333D01*
X116223137Y-109071428D01*
X116175518Y-109261904D01*
X116127899Y-109357142D01*
X116080280Y-109404761D01*
X115985041Y-109452380D01*
X115889803Y-109452380D01*
X115794565Y-109404761D01*
X115746946Y-109357142D01*
X115699327Y-109261904D01*
X115651708Y-109071428D01*
X115651708Y-108833333D01*
X115699327Y-108642857D01*
X115746946Y-108547619D01*
X115794565Y-108500000D01*
X115889803Y-108452380D01*
D14*
%TO.C,U1*%
X85432380Y-97804523D02*
X85432380Y-98832619D01*
X85492857Y-98953571D01*
X85553333Y-99014047D01*
X85674285Y-99074523D01*
X85916190Y-99074523D01*
X86037142Y-99014047D01*
X86097619Y-98953571D01*
X86158095Y-98832619D01*
X86158095Y-97804523D01*
X87428095Y-99074523D02*
X86702380Y-99074523D01*
X87065238Y-99074523D02*
X87065238Y-97804523D01*
X86944285Y-97985952D01*
X86823333Y-98106904D01*
X86702380Y-98167380D01*
D10*
%TO.C,L1*%
X87033333Y-124052380D02*
X86557142Y-124052380D01*
X86557142Y-123052380D01*
X87890476Y-124052380D02*
X87319047Y-124052380D01*
X87604761Y-124052380D02*
X87604761Y-123052380D01*
X87509523Y-123195238D01*
X87414285Y-123290476D01*
X87319047Y-123338095D01*
D15*
%TO.C,C31*%
X108788252Y-73917640D02*
X107365748Y-73917640D01*
X108788252Y-71197640D02*
X107365748Y-71197640D01*
%TO.C,D1*%
X111634000Y-74266000D02*
X114934000Y-74266000D01*
X114934000Y-74266000D02*
X114934000Y-68866000D01*
X111634000Y-74266000D02*
X111634000Y-68866000D01*
%TO.C,R1*%
X79866258Y-76312500D02*
X79391742Y-76312500D01*
X79866258Y-77357500D02*
X79391742Y-77357500D01*
%TO.C,R2*%
X76056258Y-76312500D02*
X75581742Y-76312500D01*
X76056258Y-77357500D02*
X75581742Y-77357500D01*
%TO.C,R3*%
X71104020Y-88020122D02*
X71104020Y-88494638D01*
X70059020Y-88020122D02*
X70059020Y-88494638D01*
%TO.C,R4*%
X71109100Y-91837742D02*
X71109100Y-92312258D01*
X70064100Y-91837742D02*
X70064100Y-92312258D01*
%TO.C,R5*%
X71109100Y-110900442D02*
X71109100Y-111374958D01*
X70064100Y-110900442D02*
X70064100Y-111374958D01*
%TO.C,R6*%
X70076800Y-114659642D02*
X70076800Y-115134158D01*
X71121800Y-114659642D02*
X71121800Y-115134158D01*
%TO.C,R7*%
X75530942Y-126887500D02*
X76005458Y-126887500D01*
X75530942Y-125842500D02*
X76005458Y-125842500D01*
%TO.C,R8*%
X79353642Y-125842500D02*
X79828158Y-125842500D01*
X79353642Y-126887500D02*
X79828158Y-126887500D01*
%TO.C,R9*%
X95139742Y-125744500D02*
X95614258Y-125744500D01*
X95139742Y-124699500D02*
X95614258Y-124699500D01*
%TO.C,R14*%
X95614258Y-126604500D02*
X95139742Y-126604500D01*
X95614258Y-127649500D02*
X95139742Y-127649500D01*
%TO.C,R10*%
X92566258Y-125744500D02*
X92091742Y-125744500D01*
X92566258Y-124699500D02*
X92091742Y-124699500D01*
%TO.C,R15*%
X92103742Y-126604500D02*
X92578258Y-126604500D01*
X92103742Y-127649500D02*
X92578258Y-127649500D01*
%TO.C,C34*%
X109345000Y-69316420D02*
X109345000Y-69597580D01*
X110365000Y-69316420D02*
X110365000Y-69597580D01*
%TO.C,C1*%
X81028000Y-79515580D02*
X81028000Y-79234420D01*
X80008000Y-79515580D02*
X80008000Y-79234420D01*
%TO.C,C2*%
X78230000Y-79515580D02*
X78230000Y-79234420D01*
X79250000Y-79515580D02*
X79250000Y-79234420D01*
%TO.C,C9*%
X76198000Y-79515580D02*
X76198000Y-79234420D01*
X77218000Y-79515580D02*
X77218000Y-79234420D01*
%TO.C,C10*%
X75440000Y-79515580D02*
X75440000Y-79234420D01*
X74420000Y-79515580D02*
X74420000Y-79234420D01*
%TO.C,C3*%
X73262100Y-86858380D02*
X72980940Y-86858380D01*
X73262100Y-87878380D02*
X72980940Y-87878380D01*
%TO.C,C4*%
X73262100Y-88636380D02*
X72980940Y-88636380D01*
X73262100Y-89656380D02*
X72980940Y-89656380D01*
%TO.C,C11*%
X73267180Y-91696000D02*
X72986020Y-91696000D01*
X73267180Y-90676000D02*
X72986020Y-90676000D01*
%TO.C,C12*%
X73267180Y-92454000D02*
X72986020Y-92454000D01*
X73267180Y-93474000D02*
X72986020Y-93474000D01*
%TO.C,C5*%
X73267180Y-110758700D02*
X72986020Y-110758700D01*
X73267180Y-109738700D02*
X72986020Y-109738700D01*
%TO.C,C6*%
X73267180Y-111516700D02*
X72986020Y-111516700D01*
X73267180Y-112536700D02*
X72986020Y-112536700D01*
%TO.C,C13*%
X73279880Y-114517900D02*
X72998720Y-114517900D01*
X73279880Y-113497900D02*
X72998720Y-113497900D01*
%TO.C,C14*%
X73279880Y-115275900D02*
X72998720Y-115275900D01*
X73279880Y-116295900D02*
X72998720Y-116295900D01*
%TO.C,C7*%
X75389200Y-123684420D02*
X75389200Y-123965580D01*
X74369200Y-123684420D02*
X74369200Y-123965580D01*
%TO.C,C8*%
X76147200Y-123684420D02*
X76147200Y-123965580D01*
X77167200Y-123684420D02*
X77167200Y-123965580D01*
%TO.C,C15*%
X78191900Y-123684420D02*
X78191900Y-123965580D01*
X79211900Y-123684420D02*
X79211900Y-123965580D01*
%TO.C,C16*%
X79969900Y-123684420D02*
X79969900Y-123965580D01*
X80989900Y-123684420D02*
X80989900Y-123965580D01*
%TO.C,C19*%
X84210000Y-78340580D02*
X84210000Y-78059420D01*
X83190000Y-78340580D02*
X83190000Y-78059420D01*
%TO.C,C20*%
X93410500Y-122822580D02*
X93410500Y-122541420D01*
X92390500Y-122822580D02*
X92390500Y-122541420D01*
%TO.C,C21*%
X94295500Y-122822580D02*
X94295500Y-122541420D01*
X95315500Y-122822580D02*
X95315500Y-122541420D01*
%TO.C,C17*%
X88729280Y-113087540D02*
X88729280Y-113368700D01*
X87709280Y-113087540D02*
X87709280Y-113368700D01*
%TO.C,J7*%
X104125000Y-128588000D02*
X104125000Y-133588000D01*
X104125000Y-133588000D02*
X87525000Y-133588000D01*
X87525000Y-133588000D02*
X87525000Y-128588000D01*
X87525000Y-128588000D02*
X104125000Y-128588000D01*
%TO.C,J4*%
X85975000Y-128588000D02*
X85975000Y-133588000D01*
X69375000Y-133588000D02*
X69375000Y-128588000D01*
X69375000Y-128588000D02*
X85975000Y-128588000D01*
X85975000Y-133588000D02*
X69375000Y-133588000D01*
%TO.C,J1*%
X69425000Y-69636000D02*
X86025000Y-69636000D01*
X86025000Y-74636000D02*
X69425000Y-74636000D01*
X86025000Y-69636000D02*
X86025000Y-74636000D01*
X69425000Y-74636000D02*
X69425000Y-69636000D01*
%TO.C,J2*%
X68262000Y-81870000D02*
X68262000Y-98470000D01*
X68262000Y-98470000D02*
X63262000Y-98470000D01*
X63262000Y-81870000D02*
X68262000Y-81870000D01*
X63262000Y-98470000D02*
X63262000Y-81870000D01*
%TO.C,J3*%
X63262000Y-121330000D02*
X63262000Y-104730000D01*
X68262000Y-121330000D02*
X63262000Y-121330000D01*
X68262000Y-104730000D02*
X68262000Y-121330000D01*
X63262000Y-104730000D02*
X68262000Y-104730000D01*
D10*
%TO.C,J8*%
X94140000Y-90880000D02*
X89060000Y-90880000D01*
X89060000Y-90880000D02*
X89060000Y-80720000D01*
X89060000Y-80720000D02*
X94140000Y-80720000D01*
X94140000Y-80720000D02*
X94140000Y-90880000D01*
%TO.C,J6*%
X84230000Y-76290000D02*
X86770000Y-76290000D01*
X84230000Y-81370000D02*
X84230000Y-76290000D01*
X86770000Y-81370000D02*
X84230000Y-81370000D01*
X86770000Y-76290000D02*
X86770000Y-81370000D01*
%TO.C,J5*%
X89410000Y-115190000D02*
X89410000Y-120270000D01*
X86870000Y-115190000D02*
X89410000Y-115190000D01*
X86870000Y-120270000D02*
X86870000Y-115190000D01*
X89410000Y-120270000D02*
X86870000Y-120270000D01*
%TO.C,J9*%
X92730000Y-110930000D02*
X95270000Y-110930000D01*
X95270000Y-116010000D02*
X92730000Y-116010000D01*
X95270000Y-110930000D02*
X95270000Y-116010000D01*
X92730000Y-116010000D02*
X92730000Y-110930000D01*
%TO.C,J11*%
X120750000Y-75080000D02*
X115670000Y-75080000D01*
X120750000Y-67460000D02*
X120750000Y-75080000D01*
X115670000Y-75080000D02*
X115670000Y-67460000D01*
X115670000Y-67460000D02*
X120750000Y-67460000D01*
D15*
%TO.C,J10*%
X128580280Y-108100000D02*
X128580280Y-107660000D01*
X128580280Y-95100000D02*
X109580280Y-95100000D01*
X109580280Y-98800000D02*
X109580280Y-98380000D01*
X128580280Y-96779000D02*
X128580280Y-95100000D01*
X111150280Y-108100000D02*
X128580280Y-108100000D01*
X128580280Y-98809000D02*
X128580280Y-98381000D01*
X109580280Y-102800000D02*
X109580280Y-100410000D01*
X109580280Y-96770000D02*
X109580280Y-95100000D01*
X128580280Y-102800000D02*
X128580280Y-100411000D01*
X125580280Y-94710000D02*
X126080280Y-94260000D01*
X125080280Y-94260000D02*
X125580280Y-94710000D01*
X109580280Y-107040000D02*
X109580280Y-104410000D01*
X126080280Y-94260000D02*
X125080280Y-94260000D01*
X128580280Y-106040000D02*
X128580280Y-104410000D01*
D16*
%TO.C,U1*%
X87919800Y-97100000D02*
G75*
G03*
X87919800Y-97100000I-125000J0D01*
G01*
D15*
%TO.C,L1*%
X88331448Y-124512000D02*
X88853952Y-124512000D01*
X88331448Y-125932000D02*
X88853952Y-125932000D01*
%TD*%
D17*
%TO.C,J8*%
X90330000Y-81990000D03*
X92870000Y-81990000D03*
X90330000Y-84530000D03*
X92870000Y-84530000D03*
X90330000Y-87070000D03*
X92870000Y-87070000D03*
X90330000Y-89610000D03*
X92870000Y-89610000D03*
%TD*%
%TO.C,J6*%
X85500000Y-80100000D03*
X85500000Y-77560000D03*
%TD*%
%TO.C,J5*%
X88140000Y-116460000D03*
X88140000Y-119000000D03*
%TD*%
%TO.C,J9*%
X94000000Y-112200000D03*
X94000000Y-114740000D03*
%TD*%
M02*
