%TF.GenerationSoftware,KiCad,Pcbnew,6.0.4-6f826c9f35~116~ubuntu20.04.1*%
%TF.CreationDate,2022-05-21T20:48:28+00:00*%
%TF.ProjectId,ADCoctoSPI01B,4144436f-6374-46f5-9350-493031422e6b,rev?*%
%TF.SameCoordinates,Original*%
%TF.FileFunction,Soldermask,Bot*%
%TF.FilePolarity,Negative*%
%FSLAX46Y46*%
G04 Gerber Fmt 4.6, Leading zero omitted, Abs format (unit mm)*
G04 Created by KiCad (PCBNEW 6.0.4-6f826c9f35~116~ubuntu20.04.1) date 2022-05-21 20:48:28*
%MOMM*%
%LPD*%
G01*
G04 APERTURE LIST*
G04 Aperture macros list*
%AMRoundRect*
0 Rectangle with rounded corners*
0 $1 Rounding radius*
0 $2 $3 $4 $5 $6 $7 $8 $9 X,Y pos of 4 corners*
0 Add a 4 corners polygon primitive as box body*
4,1,4,$2,$3,$4,$5,$6,$7,$8,$9,$2,$3,0*
0 Add four circle primitives for the rounded corners*
1,1,$1+$1,$2,$3*
1,1,$1+$1,$4,$5*
1,1,$1+$1,$6,$7*
1,1,$1+$1,$8,$9*
0 Add four rect primitives between the rounded corners*
20,1,$1+$1,$2,$3,$4,$5,0*
20,1,$1+$1,$4,$5,$6,$7,0*
20,1,$1+$1,$6,$7,$8,$9,0*
20,1,$1+$1,$8,$9,$2,$3,0*%
G04 Aperture macros list end*
%ADD10C,6.400000*%
%ADD11O,1.500000X1.700000*%
%ADD12C,2.900000*%
%ADD13O,1.700000X1.500000*%
%ADD14RoundRect,0.200000X-0.762000X-0.762000X0.762000X-0.762000X0.762000X0.762000X-0.762000X0.762000X0*%
%ADD15RoundRect,0.200000X0.762000X0.762000X-0.762000X0.762000X-0.762000X-0.762000X0.762000X-0.762000X0*%
%ADD16C,1.950000*%
%ADD17C,0.800000*%
%ADD18RoundRect,0.200000X-1.000000X-0.750000X1.000000X-0.750000X1.000000X0.750000X-1.000000X0.750000X0*%
%ADD19RoundRect,0.200000X-1.000000X-1.900000X1.000000X-1.900000X1.000000X1.900000X-1.000000X1.900000X0*%
%ADD20RoundRect,0.400000X0.275000X-0.200000X0.275000X0.200000X-0.275000X0.200000X-0.275000X-0.200000X0*%
%ADD21RoundRect,0.400000X-0.275000X0.200000X-0.275000X-0.200000X0.275000X-0.200000X0.275000X0.200000X0*%
%ADD22RoundRect,0.425000X-0.250000X0.225000X-0.250000X-0.225000X0.250000X-0.225000X0.250000X0.225000X0*%
%ADD23RoundRect,0.425000X0.250000X-0.225000X0.250000X0.225000X-0.250000X0.225000X-0.250000X-0.225000X0*%
%ADD24RoundRect,0.425000X-0.225000X-0.250000X0.225000X-0.250000X0.225000X0.250000X-0.225000X0.250000X0*%
%ADD25RoundRect,0.425000X0.225000X0.250000X-0.225000X0.250000X-0.225000X-0.250000X0.225000X-0.250000X0*%
%ADD26RoundRect,0.450000X-0.450000X0.325000X-0.450000X-0.325000X0.450000X-0.325000X0.450000X0.325000X0*%
%ADD27RoundRect,0.450000X-0.475000X0.250000X-0.475000X-0.250000X0.475000X-0.250000X0.475000X0.250000X0*%
G04 APERTURE END LIST*
D10*
%TO.C,M1*%
X64770000Y-71120000D03*
%TD*%
%TO.C,M2*%
X125730000Y-71120000D03*
%TD*%
%TO.C,M3*%
X125730000Y-132080000D03*
%TD*%
%TO.C,M4*%
X64770000Y-132080000D03*
%TD*%
D11*
%TO.C,J7*%
X99635000Y-132588000D03*
X98365000Y-131088000D03*
X97095000Y-131088000D03*
X95825000Y-132588000D03*
X94555000Y-131088000D03*
X93285000Y-131088000D03*
X92015000Y-132588000D03*
D12*
X89265000Y-130088000D03*
X102095000Y-131088000D03*
%TD*%
D11*
%TO.C,J4*%
X81485000Y-132588000D03*
X80215000Y-131088000D03*
X78945000Y-131088000D03*
X77675000Y-132588000D03*
X76405000Y-131088000D03*
X75135000Y-131088000D03*
X73865000Y-132588000D03*
D12*
X71115000Y-130088000D03*
X83945000Y-131088000D03*
%TD*%
D11*
%TO.C,J1*%
X73915000Y-70636000D03*
X75185000Y-72136000D03*
X76455000Y-72136000D03*
X77725000Y-70636000D03*
X78995000Y-72136000D03*
X80265000Y-72136000D03*
X81535000Y-70636000D03*
D12*
X84285000Y-73136000D03*
X71455000Y-72136000D03*
%TD*%
D13*
%TO.C,J2*%
X64262000Y-93980000D03*
X65762000Y-92710000D03*
X65762000Y-91440000D03*
X64262000Y-90170000D03*
X65762000Y-88900000D03*
X65762000Y-87630000D03*
X64262000Y-86360000D03*
D12*
X66762000Y-83610000D03*
X65762000Y-96440000D03*
%TD*%
D13*
%TO.C,J3*%
X64262000Y-116840000D03*
X65762000Y-115570000D03*
X65762000Y-114300000D03*
X64262000Y-113030000D03*
X65762000Y-111760000D03*
X65762000Y-110490000D03*
X64262000Y-109220000D03*
D12*
X66762000Y-106470000D03*
X65762000Y-119300000D03*
%TD*%
D14*
%TO.C,J8*%
X90170000Y-82042000D03*
X92710000Y-82042000D03*
X90170000Y-84582000D03*
X92710000Y-84582000D03*
X90170000Y-87122000D03*
X92710000Y-87122000D03*
X90170000Y-89662000D03*
X92710000Y-89662000D03*
%TD*%
D15*
%TO.C,J6*%
X85675000Y-81610000D03*
X85675000Y-79070000D03*
%TD*%
D14*
%TO.C,J5*%
X88140000Y-116460000D03*
X88140000Y-119000000D03*
%TD*%
%TO.C,J9*%
X93730000Y-110550000D03*
X93730000Y-113090000D03*
%TD*%
%TO.C,J11*%
X116940000Y-68730000D03*
X119480000Y-68730000D03*
X116940000Y-71270000D03*
X119480000Y-71270000D03*
X116940000Y-73810000D03*
X119480000Y-73810000D03*
%TD*%
D16*
%TO.C,J10*%
X127080280Y-101600000D03*
X111080280Y-101600000D03*
X127980280Y-106840000D03*
X127980280Y-103600000D03*
X127980280Y-99610000D03*
X127980280Y-97580000D03*
X110180280Y-107840000D03*
X110180280Y-103600000D03*
X110180280Y-99610000D03*
X110180280Y-97580000D03*
%TD*%
D17*
%TO.C,U1*%
X93844800Y-101600000D03*
X96144800Y-102750000D03*
X92694800Y-98150000D03*
X96144800Y-101600000D03*
X92694800Y-105050000D03*
X93844800Y-98150000D03*
X94994800Y-99300000D03*
X92694800Y-102750000D03*
X96144800Y-103900000D03*
X91544800Y-103900000D03*
X94994800Y-100450000D03*
X90394800Y-105050000D03*
X94994800Y-102750000D03*
X90394800Y-100450000D03*
X93844800Y-103900000D03*
X90394800Y-102750000D03*
X93844800Y-105050000D03*
X91544800Y-102750000D03*
X92694800Y-99300000D03*
X96144800Y-100450000D03*
X91544800Y-101600000D03*
X89244800Y-100450000D03*
X89244800Y-99300000D03*
X91544800Y-99300000D03*
X91544800Y-105050000D03*
X93844800Y-99300000D03*
X93844800Y-100450000D03*
X92694800Y-101600000D03*
X94994800Y-98150000D03*
X89244800Y-101600000D03*
X89244800Y-102750000D03*
X94994800Y-105050000D03*
X92694800Y-103900000D03*
X92694800Y-100450000D03*
X90394800Y-99300000D03*
X96144800Y-99300000D03*
X93844800Y-102750000D03*
X94994800Y-101600000D03*
X90394800Y-103900000D03*
X94994800Y-103900000D03*
X91544800Y-98150000D03*
X91544800Y-100450000D03*
X89244800Y-103900000D03*
X90394800Y-98150000D03*
X90394800Y-101600000D03*
%TD*%
D18*
%TO.C,U2*%
X94450000Y-75562520D03*
X94450000Y-73262520D03*
D19*
X100750000Y-73262520D03*
D18*
X94450000Y-70962520D03*
%TD*%
%TO.C,U3*%
X107088540Y-75741560D03*
D19*
X113388540Y-73441560D03*
D18*
X107088540Y-73441560D03*
X107088540Y-71141560D03*
%TD*%
D20*
%TO.C,R19*%
X109728000Y-111061000D03*
X109728000Y-109411000D03*
%TD*%
D21*
%TO.C,R11*%
X90180160Y-78438240D03*
X90180160Y-80088240D03*
%TD*%
%TO.C,R12*%
X88400000Y-84850000D03*
X88400000Y-86500000D03*
%TD*%
%TO.C,R13*%
X88400000Y-87850000D03*
X88400000Y-89500000D03*
%TD*%
D20*
%TO.C,R16*%
X91400000Y-95795600D03*
X91400000Y-94145600D03*
%TD*%
%TO.C,R17*%
X93100000Y-95795600D03*
X93100000Y-94145600D03*
%TD*%
%TO.C,R18*%
X95000000Y-95793760D03*
X95000000Y-94143760D03*
%TD*%
D22*
%TO.C,C26*%
X89800000Y-95650000D03*
X89800000Y-97200000D03*
%TD*%
D23*
%TO.C,C29*%
X91000000Y-107675000D03*
X91000000Y-106125000D03*
%TD*%
%TO.C,C32*%
X92500000Y-107675000D03*
X92500000Y-106125000D03*
%TD*%
%TO.C,C23*%
X111252000Y-111023000D03*
X111252000Y-109473000D03*
%TD*%
%TO.C,C18*%
X90627200Y-124125000D03*
X90627200Y-122575000D03*
%TD*%
D24*
%TO.C,C24*%
X90563400Y-70967600D03*
X92113400Y-70967600D03*
%TD*%
%TO.C,C25*%
X105491680Y-69000000D03*
X107041680Y-69000000D03*
%TD*%
D23*
%TO.C,C35*%
X92200000Y-74790600D03*
X92200000Y-73240600D03*
%TD*%
D22*
%TO.C,C36*%
X104038400Y-69842780D03*
X104038400Y-71392780D03*
%TD*%
%TO.C,C27*%
X98500000Y-108825000D03*
X98500000Y-110375000D03*
%TD*%
D23*
%TO.C,C30*%
X95500000Y-92150000D03*
X95500000Y-90600000D03*
%TD*%
D22*
%TO.C,C33*%
X96400000Y-108825000D03*
X96400000Y-110375000D03*
%TD*%
D25*
%TO.C,C28*%
X88200000Y-100200000D03*
X86650000Y-100200000D03*
%TD*%
D24*
%TO.C,C22*%
X90450000Y-110200000D03*
X92000000Y-110200000D03*
%TD*%
D26*
%TO.C,L3*%
X87416640Y-102119320D03*
X87416640Y-104169320D03*
%TD*%
%TO.C,L2*%
X89600000Y-92050000D03*
X89600000Y-94100000D03*
%TD*%
D27*
%TO.C,C38*%
X90300000Y-73332300D03*
X90300000Y-75232300D03*
%TD*%
%TO.C,C37*%
X104038400Y-73484700D03*
X104038400Y-75384700D03*
%TD*%
M02*
