%TF.GenerationSoftware,KiCad,Pcbnew,6.0.4-6f826c9f35~116~ubuntu20.04.1*%
%TF.CreationDate,2022-04-06T09:46:06+00:00*%
%TF.ProjectId,ADCoctoSPI01B,4144436f-6374-46f5-9350-493031422e6b,rev?*%
%TF.SameCoordinates,Original*%
%TF.FileFunction,Legend,Top*%
%TF.FilePolarity,Positive*%
%FSLAX46Y46*%
G04 Gerber Fmt 4.6, Leading zero omitted, Abs format (unit mm)*
G04 Created by KiCad (PCBNEW 6.0.4-6f826c9f35~116~ubuntu20.04.1) date 2022-04-06 09:46:06*
%MOMM*%
%LPD*%
G01*
G04 APERTURE LIST*
%ADD10C,0.150000*%
%ADD11C,0.200000*%
%ADD12C,0.300000*%
%ADD13C,0.050000*%
%ADD14C,0.120000*%
%ADD15R,1.524000X1.524000*%
G04 APERTURE END LIST*
D10*
X86550000Y-121178571D02*
X86692857Y-121226190D01*
X86740476Y-121273809D01*
X86788095Y-121369047D01*
X86788095Y-121511904D01*
X86740476Y-121607142D01*
X86692857Y-121654761D01*
X86597619Y-121702380D01*
X86216666Y-121702380D01*
X86216666Y-120702380D01*
X86550000Y-120702380D01*
X86645238Y-120750000D01*
X86692857Y-120797619D01*
X86740476Y-120892857D01*
X86740476Y-120988095D01*
X86692857Y-121083333D01*
X86645238Y-121130952D01*
X86550000Y-121178571D01*
X86216666Y-121178571D01*
X87216666Y-121702380D02*
X87216666Y-121035714D01*
X87216666Y-120702380D02*
X87169047Y-120750000D01*
X87216666Y-120797619D01*
X87264285Y-120750000D01*
X87216666Y-120702380D01*
X87216666Y-120797619D01*
X88121428Y-121702380D02*
X88121428Y-121178571D01*
X88073809Y-121083333D01*
X87978571Y-121035714D01*
X87788095Y-121035714D01*
X87692857Y-121083333D01*
X88121428Y-121654761D02*
X88026190Y-121702380D01*
X87788095Y-121702380D01*
X87692857Y-121654761D01*
X87645238Y-121559523D01*
X87645238Y-121464285D01*
X87692857Y-121369047D01*
X87788095Y-121321428D01*
X88026190Y-121321428D01*
X88121428Y-121273809D01*
X88550000Y-121654761D02*
X88645238Y-121702380D01*
X88835714Y-121702380D01*
X88930952Y-121654761D01*
X88978571Y-121559523D01*
X88978571Y-121511904D01*
X88930952Y-121416666D01*
X88835714Y-121369047D01*
X88692857Y-121369047D01*
X88597619Y-121321428D01*
X88550000Y-121226190D01*
X88550000Y-121178571D01*
X88597619Y-121083333D01*
X88692857Y-121035714D01*
X88835714Y-121035714D01*
X88930952Y-121083333D01*
X89930952Y-121702380D02*
X89359523Y-121702380D01*
X89645238Y-121702380D02*
X89645238Y-120702380D01*
X89550000Y-120845238D01*
X89454761Y-120940476D01*
X89359523Y-120988095D01*
D11*
X79975200Y-69184780D02*
X79975200Y-68184780D01*
X80451390Y-69184780D02*
X80451390Y-68184780D01*
X81022819Y-69184780D01*
X81022819Y-68184780D01*
X82022819Y-69184780D02*
X81451390Y-69184780D01*
X81737104Y-69184780D02*
X81737104Y-68184780D01*
X81641866Y-68327638D01*
X81546628Y-68422876D01*
X81451390Y-68470495D01*
X73523600Y-135021580D02*
X73523600Y-134021580D01*
X73999790Y-135021580D02*
X73999790Y-134021580D01*
X74571219Y-135021580D01*
X74571219Y-134021580D01*
X74952171Y-134021580D02*
X75618838Y-134021580D01*
X75190266Y-135021580D01*
X73472800Y-69133980D02*
X73472800Y-68133980D01*
X73948990Y-69133980D02*
X73948990Y-68133980D01*
X74520419Y-69133980D01*
X74520419Y-68133980D01*
X74948990Y-68229219D02*
X74996609Y-68181600D01*
X75091847Y-68133980D01*
X75329942Y-68133980D01*
X75425180Y-68181600D01*
X75472800Y-68229219D01*
X75520419Y-68324457D01*
X75520419Y-68419695D01*
X75472800Y-68562552D01*
X74901371Y-69133980D01*
X75520419Y-69133980D01*
X121940628Y-72437523D02*
X121940628Y-71675619D01*
X122321580Y-72056571D02*
X121559676Y-72056571D01*
X121321580Y-71342285D02*
X122321580Y-71008952D01*
X121321580Y-70675619D01*
X85126723Y-90320761D02*
X85269580Y-90368380D01*
X85507676Y-90368380D01*
X85602914Y-90320761D01*
X85650533Y-90273142D01*
X85698152Y-90177904D01*
X85698152Y-90082666D01*
X85650533Y-89987428D01*
X85602914Y-89939809D01*
X85507676Y-89892190D01*
X85317200Y-89844571D01*
X85221961Y-89796952D01*
X85174342Y-89749333D01*
X85126723Y-89654095D01*
X85126723Y-89558857D01*
X85174342Y-89463619D01*
X85221961Y-89416000D01*
X85317200Y-89368380D01*
X85555295Y-89368380D01*
X85698152Y-89416000D01*
X86698152Y-90273142D02*
X86650533Y-90320761D01*
X86507676Y-90368380D01*
X86412438Y-90368380D01*
X86269580Y-90320761D01*
X86174342Y-90225523D01*
X86126723Y-90130285D01*
X86079104Y-89939809D01*
X86079104Y-89796952D01*
X86126723Y-89606476D01*
X86174342Y-89511238D01*
X86269580Y-89416000D01*
X86412438Y-89368380D01*
X86507676Y-89368380D01*
X86650533Y-89416000D01*
X86698152Y-89463619D01*
X87602914Y-90368380D02*
X87126723Y-90368380D01*
X87126723Y-89368380D01*
X87936247Y-90368380D02*
X87936247Y-89368380D01*
X88507676Y-90368380D02*
X88079104Y-89796952D01*
X88507676Y-89368380D02*
X87936247Y-89939809D01*
D10*
X85480899Y-76540321D02*
X85623756Y-76587940D01*
X85671375Y-76635559D01*
X85718994Y-76730797D01*
X85718994Y-76873654D01*
X85671375Y-76968892D01*
X85623756Y-77016511D01*
X85528518Y-77064130D01*
X85147565Y-77064130D01*
X85147565Y-76064130D01*
X85480899Y-76064130D01*
X85576137Y-76111750D01*
X85623756Y-76159369D01*
X85671375Y-76254607D01*
X85671375Y-76349845D01*
X85623756Y-76445083D01*
X85576137Y-76492702D01*
X85480899Y-76540321D01*
X85147565Y-76540321D01*
X86147565Y-77064130D02*
X86147565Y-76397464D01*
X86147565Y-76064130D02*
X86099946Y-76111750D01*
X86147565Y-76159369D01*
X86195184Y-76111750D01*
X86147565Y-76064130D01*
X86147565Y-76159369D01*
X87052327Y-77064130D02*
X87052327Y-76540321D01*
X87004708Y-76445083D01*
X86909470Y-76397464D01*
X86718994Y-76397464D01*
X86623756Y-76445083D01*
X87052327Y-77016511D02*
X86957089Y-77064130D01*
X86718994Y-77064130D01*
X86623756Y-77016511D01*
X86576137Y-76921273D01*
X86576137Y-76826035D01*
X86623756Y-76730797D01*
X86718994Y-76683178D01*
X86957089Y-76683178D01*
X87052327Y-76635559D01*
X87480899Y-77016511D02*
X87576137Y-77064130D01*
X87766613Y-77064130D01*
X87861851Y-77016511D01*
X87909470Y-76921273D01*
X87909470Y-76873654D01*
X87861851Y-76778416D01*
X87766613Y-76730797D01*
X87623756Y-76730797D01*
X87528518Y-76683178D01*
X87480899Y-76587940D01*
X87480899Y-76540321D01*
X87528518Y-76445083D01*
X87623756Y-76397464D01*
X87766613Y-76397464D01*
X87861851Y-76445083D01*
X88290422Y-76159369D02*
X88338041Y-76111750D01*
X88433279Y-76064130D01*
X88671375Y-76064130D01*
X88766613Y-76111750D01*
X88814232Y-76159369D01*
X88861851Y-76254607D01*
X88861851Y-76349845D01*
X88814232Y-76492702D01*
X88242803Y-77064130D01*
X88861851Y-77064130D01*
D11*
X121674000Y-75133104D02*
X121626380Y-75228342D01*
X121626380Y-75371200D01*
X121674000Y-75514057D01*
X121769238Y-75609295D01*
X121864476Y-75656914D01*
X122054952Y-75704533D01*
X122197809Y-75704533D01*
X122388285Y-75656914D01*
X122483523Y-75609295D01*
X122578761Y-75514057D01*
X122626380Y-75371200D01*
X122626380Y-75275961D01*
X122578761Y-75133104D01*
X122531142Y-75085485D01*
X122197809Y-75085485D01*
X122197809Y-75275961D01*
X122626380Y-74656914D02*
X121626380Y-74656914D01*
X122626380Y-74085485D01*
X121626380Y-74085485D01*
X122626380Y-73609295D02*
X121626380Y-73609295D01*
X121626380Y-73371200D01*
X121674000Y-73228342D01*
X121769238Y-73133104D01*
X121864476Y-73085485D01*
X122054952Y-73037866D01*
X122197809Y-73037866D01*
X122388285Y-73085485D01*
X122483523Y-73133104D01*
X122578761Y-73228342D01*
X122626380Y-73371200D01*
X122626380Y-73609295D01*
X94496095Y-85443961D02*
X94638952Y-85491580D01*
X94877047Y-85491580D01*
X94972285Y-85443961D01*
X95019904Y-85396342D01*
X95067523Y-85301104D01*
X95067523Y-85205866D01*
X95019904Y-85110628D01*
X94972285Y-85063009D01*
X94877047Y-85015390D01*
X94686571Y-84967771D01*
X94591333Y-84920152D01*
X94543714Y-84872533D01*
X94496095Y-84777295D01*
X94496095Y-84682057D01*
X94543714Y-84586819D01*
X94591333Y-84539200D01*
X94686571Y-84491580D01*
X94924666Y-84491580D01*
X95067523Y-84539200D01*
X95496095Y-84967771D02*
X95829428Y-84967771D01*
X95972285Y-85491580D02*
X95496095Y-85491580D01*
X95496095Y-84491580D01*
X95972285Y-84491580D01*
X96400857Y-85491580D02*
X96400857Y-84491580D01*
X96972285Y-85491580D01*
X96972285Y-84491580D01*
X86625180Y-87828380D02*
X86291847Y-87352190D01*
X86053752Y-87828380D02*
X86053752Y-86828380D01*
X86434704Y-86828380D01*
X86529942Y-86876000D01*
X86577561Y-86923619D01*
X86625180Y-87018857D01*
X86625180Y-87161714D01*
X86577561Y-87256952D01*
X86529942Y-87304571D01*
X86434704Y-87352190D01*
X86053752Y-87352190D01*
X87006133Y-87780761D02*
X87148990Y-87828380D01*
X87387085Y-87828380D01*
X87482323Y-87780761D01*
X87529942Y-87733142D01*
X87577561Y-87637904D01*
X87577561Y-87542666D01*
X87529942Y-87447428D01*
X87482323Y-87399809D01*
X87387085Y-87352190D01*
X87196609Y-87304571D01*
X87101371Y-87256952D01*
X87053752Y-87209333D01*
X87006133Y-87114095D01*
X87006133Y-87018857D01*
X87053752Y-86923619D01*
X87101371Y-86876000D01*
X87196609Y-86828380D01*
X87434704Y-86828380D01*
X87577561Y-86876000D01*
X87863276Y-86828380D02*
X88434704Y-86828380D01*
X88148990Y-87828380D02*
X88148990Y-86828380D01*
X95046895Y-89619200D02*
X94951657Y-89571580D01*
X94808800Y-89571580D01*
X94665942Y-89619200D01*
X94570704Y-89714438D01*
X94523085Y-89809676D01*
X94475466Y-90000152D01*
X94475466Y-90143009D01*
X94523085Y-90333485D01*
X94570704Y-90428723D01*
X94665942Y-90523961D01*
X94808800Y-90571580D01*
X94904038Y-90571580D01*
X95046895Y-90523961D01*
X95094514Y-90476342D01*
X95094514Y-90143009D01*
X94904038Y-90143009D01*
X95523085Y-90571580D02*
X95523085Y-89571580D01*
X96094514Y-90571580D01*
X96094514Y-89571580D01*
X96570704Y-90571580D02*
X96570704Y-89571580D01*
X96808800Y-89571580D01*
X96951657Y-89619200D01*
X97046895Y-89714438D01*
X97094514Y-89809676D01*
X97142133Y-90000152D01*
X97142133Y-90143009D01*
X97094514Y-90333485D01*
X97046895Y-90428723D01*
X96951657Y-90523961D01*
X96808800Y-90571580D01*
X96570704Y-90571580D01*
X62936380Y-117230400D02*
X61936380Y-117230400D01*
X62936380Y-116754209D02*
X61936380Y-116754209D01*
X62936380Y-116182780D01*
X61936380Y-116182780D01*
X61936380Y-115278019D02*
X61936380Y-115468495D01*
X61984000Y-115563733D01*
X62031619Y-115611352D01*
X62174476Y-115706590D01*
X62364952Y-115754209D01*
X62745904Y-115754209D01*
X62841142Y-115706590D01*
X62888761Y-115658971D01*
X62936380Y-115563733D01*
X62936380Y-115373257D01*
X62888761Y-115278019D01*
X62841142Y-115230400D01*
X62745904Y-115182780D01*
X62507809Y-115182780D01*
X62412571Y-115230400D01*
X62364952Y-115278019D01*
X62317333Y-115373257D01*
X62317333Y-115563733D01*
X62364952Y-115658971D01*
X62412571Y-115706590D01*
X62507809Y-115754209D01*
X79772000Y-134970780D02*
X79772000Y-133970780D01*
X80248190Y-134970780D02*
X80248190Y-133970780D01*
X80819619Y-134970780D01*
X80819619Y-133970780D01*
X81438666Y-134399352D02*
X81343428Y-134351733D01*
X81295809Y-134304114D01*
X81248190Y-134208876D01*
X81248190Y-134161257D01*
X81295809Y-134066019D01*
X81343428Y-134018400D01*
X81438666Y-133970780D01*
X81629142Y-133970780D01*
X81724380Y-134018400D01*
X81772000Y-134066019D01*
X81819619Y-134161257D01*
X81819619Y-134208876D01*
X81772000Y-134304114D01*
X81724380Y-134351733D01*
X81629142Y-134399352D01*
X81438666Y-134399352D01*
X81343428Y-134446971D01*
X81295809Y-134494590D01*
X81248190Y-134589828D01*
X81248190Y-134780304D01*
X81295809Y-134875542D01*
X81343428Y-134923161D01*
X81438666Y-134970780D01*
X81629142Y-134970780D01*
X81724380Y-134923161D01*
X81772000Y-134875542D01*
X81819619Y-134780304D01*
X81819619Y-134589828D01*
X81772000Y-134494590D01*
X81724380Y-134446971D01*
X81629142Y-134399352D01*
X94394590Y-87983961D02*
X94537447Y-88031580D01*
X94775542Y-88031580D01*
X94870780Y-87983961D01*
X94918400Y-87936342D01*
X94966019Y-87841104D01*
X94966019Y-87745866D01*
X94918400Y-87650628D01*
X94870780Y-87603009D01*
X94775542Y-87555390D01*
X94585066Y-87507771D01*
X94489828Y-87460152D01*
X94442209Y-87412533D01*
X94394590Y-87317295D01*
X94394590Y-87222057D01*
X94442209Y-87126819D01*
X94489828Y-87079200D01*
X94585066Y-87031580D01*
X94823161Y-87031580D01*
X94966019Y-87079200D01*
X95394590Y-88031580D02*
X95394590Y-87031580D01*
X95632685Y-87031580D01*
X95775542Y-87079200D01*
X95870780Y-87174438D01*
X95918400Y-87269676D01*
X95966019Y-87460152D01*
X95966019Y-87603009D01*
X95918400Y-87793485D01*
X95870780Y-87888723D01*
X95775542Y-87983961D01*
X95632685Y-88031580D01*
X95394590Y-88031580D01*
X96346971Y-87745866D02*
X96823161Y-87745866D01*
X96251733Y-88031580D02*
X96585066Y-87031580D01*
X96918400Y-88031580D01*
X97108876Y-87031580D02*
X97680304Y-87031580D01*
X97394590Y-88031580D02*
X97394590Y-87031580D01*
X97966019Y-87745866D02*
X98442209Y-87745866D01*
X97870780Y-88031580D02*
X98204114Y-87031580D01*
X98537447Y-88031580D01*
X62834780Y-110829600D02*
X61834780Y-110829600D01*
X62834780Y-110353409D02*
X61834780Y-110353409D01*
X62834780Y-109781980D01*
X61834780Y-109781980D01*
X61834780Y-108829600D02*
X61834780Y-109305790D01*
X62310971Y-109353409D01*
X62263352Y-109305790D01*
X62215733Y-109210552D01*
X62215733Y-108972457D01*
X62263352Y-108877219D01*
X62310971Y-108829600D01*
X62406209Y-108781980D01*
X62644304Y-108781980D01*
X62739542Y-108829600D01*
X62787161Y-108877219D01*
X62834780Y-108972457D01*
X62834780Y-109210552D01*
X62787161Y-109305790D01*
X62739542Y-109353409D01*
X97304761Y-135157142D02*
X97257142Y-135204761D01*
X97114285Y-135252380D01*
X97019047Y-135252380D01*
X96876190Y-135204761D01*
X96780952Y-135109523D01*
X96733333Y-135014285D01*
X96685714Y-134823809D01*
X96685714Y-134680952D01*
X96733333Y-134490476D01*
X96780952Y-134395238D01*
X96876190Y-134300000D01*
X97019047Y-134252380D01*
X97114285Y-134252380D01*
X97257142Y-134300000D01*
X97304761Y-134347619D01*
X98209523Y-135252380D02*
X97733333Y-135252380D01*
X97733333Y-134252380D01*
X98542857Y-135252380D02*
X98542857Y-134252380D01*
X99114285Y-135252380D02*
X98685714Y-134680952D01*
X99114285Y-134252380D02*
X98542857Y-134823809D01*
X87279219Y-80502285D02*
X88279219Y-80502285D01*
X88279219Y-80883238D01*
X88231600Y-80978476D01*
X88183980Y-81026095D01*
X88088742Y-81073714D01*
X87945885Y-81073714D01*
X87850647Y-81026095D01*
X87803028Y-80978476D01*
X87755409Y-80883238D01*
X87755409Y-80502285D01*
X87279219Y-81502285D02*
X88279219Y-81502285D01*
X88279219Y-81740380D01*
X88231600Y-81883238D01*
X88136361Y-81978476D01*
X88041123Y-82026095D01*
X87850647Y-82073714D01*
X87707790Y-82073714D01*
X87517314Y-82026095D01*
X87422076Y-81978476D01*
X87326838Y-81883238D01*
X87279219Y-81740380D01*
X87279219Y-81502285D01*
X87279219Y-82502285D02*
X88279219Y-82502285D01*
X87279219Y-83073714D01*
X88279219Y-83073714D01*
X84977504Y-85596361D02*
X85120361Y-85643980D01*
X85358457Y-85643980D01*
X85453695Y-85596361D01*
X85501314Y-85548742D01*
X85548933Y-85453504D01*
X85548933Y-85358266D01*
X85501314Y-85263028D01*
X85453695Y-85215409D01*
X85358457Y-85167790D01*
X85167980Y-85120171D01*
X85072742Y-85072552D01*
X85025123Y-85024933D01*
X84977504Y-84929695D01*
X84977504Y-84834457D01*
X85025123Y-84739219D01*
X85072742Y-84691600D01*
X85167980Y-84643980D01*
X85406076Y-84643980D01*
X85548933Y-84691600D01*
X86167980Y-85167790D02*
X86167980Y-85643980D01*
X85834647Y-84643980D02*
X86167980Y-85167790D01*
X86501314Y-84643980D01*
X86834647Y-85643980D02*
X86834647Y-84643980D01*
X87406076Y-85643980D01*
X87406076Y-84643980D01*
X88453695Y-85548742D02*
X88406076Y-85596361D01*
X88263219Y-85643980D01*
X88167980Y-85643980D01*
X88025123Y-85596361D01*
X87929885Y-85501123D01*
X87882266Y-85405885D01*
X87834647Y-85215409D01*
X87834647Y-85072552D01*
X87882266Y-84882076D01*
X87929885Y-84786838D01*
X88025123Y-84691600D01*
X88167980Y-84643980D01*
X88263219Y-84643980D01*
X88406076Y-84691600D01*
X88453695Y-84739219D01*
X62783980Y-87969600D02*
X61783980Y-87969600D01*
X62783980Y-87493409D02*
X61783980Y-87493409D01*
X62783980Y-86921980D01*
X61783980Y-86921980D01*
X61783980Y-86541028D02*
X61783980Y-85921980D01*
X62164933Y-86255314D01*
X62164933Y-86112457D01*
X62212552Y-86017219D01*
X62260171Y-85969600D01*
X62355409Y-85921980D01*
X62593504Y-85921980D01*
X62688742Y-85969600D01*
X62736361Y-86017219D01*
X62783980Y-86112457D01*
X62783980Y-86398171D01*
X62736361Y-86493409D01*
X62688742Y-86541028D01*
X94458114Y-82954761D02*
X94600971Y-83002380D01*
X94839066Y-83002380D01*
X94934304Y-82954761D01*
X94981923Y-82907142D01*
X95029542Y-82811904D01*
X95029542Y-82716666D01*
X94981923Y-82621428D01*
X94934304Y-82573809D01*
X94839066Y-82526190D01*
X94648590Y-82478571D01*
X94553352Y-82430952D01*
X94505733Y-82383333D01*
X94458114Y-82288095D01*
X94458114Y-82192857D01*
X94505733Y-82097619D01*
X94553352Y-82050000D01*
X94648590Y-82002380D01*
X94886685Y-82002380D01*
X95029542Y-82050000D01*
X95458114Y-83002380D02*
X95458114Y-82002380D01*
X95696209Y-82002380D01*
X95839066Y-82050000D01*
X95934304Y-82145238D01*
X95981923Y-82240476D01*
X96029542Y-82430952D01*
X96029542Y-82573809D01*
X95981923Y-82764285D01*
X95934304Y-82859523D01*
X95839066Y-82954761D01*
X95696209Y-83002380D01*
X95458114Y-83002380D01*
X96648590Y-82002380D02*
X96839066Y-82002380D01*
X96934304Y-82050000D01*
X97029542Y-82145238D01*
X97077161Y-82335714D01*
X97077161Y-82669047D01*
X97029542Y-82859523D01*
X96934304Y-82954761D01*
X96839066Y-83002380D01*
X96648590Y-83002380D01*
X96553352Y-82954761D01*
X96458114Y-82859523D01*
X96410495Y-82669047D01*
X96410495Y-82335714D01*
X96458114Y-82145238D01*
X96553352Y-82050000D01*
X96648590Y-82002380D01*
X97505733Y-82002380D02*
X97505733Y-82811904D01*
X97553352Y-82907142D01*
X97600971Y-82954761D01*
X97696209Y-83002380D01*
X97886685Y-83002380D01*
X97981923Y-82954761D01*
X98029542Y-82907142D01*
X98077161Y-82811904D01*
X98077161Y-82002380D01*
X98410495Y-82002380D02*
X98981923Y-82002380D01*
X98696209Y-83002380D02*
X98696209Y-82002380D01*
X121420000Y-69443504D02*
X121372380Y-69538742D01*
X121372380Y-69681600D01*
X121420000Y-69824457D01*
X121515238Y-69919695D01*
X121610476Y-69967314D01*
X121800952Y-70014933D01*
X121943809Y-70014933D01*
X122134285Y-69967314D01*
X122229523Y-69919695D01*
X122324761Y-69824457D01*
X122372380Y-69681600D01*
X122372380Y-69586361D01*
X122324761Y-69443504D01*
X122277142Y-69395885D01*
X121943809Y-69395885D01*
X121943809Y-69586361D01*
X122372380Y-68967314D02*
X121372380Y-68967314D01*
X122372380Y-68395885D01*
X121372380Y-68395885D01*
X122372380Y-67919695D02*
X121372380Y-67919695D01*
X121372380Y-67681600D01*
X121420000Y-67538742D01*
X121515238Y-67443504D01*
X121610476Y-67395885D01*
X121800952Y-67348266D01*
X121943809Y-67348266D01*
X122134285Y-67395885D01*
X122229523Y-67443504D01*
X122324761Y-67538742D01*
X122372380Y-67681600D01*
X122372380Y-67919695D01*
X62783980Y-94472000D02*
X61783980Y-94472000D01*
X62783980Y-93995809D02*
X61783980Y-93995809D01*
X62783980Y-93424380D01*
X61783980Y-93424380D01*
X62117314Y-92519619D02*
X62783980Y-92519619D01*
X61736361Y-92757714D02*
X62450647Y-92995809D01*
X62450647Y-92376761D01*
D12*
X87675485Y-72716200D02*
X88389771Y-72716200D01*
X87532628Y-73144771D02*
X88032628Y-71644771D01*
X88532628Y-73144771D01*
X89032628Y-73144771D02*
X89032628Y-71644771D01*
X89389771Y-71644771D01*
X89604057Y-71716200D01*
X89746914Y-71859057D01*
X89818342Y-72001914D01*
X89889771Y-72287628D01*
X89889771Y-72501914D01*
X89818342Y-72787628D01*
X89746914Y-72930485D01*
X89604057Y-73073342D01*
X89389771Y-73144771D01*
X89032628Y-73144771D01*
X91389771Y-73001914D02*
X91318342Y-73073342D01*
X91104057Y-73144771D01*
X90961200Y-73144771D01*
X90746914Y-73073342D01*
X90604057Y-72930485D01*
X90532628Y-72787628D01*
X90461200Y-72501914D01*
X90461200Y-72287628D01*
X90532628Y-72001914D01*
X90604057Y-71859057D01*
X90746914Y-71716200D01*
X90961200Y-71644771D01*
X91104057Y-71644771D01*
X91318342Y-71716200D01*
X91389771Y-71787628D01*
X92246914Y-73144771D02*
X92104057Y-73073342D01*
X92032628Y-73001914D01*
X91961200Y-72859057D01*
X91961200Y-72430485D01*
X92032628Y-72287628D01*
X92104057Y-72216200D01*
X92246914Y-72144771D01*
X92461200Y-72144771D01*
X92604057Y-72216200D01*
X92675485Y-72287628D01*
X92746914Y-72430485D01*
X92746914Y-72859057D01*
X92675485Y-73001914D01*
X92604057Y-73073342D01*
X92461200Y-73144771D01*
X92246914Y-73144771D01*
X94032628Y-73073342D02*
X93889771Y-73144771D01*
X93604057Y-73144771D01*
X93461200Y-73073342D01*
X93389771Y-73001914D01*
X93318342Y-72859057D01*
X93318342Y-72430485D01*
X93389771Y-72287628D01*
X93461200Y-72216200D01*
X93604057Y-72144771D01*
X93889771Y-72144771D01*
X94032628Y-72216200D01*
X94461200Y-72144771D02*
X95032628Y-72144771D01*
X94675485Y-71644771D02*
X94675485Y-72930485D01*
X94746914Y-73073342D01*
X94889771Y-73144771D01*
X95032628Y-73144771D01*
X95746914Y-73144771D02*
X95604057Y-73073342D01*
X95532628Y-73001914D01*
X95461200Y-72859057D01*
X95461200Y-72430485D01*
X95532628Y-72287628D01*
X95604057Y-72216200D01*
X95746914Y-72144771D01*
X95961200Y-72144771D01*
X96104057Y-72216200D01*
X96175485Y-72287628D01*
X96246914Y-72430485D01*
X96246914Y-72859057D01*
X96175485Y-73001914D01*
X96104057Y-73073342D01*
X95961200Y-73144771D01*
X95746914Y-73144771D01*
X96818342Y-73073342D02*
X97032628Y-73144771D01*
X97389771Y-73144771D01*
X97532628Y-73073342D01*
X97604057Y-73001914D01*
X97675485Y-72859057D01*
X97675485Y-72716200D01*
X97604057Y-72573342D01*
X97532628Y-72501914D01*
X97389771Y-72430485D01*
X97104057Y-72359057D01*
X96961200Y-72287628D01*
X96889771Y-72216200D01*
X96818342Y-72073342D01*
X96818342Y-71930485D01*
X96889771Y-71787628D01*
X96961200Y-71716200D01*
X97104057Y-71644771D01*
X97461200Y-71644771D01*
X97675485Y-71716200D01*
X98318342Y-73144771D02*
X98318342Y-71644771D01*
X98889771Y-71644771D01*
X99032628Y-71716200D01*
X99104057Y-71787628D01*
X99175485Y-71930485D01*
X99175485Y-72144771D01*
X99104057Y-72287628D01*
X99032628Y-72359057D01*
X98889771Y-72430485D01*
X98318342Y-72430485D01*
X99818342Y-73144771D02*
X99818342Y-71644771D01*
X100818342Y-71644771D02*
X100961200Y-71644771D01*
X101104057Y-71716200D01*
X101175485Y-71787628D01*
X101246914Y-71930485D01*
X101318342Y-72216200D01*
X101318342Y-72573342D01*
X101246914Y-72859057D01*
X101175485Y-73001914D01*
X101104057Y-73073342D01*
X100961200Y-73144771D01*
X100818342Y-73144771D01*
X100675485Y-73073342D01*
X100604057Y-73001914D01*
X100532628Y-72859057D01*
X100461200Y-72573342D01*
X100461200Y-72216200D01*
X100532628Y-71930485D01*
X100604057Y-71787628D01*
X100675485Y-71716200D01*
X100818342Y-71644771D01*
X102746914Y-73144771D02*
X101889771Y-73144771D01*
X102318342Y-73144771D02*
X102318342Y-71644771D01*
X102175485Y-71859057D01*
X102032628Y-72001914D01*
X101889771Y-72073342D01*
X103889771Y-72359057D02*
X104104057Y-72430485D01*
X104175485Y-72501914D01*
X104246914Y-72644771D01*
X104246914Y-72859057D01*
X104175485Y-73001914D01*
X104104057Y-73073342D01*
X103961200Y-73144771D01*
X103389771Y-73144771D01*
X103389771Y-71644771D01*
X103889771Y-71644771D01*
X104032628Y-71716200D01*
X104104057Y-71787628D01*
X104175485Y-71930485D01*
X104175485Y-72073342D01*
X104104057Y-72216200D01*
X104032628Y-72287628D01*
X103889771Y-72359057D01*
X103389771Y-72359057D01*
D10*
%TO.C,C1*%
X107910333Y-75214782D02*
X107862714Y-75262401D01*
X107719857Y-75310020D01*
X107624619Y-75310020D01*
X107481761Y-75262401D01*
X107386523Y-75167163D01*
X107338904Y-75071925D01*
X107291285Y-74881449D01*
X107291285Y-74738592D01*
X107338904Y-74548116D01*
X107386523Y-74452878D01*
X107481761Y-74357640D01*
X107624619Y-74310020D01*
X107719857Y-74310020D01*
X107862714Y-74357640D01*
X107910333Y-74405259D01*
X108862714Y-75310020D02*
X108291285Y-75310020D01*
X108577000Y-75310020D02*
X108577000Y-74310020D01*
X108481761Y-74452878D01*
X108386523Y-74548116D01*
X108291285Y-74595735D01*
%TO.C,D1*%
X111236380Y-71604095D02*
X110236380Y-71604095D01*
X110236380Y-71366000D01*
X110284000Y-71223142D01*
X110379238Y-71127904D01*
X110474476Y-71080285D01*
X110664952Y-71032666D01*
X110807809Y-71032666D01*
X110998285Y-71080285D01*
X111093523Y-71127904D01*
X111188761Y-71223142D01*
X111236380Y-71366000D01*
X111236380Y-71604095D01*
X111236380Y-70080285D02*
X111236380Y-70651714D01*
X111236380Y-70366000D02*
X110236380Y-70366000D01*
X110379238Y-70461238D01*
X110474476Y-70556476D01*
X110522095Y-70651714D01*
%TO.C,R1*%
X79436933Y-75941180D02*
X79103600Y-75464990D01*
X78865504Y-75941180D02*
X78865504Y-74941180D01*
X79246457Y-74941180D01*
X79341695Y-74988800D01*
X79389314Y-75036419D01*
X79436933Y-75131657D01*
X79436933Y-75274514D01*
X79389314Y-75369752D01*
X79341695Y-75417371D01*
X79246457Y-75464990D01*
X78865504Y-75464990D01*
X80389314Y-75941180D02*
X79817885Y-75941180D01*
X80103600Y-75941180D02*
X80103600Y-74941180D01*
X80008361Y-75084038D01*
X79913123Y-75179276D01*
X79817885Y-75226895D01*
%TO.C,R2*%
X75576133Y-75941180D02*
X75242800Y-75464990D01*
X75004704Y-75941180D02*
X75004704Y-74941180D01*
X75385657Y-74941180D01*
X75480895Y-74988800D01*
X75528514Y-75036419D01*
X75576133Y-75131657D01*
X75576133Y-75274514D01*
X75528514Y-75369752D01*
X75480895Y-75417371D01*
X75385657Y-75464990D01*
X75004704Y-75464990D01*
X75957085Y-75036419D02*
X76004704Y-74988800D01*
X76099942Y-74941180D01*
X76338038Y-74941180D01*
X76433276Y-74988800D01*
X76480895Y-75036419D01*
X76528514Y-75131657D01*
X76528514Y-75226895D01*
X76480895Y-75369752D01*
X75909466Y-75941180D01*
X76528514Y-75941180D01*
%TO.C,R3*%
X69641980Y-88355466D02*
X69165790Y-88688800D01*
X69641980Y-88926895D02*
X68641980Y-88926895D01*
X68641980Y-88545942D01*
X68689600Y-88450704D01*
X68737219Y-88403085D01*
X68832457Y-88355466D01*
X68975314Y-88355466D01*
X69070552Y-88403085D01*
X69118171Y-88450704D01*
X69165790Y-88545942D01*
X69165790Y-88926895D01*
X68641980Y-88022133D02*
X68641980Y-87403085D01*
X69022933Y-87736419D01*
X69022933Y-87593561D01*
X69070552Y-87498323D01*
X69118171Y-87450704D01*
X69213409Y-87403085D01*
X69451504Y-87403085D01*
X69546742Y-87450704D01*
X69594361Y-87498323D01*
X69641980Y-87593561D01*
X69641980Y-87879276D01*
X69594361Y-87974514D01*
X69546742Y-88022133D01*
%TO.C,R4*%
X69591180Y-92216266D02*
X69114990Y-92549600D01*
X69591180Y-92787695D02*
X68591180Y-92787695D01*
X68591180Y-92406742D01*
X68638800Y-92311504D01*
X68686419Y-92263885D01*
X68781657Y-92216266D01*
X68924514Y-92216266D01*
X69019752Y-92263885D01*
X69067371Y-92311504D01*
X69114990Y-92406742D01*
X69114990Y-92787695D01*
X68924514Y-91359123D02*
X69591180Y-91359123D01*
X68543561Y-91597219D02*
X69257847Y-91835314D01*
X69257847Y-91216266D01*
%TO.C,R5*%
X72468980Y-111304366D02*
X71992790Y-111637700D01*
X72468980Y-111875795D02*
X71468980Y-111875795D01*
X71468980Y-111494842D01*
X71516600Y-111399604D01*
X71564219Y-111351985D01*
X71659457Y-111304366D01*
X71802314Y-111304366D01*
X71897552Y-111351985D01*
X71945171Y-111399604D01*
X71992790Y-111494842D01*
X71992790Y-111875795D01*
X71468980Y-110399604D02*
X71468980Y-110875795D01*
X71945171Y-110923414D01*
X71897552Y-110875795D01*
X71849933Y-110780557D01*
X71849933Y-110542461D01*
X71897552Y-110447223D01*
X71945171Y-110399604D01*
X72040409Y-110351985D01*
X72278504Y-110351985D01*
X72373742Y-110399604D01*
X72421361Y-110447223D01*
X72468980Y-110542461D01*
X72468980Y-110780557D01*
X72421361Y-110875795D01*
X72373742Y-110923414D01*
%TO.C,R6*%
X72481680Y-115063566D02*
X72005490Y-115396900D01*
X72481680Y-115634995D02*
X71481680Y-115634995D01*
X71481680Y-115254042D01*
X71529300Y-115158804D01*
X71576919Y-115111185D01*
X71672157Y-115063566D01*
X71815014Y-115063566D01*
X71910252Y-115111185D01*
X71957871Y-115158804D01*
X72005490Y-115254042D01*
X72005490Y-115634995D01*
X71481680Y-114206423D02*
X71481680Y-114396900D01*
X71529300Y-114492138D01*
X71576919Y-114539757D01*
X71719776Y-114634995D01*
X71910252Y-114682614D01*
X72291204Y-114682614D01*
X72386442Y-114634995D01*
X72434061Y-114587376D01*
X72481680Y-114492138D01*
X72481680Y-114301661D01*
X72434061Y-114206423D01*
X72386442Y-114158804D01*
X72291204Y-114111185D01*
X72053109Y-114111185D01*
X71957871Y-114158804D01*
X71910252Y-114206423D01*
X71862633Y-114301661D01*
X71862633Y-114492138D01*
X71910252Y-114587376D01*
X71957871Y-114634995D01*
X72053109Y-114682614D01*
%TO.C,R7*%
X75601533Y-125387380D02*
X75268200Y-124911190D01*
X75030104Y-125387380D02*
X75030104Y-124387380D01*
X75411057Y-124387380D01*
X75506295Y-124435000D01*
X75553914Y-124482619D01*
X75601533Y-124577857D01*
X75601533Y-124720714D01*
X75553914Y-124815952D01*
X75506295Y-124863571D01*
X75411057Y-124911190D01*
X75030104Y-124911190D01*
X75934866Y-124387380D02*
X76601533Y-124387380D01*
X76172961Y-125387380D01*
%TO.C,R8*%
X79424233Y-125387380D02*
X79090900Y-124911190D01*
X78852804Y-125387380D02*
X78852804Y-124387380D01*
X79233757Y-124387380D01*
X79328995Y-124435000D01*
X79376614Y-124482619D01*
X79424233Y-124577857D01*
X79424233Y-124720714D01*
X79376614Y-124815952D01*
X79328995Y-124863571D01*
X79233757Y-124911190D01*
X78852804Y-124911190D01*
X79995661Y-124815952D02*
X79900423Y-124768333D01*
X79852804Y-124720714D01*
X79805185Y-124625476D01*
X79805185Y-124577857D01*
X79852804Y-124482619D01*
X79900423Y-124435000D01*
X79995661Y-124387380D01*
X80186138Y-124387380D01*
X80281376Y-124435000D01*
X80328995Y-124482619D01*
X80376614Y-124577857D01*
X80376614Y-124625476D01*
X80328995Y-124720714D01*
X80281376Y-124768333D01*
X80186138Y-124815952D01*
X79995661Y-124815952D01*
X79900423Y-124863571D01*
X79852804Y-124911190D01*
X79805185Y-125006428D01*
X79805185Y-125196904D01*
X79852804Y-125292142D01*
X79900423Y-125339761D01*
X79995661Y-125387380D01*
X80186138Y-125387380D01*
X80281376Y-125339761D01*
X80328995Y-125292142D01*
X80376614Y-125196904D01*
X80376614Y-125006428D01*
X80328995Y-124911190D01*
X80281376Y-124863571D01*
X80186138Y-124815952D01*
%TO.C,R10*%
X94734142Y-124244380D02*
X94400809Y-123768190D01*
X94162714Y-124244380D02*
X94162714Y-123244380D01*
X94543666Y-123244380D01*
X94638904Y-123292000D01*
X94686523Y-123339619D01*
X94734142Y-123434857D01*
X94734142Y-123577714D01*
X94686523Y-123672952D01*
X94638904Y-123720571D01*
X94543666Y-123768190D01*
X94162714Y-123768190D01*
X95686523Y-124244380D02*
X95115095Y-124244380D01*
X95400809Y-124244380D02*
X95400809Y-123244380D01*
X95305571Y-123387238D01*
X95210333Y-123482476D01*
X95115095Y-123530095D01*
X96305571Y-123244380D02*
X96400809Y-123244380D01*
X96496047Y-123292000D01*
X96543666Y-123339619D01*
X96591285Y-123434857D01*
X96638904Y-123625333D01*
X96638904Y-123863428D01*
X96591285Y-124053904D01*
X96543666Y-124149142D01*
X96496047Y-124196761D01*
X96400809Y-124244380D01*
X96305571Y-124244380D01*
X96210333Y-124196761D01*
X96162714Y-124149142D01*
X96115095Y-124053904D01*
X96067476Y-123863428D01*
X96067476Y-123625333D01*
X96115095Y-123434857D01*
X96162714Y-123339619D01*
X96210333Y-123292000D01*
X96305571Y-123244380D01*
%TO.C,R11*%
X94734142Y-129009380D02*
X94400809Y-128533190D01*
X94162714Y-129009380D02*
X94162714Y-128009380D01*
X94543666Y-128009380D01*
X94638904Y-128057000D01*
X94686523Y-128104619D01*
X94734142Y-128199857D01*
X94734142Y-128342714D01*
X94686523Y-128437952D01*
X94638904Y-128485571D01*
X94543666Y-128533190D01*
X94162714Y-128533190D01*
X95686523Y-129009380D02*
X95115095Y-129009380D01*
X95400809Y-129009380D02*
X95400809Y-128009380D01*
X95305571Y-128152238D01*
X95210333Y-128247476D01*
X95115095Y-128295095D01*
X96638904Y-129009380D02*
X96067476Y-129009380D01*
X96353190Y-129009380D02*
X96353190Y-128009380D01*
X96257952Y-128152238D01*
X96162714Y-128247476D01*
X96067476Y-128295095D01*
%TO.C,R20*%
X91686142Y-127104380D02*
X91352809Y-126628190D01*
X91114714Y-127104380D02*
X91114714Y-126104380D01*
X91495666Y-126104380D01*
X91590904Y-126152000D01*
X91638523Y-126199619D01*
X91686142Y-126294857D01*
X91686142Y-126437714D01*
X91638523Y-126532952D01*
X91590904Y-126580571D01*
X91495666Y-126628190D01*
X91114714Y-126628190D01*
X92067095Y-126199619D02*
X92114714Y-126152000D01*
X92209952Y-126104380D01*
X92448047Y-126104380D01*
X92543285Y-126152000D01*
X92590904Y-126199619D01*
X92638523Y-126294857D01*
X92638523Y-126390095D01*
X92590904Y-126532952D01*
X92019476Y-127104380D01*
X92638523Y-127104380D01*
X93257571Y-126104380D02*
X93352809Y-126104380D01*
X93448047Y-126152000D01*
X93495666Y-126199619D01*
X93543285Y-126294857D01*
X93590904Y-126485333D01*
X93590904Y-126723428D01*
X93543285Y-126913904D01*
X93495666Y-127009142D01*
X93448047Y-127056761D01*
X93352809Y-127104380D01*
X93257571Y-127104380D01*
X93162333Y-127056761D01*
X93114714Y-127009142D01*
X93067095Y-126913904D01*
X93019476Y-126723428D01*
X93019476Y-126485333D01*
X93067095Y-126294857D01*
X93114714Y-126199619D01*
X93162333Y-126152000D01*
X93257571Y-126104380D01*
%TO.C,R21*%
X91698142Y-126149380D02*
X91364809Y-125673190D01*
X91126714Y-126149380D02*
X91126714Y-125149380D01*
X91507666Y-125149380D01*
X91602904Y-125197000D01*
X91650523Y-125244619D01*
X91698142Y-125339857D01*
X91698142Y-125482714D01*
X91650523Y-125577952D01*
X91602904Y-125625571D01*
X91507666Y-125673190D01*
X91126714Y-125673190D01*
X92079095Y-125244619D02*
X92126714Y-125197000D01*
X92221952Y-125149380D01*
X92460047Y-125149380D01*
X92555285Y-125197000D01*
X92602904Y-125244619D01*
X92650523Y-125339857D01*
X92650523Y-125435095D01*
X92602904Y-125577952D01*
X92031476Y-126149380D01*
X92650523Y-126149380D01*
X93602904Y-126149380D02*
X93031476Y-126149380D01*
X93317190Y-126149380D02*
X93317190Y-125149380D01*
X93221952Y-125292238D01*
X93126714Y-125387476D01*
X93031476Y-125435095D01*
%TO.C,C2*%
X111642142Y-69623666D02*
X111689761Y-69671285D01*
X111737380Y-69814142D01*
X111737380Y-69909380D01*
X111689761Y-70052238D01*
X111594523Y-70147476D01*
X111499285Y-70195095D01*
X111308809Y-70242714D01*
X111165952Y-70242714D01*
X110975476Y-70195095D01*
X110880238Y-70147476D01*
X110785000Y-70052238D01*
X110737380Y-69909380D01*
X110737380Y-69814142D01*
X110785000Y-69671285D01*
X110832619Y-69623666D01*
X110832619Y-69242714D02*
X110785000Y-69195095D01*
X110737380Y-69099857D01*
X110737380Y-68861761D01*
X110785000Y-68766523D01*
X110832619Y-68718904D01*
X110927857Y-68671285D01*
X111023095Y-68671285D01*
X111165952Y-68718904D01*
X111737380Y-69290333D01*
X111737380Y-68671285D01*
%TO.C,C3*%
X79445142Y-79541666D02*
X79492761Y-79589285D01*
X79540380Y-79732142D01*
X79540380Y-79827380D01*
X79492761Y-79970238D01*
X79397523Y-80065476D01*
X79302285Y-80113095D01*
X79111809Y-80160714D01*
X78968952Y-80160714D01*
X78778476Y-80113095D01*
X78683238Y-80065476D01*
X78588000Y-79970238D01*
X78540380Y-79827380D01*
X78540380Y-79732142D01*
X78588000Y-79589285D01*
X78635619Y-79541666D01*
X78540380Y-79208333D02*
X78540380Y-78589285D01*
X78921333Y-78922619D01*
X78921333Y-78779761D01*
X78968952Y-78684523D01*
X79016571Y-78636904D01*
X79111809Y-78589285D01*
X79349904Y-78589285D01*
X79445142Y-78636904D01*
X79492761Y-78684523D01*
X79540380Y-78779761D01*
X79540380Y-79065476D01*
X79492761Y-79160714D01*
X79445142Y-79208333D01*
%TO.C,C4*%
X77667142Y-79541666D02*
X77714761Y-79589285D01*
X77762380Y-79732142D01*
X77762380Y-79827380D01*
X77714761Y-79970238D01*
X77619523Y-80065476D01*
X77524285Y-80113095D01*
X77333809Y-80160714D01*
X77190952Y-80160714D01*
X77000476Y-80113095D01*
X76905238Y-80065476D01*
X76810000Y-79970238D01*
X76762380Y-79827380D01*
X76762380Y-79732142D01*
X76810000Y-79589285D01*
X76857619Y-79541666D01*
X77095714Y-78684523D02*
X77762380Y-78684523D01*
X76714761Y-78922619D02*
X77429047Y-79160714D01*
X77429047Y-78541666D01*
%TO.C,C5*%
X75635142Y-79541666D02*
X75682761Y-79589285D01*
X75730380Y-79732142D01*
X75730380Y-79827380D01*
X75682761Y-79970238D01*
X75587523Y-80065476D01*
X75492285Y-80113095D01*
X75301809Y-80160714D01*
X75158952Y-80160714D01*
X74968476Y-80113095D01*
X74873238Y-80065476D01*
X74778000Y-79970238D01*
X74730380Y-79827380D01*
X74730380Y-79732142D01*
X74778000Y-79589285D01*
X74825619Y-79541666D01*
X74730380Y-78636904D02*
X74730380Y-79113095D01*
X75206571Y-79160714D01*
X75158952Y-79113095D01*
X75111333Y-79017857D01*
X75111333Y-78779761D01*
X75158952Y-78684523D01*
X75206571Y-78636904D01*
X75301809Y-78589285D01*
X75539904Y-78589285D01*
X75635142Y-78636904D01*
X75682761Y-78684523D01*
X75730380Y-78779761D01*
X75730380Y-79017857D01*
X75682761Y-79113095D01*
X75635142Y-79160714D01*
%TO.C,C6*%
X73857142Y-79541666D02*
X73904761Y-79589285D01*
X73952380Y-79732142D01*
X73952380Y-79827380D01*
X73904761Y-79970238D01*
X73809523Y-80065476D01*
X73714285Y-80113095D01*
X73523809Y-80160714D01*
X73380952Y-80160714D01*
X73190476Y-80113095D01*
X73095238Y-80065476D01*
X73000000Y-79970238D01*
X72952380Y-79827380D01*
X72952380Y-79732142D01*
X73000000Y-79589285D01*
X73047619Y-79541666D01*
X72952380Y-78684523D02*
X72952380Y-78875000D01*
X73000000Y-78970238D01*
X73047619Y-79017857D01*
X73190476Y-79113095D01*
X73380952Y-79160714D01*
X73761904Y-79160714D01*
X73857142Y-79113095D01*
X73904761Y-79065476D01*
X73952380Y-78970238D01*
X73952380Y-78779761D01*
X73904761Y-78684523D01*
X73857142Y-78636904D01*
X73761904Y-78589285D01*
X73523809Y-78589285D01*
X73428571Y-78636904D01*
X73380952Y-78684523D01*
X73333333Y-78779761D01*
X73333333Y-78970238D01*
X73380952Y-79065476D01*
X73428571Y-79113095D01*
X73523809Y-79160714D01*
%TO.C,C7*%
X72954853Y-89155522D02*
X72907234Y-89203141D01*
X72764377Y-89250760D01*
X72669139Y-89250760D01*
X72526281Y-89203141D01*
X72431043Y-89107903D01*
X72383424Y-89012665D01*
X72335805Y-88822189D01*
X72335805Y-88679332D01*
X72383424Y-88488856D01*
X72431043Y-88393618D01*
X72526281Y-88298380D01*
X72669139Y-88250760D01*
X72764377Y-88250760D01*
X72907234Y-88298380D01*
X72954853Y-88345999D01*
X73288186Y-88250760D02*
X73954853Y-88250760D01*
X73526281Y-89250760D01*
%TO.C,C8*%
X72954853Y-90933522D02*
X72907234Y-90981141D01*
X72764377Y-91028760D01*
X72669139Y-91028760D01*
X72526281Y-90981141D01*
X72431043Y-90885903D01*
X72383424Y-90790665D01*
X72335805Y-90600189D01*
X72335805Y-90457332D01*
X72383424Y-90266856D01*
X72431043Y-90171618D01*
X72526281Y-90076380D01*
X72669139Y-90028760D01*
X72764377Y-90028760D01*
X72907234Y-90076380D01*
X72954853Y-90123999D01*
X73526281Y-90457332D02*
X73431043Y-90409713D01*
X73383424Y-90362094D01*
X73335805Y-90266856D01*
X73335805Y-90219237D01*
X73383424Y-90123999D01*
X73431043Y-90076380D01*
X73526281Y-90028760D01*
X73716758Y-90028760D01*
X73811996Y-90076380D01*
X73859615Y-90123999D01*
X73907234Y-90219237D01*
X73907234Y-90266856D01*
X73859615Y-90362094D01*
X73811996Y-90409713D01*
X73716758Y-90457332D01*
X73526281Y-90457332D01*
X73431043Y-90504951D01*
X73383424Y-90552570D01*
X73335805Y-90647808D01*
X73335805Y-90838284D01*
X73383424Y-90933522D01*
X73431043Y-90981141D01*
X73526281Y-91028760D01*
X73716758Y-91028760D01*
X73811996Y-90981141D01*
X73859615Y-90933522D01*
X73907234Y-90838284D01*
X73907234Y-90647808D01*
X73859615Y-90552570D01*
X73811996Y-90504951D01*
X73716758Y-90457332D01*
%TO.C,C9*%
X72959933Y-92973142D02*
X72912314Y-93020761D01*
X72769457Y-93068380D01*
X72674219Y-93068380D01*
X72531361Y-93020761D01*
X72436123Y-92925523D01*
X72388504Y-92830285D01*
X72340885Y-92639809D01*
X72340885Y-92496952D01*
X72388504Y-92306476D01*
X72436123Y-92211238D01*
X72531361Y-92116000D01*
X72674219Y-92068380D01*
X72769457Y-92068380D01*
X72912314Y-92116000D01*
X72959933Y-92163619D01*
X73436123Y-93068380D02*
X73626600Y-93068380D01*
X73721838Y-93020761D01*
X73769457Y-92973142D01*
X73864695Y-92830285D01*
X73912314Y-92639809D01*
X73912314Y-92258857D01*
X73864695Y-92163619D01*
X73817076Y-92116000D01*
X73721838Y-92068380D01*
X73531361Y-92068380D01*
X73436123Y-92116000D01*
X73388504Y-92163619D01*
X73340885Y-92258857D01*
X73340885Y-92496952D01*
X73388504Y-92592190D01*
X73436123Y-92639809D01*
X73531361Y-92687428D01*
X73721838Y-92687428D01*
X73817076Y-92639809D01*
X73864695Y-92592190D01*
X73912314Y-92496952D01*
%TO.C,C10*%
X72483742Y-94751142D02*
X72436123Y-94798761D01*
X72293266Y-94846380D01*
X72198028Y-94846380D01*
X72055171Y-94798761D01*
X71959933Y-94703523D01*
X71912314Y-94608285D01*
X71864695Y-94417809D01*
X71864695Y-94274952D01*
X71912314Y-94084476D01*
X71959933Y-93989238D01*
X72055171Y-93894000D01*
X72198028Y-93846380D01*
X72293266Y-93846380D01*
X72436123Y-93894000D01*
X72483742Y-93941619D01*
X73436123Y-94846380D02*
X72864695Y-94846380D01*
X73150409Y-94846380D02*
X73150409Y-93846380D01*
X73055171Y-93989238D01*
X72959933Y-94084476D01*
X72864695Y-94132095D01*
X74055171Y-93846380D02*
X74150409Y-93846380D01*
X74245647Y-93894000D01*
X74293266Y-93941619D01*
X74340885Y-94036857D01*
X74388504Y-94227333D01*
X74388504Y-94465428D01*
X74340885Y-94655904D01*
X74293266Y-94751142D01*
X74245647Y-94798761D01*
X74150409Y-94846380D01*
X74055171Y-94846380D01*
X73959933Y-94798761D01*
X73912314Y-94751142D01*
X73864695Y-94655904D01*
X73817076Y-94465428D01*
X73817076Y-94227333D01*
X73864695Y-94036857D01*
X73912314Y-93941619D01*
X73959933Y-93894000D01*
X74055171Y-93846380D01*
%TO.C,C11*%
X72483742Y-112035842D02*
X72436123Y-112083461D01*
X72293266Y-112131080D01*
X72198028Y-112131080D01*
X72055171Y-112083461D01*
X71959933Y-111988223D01*
X71912314Y-111892985D01*
X71864695Y-111702509D01*
X71864695Y-111559652D01*
X71912314Y-111369176D01*
X71959933Y-111273938D01*
X72055171Y-111178700D01*
X72198028Y-111131080D01*
X72293266Y-111131080D01*
X72436123Y-111178700D01*
X72483742Y-111226319D01*
X73436123Y-112131080D02*
X72864695Y-112131080D01*
X73150409Y-112131080D02*
X73150409Y-111131080D01*
X73055171Y-111273938D01*
X72959933Y-111369176D01*
X72864695Y-111416795D01*
X74388504Y-112131080D02*
X73817076Y-112131080D01*
X74102790Y-112131080D02*
X74102790Y-111131080D01*
X74007552Y-111273938D01*
X73912314Y-111369176D01*
X73817076Y-111416795D01*
%TO.C,C12*%
X72483742Y-113813842D02*
X72436123Y-113861461D01*
X72293266Y-113909080D01*
X72198028Y-113909080D01*
X72055171Y-113861461D01*
X71959933Y-113766223D01*
X71912314Y-113670985D01*
X71864695Y-113480509D01*
X71864695Y-113337652D01*
X71912314Y-113147176D01*
X71959933Y-113051938D01*
X72055171Y-112956700D01*
X72198028Y-112909080D01*
X72293266Y-112909080D01*
X72436123Y-112956700D01*
X72483742Y-113004319D01*
X73436123Y-113909080D02*
X72864695Y-113909080D01*
X73150409Y-113909080D02*
X73150409Y-112909080D01*
X73055171Y-113051938D01*
X72959933Y-113147176D01*
X72864695Y-113194795D01*
X73817076Y-113004319D02*
X73864695Y-112956700D01*
X73959933Y-112909080D01*
X74198028Y-112909080D01*
X74293266Y-112956700D01*
X74340885Y-113004319D01*
X74388504Y-113099557D01*
X74388504Y-113194795D01*
X74340885Y-113337652D01*
X73769457Y-113909080D01*
X74388504Y-113909080D01*
%TO.C,C13*%
X72496442Y-115795042D02*
X72448823Y-115842661D01*
X72305966Y-115890280D01*
X72210728Y-115890280D01*
X72067871Y-115842661D01*
X71972633Y-115747423D01*
X71925014Y-115652185D01*
X71877395Y-115461709D01*
X71877395Y-115318852D01*
X71925014Y-115128376D01*
X71972633Y-115033138D01*
X72067871Y-114937900D01*
X72210728Y-114890280D01*
X72305966Y-114890280D01*
X72448823Y-114937900D01*
X72496442Y-114985519D01*
X73448823Y-115890280D02*
X72877395Y-115890280D01*
X73163109Y-115890280D02*
X73163109Y-114890280D01*
X73067871Y-115033138D01*
X72972633Y-115128376D01*
X72877395Y-115175995D01*
X73782157Y-114890280D02*
X74401204Y-114890280D01*
X74067871Y-115271233D01*
X74210728Y-115271233D01*
X74305966Y-115318852D01*
X74353585Y-115366471D01*
X74401204Y-115461709D01*
X74401204Y-115699804D01*
X74353585Y-115795042D01*
X74305966Y-115842661D01*
X74210728Y-115890280D01*
X73925014Y-115890280D01*
X73829776Y-115842661D01*
X73782157Y-115795042D01*
%TO.C,C14*%
X72496442Y-117573042D02*
X72448823Y-117620661D01*
X72305966Y-117668280D01*
X72210728Y-117668280D01*
X72067871Y-117620661D01*
X71972633Y-117525423D01*
X71925014Y-117430185D01*
X71877395Y-117239709D01*
X71877395Y-117096852D01*
X71925014Y-116906376D01*
X71972633Y-116811138D01*
X72067871Y-116715900D01*
X72210728Y-116668280D01*
X72305966Y-116668280D01*
X72448823Y-116715900D01*
X72496442Y-116763519D01*
X73448823Y-117668280D02*
X72877395Y-117668280D01*
X73163109Y-117668280D02*
X73163109Y-116668280D01*
X73067871Y-116811138D01*
X72972633Y-116906376D01*
X72877395Y-116953995D01*
X74305966Y-117001614D02*
X74305966Y-117668280D01*
X74067871Y-116620661D02*
X73829776Y-117334947D01*
X74448823Y-117334947D01*
%TO.C,C15*%
X76666342Y-124467857D02*
X76713961Y-124515476D01*
X76761580Y-124658333D01*
X76761580Y-124753571D01*
X76713961Y-124896428D01*
X76618723Y-124991666D01*
X76523485Y-125039285D01*
X76333009Y-125086904D01*
X76190152Y-125086904D01*
X75999676Y-125039285D01*
X75904438Y-124991666D01*
X75809200Y-124896428D01*
X75761580Y-124753571D01*
X75761580Y-124658333D01*
X75809200Y-124515476D01*
X75856819Y-124467857D01*
X76761580Y-123515476D02*
X76761580Y-124086904D01*
X76761580Y-123801190D02*
X75761580Y-123801190D01*
X75904438Y-123896428D01*
X75999676Y-123991666D01*
X76047295Y-124086904D01*
X75761580Y-122610714D02*
X75761580Y-123086904D01*
X76237771Y-123134523D01*
X76190152Y-123086904D01*
X76142533Y-122991666D01*
X76142533Y-122753571D01*
X76190152Y-122658333D01*
X76237771Y-122610714D01*
X76333009Y-122563095D01*
X76571104Y-122563095D01*
X76666342Y-122610714D01*
X76713961Y-122658333D01*
X76761580Y-122753571D01*
X76761580Y-122991666D01*
X76713961Y-123086904D01*
X76666342Y-123134523D01*
%TO.C,C16*%
X78444342Y-124467857D02*
X78491961Y-124515476D01*
X78539580Y-124658333D01*
X78539580Y-124753571D01*
X78491961Y-124896428D01*
X78396723Y-124991666D01*
X78301485Y-125039285D01*
X78111009Y-125086904D01*
X77968152Y-125086904D01*
X77777676Y-125039285D01*
X77682438Y-124991666D01*
X77587200Y-124896428D01*
X77539580Y-124753571D01*
X77539580Y-124658333D01*
X77587200Y-124515476D01*
X77634819Y-124467857D01*
X78539580Y-123515476D02*
X78539580Y-124086904D01*
X78539580Y-123801190D02*
X77539580Y-123801190D01*
X77682438Y-123896428D01*
X77777676Y-123991666D01*
X77825295Y-124086904D01*
X77539580Y-122658333D02*
X77539580Y-122848809D01*
X77587200Y-122944047D01*
X77634819Y-122991666D01*
X77777676Y-123086904D01*
X77968152Y-123134523D01*
X78349104Y-123134523D01*
X78444342Y-123086904D01*
X78491961Y-123039285D01*
X78539580Y-122944047D01*
X78539580Y-122753571D01*
X78491961Y-122658333D01*
X78444342Y-122610714D01*
X78349104Y-122563095D01*
X78111009Y-122563095D01*
X78015771Y-122610714D01*
X77968152Y-122658333D01*
X77920533Y-122753571D01*
X77920533Y-122944047D01*
X77968152Y-123039285D01*
X78015771Y-123086904D01*
X78111009Y-123134523D01*
%TO.C,C17*%
X80489042Y-124467857D02*
X80536661Y-124515476D01*
X80584280Y-124658333D01*
X80584280Y-124753571D01*
X80536661Y-124896428D01*
X80441423Y-124991666D01*
X80346185Y-125039285D01*
X80155709Y-125086904D01*
X80012852Y-125086904D01*
X79822376Y-125039285D01*
X79727138Y-124991666D01*
X79631900Y-124896428D01*
X79584280Y-124753571D01*
X79584280Y-124658333D01*
X79631900Y-124515476D01*
X79679519Y-124467857D01*
X80584280Y-123515476D02*
X80584280Y-124086904D01*
X80584280Y-123801190D02*
X79584280Y-123801190D01*
X79727138Y-123896428D01*
X79822376Y-123991666D01*
X79869995Y-124086904D01*
X79584280Y-123182142D02*
X79584280Y-122515476D01*
X80584280Y-122944047D01*
%TO.C,C18*%
X82267042Y-124467857D02*
X82314661Y-124515476D01*
X82362280Y-124658333D01*
X82362280Y-124753571D01*
X82314661Y-124896428D01*
X82219423Y-124991666D01*
X82124185Y-125039285D01*
X81933709Y-125086904D01*
X81790852Y-125086904D01*
X81600376Y-125039285D01*
X81505138Y-124991666D01*
X81409900Y-124896428D01*
X81362280Y-124753571D01*
X81362280Y-124658333D01*
X81409900Y-124515476D01*
X81457519Y-124467857D01*
X82362280Y-123515476D02*
X82362280Y-124086904D01*
X82362280Y-123801190D02*
X81362280Y-123801190D01*
X81505138Y-123896428D01*
X81600376Y-123991666D01*
X81647995Y-124086904D01*
X81790852Y-122944047D02*
X81743233Y-123039285D01*
X81695614Y-123086904D01*
X81600376Y-123134523D01*
X81552757Y-123134523D01*
X81457519Y-123086904D01*
X81409900Y-123039285D01*
X81362280Y-122944047D01*
X81362280Y-122753571D01*
X81409900Y-122658333D01*
X81457519Y-122610714D01*
X81552757Y-122563095D01*
X81600376Y-122563095D01*
X81695614Y-122610714D01*
X81743233Y-122658333D01*
X81790852Y-122753571D01*
X81790852Y-122944047D01*
X81838471Y-123039285D01*
X81886090Y-123086904D01*
X81981328Y-123134523D01*
X82171804Y-123134523D01*
X82267042Y-123086904D01*
X82314661Y-123039285D01*
X82362280Y-122944047D01*
X82362280Y-122753571D01*
X82314661Y-122658333D01*
X82267042Y-122610714D01*
X82171804Y-122563095D01*
X81981328Y-122563095D01*
X81886090Y-122610714D01*
X81838471Y-122658333D01*
X81790852Y-122753571D01*
%TO.C,C23*%
X82371222Y-81465657D02*
X82418841Y-81513276D01*
X82466460Y-81656133D01*
X82466460Y-81751371D01*
X82418841Y-81894228D01*
X82323603Y-81989466D01*
X82228365Y-82037085D01*
X82037889Y-82084704D01*
X81895032Y-82084704D01*
X81704556Y-82037085D01*
X81609318Y-81989466D01*
X81514080Y-81894228D01*
X81466460Y-81751371D01*
X81466460Y-81656133D01*
X81514080Y-81513276D01*
X81561699Y-81465657D01*
X81561699Y-81084704D02*
X81514080Y-81037085D01*
X81466460Y-80941847D01*
X81466460Y-80703752D01*
X81514080Y-80608514D01*
X81561699Y-80560895D01*
X81656937Y-80513276D01*
X81752175Y-80513276D01*
X81895032Y-80560895D01*
X82466460Y-81132323D01*
X82466460Y-80513276D01*
X81466460Y-80179942D02*
X81466460Y-79560895D01*
X81847413Y-79894228D01*
X81847413Y-79751371D01*
X81895032Y-79656133D01*
X81942651Y-79608514D01*
X82037889Y-79560895D01*
X82275984Y-79560895D01*
X82371222Y-79608514D01*
X82418841Y-79656133D01*
X82466460Y-79751371D01*
X82466460Y-80037085D01*
X82418841Y-80132323D01*
X82371222Y-80179942D01*
%TO.C,C37*%
X91827642Y-123324857D02*
X91875261Y-123372476D01*
X91922880Y-123515333D01*
X91922880Y-123610571D01*
X91875261Y-123753428D01*
X91780023Y-123848666D01*
X91684785Y-123896285D01*
X91494309Y-123943904D01*
X91351452Y-123943904D01*
X91160976Y-123896285D01*
X91065738Y-123848666D01*
X90970500Y-123753428D01*
X90922880Y-123610571D01*
X90922880Y-123515333D01*
X90970500Y-123372476D01*
X91018119Y-123324857D01*
X90922880Y-122991523D02*
X90922880Y-122372476D01*
X91303833Y-122705809D01*
X91303833Y-122562952D01*
X91351452Y-122467714D01*
X91399071Y-122420095D01*
X91494309Y-122372476D01*
X91732404Y-122372476D01*
X91827642Y-122420095D01*
X91875261Y-122467714D01*
X91922880Y-122562952D01*
X91922880Y-122848666D01*
X91875261Y-122943904D01*
X91827642Y-122991523D01*
X90922880Y-122039142D02*
X90922880Y-121372476D01*
X91922880Y-121801047D01*
%TO.C,C38*%
X93732642Y-123324857D02*
X93780261Y-123372476D01*
X93827880Y-123515333D01*
X93827880Y-123610571D01*
X93780261Y-123753428D01*
X93685023Y-123848666D01*
X93589785Y-123896285D01*
X93399309Y-123943904D01*
X93256452Y-123943904D01*
X93065976Y-123896285D01*
X92970738Y-123848666D01*
X92875500Y-123753428D01*
X92827880Y-123610571D01*
X92827880Y-123515333D01*
X92875500Y-123372476D01*
X92923119Y-123324857D01*
X92827880Y-122991523D02*
X92827880Y-122372476D01*
X93208833Y-122705809D01*
X93208833Y-122562952D01*
X93256452Y-122467714D01*
X93304071Y-122420095D01*
X93399309Y-122372476D01*
X93637404Y-122372476D01*
X93732642Y-122420095D01*
X93780261Y-122467714D01*
X93827880Y-122562952D01*
X93827880Y-122848666D01*
X93780261Y-122943904D01*
X93732642Y-122991523D01*
X93256452Y-121801047D02*
X93208833Y-121896285D01*
X93161214Y-121943904D01*
X93065976Y-121991523D01*
X93018357Y-121991523D01*
X92923119Y-121943904D01*
X92875500Y-121896285D01*
X92827880Y-121801047D01*
X92827880Y-121610571D01*
X92875500Y-121515333D01*
X92923119Y-121467714D01*
X93018357Y-121420095D01*
X93065976Y-121420095D01*
X93161214Y-121467714D01*
X93208833Y-121515333D01*
X93256452Y-121610571D01*
X93256452Y-121801047D01*
X93304071Y-121896285D01*
X93351690Y-121943904D01*
X93446928Y-121991523D01*
X93637404Y-121991523D01*
X93732642Y-121943904D01*
X93780261Y-121896285D01*
X93827880Y-121801047D01*
X93827880Y-121610571D01*
X93780261Y-121515333D01*
X93732642Y-121467714D01*
X93637404Y-121420095D01*
X93446928Y-121420095D01*
X93351690Y-121467714D01*
X93304071Y-121515333D01*
X93256452Y-121610571D01*
%TO.C,C22*%
X90006422Y-113870977D02*
X90054041Y-113918596D01*
X90101660Y-114061453D01*
X90101660Y-114156691D01*
X90054041Y-114299548D01*
X89958803Y-114394786D01*
X89863565Y-114442405D01*
X89673089Y-114490024D01*
X89530232Y-114490024D01*
X89339756Y-114442405D01*
X89244518Y-114394786D01*
X89149280Y-114299548D01*
X89101660Y-114156691D01*
X89101660Y-114061453D01*
X89149280Y-113918596D01*
X89196899Y-113870977D01*
X89196899Y-113490024D02*
X89149280Y-113442405D01*
X89101660Y-113347167D01*
X89101660Y-113109072D01*
X89149280Y-113013834D01*
X89196899Y-112966215D01*
X89292137Y-112918596D01*
X89387375Y-112918596D01*
X89530232Y-112966215D01*
X90101660Y-113537643D01*
X90101660Y-112918596D01*
X89196899Y-112537643D02*
X89149280Y-112490024D01*
X89101660Y-112394786D01*
X89101660Y-112156691D01*
X89149280Y-112061453D01*
X89196899Y-112013834D01*
X89292137Y-111966215D01*
X89387375Y-111966215D01*
X89530232Y-112013834D01*
X90101660Y-112585262D01*
X90101660Y-111966215D01*
%TO.C,J7*%
X101841666Y-127087380D02*
X101841666Y-127801666D01*
X101794047Y-127944523D01*
X101698809Y-128039761D01*
X101555952Y-128087380D01*
X101460714Y-128087380D01*
X102222619Y-127087380D02*
X102889285Y-127087380D01*
X102460714Y-128087380D01*
%TO.C,J5*%
X83691666Y-127087380D02*
X83691666Y-127801666D01*
X83644047Y-127944523D01*
X83548809Y-128039761D01*
X83405952Y-128087380D01*
X83310714Y-128087380D01*
X84644047Y-127087380D02*
X84167857Y-127087380D01*
X84120238Y-127563571D01*
X84167857Y-127515952D01*
X84263095Y-127468333D01*
X84501190Y-127468333D01*
X84596428Y-127515952D01*
X84644047Y-127563571D01*
X84691666Y-127658809D01*
X84691666Y-127896904D01*
X84644047Y-127992142D01*
X84596428Y-128039761D01*
X84501190Y-128087380D01*
X84263095Y-128087380D01*
X84167857Y-128039761D01*
X84120238Y-127992142D01*
%TO.C,J2*%
X71041666Y-75041380D02*
X71041666Y-75755666D01*
X70994047Y-75898523D01*
X70898809Y-75993761D01*
X70755952Y-76041380D01*
X70660714Y-76041380D01*
X71470238Y-75136619D02*
X71517857Y-75089000D01*
X71613095Y-75041380D01*
X71851190Y-75041380D01*
X71946428Y-75089000D01*
X71994047Y-75136619D01*
X72041666Y-75231857D01*
X72041666Y-75327095D01*
X71994047Y-75469952D01*
X71422619Y-76041380D01*
X72041666Y-76041380D01*
%TO.C,J3*%
X68667380Y-96853333D02*
X69381666Y-96853333D01*
X69524523Y-96900952D01*
X69619761Y-96996190D01*
X69667380Y-97139047D01*
X69667380Y-97234285D01*
X68667380Y-96472380D02*
X68667380Y-95853333D01*
X69048333Y-96186666D01*
X69048333Y-96043809D01*
X69095952Y-95948571D01*
X69143571Y-95900952D01*
X69238809Y-95853333D01*
X69476904Y-95853333D01*
X69572142Y-95900952D01*
X69619761Y-95948571D01*
X69667380Y-96043809D01*
X69667380Y-96329523D01*
X69619761Y-96424761D01*
X69572142Y-96472380D01*
%TO.C,J4*%
X68667380Y-119713333D02*
X69381666Y-119713333D01*
X69524523Y-119760952D01*
X69619761Y-119856190D01*
X69667380Y-119999047D01*
X69667380Y-120094285D01*
X69000714Y-118808571D02*
X69667380Y-118808571D01*
X68619761Y-119046666D02*
X69334047Y-119284761D01*
X69334047Y-118665714D01*
%TO.C,J11*%
X89490476Y-79302380D02*
X89490476Y-80016666D01*
X89442857Y-80159523D01*
X89347619Y-80254761D01*
X89204761Y-80302380D01*
X89109523Y-80302380D01*
X90490476Y-80302380D02*
X89919047Y-80302380D01*
X90204761Y-80302380D02*
X90204761Y-79302380D01*
X90109523Y-79445238D01*
X90014285Y-79540476D01*
X89919047Y-79588095D01*
X91442857Y-80302380D02*
X90871428Y-80302380D01*
X91157142Y-80302380D02*
X91157142Y-79302380D01*
X91061904Y-79445238D01*
X90966666Y-79540476D01*
X90871428Y-79588095D01*
D13*
X88661857Y-82268190D02*
X88376142Y-82268190D01*
X88519000Y-82268190D02*
X88519000Y-81768190D01*
X88471380Y-81839619D01*
X88423761Y-81887238D01*
X88376142Y-81911047D01*
D10*
%TO.C,J8*%
X85366666Y-83102380D02*
X85366666Y-83816666D01*
X85319047Y-83959523D01*
X85223809Y-84054761D01*
X85080952Y-84102380D01*
X84985714Y-84102380D01*
X85985714Y-83530952D02*
X85890476Y-83483333D01*
X85842857Y-83435714D01*
X85795238Y-83340476D01*
X85795238Y-83292857D01*
X85842857Y-83197619D01*
X85890476Y-83150000D01*
X85985714Y-83102380D01*
X86176190Y-83102380D01*
X86271428Y-83150000D01*
X86319047Y-83197619D01*
X86366666Y-83292857D01*
X86366666Y-83340476D01*
X86319047Y-83435714D01*
X86271428Y-83483333D01*
X86176190Y-83530952D01*
X85985714Y-83530952D01*
X85890476Y-83578571D01*
X85842857Y-83626190D01*
X85795238Y-83721428D01*
X85795238Y-83911904D01*
X85842857Y-84007142D01*
X85890476Y-84054761D01*
X85985714Y-84102380D01*
X86176190Y-84102380D01*
X86271428Y-84054761D01*
X86319047Y-84007142D01*
X86366666Y-83911904D01*
X86366666Y-83721428D01*
X86319047Y-83626190D01*
X86271428Y-83578571D01*
X86176190Y-83530952D01*
%TO.C,J9*%
X85566666Y-115302380D02*
X85566666Y-116016666D01*
X85519047Y-116159523D01*
X85423809Y-116254761D01*
X85280952Y-116302380D01*
X85185714Y-116302380D01*
X86090476Y-116302380D02*
X86280952Y-116302380D01*
X86376190Y-116254761D01*
X86423809Y-116207142D01*
X86519047Y-116064285D01*
X86566666Y-115873809D01*
X86566666Y-115492857D01*
X86519047Y-115397619D01*
X86471428Y-115350000D01*
X86376190Y-115302380D01*
X86185714Y-115302380D01*
X86090476Y-115350000D01*
X86042857Y-115397619D01*
X85995238Y-115492857D01*
X85995238Y-115730952D01*
X86042857Y-115826190D01*
X86090476Y-115873809D01*
X86185714Y-115921428D01*
X86376190Y-115921428D01*
X86471428Y-115873809D01*
X86519047Y-115826190D01*
X86566666Y-115730952D01*
%TO.C,J10*%
X93190476Y-107702380D02*
X93190476Y-108416666D01*
X93142857Y-108559523D01*
X93047619Y-108654761D01*
X92904761Y-108702380D01*
X92809523Y-108702380D01*
X94190476Y-108702380D02*
X93619047Y-108702380D01*
X93904761Y-108702380D02*
X93904761Y-107702380D01*
X93809523Y-107845238D01*
X93714285Y-107940476D01*
X93619047Y-107988095D01*
X94809523Y-107702380D02*
X94904761Y-107702380D01*
X95000000Y-107750000D01*
X95047619Y-107797619D01*
X95095238Y-107892857D01*
X95142857Y-108083333D01*
X95142857Y-108321428D01*
X95095238Y-108511904D01*
X95047619Y-108607142D01*
X95000000Y-108654761D01*
X94904761Y-108702380D01*
X94809523Y-108702380D01*
X94714285Y-108654761D01*
X94666666Y-108607142D01*
X94619047Y-108511904D01*
X94571428Y-108321428D01*
X94571428Y-108083333D01*
X94619047Y-107892857D01*
X94666666Y-107797619D01*
X94714285Y-107750000D01*
X94809523Y-107702380D01*
%TO.C,J1*%
X116386666Y-75402380D02*
X116386666Y-76116666D01*
X116339047Y-76259523D01*
X116243809Y-76354761D01*
X116100952Y-76402380D01*
X116005714Y-76402380D01*
X117386666Y-76402380D02*
X116815238Y-76402380D01*
X117100952Y-76402380D02*
X117100952Y-75402380D01*
X117005714Y-75545238D01*
X116910476Y-75640476D01*
X116815238Y-75688095D01*
D13*
X115431857Y-68956190D02*
X115146142Y-68956190D01*
X115289000Y-68956190D02*
X115289000Y-68456190D01*
X115241380Y-68527619D01*
X115193761Y-68575238D01*
X115146142Y-68599047D01*
D10*
%TO.C,J6*%
X114746946Y-108452380D02*
X114746946Y-109166666D01*
X114699327Y-109309523D01*
X114604089Y-109404761D01*
X114461232Y-109452380D01*
X114365994Y-109452380D01*
X115651708Y-108452380D02*
X115461232Y-108452380D01*
X115365994Y-108500000D01*
X115318375Y-108547619D01*
X115223137Y-108690476D01*
X115175518Y-108880952D01*
X115175518Y-109261904D01*
X115223137Y-109357142D01*
X115270756Y-109404761D01*
X115365994Y-109452380D01*
X115556470Y-109452380D01*
X115651708Y-109404761D01*
X115699327Y-109357142D01*
X115746946Y-109261904D01*
X115746946Y-109023809D01*
X115699327Y-108928571D01*
X115651708Y-108880952D01*
X115556470Y-108833333D01*
X115365994Y-108833333D01*
X115270756Y-108880952D01*
X115223137Y-108928571D01*
X115175518Y-109023809D01*
%TO.C,U1*%
X91948095Y-95177380D02*
X91948095Y-95986904D01*
X91995714Y-96082142D01*
X92043333Y-96129761D01*
X92138571Y-96177380D01*
X92329047Y-96177380D01*
X92424285Y-96129761D01*
X92471904Y-96082142D01*
X92519523Y-95986904D01*
X92519523Y-95177380D01*
X93519523Y-96177380D02*
X92948095Y-96177380D01*
X93233809Y-96177380D02*
X93233809Y-95177380D01*
X93138571Y-95320238D01*
X93043333Y-95415476D01*
X92948095Y-95463095D01*
%TO.C,L6*%
X88426033Y-124024380D02*
X87949842Y-124024380D01*
X87949842Y-123024380D01*
X89187938Y-123024380D02*
X88997461Y-123024380D01*
X88902223Y-123072000D01*
X88854604Y-123119619D01*
X88759366Y-123262476D01*
X88711747Y-123452952D01*
X88711747Y-123833904D01*
X88759366Y-123929142D01*
X88806985Y-123976761D01*
X88902223Y-124024380D01*
X89092700Y-124024380D01*
X89187938Y-123976761D01*
X89235557Y-123929142D01*
X89283176Y-123833904D01*
X89283176Y-123595809D01*
X89235557Y-123500571D01*
X89187938Y-123452952D01*
X89092700Y-123405333D01*
X88902223Y-123405333D01*
X88806985Y-123452952D01*
X88759366Y-123500571D01*
X88711747Y-123595809D01*
D14*
%TO.C,C1*%
X108788252Y-73917640D02*
X107365748Y-73917640D01*
X108788252Y-71197640D02*
X107365748Y-71197640D01*
%TO.C,D1*%
X111634000Y-74266000D02*
X114934000Y-74266000D01*
X114934000Y-74266000D02*
X114934000Y-68866000D01*
X111634000Y-74266000D02*
X111634000Y-68866000D01*
%TO.C,R1*%
X79866258Y-76312500D02*
X79391742Y-76312500D01*
X79866258Y-77357500D02*
X79391742Y-77357500D01*
%TO.C,R2*%
X76056258Y-76312500D02*
X75581742Y-76312500D01*
X76056258Y-77357500D02*
X75581742Y-77357500D01*
%TO.C,R3*%
X71104020Y-88020122D02*
X71104020Y-88494638D01*
X70059020Y-88020122D02*
X70059020Y-88494638D01*
%TO.C,R4*%
X71109100Y-91837742D02*
X71109100Y-92312258D01*
X70064100Y-91837742D02*
X70064100Y-92312258D01*
%TO.C,R5*%
X71109100Y-110900442D02*
X71109100Y-111374958D01*
X70064100Y-110900442D02*
X70064100Y-111374958D01*
%TO.C,R6*%
X70076800Y-114659642D02*
X70076800Y-115134158D01*
X71121800Y-114659642D02*
X71121800Y-115134158D01*
%TO.C,R7*%
X75530942Y-126887500D02*
X76005458Y-126887500D01*
X75530942Y-125842500D02*
X76005458Y-125842500D01*
%TO.C,R8*%
X79353642Y-125842500D02*
X79828158Y-125842500D01*
X79353642Y-126887500D02*
X79828158Y-126887500D01*
%TO.C,R10*%
X95139742Y-125744500D02*
X95614258Y-125744500D01*
X95139742Y-124699500D02*
X95614258Y-124699500D01*
%TO.C,R11*%
X95614258Y-126604500D02*
X95139742Y-126604500D01*
X95614258Y-127649500D02*
X95139742Y-127649500D01*
%TO.C,R20*%
X92566258Y-125744500D02*
X92091742Y-125744500D01*
X92566258Y-124699500D02*
X92091742Y-124699500D01*
%TO.C,R21*%
X92103742Y-126604500D02*
X92578258Y-126604500D01*
X92103742Y-127649500D02*
X92578258Y-127649500D01*
%TO.C,C2*%
X109345000Y-69316420D02*
X109345000Y-69597580D01*
X110365000Y-69316420D02*
X110365000Y-69597580D01*
%TO.C,C3*%
X81028000Y-79515580D02*
X81028000Y-79234420D01*
X80008000Y-79515580D02*
X80008000Y-79234420D01*
%TO.C,C4*%
X78230000Y-79515580D02*
X78230000Y-79234420D01*
X79250000Y-79515580D02*
X79250000Y-79234420D01*
%TO.C,C5*%
X76198000Y-79515580D02*
X76198000Y-79234420D01*
X77218000Y-79515580D02*
X77218000Y-79234420D01*
%TO.C,C6*%
X75440000Y-79515580D02*
X75440000Y-79234420D01*
X74420000Y-79515580D02*
X74420000Y-79234420D01*
%TO.C,C7*%
X73262100Y-86858380D02*
X72980940Y-86858380D01*
X73262100Y-87878380D02*
X72980940Y-87878380D01*
%TO.C,C8*%
X73262100Y-88636380D02*
X72980940Y-88636380D01*
X73262100Y-89656380D02*
X72980940Y-89656380D01*
%TO.C,C9*%
X73267180Y-91696000D02*
X72986020Y-91696000D01*
X73267180Y-90676000D02*
X72986020Y-90676000D01*
%TO.C,C10*%
X73267180Y-92454000D02*
X72986020Y-92454000D01*
X73267180Y-93474000D02*
X72986020Y-93474000D01*
%TO.C,C11*%
X73267180Y-110758700D02*
X72986020Y-110758700D01*
X73267180Y-109738700D02*
X72986020Y-109738700D01*
%TO.C,C12*%
X73267180Y-111516700D02*
X72986020Y-111516700D01*
X73267180Y-112536700D02*
X72986020Y-112536700D01*
%TO.C,C13*%
X73279880Y-114517900D02*
X72998720Y-114517900D01*
X73279880Y-113497900D02*
X72998720Y-113497900D01*
%TO.C,C14*%
X73279880Y-115275900D02*
X72998720Y-115275900D01*
X73279880Y-116295900D02*
X72998720Y-116295900D01*
%TO.C,C15*%
X75389200Y-123684420D02*
X75389200Y-123965580D01*
X74369200Y-123684420D02*
X74369200Y-123965580D01*
%TO.C,C16*%
X76147200Y-123684420D02*
X76147200Y-123965580D01*
X77167200Y-123684420D02*
X77167200Y-123965580D01*
%TO.C,C17*%
X78191900Y-123684420D02*
X78191900Y-123965580D01*
X79211900Y-123684420D02*
X79211900Y-123965580D01*
%TO.C,C18*%
X79969900Y-123684420D02*
X79969900Y-123965580D01*
X80989900Y-123684420D02*
X80989900Y-123965580D01*
%TO.C,C23*%
X83954080Y-80963380D02*
X83954080Y-80682220D01*
X82934080Y-80963380D02*
X82934080Y-80682220D01*
%TO.C,C37*%
X93410500Y-122822580D02*
X93410500Y-122541420D01*
X92390500Y-122822580D02*
X92390500Y-122541420D01*
%TO.C,C38*%
X94295500Y-122822580D02*
X94295500Y-122541420D01*
X95315500Y-122822580D02*
X95315500Y-122541420D01*
%TO.C,C22*%
X88729280Y-113087540D02*
X88729280Y-113368700D01*
X87709280Y-113087540D02*
X87709280Y-113368700D01*
%TO.C,J7*%
X87525000Y-128588000D02*
X104125000Y-128588000D01*
X104125000Y-128588000D02*
X104125000Y-133588000D01*
X87525000Y-133588000D02*
X87525000Y-128588000D01*
X104125000Y-133588000D02*
X87525000Y-133588000D01*
%TO.C,J5*%
X85975000Y-133588000D02*
X69375000Y-133588000D01*
X69375000Y-133588000D02*
X69375000Y-128588000D01*
X85975000Y-128588000D02*
X85975000Y-133588000D01*
X69375000Y-128588000D02*
X85975000Y-128588000D01*
%TO.C,J2*%
X69425000Y-69636000D02*
X86025000Y-69636000D01*
X86025000Y-69636000D02*
X86025000Y-74636000D01*
X69425000Y-74636000D02*
X69425000Y-69636000D01*
X86025000Y-74636000D02*
X69425000Y-74636000D01*
%TO.C,J3*%
X68262000Y-81870000D02*
X68262000Y-98470000D01*
X63262000Y-81870000D02*
X68262000Y-81870000D01*
X68262000Y-98470000D02*
X63262000Y-98470000D01*
X63262000Y-98470000D02*
X63262000Y-81870000D01*
%TO.C,J4*%
X63262000Y-121330000D02*
X63262000Y-104730000D01*
X68262000Y-104730000D02*
X68262000Y-121330000D01*
X63262000Y-104730000D02*
X68262000Y-104730000D01*
X68262000Y-121330000D02*
X63262000Y-121330000D01*
D10*
%TO.C,J11*%
X93980000Y-90932000D02*
X88900000Y-90932000D01*
X88900000Y-90932000D02*
X88900000Y-80772000D01*
X88900000Y-80772000D02*
X93980000Y-80772000D01*
X93980000Y-80772000D02*
X93980000Y-90932000D01*
%TO.C,J8*%
X84405000Y-77800000D02*
X86945000Y-77800000D01*
X84405000Y-82880000D02*
X84405000Y-77800000D01*
X86945000Y-82880000D02*
X84405000Y-82880000D01*
X86945000Y-77800000D02*
X86945000Y-82880000D01*
%TO.C,J9*%
X89410000Y-115190000D02*
X89410000Y-120270000D01*
X86870000Y-115190000D02*
X89410000Y-115190000D01*
X86870000Y-120270000D02*
X86870000Y-115190000D01*
X89410000Y-120270000D02*
X86870000Y-120270000D01*
%TO.C,J10*%
X92460000Y-109280000D02*
X95000000Y-109280000D01*
X95000000Y-114360000D02*
X92460000Y-114360000D01*
X95000000Y-109280000D02*
X95000000Y-114360000D01*
X92460000Y-114360000D02*
X92460000Y-109280000D01*
%TO.C,J1*%
X120750000Y-75080000D02*
X115670000Y-75080000D01*
X120750000Y-67460000D02*
X120750000Y-75080000D01*
X115670000Y-75080000D02*
X115670000Y-67460000D01*
X115670000Y-67460000D02*
X120750000Y-67460000D01*
D14*
%TO.C,J6*%
X128580280Y-108100000D02*
X128580280Y-107660000D01*
X128580280Y-95100000D02*
X109580280Y-95100000D01*
X109580280Y-98800000D02*
X109580280Y-98380000D01*
X128580280Y-96779000D02*
X128580280Y-95100000D01*
X111150280Y-108100000D02*
X128580280Y-108100000D01*
X128580280Y-98809000D02*
X128580280Y-98381000D01*
X109580280Y-102800000D02*
X109580280Y-100410000D01*
X109580280Y-96770000D02*
X109580280Y-95100000D01*
X128580280Y-102800000D02*
X128580280Y-100411000D01*
X125580280Y-94710000D02*
X126080280Y-94260000D01*
X125080280Y-94260000D02*
X125580280Y-94710000D01*
X109580280Y-107040000D02*
X109580280Y-104410000D01*
X126080280Y-94260000D02*
X125080280Y-94260000D01*
X128580280Y-106040000D02*
X128580280Y-104410000D01*
D10*
%TO.C,U1*%
X88010000Y-96900000D02*
X88585000Y-96900000D01*
X97410000Y-106300000D02*
X97410000Y-105725000D01*
X88010000Y-106300000D02*
X88010000Y-105725000D01*
X88010000Y-106300000D02*
X88585000Y-106300000D01*
X97410000Y-96900000D02*
X96835000Y-96900000D01*
X97410000Y-106300000D02*
X96835000Y-106300000D01*
X97410000Y-96900000D02*
X97410000Y-97475000D01*
D14*
%TO.C,L6*%
X88331448Y-124512000D02*
X88853952Y-124512000D01*
X88331448Y-125932000D02*
X88853952Y-125932000D01*
%TD*%
D15*
%TO.C,J11*%
X90170000Y-82042000D03*
X92710000Y-82042000D03*
X90170000Y-84582000D03*
X92710000Y-84582000D03*
X90170000Y-87122000D03*
X92710000Y-87122000D03*
X90170000Y-89662000D03*
X92710000Y-89662000D03*
%TD*%
%TO.C,J8*%
X85675000Y-81610000D03*
X85675000Y-79070000D03*
%TD*%
%TO.C,J9*%
X88140000Y-116460000D03*
X88140000Y-119000000D03*
%TD*%
%TO.C,J10*%
X93730000Y-110550000D03*
X93730000Y-113090000D03*
%TD*%
M02*
