%TF.GenerationSoftware,KiCad,Pcbnew,6.0.4-6f826c9f35~116~ubuntu20.04.1*%
%TF.CreationDate,2022-05-18T19:38:48+00:00*%
%TF.ProjectId,ADCoctoSPI01B,4144436f-6374-46f5-9350-493031422e6b,rev?*%
%TF.SameCoordinates,Original*%
%TF.FileFunction,Legend,Bot*%
%TF.FilePolarity,Positive*%
%FSLAX46Y46*%
G04 Gerber Fmt 4.6, Leading zero omitted, Abs format (unit mm)*
G04 Created by KiCad (PCBNEW 6.0.4-6f826c9f35~116~ubuntu20.04.1) date 2022-05-18 19:38:48*
%MOMM*%
%LPD*%
G01*
G04 APERTURE LIST*
%ADD10C,0.150000*%
%ADD11C,0.100000*%
%ADD12C,0.120000*%
G04 APERTURE END LIST*
D10*
X87200000Y-107300000D02*
X90200000Y-106900000D01*
X88700000Y-109100000D02*
X91900000Y-108400000D01*
%TO.C,U2*%
X98661904Y-76952380D02*
X98661904Y-77761904D01*
X98614285Y-77857142D01*
X98566666Y-77904761D01*
X98471428Y-77952380D01*
X98280952Y-77952380D01*
X98185714Y-77904761D01*
X98138095Y-77857142D01*
X98090476Y-77761904D01*
X98090476Y-76952380D01*
X97661904Y-77047619D02*
X97614285Y-77000000D01*
X97519047Y-76952380D01*
X97280952Y-76952380D01*
X97185714Y-77000000D01*
X97138095Y-77047619D01*
X97090476Y-77142857D01*
X97090476Y-77238095D01*
X97138095Y-77380952D01*
X97709523Y-77952380D01*
X97090476Y-77952380D01*
%TO.C,U3*%
X111000444Y-77393940D02*
X111000444Y-78203464D01*
X110952825Y-78298702D01*
X110905206Y-78346321D01*
X110809968Y-78393940D01*
X110619492Y-78393940D01*
X110524254Y-78346321D01*
X110476635Y-78298702D01*
X110429016Y-78203464D01*
X110429016Y-77393940D01*
X110048063Y-77393940D02*
X109429016Y-77393940D01*
X109762349Y-77774893D01*
X109619492Y-77774893D01*
X109524254Y-77822512D01*
X109476635Y-77870131D01*
X109429016Y-77965369D01*
X109429016Y-78203464D01*
X109476635Y-78298702D01*
X109524254Y-78346321D01*
X109619492Y-78393940D01*
X109905206Y-78393940D01*
X110000444Y-78346321D01*
X110048063Y-78298702D01*
%TO.C,R19*%
X108752380Y-109593142D02*
X108276190Y-109259809D01*
X108752380Y-109021714D02*
X107752380Y-109021714D01*
X107752380Y-109402666D01*
X107800000Y-109497904D01*
X107847619Y-109545523D01*
X107942857Y-109593142D01*
X108085714Y-109593142D01*
X108180952Y-109545523D01*
X108228571Y-109497904D01*
X108276190Y-109402666D01*
X108276190Y-109021714D01*
X108752380Y-110545523D02*
X108752380Y-109974095D01*
X108752380Y-110259809D02*
X107752380Y-110259809D01*
X107895238Y-110164571D01*
X107990476Y-110069333D01*
X108038095Y-109974095D01*
X108752380Y-111021714D02*
X108752380Y-111212190D01*
X108704761Y-111307428D01*
X108657142Y-111355047D01*
X108514285Y-111450285D01*
X108323809Y-111497904D01*
X107942857Y-111497904D01*
X107847619Y-111450285D01*
X107800000Y-111402666D01*
X107752380Y-111307428D01*
X107752380Y-111116952D01*
X107800000Y-111021714D01*
X107847619Y-110974095D01*
X107942857Y-110926476D01*
X108180952Y-110926476D01*
X108276190Y-110974095D01*
X108323809Y-111021714D01*
X108371428Y-111116952D01*
X108371428Y-111307428D01*
X108323809Y-111402666D01*
X108276190Y-111450285D01*
X108180952Y-111497904D01*
%TO.C,R11*%
X89222380Y-78532142D02*
X88746190Y-78198809D01*
X89222380Y-77960714D02*
X88222380Y-77960714D01*
X88222380Y-78341666D01*
X88270000Y-78436904D01*
X88317619Y-78484523D01*
X88412857Y-78532142D01*
X88555714Y-78532142D01*
X88650952Y-78484523D01*
X88698571Y-78436904D01*
X88746190Y-78341666D01*
X88746190Y-77960714D01*
X89222380Y-79484523D02*
X89222380Y-78913095D01*
X89222380Y-79198809D02*
X88222380Y-79198809D01*
X88365238Y-79103571D01*
X88460476Y-79008333D01*
X88508095Y-78913095D01*
X89222380Y-80436904D02*
X89222380Y-79865476D01*
X89222380Y-80151190D02*
X88222380Y-80151190D01*
X88365238Y-80055952D01*
X88460476Y-79960714D01*
X88508095Y-79865476D01*
%TO.C,R12*%
X87352380Y-84357142D02*
X86876190Y-84023809D01*
X87352380Y-83785714D02*
X86352380Y-83785714D01*
X86352380Y-84166666D01*
X86400000Y-84261904D01*
X86447619Y-84309523D01*
X86542857Y-84357142D01*
X86685714Y-84357142D01*
X86780952Y-84309523D01*
X86828571Y-84261904D01*
X86876190Y-84166666D01*
X86876190Y-83785714D01*
X87352380Y-85309523D02*
X87352380Y-84738095D01*
X87352380Y-85023809D02*
X86352380Y-85023809D01*
X86495238Y-84928571D01*
X86590476Y-84833333D01*
X86638095Y-84738095D01*
X86447619Y-85690476D02*
X86400000Y-85738095D01*
X86352380Y-85833333D01*
X86352380Y-86071428D01*
X86400000Y-86166666D01*
X86447619Y-86214285D01*
X86542857Y-86261904D01*
X86638095Y-86261904D01*
X86780952Y-86214285D01*
X87352380Y-85642857D01*
X87352380Y-86261904D01*
%TO.C,R13*%
X87352380Y-88032142D02*
X86876190Y-87698809D01*
X87352380Y-87460714D02*
X86352380Y-87460714D01*
X86352380Y-87841666D01*
X86400000Y-87936904D01*
X86447619Y-87984523D01*
X86542857Y-88032142D01*
X86685714Y-88032142D01*
X86780952Y-87984523D01*
X86828571Y-87936904D01*
X86876190Y-87841666D01*
X86876190Y-87460714D01*
X87352380Y-88984523D02*
X87352380Y-88413095D01*
X87352380Y-88698809D02*
X86352380Y-88698809D01*
X86495238Y-88603571D01*
X86590476Y-88508333D01*
X86638095Y-88413095D01*
X86352380Y-89317857D02*
X86352380Y-89936904D01*
X86733333Y-89603571D01*
X86733333Y-89746428D01*
X86780952Y-89841666D01*
X86828571Y-89889285D01*
X86923809Y-89936904D01*
X87161904Y-89936904D01*
X87257142Y-89889285D01*
X87304761Y-89841666D01*
X87352380Y-89746428D01*
X87352380Y-89460714D01*
X87304761Y-89365476D01*
X87257142Y-89317857D01*
D11*
%TO.C,R16*%
X92161904Y-81231314D02*
X91780952Y-80964647D01*
X92161904Y-80774171D02*
X91361904Y-80774171D01*
X91361904Y-81078933D01*
X91400000Y-81155123D01*
X91438095Y-81193219D01*
X91514285Y-81231314D01*
X91628571Y-81231314D01*
X91704761Y-81193219D01*
X91742857Y-81155123D01*
X91780952Y-81078933D01*
X91780952Y-80774171D01*
X92161904Y-81993219D02*
X92161904Y-81536076D01*
X92161904Y-81764647D02*
X91361904Y-81764647D01*
X91476190Y-81688457D01*
X91552380Y-81612266D01*
X91590476Y-81536076D01*
X91361904Y-82678933D02*
X91361904Y-82526552D01*
X91400000Y-82450361D01*
X91438095Y-82412266D01*
X91552380Y-82336076D01*
X91704761Y-82297980D01*
X92009523Y-82297980D01*
X92085714Y-82336076D01*
X92123809Y-82374171D01*
X92161904Y-82450361D01*
X92161904Y-82602742D01*
X92123809Y-82678933D01*
X92085714Y-82717028D01*
X92009523Y-82755123D01*
X91819047Y-82755123D01*
X91742857Y-82717028D01*
X91704761Y-82678933D01*
X91666666Y-82602742D01*
X91666666Y-82450361D01*
X91704761Y-82374171D01*
X91742857Y-82336076D01*
X91819047Y-82297980D01*
%TO.C,R17*%
X92114285Y-91961904D02*
X92380952Y-91580952D01*
X92571428Y-91961904D02*
X92571428Y-91161904D01*
X92266666Y-91161904D01*
X92190476Y-91200000D01*
X92152380Y-91238095D01*
X92114285Y-91314285D01*
X92114285Y-91428571D01*
X92152380Y-91504761D01*
X92190476Y-91542857D01*
X92266666Y-91580952D01*
X92571428Y-91580952D01*
X91352380Y-91961904D02*
X91809523Y-91961904D01*
X91580952Y-91961904D02*
X91580952Y-91161904D01*
X91657142Y-91276190D01*
X91733333Y-91352380D01*
X91809523Y-91390476D01*
X91085714Y-91161904D02*
X90552380Y-91161904D01*
X90895238Y-91961904D01*
D10*
%TO.C,R18*%
X94852380Y-93057142D02*
X94376190Y-92723809D01*
X94852380Y-92485714D02*
X93852380Y-92485714D01*
X93852380Y-92866666D01*
X93900000Y-92961904D01*
X93947619Y-93009523D01*
X94042857Y-93057142D01*
X94185714Y-93057142D01*
X94280952Y-93009523D01*
X94328571Y-92961904D01*
X94376190Y-92866666D01*
X94376190Y-92485714D01*
X94852380Y-94009523D02*
X94852380Y-93438095D01*
X94852380Y-93723809D02*
X93852380Y-93723809D01*
X93995238Y-93628571D01*
X94090476Y-93533333D01*
X94138095Y-93438095D01*
X94280952Y-94580952D02*
X94233333Y-94485714D01*
X94185714Y-94438095D01*
X94090476Y-94390476D01*
X94042857Y-94390476D01*
X93947619Y-94438095D01*
X93900000Y-94485714D01*
X93852380Y-94580952D01*
X93852380Y-94771428D01*
X93900000Y-94866666D01*
X93947619Y-94914285D01*
X94042857Y-94961904D01*
X94090476Y-94961904D01*
X94185714Y-94914285D01*
X94233333Y-94866666D01*
X94280952Y-94771428D01*
X94280952Y-94580952D01*
X94328571Y-94485714D01*
X94376190Y-94438095D01*
X94471428Y-94390476D01*
X94661904Y-94390476D01*
X94757142Y-94438095D01*
X94804761Y-94485714D01*
X94852380Y-94580952D01*
X94852380Y-94771428D01*
X94804761Y-94866666D01*
X94757142Y-94914285D01*
X94661904Y-94961904D01*
X94471428Y-94961904D01*
X94376190Y-94914285D01*
X94328571Y-94866666D01*
X94280952Y-94771428D01*
%TO.C,C26*%
X88757142Y-95557142D02*
X88804761Y-95509523D01*
X88852380Y-95366666D01*
X88852380Y-95271428D01*
X88804761Y-95128571D01*
X88709523Y-95033333D01*
X88614285Y-94985714D01*
X88423809Y-94938095D01*
X88280952Y-94938095D01*
X88090476Y-94985714D01*
X87995238Y-95033333D01*
X87900000Y-95128571D01*
X87852380Y-95271428D01*
X87852380Y-95366666D01*
X87900000Y-95509523D01*
X87947619Y-95557142D01*
X87947619Y-95938095D02*
X87900000Y-95985714D01*
X87852380Y-96080952D01*
X87852380Y-96319047D01*
X87900000Y-96414285D01*
X87947619Y-96461904D01*
X88042857Y-96509523D01*
X88138095Y-96509523D01*
X88280952Y-96461904D01*
X88852380Y-95890476D01*
X88852380Y-96509523D01*
X87852380Y-97366666D02*
X87852380Y-97176190D01*
X87900000Y-97080952D01*
X87947619Y-97033333D01*
X88090476Y-96938095D01*
X88280952Y-96890476D01*
X88661904Y-96890476D01*
X88757142Y-96938095D01*
X88804761Y-96985714D01*
X88852380Y-97080952D01*
X88852380Y-97271428D01*
X88804761Y-97366666D01*
X88757142Y-97414285D01*
X88661904Y-97461904D01*
X88423809Y-97461904D01*
X88328571Y-97414285D01*
X88280952Y-97366666D01*
X88233333Y-97271428D01*
X88233333Y-97080952D01*
X88280952Y-96985714D01*
X88328571Y-96938095D01*
X88423809Y-96890476D01*
%TO.C,C29*%
X86757142Y-107157142D02*
X86804761Y-107109523D01*
X86852380Y-106966666D01*
X86852380Y-106871428D01*
X86804761Y-106728571D01*
X86709523Y-106633333D01*
X86614285Y-106585714D01*
X86423809Y-106538095D01*
X86280952Y-106538095D01*
X86090476Y-106585714D01*
X85995238Y-106633333D01*
X85900000Y-106728571D01*
X85852380Y-106871428D01*
X85852380Y-106966666D01*
X85900000Y-107109523D01*
X85947619Y-107157142D01*
X85947619Y-107538095D02*
X85900000Y-107585714D01*
X85852380Y-107680952D01*
X85852380Y-107919047D01*
X85900000Y-108014285D01*
X85947619Y-108061904D01*
X86042857Y-108109523D01*
X86138095Y-108109523D01*
X86280952Y-108061904D01*
X86852380Y-107490476D01*
X86852380Y-108109523D01*
X86852380Y-108585714D02*
X86852380Y-108776190D01*
X86804761Y-108871428D01*
X86757142Y-108919047D01*
X86614285Y-109014285D01*
X86423809Y-109061904D01*
X86042857Y-109061904D01*
X85947619Y-109014285D01*
X85900000Y-108966666D01*
X85852380Y-108871428D01*
X85852380Y-108680952D01*
X85900000Y-108585714D01*
X85947619Y-108538095D01*
X86042857Y-108490476D01*
X86280952Y-108490476D01*
X86376190Y-108538095D01*
X86423809Y-108585714D01*
X86471428Y-108680952D01*
X86471428Y-108871428D01*
X86423809Y-108966666D01*
X86376190Y-109014285D01*
X86280952Y-109061904D01*
%TO.C,C32*%
X88857142Y-108757142D02*
X88904761Y-108709523D01*
X88952380Y-108566666D01*
X88952380Y-108471428D01*
X88904761Y-108328571D01*
X88809523Y-108233333D01*
X88714285Y-108185714D01*
X88523809Y-108138095D01*
X88380952Y-108138095D01*
X88190476Y-108185714D01*
X88095238Y-108233333D01*
X88000000Y-108328571D01*
X87952380Y-108471428D01*
X87952380Y-108566666D01*
X88000000Y-108709523D01*
X88047619Y-108757142D01*
X87952380Y-109090476D02*
X87952380Y-109709523D01*
X88333333Y-109376190D01*
X88333333Y-109519047D01*
X88380952Y-109614285D01*
X88428571Y-109661904D01*
X88523809Y-109709523D01*
X88761904Y-109709523D01*
X88857142Y-109661904D01*
X88904761Y-109614285D01*
X88952380Y-109519047D01*
X88952380Y-109233333D01*
X88904761Y-109138095D01*
X88857142Y-109090476D01*
X88047619Y-110090476D02*
X88000000Y-110138095D01*
X87952380Y-110233333D01*
X87952380Y-110471428D01*
X88000000Y-110566666D01*
X88047619Y-110614285D01*
X88142857Y-110661904D01*
X88238095Y-110661904D01*
X88380952Y-110614285D01*
X88952380Y-110042857D01*
X88952380Y-110661904D01*
%TO.C,C23*%
X113039142Y-109605142D02*
X113086761Y-109557523D01*
X113134380Y-109414666D01*
X113134380Y-109319428D01*
X113086761Y-109176571D01*
X112991523Y-109081333D01*
X112896285Y-109033714D01*
X112705809Y-108986095D01*
X112562952Y-108986095D01*
X112372476Y-109033714D01*
X112277238Y-109081333D01*
X112182000Y-109176571D01*
X112134380Y-109319428D01*
X112134380Y-109414666D01*
X112182000Y-109557523D01*
X112229619Y-109605142D01*
X112229619Y-109986095D02*
X112182000Y-110033714D01*
X112134380Y-110128952D01*
X112134380Y-110367047D01*
X112182000Y-110462285D01*
X112229619Y-110509904D01*
X112324857Y-110557523D01*
X112420095Y-110557523D01*
X112562952Y-110509904D01*
X113134380Y-109938476D01*
X113134380Y-110557523D01*
X112134380Y-110890857D02*
X112134380Y-111509904D01*
X112515333Y-111176571D01*
X112515333Y-111319428D01*
X112562952Y-111414666D01*
X112610571Y-111462285D01*
X112705809Y-111509904D01*
X112943904Y-111509904D01*
X113039142Y-111462285D01*
X113086761Y-111414666D01*
X113134380Y-111319428D01*
X113134380Y-111033714D01*
X113086761Y-110938476D01*
X113039142Y-110890857D01*
%TO.C,C18*%
X92414342Y-122707142D02*
X92461961Y-122659523D01*
X92509580Y-122516666D01*
X92509580Y-122421428D01*
X92461961Y-122278571D01*
X92366723Y-122183333D01*
X92271485Y-122135714D01*
X92081009Y-122088095D01*
X91938152Y-122088095D01*
X91747676Y-122135714D01*
X91652438Y-122183333D01*
X91557200Y-122278571D01*
X91509580Y-122421428D01*
X91509580Y-122516666D01*
X91557200Y-122659523D01*
X91604819Y-122707142D01*
X92509580Y-123659523D02*
X92509580Y-123088095D01*
X92509580Y-123373809D02*
X91509580Y-123373809D01*
X91652438Y-123278571D01*
X91747676Y-123183333D01*
X91795295Y-123088095D01*
X91938152Y-124230952D02*
X91890533Y-124135714D01*
X91842914Y-124088095D01*
X91747676Y-124040476D01*
X91700057Y-124040476D01*
X91604819Y-124088095D01*
X91557200Y-124135714D01*
X91509580Y-124230952D01*
X91509580Y-124421428D01*
X91557200Y-124516666D01*
X91604819Y-124564285D01*
X91700057Y-124611904D01*
X91747676Y-124611904D01*
X91842914Y-124564285D01*
X91890533Y-124516666D01*
X91938152Y-124421428D01*
X91938152Y-124230952D01*
X91985771Y-124135714D01*
X92033390Y-124088095D01*
X92128628Y-124040476D01*
X92319104Y-124040476D01*
X92414342Y-124088095D01*
X92461961Y-124135714D01*
X92509580Y-124230952D01*
X92509580Y-124421428D01*
X92461961Y-124516666D01*
X92414342Y-124564285D01*
X92319104Y-124611904D01*
X92128628Y-124611904D01*
X92033390Y-124564285D01*
X91985771Y-124516666D01*
X91938152Y-124421428D01*
%TO.C,C24*%
X91981257Y-70057142D02*
X92028876Y-70104761D01*
X92171733Y-70152380D01*
X92266971Y-70152380D01*
X92409828Y-70104761D01*
X92505066Y-70009523D01*
X92552685Y-69914285D01*
X92600304Y-69723809D01*
X92600304Y-69580952D01*
X92552685Y-69390476D01*
X92505066Y-69295238D01*
X92409828Y-69200000D01*
X92266971Y-69152380D01*
X92171733Y-69152380D01*
X92028876Y-69200000D01*
X91981257Y-69247619D01*
X91600304Y-69247619D02*
X91552685Y-69200000D01*
X91457447Y-69152380D01*
X91219352Y-69152380D01*
X91124114Y-69200000D01*
X91076495Y-69247619D01*
X91028876Y-69342857D01*
X91028876Y-69438095D01*
X91076495Y-69580952D01*
X91647923Y-70152380D01*
X91028876Y-70152380D01*
X90171733Y-69485714D02*
X90171733Y-70152380D01*
X90409828Y-69104761D02*
X90647923Y-69819047D01*
X90028876Y-69819047D01*
%TO.C,C25*%
X106942857Y-67957142D02*
X106990476Y-68004761D01*
X107133333Y-68052380D01*
X107228571Y-68052380D01*
X107371428Y-68004761D01*
X107466666Y-67909523D01*
X107514285Y-67814285D01*
X107561904Y-67623809D01*
X107561904Y-67480952D01*
X107514285Y-67290476D01*
X107466666Y-67195238D01*
X107371428Y-67100000D01*
X107228571Y-67052380D01*
X107133333Y-67052380D01*
X106990476Y-67100000D01*
X106942857Y-67147619D01*
X106561904Y-67147619D02*
X106514285Y-67100000D01*
X106419047Y-67052380D01*
X106180952Y-67052380D01*
X106085714Y-67100000D01*
X106038095Y-67147619D01*
X105990476Y-67242857D01*
X105990476Y-67338095D01*
X106038095Y-67480952D01*
X106609523Y-68052380D01*
X105990476Y-68052380D01*
X105085714Y-67052380D02*
X105561904Y-67052380D01*
X105609523Y-67528571D01*
X105561904Y-67480952D01*
X105466666Y-67433333D01*
X105228571Y-67433333D01*
X105133333Y-67480952D01*
X105085714Y-67528571D01*
X105038095Y-67623809D01*
X105038095Y-67861904D01*
X105085714Y-67957142D01*
X105133333Y-68004761D01*
X105228571Y-68052380D01*
X105466666Y-68052380D01*
X105561904Y-68004761D01*
X105609523Y-67957142D01*
%TO.C,C35*%
X92814285Y-72585714D02*
X92852380Y-72623809D01*
X92966666Y-72661904D01*
X93042857Y-72661904D01*
X93157142Y-72623809D01*
X93233333Y-72547619D01*
X93271428Y-72471428D01*
X93309523Y-72319047D01*
X93309523Y-72204761D01*
X93271428Y-72052380D01*
X93233333Y-71976190D01*
X93157142Y-71900000D01*
X93042857Y-71861904D01*
X92966666Y-71861904D01*
X92852380Y-71900000D01*
X92814285Y-71938095D01*
X92547619Y-71861904D02*
X92052380Y-71861904D01*
X92319047Y-72166666D01*
X92204761Y-72166666D01*
X92128571Y-72204761D01*
X92090476Y-72242857D01*
X92052380Y-72319047D01*
X92052380Y-72509523D01*
X92090476Y-72585714D01*
X92128571Y-72623809D01*
X92204761Y-72661904D01*
X92433333Y-72661904D01*
X92509523Y-72623809D01*
X92547619Y-72585714D01*
X91328571Y-71861904D02*
X91709523Y-71861904D01*
X91747619Y-72242857D01*
X91709523Y-72204761D01*
X91633333Y-72166666D01*
X91442857Y-72166666D01*
X91366666Y-72204761D01*
X91328571Y-72242857D01*
X91290476Y-72319047D01*
X91290476Y-72509523D01*
X91328571Y-72585714D01*
X91366666Y-72623809D01*
X91442857Y-72661904D01*
X91633333Y-72661904D01*
X91709523Y-72623809D01*
X91747619Y-72585714D01*
%TO.C,C36*%
X102965542Y-69974922D02*
X103013161Y-69927303D01*
X103060780Y-69784446D01*
X103060780Y-69689208D01*
X103013161Y-69546351D01*
X102917923Y-69451113D01*
X102822685Y-69403494D01*
X102632209Y-69355875D01*
X102489352Y-69355875D01*
X102298876Y-69403494D01*
X102203638Y-69451113D01*
X102108400Y-69546351D01*
X102060780Y-69689208D01*
X102060780Y-69784446D01*
X102108400Y-69927303D01*
X102156019Y-69974922D01*
X102060780Y-70308256D02*
X102060780Y-70927303D01*
X102441733Y-70593970D01*
X102441733Y-70736827D01*
X102489352Y-70832065D01*
X102536971Y-70879684D01*
X102632209Y-70927303D01*
X102870304Y-70927303D01*
X102965542Y-70879684D01*
X103013161Y-70832065D01*
X103060780Y-70736827D01*
X103060780Y-70451113D01*
X103013161Y-70355875D01*
X102965542Y-70308256D01*
X102060780Y-71784446D02*
X102060780Y-71593970D01*
X102108400Y-71498732D01*
X102156019Y-71451113D01*
X102298876Y-71355875D01*
X102489352Y-71308256D01*
X102870304Y-71308256D01*
X102965542Y-71355875D01*
X103013161Y-71403494D01*
X103060780Y-71498732D01*
X103060780Y-71689208D01*
X103013161Y-71784446D01*
X102965542Y-71832065D01*
X102870304Y-71879684D01*
X102632209Y-71879684D01*
X102536971Y-71832065D01*
X102489352Y-71784446D01*
X102441733Y-71689208D01*
X102441733Y-71498732D01*
X102489352Y-71403494D01*
X102536971Y-71355875D01*
X102632209Y-71308256D01*
%TO.C,C27*%
X98957142Y-112357142D02*
X99004761Y-112309523D01*
X99052380Y-112166666D01*
X99052380Y-112071428D01*
X99004761Y-111928571D01*
X98909523Y-111833333D01*
X98814285Y-111785714D01*
X98623809Y-111738095D01*
X98480952Y-111738095D01*
X98290476Y-111785714D01*
X98195238Y-111833333D01*
X98100000Y-111928571D01*
X98052380Y-112071428D01*
X98052380Y-112166666D01*
X98100000Y-112309523D01*
X98147619Y-112357142D01*
X98147619Y-112738095D02*
X98100000Y-112785714D01*
X98052380Y-112880952D01*
X98052380Y-113119047D01*
X98100000Y-113214285D01*
X98147619Y-113261904D01*
X98242857Y-113309523D01*
X98338095Y-113309523D01*
X98480952Y-113261904D01*
X99052380Y-112690476D01*
X99052380Y-113309523D01*
X98052380Y-113642857D02*
X98052380Y-114309523D01*
X99052380Y-113880952D01*
%TO.C,C30*%
X97257142Y-90757142D02*
X97304761Y-90709523D01*
X97352380Y-90566666D01*
X97352380Y-90471428D01*
X97304761Y-90328571D01*
X97209523Y-90233333D01*
X97114285Y-90185714D01*
X96923809Y-90138095D01*
X96780952Y-90138095D01*
X96590476Y-90185714D01*
X96495238Y-90233333D01*
X96400000Y-90328571D01*
X96352380Y-90471428D01*
X96352380Y-90566666D01*
X96400000Y-90709523D01*
X96447619Y-90757142D01*
X96352380Y-91090476D02*
X96352380Y-91709523D01*
X96733333Y-91376190D01*
X96733333Y-91519047D01*
X96780952Y-91614285D01*
X96828571Y-91661904D01*
X96923809Y-91709523D01*
X97161904Y-91709523D01*
X97257142Y-91661904D01*
X97304761Y-91614285D01*
X97352380Y-91519047D01*
X97352380Y-91233333D01*
X97304761Y-91138095D01*
X97257142Y-91090476D01*
X96352380Y-92328571D02*
X96352380Y-92423809D01*
X96400000Y-92519047D01*
X96447619Y-92566666D01*
X96542857Y-92614285D01*
X96733333Y-92661904D01*
X96971428Y-92661904D01*
X97161904Y-92614285D01*
X97257142Y-92566666D01*
X97304761Y-92519047D01*
X97352380Y-92423809D01*
X97352380Y-92328571D01*
X97304761Y-92233333D01*
X97257142Y-92185714D01*
X97161904Y-92138095D01*
X96971428Y-92090476D01*
X96733333Y-92090476D01*
X96542857Y-92138095D01*
X96447619Y-92185714D01*
X96400000Y-92233333D01*
X96352380Y-92328571D01*
%TO.C,C33*%
X97457142Y-112257142D02*
X97504761Y-112209523D01*
X97552380Y-112066666D01*
X97552380Y-111971428D01*
X97504761Y-111828571D01*
X97409523Y-111733333D01*
X97314285Y-111685714D01*
X97123809Y-111638095D01*
X96980952Y-111638095D01*
X96790476Y-111685714D01*
X96695238Y-111733333D01*
X96600000Y-111828571D01*
X96552380Y-111971428D01*
X96552380Y-112066666D01*
X96600000Y-112209523D01*
X96647619Y-112257142D01*
X96552380Y-112590476D02*
X96552380Y-113209523D01*
X96933333Y-112876190D01*
X96933333Y-113019047D01*
X96980952Y-113114285D01*
X97028571Y-113161904D01*
X97123809Y-113209523D01*
X97361904Y-113209523D01*
X97457142Y-113161904D01*
X97504761Y-113114285D01*
X97552380Y-113019047D01*
X97552380Y-112733333D01*
X97504761Y-112638095D01*
X97457142Y-112590476D01*
X96552380Y-113542857D02*
X96552380Y-114161904D01*
X96933333Y-113828571D01*
X96933333Y-113971428D01*
X96980952Y-114066666D01*
X97028571Y-114114285D01*
X97123809Y-114161904D01*
X97361904Y-114161904D01*
X97457142Y-114114285D01*
X97504761Y-114066666D01*
X97552380Y-113971428D01*
X97552380Y-113685714D01*
X97504761Y-113590476D01*
X97457142Y-113542857D01*
%TO.C,C28*%
X95942857Y-96557142D02*
X95990476Y-96604761D01*
X96133333Y-96652380D01*
X96228571Y-96652380D01*
X96371428Y-96604761D01*
X96466666Y-96509523D01*
X96514285Y-96414285D01*
X96561904Y-96223809D01*
X96561904Y-96080952D01*
X96514285Y-95890476D01*
X96466666Y-95795238D01*
X96371428Y-95700000D01*
X96228571Y-95652380D01*
X96133333Y-95652380D01*
X95990476Y-95700000D01*
X95942857Y-95747619D01*
X95561904Y-95747619D02*
X95514285Y-95700000D01*
X95419047Y-95652380D01*
X95180952Y-95652380D01*
X95085714Y-95700000D01*
X95038095Y-95747619D01*
X94990476Y-95842857D01*
X94990476Y-95938095D01*
X95038095Y-96080952D01*
X95609523Y-96652380D01*
X94990476Y-96652380D01*
X94419047Y-96080952D02*
X94514285Y-96033333D01*
X94561904Y-95985714D01*
X94609523Y-95890476D01*
X94609523Y-95842857D01*
X94561904Y-95747619D01*
X94514285Y-95700000D01*
X94419047Y-95652380D01*
X94228571Y-95652380D01*
X94133333Y-95700000D01*
X94085714Y-95747619D01*
X94038095Y-95842857D01*
X94038095Y-95890476D01*
X94085714Y-95985714D01*
X94133333Y-96033333D01*
X94228571Y-96080952D01*
X94419047Y-96080952D01*
X94514285Y-96128571D01*
X94561904Y-96176190D01*
X94609523Y-96271428D01*
X94609523Y-96461904D01*
X94561904Y-96557142D01*
X94514285Y-96604761D01*
X94419047Y-96652380D01*
X94228571Y-96652380D01*
X94133333Y-96604761D01*
X94085714Y-96557142D01*
X94038095Y-96461904D01*
X94038095Y-96271428D01*
X94085714Y-96176190D01*
X94133333Y-96128571D01*
X94228571Y-96080952D01*
%TO.C,C22*%
X95292857Y-108857142D02*
X95340476Y-108904761D01*
X95483333Y-108952380D01*
X95578571Y-108952380D01*
X95721428Y-108904761D01*
X95816666Y-108809523D01*
X95864285Y-108714285D01*
X95911904Y-108523809D01*
X95911904Y-108380952D01*
X95864285Y-108190476D01*
X95816666Y-108095238D01*
X95721428Y-108000000D01*
X95578571Y-107952380D01*
X95483333Y-107952380D01*
X95340476Y-108000000D01*
X95292857Y-108047619D01*
X94911904Y-108047619D02*
X94864285Y-108000000D01*
X94769047Y-107952380D01*
X94530952Y-107952380D01*
X94435714Y-108000000D01*
X94388095Y-108047619D01*
X94340476Y-108142857D01*
X94340476Y-108238095D01*
X94388095Y-108380952D01*
X94959523Y-108952380D01*
X94340476Y-108952380D01*
X93959523Y-108047619D02*
X93911904Y-108000000D01*
X93816666Y-107952380D01*
X93578571Y-107952380D01*
X93483333Y-108000000D01*
X93435714Y-108047619D01*
X93388095Y-108142857D01*
X93388095Y-108238095D01*
X93435714Y-108380952D01*
X94007142Y-108952380D01*
X93388095Y-108952380D01*
%TO.C,L3*%
X86219020Y-102977653D02*
X86219020Y-102501462D01*
X85219020Y-102501462D01*
X85219020Y-103215748D02*
X85219020Y-103834796D01*
X85599973Y-103501462D01*
X85599973Y-103644320D01*
X85647592Y-103739558D01*
X85695211Y-103787177D01*
X85790449Y-103834796D01*
X86028544Y-103834796D01*
X86123782Y-103787177D01*
X86171401Y-103739558D01*
X86219020Y-103644320D01*
X86219020Y-103358605D01*
X86171401Y-103263367D01*
X86123782Y-103215748D01*
%TO.C,L2*%
X88352380Y-91833333D02*
X88352380Y-91357142D01*
X87352380Y-91357142D01*
X87447619Y-92119047D02*
X87400000Y-92166666D01*
X87352380Y-92261904D01*
X87352380Y-92500000D01*
X87400000Y-92595238D01*
X87447619Y-92642857D01*
X87542857Y-92690476D01*
X87638095Y-92690476D01*
X87780952Y-92642857D01*
X88352380Y-92071428D01*
X88352380Y-92690476D01*
%TO.C,C38*%
X88977142Y-73639442D02*
X89024761Y-73591823D01*
X89072380Y-73448966D01*
X89072380Y-73353728D01*
X89024761Y-73210871D01*
X88929523Y-73115633D01*
X88834285Y-73068014D01*
X88643809Y-73020395D01*
X88500952Y-73020395D01*
X88310476Y-73068014D01*
X88215238Y-73115633D01*
X88120000Y-73210871D01*
X88072380Y-73353728D01*
X88072380Y-73448966D01*
X88120000Y-73591823D01*
X88167619Y-73639442D01*
X88072380Y-73972776D02*
X88072380Y-74591823D01*
X88453333Y-74258490D01*
X88453333Y-74401347D01*
X88500952Y-74496585D01*
X88548571Y-74544204D01*
X88643809Y-74591823D01*
X88881904Y-74591823D01*
X88977142Y-74544204D01*
X89024761Y-74496585D01*
X89072380Y-74401347D01*
X89072380Y-74115633D01*
X89024761Y-74020395D01*
X88977142Y-73972776D01*
X88500952Y-75163252D02*
X88453333Y-75068014D01*
X88405714Y-75020395D01*
X88310476Y-74972776D01*
X88262857Y-74972776D01*
X88167619Y-75020395D01*
X88120000Y-75068014D01*
X88072380Y-75163252D01*
X88072380Y-75353728D01*
X88120000Y-75448966D01*
X88167619Y-75496585D01*
X88262857Y-75544204D01*
X88310476Y-75544204D01*
X88405714Y-75496585D01*
X88453333Y-75448966D01*
X88500952Y-75353728D01*
X88500952Y-75163252D01*
X88548571Y-75068014D01*
X88596190Y-75020395D01*
X88691428Y-74972776D01*
X88881904Y-74972776D01*
X88977142Y-75020395D01*
X89024761Y-75068014D01*
X89072380Y-75163252D01*
X89072380Y-75353728D01*
X89024761Y-75448966D01*
X88977142Y-75496585D01*
X88881904Y-75544204D01*
X88691428Y-75544204D01*
X88596190Y-75496585D01*
X88548571Y-75448966D01*
X88500952Y-75353728D01*
%TO.C,C37*%
X104357142Y-77157142D02*
X104404761Y-77109523D01*
X104452380Y-76966666D01*
X104452380Y-76871428D01*
X104404761Y-76728571D01*
X104309523Y-76633333D01*
X104214285Y-76585714D01*
X104023809Y-76538095D01*
X103880952Y-76538095D01*
X103690476Y-76585714D01*
X103595238Y-76633333D01*
X103500000Y-76728571D01*
X103452380Y-76871428D01*
X103452380Y-76966666D01*
X103500000Y-77109523D01*
X103547619Y-77157142D01*
X103452380Y-77490476D02*
X103452380Y-78109523D01*
X103833333Y-77776190D01*
X103833333Y-77919047D01*
X103880952Y-78014285D01*
X103928571Y-78061904D01*
X104023809Y-78109523D01*
X104261904Y-78109523D01*
X104357142Y-78061904D01*
X104404761Y-78014285D01*
X104452380Y-77919047D01*
X104452380Y-77633333D01*
X104404761Y-77538095D01*
X104357142Y-77490476D01*
X103452380Y-78442857D02*
X103452380Y-79109523D01*
X104452380Y-78680952D01*
D12*
%TO.C,U2*%
X93500000Y-76672520D02*
X99510000Y-76672520D01*
X95750000Y-69852520D02*
X99510000Y-69852520D01*
X99510000Y-69852520D02*
X99510000Y-71112520D01*
X99510000Y-76672520D02*
X99510000Y-75412520D01*
%TO.C,U3*%
X108388540Y-70031560D02*
X112148540Y-70031560D01*
X112148540Y-70031560D02*
X112148540Y-71291560D01*
X112148540Y-76851560D02*
X112148540Y-75591560D01*
X106138540Y-76851560D02*
X112148540Y-76851560D01*
%TO.C,R19*%
X110250500Y-110473258D02*
X110250500Y-109998742D01*
X109205500Y-110473258D02*
X109205500Y-109998742D01*
%TO.C,R11*%
X89677500Y-78937742D02*
X89677500Y-79412258D01*
X90722500Y-78937742D02*
X90722500Y-79412258D01*
%TO.C,R12*%
X87877500Y-85437742D02*
X87877500Y-85912258D01*
X88922500Y-85437742D02*
X88922500Y-85912258D01*
%TO.C,R13*%
X87877500Y-88912258D02*
X87877500Y-88437742D01*
X88922500Y-88912258D02*
X88922500Y-88437742D01*
%TO.C,R16*%
X92322500Y-78937742D02*
X92322500Y-79412258D01*
X91277500Y-78937742D02*
X91277500Y-79412258D01*
%TO.C,R17*%
X91922500Y-93912258D02*
X91922500Y-93437742D01*
X90877500Y-93912258D02*
X90877500Y-93437742D01*
%TO.C,R18*%
X93622500Y-93937258D02*
X93622500Y-93462742D01*
X92577500Y-93937258D02*
X92577500Y-93462742D01*
%TO.C,C26*%
X90310000Y-96284420D02*
X90310000Y-96565580D01*
X89290000Y-96284420D02*
X89290000Y-96565580D01*
%TO.C,C29*%
X91510000Y-107040580D02*
X91510000Y-106759420D01*
X90490000Y-107040580D02*
X90490000Y-106759420D01*
%TO.C,C32*%
X92590000Y-107040580D02*
X92590000Y-106759420D01*
X93610000Y-107040580D02*
X93610000Y-106759420D01*
%TO.C,C23*%
X111762000Y-110388580D02*
X111762000Y-110107420D01*
X110742000Y-110388580D02*
X110742000Y-110107420D01*
%TO.C,C18*%
X90117200Y-123490580D02*
X90117200Y-123209420D01*
X91137200Y-123490580D02*
X91137200Y-123209420D01*
%TO.C,C24*%
X91197820Y-71477600D02*
X91478980Y-71477600D01*
X91197820Y-70457600D02*
X91478980Y-70457600D01*
%TO.C,C25*%
X106126100Y-68490000D02*
X106407260Y-68490000D01*
X106126100Y-69510000D02*
X106407260Y-69510000D01*
%TO.C,C35*%
X91690000Y-74156180D02*
X91690000Y-73875020D01*
X92710000Y-74156180D02*
X92710000Y-73875020D01*
%TO.C,C36*%
X103528400Y-70477200D02*
X103528400Y-70758360D01*
X104548400Y-70477200D02*
X104548400Y-70758360D01*
%TO.C,C27*%
X98090000Y-109859420D02*
X98090000Y-110140580D01*
X99110000Y-109859420D02*
X99110000Y-110140580D01*
%TO.C,C30*%
X96010000Y-91515580D02*
X96010000Y-91234420D01*
X94990000Y-91515580D02*
X94990000Y-91234420D01*
%TO.C,C33*%
X97610000Y-109859420D02*
X97610000Y-110140580D01*
X96590000Y-109859420D02*
X96590000Y-110140580D01*
%TO.C,C28*%
X92134420Y-95590000D02*
X92415580Y-95590000D01*
X92134420Y-96610000D02*
X92415580Y-96610000D01*
%TO.C,C22*%
X94865580Y-109690000D02*
X94584420Y-109690000D01*
X94865580Y-110710000D02*
X94584420Y-110710000D01*
%TO.C,L3*%
X88126640Y-102883068D02*
X88126640Y-103405572D01*
X86706640Y-102883068D02*
X86706640Y-103405572D01*
%TO.C,L2*%
X90210000Y-92713748D02*
X90210000Y-93236252D01*
X88790000Y-92713748D02*
X88790000Y-93236252D01*
%TO.C,C38*%
X89565000Y-74021048D02*
X89565000Y-74543552D01*
X91035000Y-74021048D02*
X91035000Y-74543552D01*
%TO.C,C37*%
X103303400Y-74173448D02*
X103303400Y-74695952D01*
X104773400Y-74173448D02*
X104773400Y-74695952D01*
%TD*%
M02*
