  0
SECTION
  2
HEADER
  9
$ANGBASE
  50
0.0
  9
$ANGDIR
  70
1
  9
$MEASUREMENT
  70
0
  0
ENDSEC
  0
SECTION
  2
TABLES
  0
TABLE
  2
LTYPE
  70
4
  0
LTYPE
  5
40F
  2
CONTINUOUS
  70
0
  3
Solid line
  72
65
  73
0
  40
0.0
  0
LTYPE
  5
410
  2
DASHDOT
 70
0
  3
Dash Dot ____ _ ____ _
 72
65
 73
4
 40
2.0
 49
1.25
 49
-0.25
 49
0.25
 49
-0.25
  0
LTYPE
  5
411
  2
DASHED
 70
0
  3
Dashed __ __ __ __ __
 72
65
 73
2
 40
0.75
 49
0.5
 49
-0.25
  0
LTYPE
  5
43B
  2
DOTTED
 70
0
  3
Dotted .  .  .  .
 72
65
 73
2
 40
0.2
 49
0.0
 49
-0.2
  0
ENDTAB
  0
TABLE
  2
STYLE
  70
4
  0
STYLE
  2
KICAD
  70
0
  40
0
  41
1
  42
1
  50
0
  71
0
  3
isocp.shx
  0
STYLE
  2
KICADB
  70
0
  40
0
  41
1
  42
1
  50
0
  71
0
  3
isocp.shx
  0
STYLE
  2
KICADI
  70
0
  40
0
  41
1
  42
1
  50
15
  71
0
  3
isocp.shx
  0
STYLE
  2
KICADBI
  70
0
  40
0
  41
1
  42
1
  50
15
  71
0
  3
isocp.shx
  0
ENDTAB
  0
TABLE
  2
LAYER
  70
1
  0
LAYER
  2
BLACK
  70
0
  62
7
  6
CONTINUOUS
  0
ENDTAB
  0
ENDSEC
  0
SECTION
  2
ENTITIES
0
LINE
8
BLACK
6
CONTINUOUS
10
4.95865
20
-5.08221
11
4.97213
21
-5.08398
0
LINE
8
BLACK
6
CONTINUOUS
10
4.97213
20
-5.08398
11
4.98532
21
-5.08729
0
LINE
8
BLACK
6
CONTINUOUS
10
4.98532
20
-5.08729
11
4.99804
21
-5.0921
0
LINE
8
BLACK
6
CONTINUOUS
10
4.99804
20
-5.0921
11
5.01012
21
-5.09834
0
LINE
8
BLACK
6
CONTINUOUS
10
5.01012
20
-5.09834
11
5.02141
21
-5.10592
0
LINE
8
BLACK
6
CONTINUOUS
10
5.02141
20
-5.10592
11
5.03175
21
-5.11475
0
LINE
8
BLACK
6
CONTINUOUS
10
5.03175
20
-5.11475
11
5.04101
21
-5.12471
0
LINE
8
BLACK
6
CONTINUOUS
10
5.04101
20
-5.12471
11
5.04906
21
-5.13567
0
LINE
8
BLACK
6
CONTINUOUS
10
5.04906
20
-5.13567
11
5.05579
21
-5.14748
0
LINE
8
BLACK
6
CONTINUOUS
10
5.05579
20
-5.14748
11
5.06113
21
-5.15999
0
LINE
8
BLACK
6
CONTINUOUS
10
5.06113
20
-5.15999
11
5.06499
21
-5.17303
0
LINE
8
BLACK
6
CONTINUOUS
10
5.06499
20
-5.17303
11
5.06733
21
-5.18642
0
LINE
8
BLACK
6
CONTINUOUS
10
5.06733
20
-5.18642
11
5.06811
21
-5.2
0
LINE
8
BLACK
6
CONTINUOUS
10
5.06811
20
-5.2
11
5.06788
21
-5.20742
0
LINE
8
BLACK
6
CONTINUOUS
10
5.06788
20
-5.20742
11
5.06624
21
-5.22092
0
LINE
8
BLACK
6
CONTINUOUS
10
5.06624
20
-5.22092
11
5.06307
21
-5.23414
0
LINE
8
BLACK
6
CONTINUOUS
10
5.06307
20
-5.23414
11
5.0584
21
-5.24691
0
LINE
8
BLACK
6
CONTINUOUS
10
5.0584
20
-5.24691
11
5.05229
21
-5.25906
0
LINE
8
BLACK
6
CONTINUOUS
10
5.05229
20
-5.25906
11
5.04482
21
-5.27042
0
LINE
8
BLACK
6
CONTINUOUS
10
5.04482
20
-5.27042
11
5.0361
21
-5.28085
0
LINE
8
BLACK
6
CONTINUOUS
10
5.0361
20
-5.28085
11
5.02624
21
-5.29021
0
LINE
8
BLACK
6
CONTINUOUS
10
5.02624
20
-5.29021
11
5.01536
21
-5.29838
0
LINE
8
BLACK
6
CONTINUOUS
10
5.01536
20
-5.29838
11
5.00362
21
-5.30524
0
LINE
8
BLACK
6
CONTINUOUS
10
5.00362
20
-5.30524
11
4.99117
21
-5.3107
0
LINE
8
BLACK
6
CONTINUOUS
10
4.99117
20
-5.3107
11
4.97817
21
-5.3147
0
LINE
8
BLACK
6
CONTINUOUS
10
4.97817
20
-5.3147
11
4.9648
21
-5.31718
0
LINE
8
BLACK
6
CONTINUOUS
10
4.9648
20
-5.31718
11
4.95124
21
-5.3181
0
LINE
8
BLACK
6
CONTINUOUS
10
4.95124
20
-5.3181
11
4.93765
21
-5.31746
0
LINE
8
BLACK
6
CONTINUOUS
10
4.93765
20
-5.31746
11
4.92424
21
-5.31527
0
LINE
8
BLACK
6
CONTINUOUS
10
4.92424
20
-5.31527
11
4.91116
21
-5.31154
0
LINE
8
BLACK
6
CONTINUOUS
10
4.91116
20
-5.31154
11
4.89859
21
-5.30634
0
LINE
8
BLACK
6
CONTINUOUS
10
4.89859
20
-5.30634
11
4.88671
21
-5.29972
0
LINE
8
BLACK
6
CONTINUOUS
10
4.88671
20
-5.29972
11
4.87567
21
-5.29179
0
LINE
8
BLACK
6
CONTINUOUS
10
4.87567
20
-5.29179
11
4.86561
21
-5.28264
0
LINE
8
BLACK
6
CONTINUOUS
10
4.86561
20
-5.28264
11
4.85667
21
-5.27239
0
LINE
8
BLACK
6
CONTINUOUS
10
4.85667
20
-5.27239
11
4.84897
21
-5.26118
0
LINE
8
BLACK
6
CONTINUOUS
10
4.84897
20
-5.26118
11
4.84261
21
-5.24917
0
LINE
8
BLACK
6
CONTINUOUS
10
4.84261
20
-5.24917
11
4.83767
21
-5.2365
0
LINE
8
BLACK
6
CONTINUOUS
10
4.83767
20
-5.2365
11
4.83422
21
-5.22335
0
LINE
8
BLACK
6
CONTINUOUS
10
4.83422
20
-5.22335
11
4.8323
21
-5.20988
0
LINE
8
BLACK
6
CONTINUOUS
10
4.8323
20
-5.20988
11
4.83195
21
-5.19629
0
LINE
8
BLACK
6
CONTINUOUS
10
4.83195
20
-5.19629
11
4.83316
21
-5.18275
0
LINE
8
BLACK
6
CONTINUOUS
10
4.83316
20
-5.18275
11
4.83591
21
-5.16943
0
LINE
8
BLACK
6
CONTINUOUS
10
4.83591
20
-5.16943
11
4.84018
21
-5.15652
0
LINE
8
BLACK
6
CONTINUOUS
10
4.84018
20
-5.15652
11
4.84591
21
-5.14419
0
LINE
8
BLACK
6
CONTINUOUS
10
4.84591
20
-5.14419
11
4.85301
21
-5.13259
0
LINE
8
BLACK
6
CONTINUOUS
10
4.85301
20
-5.13259
11
4.8614
21
-5.12189
0
LINE
8
BLACK
6
CONTINUOUS
10
4.8614
20
-5.12189
11
4.87097
21
-5.11223
0
LINE
8
BLACK
6
CONTINUOUS
10
4.87097
20
-5.11223
11
4.88158
21
-5.10373
0
LINE
8
BLACK
6
CONTINUOUS
10
4.88158
20
-5.10373
11
4.8931
21
-5.0965
0
LINE
8
BLACK
6
CONTINUOUS
10
4.8931
20
-5.0965
11
4.90537
21
-5.09065
0
LINE
8
BLACK
6
CONTINUOUS
10
4.90537
20
-5.09065
11
4.91824
21
-5.08624
0
LINE
8
BLACK
6
CONTINUOUS
10
4.91824
20
-5.08624
11
4.93152
21
-5.08334
0
LINE
8
BLACK
6
CONTINUOUS
10
4.93152
20
-5.08334
11
4.94505
21
-5.08199
0
LINE
8
BLACK
6
CONTINUOUS
10
4.94505
20
-5.08199
11
4.95865
21
-5.08221
0
LINE
8
BLACK
6
CONTINUOUS
10
2.55865
20
-5.08221
11
2.57213
21
-5.08398
0
LINE
8
BLACK
6
CONTINUOUS
10
2.57213
20
-5.08398
11
2.58532
21
-5.08729
0
LINE
8
BLACK
6
CONTINUOUS
10
2.58532
20
-5.08729
11
2.59804
21
-5.0921
0
LINE
8
BLACK
6
CONTINUOUS
10
2.59804
20
-5.0921
11
2.61012
21
-5.09834
0
LINE
8
BLACK
6
CONTINUOUS
10
2.61012
20
-5.09834
11
2.62141
21
-5.10592
0
LINE
8
BLACK
6
CONTINUOUS
10
2.62141
20
-5.10592
11
2.63175
21
-5.11475
0
LINE
8
BLACK
6
CONTINUOUS
10
2.63175
20
-5.11475
11
2.64101
21
-5.12471
0
LINE
8
BLACK
6
CONTINUOUS
10
2.64101
20
-5.12471
11
2.64906
21
-5.13567
0
LINE
8
BLACK
6
CONTINUOUS
10
2.64906
20
-5.13567
11
2.65579
21
-5.14748
0
LINE
8
BLACK
6
CONTINUOUS
10
2.65579
20
-5.14748
11
2.66113
21
-5.15999
0
LINE
8
BLACK
6
CONTINUOUS
10
2.66113
20
-5.15999
11
2.66499
21
-5.17303
0
LINE
8
BLACK
6
CONTINUOUS
10
2.66499
20
-5.17303
11
2.66733
21
-5.18642
0
LINE
8
BLACK
6
CONTINUOUS
10
2.66733
20
-5.18642
11
2.66811
21
-5.2
0
LINE
8
BLACK
6
CONTINUOUS
10
2.66811
20
-5.2
11
2.66788
21
-5.20742
0
LINE
8
BLACK
6
CONTINUOUS
10
2.66788
20
-5.20742
11
2.66624
21
-5.22092
0
LINE
8
BLACK
6
CONTINUOUS
10
2.66624
20
-5.22092
11
2.66307
21
-5.23414
0
LINE
8
BLACK
6
CONTINUOUS
10
2.66307
20
-5.23414
11
2.6584
21
-5.24691
0
LINE
8
BLACK
6
CONTINUOUS
10
2.6584
20
-5.24691
11
2.65229
21
-5.25906
0
LINE
8
BLACK
6
CONTINUOUS
10
2.65229
20
-5.25906
11
2.64482
21
-5.27042
0
LINE
8
BLACK
6
CONTINUOUS
10
2.64482
20
-5.27042
11
2.6361
21
-5.28085
0
LINE
8
BLACK
6
CONTINUOUS
10
2.6361
20
-5.28085
11
2.62624
21
-5.29021
0
LINE
8
BLACK
6
CONTINUOUS
10
2.62624
20
-5.29021
11
2.61536
21
-5.29838
0
LINE
8
BLACK
6
CONTINUOUS
10
2.61536
20
-5.29838
11
2.60362
21
-5.30524
0
LINE
8
BLACK
6
CONTINUOUS
10
2.60362
20
-5.30524
11
2.59117
21
-5.3107
0
LINE
8
BLACK
6
CONTINUOUS
10
2.59117
20
-5.3107
11
2.57817
21
-5.3147
0
LINE
8
BLACK
6
CONTINUOUS
10
2.57817
20
-5.3147
11
2.5648
21
-5.31718
0
LINE
8
BLACK
6
CONTINUOUS
10
2.5648
20
-5.31718
11
2.55124
21
-5.3181
0
LINE
8
BLACK
6
CONTINUOUS
10
2.55124
20
-5.3181
11
2.53765
21
-5.31746
0
LINE
8
BLACK
6
CONTINUOUS
10
2.53765
20
-5.31746
11
2.52424
21
-5.31527
0
LINE
8
BLACK
6
CONTINUOUS
10
2.52424
20
-5.31527
11
2.51116
21
-5.31154
0
LINE
8
BLACK
6
CONTINUOUS
10
2.51116
20
-5.31154
11
2.49859
21
-5.30634
0
LINE
8
BLACK
6
CONTINUOUS
10
2.49859
20
-5.30634
11
2.48671
21
-5.29972
0
LINE
8
BLACK
6
CONTINUOUS
10
2.48671
20
-5.29972
11
2.47567
21
-5.29179
0
LINE
8
BLACK
6
CONTINUOUS
10
2.47567
20
-5.29179
11
2.46561
21
-5.28264
0
LINE
8
BLACK
6
CONTINUOUS
10
2.46561
20
-5.28264
11
2.45667
21
-5.27239
0
LINE
8
BLACK
6
CONTINUOUS
10
2.45667
20
-5.27239
11
2.44897
21
-5.26118
0
LINE
8
BLACK
6
CONTINUOUS
10
2.44897
20
-5.26118
11
2.44261
21
-5.24917
0
LINE
8
BLACK
6
CONTINUOUS
10
2.44261
20
-5.24917
11
2.43767
21
-5.2365
0
LINE
8
BLACK
6
CONTINUOUS
10
2.43767
20
-5.2365
11
2.43422
21
-5.22335
0
LINE
8
BLACK
6
CONTINUOUS
10
2.43422
20
-5.22335
11
2.4323
21
-5.20988
0
LINE
8
BLACK
6
CONTINUOUS
10
2.4323
20
-5.20988
11
2.43195
21
-5.19629
0
LINE
8
BLACK
6
CONTINUOUS
10
2.43195
20
-5.19629
11
2.43316
21
-5.18275
0
LINE
8
BLACK
6
CONTINUOUS
10
2.43316
20
-5.18275
11
2.43591
21
-5.16943
0
LINE
8
BLACK
6
CONTINUOUS
10
2.43591
20
-5.16943
11
2.44018
21
-5.15652
0
LINE
8
BLACK
6
CONTINUOUS
10
2.44018
20
-5.15652
11
2.44591
21
-5.14419
0
LINE
8
BLACK
6
CONTINUOUS
10
2.44591
20
-5.14419
11
2.45301
21
-5.13259
0
LINE
8
BLACK
6
CONTINUOUS
10
2.45301
20
-5.13259
11
2.4614
21
-5.12189
0
LINE
8
BLACK
6
CONTINUOUS
10
2.4614
20
-5.12189
11
2.47097
21
-5.11223
0
LINE
8
BLACK
6
CONTINUOUS
10
2.47097
20
-5.11223
11
2.48158
21
-5.10373
0
LINE
8
BLACK
6
CONTINUOUS
10
2.48158
20
-5.10373
11
2.4931
21
-5.0965
0
LINE
8
BLACK
6
CONTINUOUS
10
2.4931
20
-5.0965
11
2.50537
21
-5.09065
0
LINE
8
BLACK
6
CONTINUOUS
10
2.50537
20
-5.09065
11
2.51824
21
-5.08624
0
LINE
8
BLACK
6
CONTINUOUS
10
2.51824
20
-5.08624
11
2.53152
21
-5.08334
0
LINE
8
BLACK
6
CONTINUOUS
10
2.53152
20
-5.08334
11
2.54505
21
-5.08199
0
LINE
8
BLACK
6
CONTINUOUS
10
2.54505
20
-5.08199
11
2.55865
21
-5.08221
0
LINE
8
BLACK
6
CONTINUOUS
10
2.55865
20
-2.68221
11
2.57213
21
-2.68398
0
LINE
8
BLACK
6
CONTINUOUS
10
2.57213
20
-2.68398
11
2.58532
21
-2.68729
0
LINE
8
BLACK
6
CONTINUOUS
10
2.58532
20
-2.68729
11
2.59804
21
-2.6921
0
LINE
8
BLACK
6
CONTINUOUS
10
2.59804
20
-2.6921
11
2.61012
21
-2.69834
0
LINE
8
BLACK
6
CONTINUOUS
10
2.61012
20
-2.69834
11
2.62141
21
-2.70592
0
LINE
8
BLACK
6
CONTINUOUS
10
2.62141
20
-2.70592
11
2.63175
21
-2.71475
0
LINE
8
BLACK
6
CONTINUOUS
10
2.63175
20
-2.71475
11
2.64101
21
-2.72471
0
LINE
8
BLACK
6
CONTINUOUS
10
2.64101
20
-2.72471
11
2.64906
21
-2.73567
0
LINE
8
BLACK
6
CONTINUOUS
10
2.64906
20
-2.73567
11
2.65579
21
-2.74748
0
LINE
8
BLACK
6
CONTINUOUS
10
2.65579
20
-2.74748
11
2.66113
21
-2.75999
0
LINE
8
BLACK
6
CONTINUOUS
10
2.66113
20
-2.75999
11
2.66499
21
-2.77303
0
LINE
8
BLACK
6
CONTINUOUS
10
2.66499
20
-2.77303
11
2.66733
21
-2.78642
0
LINE
8
BLACK
6
CONTINUOUS
10
2.66733
20
-2.78642
11
2.66811
21
-2.8
0
LINE
8
BLACK
6
CONTINUOUS
10
2.66811
20
-2.8
11
2.66788
21
-2.80742
0
LINE
8
BLACK
6
CONTINUOUS
10
2.66788
20
-2.80742
11
2.66624
21
-2.82092
0
LINE
8
BLACK
6
CONTINUOUS
10
2.66624
20
-2.82092
11
2.66307
21
-2.83414
0
LINE
8
BLACK
6
CONTINUOUS
10
2.66307
20
-2.83414
11
2.6584
21
-2.84691
0
LINE
8
BLACK
6
CONTINUOUS
10
2.6584
20
-2.84691
11
2.65229
21
-2.85906
0
LINE
8
BLACK
6
CONTINUOUS
10
2.65229
20
-2.85906
11
2.64482
21
-2.87042
0
LINE
8
BLACK
6
CONTINUOUS
10
2.64482
20
-2.87042
11
2.6361
21
-2.88085
0
LINE
8
BLACK
6
CONTINUOUS
10
2.6361
20
-2.88085
11
2.62624
21
-2.89021
0
LINE
8
BLACK
6
CONTINUOUS
10
2.62624
20
-2.89021
11
2.61536
21
-2.89838
0
LINE
8
BLACK
6
CONTINUOUS
10
2.61536
20
-2.89838
11
2.60362
21
-2.90524
0
LINE
8
BLACK
6
CONTINUOUS
10
2.60362
20
-2.90524
11
2.59117
21
-2.9107
0
LINE
8
BLACK
6
CONTINUOUS
10
2.59117
20
-2.9107
11
2.57817
21
-2.9147
0
LINE
8
BLACK
6
CONTINUOUS
10
2.57817
20
-2.9147
11
2.5648
21
-2.91718
0
LINE
8
BLACK
6
CONTINUOUS
10
2.5648
20
-2.91718
11
2.55124
21
-2.9181
0
LINE
8
BLACK
6
CONTINUOUS
10
2.55124
20
-2.9181
11
2.53765
21
-2.91746
0
LINE
8
BLACK
6
CONTINUOUS
10
2.53765
20
-2.91746
11
2.52424
21
-2.91527
0
LINE
8
BLACK
6
CONTINUOUS
10
2.52424
20
-2.91527
11
2.51116
21
-2.91154
0
LINE
8
BLACK
6
CONTINUOUS
10
2.51116
20
-2.91154
11
2.49859
21
-2.90634
0
LINE
8
BLACK
6
CONTINUOUS
10
2.49859
20
-2.90634
11
2.48671
21
-2.89972
0
LINE
8
BLACK
6
CONTINUOUS
10
2.48671
20
-2.89972
11
2.47567
21
-2.89179
0
LINE
8
BLACK
6
CONTINUOUS
10
2.47567
20
-2.89179
11
2.46561
21
-2.88264
0
LINE
8
BLACK
6
CONTINUOUS
10
2.46561
20
-2.88264
11
2.45667
21
-2.87239
0
LINE
8
BLACK
6
CONTINUOUS
10
2.45667
20
-2.87239
11
2.44897
21
-2.86118
0
LINE
8
BLACK
6
CONTINUOUS
10
2.44897
20
-2.86118
11
2.44261
21
-2.84917
0
LINE
8
BLACK
6
CONTINUOUS
10
2.44261
20
-2.84917
11
2.43767
21
-2.8365
0
LINE
8
BLACK
6
CONTINUOUS
10
2.43767
20
-2.8365
11
2.43422
21
-2.82335
0
LINE
8
BLACK
6
CONTINUOUS
10
2.43422
20
-2.82335
11
2.4323
21
-2.80988
0
LINE
8
BLACK
6
CONTINUOUS
10
2.4323
20
-2.80988
11
2.43195
21
-2.79629
0
LINE
8
BLACK
6
CONTINUOUS
10
2.43195
20
-2.79629
11
2.43316
21
-2.78275
0
LINE
8
BLACK
6
CONTINUOUS
10
2.43316
20
-2.78275
11
2.43591
21
-2.76943
0
LINE
8
BLACK
6
CONTINUOUS
10
2.43591
20
-2.76943
11
2.44018
21
-2.75652
0
LINE
8
BLACK
6
CONTINUOUS
10
2.44018
20
-2.75652
11
2.44591
21
-2.74419
0
LINE
8
BLACK
6
CONTINUOUS
10
2.44591
20
-2.74419
11
2.45301
21
-2.73259
0
LINE
8
BLACK
6
CONTINUOUS
10
2.45301
20
-2.73259
11
2.4614
21
-2.72189
0
LINE
8
BLACK
6
CONTINUOUS
10
2.4614
20
-2.72189
11
2.47097
21
-2.71223
0
LINE
8
BLACK
6
CONTINUOUS
10
2.47097
20
-2.71223
11
2.48158
21
-2.70373
0
LINE
8
BLACK
6
CONTINUOUS
10
2.48158
20
-2.70373
11
2.4931
21
-2.6965
0
LINE
8
BLACK
6
CONTINUOUS
10
2.4931
20
-2.6965
11
2.50537
21
-2.69065
0
LINE
8
BLACK
6
CONTINUOUS
10
2.50537
20
-2.69065
11
2.51824
21
-2.68624
0
LINE
8
BLACK
6
CONTINUOUS
10
2.51824
20
-2.68624
11
2.53152
21
-2.68334
0
LINE
8
BLACK
6
CONTINUOUS
10
2.53152
20
-2.68334
11
2.54505
21
-2.68199
0
LINE
8
BLACK
6
CONTINUOUS
10
2.54505
20
-2.68199
11
2.55865
21
-2.68221
0
LINE
8
BLACK
6
CONTINUOUS
10
4.95865
20
-2.68221
11
4.97213
21
-2.68398
0
LINE
8
BLACK
6
CONTINUOUS
10
4.97213
20
-2.68398
11
4.98532
21
-2.68729
0
LINE
8
BLACK
6
CONTINUOUS
10
4.98532
20
-2.68729
11
4.99804
21
-2.6921
0
LINE
8
BLACK
6
CONTINUOUS
10
4.99804
20
-2.6921
11
5.01012
21
-2.69834
0
LINE
8
BLACK
6
CONTINUOUS
10
5.01012
20
-2.69834
11
5.02141
21
-2.70592
0
LINE
8
BLACK
6
CONTINUOUS
10
5.02141
20
-2.70592
11
5.03175
21
-2.71475
0
LINE
8
BLACK
6
CONTINUOUS
10
5.03175
20
-2.71475
11
5.04101
21
-2.72471
0
LINE
8
BLACK
6
CONTINUOUS
10
5.04101
20
-2.72471
11
5.04906
21
-2.73567
0
LINE
8
BLACK
6
CONTINUOUS
10
5.04906
20
-2.73567
11
5.05579
21
-2.74748
0
LINE
8
BLACK
6
CONTINUOUS
10
5.05579
20
-2.74748
11
5.06113
21
-2.75999
0
LINE
8
BLACK
6
CONTINUOUS
10
5.06113
20
-2.75999
11
5.06499
21
-2.77303
0
LINE
8
BLACK
6
CONTINUOUS
10
5.06499
20
-2.77303
11
5.06733
21
-2.78642
0
LINE
8
BLACK
6
CONTINUOUS
10
5.06733
20
-2.78642
11
5.06811
21
-2.8
0
LINE
8
BLACK
6
CONTINUOUS
10
5.06811
20
-2.8
11
5.06788
21
-2.80742
0
LINE
8
BLACK
6
CONTINUOUS
10
5.06788
20
-2.80742
11
5.06624
21
-2.82092
0
LINE
8
BLACK
6
CONTINUOUS
10
5.06624
20
-2.82092
11
5.06307
21
-2.83414
0
LINE
8
BLACK
6
CONTINUOUS
10
5.06307
20
-2.83414
11
5.0584
21
-2.84691
0
LINE
8
BLACK
6
CONTINUOUS
10
5.0584
20
-2.84691
11
5.05229
21
-2.85906
0
LINE
8
BLACK
6
CONTINUOUS
10
5.05229
20
-2.85906
11
5.04482
21
-2.87042
0
LINE
8
BLACK
6
CONTINUOUS
10
5.04482
20
-2.87042
11
5.0361
21
-2.88085
0
LINE
8
BLACK
6
CONTINUOUS
10
5.0361
20
-2.88085
11
5.02624
21
-2.89021
0
LINE
8
BLACK
6
CONTINUOUS
10
5.02624
20
-2.89021
11
5.01536
21
-2.89838
0
LINE
8
BLACK
6
CONTINUOUS
10
5.01536
20
-2.89838
11
5.00362
21
-2.90524
0
LINE
8
BLACK
6
CONTINUOUS
10
5.00362
20
-2.90524
11
4.99117
21
-2.9107
0
LINE
8
BLACK
6
CONTINUOUS
10
4.99117
20
-2.9107
11
4.97817
21
-2.9147
0
LINE
8
BLACK
6
CONTINUOUS
10
4.97817
20
-2.9147
11
4.9648
21
-2.91718
0
LINE
8
BLACK
6
CONTINUOUS
10
4.9648
20
-2.91718
11
4.95124
21
-2.9181
0
LINE
8
BLACK
6
CONTINUOUS
10
4.95124
20
-2.9181
11
4.93765
21
-2.91746
0
LINE
8
BLACK
6
CONTINUOUS
10
4.93765
20
-2.91746
11
4.92424
21
-2.91527
0
LINE
8
BLACK
6
CONTINUOUS
10
4.92424
20
-2.91527
11
4.91116
21
-2.91154
0
LINE
8
BLACK
6
CONTINUOUS
10
4.91116
20
-2.91154
11
4.89859
21
-2.90634
0
LINE
8
BLACK
6
CONTINUOUS
10
4.89859
20
-2.90634
11
4.88671
21
-2.89972
0
LINE
8
BLACK
6
CONTINUOUS
10
4.88671
20
-2.89972
11
4.87567
21
-2.89179
0
LINE
8
BLACK
6
CONTINUOUS
10
4.87567
20
-2.89179
11
4.86561
21
-2.88264
0
LINE
8
BLACK
6
CONTINUOUS
10
4.86561
20
-2.88264
11
4.85667
21
-2.87239
0
LINE
8
BLACK
6
CONTINUOUS
10
4.85667
20
-2.87239
11
4.84897
21
-2.86118
0
LINE
8
BLACK
6
CONTINUOUS
10
4.84897
20
-2.86118
11
4.84261
21
-2.84917
0
LINE
8
BLACK
6
CONTINUOUS
10
4.84261
20
-2.84917
11
4.83767
21
-2.8365
0
LINE
8
BLACK
6
CONTINUOUS
10
4.83767
20
-2.8365
11
4.83422
21
-2.82335
0
LINE
8
BLACK
6
CONTINUOUS
10
4.83422
20
-2.82335
11
4.8323
21
-2.80988
0
LINE
8
BLACK
6
CONTINUOUS
10
4.8323
20
-2.80988
11
4.83195
21
-2.79629
0
LINE
8
BLACK
6
CONTINUOUS
10
4.83195
20
-2.79629
11
4.83316
21
-2.78275
0
LINE
8
BLACK
6
CONTINUOUS
10
4.83316
20
-2.78275
11
4.83591
21
-2.76943
0
LINE
8
BLACK
6
CONTINUOUS
10
4.83591
20
-2.76943
11
4.84018
21
-2.75652
0
LINE
8
BLACK
6
CONTINUOUS
10
4.84018
20
-2.75652
11
4.84591
21
-2.74419
0
LINE
8
BLACK
6
CONTINUOUS
10
4.84591
20
-2.74419
11
4.85301
21
-2.73259
0
LINE
8
BLACK
6
CONTINUOUS
10
4.85301
20
-2.73259
11
4.8614
21
-2.72189
0
LINE
8
BLACK
6
CONTINUOUS
10
4.8614
20
-2.72189
11
4.87097
21
-2.71223
0
LINE
8
BLACK
6
CONTINUOUS
10
4.87097
20
-2.71223
11
4.88158
21
-2.70373
0
LINE
8
BLACK
6
CONTINUOUS
10
4.88158
20
-2.70373
11
4.8931
21
-2.6965
0
LINE
8
BLACK
6
CONTINUOUS
10
4.8931
20
-2.6965
11
4.90537
21
-2.69065
0
LINE
8
BLACK
6
CONTINUOUS
10
4.90537
20
-2.69065
11
4.91824
21
-2.68624
0
LINE
8
BLACK
6
CONTINUOUS
10
4.91824
20
-2.68624
11
4.93152
21
-2.68334
0
LINE
8
BLACK
6
CONTINUOUS
10
4.93152
20
-2.68334
11
4.94505
21
-2.68199
0
LINE
8
BLACK
6
CONTINUOUS
10
4.94505
20
-2.68199
11
4.95865
21
-2.68221
  0
ENDSEC
  0
EOF
