  0
SECTION
  2
HEADER
  9
$ANGBASE
  50
0.0
  9
$ANGDIR
  70
1
  9
$MEASUREMENT
  70
0
  0
ENDSEC
  0
SECTION
  2
TABLES
  0
TABLE
  2
LTYPE
  70
4
  0
LTYPE
  5
40F
  2
CONTINUOUS
  70
0
  3
Solid line
  72
65
  73
0
  40
0.0
  0
LTYPE
  5
410
  2
DASHDOT
 70
0
  3
Dash Dot ____ _ ____ _
 72
65
 73
4
 40
2.0
 49
1.25
 49
-0.25
 49
0.25
 49
-0.25
  0
LTYPE
  5
411
  2
DASHED
 70
0
  3
Dashed __ __ __ __ __
 72
65
 73
2
 40
0.75
 49
0.5
 49
-0.25
  0
LTYPE
  5
43B
  2
DOTTED
 70
0
  3
Dotted .  .  .  .
 72
65
 73
2
 40
0.2
 49
0.0
 49
-0.2
  0
ENDTAB
  0
TABLE
  2
STYLE
  70
4
  0
STYLE
  2
KICAD
  70
0
  40
0
  41
1
  42
1
  50
0
  71
0
  3
isocp.shx
  0
STYLE
  2
KICADB
  70
0
  40
0
  41
1
  42
1
  50
0
  71
0
  3
isocp.shx
  0
STYLE
  2
KICADI
  70
0
  40
0
  41
1
  42
1
  50
15
  71
0
  3
isocp.shx
  0
STYLE
  2
KICADBI
  70
0
  40
0
  41
1
  42
1
  50
15
  71
0
  3
isocp.shx
  0
ENDTAB
  0
TABLE
  2
LAYER
  70
1
  0
LAYER
  2
BLACK
  70
0
  62
7
  6
CONTINUOUS
  0
ENDTAB
  0
ENDSEC
  0
SECTION
  2
ENTITIES
0
LINE
8
BLACK
6
CONTINUOUS
10
2.5697842125984249
20
-5.0835585433070865
11
2.5826971259842519
21
-5.0865058267716536
0
LINE
8
BLACK
6
CONTINUOUS
10
2.5826971259842519
20
-5.0865058267716536
11
2.5951988188976376
21
-5.0908803543307082
0
LINE
8
BLACK
6
CONTINUOUS
10
2.5951988188976376
20
-5.0908803543307082
11
2.6071321653543307
21
-5.0966271653543309
0
LINE
8
BLACK
6
CONTINUOUS
10
2.6071321653543307
20
-5.0966271653543309
11
2.6183470078740156
21
-5.1036738976377949
0
LINE
8
BLACK
6
CONTINUOUS
10
2.6183470078740156
20
-5.1036738976377949
11
2.6287023622047245
21
-5.1119320472440943
0
LINE
8
BLACK
6
CONTINUOUS
10
2.6287023622047245
20
-5.1119320472440943
11
2.6380679527559057
21
-5.1212976377952755
0
LINE
8
BLACK
6
CONTINUOUS
10
2.6380679527559057
20
-5.1212976377952755
11
2.6463261023622047
21
-5.1316529921259839
0
LINE
8
BLACK
6
CONTINUOUS
10
2.6463261023622047
20
-5.1316529921259839
11
2.6533728346456691
21
-5.1428678346456689
0
LINE
8
BLACK
6
CONTINUOUS
10
2.6533728346456691
20
-5.1428678346456689
11
2.6591196456692914
21
-5.1548011811023624
0
LINE
8
BLACK
6
CONTINUOUS
10
2.6591196456692914
20
-5.1548011811023624
11
2.6634941732283464
21
-5.1673028740157481
0
LINE
8
BLACK
6
CONTINUOUS
10
2.6634941732283464
20
-5.1673028740157481
11
2.6664414566929131
21
-5.1802157874015746
0
LINE
8
BLACK
6
CONTINUOUS
10
2.6664414566929131
20
-5.1802157874015746
11
2.667924409448819
21
-5.1933775196850389
0
LINE
8
BLACK
6
CONTINUOUS
10
2.667924409448819
20
-5.1933775196850389
11
2.667924409448819
21
-5.2066224803149606
0
LINE
8
BLACK
6
CONTINUOUS
10
2.667924409448819
20
-5.2066224803149606
11
2.6664414566929131
21
-5.2197842125984248
0
LINE
8
BLACK
6
CONTINUOUS
10
2.6664414566929131
20
-5.2197842125984248
11
2.6634941732283464
21
-5.2326971259842514
0
LINE
8
BLACK
6
CONTINUOUS
10
2.6634941732283464
20
-5.2326971259842514
11
2.6591196456692914
21
-5.2451988188976379
0
LINE
8
BLACK
6
CONTINUOUS
10
2.6591196456692914
20
-5.2451988188976379
11
2.6533728346456691
21
-5.2571321653543306
0
LINE
8
BLACK
6
CONTINUOUS
10
2.6533728346456691
20
-5.2571321653543306
11
2.6463261023622047
21
-5.2683470078740156
0
LINE
8
BLACK
6
CONTINUOUS
10
2.6463261023622047
20
-5.2683470078740156
11
2.6380679527559057
21
-5.278702362204724
0
LINE
8
BLACK
6
CONTINUOUS
10
2.6380679527559057
20
-5.278702362204724
11
2.6287023622047245
21
-5.2880679527559051
0
LINE
8
BLACK
6
CONTINUOUS
10
2.6287023622047245
20
-5.2880679527559051
11
2.6183470078740156
21
-5.2963261023622046
0
LINE
8
BLACK
6
CONTINUOUS
10
2.6183470078740156
20
-5.2963261023622046
11
2.6071321653543307
21
-5.3033728346456694
0
LINE
8
BLACK
6
CONTINUOUS
10
2.6071321653543307
20
-5.3033728346456694
11
2.5951988188976376
21
-5.3091196456692913
0
LINE
8
BLACK
6
CONTINUOUS
10
2.5951988188976376
20
-5.3091196456692913
11
2.5826971259842519
21
-5.3134941732283467
0
LINE
8
BLACK
6
CONTINUOUS
10
2.5826971259842519
20
-5.3134941732283467
11
2.5697842125984249
21
-5.316441456692913
0
LINE
8
BLACK
6
CONTINUOUS
10
2.5697842125984249
20
-5.316441456692913
11
2.5566224803149606
21
-5.3179244094488185
0
LINE
8
BLACK
6
CONTINUOUS
10
2.5566224803149606
20
-5.3179244094488185
11
2.5433775196850394
21
-5.3179244094488185
0
LINE
8
BLACK
6
CONTINUOUS
10
2.5433775196850394
20
-5.3179244094488185
11
2.5302157874015747
21
-5.316441456692913
0
LINE
8
BLACK
6
CONTINUOUS
10
2.5302157874015747
20
-5.316441456692913
11
2.5173028740157481
21
-5.3134941732283467
0
LINE
8
BLACK
6
CONTINUOUS
10
2.5173028740157481
20
-5.3134941732283467
11
2.5048011811023621
21
-5.3091196456692913
0
LINE
8
BLACK
6
CONTINUOUS
10
2.5048011811023621
20
-5.3091196456692913
11
2.4928678346456694
21
-5.3033728346456694
0
LINE
8
BLACK
6
CONTINUOUS
10
2.4928678346456694
20
-5.3033728346456694
11
2.481652992125984
21
-5.2963261023622046
0
LINE
8
BLACK
6
CONTINUOUS
10
2.481652992125984
20
-5.2963261023622046
11
2.4712976377952756
21
-5.2880679527559051
0
LINE
8
BLACK
6
CONTINUOUS
10
2.4712976377952756
20
-5.2880679527559051
11
2.4619320472440944
21
-5.278702362204724
0
LINE
8
BLACK
6
CONTINUOUS
10
2.4619320472440944
20
-5.278702362204724
11
2.4536738976377954
21
-5.2683470078740156
0
LINE
8
BLACK
6
CONTINUOUS
10
2.4536738976377954
20
-5.2683470078740156
11
2.4466271653543306
21
-5.2571321653543306
0
LINE
8
BLACK
6
CONTINUOUS
10
2.4466271653543306
20
-5.2571321653543306
11
2.4408803543307087
21
-5.2451988188976379
0
LINE
8
BLACK
6
CONTINUOUS
10
2.4408803543307087
20
-5.2451988188976379
11
2.4365058267716533
21
-5.2326971259842514
0
LINE
8
BLACK
6
CONTINUOUS
10
2.4365058267716533
20
-5.2326971259842514
11
2.4335585433070865
21
-5.2197842125984248
0
LINE
8
BLACK
6
CONTINUOUS
10
2.4335585433070865
20
-5.2197842125984248
11
2.4320755905511811
21
-5.2066224803149606
0
LINE
8
BLACK
6
CONTINUOUS
10
2.4320755905511811
20
-5.2066224803149606
11
2.4320755905511811
21
-5.1933775196850389
0
LINE
8
BLACK
6
CONTINUOUS
10
2.4320755905511811
20
-5.1933775196850389
11
2.4335585433070865
21
-5.1802157874015746
0
LINE
8
BLACK
6
CONTINUOUS
10
2.4335585433070865
20
-5.1802157874015746
11
2.4365058267716533
21
-5.1673028740157481
0
LINE
8
BLACK
6
CONTINUOUS
10
2.4365058267716533
20
-5.1673028740157481
11
2.4408803543307087
21
-5.1548011811023624
0
LINE
8
BLACK
6
CONTINUOUS
10
2.4408803543307087
20
-5.1548011811023624
11
2.4466271653543306
21
-5.1428678346456689
0
LINE
8
BLACK
6
CONTINUOUS
10
2.4466271653543306
20
-5.1428678346456689
11
2.4536738976377954
21
-5.1316529921259839
0
LINE
8
BLACK
6
CONTINUOUS
10
2.4536738976377954
20
-5.1316529921259839
11
2.4619320472440944
21
-5.1212976377952755
0
LINE
8
BLACK
6
CONTINUOUS
10
2.4619320472440944
20
-5.1212976377952755
11
2.4712976377952756
21
-5.1119320472440943
0
LINE
8
BLACK
6
CONTINUOUS
10
2.4712976377952756
20
-5.1119320472440943
11
2.481652992125984
21
-5.1036738976377949
0
LINE
8
BLACK
6
CONTINUOUS
10
2.481652992125984
20
-5.1036738976377949
11
2.4928678346456694
21
-5.0966271653543309
0
LINE
8
BLACK
6
CONTINUOUS
10
2.4928678346456694
20
-5.0966271653543309
11
2.5048011811023621
21
-5.0908803543307082
0
LINE
8
BLACK
6
CONTINUOUS
10
2.5048011811023621
20
-5.0908803543307082
11
2.5173028740157481
21
-5.0865058267716536
0
LINE
8
BLACK
6
CONTINUOUS
10
2.5173028740157481
20
-5.0865058267716536
11
2.5302157874015747
21
-5.0835585433070865
0
LINE
8
BLACK
6
CONTINUOUS
10
2.5302157874015747
20
-5.0835585433070865
11
2.5433775196850394
21
-5.082075590551181
0
LINE
8
BLACK
6
CONTINUOUS
10
2.5433775196850394
20
-5.082075590551181
11
2.5566224803149606
21
-5.082075590551181
0
LINE
8
BLACK
6
CONTINUOUS
10
2.5566224803149606
20
-5.082075590551181
11
2.5697842125984249
21
-5.0835585433070865
0
LINE
8
BLACK
6
CONTINUOUS
10
4.9697842125984248
20
-5.0835585433070865
11
4.9826971259842523
21
-5.0865058267716536
0
LINE
8
BLACK
6
CONTINUOUS
10
4.9826971259842523
20
-5.0865058267716536
11
4.9951988188976379
21
-5.0908803543307082
0
LINE
8
BLACK
6
CONTINUOUS
10
4.9951988188976379
20
-5.0908803543307082
11
5.0071321653543306
21
-5.0966271653543309
0
LINE
8
BLACK
6
CONTINUOUS
10
5.0071321653543306
20
-5.0966271653543309
11
5.0183470078740156
21
-5.1036738976377949
0
LINE
8
BLACK
6
CONTINUOUS
10
5.0183470078740156
20
-5.1036738976377949
11
5.028702362204724
21
-5.1119320472440943
0
LINE
8
BLACK
6
CONTINUOUS
10
5.028702362204724
20
-5.1119320472440943
11
5.0380679527559051
21
-5.1212976377952755
0
LINE
8
BLACK
6
CONTINUOUS
10
5.0380679527559051
20
-5.1212976377952755
11
5.0463261023622046
21
-5.1316529921259839
0
LINE
8
BLACK
6
CONTINUOUS
10
5.0463261023622046
20
-5.1316529921259839
11
5.0533728346456694
21
-5.1428678346456689
0
LINE
8
BLACK
6
CONTINUOUS
10
5.0533728346456694
20
-5.1428678346456689
11
5.0591196456692913
21
-5.1548011811023624
0
LINE
8
BLACK
6
CONTINUOUS
10
5.0591196456692913
20
-5.1548011811023624
11
5.0634941732283467
21
-5.1673028740157481
0
LINE
8
BLACK
6
CONTINUOUS
10
5.0634941732283467
20
-5.1673028740157481
11
5.066441456692913
21
-5.1802157874015746
0
LINE
8
BLACK
6
CONTINUOUS
10
5.066441456692913
20
-5.1802157874015746
11
5.0679244094488185
21
-5.1933775196850389
0
LINE
8
BLACK
6
CONTINUOUS
10
5.0679244094488185
20
-5.1933775196850389
11
5.0679244094488185
21
-5.2066224803149606
0
LINE
8
BLACK
6
CONTINUOUS
10
5.0679244094488185
20
-5.2066224803149606
11
5.066441456692913
21
-5.2197842125984248
0
LINE
8
BLACK
6
CONTINUOUS
10
5.066441456692913
20
-5.2197842125984248
11
5.0634941732283467
21
-5.2326971259842514
0
LINE
8
BLACK
6
CONTINUOUS
10
5.0634941732283467
20
-5.2326971259842514
11
5.0591196456692913
21
-5.2451988188976379
0
LINE
8
BLACK
6
CONTINUOUS
10
5.0591196456692913
20
-5.2451988188976379
11
5.0533728346456694
21
-5.2571321653543306
0
LINE
8
BLACK
6
CONTINUOUS
10
5.0533728346456694
20
-5.2571321653543306
11
5.0463261023622046
21
-5.2683470078740156
0
LINE
8
BLACK
6
CONTINUOUS
10
5.0463261023622046
20
-5.2683470078740156
11
5.0380679527559051
21
-5.278702362204724
0
LINE
8
BLACK
6
CONTINUOUS
10
5.0380679527559051
20
-5.278702362204724
11
5.028702362204724
21
-5.2880679527559051
0
LINE
8
BLACK
6
CONTINUOUS
10
5.028702362204724
20
-5.2880679527559051
11
5.0183470078740156
21
-5.2963261023622046
0
LINE
8
BLACK
6
CONTINUOUS
10
5.0183470078740156
20
-5.2963261023622046
11
5.0071321653543306
21
-5.3033728346456694
0
LINE
8
BLACK
6
CONTINUOUS
10
5.0071321653543306
20
-5.3033728346456694
11
4.9951988188976379
21
-5.3091196456692913
0
LINE
8
BLACK
6
CONTINUOUS
10
4.9951988188976379
20
-5.3091196456692913
11
4.9826971259842523
21
-5.3134941732283467
0
LINE
8
BLACK
6
CONTINUOUS
10
4.9826971259842523
20
-5.3134941732283467
11
4.9697842125984248
21
-5.316441456692913
0
LINE
8
BLACK
6
CONTINUOUS
10
4.9697842125984248
20
-5.316441456692913
11
4.9566224803149606
21
-5.3179244094488185
0
LINE
8
BLACK
6
CONTINUOUS
10
4.9566224803149606
20
-5.3179244094488185
11
4.9433775196850389
21
-5.3179244094488185
0
LINE
8
BLACK
6
CONTINUOUS
10
4.9433775196850389
20
-5.3179244094488185
11
4.9302157874015746
21
-5.316441456692913
0
LINE
8
BLACK
6
CONTINUOUS
10
4.9302157874015746
20
-5.316441456692913
11
4.9173028740157481
21
-5.3134941732283467
0
LINE
8
BLACK
6
CONTINUOUS
10
4.9173028740157481
20
-5.3134941732283467
11
4.9048011811023624
21
-5.3091196456692913
0
LINE
8
BLACK
6
CONTINUOUS
10
4.9048011811023624
20
-5.3091196456692913
11
4.8928678346456689
21
-5.3033728346456694
0
LINE
8
BLACK
6
CONTINUOUS
10
4.8928678346456689
20
-5.3033728346456694
11
4.8816529921259839
21
-5.2963261023622046
0
LINE
8
BLACK
6
CONTINUOUS
10
4.8816529921259839
20
-5.2963261023622046
11
4.8712976377952755
21
-5.2880679527559051
0
LINE
8
BLACK
6
CONTINUOUS
10
4.8712976377952755
20
-5.2880679527559051
11
4.8619320472440943
21
-5.278702362204724
0
LINE
8
BLACK
6
CONTINUOUS
10
4.8619320472440943
20
-5.278702362204724
11
4.8536738976377949
21
-5.2683470078740156
0
LINE
8
BLACK
6
CONTINUOUS
10
4.8536738976377949
20
-5.2683470078740156
11
4.8466271653543309
21
-5.2571321653543306
0
LINE
8
BLACK
6
CONTINUOUS
10
4.8466271653543309
20
-5.2571321653543306
11
4.8408803543307082
21
-5.2451988188976379
0
LINE
8
BLACK
6
CONTINUOUS
10
4.8408803543307082
20
-5.2451988188976379
11
4.8365058267716536
21
-5.2326971259842514
0
LINE
8
BLACK
6
CONTINUOUS
10
4.8365058267716536
20
-5.2326971259842514
11
4.8335585433070865
21
-5.2197842125984248
0
LINE
8
BLACK
6
CONTINUOUS
10
4.8335585433070865
20
-5.2197842125984248
11
4.832075590551181
21
-5.2066224803149606
0
LINE
8
BLACK
6
CONTINUOUS
10
4.832075590551181
20
-5.2066224803149606
11
4.832075590551181
21
-5.1933775196850389
0
LINE
8
BLACK
6
CONTINUOUS
10
4.832075590551181
20
-5.1933775196850389
11
4.8335585433070865
21
-5.1802157874015746
0
LINE
8
BLACK
6
CONTINUOUS
10
4.8335585433070865
20
-5.1802157874015746
11
4.8365058267716536
21
-5.1673028740157481
0
LINE
8
BLACK
6
CONTINUOUS
10
4.8365058267716536
20
-5.1673028740157481
11
4.8408803543307082
21
-5.1548011811023624
0
LINE
8
BLACK
6
CONTINUOUS
10
4.8408803543307082
20
-5.1548011811023624
11
4.8466271653543309
21
-5.1428678346456689
0
LINE
8
BLACK
6
CONTINUOUS
10
4.8466271653543309
20
-5.1428678346456689
11
4.8536738976377949
21
-5.1316529921259839
0
LINE
8
BLACK
6
CONTINUOUS
10
4.8536738976377949
20
-5.1316529921259839
11
4.8619320472440943
21
-5.1212976377952755
0
LINE
8
BLACK
6
CONTINUOUS
10
4.8619320472440943
20
-5.1212976377952755
11
4.8712976377952755
21
-5.1119320472440943
0
LINE
8
BLACK
6
CONTINUOUS
10
4.8712976377952755
20
-5.1119320472440943
11
4.8816529921259839
21
-5.1036738976377949
0
LINE
8
BLACK
6
CONTINUOUS
10
4.8816529921259839
20
-5.1036738976377949
11
4.8928678346456689
21
-5.0966271653543309
0
LINE
8
BLACK
6
CONTINUOUS
10
4.8928678346456689
20
-5.0966271653543309
11
4.9048011811023624
21
-5.0908803543307082
0
LINE
8
BLACK
6
CONTINUOUS
10
4.9048011811023624
20
-5.0908803543307082
11
4.9173028740157481
21
-5.0865058267716536
0
LINE
8
BLACK
6
CONTINUOUS
10
4.9173028740157481
20
-5.0865058267716536
11
4.9302157874015746
21
-5.0835585433070865
0
LINE
8
BLACK
6
CONTINUOUS
10
4.9302157874015746
20
-5.0835585433070865
11
4.9433775196850389
21
-5.082075590551181
0
LINE
8
BLACK
6
CONTINUOUS
10
4.9433775196850389
20
-5.082075590551181
11
4.9566224803149606
21
-5.082075590551181
0
LINE
8
BLACK
6
CONTINUOUS
10
4.9566224803149606
20
-5.082075590551181
11
4.9697842125984248
21
-5.0835585433070865
0
LINE
8
BLACK
6
CONTINUOUS
10
2.5697842125984249
20
-2.6835585433070865
11
2.5826971259842519
21
-2.6865058267716533
0
LINE
8
BLACK
6
CONTINUOUS
10
2.5826971259842519
20
-2.6865058267716533
11
2.5951988188976376
21
-2.6908803543307087
0
LINE
8
BLACK
6
CONTINUOUS
10
2.5951988188976376
20
-2.6908803543307087
11
2.6071321653543307
21
-2.6966271653543306
0
LINE
8
BLACK
6
CONTINUOUS
10
2.6071321653543307
20
-2.6966271653543306
11
2.6183470078740156
21
-2.7036738976377954
0
LINE
8
BLACK
6
CONTINUOUS
10
2.6183470078740156
20
-2.7036738976377954
11
2.6287023622047245
21
-2.7119320472440944
0
LINE
8
BLACK
6
CONTINUOUS
10
2.6287023622047245
20
-2.7119320472440944
11
2.6380679527559057
21
-2.7212976377952756
0
LINE
8
BLACK
6
CONTINUOUS
10
2.6380679527559057
20
-2.7212976377952756
11
2.6463261023622047
21
-2.731652992125984
0
LINE
8
BLACK
6
CONTINUOUS
10
2.6463261023622047
20
-2.731652992125984
11
2.6533728346456691
21
-2.7428678346456694
0
LINE
8
BLACK
6
CONTINUOUS
10
2.6533728346456691
20
-2.7428678346456694
11
2.6591196456692914
21
-2.7548011811023621
0
LINE
8
BLACK
6
CONTINUOUS
10
2.6591196456692914
20
-2.7548011811023621
11
2.6634941732283464
21
-2.7673028740157481
0
LINE
8
BLACK
6
CONTINUOUS
10
2.6634941732283464
20
-2.7673028740157481
11
2.6664414566929131
21
-2.7802157874015747
0
LINE
8
BLACK
6
CONTINUOUS
10
2.6664414566929131
20
-2.7802157874015747
11
2.667924409448819
21
-2.7933775196850394
0
LINE
8
BLACK
6
CONTINUOUS
10
2.667924409448819
20
-2.7933775196850394
11
2.667924409448819
21
-2.8066224803149606
0
LINE
8
BLACK
6
CONTINUOUS
10
2.667924409448819
20
-2.8066224803149606
11
2.6664414566929131
21
-2.8197842125984249
0
LINE
8
BLACK
6
CONTINUOUS
10
2.6664414566929131
20
-2.8197842125984249
11
2.6634941732283464
21
-2.8326971259842519
0
LINE
8
BLACK
6
CONTINUOUS
10
2.6634941732283464
20
-2.8326971259842519
11
2.6591196456692914
21
-2.8451988188976376
0
LINE
8
BLACK
6
CONTINUOUS
10
2.6591196456692914
20
-2.8451988188976376
11
2.6533728346456691
21
-2.8571321653543307
0
LINE
8
BLACK
6
CONTINUOUS
10
2.6533728346456691
20
-2.8571321653543307
11
2.6463261023622047
21
-2.8683470078740156
0
LINE
8
BLACK
6
CONTINUOUS
10
2.6463261023622047
20
-2.8683470078740156
11
2.6380679527559057
21
-2.8787023622047245
0
LINE
8
BLACK
6
CONTINUOUS
10
2.6380679527559057
20
-2.8787023622047245
11
2.6287023622047245
21
-2.8880679527559057
0
LINE
8
BLACK
6
CONTINUOUS
10
2.6287023622047245
20
-2.8880679527559057
11
2.6183470078740156
21
-2.8963261023622047
0
LINE
8
BLACK
6
CONTINUOUS
10
2.6183470078740156
20
-2.8963261023622047
11
2.6071321653543307
21
-2.9033728346456691
0
LINE
8
BLACK
6
CONTINUOUS
10
2.6071321653543307
20
-2.9033728346456691
11
2.5951988188976376
21
-2.9091196456692914
0
LINE
8
BLACK
6
CONTINUOUS
10
2.5951988188976376
20
-2.9091196456692914
11
2.5826971259842519
21
-2.9134941732283464
0
LINE
8
BLACK
6
CONTINUOUS
10
2.5826971259842519
20
-2.9134941732283464
11
2.5697842125984249
21
-2.9164414566929131
0
LINE
8
BLACK
6
CONTINUOUS
10
2.5697842125984249
20
-2.9164414566929131
11
2.5566224803149606
21
-2.917924409448819
0
LINE
8
BLACK
6
CONTINUOUS
10
2.5566224803149606
20
-2.917924409448819
11
2.5433775196850394
21
-2.917924409448819
0
LINE
8
BLACK
6
CONTINUOUS
10
2.5433775196850394
20
-2.917924409448819
11
2.5302157874015747
21
-2.9164414566929131
0
LINE
8
BLACK
6
CONTINUOUS
10
2.5302157874015747
20
-2.9164414566929131
11
2.5173028740157481
21
-2.9134941732283464
0
LINE
8
BLACK
6
CONTINUOUS
10
2.5173028740157481
20
-2.9134941732283464
11
2.5048011811023621
21
-2.9091196456692914
0
LINE
8
BLACK
6
CONTINUOUS
10
2.5048011811023621
20
-2.9091196456692914
11
2.4928678346456694
21
-2.9033728346456691
0
LINE
8
BLACK
6
CONTINUOUS
10
2.4928678346456694
20
-2.9033728346456691
11
2.481652992125984
21
-2.8963261023622047
0
LINE
8
BLACK
6
CONTINUOUS
10
2.481652992125984
20
-2.8963261023622047
11
2.4712976377952756
21
-2.8880679527559057
0
LINE
8
BLACK
6
CONTINUOUS
10
2.4712976377952756
20
-2.8880679527559057
11
2.4619320472440944
21
-2.8787023622047245
0
LINE
8
BLACK
6
CONTINUOUS
10
2.4619320472440944
20
-2.8787023622047245
11
2.4536738976377954
21
-2.8683470078740156
0
LINE
8
BLACK
6
CONTINUOUS
10
2.4536738976377954
20
-2.8683470078740156
11
2.4466271653543306
21
-2.8571321653543307
0
LINE
8
BLACK
6
CONTINUOUS
10
2.4466271653543306
20
-2.8571321653543307
11
2.4408803543307087
21
-2.8451988188976376
0
LINE
8
BLACK
6
CONTINUOUS
10
2.4408803543307087
20
-2.8451988188976376
11
2.4365058267716533
21
-2.8326971259842519
0
LINE
8
BLACK
6
CONTINUOUS
10
2.4365058267716533
20
-2.8326971259842519
11
2.4335585433070865
21
-2.8197842125984249
0
LINE
8
BLACK
6
CONTINUOUS
10
2.4335585433070865
20
-2.8197842125984249
11
2.4320755905511811
21
-2.8066224803149606
0
LINE
8
BLACK
6
CONTINUOUS
10
2.4320755905511811
20
-2.8066224803149606
11
2.4320755905511811
21
-2.7933775196850394
0
LINE
8
BLACK
6
CONTINUOUS
10
2.4320755905511811
20
-2.7933775196850394
11
2.4335585433070865
21
-2.7802157874015747
0
LINE
8
BLACK
6
CONTINUOUS
10
2.4335585433070865
20
-2.7802157874015747
11
2.4365058267716533
21
-2.7673028740157481
0
LINE
8
BLACK
6
CONTINUOUS
10
2.4365058267716533
20
-2.7673028740157481
11
2.4408803543307087
21
-2.7548011811023621
0
LINE
8
BLACK
6
CONTINUOUS
10
2.4408803543307087
20
-2.7548011811023621
11
2.4466271653543306
21
-2.7428678346456694
0
LINE
8
BLACK
6
CONTINUOUS
10
2.4466271653543306
20
-2.7428678346456694
11
2.4536738976377954
21
-2.731652992125984
0
LINE
8
BLACK
6
CONTINUOUS
10
2.4536738976377954
20
-2.731652992125984
11
2.4619320472440944
21
-2.7212976377952756
0
LINE
8
BLACK
6
CONTINUOUS
10
2.4619320472440944
20
-2.7212976377952756
11
2.4712976377952756
21
-2.7119320472440944
0
LINE
8
BLACK
6
CONTINUOUS
10
2.4712976377952756
20
-2.7119320472440944
11
2.481652992125984
21
-2.7036738976377954
0
LINE
8
BLACK
6
CONTINUOUS
10
2.481652992125984
20
-2.7036738976377954
11
2.4928678346456694
21
-2.6966271653543306
0
LINE
8
BLACK
6
CONTINUOUS
10
2.4928678346456694
20
-2.6966271653543306
11
2.5048011811023621
21
-2.6908803543307087
0
LINE
8
BLACK
6
CONTINUOUS
10
2.5048011811023621
20
-2.6908803543307087
11
2.5173028740157481
21
-2.6865058267716533
0
LINE
8
BLACK
6
CONTINUOUS
10
2.5173028740157481
20
-2.6865058267716533
11
2.5302157874015747
21
-2.6835585433070865
0
LINE
8
BLACK
6
CONTINUOUS
10
2.5302157874015747
20
-2.6835585433070865
11
2.5433775196850394
21
-2.6820755905511811
0
LINE
8
BLACK
6
CONTINUOUS
10
2.5433775196850394
20
-2.6820755905511811
11
2.5566224803149606
21
-2.6820755905511811
0
LINE
8
BLACK
6
CONTINUOUS
10
2.5566224803149606
20
-2.6820755905511811
11
2.5697842125984249
21
-2.6835585433070865
0
LINE
8
BLACK
6
CONTINUOUS
10
4.9697842125984248
20
-2.6835585433070865
11
4.9826971259842523
21
-2.6865058267716533
0
LINE
8
BLACK
6
CONTINUOUS
10
4.9826971259842523
20
-2.6865058267716533
11
4.9951988188976379
21
-2.6908803543307087
0
LINE
8
BLACK
6
CONTINUOUS
10
4.9951988188976379
20
-2.6908803543307087
11
5.0071321653543306
21
-2.6966271653543306
0
LINE
8
BLACK
6
CONTINUOUS
10
5.0071321653543306
20
-2.6966271653543306
11
5.0183470078740156
21
-2.7036738976377954
0
LINE
8
BLACK
6
CONTINUOUS
10
5.0183470078740156
20
-2.7036738976377954
11
5.028702362204724
21
-2.7119320472440944
0
LINE
8
BLACK
6
CONTINUOUS
10
5.028702362204724
20
-2.7119320472440944
11
5.0380679527559051
21
-2.7212976377952756
0
LINE
8
BLACK
6
CONTINUOUS
10
5.0380679527559051
20
-2.7212976377952756
11
5.0463261023622046
21
-2.731652992125984
0
LINE
8
BLACK
6
CONTINUOUS
10
5.0463261023622046
20
-2.731652992125984
11
5.0533728346456694
21
-2.7428678346456694
0
LINE
8
BLACK
6
CONTINUOUS
10
5.0533728346456694
20
-2.7428678346456694
11
5.0591196456692913
21
-2.7548011811023621
0
LINE
8
BLACK
6
CONTINUOUS
10
5.0591196456692913
20
-2.7548011811023621
11
5.0634941732283467
21
-2.7673028740157481
0
LINE
8
BLACK
6
CONTINUOUS
10
5.0634941732283467
20
-2.7673028740157481
11
5.066441456692913
21
-2.7802157874015747
0
LINE
8
BLACK
6
CONTINUOUS
10
5.066441456692913
20
-2.7802157874015747
11
5.0679244094488185
21
-2.7933775196850394
0
LINE
8
BLACK
6
CONTINUOUS
10
5.0679244094488185
20
-2.7933775196850394
11
5.0679244094488185
21
-2.8066224803149606
0
LINE
8
BLACK
6
CONTINUOUS
10
5.0679244094488185
20
-2.8066224803149606
11
5.066441456692913
21
-2.8197842125984249
0
LINE
8
BLACK
6
CONTINUOUS
10
5.066441456692913
20
-2.8197842125984249
11
5.0634941732283467
21
-2.8326971259842519
0
LINE
8
BLACK
6
CONTINUOUS
10
5.0634941732283467
20
-2.8326971259842519
11
5.0591196456692913
21
-2.8451988188976376
0
LINE
8
BLACK
6
CONTINUOUS
10
5.0591196456692913
20
-2.8451988188976376
11
5.0533728346456694
21
-2.8571321653543307
0
LINE
8
BLACK
6
CONTINUOUS
10
5.0533728346456694
20
-2.8571321653543307
11
5.0463261023622046
21
-2.8683470078740156
0
LINE
8
BLACK
6
CONTINUOUS
10
5.0463261023622046
20
-2.8683470078740156
11
5.0380679527559051
21
-2.8787023622047245
0
LINE
8
BLACK
6
CONTINUOUS
10
5.0380679527559051
20
-2.8787023622047245
11
5.028702362204724
21
-2.8880679527559057
0
LINE
8
BLACK
6
CONTINUOUS
10
5.028702362204724
20
-2.8880679527559057
11
5.0183470078740156
21
-2.8963261023622047
0
LINE
8
BLACK
6
CONTINUOUS
10
5.0183470078740156
20
-2.8963261023622047
11
5.0071321653543306
21
-2.9033728346456691
0
LINE
8
BLACK
6
CONTINUOUS
10
5.0071321653543306
20
-2.9033728346456691
11
4.9951988188976379
21
-2.9091196456692914
0
LINE
8
BLACK
6
CONTINUOUS
10
4.9951988188976379
20
-2.9091196456692914
11
4.9826971259842523
21
-2.9134941732283464
0
LINE
8
BLACK
6
CONTINUOUS
10
4.9826971259842523
20
-2.9134941732283464
11
4.9697842125984248
21
-2.9164414566929131
0
LINE
8
BLACK
6
CONTINUOUS
10
4.9697842125984248
20
-2.9164414566929131
11
4.9566224803149606
21
-2.917924409448819
0
LINE
8
BLACK
6
CONTINUOUS
10
4.9566224803149606
20
-2.917924409448819
11
4.9433775196850389
21
-2.917924409448819
0
LINE
8
BLACK
6
CONTINUOUS
10
4.9433775196850389
20
-2.917924409448819
11
4.9302157874015746
21
-2.9164414566929131
0
LINE
8
BLACK
6
CONTINUOUS
10
4.9302157874015746
20
-2.9164414566929131
11
4.9173028740157481
21
-2.9134941732283464
0
LINE
8
BLACK
6
CONTINUOUS
10
4.9173028740157481
20
-2.9134941732283464
11
4.9048011811023624
21
-2.9091196456692914
0
LINE
8
BLACK
6
CONTINUOUS
10
4.9048011811023624
20
-2.9091196456692914
11
4.8928678346456689
21
-2.9033728346456691
0
LINE
8
BLACK
6
CONTINUOUS
10
4.8928678346456689
20
-2.9033728346456691
11
4.8816529921259839
21
-2.8963261023622047
0
LINE
8
BLACK
6
CONTINUOUS
10
4.8816529921259839
20
-2.8963261023622047
11
4.8712976377952755
21
-2.8880679527559057
0
LINE
8
BLACK
6
CONTINUOUS
10
4.8712976377952755
20
-2.8880679527559057
11
4.8619320472440943
21
-2.8787023622047245
0
LINE
8
BLACK
6
CONTINUOUS
10
4.8619320472440943
20
-2.8787023622047245
11
4.8536738976377949
21
-2.8683470078740156
0
LINE
8
BLACK
6
CONTINUOUS
10
4.8536738976377949
20
-2.8683470078740156
11
4.8466271653543309
21
-2.8571321653543307
0
LINE
8
BLACK
6
CONTINUOUS
10
4.8466271653543309
20
-2.8571321653543307
11
4.8408803543307082
21
-2.8451988188976376
0
LINE
8
BLACK
6
CONTINUOUS
10
4.8408803543307082
20
-2.8451988188976376
11
4.8365058267716536
21
-2.8326971259842519
0
LINE
8
BLACK
6
CONTINUOUS
10
4.8365058267716536
20
-2.8326971259842519
11
4.8335585433070865
21
-2.8197842125984249
0
LINE
8
BLACK
6
CONTINUOUS
10
4.8335585433070865
20
-2.8197842125984249
11
4.832075590551181
21
-2.8066224803149606
0
LINE
8
BLACK
6
CONTINUOUS
10
4.832075590551181
20
-2.8066224803149606
11
4.832075590551181
21
-2.7933775196850394
0
LINE
8
BLACK
6
CONTINUOUS
10
4.832075590551181
20
-2.7933775196850394
11
4.8335585433070865
21
-2.7802157874015747
0
LINE
8
BLACK
6
CONTINUOUS
10
4.8335585433070865
20
-2.7802157874015747
11
4.8365058267716536
21
-2.7673028740157481
0
LINE
8
BLACK
6
CONTINUOUS
10
4.8365058267716536
20
-2.7673028740157481
11
4.8408803543307082
21
-2.7548011811023621
0
LINE
8
BLACK
6
CONTINUOUS
10
4.8408803543307082
20
-2.7548011811023621
11
4.8466271653543309
21
-2.7428678346456694
0
LINE
8
BLACK
6
CONTINUOUS
10
4.8466271653543309
20
-2.7428678346456694
11
4.8536738976377949
21
-2.731652992125984
0
LINE
8
BLACK
6
CONTINUOUS
10
4.8536738976377949
20
-2.731652992125984
11
4.8619320472440943
21
-2.7212976377952756
0
LINE
8
BLACK
6
CONTINUOUS
10
4.8619320472440943
20
-2.7212976377952756
11
4.8712976377952755
21
-2.7119320472440944
0
LINE
8
BLACK
6
CONTINUOUS
10
4.8712976377952755
20
-2.7119320472440944
11
4.8816529921259839
21
-2.7036738976377954
0
LINE
8
BLACK
6
CONTINUOUS
10
4.8816529921259839
20
-2.7036738976377954
11
4.8928678346456689
21
-2.6966271653543306
0
LINE
8
BLACK
6
CONTINUOUS
10
4.8928678346456689
20
-2.6966271653543306
11
4.9048011811023624
21
-2.6908803543307087
0
LINE
8
BLACK
6
CONTINUOUS
10
4.9048011811023624
20
-2.6908803543307087
11
4.9173028740157481
21
-2.6865058267716533
0
LINE
8
BLACK
6
CONTINUOUS
10
4.9173028740157481
20
-2.6865058267716533
11
4.9302157874015746
21
-2.6835585433070865
0
LINE
8
BLACK
6
CONTINUOUS
10
4.9302157874015746
20
-2.6835585433070865
11
4.9433775196850389
21
-2.6820755905511811
0
LINE
8
BLACK
6
CONTINUOUS
10
4.9433775196850389
20
-2.6820755905511811
11
4.9566224803149606
21
-2.6820755905511811
0
LINE
8
BLACK
6
CONTINUOUS
10
4.9566224803149606
20
-2.6820755905511811
11
4.9697842125984248
21
-2.6835585433070865
  0
ENDSEC
  0
EOF
