  0
SECTION
  2
HEADER
  9
$ANGBASE
  50
0.0
  9
$ANGDIR
  70
1
  9
$MEASUREMENT
  70
0
  0
ENDSEC
  0
SECTION
  2
TABLES
  0
TABLE
  2
LTYPE
  70
4
  0
LTYPE
  5
40F
  2
CONTINUOUS
  70
0
  3
Solid line
  72
65
  73
0
  40
0.0
  0
LTYPE
  5
410
  2
DASHDOT
 70
0
  3
Dash Dot ____ _ ____ _
 72
65
 73
4
 40
2.0
 49
1.25
 49
-0.25
 49
0.25
 49
-0.25
  0
LTYPE
  5
411
  2
DASHED
 70
0
  3
Dashed __ __ __ __ __
 72
65
 73
2
 40
0.75
 49
0.5
 49
-0.25
  0
LTYPE
  5
43B
  2
DOTTED
 70
0
  3
Dotted .  .  .  .
 72
65
 73
2
 40
0.2
 49
0.0
 49
-0.2
  0
ENDTAB
  0
TABLE
  2
STYLE
  70
4
  0
STYLE
  2
KICAD
  70
0
  40
0
  41
1
  42
1
  50
0
  71
0
  3
isocp.shx
  0
STYLE
  2
KICADB
  70
0
  40
0
  41
1
  42
1
  50
0
  71
0
  3
isocp.shx
  0
STYLE
  2
KICADI
  70
0
  40
0
  41
1
  42
1
  50
15
  71
0
  3
isocp.shx
  0
STYLE
  2
KICADBI
  70
0
  40
0
  41
1
  42
1
  50
15
  71
0
  3
isocp.shx
  0
ENDTAB
  0
TABLE
  2
LAYER
  70
1
  0
LAYER
  2
BLACK
  70
0
  62
7
  6
CONTINUOUS
  0
ENDTAB
  0
ENDSEC
  0
SECTION
  2
ENTITIES
0
LINE
8
BLACK
6
CONTINUOUS
10
3.58123
20
-4.86977
11
3.58411
21
-4.87169
0
LINE
8
BLACK
6
CONTINUOUS
10
3.58411
20
-4.87169
11
3.58603
21
-4.87456
0
LINE
8
BLACK
6
CONTINUOUS
10
3.58603
20
-4.87456
11
3.5867
21
-4.87795
0
LINE
8
BLACK
6
CONTINUOUS
10
3.5867
20
-4.87795
11
3.5867
21
-4.89567
0
LINE
8
BLACK
6
CONTINUOUS
10
3.5867
20
-4.89567
11
3.58603
21
-4.89906
0
LINE
8
BLACK
6
CONTINUOUS
10
3.58603
20
-4.89906
11
3.58411
21
-4.90193
0
LINE
8
BLACK
6
CONTINUOUS
10
3.58411
20
-4.90193
11
3.58123
21
-4.90385
0
LINE
8
BLACK
6
CONTINUOUS
10
3.58123
20
-4.90385
11
3.57784
21
-4.90453
0
LINE
8
BLACK
6
CONTINUOUS
10
3.57784
20
-4.90453
11
3.55816
21
-4.90453
0
LINE
8
BLACK
6
CONTINUOUS
10
3.55816
20
-4.90453
11
3.55477
21
-4.90385
0
LINE
8
BLACK
6
CONTINUOUS
10
3.55477
20
-4.90385
11
3.55189
21
-4.90193
0
LINE
8
BLACK
6
CONTINUOUS
10
3.55189
20
-4.90193
11
3.54997
21
-4.89906
0
LINE
8
BLACK
6
CONTINUOUS
10
3.54997
20
-4.89906
11
3.5493
21
-4.89567
0
LINE
8
BLACK
6
CONTINUOUS
10
3.5493
20
-4.89567
11
3.5493
21
-4.87795
0
LINE
8
BLACK
6
CONTINUOUS
10
3.5493
20
-4.87795
11
3.54997
21
-4.87456
0
LINE
8
BLACK
6
CONTINUOUS
10
3.54997
20
-4.87456
11
3.55189
21
-4.87169
0
LINE
8
BLACK
6
CONTINUOUS
10
3.55189
20
-4.87169
11
3.55477
21
-4.86977
0
LINE
8
BLACK
6
CONTINUOUS
10
3.55477
20
-4.86977
11
3.55816
21
-4.86909
0
LINE
8
BLACK
6
CONTINUOUS
10
3.55816
20
-4.86909
11
3.57784
21
-4.86909
0
LINE
8
BLACK
6
CONTINUOUS
10
3.57784
20
-4.86909
11
3.58123
21
-4.86977
0
LINE
8
BLACK
6
CONTINUOUS
10
3.58123
20
-4.80875
11
3.58411
21
-4.81067
0
LINE
8
BLACK
6
CONTINUOUS
10
3.58411
20
-4.81067
11
3.58603
21
-4.81354
0
LINE
8
BLACK
6
CONTINUOUS
10
3.58603
20
-4.81354
11
3.5867
21
-4.81693
0
LINE
8
BLACK
6
CONTINUOUS
10
3.5867
20
-4.81693
11
3.5867
21
-4.83465
0
LINE
8
BLACK
6
CONTINUOUS
10
3.5867
20
-4.83465
11
3.58603
21
-4.83804
0
LINE
8
BLACK
6
CONTINUOUS
10
3.58603
20
-4.83804
11
3.58411
21
-4.84091
0
LINE
8
BLACK
6
CONTINUOUS
10
3.58411
20
-4.84091
11
3.58123
21
-4.84283
0
LINE
8
BLACK
6
CONTINUOUS
10
3.58123
20
-4.84283
11
3.57784
21
-4.8435
0
LINE
8
BLACK
6
CONTINUOUS
10
3.57784
20
-4.8435
11
3.55816
21
-4.8435
0
LINE
8
BLACK
6
CONTINUOUS
10
3.55816
20
-4.8435
11
3.55477
21
-4.84283
0
LINE
8
BLACK
6
CONTINUOUS
10
3.55477
20
-4.84283
11
3.55189
21
-4.84091
0
LINE
8
BLACK
6
CONTINUOUS
10
3.55189
20
-4.84091
11
3.54997
21
-4.83804
0
LINE
8
BLACK
6
CONTINUOUS
10
3.54997
20
-4.83804
11
3.5493
21
-4.83465
0
LINE
8
BLACK
6
CONTINUOUS
10
3.5493
20
-4.83465
11
3.5493
21
-4.81693
0
LINE
8
BLACK
6
CONTINUOUS
10
3.5493
20
-4.81693
11
3.54997
21
-4.81354
0
LINE
8
BLACK
6
CONTINUOUS
10
3.54997
20
-4.81354
11
3.55189
21
-4.81067
0
LINE
8
BLACK
6
CONTINUOUS
10
3.55189
20
-4.81067
11
3.55477
21
-4.80875
0
LINE
8
BLACK
6
CONTINUOUS
10
3.55477
20
-4.80875
11
3.55816
21
-4.80807
0
LINE
8
BLACK
6
CONTINUOUS
10
3.55816
20
-4.80807
11
3.57784
21
-4.80807
0
LINE
8
BLACK
6
CONTINUOUS
10
3.57784
20
-4.80807
11
3.58123
21
-4.80875
0
LINE
8
BLACK
6
CONTINUOUS
10
4.39323
20
-4.35394
11
4.39611
21
-4.35586
0
LINE
8
BLACK
6
CONTINUOUS
10
4.39611
20
-4.35586
11
4.39803
21
-4.35874
0
LINE
8
BLACK
6
CONTINUOUS
10
4.39803
20
-4.35874
11
4.3987
21
-4.36213
0
LINE
8
BLACK
6
CONTINUOUS
10
4.3987
20
-4.36213
11
4.3987
21
-4.37984
0
LINE
8
BLACK
6
CONTINUOUS
10
4.3987
20
-4.37984
11
4.39803
21
-4.38323
0
LINE
8
BLACK
6
CONTINUOUS
10
4.39803
20
-4.38323
11
4.39611
21
-4.38611
0
LINE
8
BLACK
6
CONTINUOUS
10
4.39611
20
-4.38611
11
4.39323
21
-4.38803
0
LINE
8
BLACK
6
CONTINUOUS
10
4.39323
20
-4.38803
11
4.38984
21
-4.3887
0
LINE
8
BLACK
6
CONTINUOUS
10
4.38984
20
-4.3887
11
4.37016
21
-4.3887
0
LINE
8
BLACK
6
CONTINUOUS
10
4.37016
20
-4.3887
11
4.36677
21
-4.38803
0
LINE
8
BLACK
6
CONTINUOUS
10
4.36677
20
-4.38803
11
4.36389
21
-4.38611
0
LINE
8
BLACK
6
CONTINUOUS
10
4.36389
20
-4.38611
11
4.36197
21
-4.38323
0
LINE
8
BLACK
6
CONTINUOUS
10
4.36197
20
-4.38323
11
4.3613
21
-4.37984
0
LINE
8
BLACK
6
CONTINUOUS
10
4.3613
20
-4.37984
11
4.3613
21
-4.36213
0
LINE
8
BLACK
6
CONTINUOUS
10
4.3613
20
-4.36213
11
4.36197
21
-4.35874
0
LINE
8
BLACK
6
CONTINUOUS
10
4.36197
20
-4.35874
11
4.36389
21
-4.35586
0
LINE
8
BLACK
6
CONTINUOUS
10
4.36389
20
-4.35586
11
4.36677
21
-4.35394
0
LINE
8
BLACK
6
CONTINUOUS
10
4.36677
20
-4.35394
11
4.37016
21
-4.35327
0
LINE
8
BLACK
6
CONTINUOUS
10
4.37016
20
-4.35327
11
4.38984
21
-4.35327
0
LINE
8
BLACK
6
CONTINUOUS
10
4.38984
20
-4.35327
11
4.39323
21
-4.35394
0
LINE
8
BLACK
6
CONTINUOUS
10
4.33384
20
-4.35733
11
4.33639
21
-4.35904
0
LINE
8
BLACK
6
CONTINUOUS
10
4.33639
20
-4.35904
11
4.3381
21
-4.36159
0
LINE
8
BLACK
6
CONTINUOUS
10
4.3381
20
-4.36159
11
4.3387
21
-4.36461
0
LINE
8
BLACK
6
CONTINUOUS
10
4.3387
20
-4.36461
11
4.3387
21
-4.38035
0
LINE
8
BLACK
6
CONTINUOUS
10
4.3387
20
-4.38035
11
4.3381
21
-4.38337
0
LINE
8
BLACK
6
CONTINUOUS
10
4.3381
20
-4.38337
11
4.33639
21
-4.38592
0
LINE
8
BLACK
6
CONTINUOUS
10
4.33639
20
-4.38592
11
4.33384
21
-4.38763
0
LINE
8
BLACK
6
CONTINUOUS
10
4.33384
20
-4.38763
11
4.33083
21
-4.38823
0
LINE
8
BLACK
6
CONTINUOUS
10
4.33083
20
-4.38823
11
4.30917
21
-4.38823
0
LINE
8
BLACK
6
CONTINUOUS
10
4.30917
20
-4.38823
11
4.30616
21
-4.38763
0
LINE
8
BLACK
6
CONTINUOUS
10
4.30616
20
-4.38763
11
4.30361
21
-4.38592
0
LINE
8
BLACK
6
CONTINUOUS
10
4.30361
20
-4.38592
11
4.3019
21
-4.38337
0
LINE
8
BLACK
6
CONTINUOUS
10
4.3019
20
-4.38337
11
4.3013
21
-4.38035
0
LINE
8
BLACK
6
CONTINUOUS
10
4.3013
20
-4.38035
11
4.3013
21
-4.36461
0
LINE
8
BLACK
6
CONTINUOUS
10
4.3013
20
-4.36461
11
4.3019
21
-4.36159
0
LINE
8
BLACK
6
CONTINUOUS
10
4.3019
20
-4.36159
11
4.30361
21
-4.35904
0
LINE
8
BLACK
6
CONTINUOUS
10
4.30361
20
-4.35904
11
4.30616
21
-4.35733
0
LINE
8
BLACK
6
CONTINUOUS
10
4.30616
20
-4.35733
11
4.30917
21
-4.35673
0
LINE
8
BLACK
6
CONTINUOUS
10
4.30917
20
-4.35673
11
4.33083
21
-4.35673
0
LINE
8
BLACK
6
CONTINUOUS
10
4.33083
20
-4.35673
11
4.33384
21
-4.35733
0
LINE
8
BLACK
6
CONTINUOUS
10
4.39323
20
-4.29292
11
4.39611
21
-4.29484
0
LINE
8
BLACK
6
CONTINUOUS
10
4.39611
20
-4.29484
11
4.39803
21
-4.29771
0
LINE
8
BLACK
6
CONTINUOUS
10
4.39803
20
-4.29771
11
4.3987
21
-4.3011
0
LINE
8
BLACK
6
CONTINUOUS
10
4.3987
20
-4.3011
11
4.3987
21
-4.31882
0
LINE
8
BLACK
6
CONTINUOUS
10
4.3987
20
-4.31882
11
4.39803
21
-4.32221
0
LINE
8
BLACK
6
CONTINUOUS
10
4.39803
20
-4.32221
11
4.39611
21
-4.32508
0
LINE
8
BLACK
6
CONTINUOUS
10
4.39611
20
-4.32508
11
4.39323
21
-4.327
0
LINE
8
BLACK
6
CONTINUOUS
10
4.39323
20
-4.327
11
4.38984
21
-4.32768
0
LINE
8
BLACK
6
CONTINUOUS
10
4.38984
20
-4.32768
11
4.37016
21
-4.32768
0
LINE
8
BLACK
6
CONTINUOUS
10
4.37016
20
-4.32768
11
4.36677
21
-4.327
0
LINE
8
BLACK
6
CONTINUOUS
10
4.36677
20
-4.327
11
4.36389
21
-4.32508
0
LINE
8
BLACK
6
CONTINUOUS
10
4.36389
20
-4.32508
11
4.36197
21
-4.32221
0
LINE
8
BLACK
6
CONTINUOUS
10
4.36197
20
-4.32221
11
4.3613
21
-4.31882
0
LINE
8
BLACK
6
CONTINUOUS
10
4.3613
20
-4.31882
11
4.3613
21
-4.3011
0
LINE
8
BLACK
6
CONTINUOUS
10
4.3613
20
-4.3011
11
4.36197
21
-4.29771
0
LINE
8
BLACK
6
CONTINUOUS
10
4.36197
20
-4.29771
11
4.36389
21
-4.29484
0
LINE
8
BLACK
6
CONTINUOUS
10
4.36389
20
-4.29484
11
4.36677
21
-4.29292
0
LINE
8
BLACK
6
CONTINUOUS
10
4.36677
20
-4.29292
11
4.37016
21
-4.29224
0
LINE
8
BLACK
6
CONTINUOUS
10
4.37016
20
-4.29224
11
4.38984
21
-4.29224
0
LINE
8
BLACK
6
CONTINUOUS
10
4.38984
20
-4.29224
11
4.39323
21
-4.29292
0
LINE
8
BLACK
6
CONTINUOUS
10
4.33384
20
-4.29237
11
4.33639
21
-4.29408
0
LINE
8
BLACK
6
CONTINUOUS
10
4.33639
20
-4.29408
11
4.3381
21
-4.29663
0
LINE
8
BLACK
6
CONTINUOUS
10
4.3381
20
-4.29663
11
4.3387
21
-4.29965
0
LINE
8
BLACK
6
CONTINUOUS
10
4.3387
20
-4.29965
11
4.3387
21
-4.31539
0
LINE
8
BLACK
6
CONTINUOUS
10
4.3387
20
-4.31539
11
4.3381
21
-4.31841
0
LINE
8
BLACK
6
CONTINUOUS
10
4.3381
20
-4.31841
11
4.33639
21
-4.32096
0
LINE
8
BLACK
6
CONTINUOUS
10
4.33639
20
-4.32096
11
4.33384
21
-4.32267
0
LINE
8
BLACK
6
CONTINUOUS
10
4.33384
20
-4.32267
11
4.33083
21
-4.32327
0
LINE
8
BLACK
6
CONTINUOUS
10
4.33083
20
-4.32327
11
4.30917
21
-4.32327
0
LINE
8
BLACK
6
CONTINUOUS
10
4.30917
20
-4.32327
11
4.30616
21
-4.32267
0
LINE
8
BLACK
6
CONTINUOUS
10
4.30616
20
-4.32267
11
4.30361
21
-4.32096
0
LINE
8
BLACK
6
CONTINUOUS
10
4.30361
20
-4.32096
11
4.3019
21
-4.31841
0
LINE
8
BLACK
6
CONTINUOUS
10
4.3019
20
-4.31841
11
4.3013
21
-4.31539
0
LINE
8
BLACK
6
CONTINUOUS
10
4.3013
20
-4.31539
11
4.3013
21
-4.29965
0
LINE
8
BLACK
6
CONTINUOUS
10
4.3013
20
-4.29965
11
4.3019
21
-4.29663
0
LINE
8
BLACK
6
CONTINUOUS
10
4.3019
20
-4.29663
11
4.30361
21
-4.29408
0
LINE
8
BLACK
6
CONTINUOUS
10
4.30361
20
-4.29408
11
4.30616
21
-4.29237
0
LINE
8
BLACK
6
CONTINUOUS
10
4.30616
20
-4.29237
11
4.30917
21
-4.29177
0
LINE
8
BLACK
6
CONTINUOUS
10
4.30917
20
-4.29177
11
4.33083
21
-4.29177
0
LINE
8
BLACK
6
CONTINUOUS
10
4.33083
20
-4.29177
11
4.33384
21
-4.29237
0
LINE
8
BLACK
6
CONTINUOUS
10
3.70184
20
-4.22927
11
3.70471
21
-4.23119
0
LINE
8
BLACK
6
CONTINUOUS
10
3.70471
20
-4.23119
11
3.70663
21
-4.23407
0
LINE
8
BLACK
6
CONTINUOUS
10
3.70663
20
-4.23407
11
3.7073
21
-4.23746
0
LINE
8
BLACK
6
CONTINUOUS
10
3.7073
20
-4.23746
11
3.7073
21
-4.25714
0
LINE
8
BLACK
6
CONTINUOUS
10
3.7073
20
-4.25714
11
3.70663
21
-4.26053
0
LINE
8
BLACK
6
CONTINUOUS
10
3.70663
20
-4.26053
11
3.70471
21
-4.26341
0
LINE
8
BLACK
6
CONTINUOUS
10
3.70471
20
-4.26341
11
3.70184
21
-4.26533
0
LINE
8
BLACK
6
CONTINUOUS
10
3.70184
20
-4.26533
11
3.69845
21
-4.266
0
LINE
8
BLACK
6
CONTINUOUS
10
3.69845
20
-4.266
11
3.68073
21
-4.266
0
LINE
8
BLACK
6
CONTINUOUS
10
3.68073
20
-4.266
11
3.67734
21
-4.26533
0
LINE
8
BLACK
6
CONTINUOUS
10
3.67734
20
-4.26533
11
3.67447
21
-4.26341
0
LINE
8
BLACK
6
CONTINUOUS
10
3.67447
20
-4.26341
11
3.67255
21
-4.26053
0
LINE
8
BLACK
6
CONTINUOUS
10
3.67255
20
-4.26053
11
3.67187
21
-4.25714
0
LINE
8
BLACK
6
CONTINUOUS
10
3.67187
20
-4.25714
11
3.67187
21
-4.23746
0
LINE
8
BLACK
6
CONTINUOUS
10
3.67187
20
-4.23746
11
3.67255
21
-4.23407
0
LINE
8
BLACK
6
CONTINUOUS
10
3.67255
20
-4.23407
11
3.67447
21
-4.23119
0
LINE
8
BLACK
6
CONTINUOUS
10
3.67447
20
-4.23119
11
3.67734
21
-4.22927
0
LINE
8
BLACK
6
CONTINUOUS
10
3.67734
20
-4.22927
11
3.68073
21
-4.2286
0
LINE
8
BLACK
6
CONTINUOUS
10
3.68073
20
-4.2286
11
3.69845
21
-4.2286
0
LINE
8
BLACK
6
CONTINUOUS
10
3.69845
20
-4.2286
11
3.70184
21
-4.22927
0
LINE
8
BLACK
6
CONTINUOUS
10
3.76286
20
-4.22927
11
3.76573
21
-4.23119
0
LINE
8
BLACK
6
CONTINUOUS
10
3.76573
20
-4.23119
11
3.76765
21
-4.23407
0
LINE
8
BLACK
6
CONTINUOUS
10
3.76765
20
-4.23407
11
3.76833
21
-4.23746
0
LINE
8
BLACK
6
CONTINUOUS
10
3.76833
20
-4.23746
11
3.76833
21
-4.25714
0
LINE
8
BLACK
6
CONTINUOUS
10
3.76833
20
-4.25714
11
3.76765
21
-4.26053
0
LINE
8
BLACK
6
CONTINUOUS
10
3.76765
20
-4.26053
11
3.76573
21
-4.26341
0
LINE
8
BLACK
6
CONTINUOUS
10
3.76573
20
-4.26341
11
3.76286
21
-4.26533
0
LINE
8
BLACK
6
CONTINUOUS
10
3.76286
20
-4.26533
11
3.75947
21
-4.266
0
LINE
8
BLACK
6
CONTINUOUS
10
3.75947
20
-4.266
11
3.74175
21
-4.266
0
LINE
8
BLACK
6
CONTINUOUS
10
3.74175
20
-4.266
11
3.73836
21
-4.26533
0
LINE
8
BLACK
6
CONTINUOUS
10
3.73836
20
-4.26533
11
3.73549
21
-4.26341
0
LINE
8
BLACK
6
CONTINUOUS
10
3.73549
20
-4.26341
11
3.73357
21
-4.26053
0
LINE
8
BLACK
6
CONTINUOUS
10
3.73357
20
-4.26053
11
3.7329
21
-4.25714
0
LINE
8
BLACK
6
CONTINUOUS
10
3.7329
20
-4.25714
11
3.7329
21
-4.23746
0
LINE
8
BLACK
6
CONTINUOUS
10
3.7329
20
-4.23746
11
3.73357
21
-4.23407
0
LINE
8
BLACK
6
CONTINUOUS
10
3.73357
20
-4.23407
11
3.73549
21
-4.23119
0
LINE
8
BLACK
6
CONTINUOUS
10
3.73549
20
-4.23119
11
3.73836
21
-4.22927
0
LINE
8
BLACK
6
CONTINUOUS
10
3.73836
20
-4.22927
11
3.74175
21
-4.2286
0
LINE
8
BLACK
6
CONTINUOUS
10
3.74175
20
-4.2286
11
3.75947
21
-4.2286
0
LINE
8
BLACK
6
CONTINUOUS
10
3.75947
20
-4.2286
11
3.76286
21
-4.22927
0
LINE
8
BLACK
6
CONTINUOUS
10
3.48823
20
-4.21994
11
3.49111
21
-4.22186
0
LINE
8
BLACK
6
CONTINUOUS
10
3.49111
20
-4.22186
11
3.49303
21
-4.22474
0
LINE
8
BLACK
6
CONTINUOUS
10
3.49303
20
-4.22474
11
3.4937
21
-4.22813
0
LINE
8
BLACK
6
CONTINUOUS
10
3.4937
20
-4.22813
11
3.4937
21
-4.24584
0
LINE
8
BLACK
6
CONTINUOUS
10
3.4937
20
-4.24584
11
3.49303
21
-4.24923
0
LINE
8
BLACK
6
CONTINUOUS
10
3.49303
20
-4.24923
11
3.49111
21
-4.25211
0
LINE
8
BLACK
6
CONTINUOUS
10
3.49111
20
-4.25211
11
3.48823
21
-4.25403
0
LINE
8
BLACK
6
CONTINUOUS
10
3.48823
20
-4.25403
11
3.48484
21
-4.2547
0
LINE
8
BLACK
6
CONTINUOUS
10
3.48484
20
-4.2547
11
3.46516
21
-4.2547
0
LINE
8
BLACK
6
CONTINUOUS
10
3.46516
20
-4.2547
11
3.46177
21
-4.25403
0
LINE
8
BLACK
6
CONTINUOUS
10
3.46177
20
-4.25403
11
3.45889
21
-4.25211
0
LINE
8
BLACK
6
CONTINUOUS
10
3.45889
20
-4.25211
11
3.45697
21
-4.24923
0
LINE
8
BLACK
6
CONTINUOUS
10
3.45697
20
-4.24923
11
3.4563
21
-4.24584
0
LINE
8
BLACK
6
CONTINUOUS
10
3.4563
20
-4.24584
11
3.4563
21
-4.22813
0
LINE
8
BLACK
6
CONTINUOUS
10
3.4563
20
-4.22813
11
3.45697
21
-4.22474
0
LINE
8
BLACK
6
CONTINUOUS
10
3.45697
20
-4.22474
11
3.45889
21
-4.22186
0
LINE
8
BLACK
6
CONTINUOUS
10
3.45889
20
-4.22186
11
3.46177
21
-4.21994
0
LINE
8
BLACK
6
CONTINUOUS
10
3.46177
20
-4.21994
11
3.46516
21
-4.21927
0
LINE
8
BLACK
6
CONTINUOUS
10
3.46516
20
-4.21927
11
3.48484
21
-4.21927
0
LINE
8
BLACK
6
CONTINUOUS
10
3.48484
20
-4.21927
11
3.48823
21
-4.21994
0
LINE
8
BLACK
6
CONTINUOUS
10
3.48823
20
-4.15892
11
3.49111
21
-4.16084
0
LINE
8
BLACK
6
CONTINUOUS
10
3.49111
20
-4.16084
11
3.49303
21
-4.16371
0
LINE
8
BLACK
6
CONTINUOUS
10
3.49303
20
-4.16371
11
3.4937
21
-4.1671
0
LINE
8
BLACK
6
CONTINUOUS
10
3.4937
20
-4.1671
11
3.4937
21
-4.18482
0
LINE
8
BLACK
6
CONTINUOUS
10
3.4937
20
-4.18482
11
3.49303
21
-4.18821
0
LINE
8
BLACK
6
CONTINUOUS
10
3.49303
20
-4.18821
11
3.49111
21
-4.19108
0
LINE
8
BLACK
6
CONTINUOUS
10
3.49111
20
-4.19108
11
3.48823
21
-4.193
0
LINE
8
BLACK
6
CONTINUOUS
10
3.48823
20
-4.193
11
3.48484
21
-4.19368
0
LINE
8
BLACK
6
CONTINUOUS
10
3.48484
20
-4.19368
11
3.46516
21
-4.19368
0
LINE
8
BLACK
6
CONTINUOUS
10
3.46516
20
-4.19368
11
3.46177
21
-4.193
0
LINE
8
BLACK
6
CONTINUOUS
10
3.46177
20
-4.193
11
3.45889
21
-4.19108
0
LINE
8
BLACK
6
CONTINUOUS
10
3.45889
20
-4.19108
11
3.45697
21
-4.18821
0
LINE
8
BLACK
6
CONTINUOUS
10
3.45697
20
-4.18821
11
3.4563
21
-4.18482
0
LINE
8
BLACK
6
CONTINUOUS
10
3.4563
20
-4.18482
11
3.4563
21
-4.1671
0
LINE
8
BLACK
6
CONTINUOUS
10
3.4563
20
-4.1671
11
3.45697
21
-4.16371
0
LINE
8
BLACK
6
CONTINUOUS
10
3.45697
20
-4.16371
11
3.45889
21
-4.16084
0
LINE
8
BLACK
6
CONTINUOUS
10
3.45889
20
-4.16084
11
3.46177
21
-4.15892
0
LINE
8
BLACK
6
CONTINUOUS
10
3.46177
20
-4.15892
11
3.46516
21
-4.15824
0
LINE
8
BLACK
6
CONTINUOUS
10
3.46516
20
-4.15824
11
3.48484
21
-4.15824
0
LINE
8
BLACK
6
CONTINUOUS
10
3.48484
20
-4.15824
11
3.48823
21
-4.15892
0
LINE
8
BLACK
6
CONTINUOUS
10
3.46308
20
-4.07927
11
3.46628
21
-4.0814
0
LINE
8
BLACK
6
CONTINUOUS
10
3.46628
20
-4.0814
11
3.46841
21
-4.08459
0
LINE
8
BLACK
6
CONTINUOUS
10
3.46841
20
-4.08459
11
3.46916
21
-4.08836
0
LINE
8
BLACK
6
CONTINUOUS
10
3.46916
20
-4.08836
11
3.46916
21
-4.11395
0
LINE
8
BLACK
6
CONTINUOUS
10
3.46916
20
-4.11395
11
3.46841
21
-4.11772
0
LINE
8
BLACK
6
CONTINUOUS
10
3.46841
20
-4.11772
11
3.46628
21
-4.12091
0
LINE
8
BLACK
6
CONTINUOUS
10
3.46628
20
-4.12091
11
3.46308
21
-4.12304
0
LINE
8
BLACK
6
CONTINUOUS
10
3.46308
20
-4.12304
11
3.45932
21
-4.12379
0
LINE
8
BLACK
6
CONTINUOUS
10
3.45932
20
-4.12379
11
3.42388
21
-4.12379
0
LINE
8
BLACK
6
CONTINUOUS
10
3.42388
20
-4.12379
11
3.42012
21
-4.12304
0
LINE
8
BLACK
6
CONTINUOUS
10
3.42012
20
-4.12304
11
3.41692
21
-4.12091
0
LINE
8
BLACK
6
CONTINUOUS
10
3.41692
20
-4.12091
11
3.41479
21
-4.11772
0
LINE
8
BLACK
6
CONTINUOUS
10
3.41479
20
-4.11772
11
3.41404
21
-4.11395
0
LINE
8
BLACK
6
CONTINUOUS
10
3.41404
20
-4.11395
11
3.41404
21
-4.08836
0
LINE
8
BLACK
6
CONTINUOUS
10
3.41404
20
-4.08836
11
3.41479
21
-4.08459
0
LINE
8
BLACK
6
CONTINUOUS
10
3.41479
20
-4.08459
11
3.41692
21
-4.0814
0
LINE
8
BLACK
6
CONTINUOUS
10
3.41692
20
-4.0814
11
3.42012
21
-4.07927
0
LINE
8
BLACK
6
CONTINUOUS
10
3.42012
20
-4.07927
11
3.42388
21
-4.07852
0
LINE
8
BLACK
6
CONTINUOUS
10
3.42388
20
-4.07852
11
3.45932
21
-4.07852
0
LINE
8
BLACK
6
CONTINUOUS
10
3.45932
20
-4.07852
11
3.46308
21
-4.07927
0
LINE
8
BLACK
6
CONTINUOUS
10
3.65423
20
-4.08094
11
3.65711
21
-4.08286
0
LINE
8
BLACK
6
CONTINUOUS
10
3.65711
20
-4.08286
11
3.65903
21
-4.08574
0
LINE
8
BLACK
6
CONTINUOUS
10
3.65903
20
-4.08574
11
3.6597
21
-4.08913
0
LINE
8
BLACK
6
CONTINUOUS
10
3.6597
20
-4.08913
11
3.6597
21
-4.10684
0
LINE
8
BLACK
6
CONTINUOUS
10
3.6597
20
-4.10684
11
3.65903
21
-4.11023
0
LINE
8
BLACK
6
CONTINUOUS
10
3.65903
20
-4.11023
11
3.65711
21
-4.11311
0
LINE
8
BLACK
6
CONTINUOUS
10
3.65711
20
-4.11311
11
3.65423
21
-4.11503
0
LINE
8
BLACK
6
CONTINUOUS
10
3.65423
20
-4.11503
11
3.65084
21
-4.1157
0
LINE
8
BLACK
6
CONTINUOUS
10
3.65084
20
-4.1157
11
3.63116
21
-4.1157
0
LINE
8
BLACK
6
CONTINUOUS
10
3.63116
20
-4.1157
11
3.62777
21
-4.11503
0
LINE
8
BLACK
6
CONTINUOUS
10
3.62777
20
-4.11503
11
3.62489
21
-4.11311
0
LINE
8
BLACK
6
CONTINUOUS
10
3.62489
20
-4.11311
11
3.62297
21
-4.11023
0
LINE
8
BLACK
6
CONTINUOUS
10
3.62297
20
-4.11023
11
3.6223
21
-4.10684
0
LINE
8
BLACK
6
CONTINUOUS
10
3.6223
20
-4.10684
11
3.6223
21
-4.08913
0
LINE
8
BLACK
6
CONTINUOUS
10
3.6223
20
-4.08913
11
3.62297
21
-4.08574
0
LINE
8
BLACK
6
CONTINUOUS
10
3.62297
20
-4.08574
11
3.62489
21
-4.08286
0
LINE
8
BLACK
6
CONTINUOUS
10
3.62489
20
-4.08286
11
3.62777
21
-4.08094
0
LINE
8
BLACK
6
CONTINUOUS
10
3.62777
20
-4.08094
11
3.63116
21
-4.08027
0
LINE
8
BLACK
6
CONTINUOUS
10
3.63116
20
-4.08027
11
3.65084
21
-4.08027
0
LINE
8
BLACK
6
CONTINUOUS
10
3.65084
20
-4.08027
11
3.65423
21
-4.08094
0
LINE
8
BLACK
6
CONTINUOUS
10
3.78623
20
-4.08
11
3.78911
21
-4.08192
0
LINE
8
BLACK
6
CONTINUOUS
10
3.78911
20
-4.08192
11
3.79103
21
-4.08479
0
LINE
8
BLACK
6
CONTINUOUS
10
3.79103
20
-4.08479
11
3.7917
21
-4.08818
0
LINE
8
BLACK
6
CONTINUOUS
10
3.7917
20
-4.08818
11
3.7917
21
-4.1059
0
LINE
8
BLACK
6
CONTINUOUS
10
3.7917
20
-4.1059
11
3.79103
21
-4.10929
0
LINE
8
BLACK
6
CONTINUOUS
10
3.79103
20
-4.10929
11
3.78911
21
-4.11216
0
LINE
8
BLACK
6
CONTINUOUS
10
3.78911
20
-4.11216
11
3.78623
21
-4.11408
0
LINE
8
BLACK
6
CONTINUOUS
10
3.78623
20
-4.11408
11
3.78284
21
-4.11476
0
LINE
8
BLACK
6
CONTINUOUS
10
3.78284
20
-4.11476
11
3.76316
21
-4.11476
0
LINE
8
BLACK
6
CONTINUOUS
10
3.76316
20
-4.11476
11
3.75977
21
-4.11408
0
LINE
8
BLACK
6
CONTINUOUS
10
3.75977
20
-4.11408
11
3.75689
21
-4.11216
0
LINE
8
BLACK
6
CONTINUOUS
10
3.75689
20
-4.11216
11
3.75497
21
-4.10929
0
LINE
8
BLACK
6
CONTINUOUS
10
3.75497
20
-4.10929
11
3.7543
21
-4.1059
0
LINE
8
BLACK
6
CONTINUOUS
10
3.7543
20
-4.1059
11
3.7543
21
-4.08818
0
LINE
8
BLACK
6
CONTINUOUS
10
3.7543
20
-4.08818
11
3.75497
21
-4.08479
0
LINE
8
BLACK
6
CONTINUOUS
10
3.75497
20
-4.08479
11
3.75689
21
-4.08192
0
LINE
8
BLACK
6
CONTINUOUS
10
3.75689
20
-4.08192
11
3.75977
21
-4.08
0
LINE
8
BLACK
6
CONTINUOUS
10
3.75977
20
-4.08
11
3.76316
21
-4.07932
0
LINE
8
BLACK
6
CONTINUOUS
10
3.76316
20
-4.07932
11
3.78284
21
-4.07932
0
LINE
8
BLACK
6
CONTINUOUS
10
3.78284
20
-4.07932
11
3.78623
21
-4.08
0
LINE
8
BLACK
6
CONTINUOUS
10
3.73123
20
-4.08
11
3.73411
21
-4.08192
0
LINE
8
BLACK
6
CONTINUOUS
10
3.73411
20
-4.08192
11
3.73603
21
-4.08479
0
LINE
8
BLACK
6
CONTINUOUS
10
3.73603
20
-4.08479
11
3.7367
21
-4.08818
0
LINE
8
BLACK
6
CONTINUOUS
10
3.7367
20
-4.08818
11
3.7367
21
-4.1059
0
LINE
8
BLACK
6
CONTINUOUS
10
3.7367
20
-4.1059
11
3.73603
21
-4.10929
0
LINE
8
BLACK
6
CONTINUOUS
10
3.73603
20
-4.10929
11
3.73411
21
-4.11216
0
LINE
8
BLACK
6
CONTINUOUS
10
3.73411
20
-4.11216
11
3.73123
21
-4.11408
0
LINE
8
BLACK
6
CONTINUOUS
10
3.73123
20
-4.11408
11
3.72784
21
-4.11476
0
LINE
8
BLACK
6
CONTINUOUS
10
3.72784
20
-4.11476
11
3.70816
21
-4.11476
0
LINE
8
BLACK
6
CONTINUOUS
10
3.70816
20
-4.11476
11
3.70477
21
-4.11408
0
LINE
8
BLACK
6
CONTINUOUS
10
3.70477
20
-4.11408
11
3.70189
21
-4.11216
0
LINE
8
BLACK
6
CONTINUOUS
10
3.70189
20
-4.11216
11
3.69997
21
-4.10929
0
LINE
8
BLACK
6
CONTINUOUS
10
3.69997
20
-4.10929
11
3.6993
21
-4.1059
0
LINE
8
BLACK
6
CONTINUOUS
10
3.6993
20
-4.1059
11
3.6993
21
-4.08818
0
LINE
8
BLACK
6
CONTINUOUS
10
3.6993
20
-4.08818
11
3.69997
21
-4.08479
0
LINE
8
BLACK
6
CONTINUOUS
10
3.69997
20
-4.08479
11
3.70189
21
-4.08192
0
LINE
8
BLACK
6
CONTINUOUS
10
3.70189
20
-4.08192
11
3.70477
21
-4.08
0
LINE
8
BLACK
6
CONTINUOUS
10
3.70477
20
-4.08
11
3.70816
21
-4.07932
0
LINE
8
BLACK
6
CONTINUOUS
10
3.70816
20
-4.07932
11
3.72784
21
-4.07932
0
LINE
8
BLACK
6
CONTINUOUS
10
3.72784
20
-4.07932
11
3.73123
21
-4.08
0
LINE
8
BLACK
6
CONTINUOUS
10
3.56323
20
-4.06394
11
3.56611
21
-4.06586
0
LINE
8
BLACK
6
CONTINUOUS
10
3.56611
20
-4.06586
11
3.56803
21
-4.06874
0
LINE
8
BLACK
6
CONTINUOUS
10
3.56803
20
-4.06874
11
3.5687
21
-4.07213
0
LINE
8
BLACK
6
CONTINUOUS
10
3.5687
20
-4.07213
11
3.5687
21
-4.08984
0
LINE
8
BLACK
6
CONTINUOUS
10
3.5687
20
-4.08984
11
3.56803
21
-4.09323
0
LINE
8
BLACK
6
CONTINUOUS
10
3.56803
20
-4.09323
11
3.56611
21
-4.09611
0
LINE
8
BLACK
6
CONTINUOUS
10
3.56611
20
-4.09611
11
3.56323
21
-4.09803
0
LINE
8
BLACK
6
CONTINUOUS
10
3.56323
20
-4.09803
11
3.55984
21
-4.0987
0
LINE
8
BLACK
6
CONTINUOUS
10
3.55984
20
-4.0987
11
3.54016
21
-4.0987
0
LINE
8
BLACK
6
CONTINUOUS
10
3.54016
20
-4.0987
11
3.53677
21
-4.09803
0
LINE
8
BLACK
6
CONTINUOUS
10
3.53677
20
-4.09803
11
3.53389
21
-4.09611
0
LINE
8
BLACK
6
CONTINUOUS
10
3.53389
20
-4.09611
11
3.53197
21
-4.09323
0
LINE
8
BLACK
6
CONTINUOUS
10
3.53197
20
-4.09323
11
3.5313
21
-4.08984
0
LINE
8
BLACK
6
CONTINUOUS
10
3.5313
20
-4.08984
11
3.5313
21
-4.07213
0
LINE
8
BLACK
6
CONTINUOUS
10
3.5313
20
-4.07213
11
3.53197
21
-4.06874
0
LINE
8
BLACK
6
CONTINUOUS
10
3.53197
20
-4.06874
11
3.53389
21
-4.06586
0
LINE
8
BLACK
6
CONTINUOUS
10
3.53389
20
-4.06586
11
3.53677
21
-4.06394
0
LINE
8
BLACK
6
CONTINUOUS
10
3.53677
20
-4.06394
11
3.54016
21
-4.06327
0
LINE
8
BLACK
6
CONTINUOUS
10
3.54016
20
-4.06327
11
3.55984
21
-4.06327
0
LINE
8
BLACK
6
CONTINUOUS
10
3.55984
20
-4.06327
11
3.56323
21
-4.06394
0
LINE
8
BLACK
6
CONTINUOUS
10
3.65423
20
-4.01992
11
3.65711
21
-4.02184
0
LINE
8
BLACK
6
CONTINUOUS
10
3.65711
20
-4.02184
11
3.65903
21
-4.02471
0
LINE
8
BLACK
6
CONTINUOUS
10
3.65903
20
-4.02471
11
3.6597
21
-4.0281
0
LINE
8
BLACK
6
CONTINUOUS
10
3.6597
20
-4.0281
11
3.6597
21
-4.04582
0
LINE
8
BLACK
6
CONTINUOUS
10
3.6597
20
-4.04582
11
3.65903
21
-4.04921
0
LINE
8
BLACK
6
CONTINUOUS
10
3.65903
20
-4.04921
11
3.65711
21
-4.05208
0
LINE
8
BLACK
6
CONTINUOUS
10
3.65711
20
-4.05208
11
3.65423
21
-4.054
0
LINE
8
BLACK
6
CONTINUOUS
10
3.65423
20
-4.054
11
3.65084
21
-4.05468
0
LINE
8
BLACK
6
CONTINUOUS
10
3.65084
20
-4.05468
11
3.63116
21
-4.05468
0
LINE
8
BLACK
6
CONTINUOUS
10
3.63116
20
-4.05468
11
3.62777
21
-4.054
0
LINE
8
BLACK
6
CONTINUOUS
10
3.62777
20
-4.054
11
3.62489
21
-4.05208
0
LINE
8
BLACK
6
CONTINUOUS
10
3.62489
20
-4.05208
11
3.62297
21
-4.04921
0
LINE
8
BLACK
6
CONTINUOUS
10
3.62297
20
-4.04921
11
3.6223
21
-4.04582
0
LINE
8
BLACK
6
CONTINUOUS
10
3.6223
20
-4.04582
11
3.6223
21
-4.0281
0
LINE
8
BLACK
6
CONTINUOUS
10
3.6223
20
-4.0281
11
3.62297
21
-4.02471
0
LINE
8
BLACK
6
CONTINUOUS
10
3.62297
20
-4.02471
11
3.62489
21
-4.02184
0
LINE
8
BLACK
6
CONTINUOUS
10
3.62489
20
-4.02184
11
3.62777
21
-4.01992
0
LINE
8
BLACK
6
CONTINUOUS
10
3.62777
20
-4.01992
11
3.63116
21
-4.01924
0
LINE
8
BLACK
6
CONTINUOUS
10
3.63116
20
-4.01924
11
3.65084
21
-4.01924
0
LINE
8
BLACK
6
CONTINUOUS
10
3.65084
20
-4.01924
11
3.65423
21
-4.01992
0
LINE
8
BLACK
6
CONTINUOUS
10
3.73123
20
-4.01897
11
3.73411
21
-4.02089
0
LINE
8
BLACK
6
CONTINUOUS
10
3.73411
20
-4.02089
11
3.73603
21
-4.02377
0
LINE
8
BLACK
6
CONTINUOUS
10
3.73603
20
-4.02377
11
3.7367
21
-4.02716
0
LINE
8
BLACK
6
CONTINUOUS
10
3.7367
20
-4.02716
11
3.7367
21
-4.04487
0
LINE
8
BLACK
6
CONTINUOUS
10
3.7367
20
-4.04487
11
3.73603
21
-4.04826
0
LINE
8
BLACK
6
CONTINUOUS
10
3.73603
20
-4.04826
11
3.73411
21
-4.05114
0
LINE
8
BLACK
6
CONTINUOUS
10
3.73411
20
-4.05114
11
3.73123
21
-4.05306
0
LINE
8
BLACK
6
CONTINUOUS
10
3.73123
20
-4.05306
11
3.72784
21
-4.05373
0
LINE
8
BLACK
6
CONTINUOUS
10
3.72784
20
-4.05373
11
3.70816
21
-4.05373
0
LINE
8
BLACK
6
CONTINUOUS
10
3.70816
20
-4.05373
11
3.70477
21
-4.05306
0
LINE
8
BLACK
6
CONTINUOUS
10
3.70477
20
-4.05306
11
3.70189
21
-4.05114
0
LINE
8
BLACK
6
CONTINUOUS
10
3.70189
20
-4.05114
11
3.69997
21
-4.04826
0
LINE
8
BLACK
6
CONTINUOUS
10
3.69997
20
-4.04826
11
3.6993
21
-4.04487
0
LINE
8
BLACK
6
CONTINUOUS
10
3.6993
20
-4.04487
11
3.6993
21
-4.02716
0
LINE
8
BLACK
6
CONTINUOUS
10
3.6993
20
-4.02716
11
3.69997
21
-4.02377
0
LINE
8
BLACK
6
CONTINUOUS
10
3.69997
20
-4.02377
11
3.70189
21
-4.02089
0
LINE
8
BLACK
6
CONTINUOUS
10
3.70189
20
-4.02089
11
3.70477
21
-4.01897
0
LINE
8
BLACK
6
CONTINUOUS
10
3.70477
20
-4.01897
11
3.70816
21
-4.0183
0
LINE
8
BLACK
6
CONTINUOUS
10
3.70816
20
-4.0183
11
3.72784
21
-4.0183
0
LINE
8
BLACK
6
CONTINUOUS
10
3.72784
20
-4.0183
11
3.73123
21
-4.01897
0
LINE
8
BLACK
6
CONTINUOUS
10
3.78623
20
-4.01897
11
3.78911
21
-4.02089
0
LINE
8
BLACK
6
CONTINUOUS
10
3.78911
20
-4.02089
11
3.79103
21
-4.02377
0
LINE
8
BLACK
6
CONTINUOUS
10
3.79103
20
-4.02377
11
3.7917
21
-4.02716
0
LINE
8
BLACK
6
CONTINUOUS
10
3.7917
20
-4.02716
11
3.7917
21
-4.04487
0
LINE
8
BLACK
6
CONTINUOUS
10
3.7917
20
-4.04487
11
3.79103
21
-4.04826
0
LINE
8
BLACK
6
CONTINUOUS
10
3.79103
20
-4.04826
11
3.78911
21
-4.05114
0
LINE
8
BLACK
6
CONTINUOUS
10
3.78911
20
-4.05114
11
3.78623
21
-4.05306
0
LINE
8
BLACK
6
CONTINUOUS
10
3.78623
20
-4.05306
11
3.78284
21
-4.05373
0
LINE
8
BLACK
6
CONTINUOUS
10
3.78284
20
-4.05373
11
3.76316
21
-4.05373
0
LINE
8
BLACK
6
CONTINUOUS
10
3.76316
20
-4.05373
11
3.75977
21
-4.05306
0
LINE
8
BLACK
6
CONTINUOUS
10
3.75977
20
-4.05306
11
3.75689
21
-4.05114
0
LINE
8
BLACK
6
CONTINUOUS
10
3.75689
20
-4.05114
11
3.75497
21
-4.04826
0
LINE
8
BLACK
6
CONTINUOUS
10
3.75497
20
-4.04826
11
3.7543
21
-4.04487
0
LINE
8
BLACK
6
CONTINUOUS
10
3.7543
20
-4.04487
11
3.7543
21
-4.02716
0
LINE
8
BLACK
6
CONTINUOUS
10
3.7543
20
-4.02716
11
3.75497
21
-4.02377
0
LINE
8
BLACK
6
CONTINUOUS
10
3.75497
20
-4.02377
11
3.75689
21
-4.02089
0
LINE
8
BLACK
6
CONTINUOUS
10
3.75689
20
-4.02089
11
3.75977
21
-4.01897
0
LINE
8
BLACK
6
CONTINUOUS
10
3.75977
20
-4.01897
11
3.76316
21
-4.0183
0
LINE
8
BLACK
6
CONTINUOUS
10
3.76316
20
-4.0183
11
3.78284
21
-4.0183
0
LINE
8
BLACK
6
CONTINUOUS
10
3.78284
20
-4.0183
11
3.78623
21
-4.01897
0
LINE
8
BLACK
6
CONTINUOUS
10
3.46308
20
-3.99856
11
3.46628
21
-4.00069
0
LINE
8
BLACK
6
CONTINUOUS
10
3.46628
20
-4.00069
11
3.46841
21
-4.00388
0
LINE
8
BLACK
6
CONTINUOUS
10
3.46841
20
-4.00388
11
3.46916
21
-4.00765
0
LINE
8
BLACK
6
CONTINUOUS
10
3.46916
20
-4.00765
11
3.46916
21
-4.03324
0
LINE
8
BLACK
6
CONTINUOUS
10
3.46916
20
-4.03324
11
3.46841
21
-4.03701
0
LINE
8
BLACK
6
CONTINUOUS
10
3.46841
20
-4.03701
11
3.46628
21
-4.0402
0
LINE
8
BLACK
6
CONTINUOUS
10
3.46628
20
-4.0402
11
3.46308
21
-4.04233
0
LINE
8
BLACK
6
CONTINUOUS
10
3.46308
20
-4.04233
11
3.45932
21
-4.04308
0
LINE
8
BLACK
6
CONTINUOUS
10
3.45932
20
-4.04308
11
3.42388
21
-4.04308
0
LINE
8
BLACK
6
CONTINUOUS
10
3.42388
20
-4.04308
11
3.42012
21
-4.04233
0
LINE
8
BLACK
6
CONTINUOUS
10
3.42012
20
-4.04233
11
3.41692
21
-4.0402
0
LINE
8
BLACK
6
CONTINUOUS
10
3.41692
20
-4.0402
11
3.41479
21
-4.03701
0
LINE
8
BLACK
6
CONTINUOUS
10
3.41479
20
-4.03701
11
3.41404
21
-4.03324
0
LINE
8
BLACK
6
CONTINUOUS
10
3.41404
20
-4.03324
11
3.41404
21
-4.00765
0
LINE
8
BLACK
6
CONTINUOUS
10
3.41404
20
-4.00765
11
3.41479
21
-4.00388
0
LINE
8
BLACK
6
CONTINUOUS
10
3.41479
20
-4.00388
11
3.41692
21
-4.00069
0
LINE
8
BLACK
6
CONTINUOUS
10
3.41692
20
-4.00069
11
3.42012
21
-3.99856
0
LINE
8
BLACK
6
CONTINUOUS
10
3.42012
20
-3.99856
11
3.42388
21
-3.99781
0
LINE
8
BLACK
6
CONTINUOUS
10
3.42388
20
-3.99781
11
3.45932
21
-3.99781
0
LINE
8
BLACK
6
CONTINUOUS
10
3.45932
20
-3.99781
11
3.46308
21
-3.99856
0
LINE
8
BLACK
6
CONTINUOUS
10
3.56323
20
-4.00292
11
3.56611
21
-4.00484
0
LINE
8
BLACK
6
CONTINUOUS
10
3.56611
20
-4.00484
11
3.56803
21
-4.00771
0
LINE
8
BLACK
6
CONTINUOUS
10
3.56803
20
-4.00771
11
3.5687
21
-4.0111
0
LINE
8
BLACK
6
CONTINUOUS
10
3.5687
20
-4.0111
11
3.5687
21
-4.02882
0
LINE
8
BLACK
6
CONTINUOUS
10
3.5687
20
-4.02882
11
3.56803
21
-4.03221
0
LINE
8
BLACK
6
CONTINUOUS
10
3.56803
20
-4.03221
11
3.56611
21
-4.03508
0
LINE
8
BLACK
6
CONTINUOUS
10
3.56611
20
-4.03508
11
3.56323
21
-4.037
0
LINE
8
BLACK
6
CONTINUOUS
10
3.56323
20
-4.037
11
3.55984
21
-4.03768
0
LINE
8
BLACK
6
CONTINUOUS
10
3.55984
20
-4.03768
11
3.54016
21
-4.03768
0
LINE
8
BLACK
6
CONTINUOUS
10
3.54016
20
-4.03768
11
3.53677
21
-4.037
0
LINE
8
BLACK
6
CONTINUOUS
10
3.53677
20
-4.037
11
3.53389
21
-4.03508
0
LINE
8
BLACK
6
CONTINUOUS
10
3.53389
20
-4.03508
11
3.53197
21
-4.03221
0
LINE
8
BLACK
6
CONTINUOUS
10
3.53197
20
-4.03221
11
3.5313
21
-4.02882
0
LINE
8
BLACK
6
CONTINUOUS
10
3.5313
20
-4.02882
11
3.5313
21
-4.0111
0
LINE
8
BLACK
6
CONTINUOUS
10
3.5313
20
-4.0111
11
3.53197
21
-4.00771
0
LINE
8
BLACK
6
CONTINUOUS
10
3.53197
20
-4.00771
11
3.53389
21
-4.00484
0
LINE
8
BLACK
6
CONTINUOUS
10
3.53389
20
-4.00484
11
3.53677
21
-4.00292
0
LINE
8
BLACK
6
CONTINUOUS
10
3.53677
20
-4.00292
11
3.54016
21
-4.00224
0
LINE
8
BLACK
6
CONTINUOUS
10
3.54016
20
-4.00224
11
3.55984
21
-4.00224
0
LINE
8
BLACK
6
CONTINUOUS
10
3.55984
20
-4.00224
11
3.56323
21
-4.00292
0
LINE
8
BLACK
6
CONTINUOUS
10
3.77123
20
-3.946
11
3.77411
21
-3.94792
0
LINE
8
BLACK
6
CONTINUOUS
10
3.77411
20
-3.94792
11
3.77603
21
-3.95079
0
LINE
8
BLACK
6
CONTINUOUS
10
3.77603
20
-3.95079
11
3.7767
21
-3.95418
0
LINE
8
BLACK
6
CONTINUOUS
10
3.7767
20
-3.95418
11
3.7767
21
-3.9719
0
LINE
8
BLACK
6
CONTINUOUS
10
3.7767
20
-3.9719
11
3.77603
21
-3.97529
0
LINE
8
BLACK
6
CONTINUOUS
10
3.77603
20
-3.97529
11
3.77411
21
-3.97816
0
LINE
8
BLACK
6
CONTINUOUS
10
3.77411
20
-3.97816
11
3.77123
21
-3.98008
0
LINE
8
BLACK
6
CONTINUOUS
10
3.77123
20
-3.98008
11
3.76784
21
-3.98076
0
LINE
8
BLACK
6
CONTINUOUS
10
3.76784
20
-3.98076
11
3.74816
21
-3.98076
0
LINE
8
BLACK
6
CONTINUOUS
10
3.74816
20
-3.98076
11
3.74477
21
-3.98008
0
LINE
8
BLACK
6
CONTINUOUS
10
3.74477
20
-3.98008
11
3.74189
21
-3.97816
0
LINE
8
BLACK
6
CONTINUOUS
10
3.74189
20
-3.97816
11
3.73997
21
-3.97529
0
LINE
8
BLACK
6
CONTINUOUS
10
3.73997
20
-3.97529
11
3.7393
21
-3.9719
0
LINE
8
BLACK
6
CONTINUOUS
10
3.7393
20
-3.9719
11
3.7393
21
-3.95418
0
LINE
8
BLACK
6
CONTINUOUS
10
3.7393
20
-3.95418
11
3.73997
21
-3.95079
0
LINE
8
BLACK
6
CONTINUOUS
10
3.73997
20
-3.95079
11
3.74189
21
-3.94792
0
LINE
8
BLACK
6
CONTINUOUS
10
3.74189
20
-3.94792
11
3.74477
21
-3.946
0
LINE
8
BLACK
6
CONTINUOUS
10
3.74477
20
-3.946
11
3.74816
21
-3.94532
0
LINE
8
BLACK
6
CONTINUOUS
10
3.74816
20
-3.94532
11
3.76784
21
-3.94532
0
LINE
8
BLACK
6
CONTINUOUS
10
3.76784
20
-3.94532
11
3.77123
21
-3.946
0
LINE
8
BLACK
6
CONTINUOUS
10
3.55823
20
-3.94594
11
3.56111
21
-3.94786
0
LINE
8
BLACK
6
CONTINUOUS
10
3.56111
20
-3.94786
11
3.56303
21
-3.95074
0
LINE
8
BLACK
6
CONTINUOUS
10
3.56303
20
-3.95074
11
3.5637
21
-3.95413
0
LINE
8
BLACK
6
CONTINUOUS
10
3.5637
20
-3.95413
11
3.5637
21
-3.97184
0
LINE
8
BLACK
6
CONTINUOUS
10
3.5637
20
-3.97184
11
3.56303
21
-3.97523
0
LINE
8
BLACK
6
CONTINUOUS
10
3.56303
20
-3.97523
11
3.56111
21
-3.97811
0
LINE
8
BLACK
6
CONTINUOUS
10
3.56111
20
-3.97811
11
3.55823
21
-3.98003
0
LINE
8
BLACK
6
CONTINUOUS
10
3.55823
20
-3.98003
11
3.55484
21
-3.9807
0
LINE
8
BLACK
6
CONTINUOUS
10
3.55484
20
-3.9807
11
3.53516
21
-3.9807
0
LINE
8
BLACK
6
CONTINUOUS
10
3.53516
20
-3.9807
11
3.53177
21
-3.98003
0
LINE
8
BLACK
6
CONTINUOUS
10
3.53177
20
-3.98003
11
3.52889
21
-3.97811
0
LINE
8
BLACK
6
CONTINUOUS
10
3.52889
20
-3.97811
11
3.52697
21
-3.97523
0
LINE
8
BLACK
6
CONTINUOUS
10
3.52697
20
-3.97523
11
3.5263
21
-3.97184
0
LINE
8
BLACK
6
CONTINUOUS
10
3.5263
20
-3.97184
11
3.5263
21
-3.95413
0
LINE
8
BLACK
6
CONTINUOUS
10
3.5263
20
-3.95413
11
3.52697
21
-3.95074
0
LINE
8
BLACK
6
CONTINUOUS
10
3.52697
20
-3.95074
11
3.52889
21
-3.94786
0
LINE
8
BLACK
6
CONTINUOUS
10
3.52889
20
-3.94786
11
3.53177
21
-3.94594
0
LINE
8
BLACK
6
CONTINUOUS
10
3.53177
20
-3.94594
11
3.53516
21
-3.94527
0
LINE
8
BLACK
6
CONTINUOUS
10
3.53516
20
-3.94527
11
3.55484
21
-3.94527
0
LINE
8
BLACK
6
CONTINUOUS
10
3.55484
20
-3.94527
11
3.55823
21
-3.94594
0
LINE
8
BLACK
6
CONTINUOUS
10
3.77123
20
-3.88497
11
3.77411
21
-3.88689
0
LINE
8
BLACK
6
CONTINUOUS
10
3.77411
20
-3.88689
11
3.77603
21
-3.88977
0
LINE
8
BLACK
6
CONTINUOUS
10
3.77603
20
-3.88977
11
3.7767
21
-3.89316
0
LINE
8
BLACK
6
CONTINUOUS
10
3.7767
20
-3.89316
11
3.7767
21
-3.91087
0
LINE
8
BLACK
6
CONTINUOUS
10
3.7767
20
-3.91087
11
3.77603
21
-3.91426
0
LINE
8
BLACK
6
CONTINUOUS
10
3.77603
20
-3.91426
11
3.77411
21
-3.91714
0
LINE
8
BLACK
6
CONTINUOUS
10
3.77411
20
-3.91714
11
3.77123
21
-3.91906
0
LINE
8
BLACK
6
CONTINUOUS
10
3.77123
20
-3.91906
11
3.76784
21
-3.91973
0
LINE
8
BLACK
6
CONTINUOUS
10
3.76784
20
-3.91973
11
3.74816
21
-3.91973
0
LINE
8
BLACK
6
CONTINUOUS
10
3.74816
20
-3.91973
11
3.74477
21
-3.91906
0
LINE
8
BLACK
6
CONTINUOUS
10
3.74477
20
-3.91906
11
3.74189
21
-3.91714
0
LINE
8
BLACK
6
CONTINUOUS
10
3.74189
20
-3.91714
11
3.73997
21
-3.91426
0
LINE
8
BLACK
6
CONTINUOUS
10
3.73997
20
-3.91426
11
3.7393
21
-3.91087
0
LINE
8
BLACK
6
CONTINUOUS
10
3.7393
20
-3.91087
11
3.7393
21
-3.89316
0
LINE
8
BLACK
6
CONTINUOUS
10
3.7393
20
-3.89316
11
3.73997
21
-3.88977
0
LINE
8
BLACK
6
CONTINUOUS
10
3.73997
20
-3.88977
11
3.74189
21
-3.88689
0
LINE
8
BLACK
6
CONTINUOUS
10
3.74189
20
-3.88689
11
3.74477
21
-3.88497
0
LINE
8
BLACK
6
CONTINUOUS
10
3.74477
20
-3.88497
11
3.74816
21
-3.8843
0
LINE
8
BLACK
6
CONTINUOUS
10
3.74816
20
-3.8843
11
3.76784
21
-3.8843
0
LINE
8
BLACK
6
CONTINUOUS
10
3.76784
20
-3.8843
11
3.77123
21
-3.88497
0
LINE
8
BLACK
6
CONTINUOUS
10
3.55823
20
-3.88492
11
3.56111
21
-3.88684
0
LINE
8
BLACK
6
CONTINUOUS
10
3.56111
20
-3.88684
11
3.56303
21
-3.88971
0
LINE
8
BLACK
6
CONTINUOUS
10
3.56303
20
-3.88971
11
3.5637
21
-3.8931
0
LINE
8
BLACK
6
CONTINUOUS
10
3.5637
20
-3.8931
11
3.5637
21
-3.91082
0
LINE
8
BLACK
6
CONTINUOUS
10
3.5637
20
-3.91082
11
3.56303
21
-3.91421
0
LINE
8
BLACK
6
CONTINUOUS
10
3.56303
20
-3.91421
11
3.56111
21
-3.91708
0
LINE
8
BLACK
6
CONTINUOUS
10
3.56111
20
-3.91708
11
3.55823
21
-3.919
0
LINE
8
BLACK
6
CONTINUOUS
10
3.55823
20
-3.919
11
3.55484
21
-3.91968
0
LINE
8
BLACK
6
CONTINUOUS
10
3.55484
20
-3.91968
11
3.53516
21
-3.91968
0
LINE
8
BLACK
6
CONTINUOUS
10
3.53516
20
-3.91968
11
3.53177
21
-3.919
0
LINE
8
BLACK
6
CONTINUOUS
10
3.53177
20
-3.919
11
3.52889
21
-3.91708
0
LINE
8
BLACK
6
CONTINUOUS
10
3.52889
20
-3.91708
11
3.52697
21
-3.91421
0
LINE
8
BLACK
6
CONTINUOUS
10
3.52697
20
-3.91421
11
3.5263
21
-3.91082
0
LINE
8
BLACK
6
CONTINUOUS
10
3.5263
20
-3.91082
11
3.5263
21
-3.8931
0
LINE
8
BLACK
6
CONTINUOUS
10
3.5263
20
-3.8931
11
3.52697
21
-3.88971
0
LINE
8
BLACK
6
CONTINUOUS
10
3.52697
20
-3.88971
11
3.52889
21
-3.88684
0
LINE
8
BLACK
6
CONTINUOUS
10
3.52889
20
-3.88684
11
3.53177
21
-3.88492
0
LINE
8
BLACK
6
CONTINUOUS
10
3.53177
20
-3.88492
11
3.53516
21
-3.88424
0
LINE
8
BLACK
6
CONTINUOUS
10
3.53516
20
-3.88424
11
3.55484
21
-3.88424
0
LINE
8
BLACK
6
CONTINUOUS
10
3.55484
20
-3.88424
11
3.55823
21
-3.88492
0
LINE
8
BLACK
6
CONTINUOUS
10
3.56148
20
-3.79506
11
3.56468
21
-3.7972
0
LINE
8
BLACK
6
CONTINUOUS
10
3.56468
20
-3.7972
11
3.56681
21
-3.80039
0
LINE
8
BLACK
6
CONTINUOUS
10
3.56681
20
-3.80039
11
3.56756
21
-3.80416
0
LINE
8
BLACK
6
CONTINUOUS
10
3.56756
20
-3.80416
11
3.56756
21
-3.82975
0
LINE
8
BLACK
6
CONTINUOUS
10
3.56756
20
-3.82975
11
3.56681
21
-3.83351
0
LINE
8
BLACK
6
CONTINUOUS
10
3.56681
20
-3.83351
11
3.56468
21
-3.83671
0
LINE
8
BLACK
6
CONTINUOUS
10
3.56468
20
-3.83671
11
3.56148
21
-3.83884
0
LINE
8
BLACK
6
CONTINUOUS
10
3.56148
20
-3.83884
11
3.55772
21
-3.83959
0
LINE
8
BLACK
6
CONTINUOUS
10
3.55772
20
-3.83959
11
3.52228
21
-3.83959
0
LINE
8
BLACK
6
CONTINUOUS
10
3.52228
20
-3.83959
11
3.51852
21
-3.83884
0
LINE
8
BLACK
6
CONTINUOUS
10
3.51852
20
-3.83884
11
3.51532
21
-3.83671
0
LINE
8
BLACK
6
CONTINUOUS
10
3.51532
20
-3.83671
11
3.51319
21
-3.83351
0
LINE
8
BLACK
6
CONTINUOUS
10
3.51319
20
-3.83351
11
3.51244
21
-3.82975
0
LINE
8
BLACK
6
CONTINUOUS
10
3.51244
20
-3.82975
11
3.51244
21
-3.80416
0
LINE
8
BLACK
6
CONTINUOUS
10
3.51244
20
-3.80416
11
3.51319
21
-3.80039
0
LINE
8
BLACK
6
CONTINUOUS
10
3.51319
20
-3.80039
11
3.51532
21
-3.7972
0
LINE
8
BLACK
6
CONTINUOUS
10
3.51532
20
-3.7972
11
3.51852
21
-3.79506
0
LINE
8
BLACK
6
CONTINUOUS
10
3.51852
20
-3.79506
11
3.52228
21
-3.79431
0
LINE
8
BLACK
6
CONTINUOUS
10
3.52228
20
-3.79431
11
3.55772
21
-3.79431
0
LINE
8
BLACK
6
CONTINUOUS
10
3.55772
20
-3.79431
11
3.56148
21
-3.79506
0
LINE
8
BLACK
6
CONTINUOUS
10
3.62224
20
-3.75633
11
3.62479
21
-3.75804
0
LINE
8
BLACK
6
CONTINUOUS
10
3.62479
20
-3.75804
11
3.6265
21
-3.76059
0
LINE
8
BLACK
6
CONTINUOUS
10
3.6265
20
-3.76059
11
3.6271
21
-3.76361
0
LINE
8
BLACK
6
CONTINUOUS
10
3.6271
20
-3.76361
11
3.6271
21
-3.77935
0
LINE
8
BLACK
6
CONTINUOUS
10
3.6271
20
-3.77935
11
3.6265
21
-3.78237
0
LINE
8
BLACK
6
CONTINUOUS
10
3.6265
20
-3.78237
11
3.62479
21
-3.78492
0
LINE
8
BLACK
6
CONTINUOUS
10
3.62479
20
-3.78492
11
3.62224
21
-3.78663
0
LINE
8
BLACK
6
CONTINUOUS
10
3.62224
20
-3.78663
11
3.61923
21
-3.78723
0
LINE
8
BLACK
6
CONTINUOUS
10
3.61923
20
-3.78723
11
3.59757
21
-3.78723
0
LINE
8
BLACK
6
CONTINUOUS
10
3.59757
20
-3.78723
11
3.59456
21
-3.78663
0
LINE
8
BLACK
6
CONTINUOUS
10
3.59456
20
-3.78663
11
3.59201
21
-3.78492
0
LINE
8
BLACK
6
CONTINUOUS
10
3.59201
20
-3.78492
11
3.5903
21
-3.78237
0
LINE
8
BLACK
6
CONTINUOUS
10
3.5903
20
-3.78237
11
3.5897
21
-3.77935
0
LINE
8
BLACK
6
CONTINUOUS
10
3.5897
20
-3.77935
11
3.5897
21
-3.76361
0
LINE
8
BLACK
6
CONTINUOUS
10
3.5897
20
-3.76361
11
3.5903
21
-3.76059
0
LINE
8
BLACK
6
CONTINUOUS
10
3.5903
20
-3.76059
11
3.59201
21
-3.75804
0
LINE
8
BLACK
6
CONTINUOUS
10
3.59201
20
-3.75804
11
3.59456
21
-3.75633
0
LINE
8
BLACK
6
CONTINUOUS
10
3.59456
20
-3.75633
11
3.59757
21
-3.75573
0
LINE
8
BLACK
6
CONTINUOUS
10
3.59757
20
-3.75573
11
3.61923
21
-3.75573
0
LINE
8
BLACK
6
CONTINUOUS
10
3.61923
20
-3.75573
11
3.62224
21
-3.75633
0
LINE
8
BLACK
6
CONTINUOUS
10
3.68544
20
-3.75633
11
3.68799
21
-3.75804
0
LINE
8
BLACK
6
CONTINUOUS
10
3.68799
20
-3.75804
11
3.6897
21
-3.76059
0
LINE
8
BLACK
6
CONTINUOUS
10
3.6897
20
-3.76059
11
3.6903
21
-3.76361
0
LINE
8
BLACK
6
CONTINUOUS
10
3.6903
20
-3.76361
11
3.6903
21
-3.77935
0
LINE
8
BLACK
6
CONTINUOUS
10
3.6903
20
-3.77935
11
3.6897
21
-3.78237
0
LINE
8
BLACK
6
CONTINUOUS
10
3.6897
20
-3.78237
11
3.68799
21
-3.78492
0
LINE
8
BLACK
6
CONTINUOUS
10
3.68799
20
-3.78492
11
3.68544
21
-3.78663
0
LINE
8
BLACK
6
CONTINUOUS
10
3.68544
20
-3.78663
11
3.68243
21
-3.78723
0
LINE
8
BLACK
6
CONTINUOUS
10
3.68243
20
-3.78723
11
3.66077
21
-3.78723
0
LINE
8
BLACK
6
CONTINUOUS
10
3.66077
20
-3.78723
11
3.65776
21
-3.78663
0
LINE
8
BLACK
6
CONTINUOUS
10
3.65776
20
-3.78663
11
3.65521
21
-3.78492
0
LINE
8
BLACK
6
CONTINUOUS
10
3.65521
20
-3.78492
11
3.6535
21
-3.78237
0
LINE
8
BLACK
6
CONTINUOUS
10
3.6535
20
-3.78237
11
3.6529
21
-3.77935
0
LINE
8
BLACK
6
CONTINUOUS
10
3.6529
20
-3.77935
11
3.6529
21
-3.76361
0
LINE
8
BLACK
6
CONTINUOUS
10
3.6529
20
-3.76361
11
3.6535
21
-3.76059
0
LINE
8
BLACK
6
CONTINUOUS
10
3.6535
20
-3.76059
11
3.65521
21
-3.75804
0
LINE
8
BLACK
6
CONTINUOUS
10
3.65521
20
-3.75804
11
3.65776
21
-3.75633
0
LINE
8
BLACK
6
CONTINUOUS
10
3.65776
20
-3.75633
11
3.66077
21
-3.75573
0
LINE
8
BLACK
6
CONTINUOUS
10
3.66077
20
-3.75573
11
3.68243
21
-3.75573
0
LINE
8
BLACK
6
CONTINUOUS
10
3.68243
20
-3.75573
11
3.68544
21
-3.75633
0
LINE
8
BLACK
6
CONTINUOUS
10
3.74864
20
-3.75626
11
3.75119
21
-3.75797
0
LINE
8
BLACK
6
CONTINUOUS
10
3.75119
20
-3.75797
11
3.7529
21
-3.76052
0
LINE
8
BLACK
6
CONTINUOUS
10
3.7529
20
-3.76052
11
3.7535
21
-3.76353
0
LINE
8
BLACK
6
CONTINUOUS
10
3.7535
20
-3.76353
11
3.7535
21
-3.77928
0
LINE
8
BLACK
6
CONTINUOUS
10
3.7535
20
-3.77928
11
3.7529
21
-3.7823
0
LINE
8
BLACK
6
CONTINUOUS
10
3.7529
20
-3.7823
11
3.75119
21
-3.78485
0
LINE
8
BLACK
6
CONTINUOUS
10
3.75119
20
-3.78485
11
3.74864
21
-3.78656
0
LINE
8
BLACK
6
CONTINUOUS
10
3.74864
20
-3.78656
11
3.74563
21
-3.78716
0
LINE
8
BLACK
6
CONTINUOUS
10
3.74563
20
-3.78716
11
3.72397
21
-3.78716
0
LINE
8
BLACK
6
CONTINUOUS
10
3.72397
20
-3.78716
11
3.72096
21
-3.78656
0
LINE
8
BLACK
6
CONTINUOUS
10
3.72096
20
-3.78656
11
3.71841
21
-3.78485
0
LINE
8
BLACK
6
CONTINUOUS
10
3.71841
20
-3.78485
11
3.7167
21
-3.7823
0
LINE
8
BLACK
6
CONTINUOUS
10
3.7167
20
-3.7823
11
3.7161
21
-3.77928
0
LINE
8
BLACK
6
CONTINUOUS
10
3.7161
20
-3.77928
11
3.7161
21
-3.76353
0
LINE
8
BLACK
6
CONTINUOUS
10
3.7161
20
-3.76353
11
3.7167
21
-3.76052
0
LINE
8
BLACK
6
CONTINUOUS
10
3.7167
20
-3.76052
11
3.71841
21
-3.75797
0
LINE
8
BLACK
6
CONTINUOUS
10
3.71841
20
-3.75797
11
3.72096
21
-3.75626
0
LINE
8
BLACK
6
CONTINUOUS
10
3.72096
20
-3.75626
11
3.72397
21
-3.75566
0
LINE
8
BLACK
6
CONTINUOUS
10
3.72397
20
-3.75566
11
3.74563
21
-3.75566
0
LINE
8
BLACK
6
CONTINUOUS
10
3.74563
20
-3.75566
11
3.74864
21
-3.75626
0
LINE
8
BLACK
6
CONTINUOUS
10
3.56148
20
-3.71436
11
3.56468
21
-3.71649
0
LINE
8
BLACK
6
CONTINUOUS
10
3.56468
20
-3.71649
11
3.56681
21
-3.71968
0
LINE
8
BLACK
6
CONTINUOUS
10
3.56681
20
-3.71968
11
3.56756
21
-3.72345
0
LINE
8
BLACK
6
CONTINUOUS
10
3.56756
20
-3.72345
11
3.56756
21
-3.74904
0
LINE
8
BLACK
6
CONTINUOUS
10
3.56756
20
-3.74904
11
3.56681
21
-3.75281
0
LINE
8
BLACK
6
CONTINUOUS
10
3.56681
20
-3.75281
11
3.56468
21
-3.756
0
LINE
8
BLACK
6
CONTINUOUS
10
3.56468
20
-3.756
11
3.56148
21
-3.75813
0
LINE
8
BLACK
6
CONTINUOUS
10
3.56148
20
-3.75813
11
3.55772
21
-3.75888
0
LINE
8
BLACK
6
CONTINUOUS
10
3.55772
20
-3.75888
11
3.52228
21
-3.75888
0
LINE
8
BLACK
6
CONTINUOUS
10
3.52228
20
-3.75888
11
3.51852
21
-3.75813
0
LINE
8
BLACK
6
CONTINUOUS
10
3.51852
20
-3.75813
11
3.51532
21
-3.756
0
LINE
8
BLACK
6
CONTINUOUS
10
3.51532
20
-3.756
11
3.51319
21
-3.75281
0
LINE
8
BLACK
6
CONTINUOUS
10
3.51319
20
-3.75281
11
3.51244
21
-3.74904
0
LINE
8
BLACK
6
CONTINUOUS
10
3.51244
20
-3.74904
11
3.51244
21
-3.72345
0
LINE
8
BLACK
6
CONTINUOUS
10
3.51244
20
-3.72345
11
3.51319
21
-3.71968
0
LINE
8
BLACK
6
CONTINUOUS
10
3.51319
20
-3.71968
11
3.51532
21
-3.71649
0
LINE
8
BLACK
6
CONTINUOUS
10
3.51532
20
-3.71649
11
3.51852
21
-3.71436
0
LINE
8
BLACK
6
CONTINUOUS
10
3.51852
20
-3.71436
11
3.52228
21
-3.71361
0
LINE
8
BLACK
6
CONTINUOUS
10
3.52228
20
-3.71361
11
3.55772
21
-3.71361
0
LINE
8
BLACK
6
CONTINUOUS
10
3.55772
20
-3.71361
11
3.56148
21
-3.71436
0
LINE
8
BLACK
6
CONTINUOUS
10
3.68544
20
-3.69137
11
3.68799
21
-3.69308
0
LINE
8
BLACK
6
CONTINUOUS
10
3.68799
20
-3.69308
11
3.6897
21
-3.69563
0
LINE
8
BLACK
6
CONTINUOUS
10
3.6897
20
-3.69563
11
3.6903
21
-3.69865
0
LINE
8
BLACK
6
CONTINUOUS
10
3.6903
20
-3.69865
11
3.6903
21
-3.71439
0
LINE
8
BLACK
6
CONTINUOUS
10
3.6903
20
-3.71439
11
3.6897
21
-3.71741
0
LINE
8
BLACK
6
CONTINUOUS
10
3.6897
20
-3.71741
11
3.68799
21
-3.71996
0
LINE
8
BLACK
6
CONTINUOUS
10
3.68799
20
-3.71996
11
3.68544
21
-3.72167
0
LINE
8
BLACK
6
CONTINUOUS
10
3.68544
20
-3.72167
11
3.68243
21
-3.72227
0
LINE
8
BLACK
6
CONTINUOUS
10
3.68243
20
-3.72227
11
3.66077
21
-3.72227
0
LINE
8
BLACK
6
CONTINUOUS
10
3.66077
20
-3.72227
11
3.65776
21
-3.72167
0
LINE
8
BLACK
6
CONTINUOUS
10
3.65776
20
-3.72167
11
3.65521
21
-3.71996
0
LINE
8
BLACK
6
CONTINUOUS
10
3.65521
20
-3.71996
11
3.6535
21
-3.71741
0
LINE
8
BLACK
6
CONTINUOUS
10
3.6535
20
-3.71741
11
3.6529
21
-3.71439
0
LINE
8
BLACK
6
CONTINUOUS
10
3.6529
20
-3.71439
11
3.6529
21
-3.69865
0
LINE
8
BLACK
6
CONTINUOUS
10
3.6529
20
-3.69865
11
3.6535
21
-3.69563
0
LINE
8
BLACK
6
CONTINUOUS
10
3.6535
20
-3.69563
11
3.65521
21
-3.69308
0
LINE
8
BLACK
6
CONTINUOUS
10
3.65521
20
-3.69308
11
3.65776
21
-3.69137
0
LINE
8
BLACK
6
CONTINUOUS
10
3.65776
20
-3.69137
11
3.66077
21
-3.69077
0
LINE
8
BLACK
6
CONTINUOUS
10
3.66077
20
-3.69077
11
3.68243
21
-3.69077
0
LINE
8
BLACK
6
CONTINUOUS
10
3.68243
20
-3.69077
11
3.68544
21
-3.69137
0
LINE
8
BLACK
6
CONTINUOUS
10
3.62224
20
-3.69137
11
3.62479
21
-3.69308
0
LINE
8
BLACK
6
CONTINUOUS
10
3.62479
20
-3.69308
11
3.6265
21
-3.69563
0
LINE
8
BLACK
6
CONTINUOUS
10
3.6265
20
-3.69563
11
3.6271
21
-3.69865
0
LINE
8
BLACK
6
CONTINUOUS
10
3.6271
20
-3.69865
11
3.6271
21
-3.71439
0
LINE
8
BLACK
6
CONTINUOUS
10
3.6271
20
-3.71439
11
3.6265
21
-3.71741
0
LINE
8
BLACK
6
CONTINUOUS
10
3.6265
20
-3.71741
11
3.62479
21
-3.71996
0
LINE
8
BLACK
6
CONTINUOUS
10
3.62479
20
-3.71996
11
3.62224
21
-3.72167
0
LINE
8
BLACK
6
CONTINUOUS
10
3.62224
20
-3.72167
11
3.61923
21
-3.72227
0
LINE
8
BLACK
6
CONTINUOUS
10
3.61923
20
-3.72227
11
3.59757
21
-3.72227
0
LINE
8
BLACK
6
CONTINUOUS
10
3.59757
20
-3.72227
11
3.59456
21
-3.72167
0
LINE
8
BLACK
6
CONTINUOUS
10
3.59456
20
-3.72167
11
3.59201
21
-3.71996
0
LINE
8
BLACK
6
CONTINUOUS
10
3.59201
20
-3.71996
11
3.5903
21
-3.71741
0
LINE
8
BLACK
6
CONTINUOUS
10
3.5903
20
-3.71741
11
3.5897
21
-3.71439
0
LINE
8
BLACK
6
CONTINUOUS
10
3.5897
20
-3.71439
11
3.5897
21
-3.69865
0
LINE
8
BLACK
6
CONTINUOUS
10
3.5897
20
-3.69865
11
3.5903
21
-3.69563
0
LINE
8
BLACK
6
CONTINUOUS
10
3.5903
20
-3.69563
11
3.59201
21
-3.69308
0
LINE
8
BLACK
6
CONTINUOUS
10
3.59201
20
-3.69308
11
3.59456
21
-3.69137
0
LINE
8
BLACK
6
CONTINUOUS
10
3.59456
20
-3.69137
11
3.59757
21
-3.69077
0
LINE
8
BLACK
6
CONTINUOUS
10
3.59757
20
-3.69077
11
3.61923
21
-3.69077
0
LINE
8
BLACK
6
CONTINUOUS
10
3.61923
20
-3.69077
11
3.62224
21
-3.69137
0
LINE
8
BLACK
6
CONTINUOUS
10
3.74864
20
-3.6913
11
3.75119
21
-3.69301
0
LINE
8
BLACK
6
CONTINUOUS
10
3.75119
20
-3.69301
11
3.7529
21
-3.69556
0
LINE
8
BLACK
6
CONTINUOUS
10
3.7529
20
-3.69556
11
3.7535
21
-3.69857
0
LINE
8
BLACK
6
CONTINUOUS
10
3.7535
20
-3.69857
11
3.7535
21
-3.71432
0
LINE
8
BLACK
6
CONTINUOUS
10
3.7535
20
-3.71432
11
3.7529
21
-3.71733
0
LINE
8
BLACK
6
CONTINUOUS
10
3.7529
20
-3.71733
11
3.75119
21
-3.71989
0
LINE
8
BLACK
6
CONTINUOUS
10
3.75119
20
-3.71989
11
3.74864
21
-3.7216
0
LINE
8
BLACK
6
CONTINUOUS
10
3.74864
20
-3.7216
11
3.74563
21
-3.7222
0
LINE
8
BLACK
6
CONTINUOUS
10
3.74563
20
-3.7222
11
3.72397
21
-3.7222
0
LINE
8
BLACK
6
CONTINUOUS
10
3.72397
20
-3.7222
11
3.72096
21
-3.7216
0
LINE
8
BLACK
6
CONTINUOUS
10
3.72096
20
-3.7216
11
3.71841
21
-3.71989
0
LINE
8
BLACK
6
CONTINUOUS
10
3.71841
20
-3.71989
11
3.7167
21
-3.71733
0
LINE
8
BLACK
6
CONTINUOUS
10
3.7167
20
-3.71733
11
3.7161
21
-3.71432
0
LINE
8
BLACK
6
CONTINUOUS
10
3.7161
20
-3.71432
11
3.7161
21
-3.69857
0
LINE
8
BLACK
6
CONTINUOUS
10
3.7161
20
-3.69857
11
3.7167
21
-3.69556
0
LINE
8
BLACK
6
CONTINUOUS
10
3.7167
20
-3.69556
11
3.71841
21
-3.69301
0
LINE
8
BLACK
6
CONTINUOUS
10
3.71841
20
-3.69301
11
3.72096
21
-3.6913
0
LINE
8
BLACK
6
CONTINUOUS
10
3.72096
20
-3.6913
11
3.72397
21
-3.6907
0
LINE
8
BLACK
6
CONTINUOUS
10
3.72397
20
-3.6907
11
3.74563
21
-3.6907
0
LINE
8
BLACK
6
CONTINUOUS
10
3.74563
20
-3.6907
11
3.74864
21
-3.6913
0
LINE
8
BLACK
6
CONTINUOUS
10
3.48784
20
-3.49783
11
3.49039
21
-3.49954
0
LINE
8
BLACK
6
CONTINUOUS
10
3.49039
20
-3.49954
11
3.4921
21
-3.50209
0
LINE
8
BLACK
6
CONTINUOUS
10
3.4921
20
-3.50209
11
3.4927
21
-3.50511
0
LINE
8
BLACK
6
CONTINUOUS
10
3.4927
20
-3.50511
11
3.4927
21
-3.52085
0
LINE
8
BLACK
6
CONTINUOUS
10
3.4927
20
-3.52085
11
3.4921
21
-3.52387
0
LINE
8
BLACK
6
CONTINUOUS
10
3.4921
20
-3.52387
11
3.49039
21
-3.52642
0
LINE
8
BLACK
6
CONTINUOUS
10
3.49039
20
-3.52642
11
3.48784
21
-3.52813
0
LINE
8
BLACK
6
CONTINUOUS
10
3.48784
20
-3.52813
11
3.48483
21
-3.52873
0
LINE
8
BLACK
6
CONTINUOUS
10
3.48483
20
-3.52873
11
3.46317
21
-3.52873
0
LINE
8
BLACK
6
CONTINUOUS
10
3.46317
20
-3.52873
11
3.46016
21
-3.52813
0
LINE
8
BLACK
6
CONTINUOUS
10
3.46016
20
-3.52813
11
3.45761
21
-3.52642
0
LINE
8
BLACK
6
CONTINUOUS
10
3.45761
20
-3.52642
11
3.4559
21
-3.52387
0
LINE
8
BLACK
6
CONTINUOUS
10
3.4559
20
-3.52387
11
3.4553
21
-3.52085
0
LINE
8
BLACK
6
CONTINUOUS
10
3.4553
20
-3.52085
11
3.4553
21
-3.50511
0
LINE
8
BLACK
6
CONTINUOUS
10
3.4553
20
-3.50511
11
3.4559
21
-3.50209
0
LINE
8
BLACK
6
CONTINUOUS
10
3.4559
20
-3.50209
11
3.45761
21
-3.49954
0
LINE
8
BLACK
6
CONTINUOUS
10
3.45761
20
-3.49954
11
3.46016
21
-3.49783
0
LINE
8
BLACK
6
CONTINUOUS
10
3.46016
20
-3.49783
11
3.46317
21
-3.49723
0
LINE
8
BLACK
6
CONTINUOUS
10
3.46317
20
-3.49723
11
3.48483
21
-3.49723
0
LINE
8
BLACK
6
CONTINUOUS
10
3.48483
20
-3.49723
11
3.48784
21
-3.49783
0
LINE
8
BLACK
6
CONTINUOUS
10
3.48784
20
-3.43287
11
3.49039
21
-3.43458
0
LINE
8
BLACK
6
CONTINUOUS
10
3.49039
20
-3.43458
11
3.4921
21
-3.43713
0
LINE
8
BLACK
6
CONTINUOUS
10
3.4921
20
-3.43713
11
3.4927
21
-3.44015
0
LINE
8
BLACK
6
CONTINUOUS
10
3.4927
20
-3.44015
11
3.4927
21
-3.45589
0
LINE
8
BLACK
6
CONTINUOUS
10
3.4927
20
-3.45589
11
3.4921
21
-3.45891
0
LINE
8
BLACK
6
CONTINUOUS
10
3.4921
20
-3.45891
11
3.49039
21
-3.46146
0
LINE
8
BLACK
6
CONTINUOUS
10
3.49039
20
-3.46146
11
3.48784
21
-3.46317
0
LINE
8
BLACK
6
CONTINUOUS
10
3.48784
20
-3.46317
11
3.48483
21
-3.46377
0
LINE
8
BLACK
6
CONTINUOUS
10
3.48483
20
-3.46377
11
3.46317
21
-3.46377
0
LINE
8
BLACK
6
CONTINUOUS
10
3.46317
20
-3.46377
11
3.46016
21
-3.46317
0
LINE
8
BLACK
6
CONTINUOUS
10
3.46016
20
-3.46317
11
3.45761
21
-3.46146
0
LINE
8
BLACK
6
CONTINUOUS
10
3.45761
20
-3.46146
11
3.4559
21
-3.45891
0
LINE
8
BLACK
6
CONTINUOUS
10
3.4559
20
-3.45891
11
3.4553
21
-3.45589
0
LINE
8
BLACK
6
CONTINUOUS
10
3.4553
20
-3.45589
11
3.4553
21
-3.44015
0
LINE
8
BLACK
6
CONTINUOUS
10
3.4553
20
-3.44015
11
3.4559
21
-3.43713
0
LINE
8
BLACK
6
CONTINUOUS
10
3.4559
20
-3.43713
11
3.45761
21
-3.43458
0
LINE
8
BLACK
6
CONTINUOUS
10
3.45761
20
-3.43458
11
3.46016
21
-3.43287
0
LINE
8
BLACK
6
CONTINUOUS
10
3.46016
20
-3.43287
11
3.46317
21
-3.43227
0
LINE
8
BLACK
6
CONTINUOUS
10
3.46317
20
-3.43227
11
3.48483
21
-3.43227
0
LINE
8
BLACK
6
CONTINUOUS
10
3.48483
20
-3.43227
11
3.48784
21
-3.43287
0
LINE
8
BLACK
6
CONTINUOUS
10
3.48784
20
-3.39933
11
3.49039
21
-3.40104
0
LINE
8
BLACK
6
CONTINUOUS
10
3.49039
20
-3.40104
11
3.4921
21
-3.40359
0
LINE
8
BLACK
6
CONTINUOUS
10
3.4921
20
-3.40359
11
3.4927
21
-3.40661
0
LINE
8
BLACK
6
CONTINUOUS
10
3.4927
20
-3.40661
11
3.4927
21
-3.42235
0
LINE
8
BLACK
6
CONTINUOUS
10
3.4927
20
-3.42235
11
3.4921
21
-3.42537
0
LINE
8
BLACK
6
CONTINUOUS
10
3.4921
20
-3.42537
11
3.49039
21
-3.42792
0
LINE
8
BLACK
6
CONTINUOUS
10
3.49039
20
-3.42792
11
3.48784
21
-3.42963
0
LINE
8
BLACK
6
CONTINUOUS
10
3.48784
20
-3.42963
11
3.48483
21
-3.43023
0
LINE
8
BLACK
6
CONTINUOUS
10
3.48483
20
-3.43023
11
3.46317
21
-3.43023
0
LINE
8
BLACK
6
CONTINUOUS
10
3.46317
20
-3.43023
11
3.46016
21
-3.42963
0
LINE
8
BLACK
6
CONTINUOUS
10
3.46016
20
-3.42963
11
3.45761
21
-3.42792
0
LINE
8
BLACK
6
CONTINUOUS
10
3.45761
20
-3.42792
11
3.4559
21
-3.42537
0
LINE
8
BLACK
6
CONTINUOUS
10
3.4559
20
-3.42537
11
3.4553
21
-3.42235
0
LINE
8
BLACK
6
CONTINUOUS
10
3.4553
20
-3.42235
11
3.4553
21
-3.40661
0
LINE
8
BLACK
6
CONTINUOUS
10
3.4553
20
-3.40661
11
3.4559
21
-3.40359
0
LINE
8
BLACK
6
CONTINUOUS
10
3.4559
20
-3.40359
11
3.45761
21
-3.40104
0
LINE
8
BLACK
6
CONTINUOUS
10
3.45761
20
-3.40104
11
3.46016
21
-3.39933
0
LINE
8
BLACK
6
CONTINUOUS
10
3.46016
20
-3.39933
11
3.46317
21
-3.39873
0
LINE
8
BLACK
6
CONTINUOUS
10
3.46317
20
-3.39873
11
3.48483
21
-3.39873
0
LINE
8
BLACK
6
CONTINUOUS
10
3.48483
20
-3.39873
11
3.48784
21
-3.39933
0
LINE
8
BLACK
6
CONTINUOUS
10
3.48784
20
-3.33437
11
3.49039
21
-3.33608
0
LINE
8
BLACK
6
CONTINUOUS
10
3.49039
20
-3.33608
11
3.4921
21
-3.33863
0
LINE
8
BLACK
6
CONTINUOUS
10
3.4921
20
-3.33863
11
3.4927
21
-3.34165
0
LINE
8
BLACK
6
CONTINUOUS
10
3.4927
20
-3.34165
11
3.4927
21
-3.35739
0
LINE
8
BLACK
6
CONTINUOUS
10
3.4927
20
-3.35739
11
3.4921
21
-3.36041
0
LINE
8
BLACK
6
CONTINUOUS
10
3.4921
20
-3.36041
11
3.49039
21
-3.36296
0
LINE
8
BLACK
6
CONTINUOUS
10
3.49039
20
-3.36296
11
3.48784
21
-3.36467
0
LINE
8
BLACK
6
CONTINUOUS
10
3.48784
20
-3.36467
11
3.48483
21
-3.36527
0
LINE
8
BLACK
6
CONTINUOUS
10
3.48483
20
-3.36527
11
3.46317
21
-3.36527
0
LINE
8
BLACK
6
CONTINUOUS
10
3.46317
20
-3.36527
11
3.46016
21
-3.36467
0
LINE
8
BLACK
6
CONTINUOUS
10
3.46016
20
-3.36467
11
3.45761
21
-3.36296
0
LINE
8
BLACK
6
CONTINUOUS
10
3.45761
20
-3.36296
11
3.4559
21
-3.36041
0
LINE
8
BLACK
6
CONTINUOUS
10
3.4559
20
-3.36041
11
3.4553
21
-3.35739
0
LINE
8
BLACK
6
CONTINUOUS
10
3.4553
20
-3.35739
11
3.4553
21
-3.34165
0
LINE
8
BLACK
6
CONTINUOUS
10
3.4553
20
-3.34165
11
3.4559
21
-3.33863
0
LINE
8
BLACK
6
CONTINUOUS
10
3.4559
20
-3.33863
11
3.45761
21
-3.33608
0
LINE
8
BLACK
6
CONTINUOUS
10
3.45761
20
-3.33608
11
3.46016
21
-3.33437
0
LINE
8
BLACK
6
CONTINUOUS
10
3.46016
20
-3.33437
11
3.46317
21
-3.33377
0
LINE
8
BLACK
6
CONTINUOUS
10
3.46317
20
-3.33377
11
3.48483
21
-3.33377
0
LINE
8
BLACK
6
CONTINUOUS
10
3.48483
20
-3.33377
11
3.48784
21
-3.33437
0
LINE
8
BLACK
6
CONTINUOUS
10
3.56424
20
-3.13793
11
3.56679
21
-3.13964
0
LINE
8
BLACK
6
CONTINUOUS
10
3.56679
20
-3.13964
11
3.5685
21
-3.14219
0
LINE
8
BLACK
6
CONTINUOUS
10
3.5685
20
-3.14219
11
3.5691
21
-3.14521
0
LINE
8
BLACK
6
CONTINUOUS
10
3.5691
20
-3.14521
11
3.5691
21
-3.16095
0
LINE
8
BLACK
6
CONTINUOUS
10
3.5691
20
-3.16095
11
3.5685
21
-3.16397
0
LINE
8
BLACK
6
CONTINUOUS
10
3.5685
20
-3.16397
11
3.56679
21
-3.16652
0
LINE
8
BLACK
6
CONTINUOUS
10
3.56679
20
-3.16652
11
3.56424
21
-3.16823
0
LINE
8
BLACK
6
CONTINUOUS
10
3.56424
20
-3.16823
11
3.56123
21
-3.16883
0
LINE
8
BLACK
6
CONTINUOUS
10
3.56123
20
-3.16883
11
3.53957
21
-3.16883
0
LINE
8
BLACK
6
CONTINUOUS
10
3.53957
20
-3.16883
11
3.53656
21
-3.16823
0
LINE
8
BLACK
6
CONTINUOUS
10
3.53656
20
-3.16823
11
3.53401
21
-3.16652
0
LINE
8
BLACK
6
CONTINUOUS
10
3.53401
20
-3.16652
11
3.5323
21
-3.16397
0
LINE
8
BLACK
6
CONTINUOUS
10
3.5323
20
-3.16397
11
3.5317
21
-3.16095
0
LINE
8
BLACK
6
CONTINUOUS
10
3.5317
20
-3.16095
11
3.5317
21
-3.14521
0
LINE
8
BLACK
6
CONTINUOUS
10
3.5317
20
-3.14521
11
3.5323
21
-3.14219
0
LINE
8
BLACK
6
CONTINUOUS
10
3.5323
20
-3.14219
11
3.53401
21
-3.13964
0
LINE
8
BLACK
6
CONTINUOUS
10
3.53401
20
-3.13964
11
3.53656
21
-3.13793
0
LINE
8
BLACK
6
CONTINUOUS
10
3.53656
20
-3.13793
11
3.53957
21
-3.13733
0
LINE
8
BLACK
6
CONTINUOUS
10
3.53957
20
-3.13733
11
3.56123
21
-3.13733
0
LINE
8
BLACK
6
CONTINUOUS
10
3.56123
20
-3.13733
11
3.56424
21
-3.13793
0
LINE
8
BLACK
6
CONTINUOUS
10
3.56424
20
-3.07297
11
3.56679
21
-3.07468
0
LINE
8
BLACK
6
CONTINUOUS
10
3.56679
20
-3.07468
11
3.5685
21
-3.07723
0
LINE
8
BLACK
6
CONTINUOUS
10
3.5685
20
-3.07723
11
3.5691
21
-3.08025
0
LINE
8
BLACK
6
CONTINUOUS
10
3.5691
20
-3.08025
11
3.5691
21
-3.09599
0
LINE
8
BLACK
6
CONTINUOUS
10
3.5691
20
-3.09599
11
3.5685
21
-3.09901
0
LINE
8
BLACK
6
CONTINUOUS
10
3.5685
20
-3.09901
11
3.56679
21
-3.10156
0
LINE
8
BLACK
6
CONTINUOUS
10
3.56679
20
-3.10156
11
3.56424
21
-3.10327
0
LINE
8
BLACK
6
CONTINUOUS
10
3.56424
20
-3.10327
11
3.56123
21
-3.10387
0
LINE
8
BLACK
6
CONTINUOUS
10
3.56123
20
-3.10387
11
3.53957
21
-3.10387
0
LINE
8
BLACK
6
CONTINUOUS
10
3.53957
20
-3.10387
11
3.53656
21
-3.10327
0
LINE
8
BLACK
6
CONTINUOUS
10
3.53656
20
-3.10327
11
3.53401
21
-3.10156
0
LINE
8
BLACK
6
CONTINUOUS
10
3.53401
20
-3.10156
11
3.5323
21
-3.09901
0
LINE
8
BLACK
6
CONTINUOUS
10
3.5323
20
-3.09901
11
3.5317
21
-3.09599
0
LINE
8
BLACK
6
CONTINUOUS
10
3.5317
20
-3.09599
11
3.5317
21
-3.08025
0
LINE
8
BLACK
6
CONTINUOUS
10
3.5317
20
-3.08025
11
3.5323
21
-3.07723
0
LINE
8
BLACK
6
CONTINUOUS
10
3.5323
20
-3.07723
11
3.53401
21
-3.07468
0
LINE
8
BLACK
6
CONTINUOUS
10
3.53401
20
-3.07468
11
3.53656
21
-3.07297
0
LINE
8
BLACK
6
CONTINUOUS
10
3.53656
20
-3.07297
11
3.53957
21
-3.07237
0
LINE
8
BLACK
6
CONTINUOUS
10
3.53957
20
-3.07237
11
3.56123
21
-3.07237
0
LINE
8
BLACK
6
CONTINUOUS
10
3.56123
20
-3.07237
11
3.56424
21
-3.07297
0
LINE
8
BLACK
6
CONTINUOUS
10
4.25545
20
-3.01148
11
4.17671
21
-3.01148
0
LINE
8
BLACK
6
CONTINUOUS
10
4.17671
20
-3.01148
11
4.17671
21
-2.95242
0
LINE
8
BLACK
6
CONTINUOUS
10
4.17671
20
-2.95242
11
4.25545
21
-2.95242
0
LINE
8
BLACK
6
CONTINUOUS
10
4.25545
20
-2.95242
11
4.25545
21
-3.01148
0
LINE
8
BLACK
6
CONTINUOUS
10
3.75187
20
-3.00443
11
3.67313
21
-3.00443
0
LINE
8
BLACK
6
CONTINUOUS
10
3.67313
20
-3.00443
11
3.67313
21
-2.94537
0
LINE
8
BLACK
6
CONTINUOUS
10
3.67313
20
-2.94537
11
3.75187
21
-2.94537
0
LINE
8
BLACK
6
CONTINUOUS
10
3.75187
20
-2.94537
11
3.75187
21
-3.00443
0
LINE
8
BLACK
6
CONTINUOUS
10
4.11847
20
-2.94897
11
4.12166
21
-2.9511
0
LINE
8
BLACK
6
CONTINUOUS
10
4.12166
20
-2.9511
11
4.12379
21
-2.95429
0
LINE
8
BLACK
6
CONTINUOUS
10
4.12379
20
-2.95429
11
4.12454
21
-2.95806
0
LINE
8
BLACK
6
CONTINUOUS
10
4.12454
20
-2.95806
11
4.12454
21
-2.97774
0
LINE
8
BLACK
6
CONTINUOUS
10
4.12454
20
-2.97774
11
4.12379
21
-2.98151
0
LINE
8
BLACK
6
CONTINUOUS
10
4.12379
20
-2.98151
11
4.12166
21
-2.9847
0
LINE
8
BLACK
6
CONTINUOUS
10
4.12166
20
-2.9847
11
4.11847
21
-2.98684
0
LINE
8
BLACK
6
CONTINUOUS
10
4.11847
20
-2.98684
11
4.1147
21
-2.98759
0
LINE
8
BLACK
6
CONTINUOUS
10
4.1147
20
-2.98759
11
4.0773
21
-2.98759
0
LINE
8
BLACK
6
CONTINUOUS
10
4.0773
20
-2.98759
11
4.07353
21
-2.98684
0
LINE
8
BLACK
6
CONTINUOUS
10
4.07353
20
-2.98684
11
4.07034
21
-2.9847
0
LINE
8
BLACK
6
CONTINUOUS
10
4.07034
20
-2.9847
11
4.06821
21
-2.98151
0
LINE
8
BLACK
6
CONTINUOUS
10
4.06821
20
-2.98151
11
4.06746
21
-2.97774
0
LINE
8
BLACK
6
CONTINUOUS
10
4.06746
20
-2.97774
11
4.06746
21
-2.95806
0
LINE
8
BLACK
6
CONTINUOUS
10
4.06746
20
-2.95806
11
4.06821
21
-2.95429
0
LINE
8
BLACK
6
CONTINUOUS
10
4.06821
20
-2.95429
11
4.07034
21
-2.9511
0
LINE
8
BLACK
6
CONTINUOUS
10
4.07034
20
-2.9511
11
4.07353
21
-2.94897
0
LINE
8
BLACK
6
CONTINUOUS
10
4.07353
20
-2.94897
11
4.0773
21
-2.94822
0
LINE
8
BLACK
6
CONTINUOUS
10
4.0773
20
-2.94822
11
4.1147
21
-2.94822
0
LINE
8
BLACK
6
CONTINUOUS
10
4.1147
20
-2.94822
11
4.11847
21
-2.94897
0
LINE
8
BLACK
6
CONTINUOUS
10
3.58647
20
-2.94297
11
3.58966
21
-2.9451
0
LINE
8
BLACK
6
CONTINUOUS
10
3.58966
20
-2.9451
11
3.59179
21
-2.94829
0
LINE
8
BLACK
6
CONTINUOUS
10
3.59179
20
-2.94829
11
3.59254
21
-2.95206
0
LINE
8
BLACK
6
CONTINUOUS
10
3.59254
20
-2.95206
11
3.59254
21
-2.97174
0
LINE
8
BLACK
6
CONTINUOUS
10
3.59254
20
-2.97174
11
3.59179
21
-2.97551
0
LINE
8
BLACK
6
CONTINUOUS
10
3.59179
20
-2.97551
11
3.58966
21
-2.9787
0
LINE
8
BLACK
6
CONTINUOUS
10
3.58966
20
-2.9787
11
3.58647
21
-2.98084
0
LINE
8
BLACK
6
CONTINUOUS
10
3.58647
20
-2.98084
11
3.5827
21
-2.98159
0
LINE
8
BLACK
6
CONTINUOUS
10
3.5827
20
-2.98159
11
3.5453
21
-2.98159
0
LINE
8
BLACK
6
CONTINUOUS
10
3.5453
20
-2.98159
11
3.54153
21
-2.98084
0
LINE
8
BLACK
6
CONTINUOUS
10
3.54153
20
-2.98084
11
3.53834
21
-2.9787
0
LINE
8
BLACK
6
CONTINUOUS
10
3.53834
20
-2.9787
11
3.53621
21
-2.97551
0
LINE
8
BLACK
6
CONTINUOUS
10
3.53621
20
-2.97551
11
3.53546
21
-2.97174
0
LINE
8
BLACK
6
CONTINUOUS
10
3.53546
20
-2.97174
11
3.53546
21
-2.95206
0
LINE
8
BLACK
6
CONTINUOUS
10
3.53546
20
-2.95206
11
3.53621
21
-2.94829
0
LINE
8
BLACK
6
CONTINUOUS
10
3.53621
20
-2.94829
11
3.53834
21
-2.9451
0
LINE
8
BLACK
6
CONTINUOUS
10
3.53834
20
-2.9451
11
3.54153
21
-2.94297
0
LINE
8
BLACK
6
CONTINUOUS
10
3.54153
20
-2.94297
11
3.5453
21
-2.94222
0
LINE
8
BLACK
6
CONTINUOUS
10
3.5453
20
-2.94222
11
3.5827
21
-2.94222
0
LINE
8
BLACK
6
CONTINUOUS
10
3.5827
20
-2.94222
11
3.58647
21
-2.94297
0
LINE
8
BLACK
6
CONTINUOUS
10
4.50349
20
-2.9662
11
4.42475
21
-2.9662
0
LINE
8
BLACK
6
CONTINUOUS
10
4.42475
20
-2.9662
11
4.42475
21
-2.8166
0
LINE
8
BLACK
6
CONTINUOUS
10
4.42475
20
-2.8166
11
4.50349
21
-2.8166
0
LINE
8
BLACK
6
CONTINUOUS
10
4.50349
20
-2.8166
11
4.50349
21
-2.9662
0
LINE
8
BLACK
6
CONTINUOUS
10
3.65173
20
-2.92747
11
3.65461
21
-2.92939
0
LINE
8
BLACK
6
CONTINUOUS
10
3.65461
20
-2.92939
11
3.65653
21
-2.93226
0
LINE
8
BLACK
6
CONTINUOUS
10
3.65653
20
-2.93226
11
3.6572
21
-2.93565
0
LINE
8
BLACK
6
CONTINUOUS
10
3.6572
20
-2.93565
11
3.6572
21
-2.95337
0
LINE
8
BLACK
6
CONTINUOUS
10
3.6572
20
-2.95337
11
3.65653
21
-2.95676
0
LINE
8
BLACK
6
CONTINUOUS
10
3.65653
20
-2.95676
11
3.65461
21
-2.95963
0
LINE
8
BLACK
6
CONTINUOUS
10
3.65461
20
-2.95963
11
3.65173
21
-2.96155
0
LINE
8
BLACK
6
CONTINUOUS
10
3.65173
20
-2.96155
11
3.64834
21
-2.96223
0
LINE
8
BLACK
6
CONTINUOUS
10
3.64834
20
-2.96223
11
3.62866
21
-2.96223
0
LINE
8
BLACK
6
CONTINUOUS
10
3.62866
20
-2.96223
11
3.62527
21
-2.96155
0
LINE
8
BLACK
6
CONTINUOUS
10
3.62527
20
-2.96155
11
3.62239
21
-2.95963
0
LINE
8
BLACK
6
CONTINUOUS
10
3.62239
20
-2.95963
11
3.62047
21
-2.95676
0
LINE
8
BLACK
6
CONTINUOUS
10
3.62047
20
-2.95676
11
3.6198
21
-2.95337
0
LINE
8
BLACK
6
CONTINUOUS
10
3.6198
20
-2.95337
11
3.6198
21
-2.93565
0
LINE
8
BLACK
6
CONTINUOUS
10
3.6198
20
-2.93565
11
3.62047
21
-2.93226
0
LINE
8
BLACK
6
CONTINUOUS
10
3.62047
20
-2.93226
11
3.62239
21
-2.92939
0
LINE
8
BLACK
6
CONTINUOUS
10
3.62239
20
-2.92939
11
3.62527
21
-2.92747
0
LINE
8
BLACK
6
CONTINUOUS
10
3.62527
20
-2.92747
11
3.62866
21
-2.9268
0
LINE
8
BLACK
6
CONTINUOUS
10
3.62866
20
-2.9268
11
3.64834
21
-2.9268
0
LINE
8
BLACK
6
CONTINUOUS
10
3.64834
20
-2.9268
11
3.65173
21
-2.92747
0
LINE
8
BLACK
6
CONTINUOUS
10
3.9999
20
-2.95915
11
3.92116
21
-2.95915
0
LINE
8
BLACK
6
CONTINUOUS
10
3.92116
20
-2.95915
11
3.92116
21
-2.80955
0
LINE
8
BLACK
6
CONTINUOUS
10
3.92116
20
-2.80955
11
3.9999
21
-2.80955
0
LINE
8
BLACK
6
CONTINUOUS
10
3.9999
20
-2.80955
11
3.9999
21
-2.95915
0
LINE
8
BLACK
6
CONTINUOUS
10
4.25545
20
-2.92093
11
4.17671
21
-2.92093
0
LINE
8
BLACK
6
CONTINUOUS
10
4.17671
20
-2.92093
11
4.17671
21
-2.86187
0
LINE
8
BLACK
6
CONTINUOUS
10
4.17671
20
-2.86187
11
4.25545
21
-2.86187
0
LINE
8
BLACK
6
CONTINUOUS
10
4.25545
20
-2.86187
11
4.25545
21
-2.92093
0
LINE
8
BLACK
6
CONTINUOUS
10
3.75187
20
-2.91388
11
3.67313
21
-2.91388
0
LINE
8
BLACK
6
CONTINUOUS
10
3.67313
20
-2.91388
11
3.67313
21
-2.85482
0
LINE
8
BLACK
6
CONTINUOUS
10
3.67313
20
-2.85482
11
3.75187
21
-2.85482
0
LINE
8
BLACK
6
CONTINUOUS
10
3.75187
20
-2.85482
11
3.75187
21
-2.91388
0
LINE
8
BLACK
6
CONTINUOUS
10
4.11847
20
-2.87416
11
4.12166
21
-2.8763
0
LINE
8
BLACK
6
CONTINUOUS
10
4.12166
20
-2.8763
11
4.12379
21
-2.87949
0
LINE
8
BLACK
6
CONTINUOUS
10
4.12379
20
-2.87949
11
4.12454
21
-2.88326
0
LINE
8
BLACK
6
CONTINUOUS
10
4.12454
20
-2.88326
11
4.12454
21
-2.90294
0
LINE
8
BLACK
6
CONTINUOUS
10
4.12454
20
-2.90294
11
4.12379
21
-2.90671
0
LINE
8
BLACK
6
CONTINUOUS
10
4.12379
20
-2.90671
11
4.12166
21
-2.9099
0
LINE
8
BLACK
6
CONTINUOUS
10
4.12166
20
-2.9099
11
4.11847
21
-2.91203
0
LINE
8
BLACK
6
CONTINUOUS
10
4.11847
20
-2.91203
11
4.1147
21
-2.91278
0
LINE
8
BLACK
6
CONTINUOUS
10
4.1147
20
-2.91278
11
4.0773
21
-2.91278
0
LINE
8
BLACK
6
CONTINUOUS
10
4.0773
20
-2.91278
11
4.07353
21
-2.91203
0
LINE
8
BLACK
6
CONTINUOUS
10
4.07353
20
-2.91203
11
4.07034
21
-2.9099
0
LINE
8
BLACK
6
CONTINUOUS
10
4.07034
20
-2.9099
11
4.06821
21
-2.90671
0
LINE
8
BLACK
6
CONTINUOUS
10
4.06821
20
-2.90671
11
4.06746
21
-2.90294
0
LINE
8
BLACK
6
CONTINUOUS
10
4.06746
20
-2.90294
11
4.06746
21
-2.88326
0
LINE
8
BLACK
6
CONTINUOUS
10
4.06746
20
-2.88326
11
4.06821
21
-2.87949
0
LINE
8
BLACK
6
CONTINUOUS
10
4.06821
20
-2.87949
11
4.07034
21
-2.8763
0
LINE
8
BLACK
6
CONTINUOUS
10
4.07034
20
-2.8763
11
4.07353
21
-2.87416
0
LINE
8
BLACK
6
CONTINUOUS
10
4.07353
20
-2.87416
11
4.0773
21
-2.87341
0
LINE
8
BLACK
6
CONTINUOUS
10
4.0773
20
-2.87341
11
4.1147
21
-2.87341
0
LINE
8
BLACK
6
CONTINUOUS
10
4.1147
20
-2.87341
11
4.11847
21
-2.87416
0
LINE
8
BLACK
6
CONTINUOUS
10
3.58647
20
-2.86816
11
3.58966
21
-2.8703
0
LINE
8
BLACK
6
CONTINUOUS
10
3.58966
20
-2.8703
11
3.59179
21
-2.87349
0
LINE
8
BLACK
6
CONTINUOUS
10
3.59179
20
-2.87349
11
3.59254
21
-2.87726
0
LINE
8
BLACK
6
CONTINUOUS
10
3.59254
20
-2.87726
11
3.59254
21
-2.89694
0
LINE
8
BLACK
6
CONTINUOUS
10
3.59254
20
-2.89694
11
3.59179
21
-2.90071
0
LINE
8
BLACK
6
CONTINUOUS
10
3.59179
20
-2.90071
11
3.58966
21
-2.9039
0
LINE
8
BLACK
6
CONTINUOUS
10
3.58966
20
-2.9039
11
3.58647
21
-2.90603
0
LINE
8
BLACK
6
CONTINUOUS
10
3.58647
20
-2.90603
11
3.5827
21
-2.90678
0
LINE
8
BLACK
6
CONTINUOUS
10
3.5827
20
-2.90678
11
3.5453
21
-2.90678
0
LINE
8
BLACK
6
CONTINUOUS
10
3.5453
20
-2.90678
11
3.54153
21
-2.90603
0
LINE
8
BLACK
6
CONTINUOUS
10
3.54153
20
-2.90603
11
3.53834
21
-2.9039
0
LINE
8
BLACK
6
CONTINUOUS
10
3.53834
20
-2.9039
11
3.53621
21
-2.90071
0
LINE
8
BLACK
6
CONTINUOUS
10
3.53621
20
-2.90071
11
3.53546
21
-2.89694
0
LINE
8
BLACK
6
CONTINUOUS
10
3.53546
20
-2.89694
11
3.53546
21
-2.87726
0
LINE
8
BLACK
6
CONTINUOUS
10
3.53546
20
-2.87726
11
3.53621
21
-2.87349
0
LINE
8
BLACK
6
CONTINUOUS
10
3.53621
20
-2.87349
11
3.53834
21
-2.8703
0
LINE
8
BLACK
6
CONTINUOUS
10
3.53834
20
-2.8703
11
3.54153
21
-2.86816
0
LINE
8
BLACK
6
CONTINUOUS
10
3.54153
20
-2.86816
11
3.5453
21
-2.86741
0
LINE
8
BLACK
6
CONTINUOUS
10
3.5453
20
-2.86741
11
3.5827
21
-2.86741
0
LINE
8
BLACK
6
CONTINUOUS
10
3.5827
20
-2.86741
11
3.58647
21
-2.86816
0
LINE
8
BLACK
6
CONTINUOUS
10
3.65173
20
-2.86645
11
3.65461
21
-2.86837
0
LINE
8
BLACK
6
CONTINUOUS
10
3.65461
20
-2.86837
11
3.65653
21
-2.87124
0
LINE
8
BLACK
6
CONTINUOUS
10
3.65653
20
-2.87124
11
3.6572
21
-2.87463
0
LINE
8
BLACK
6
CONTINUOUS
10
3.6572
20
-2.87463
11
3.6572
21
-2.89235
0
LINE
8
BLACK
6
CONTINUOUS
10
3.6572
20
-2.89235
11
3.65653
21
-2.89574
0
LINE
8
BLACK
6
CONTINUOUS
10
3.65653
20
-2.89574
11
3.65461
21
-2.89861
0
LINE
8
BLACK
6
CONTINUOUS
10
3.65461
20
-2.89861
11
3.65173
21
-2.90053
0
LINE
8
BLACK
6
CONTINUOUS
10
3.65173
20
-2.90053
11
3.64834
21
-2.9012
0
LINE
8
BLACK
6
CONTINUOUS
10
3.64834
20
-2.9012
11
3.62866
21
-2.9012
0
LINE
8
BLACK
6
CONTINUOUS
10
3.62866
20
-2.9012
11
3.62527
21
-2.90053
0
LINE
8
BLACK
6
CONTINUOUS
10
3.62527
20
-2.90053
11
3.62239
21
-2.89861
0
LINE
8
BLACK
6
CONTINUOUS
10
3.62239
20
-2.89861
11
3.62047
21
-2.89574
0
LINE
8
BLACK
6
CONTINUOUS
10
3.62047
20
-2.89574
11
3.6198
21
-2.89235
0
LINE
8
BLACK
6
CONTINUOUS
10
3.6198
20
-2.89235
11
3.6198
21
-2.87463
0
LINE
8
BLACK
6
CONTINUOUS
10
3.6198
20
-2.87463
11
3.62047
21
-2.87124
0
LINE
8
BLACK
6
CONTINUOUS
10
3.62047
20
-2.87124
11
3.62239
21
-2.86837
0
LINE
8
BLACK
6
CONTINUOUS
10
3.62239
20
-2.86837
11
3.62527
21
-2.86645
0
LINE
8
BLACK
6
CONTINUOUS
10
3.62527
20
-2.86645
11
3.62866
21
-2.86577
0
LINE
8
BLACK
6
CONTINUOUS
10
3.62866
20
-2.86577
11
3.64834
21
-2.86577
0
LINE
8
BLACK
6
CONTINUOUS
10
3.64834
20
-2.86577
11
3.65173
21
-2.86645
0
LINE
8
BLACK
6
CONTINUOUS
10
4.25545
20
-2.83038
11
4.17671
21
-2.83038
0
LINE
8
BLACK
6
CONTINUOUS
10
4.17671
20
-2.83038
11
4.17671
21
-2.77132
0
LINE
8
BLACK
6
CONTINUOUS
10
4.17671
20
-2.77132
11
4.25545
21
-2.77132
0
LINE
8
BLACK
6
CONTINUOUS
10
4.25545
20
-2.77132
11
4.25545
21
-2.83038
0
LINE
8
BLACK
6
CONTINUOUS
10
4.10923
20
-2.7937
11
4.11211
21
-2.79562
0
LINE
8
BLACK
6
CONTINUOUS
10
4.11211
20
-2.79562
11
4.11403
21
-2.79849
0
LINE
8
BLACK
6
CONTINUOUS
10
4.11403
20
-2.79849
11
4.1147
21
-2.80188
0
LINE
8
BLACK
6
CONTINUOUS
10
4.1147
20
-2.80188
11
4.1147
21
-2.8196
0
LINE
8
BLACK
6
CONTINUOUS
10
4.1147
20
-2.8196
11
4.11403
21
-2.82299
0
LINE
8
BLACK
6
CONTINUOUS
10
4.11403
20
-2.82299
11
4.11211
21
-2.82586
0
LINE
8
BLACK
6
CONTINUOUS
10
4.11211
20
-2.82586
11
4.10923
21
-2.82778
0
LINE
8
BLACK
6
CONTINUOUS
10
4.10923
20
-2.82778
11
4.10584
21
-2.82846
0
LINE
8
BLACK
6
CONTINUOUS
10
4.10584
20
-2.82846
11
4.08616
21
-2.82846
0
LINE
8
BLACK
6
CONTINUOUS
10
4.08616
20
-2.82846
11
4.08277
21
-2.82778
0
LINE
8
BLACK
6
CONTINUOUS
10
4.08277
20
-2.82778
11
4.07989
21
-2.82586
0
LINE
8
BLACK
6
CONTINUOUS
10
4.07989
20
-2.82586
11
4.07797
21
-2.82299
0
LINE
8
BLACK
6
CONTINUOUS
10
4.07797
20
-2.82299
11
4.0773
21
-2.8196
0
LINE
8
BLACK
6
CONTINUOUS
10
4.0773
20
-2.8196
11
4.0773
21
-2.80188
0
LINE
8
BLACK
6
CONTINUOUS
10
4.0773
20
-2.80188
11
4.07797
21
-2.79849
0
LINE
8
BLACK
6
CONTINUOUS
10
4.07797
20
-2.79849
11
4.07989
21
-2.79562
0
LINE
8
BLACK
6
CONTINUOUS
10
4.07989
20
-2.79562
11
4.08277
21
-2.7937
0
LINE
8
BLACK
6
CONTINUOUS
10
4.08277
20
-2.7937
11
4.08616
21
-2.79302
0
LINE
8
BLACK
6
CONTINUOUS
10
4.08616
20
-2.79302
11
4.10584
21
-2.79302
0
LINE
8
BLACK
6
CONTINUOUS
10
4.10584
20
-2.79302
11
4.10923
21
-2.7937
0
LINE
8
BLACK
6
CONTINUOUS
10
3.75187
20
-2.82333
11
3.67313
21
-2.82333
0
LINE
8
BLACK
6
CONTINUOUS
10
3.67313
20
-2.82333
11
3.67313
21
-2.76427
0
LINE
8
BLACK
6
CONTINUOUS
10
3.67313
20
-2.76427
11
3.75187
21
-2.76427
0
LINE
8
BLACK
6
CONTINUOUS
10
3.75187
20
-2.76427
11
3.75187
21
-2.82333
0
LINE
8
BLACK
6
CONTINUOUS
10
3.57774
20
-2.77597
11
3.58061
21
-2.77789
0
LINE
8
BLACK
6
CONTINUOUS
10
3.58061
20
-2.77789
11
3.58253
21
-2.78077
0
LINE
8
BLACK
6
CONTINUOUS
10
3.58253
20
-2.78077
11
3.5832
21
-2.78416
0
LINE
8
BLACK
6
CONTINUOUS
10
3.5832
20
-2.78416
11
3.5832
21
-2.80384
0
LINE
8
BLACK
6
CONTINUOUS
10
3.5832
20
-2.80384
11
3.58253
21
-2.80723
0
LINE
8
BLACK
6
CONTINUOUS
10
3.58253
20
-2.80723
11
3.58061
21
-2.81011
0
LINE
8
BLACK
6
CONTINUOUS
10
3.58061
20
-2.81011
11
3.57774
21
-2.81203
0
LINE
8
BLACK
6
CONTINUOUS
10
3.57774
20
-2.81203
11
3.57435
21
-2.8127
0
LINE
8
BLACK
6
CONTINUOUS
10
3.57435
20
-2.8127
11
3.55663
21
-2.8127
0
LINE
8
BLACK
6
CONTINUOUS
10
3.55663
20
-2.8127
11
3.55324
21
-2.81203
0
LINE
8
BLACK
6
CONTINUOUS
10
3.55324
20
-2.81203
11
3.55037
21
-2.81011
0
LINE
8
BLACK
6
CONTINUOUS
10
3.55037
20
-2.81011
11
3.54845
21
-2.80723
0
LINE
8
BLACK
6
CONTINUOUS
10
3.54845
20
-2.80723
11
3.54777
21
-2.80384
0
LINE
8
BLACK
6
CONTINUOUS
10
3.54777
20
-2.80384
11
3.54777
21
-2.78416
0
LINE
8
BLACK
6
CONTINUOUS
10
3.54777
20
-2.78416
11
3.54845
21
-2.78077
0
LINE
8
BLACK
6
CONTINUOUS
10
3.54845
20
-2.78077
11
3.55037
21
-2.77789
0
LINE
8
BLACK
6
CONTINUOUS
10
3.55037
20
-2.77789
11
3.55324
21
-2.77597
0
LINE
8
BLACK
6
CONTINUOUS
10
3.55324
20
-2.77597
11
3.55663
21
-2.7753
0
LINE
8
BLACK
6
CONTINUOUS
10
3.55663
20
-2.7753
11
3.57435
21
-2.7753
0
LINE
8
BLACK
6
CONTINUOUS
10
3.57435
20
-2.7753
11
3.57774
21
-2.77597
0
LINE
8
BLACK
6
CONTINUOUS
10
3.63876
20
-2.77597
11
3.64163
21
-2.77789
0
LINE
8
BLACK
6
CONTINUOUS
10
3.64163
20
-2.77789
11
3.64355
21
-2.78077
0
LINE
8
BLACK
6
CONTINUOUS
10
3.64355
20
-2.78077
11
3.64423
21
-2.78416
0
LINE
8
BLACK
6
CONTINUOUS
10
3.64423
20
-2.78416
11
3.64423
21
-2.80384
0
LINE
8
BLACK
6
CONTINUOUS
10
3.64423
20
-2.80384
11
3.64355
21
-2.80723
0
LINE
8
BLACK
6
CONTINUOUS
10
3.64355
20
-2.80723
11
3.64163
21
-2.81011
0
LINE
8
BLACK
6
CONTINUOUS
10
3.64163
20
-2.81011
11
3.63876
21
-2.81203
0
LINE
8
BLACK
6
CONTINUOUS
10
3.63876
20
-2.81203
11
3.63537
21
-2.8127
0
LINE
8
BLACK
6
CONTINUOUS
10
3.63537
20
-2.8127
11
3.61765
21
-2.8127
0
LINE
8
BLACK
6
CONTINUOUS
10
3.61765
20
-2.8127
11
3.61426
21
-2.81203
0
LINE
8
BLACK
6
CONTINUOUS
10
3.61426
20
-2.81203
11
3.61139
21
-2.81011
0
LINE
8
BLACK
6
CONTINUOUS
10
3.61139
20
-2.81011
11
3.60947
21
-2.80723
0
LINE
8
BLACK
6
CONTINUOUS
10
3.60947
20
-2.80723
11
3.6088
21
-2.80384
0
LINE
8
BLACK
6
CONTINUOUS
10
3.6088
20
-2.80384
11
3.6088
21
-2.78416
0
LINE
8
BLACK
6
CONTINUOUS
10
3.6088
20
-2.78416
11
3.60947
21
-2.78077
0
LINE
8
BLACK
6
CONTINUOUS
10
3.60947
20
-2.78077
11
3.61139
21
-2.77789
0
LINE
8
BLACK
6
CONTINUOUS
10
3.61139
20
-2.77789
11
3.61426
21
-2.77597
0
LINE
8
BLACK
6
CONTINUOUS
10
3.61426
20
-2.77597
11
3.61765
21
-2.7753
0
LINE
8
BLACK
6
CONTINUOUS
10
3.61765
20
-2.7753
11
3.63537
21
-2.7753
0
LINE
8
BLACK
6
CONTINUOUS
10
3.63537
20
-2.7753
11
3.63876
21
-2.77597
0
LINE
8
BLACK
6
CONTINUOUS
10
4.10923
20
-2.73267
11
4.11211
21
-2.73459
0
LINE
8
BLACK
6
CONTINUOUS
10
4.11211
20
-2.73459
11
4.11403
21
-2.73747
0
LINE
8
BLACK
6
CONTINUOUS
10
4.11403
20
-2.73747
11
4.1147
21
-2.74086
0
LINE
8
BLACK
6
CONTINUOUS
10
4.1147
20
-2.74086
11
4.1147
21
-2.75857
0
LINE
8
BLACK
6
CONTINUOUS
10
4.1147
20
-2.75857
11
4.11403
21
-2.76196
0
LINE
8
BLACK
6
CONTINUOUS
10
4.11403
20
-2.76196
11
4.11211
21
-2.76484
0
LINE
8
BLACK
6
CONTINUOUS
10
4.11211
20
-2.76484
11
4.10923
21
-2.76676
0
LINE
8
BLACK
6
CONTINUOUS
10
4.10923
20
-2.76676
11
4.10584
21
-2.76743
0
LINE
8
BLACK
6
CONTINUOUS
10
4.10584
20
-2.76743
11
4.08616
21
-2.76743
0
LINE
8
BLACK
6
CONTINUOUS
10
4.08616
20
-2.76743
11
4.08277
21
-2.76676
0
LINE
8
BLACK
6
CONTINUOUS
10
4.08277
20
-2.76676
11
4.07989
21
-2.76484
0
LINE
8
BLACK
6
CONTINUOUS
10
4.07989
20
-2.76484
11
4.07797
21
-2.76196
0
LINE
8
BLACK
6
CONTINUOUS
10
4.07797
20
-2.76196
11
4.0773
21
-2.75857
0
LINE
8
BLACK
6
CONTINUOUS
10
4.0773
20
-2.75857
11
4.0773
21
-2.74086
0
LINE
8
BLACK
6
CONTINUOUS
10
4.0773
20
-2.74086
11
4.07797
21
-2.73747
0
LINE
8
BLACK
6
CONTINUOUS
10
4.07797
20
-2.73747
11
4.07989
21
-2.73459
0
LINE
8
BLACK
6
CONTINUOUS
10
4.07989
20
-2.73459
11
4.08277
21
-2.73267
0
LINE
8
BLACK
6
CONTINUOUS
10
4.08277
20
-2.73267
11
4.08616
21
-2.732
0
LINE
8
BLACK
6
CONTINUOUS
10
4.08616
20
-2.732
11
4.10584
21
-2.732
0
LINE
8
BLACK
6
CONTINUOUS
10
4.10584
20
-2.732
11
4.10923
21
-2.73267
0
LINE
8
BLACK
6
CONTINUOUS
10
4.16546
20
-2.70897
11
4.16834
21
-2.71089
0
LINE
8
BLACK
6
CONTINUOUS
10
4.16834
20
-2.71089
11
4.17026
21
-2.71377
0
LINE
8
BLACK
6
CONTINUOUS
10
4.17026
20
-2.71377
11
4.17093
21
-2.71716
0
LINE
8
BLACK
6
CONTINUOUS
10
4.17093
20
-2.71716
11
4.17093
21
-2.73684
0
LINE
8
BLACK
6
CONTINUOUS
10
4.17093
20
-2.73684
11
4.17026
21
-2.74023
0
LINE
8
BLACK
6
CONTINUOUS
10
4.17026
20
-2.74023
11
4.16834
21
-2.74311
0
LINE
8
BLACK
6
CONTINUOUS
10
4.16834
20
-2.74311
11
4.16546
21
-2.74503
0
LINE
8
BLACK
6
CONTINUOUS
10
4.16546
20
-2.74503
11
4.16207
21
-2.7457
0
LINE
8
BLACK
6
CONTINUOUS
10
4.16207
20
-2.7457
11
4.14436
21
-2.7457
0
LINE
8
BLACK
6
CONTINUOUS
10
4.14436
20
-2.7457
11
4.14097
21
-2.74503
0
LINE
8
BLACK
6
CONTINUOUS
10
4.14097
20
-2.74503
11
4.13809
21
-2.74311
0
LINE
8
BLACK
6
CONTINUOUS
10
4.13809
20
-2.74311
11
4.13617
21
-2.74023
0
LINE
8
BLACK
6
CONTINUOUS
10
4.13617
20
-2.74023
11
4.1355
21
-2.73684
0
LINE
8
BLACK
6
CONTINUOUS
10
4.1355
20
-2.73684
11
4.1355
21
-2.71716
0
LINE
8
BLACK
6
CONTINUOUS
10
4.1355
20
-2.71716
11
4.13617
21
-2.71377
0
LINE
8
BLACK
6
CONTINUOUS
10
4.13617
20
-2.71377
11
4.13809
21
-2.71089
0
LINE
8
BLACK
6
CONTINUOUS
10
4.13809
20
-2.71089
11
4.14097
21
-2.70897
0
LINE
8
BLACK
6
CONTINUOUS
10
4.14097
20
-2.70897
11
4.14436
21
-2.7083
0
LINE
8
BLACK
6
CONTINUOUS
10
4.14436
20
-2.7083
11
4.16207
21
-2.7083
0
LINE
8
BLACK
6
CONTINUOUS
10
4.16207
20
-2.7083
11
4.16546
21
-2.70897
0
LINE
8
BLACK
6
CONTINUOUS
10
4.22649
20
-2.70897
11
4.22936
21
-2.71089
0
LINE
8
BLACK
6
CONTINUOUS
10
4.22936
20
-2.71089
11
4.23128
21
-2.71377
0
LINE
8
BLACK
6
CONTINUOUS
10
4.23128
20
-2.71377
11
4.23196
21
-2.71716
0
LINE
8
BLACK
6
CONTINUOUS
10
4.23196
20
-2.71716
11
4.23196
21
-2.73684
0
LINE
8
BLACK
6
CONTINUOUS
10
4.23196
20
-2.73684
11
4.23128
21
-2.74023
0
LINE
8
BLACK
6
CONTINUOUS
10
4.23128
20
-2.74023
11
4.22936
21
-2.74311
0
LINE
8
BLACK
6
CONTINUOUS
10
4.22936
20
-2.74311
11
4.22649
21
-2.74503
0
LINE
8
BLACK
6
CONTINUOUS
10
4.22649
20
-2.74503
11
4.2231
21
-2.7457
0
LINE
8
BLACK
6
CONTINUOUS
10
4.2231
20
-2.7457
11
4.20538
21
-2.7457
0
LINE
8
BLACK
6
CONTINUOUS
10
4.20538
20
-2.7457
11
4.20199
21
-2.74503
0
LINE
8
BLACK
6
CONTINUOUS
10
4.20199
20
-2.74503
11
4.19912
21
-2.74311
0
LINE
8
BLACK
6
CONTINUOUS
10
4.19912
20
-2.74311
11
4.1972
21
-2.74023
0
LINE
8
BLACK
6
CONTINUOUS
10
4.1972
20
-2.74023
11
4.19652
21
-2.73684
0
LINE
8
BLACK
6
CONTINUOUS
10
4.19652
20
-2.73684
11
4.19652
21
-2.71716
0
LINE
8
BLACK
6
CONTINUOUS
10
4.19652
20
-2.71716
11
4.1972
21
-2.71377
0
LINE
8
BLACK
6
CONTINUOUS
10
4.1972
20
-2.71377
11
4.19912
21
-2.71089
0
LINE
8
BLACK
6
CONTINUOUS
10
4.19912
20
-2.71089
11
4.20199
21
-2.70897
0
LINE
8
BLACK
6
CONTINUOUS
10
4.20199
20
-2.70897
11
4.20538
21
-2.7083
0
LINE
8
BLACK
6
CONTINUOUS
10
4.20538
20
-2.7083
11
4.2231
21
-2.7083
0
LINE
8
BLACK
6
CONTINUOUS
10
4.2231
20
-2.7083
11
4.22649
21
-2.70897
  0
ENDSEC
  0
EOF
