  0
SECTION
  2
HEADER
  9
$ANGBASE
  50
0.0
  9
$ANGDIR
  70
1
  9
$MEASUREMENT
  70
0
  0
ENDSEC
  0
SECTION
  2
TABLES
  0
TABLE
  2
LTYPE
  70
4
  0
LTYPE
  5
40F
  2
CONTINUOUS
  70
0
  3
Solid line
  72
65
  73
0
  40
0.0
  0
LTYPE
  5
410
  2
DASHDOT
 70
0
  3
Dash Dot ____ _ ____ _
 72
65
 73
4
 40
2.0
 49
1.25
 49
-0.25
 49
0.25
 49
-0.25
  0
LTYPE
  5
411
  2
DASHED
 70
0
  3
Dashed __ __ __ __ __
 72
65
 73
2
 40
0.75
 49
0.5
 49
-0.25
  0
LTYPE
  5
43B
  2
DOTTED
 70
0
  3
Dotted .  .  .  .
 72
65
 73
2
 40
0.2
 49
0.0
 49
-0.2
  0
ENDTAB
  0
TABLE
  2
STYLE
  70
4
  0
STYLE
  2
KICAD
  70
0
  40
0
  41
1
  42
1
  50
0
  71
0
  3
isocp.shx
  0
STYLE
  2
KICADB
  70
0
  40
0
  41
1
  42
1
  50
0
  71
0
  3
isocp.shx
  0
STYLE
  2
KICADI
  70
0
  40
0
  41
1
  42
1
  50
15
  71
0
  3
isocp.shx
  0
STYLE
  2
KICADBI
  70
0
  40
0
  41
1
  42
1
  50
15
  71
0
  3
isocp.shx
  0
ENDTAB
  0
TABLE
  2
LAYER
  70
1
  0
LAYER
  2
BLACK
  70
0
  62
7
  6
CONTINUOUS
  0
ENDTAB
  0
ENDSEC
  0
SECTION
  2
ENTITIES
0
LINE
8
BLACK
6
CONTINUOUS
10
5.14059
20
-2.60626
11
5.14122
21
-2.60626
0
LINE
8
BLACK
6
CONTINUOUS
10
5.14122
20
-2.60626
11
5.14172
21
-2.60662
0
LINE
8
BLACK
6
CONTINUOUS
10
5.14172
20
-2.60662
11
5.14231
21
-2.60681
0
LINE
8
BLACK
6
CONTINUOUS
10
5.14231
20
-2.60681
11
5.14268
21
-2.60732
0
LINE
8
BLACK
6
CONTINUOUS
10
5.14268
20
-2.60732
11
5.14319
21
-2.60769
0
LINE
8
BLACK
6
CONTINUOUS
10
5.14319
20
-2.60769
11
5.14338
21
-2.60828
0
LINE
8
BLACK
6
CONTINUOUS
10
5.14338
20
-2.60828
11
5.14374
21
-2.60878
0
LINE
8
BLACK
6
CONTINUOUS
10
5.14374
20
-2.60878
11
5.14374
21
-2.60941
0
LINE
8
BLACK
6
CONTINUOUS
10
5.14374
20
-2.60941
11
5.14394
21
-2.61
0
LINE
8
BLACK
6
CONTINUOUS
10
5.14394
20
-2.61
11
5.14394
21
-5.39
0
LINE
8
BLACK
6
CONTINUOUS
10
5.14394
20
-5.39
11
5.14374
21
-5.39059
0
LINE
8
BLACK
6
CONTINUOUS
10
5.14374
20
-5.39059
11
5.14374
21
-5.39122
0
LINE
8
BLACK
6
CONTINUOUS
10
5.14374
20
-5.39122
11
5.14338
21
-5.39172
0
LINE
8
BLACK
6
CONTINUOUS
10
5.14338
20
-5.39172
11
5.14319
21
-5.39231
0
LINE
8
BLACK
6
CONTINUOUS
10
5.14319
20
-5.39231
11
5.14268
21
-5.39268
0
LINE
8
BLACK
6
CONTINUOUS
10
5.14268
20
-5.39268
11
5.14231
21
-5.39319
0
LINE
8
BLACK
6
CONTINUOUS
10
5.14231
20
-5.39319
11
5.14172
21
-5.39338
0
LINE
8
BLACK
6
CONTINUOUS
10
5.14172
20
-5.39338
11
5.14122
21
-5.39374
0
LINE
8
BLACK
6
CONTINUOUS
10
5.14122
20
-5.39374
11
5.14059
21
-5.39374
0
LINE
8
BLACK
6
CONTINUOUS
10
5.14059
20
-5.39374
11
5.14
21
-5.39394
0
LINE
8
BLACK
6
CONTINUOUS
10
5.14
20
-5.39394
11
2.36
21
-5.39394
0
LINE
8
BLACK
6
CONTINUOUS
10
2.36
20
-5.39394
11
2.35941
21
-5.39374
0
LINE
8
BLACK
6
CONTINUOUS
10
2.35941
20
-5.39374
11
2.35878
21
-5.39374
0
LINE
8
BLACK
6
CONTINUOUS
10
2.35878
20
-5.39374
11
2.35828
21
-5.39338
0
LINE
8
BLACK
6
CONTINUOUS
10
2.35828
20
-5.39338
11
2.35769
21
-5.39319
0
LINE
8
BLACK
6
CONTINUOUS
10
2.35769
20
-5.39319
11
2.35732
21
-5.39268
0
LINE
8
BLACK
6
CONTINUOUS
10
2.35732
20
-5.39268
11
2.35681
21
-5.39231
0
LINE
8
BLACK
6
CONTINUOUS
10
2.35681
20
-5.39231
11
2.35662
21
-5.39172
0
LINE
8
BLACK
6
CONTINUOUS
10
2.35662
20
-5.39172
11
2.35626
21
-5.39122
0
LINE
8
BLACK
6
CONTINUOUS
10
2.35626
20
-5.39122
11
2.35626
21
-5.39059
0
LINE
8
BLACK
6
CONTINUOUS
10
2.35626
20
-5.39059
11
2.35606
21
-5.39
0
LINE
8
BLACK
6
CONTINUOUS
10
2.35606
20
-5.39
11
2.35606
21
-2.61
0
LINE
8
BLACK
6
CONTINUOUS
10
2.35606
20
-2.61
11
2.35626
21
-2.60941
0
LINE
8
BLACK
6
CONTINUOUS
10
2.35626
20
-2.60941
11
2.35626
21
-2.60878
0
LINE
8
BLACK
6
CONTINUOUS
10
2.35626
20
-2.60878
11
2.35662
21
-2.60828
0
LINE
8
BLACK
6
CONTINUOUS
10
2.35662
20
-2.60828
11
2.35681
21
-2.60769
0
LINE
8
BLACK
6
CONTINUOUS
10
2.35681
20
-2.60769
11
2.35732
21
-2.60732
0
LINE
8
BLACK
6
CONTINUOUS
10
2.35732
20
-2.60732
11
2.35769
21
-2.60681
0
LINE
8
BLACK
6
CONTINUOUS
10
2.35769
20
-2.60681
11
2.35828
21
-2.60662
0
LINE
8
BLACK
6
CONTINUOUS
10
2.35828
20
-2.60662
11
2.35878
21
-2.60626
0
LINE
8
BLACK
6
CONTINUOUS
10
2.35878
20
-2.60626
11
2.35941
21
-2.60626
0
LINE
8
BLACK
6
CONTINUOUS
10
2.35941
20
-2.60626
11
2.36
21
-2.60606
0
LINE
8
BLACK
6
CONTINUOUS
10
2.36
20
-2.60606
11
5.14
21
-2.60606
0
LINE
8
BLACK
6
CONTINUOUS
10
5.14
20
-2.60606
11
5.14059
21
-2.60626
0
LINE
8
BLACK
6
CONTINUOUS
10
2.36394
20
-2.61394
11
2.36394
21
-5.38606
0
LINE
8
BLACK
6
CONTINUOUS
10
2.36394
20
-5.38606
11
5.13606
21
-5.38606
0
LINE
8
BLACK
6
CONTINUOUS
10
5.13606
20
-5.38606
11
5.13606
21
-2.61394
0
LINE
8
BLACK
6
CONTINUOUS
10
5.13606
20
-2.61394
11
2.36394
21
-2.61394
  0
ENDSEC
  0
EOF
