  0
SECTION
  2
HEADER
  9
$ANGBASE
  50
0.0
  9
$ANGDIR
  70
1
  9
$MEASUREMENT
  70
0
  0
ENDSEC
  0
SECTION
  2
TABLES
  0
TABLE
  2
LTYPE
  70
4
  0
LTYPE
  5
40F
  2
CONTINUOUS
  70
0
  3
Solid line
  72
65
  73
0
  40
0.0
  0
LTYPE
  5
410
  2
DASHDOT
 70
0
  3
Dash Dot ____ _ ____ _
 72
65
 73
4
 40
2.0
 49
1.25
 49
-0.25
 49
0.25
 49
-0.25
  0
LTYPE
  5
411
  2
DASHED
 70
0
  3
Dashed __ __ __ __ __
 72
65
 73
2
 40
0.75
 49
0.5
 49
-0.25
  0
LTYPE
  5
43B
  2
DOTTED
 70
0
  3
Dotted .  .  .  .
 72
65
 73
2
 40
0.2
 49
0.0
 49
-0.2
  0
ENDTAB
  0
TABLE
  2
STYLE
  70
4
  0
STYLE
  2
KICAD
  70
0
  40
0
  41
1
  42
1
  50
0
  71
0
  3
isocp.shx
  0
STYLE
  2
KICADB
  70
0
  40
0
  41
1
  42
1
  50
0
  71
0
  3
isocp.shx
  0
STYLE
  2
KICADI
  70
0
  40
0
  41
1
  42
1
  50
15
  71
0
  3
isocp.shx
  0
STYLE
  2
KICADBI
  70
0
  40
0
  41
1
  42
1
  50
15
  71
0
  3
isocp.shx
  0
ENDTAB
  0
TABLE
  2
LAYER
  70
1
  0
LAYER
  2
BLACK
  70
0
  62
7
  6
CONTINUOUS
  0
ENDTAB
  0
ENDSEC
  0
SECTION
  2
ENTITIES
0
LINE
8
BLACK
6
CONTINUOUS
10
3.5812324409448819
20
-4.8697687795275586
11
3.5841062598425197
21
-4.8716890157480313
0
LINE
8
BLACK
6
CONTINUOUS
10
3.5841062598425197
20
-4.8716890157480313
11
3.586026496062992
21
-4.8745628346456691
0
LINE
8
BLACK
6
CONTINUOUS
10
3.586026496062992
20
-4.8745628346456691
11
3.5867007874015746
21
-4.877952755905512
0
LINE
8
BLACK
6
CONTINUOUS
10
3.5867007874015746
20
-4.877952755905512
11
3.5867007874015746
21
-4.8956692913385824
0
LINE
8
BLACK
6
CONTINUOUS
10
3.5867007874015746
20
-4.8956692913385824
11
3.586026496062992
21
-4.8990592125984254
0
LINE
8
BLACK
6
CONTINUOUS
10
3.586026496062992
20
-4.8990592125984254
11
3.5841062598425197
21
-4.9019330314960632
0
LINE
8
BLACK
6
CONTINUOUS
10
3.5841062598425197
20
-4.9019330314960632
11
3.5812324409448819
21
-4.903853267716535
0
LINE
8
BLACK
6
CONTINUOUS
10
3.5812324409448819
20
-4.903853267716535
11
3.5778425196850394
21
-4.9045275590551176
0
LINE
8
BLACK
6
CONTINUOUS
10
3.5778425196850394
20
-4.9045275590551176
11
3.5581574803149607
21
-4.9045275590551176
0
LINE
8
BLACK
6
CONTINUOUS
10
3.5581574803149607
20
-4.9045275590551176
11
3.5547675590551182
21
-4.903853267716535
0
LINE
8
BLACK
6
CONTINUOUS
10
3.5547675590551182
20
-4.903853267716535
11
3.5518937401574804
21
-4.9019330314960632
0
LINE
8
BLACK
6
CONTINUOUS
10
3.5518937401574804
20
-4.9019330314960632
11
3.5499735039370077
21
-4.8990592125984254
0
LINE
8
BLACK
6
CONTINUOUS
10
3.5499735039370077
20
-4.8990592125984254
11
3.5492992125984251
21
-4.8956692913385824
0
LINE
8
BLACK
6
CONTINUOUS
10
3.5492992125984251
20
-4.8956692913385824
11
3.5492992125984251
21
-4.877952755905512
0
LINE
8
BLACK
6
CONTINUOUS
10
3.5492992125984251
20
-4.877952755905512
11
3.5499735039370077
21
-4.8745628346456691
0
LINE
8
BLACK
6
CONTINUOUS
10
3.5499735039370077
20
-4.8745628346456691
11
3.5518937401574804
21
-4.8716890157480313
0
LINE
8
BLACK
6
CONTINUOUS
10
3.5518937401574804
20
-4.8716890157480313
11
3.5547675590551182
21
-4.8697687795275586
0
LINE
8
BLACK
6
CONTINUOUS
10
3.5547675590551182
20
-4.8697687795275586
11
3.5581574803149607
21
-4.8690944881889759
0
LINE
8
BLACK
6
CONTINUOUS
10
3.5581574803149607
20
-4.8690944881889759
11
3.5778425196850394
21
-4.8690944881889759
0
LINE
8
BLACK
6
CONTINUOUS
10
3.5778425196850394
20
-4.8690944881889759
11
3.5812324409448819
21
-4.8697687795275586
0
LINE
8
BLACK
6
CONTINUOUS
10
3.5812324409448819
20
-4.8087451574803151
11
3.5841062598425197
21
-4.8106653937007877
0
LINE
8
BLACK
6
CONTINUOUS
10
3.5841062598425197
20
-4.8106653937007877
11
3.586026496062992
21
-4.8135392125984247
0
LINE
8
BLACK
6
CONTINUOUS
10
3.586026496062992
20
-4.8135392125984247
11
3.5867007874015746
21
-4.8169291338582676
0
LINE
8
BLACK
6
CONTINUOUS
10
3.5867007874015746
20
-4.8169291338582676
11
3.5867007874015746
21
-4.8346456692913389
0
LINE
8
BLACK
6
CONTINUOUS
10
3.5867007874015746
20
-4.8346456692913389
11
3.586026496062992
21
-4.8380355905511809
0
LINE
8
BLACK
6
CONTINUOUS
10
3.586026496062992
20
-4.8380355905511809
11
3.5841062598425197
21
-4.8409094094488188
0
LINE
8
BLACK
6
CONTINUOUS
10
3.5841062598425197
20
-4.8409094094488188
11
3.5812324409448819
21
-4.8428296456692914
0
LINE
8
BLACK
6
CONTINUOUS
10
3.5812324409448819
20
-4.8428296456692914
11
3.5778425196850394
21
-4.8435039370078741
0
LINE
8
BLACK
6
CONTINUOUS
10
3.5778425196850394
20
-4.8435039370078741
11
3.5581574803149607
21
-4.8435039370078741
0
LINE
8
BLACK
6
CONTINUOUS
10
3.5581574803149607
20
-4.8435039370078741
11
3.5547675590551182
21
-4.8428296456692914
0
LINE
8
BLACK
6
CONTINUOUS
10
3.5547675590551182
20
-4.8428296456692914
11
3.5518937401574804
21
-4.8409094094488188
0
LINE
8
BLACK
6
CONTINUOUS
10
3.5518937401574804
20
-4.8409094094488188
11
3.5499735039370077
21
-4.8380355905511809
0
LINE
8
BLACK
6
CONTINUOUS
10
3.5499735039370077
20
-4.8380355905511809
11
3.5492992125984251
21
-4.8346456692913389
0
LINE
8
BLACK
6
CONTINUOUS
10
3.5492992125984251
20
-4.8346456692913389
11
3.5492992125984251
21
-4.8169291338582676
0
LINE
8
BLACK
6
CONTINUOUS
10
3.5492992125984251
20
-4.8169291338582676
11
3.5499735039370077
21
-4.8135392125984247
0
LINE
8
BLACK
6
CONTINUOUS
10
3.5499735039370077
20
-4.8135392125984247
11
3.5518937401574804
21
-4.8106653937007877
0
LINE
8
BLACK
6
CONTINUOUS
10
3.5518937401574804
20
-4.8106653937007877
11
3.5547675590551182
21
-4.8087451574803151
0
LINE
8
BLACK
6
CONTINUOUS
10
3.5547675590551182
20
-4.8087451574803151
11
3.5581574803149607
21
-4.8080708661417324
0
LINE
8
BLACK
6
CONTINUOUS
10
3.5581574803149607
20
-4.8080708661417324
11
3.5778425196850394
21
-4.8080708661417324
0
LINE
8
BLACK
6
CONTINUOUS
10
3.5778425196850394
20
-4.8080708661417324
11
3.5812324409448819
21
-4.8087451574803151
0
LINE
8
BLACK
6
CONTINUOUS
10
4.3932324409448817
20
-4.3539420078740161
11
4.3961062598425196
21
-4.3558622440944879
0
LINE
8
BLACK
6
CONTINUOUS
10
4.3961062598425196
20
-4.3558622440944879
11
4.3980264960629922
21
-4.3587360629921257
0
LINE
8
BLACK
6
CONTINUOUS
10
4.3980264960629922
20
-4.3587360629921257
11
4.3987007874015749
21
-4.3621259842519686
0
LINE
8
BLACK
6
CONTINUOUS
10
4.3987007874015749
20
-4.3621259842519686
11
4.3987007874015749
21
-4.379842519685039
0
LINE
8
BLACK
6
CONTINUOUS
10
4.3987007874015749
20
-4.379842519685039
11
4.3980264960629922
21
-4.383232440944882
0
LINE
8
BLACK
6
CONTINUOUS
10
4.3980264960629922
20
-4.383232440944882
11
4.3961062598425196
21
-4.3861062598425198
0
LINE
8
BLACK
6
CONTINUOUS
10
4.3961062598425196
20
-4.3861062598425198
11
4.3932324409448817
21
-4.3880264960629924
0
LINE
8
BLACK
6
CONTINUOUS
10
4.3932324409448817
20
-4.3880264960629924
11
4.3898425196850397
21
-4.3887007874015751
0
LINE
8
BLACK
6
CONTINUOUS
10
4.3898425196850397
20
-4.3887007874015751
11
4.3701574803149601
21
-4.3887007874015751
0
LINE
8
BLACK
6
CONTINUOUS
10
4.3701574803149601
20
-4.3887007874015751
11
4.366767559055118
21
-4.3880264960629924
0
LINE
8
BLACK
6
CONTINUOUS
10
4.366767559055118
20
-4.3880264960629924
11
4.3638937401574802
21
-4.3861062598425198
0
LINE
8
BLACK
6
CONTINUOUS
10
4.3638937401574802
20
-4.3861062598425198
11
4.3619735039370076
21
-4.383232440944882
0
LINE
8
BLACK
6
CONTINUOUS
10
4.3619735039370076
20
-4.383232440944882
11
4.3612992125984249
21
-4.379842519685039
0
LINE
8
BLACK
6
CONTINUOUS
10
4.3612992125984249
20
-4.379842519685039
11
4.3612992125984249
21
-4.3621259842519686
0
LINE
8
BLACK
6
CONTINUOUS
10
4.3612992125984249
20
-4.3621259842519686
11
4.3619735039370076
21
-4.3587360629921257
0
LINE
8
BLACK
6
CONTINUOUS
10
4.3619735039370076
20
-4.3587360629921257
11
4.3638937401574802
21
-4.3558622440944879
0
LINE
8
BLACK
6
CONTINUOUS
10
4.3638937401574802
20
-4.3558622440944879
11
4.366767559055118
21
-4.3539420078740161
0
LINE
8
BLACK
6
CONTINUOUS
10
4.366767559055118
20
-4.3539420078740161
11
4.3701574803149601
21
-4.3532677165354325
0
LINE
8
BLACK
6
CONTINUOUS
10
4.3701574803149601
20
-4.3532677165354325
11
4.3898425196850397
21
-4.3532677165354325
0
LINE
8
BLACK
6
CONTINUOUS
10
4.3898425196850397
20
-4.3532677165354325
11
4.3932324409448817
21
-4.3539420078740161
0
LINE
8
BLACK
6
CONTINUOUS
10
4.3338400393700782
20
-4.3573316535433069
11
4.3363945275590554
21
-4.3590385433070864
0
LINE
8
BLACK
6
CONTINUOUS
10
4.3363945275590554
20
-4.3590385433070864
11
4.3381014173228349
21
-4.3615930314960627
0
LINE
8
BLACK
6
CONTINUOUS
10
4.3381014173228349
20
-4.3615930314960627
11
4.3387007874015744
21
-4.364606299212598
0
LINE
8
BLACK
6
CONTINUOUS
10
4.3387007874015744
20
-4.364606299212598
11
4.3387007874015744
21
-4.380354330708661
0
LINE
8
BLACK
6
CONTINUOUS
10
4.3387007874015744
20
-4.380354330708661
11
4.3381014173228349
21
-4.3833675984251972
0
LINE
8
BLACK
6
CONTINUOUS
10
4.3381014173228349
20
-4.3833675984251972
11
4.3363945275590554
21
-4.3859220866141735
0
LINE
8
BLACK
6
CONTINUOUS
10
4.3363945275590554
20
-4.3859220866141735
11
4.3338400393700782
21
-4.387628976377953
0
LINE
8
BLACK
6
CONTINUOUS
10
4.3338400393700782
20
-4.387628976377953
11
4.3308267716535429
21
-4.3882283464566925
0
LINE
8
BLACK
6
CONTINUOUS
10
4.3308267716535429
20
-4.3882283464566925
11
4.3091732283464568
21
-4.3882283464566925
0
LINE
8
BLACK
6
CONTINUOUS
10
4.3091732283464568
20
-4.3882283464566925
11
4.3061599606299215
21
-4.387628976377953
0
LINE
8
BLACK
6
CONTINUOUS
10
4.3061599606299215
20
-4.387628976377953
11
4.3036054724409452
21
-4.3859220866141735
0
LINE
8
BLACK
6
CONTINUOUS
10
4.3036054724409452
20
-4.3859220866141735
11
4.3018985826771656
21
-4.3833675984251972
0
LINE
8
BLACK
6
CONTINUOUS
10
4.3018985826771656
20
-4.3833675984251972
11
4.3012992125984253
21
-4.380354330708661
0
LINE
8
BLACK
6
CONTINUOUS
10
4.3012992125984253
20
-4.380354330708661
11
4.3012992125984253
21
-4.364606299212598
0
LINE
8
BLACK
6
CONTINUOUS
10
4.3012992125984253
20
-4.364606299212598
11
4.3018985826771656
21
-4.3615930314960627
0
LINE
8
BLACK
6
CONTINUOUS
10
4.3018985826771656
20
-4.3615930314960627
11
4.3036054724409452
21
-4.3590385433070864
0
LINE
8
BLACK
6
CONTINUOUS
10
4.3036054724409452
20
-4.3590385433070864
11
4.3061599606299215
21
-4.3573316535433069
0
LINE
8
BLACK
6
CONTINUOUS
10
4.3061599606299215
20
-4.3573316535433069
11
4.3091732283464568
21
-4.3567322834645665
0
LINE
8
BLACK
6
CONTINUOUS
10
4.3091732283464568
20
-4.3567322834645665
11
4.3308267716535429
21
-4.3567322834645665
0
LINE
8
BLACK
6
CONTINUOUS
10
4.3308267716535429
20
-4.3567322834645665
11
4.3338400393700782
21
-4.3573316535433069
0
LINE
8
BLACK
6
CONTINUOUS
10
3.8085080314960629
20
-4.3284301968503938
11
3.8113818503937007
21
-4.3303504330708664
0
LINE
8
BLACK
6
CONTINUOUS
10
3.8113818503937007
20
-4.3303504330708664
11
3.8133020866141734
21
-4.3332242519685042
0
LINE
8
BLACK
6
CONTINUOUS
10
3.8133020866141734
20
-4.3332242519685042
11
3.813976377952756
21
-4.3366141732283463
0
LINE
8
BLACK
6
CONTINUOUS
10
3.813976377952756
20
-4.3366141732283463
11
3.813976377952756
21
-4.3543307086614176
0
LINE
8
BLACK
6
CONTINUOUS
10
3.813976377952756
20
-4.3543307086614176
11
3.8133020866141734
21
-4.3577206299212596
0
LINE
8
BLACK
6
CONTINUOUS
10
3.8133020866141734
20
-4.3577206299212596
11
3.8113818503937007
21
-4.3605944488188975
0
LINE
8
BLACK
6
CONTINUOUS
10
3.8113818503937007
20
-4.3605944488188975
11
3.8085080314960629
21
-4.3625146850393701
0
LINE
8
BLACK
6
CONTINUOUS
10
3.8085080314960629
20
-4.3625146850393701
11
3.8051181102362204
21
-4.3631889763779528
0
LINE
8
BLACK
6
CONTINUOUS
10
3.8051181102362204
20
-4.3631889763779528
11
3.7854330708661417
21
-4.3631889763779528
0
LINE
8
BLACK
6
CONTINUOUS
10
3.7854330708661417
20
-4.3631889763779528
11
3.7820431496062992
21
-4.3625146850393701
0
LINE
8
BLACK
6
CONTINUOUS
10
3.7820431496062992
20
-4.3625146850393701
11
3.7791693307086613
21
-4.3605944488188975
0
LINE
8
BLACK
6
CONTINUOUS
10
3.7791693307086613
20
-4.3605944488188975
11
3.7772490944881887
21
-4.3577206299212596
0
LINE
8
BLACK
6
CONTINUOUS
10
3.7772490944881887
20
-4.3577206299212596
11
3.776574803149606
21
-4.3543307086614176
0
LINE
8
BLACK
6
CONTINUOUS
10
3.776574803149606
20
-4.3543307086614176
11
3.776574803149606
21
-4.3366141732283463
0
LINE
8
BLACK
6
CONTINUOUS
10
3.776574803149606
20
-4.3366141732283463
11
3.7772490944881887
21
-4.3332242519685042
0
LINE
8
BLACK
6
CONTINUOUS
10
3.7772490944881887
20
-4.3332242519685042
11
3.7791693307086613
21
-4.3303504330708664
0
LINE
8
BLACK
6
CONTINUOUS
10
3.7791693307086613
20
-4.3303504330708664
11
3.7820431496062992
21
-4.3284301968503938
0
LINE
8
BLACK
6
CONTINUOUS
10
3.7820431496062992
20
-4.3284301968503938
11
3.7854330708661417
21
-4.3277559055118111
0
LINE
8
BLACK
6
CONTINUOUS
10
3.7854330708661417
20
-4.3277559055118111
11
3.8051181102362204
21
-4.3277559055118111
0
LINE
8
BLACK
6
CONTINUOUS
10
3.8051181102362204
20
-4.3277559055118111
11
3.8085080314960629
21
-4.3284301968503938
0
LINE
8
BLACK
6
CONTINUOUS
10
3.8911851968503934
20
-4.3284301968503938
11
3.8940590157480313
21
-4.3303504330708664
0
LINE
8
BLACK
6
CONTINUOUS
10
3.8940590157480313
20
-4.3303504330708664
11
3.8959792519685039
21
-4.3332242519685042
0
LINE
8
BLACK
6
CONTINUOUS
10
3.8959792519685039
20
-4.3332242519685042
11
3.8966535433070866
21
-4.3366141732283463
0
LINE
8
BLACK
6
CONTINUOUS
10
3.8966535433070866
20
-4.3366141732283463
11
3.8966535433070866
21
-4.3543307086614176
0
LINE
8
BLACK
6
CONTINUOUS
10
3.8966535433070866
20
-4.3543307086614176
11
3.8959792519685039
21
-4.3577206299212596
0
LINE
8
BLACK
6
CONTINUOUS
10
3.8959792519685039
20
-4.3577206299212596
11
3.8940590157480313
21
-4.3605944488188975
0
LINE
8
BLACK
6
CONTINUOUS
10
3.8940590157480313
20
-4.3605944488188975
11
3.8911851968503934
21
-4.3625146850393701
0
LINE
8
BLACK
6
CONTINUOUS
10
3.8911851968503934
20
-4.3625146850393701
11
3.8877952755905509
21
-4.3631889763779528
0
LINE
8
BLACK
6
CONTINUOUS
10
3.8877952755905509
20
-4.3631889763779528
11
3.8681102362204722
21
-4.3631889763779528
0
LINE
8
BLACK
6
CONTINUOUS
10
3.8681102362204722
20
-4.3631889763779528
11
3.8647203149606297
21
-4.3625146850393701
0
LINE
8
BLACK
6
CONTINUOUS
10
3.8647203149606297
20
-4.3625146850393701
11
3.8618464960629919
21
-4.3605944488188975
0
LINE
8
BLACK
6
CONTINUOUS
10
3.8618464960629919
20
-4.3605944488188975
11
3.8599262598425197
21
-4.3577206299212596
0
LINE
8
BLACK
6
CONTINUOUS
10
3.8599262598425197
20
-4.3577206299212596
11
3.859251968503937
21
-4.3543307086614176
0
LINE
8
BLACK
6
CONTINUOUS
10
3.859251968503937
20
-4.3543307086614176
11
3.859251968503937
21
-4.3366141732283463
0
LINE
8
BLACK
6
CONTINUOUS
10
3.859251968503937
20
-4.3366141732283463
11
3.8599262598425197
21
-4.3332242519685042
0
LINE
8
BLACK
6
CONTINUOUS
10
3.8599262598425197
20
-4.3332242519685042
11
3.8618464960629919
21
-4.3303504330708664
0
LINE
8
BLACK
6
CONTINUOUS
10
3.8618464960629919
20
-4.3303504330708664
11
3.8647203149606297
21
-4.3284301968503938
0
LINE
8
BLACK
6
CONTINUOUS
10
3.8647203149606297
20
-4.3284301968503938
11
3.8681102362204722
21
-4.3277559055118111
0
LINE
8
BLACK
6
CONTINUOUS
10
3.8681102362204722
20
-4.3277559055118111
11
3.8877952755905509
21
-4.3277559055118111
0
LINE
8
BLACK
6
CONTINUOUS
10
3.8877952755905509
20
-4.3277559055118111
11
3.8911851968503934
21
-4.3284301968503938
0
LINE
8
BLACK
6
CONTINUOUS
10
3.5732718110236221
20
-4.3205561811023623
11
3.5761456299212599
21
-4.3224764173228349
0
LINE
8
BLACK
6
CONTINUOUS
10
3.5761456299212599
20
-4.3224764173228349
11
3.5780658661417322
21
-4.3253502362204728
0
LINE
8
BLACK
6
CONTINUOUS
10
3.5780658661417322
20
-4.3253502362204728
11
3.5787401574803148
21
-4.3287401574803148
0
LINE
8
BLACK
6
CONTINUOUS
10
3.5787401574803148
20
-4.3287401574803148
11
3.5787401574803148
21
-4.3484251968503935
0
LINE
8
BLACK
6
CONTINUOUS
10
3.5787401574803148
20
-4.3484251968503935
11
3.5780658661417322
21
-4.3518151181102365
0
LINE
8
BLACK
6
CONTINUOUS
10
3.5780658661417322
20
-4.3518151181102365
11
3.5761456299212599
21
-4.3546889370078743
0
LINE
8
BLACK
6
CONTINUOUS
10
3.5761456299212599
20
-4.3546889370078743
11
3.5732718110236221
21
-4.3566091732283461
0
LINE
8
BLACK
6
CONTINUOUS
10
3.5732718110236221
20
-4.3566091732283461
11
3.5698818897637796
21
-4.3572834645669287
0
LINE
8
BLACK
6
CONTINUOUS
10
3.5698818897637796
20
-4.3572834645669287
11
3.5521653543307088
21
-4.3572834645669287
0
LINE
8
BLACK
6
CONTINUOUS
10
3.5521653543307088
20
-4.3572834645669287
11
3.5487754330708658
21
-4.3566091732283461
0
LINE
8
BLACK
6
CONTINUOUS
10
3.5487754330708658
20
-4.3566091732283461
11
3.5459016141732285
21
-4.3546889370078743
0
LINE
8
BLACK
6
CONTINUOUS
10
3.5459016141732285
20
-4.3546889370078743
11
3.5439813779527558
21
-4.3518151181102365
0
LINE
8
BLACK
6
CONTINUOUS
10
3.5439813779527558
20
-4.3518151181102365
11
3.5433070866141732
21
-4.3484251968503935
0
LINE
8
BLACK
6
CONTINUOUS
10
3.5433070866141732
20
-4.3484251968503935
11
3.5433070866141732
21
-4.3287401574803148
0
LINE
8
BLACK
6
CONTINUOUS
10
3.5433070866141732
20
-4.3287401574803148
11
3.5439813779527558
21
-4.3253502362204728
0
LINE
8
BLACK
6
CONTINUOUS
10
3.5439813779527558
20
-4.3253502362204728
11
3.5459016141732285
21
-4.3224764173228349
0
LINE
8
BLACK
6
CONTINUOUS
10
3.5459016141732285
20
-4.3224764173228349
11
3.5487754330708658
21
-4.3205561811023623
0
LINE
8
BLACK
6
CONTINUOUS
10
3.5487754330708658
20
-4.3205561811023623
11
3.5521653543307088
21
-4.3198818897637796
0
LINE
8
BLACK
6
CONTINUOUS
10
3.5521653543307088
20
-4.3198818897637796
11
3.5698818897637796
21
-4.3198818897637796
0
LINE
8
BLACK
6
CONTINUOUS
10
3.5698818897637796
20
-4.3198818897637796
11
3.5732718110236221
21
-4.3205561811023623
0
LINE
8
BLACK
6
CONTINUOUS
10
3.6342954330708661
20
-4.3205561811023623
11
3.6371692519685039
21
-4.3224764173228349
0
LINE
8
BLACK
6
CONTINUOUS
10
3.6371692519685039
20
-4.3224764173228349
11
3.6390894881889762
21
-4.3253502362204728
0
LINE
8
BLACK
6
CONTINUOUS
10
3.6390894881889762
20
-4.3253502362204728
11
3.6397637795275588
21
-4.3287401574803148
0
LINE
8
BLACK
6
CONTINUOUS
10
3.6397637795275588
20
-4.3287401574803148
11
3.6397637795275588
21
-4.3484251968503935
0
LINE
8
BLACK
6
CONTINUOUS
10
3.6397637795275588
20
-4.3484251968503935
11
3.6390894881889762
21
-4.3518151181102365
0
LINE
8
BLACK
6
CONTINUOUS
10
3.6390894881889762
20
-4.3518151181102365
11
3.6371692519685039
21
-4.3546889370078743
0
LINE
8
BLACK
6
CONTINUOUS
10
3.6371692519685039
20
-4.3546889370078743
11
3.6342954330708661
21
-4.3566091732283461
0
LINE
8
BLACK
6
CONTINUOUS
10
3.6342954330708661
20
-4.3566091732283461
11
3.6309055118110236
21
-4.3572834645669287
0
LINE
8
BLACK
6
CONTINUOUS
10
3.6309055118110236
20
-4.3572834645669287
11
3.6131889763779528
21
-4.3572834645669287
0
LINE
8
BLACK
6
CONTINUOUS
10
3.6131889763779528
20
-4.3572834645669287
11
3.6097990551181103
21
-4.3566091732283461
0
LINE
8
BLACK
6
CONTINUOUS
10
3.6097990551181103
20
-4.3566091732283461
11
3.6069252362204725
21
-4.3546889370078743
0
LINE
8
BLACK
6
CONTINUOUS
10
3.6069252362204725
20
-4.3546889370078743
11
3.6050049999999998
21
-4.3518151181102365
0
LINE
8
BLACK
6
CONTINUOUS
10
3.6050049999999998
20
-4.3518151181102365
11
3.6043307086614171
21
-4.3484251968503935
0
LINE
8
BLACK
6
CONTINUOUS
10
3.6043307086614171
20
-4.3484251968503935
11
3.6043307086614171
21
-4.3287401574803148
0
LINE
8
BLACK
6
CONTINUOUS
10
3.6043307086614171
20
-4.3287401574803148
11
3.6050049999999998
21
-4.3253502362204728
0
LINE
8
BLACK
6
CONTINUOUS
10
3.6050049999999998
20
-4.3253502362204728
11
3.6069252362204725
21
-4.3224764173228349
0
LINE
8
BLACK
6
CONTINUOUS
10
3.6069252362204725
20
-4.3224764173228349
11
3.6097990551181103
21
-4.3205561811023623
0
LINE
8
BLACK
6
CONTINUOUS
10
3.6097990551181103
20
-4.3205561811023623
11
3.6131889763779528
21
-4.3198818897637796
0
LINE
8
BLACK
6
CONTINUOUS
10
3.6131889763779528
20
-4.3198818897637796
11
3.6309055118110236
21
-4.3198818897637796
0
LINE
8
BLACK
6
CONTINUOUS
10
3.6309055118110236
20
-4.3198818897637796
11
3.6342954330708661
21
-4.3205561811023623
0
LINE
8
BLACK
6
CONTINUOUS
10
4.3932324409448817
20
-4.2929183858267717
11
4.3961062598425196
21
-4.2948386220472443
0
LINE
8
BLACK
6
CONTINUOUS
10
4.3961062598425196
20
-4.2948386220472443
11
4.3980264960629922
21
-4.2977124409448821
0
LINE
8
BLACK
6
CONTINUOUS
10
4.3980264960629922
20
-4.2977124409448821
11
4.3987007874015749
21
-4.3011023622047242
0
LINE
8
BLACK
6
CONTINUOUS
10
4.3987007874015749
20
-4.3011023622047242
11
4.3987007874015749
21
-4.3188188976377955
0
LINE
8
BLACK
6
CONTINUOUS
10
4.3987007874015749
20
-4.3188188976377955
11
4.3980264960629922
21
-4.3222088188976375
0
LINE
8
BLACK
6
CONTINUOUS
10
4.3980264960629922
20
-4.3222088188976375
11
4.3961062598425196
21
-4.3250826377952754
0
LINE
8
BLACK
6
CONTINUOUS
10
4.3961062598425196
20
-4.3250826377952754
11
4.3932324409448817
21
-4.327002874015748
0
LINE
8
BLACK
6
CONTINUOUS
10
4.3932324409448817
20
-4.327002874015748
11
4.3898425196850397
21
-4.3276771653543307
0
LINE
8
BLACK
6
CONTINUOUS
10
4.3898425196850397
20
-4.3276771653543307
11
4.3701574803149601
21
-4.3276771653543307
0
LINE
8
BLACK
6
CONTINUOUS
10
4.3701574803149601
20
-4.3276771653543307
11
4.366767559055118
21
-4.327002874015748
0
LINE
8
BLACK
6
CONTINUOUS
10
4.366767559055118
20
-4.327002874015748
11
4.3638937401574802
21
-4.3250826377952754
0
LINE
8
BLACK
6
CONTINUOUS
10
4.3638937401574802
20
-4.3250826377952754
11
4.3619735039370076
21
-4.3222088188976375
0
LINE
8
BLACK
6
CONTINUOUS
10
4.3619735039370076
20
-4.3222088188976375
11
4.3612992125984249
21
-4.3188188976377955
0
LINE
8
BLACK
6
CONTINUOUS
10
4.3612992125984249
20
-4.3188188976377955
11
4.3612992125984249
21
-4.3011023622047242
0
LINE
8
BLACK
6
CONTINUOUS
10
4.3612992125984249
20
-4.3011023622047242
11
4.3619735039370076
21
-4.2977124409448821
0
LINE
8
BLACK
6
CONTINUOUS
10
4.3619735039370076
20
-4.2977124409448821
11
4.3638937401574802
21
-4.2948386220472443
0
LINE
8
BLACK
6
CONTINUOUS
10
4.3638937401574802
20
-4.2948386220472443
11
4.366767559055118
21
-4.2929183858267717
0
LINE
8
BLACK
6
CONTINUOUS
10
4.366767559055118
20
-4.2929183858267717
11
4.3701574803149601
21
-4.292244094488189
0
LINE
8
BLACK
6
CONTINUOUS
10
4.3701574803149601
20
-4.292244094488189
11
4.3898425196850397
21
-4.292244094488189
0
LINE
8
BLACK
6
CONTINUOUS
10
4.3898425196850397
20
-4.292244094488189
11
4.3932324409448817
21
-4.2929183858267717
0
LINE
8
BLACK
6
CONTINUOUS
10
4.3338400393700782
20
-4.2923710236220476
11
4.3363945275590554
21
-4.2940779133858271
0
LINE
8
BLACK
6
CONTINUOUS
10
4.3363945275590554
20
-4.2940779133858271
11
4.3381014173228349
21
-4.2966324015748034
0
LINE
8
BLACK
6
CONTINUOUS
10
4.3381014173228349
20
-4.2966324015748034
11
4.3387007874015744
21
-4.2996456692913387
0
LINE
8
BLACK
6
CONTINUOUS
10
4.3387007874015744
20
-4.2996456692913387
11
4.3387007874015744
21
-4.3153937007874017
0
LINE
8
BLACK
6
CONTINUOUS
10
4.3387007874015744
20
-4.3153937007874017
11
4.3381014173228349
21
-4.318406968503937
0
LINE
8
BLACK
6
CONTINUOUS
10
4.3381014173228349
20
-4.318406968503937
11
4.3363945275590554
21
-4.3209614566929133
0
LINE
8
BLACK
6
CONTINUOUS
10
4.3363945275590554
20
-4.3209614566929133
11
4.3338400393700782
21
-4.3226683464566928
0
LINE
8
BLACK
6
CONTINUOUS
10
4.3338400393700782
20
-4.3226683464566928
11
4.3308267716535429
21
-4.3232677165354332
0
LINE
8
BLACK
6
CONTINUOUS
10
4.3308267716535429
20
-4.3232677165354332
11
4.3091732283464568
21
-4.3232677165354332
0
LINE
8
BLACK
6
CONTINUOUS
10
4.3091732283464568
20
-4.3232677165354332
11
4.3061599606299215
21
-4.3226683464566928
0
LINE
8
BLACK
6
CONTINUOUS
10
4.3061599606299215
20
-4.3226683464566928
11
4.3036054724409452
21
-4.3209614566929133
0
LINE
8
BLACK
6
CONTINUOUS
10
4.3036054724409452
20
-4.3209614566929133
11
4.3018985826771656
21
-4.318406968503937
0
LINE
8
BLACK
6
CONTINUOUS
10
4.3018985826771656
20
-4.318406968503937
11
4.3012992125984253
21
-4.3153937007874017
0
LINE
8
BLACK
6
CONTINUOUS
10
4.3012992125984253
20
-4.3153937007874017
11
4.3012992125984253
21
-4.2996456692913387
0
LINE
8
BLACK
6
CONTINUOUS
10
4.3012992125984253
20
-4.2996456692913387
11
4.3018985826771656
21
-4.2966324015748034
0
LINE
8
BLACK
6
CONTINUOUS
10
4.3018985826771656
20
-4.2966324015748034
11
4.3036054724409452
21
-4.2940779133858271
0
LINE
8
BLACK
6
CONTINUOUS
10
4.3036054724409452
20
-4.2940779133858271
11
4.3061599606299215
21
-4.2923710236220476
0
LINE
8
BLACK
6
CONTINUOUS
10
4.3061599606299215
20
-4.2923710236220476
11
4.3091732283464568
21
-4.2917716535433073
0
LINE
8
BLACK
6
CONTINUOUS
10
4.3091732283464568
20
-4.2917716535433073
11
4.3308267716535429
21
-4.2917716535433073
0
LINE
8
BLACK
6
CONTINUOUS
10
4.3308267716535429
20
-4.2917716535433073
11
4.3338400393700782
21
-4.2923710236220476
0
LINE
8
BLACK
6
CONTINUOUS
10
3.8085080314960629
20
-4.2674065748031493
11
3.8113818503937007
21
-4.269326811023622
0
LINE
8
BLACK
6
CONTINUOUS
10
3.8113818503937007
20
-4.269326811023622
11
3.8133020866141734
21
-4.2722006299212598
0
LINE
8
BLACK
6
CONTINUOUS
10
3.8133020866141734
20
-4.2722006299212598
11
3.813976377952756
21
-4.2755905511811019
0
LINE
8
BLACK
6
CONTINUOUS
10
3.813976377952756
20
-4.2755905511811019
11
3.813976377952756
21
-4.2933070866141732
0
LINE
8
BLACK
6
CONTINUOUS
10
3.813976377952756
20
-4.2933070866141732
11
3.8133020866141734
21
-4.2966970078740161
0
LINE
8
BLACK
6
CONTINUOUS
10
3.8133020866141734
20
-4.2966970078740161
11
3.8113818503937007
21
-4.299570826771653
0
LINE
8
BLACK
6
CONTINUOUS
10
3.8113818503937007
20
-4.299570826771653
11
3.8085080314960629
21
-4.3014910629921257
0
LINE
8
BLACK
6
CONTINUOUS
10
3.8085080314960629
20
-4.3014910629921257
11
3.8051181102362204
21
-4.3021653543307083
0
LINE
8
BLACK
6
CONTINUOUS
10
3.8051181102362204
20
-4.3021653543307083
11
3.7854330708661417
21
-4.3021653543307083
0
LINE
8
BLACK
6
CONTINUOUS
10
3.7854330708661417
20
-4.3021653543307083
11
3.7820431496062992
21
-4.3014910629921257
0
LINE
8
BLACK
6
CONTINUOUS
10
3.7820431496062992
20
-4.3014910629921257
11
3.7791693307086613
21
-4.299570826771653
0
LINE
8
BLACK
6
CONTINUOUS
10
3.7791693307086613
20
-4.299570826771653
11
3.7772490944881887
21
-4.2966970078740161
0
LINE
8
BLACK
6
CONTINUOUS
10
3.7772490944881887
20
-4.2966970078740161
11
3.776574803149606
21
-4.2933070866141732
0
LINE
8
BLACK
6
CONTINUOUS
10
3.776574803149606
20
-4.2933070866141732
11
3.776574803149606
21
-4.2755905511811019
0
LINE
8
BLACK
6
CONTINUOUS
10
3.776574803149606
20
-4.2755905511811019
11
3.7772490944881887
21
-4.2722006299212598
0
LINE
8
BLACK
6
CONTINUOUS
10
3.7772490944881887
20
-4.2722006299212598
11
3.7791693307086613
21
-4.269326811023622
0
LINE
8
BLACK
6
CONTINUOUS
10
3.7791693307086613
20
-4.269326811023622
11
3.7820431496062992
21
-4.2674065748031493
0
LINE
8
BLACK
6
CONTINUOUS
10
3.7820431496062992
20
-4.2674065748031493
11
3.7854330708661417
21
-4.2667322834645667
0
LINE
8
BLACK
6
CONTINUOUS
10
3.7854330708661417
20
-4.2667322834645667
11
3.8051181102362204
21
-4.2667322834645667
0
LINE
8
BLACK
6
CONTINUOUS
10
3.8051181102362204
20
-4.2667322834645667
11
3.8085080314960629
21
-4.2674065748031493
0
LINE
8
BLACK
6
CONTINUOUS
10
3.8911851968503934
20
-4.2674065748031493
11
3.8940590157480313
21
-4.269326811023622
0
LINE
8
BLACK
6
CONTINUOUS
10
3.8940590157480313
20
-4.269326811023622
11
3.8959792519685039
21
-4.2722006299212598
0
LINE
8
BLACK
6
CONTINUOUS
10
3.8959792519685039
20
-4.2722006299212598
11
3.8966535433070866
21
-4.2755905511811019
0
LINE
8
BLACK
6
CONTINUOUS
10
3.8966535433070866
20
-4.2755905511811019
11
3.8966535433070866
21
-4.2933070866141732
0
LINE
8
BLACK
6
CONTINUOUS
10
3.8966535433070866
20
-4.2933070866141732
11
3.8959792519685039
21
-4.2966970078740161
0
LINE
8
BLACK
6
CONTINUOUS
10
3.8959792519685039
20
-4.2966970078740161
11
3.8940590157480313
21
-4.299570826771653
0
LINE
8
BLACK
6
CONTINUOUS
10
3.8940590157480313
20
-4.299570826771653
11
3.8911851968503934
21
-4.3014910629921257
0
LINE
8
BLACK
6
CONTINUOUS
10
3.8911851968503934
20
-4.3014910629921257
11
3.8877952755905509
21
-4.3021653543307083
0
LINE
8
BLACK
6
CONTINUOUS
10
3.8877952755905509
20
-4.3021653543307083
11
3.8681102362204722
21
-4.3021653543307083
0
LINE
8
BLACK
6
CONTINUOUS
10
3.8681102362204722
20
-4.3021653543307083
11
3.8647203149606297
21
-4.3014910629921257
0
LINE
8
BLACK
6
CONTINUOUS
10
3.8647203149606297
20
-4.3014910629921257
11
3.8618464960629919
21
-4.299570826771653
0
LINE
8
BLACK
6
CONTINUOUS
10
3.8618464960629919
20
-4.299570826771653
11
3.8599262598425197
21
-4.2966970078740161
0
LINE
8
BLACK
6
CONTINUOUS
10
3.8599262598425197
20
-4.2966970078740161
11
3.859251968503937
21
-4.2933070866141732
0
LINE
8
BLACK
6
CONTINUOUS
10
3.859251968503937
20
-4.2933070866141732
11
3.859251968503937
21
-4.2755905511811019
0
LINE
8
BLACK
6
CONTINUOUS
10
3.859251968503937
20
-4.2755905511811019
11
3.8599262598425197
21
-4.2722006299212598
0
LINE
8
BLACK
6
CONTINUOUS
10
3.8599262598425197
20
-4.2722006299212598
11
3.8618464960629919
21
-4.269326811023622
0
LINE
8
BLACK
6
CONTINUOUS
10
3.8618464960629919
20
-4.269326811023622
11
3.8647203149606297
21
-4.2674065748031493
0
LINE
8
BLACK
6
CONTINUOUS
10
3.8647203149606297
20
-4.2674065748031493
11
3.8681102362204722
21
-4.2667322834645667
0
LINE
8
BLACK
6
CONTINUOUS
10
3.8681102362204722
20
-4.2667322834645667
11
3.8877952755905509
21
-4.2667322834645667
0
LINE
8
BLACK
6
CONTINUOUS
10
3.8877952755905509
20
-4.2667322834645667
11
3.8911851968503934
21
-4.2674065748031493
0
LINE
8
BLACK
6
CONTINUOUS
10
3.5959096062992124
20
-4.2221309842519688
11
3.5987834251968502
21
-4.2240512204724405
0
LINE
8
BLACK
6
CONTINUOUS
10
3.5987834251968502
20
-4.2240512204724405
11
3.6007036614173229
21
-4.2269250393700784
0
LINE
8
BLACK
6
CONTINUOUS
10
3.6007036614173229
20
-4.2269250393700784
11
3.6013779527559056
21
-4.2303149606299213
0
LINE
8
BLACK
6
CONTINUOUS
10
3.6013779527559056
20
-4.2303149606299213
11
3.6013779527559056
21
-4.2480314960629917
0
LINE
8
BLACK
6
CONTINUOUS
10
3.6013779527559056
20
-4.2480314960629917
11
3.6007036614173229
21
-4.2514214173228346
0
LINE
8
BLACK
6
CONTINUOUS
10
3.6007036614173229
20
-4.2514214173228346
11
3.5987834251968502
21
-4.2542952362204725
0
LINE
8
BLACK
6
CONTINUOUS
10
3.5987834251968502
20
-4.2542952362204725
11
3.5959096062992124
21
-4.2562154724409451
0
LINE
8
BLACK
6
CONTINUOUS
10
3.5959096062992124
20
-4.2562154724409451
11
3.5925196850393699
21
-4.2568897637795278
0
LINE
8
BLACK
6
CONTINUOUS
10
3.5925196850393699
20
-4.2568897637795278
11
3.5728346456692912
21
-4.2568897637795278
0
LINE
8
BLACK
6
CONTINUOUS
10
3.5728346456692912
20
-4.2568897637795278
11
3.5694447244094487
21
-4.2562154724409451
0
LINE
8
BLACK
6
CONTINUOUS
10
3.5694447244094487
20
-4.2562154724409451
11
3.5665709055118109
21
-4.2542952362204725
0
LINE
8
BLACK
6
CONTINUOUS
10
3.5665709055118109
20
-4.2542952362204725
11
3.5646506692913387
21
-4.2514214173228346
0
LINE
8
BLACK
6
CONTINUOUS
10
3.5646506692913387
20
-4.2514214173228346
11
3.563976377952756
21
-4.2480314960629917
0
LINE
8
BLACK
6
CONTINUOUS
10
3.563976377952756
20
-4.2480314960629917
11
3.563976377952756
21
-4.2303149606299213
0
LINE
8
BLACK
6
CONTINUOUS
10
3.563976377952756
20
-4.2303149606299213
11
3.5646506692913387
21
-4.2269250393700784
0
LINE
8
BLACK
6
CONTINUOUS
10
3.5646506692913387
20
-4.2269250393700784
11
3.5665709055118109
21
-4.2240512204724405
0
LINE
8
BLACK
6
CONTINUOUS
10
3.5665709055118109
20
-4.2240512204724405
11
3.5694447244094487
21
-4.2221309842519688
0
LINE
8
BLACK
6
CONTINUOUS
10
3.5694447244094487
20
-4.2221309842519688
11
3.5728346456692912
21
-4.2214566929133861
0
LINE
8
BLACK
6
CONTINUOUS
10
3.5728346456692912
20
-4.2214566929133861
11
3.5925196850393699
21
-4.2214566929133861
0
LINE
8
BLACK
6
CONTINUOUS
10
3.5925196850393699
20
-4.2214566929133861
11
3.5959096062992124
21
-4.2221309842519688
0
LINE
8
BLACK
6
CONTINUOUS
10
3.6549647244094485
20
-4.2221309842519688
11
3.6578385433070864
21
-4.2240512204724405
0
LINE
8
BLACK
6
CONTINUOUS
10
3.6578385433070864
20
-4.2240512204724405
11
3.659758779527559
21
-4.2269250393700784
0
LINE
8
BLACK
6
CONTINUOUS
10
3.659758779527559
20
-4.2269250393700784
11
3.6604330708661417
21
-4.2303149606299213
0
LINE
8
BLACK
6
CONTINUOUS
10
3.6604330708661417
20
-4.2303149606299213
11
3.6604330708661417
21
-4.2480314960629917
0
LINE
8
BLACK
6
CONTINUOUS
10
3.6604330708661417
20
-4.2480314960629917
11
3.659758779527559
21
-4.2514214173228346
0
LINE
8
BLACK
6
CONTINUOUS
10
3.659758779527559
20
-4.2514214173228346
11
3.6578385433070864
21
-4.2542952362204725
0
LINE
8
BLACK
6
CONTINUOUS
10
3.6578385433070864
20
-4.2542952362204725
11
3.6549647244094485
21
-4.2562154724409451
0
LINE
8
BLACK
6
CONTINUOUS
10
3.6549647244094485
20
-4.2562154724409451
11
3.651574803149606
21
-4.2568897637795278
0
LINE
8
BLACK
6
CONTINUOUS
10
3.651574803149606
20
-4.2568897637795278
11
3.6318897637795273
21
-4.2568897637795278
0
LINE
8
BLACK
6
CONTINUOUS
10
3.6318897637795273
20
-4.2568897637795278
11
3.6284998425196848
21
-4.2562154724409451
0
LINE
8
BLACK
6
CONTINUOUS
10
3.6284998425196848
20
-4.2562154724409451
11
3.625626023622047
21
-4.2542952362204725
0
LINE
8
BLACK
6
CONTINUOUS
10
3.625626023622047
20
-4.2542952362204725
11
3.6237057874015748
21
-4.2514214173228346
0
LINE
8
BLACK
6
CONTINUOUS
10
3.6237057874015748
20
-4.2514214173228346
11
3.6230314960629921
21
-4.2480314960629917
0
LINE
8
BLACK
6
CONTINUOUS
10
3.6230314960629921
20
-4.2480314960629917
11
3.6230314960629921
21
-4.2303149606299213
0
LINE
8
BLACK
6
CONTINUOUS
10
3.6230314960629921
20
-4.2303149606299213
11
3.6237057874015748
21
-4.2269250393700784
0
LINE
8
BLACK
6
CONTINUOUS
10
3.6237057874015748
20
-4.2269250393700784
11
3.625626023622047
21
-4.2240512204724405
0
LINE
8
BLACK
6
CONTINUOUS
10
3.625626023622047
20
-4.2240512204724405
11
3.6284998425196848
21
-4.2221309842519688
0
LINE
8
BLACK
6
CONTINUOUS
10
3.6284998425196848
20
-4.2221309842519688
11
3.6318897637795273
21
-4.2214566929133861
0
LINE
8
BLACK
6
CONTINUOUS
10
3.6318897637795273
20
-4.2214566929133861
11
3.651574803149606
21
-4.2214566929133861
0
LINE
8
BLACK
6
CONTINUOUS
10
3.651574803149606
20
-4.2214566929133861
11
3.6549647244094485
21
-4.2221309842519688
0
LINE
8
BLACK
6
CONTINUOUS
10
3.5959096062992124
20
-4.1611073622047243
11
3.5987834251968502
21
-4.163027598425197
0
LINE
8
BLACK
6
CONTINUOUS
10
3.5987834251968502
20
-4.163027598425197
11
3.6007036614173229
21
-4.1659014173228348
0
LINE
8
BLACK
6
CONTINUOUS
10
3.6007036614173229
20
-4.1659014173228348
11
3.6013779527559056
21
-4.1692913385826769
0
LINE
8
BLACK
6
CONTINUOUS
10
3.6013779527559056
20
-4.1692913385826769
11
3.6013779527559056
21
-4.1870078740157481
0
LINE
8
BLACK
6
CONTINUOUS
10
3.6013779527559056
20
-4.1870078740157481
11
3.6007036614173229
21
-4.1903977952755902
0
LINE
8
BLACK
6
CONTINUOUS
10
3.6007036614173229
20
-4.1903977952755902
11
3.5987834251968502
21
-4.193271614173228
0
LINE
8
BLACK
6
CONTINUOUS
10
3.5987834251968502
20
-4.193271614173228
11
3.5959096062992124
21
-4.1951918503937007
0
LINE
8
BLACK
6
CONTINUOUS
10
3.5959096062992124
20
-4.1951918503937007
11
3.5925196850393699
21
-4.1958661417322833
0
LINE
8
BLACK
6
CONTINUOUS
10
3.5925196850393699
20
-4.1958661417322833
11
3.5728346456692912
21
-4.1958661417322833
0
LINE
8
BLACK
6
CONTINUOUS
10
3.5728346456692912
20
-4.1958661417322833
11
3.5694447244094487
21
-4.1951918503937007
0
LINE
8
BLACK
6
CONTINUOUS
10
3.5694447244094487
20
-4.1951918503937007
11
3.5665709055118109
21
-4.193271614173228
0
LINE
8
BLACK
6
CONTINUOUS
10
3.5665709055118109
20
-4.193271614173228
11
3.5646506692913387
21
-4.1903977952755902
0
LINE
8
BLACK
6
CONTINUOUS
10
3.5646506692913387
20
-4.1903977952755902
11
3.563976377952756
21
-4.1870078740157481
0
LINE
8
BLACK
6
CONTINUOUS
10
3.563976377952756
20
-4.1870078740157481
11
3.563976377952756
21
-4.1692913385826769
0
LINE
8
BLACK
6
CONTINUOUS
10
3.563976377952756
20
-4.1692913385826769
11
3.5646506692913387
21
-4.1659014173228348
0
LINE
8
BLACK
6
CONTINUOUS
10
3.5646506692913387
20
-4.1659014173228348
11
3.5665709055118109
21
-4.163027598425197
0
LINE
8
BLACK
6
CONTINUOUS
10
3.5665709055118109
20
-4.163027598425197
11
3.5694447244094487
21
-4.1611073622047243
0
LINE
8
BLACK
6
CONTINUOUS
10
3.5694447244094487
20
-4.1611073622047243
11
3.5728346456692912
21
-4.1604330708661417
0
LINE
8
BLACK
6
CONTINUOUS
10
3.5728346456692912
20
-4.1604330708661417
11
3.5925196850393699
21
-4.1604330708661417
0
LINE
8
BLACK
6
CONTINUOUS
10
3.5925196850393699
20
-4.1604330708661417
11
3.5959096062992124
21
-4.1611073622047243
0
LINE
8
BLACK
6
CONTINUOUS
10
3.6549647244094485
20
-4.1611073622047243
11
3.6578385433070864
21
-4.163027598425197
0
LINE
8
BLACK
6
CONTINUOUS
10
3.6578385433070864
20
-4.163027598425197
11
3.659758779527559
21
-4.1659014173228348
0
LINE
8
BLACK
6
CONTINUOUS
10
3.659758779527559
20
-4.1659014173228348
11
3.6604330708661417
21
-4.1692913385826769
0
LINE
8
BLACK
6
CONTINUOUS
10
3.6604330708661417
20
-4.1692913385826769
11
3.6604330708661417
21
-4.1870078740157481
0
LINE
8
BLACK
6
CONTINUOUS
10
3.6604330708661417
20
-4.1870078740157481
11
3.659758779527559
21
-4.1903977952755902
0
LINE
8
BLACK
6
CONTINUOUS
10
3.659758779527559
20
-4.1903977952755902
11
3.6578385433070864
21
-4.193271614173228
0
LINE
8
BLACK
6
CONTINUOUS
10
3.6578385433070864
20
-4.193271614173228
11
3.6549647244094485
21
-4.1951918503937007
0
LINE
8
BLACK
6
CONTINUOUS
10
3.6549647244094485
20
-4.1951918503937007
11
3.651574803149606
21
-4.1958661417322833
0
LINE
8
BLACK
6
CONTINUOUS
10
3.651574803149606
20
-4.1958661417322833
11
3.6318897637795273
21
-4.1958661417322833
0
LINE
8
BLACK
6
CONTINUOUS
10
3.6318897637795273
20
-4.1958661417322833
11
3.6284998425196848
21
-4.1951918503937007
0
LINE
8
BLACK
6
CONTINUOUS
10
3.6284998425196848
20
-4.1951918503937007
11
3.625626023622047
21
-4.193271614173228
0
LINE
8
BLACK
6
CONTINUOUS
10
3.625626023622047
20
-4.193271614173228
11
3.6237057874015748
21
-4.1903977952755902
0
LINE
8
BLACK
6
CONTINUOUS
10
3.6237057874015748
20
-4.1903977952755902
11
3.6230314960629921
21
-4.1870078740157481
0
LINE
8
BLACK
6
CONTINUOUS
10
3.6230314960629921
20
-4.1870078740157481
11
3.6230314960629921
21
-4.1692913385826769
0
LINE
8
BLACK
6
CONTINUOUS
10
3.6230314960629921
20
-4.1692913385826769
11
3.6237057874015748
21
-4.1659014173228348
0
LINE
8
BLACK
6
CONTINUOUS
10
3.6237057874015748
20
-4.1659014173228348
11
3.625626023622047
21
-4.163027598425197
0
LINE
8
BLACK
6
CONTINUOUS
10
3.625626023622047
20
-4.163027598425197
11
3.6284998425196848
21
-4.1611073622047243
0
LINE
8
BLACK
6
CONTINUOUS
10
3.6284998425196848
20
-4.1611073622047243
11
3.6318897637795273
21
-4.1604330708661417
0
LINE
8
BLACK
6
CONTINUOUS
10
3.6318897637795273
20
-4.1604330708661417
11
3.651574803149606
21
-4.1604330708661417
0
LINE
8
BLACK
6
CONTINUOUS
10
3.651574803149606
20
-4.1604330708661417
11
3.6549647244094485
21
-4.1611073622047243
0
LINE
8
BLACK
6
CONTINUOUS
10
3.4630831102362203
20
-4.0792657480314958
11
3.4662762598425196
21
-4.0813993307086616
0
LINE
8
BLACK
6
CONTINUOUS
10
3.4662762598425196
20
-4.0813993307086616
11
3.468409842519685
21
-4.0845924803149609
0
LINE
8
BLACK
6
CONTINUOUS
10
3.468409842519685
20
-4.0845924803149609
11
3.46915905511811
21
-4.0883590551181097
0
LINE
8
BLACK
6
CONTINUOUS
10
3.46915905511811
20
-4.0883590551181097
11
3.46915905511811
21
-4.1139496062992125
0
LINE
8
BLACK
6
CONTINUOUS
10
3.46915905511811
20
-4.1139496062992125
11
3.468409842519685
21
-4.1177161811023621
0
LINE
8
BLACK
6
CONTINUOUS
10
3.468409842519685
20
-4.1177161811023621
11
3.4662762598425196
21
-4.1209093307086615
0
LINE
8
BLACK
6
CONTINUOUS
10
3.4662762598425196
20
-4.1209093307086615
11
3.4630831102362203
21
-4.1230429133858264
0
LINE
8
BLACK
6
CONTINUOUS
10
3.4630831102362203
20
-4.1230429133858264
11
3.4593165354330706
21
-4.1237921259842523
0
LINE
8
BLACK
6
CONTINUOUS
10
3.4593165354330706
20
-4.1237921259842523
11
3.4238834645669289
21
-4.1237921259842523
0
LINE
8
BLACK
6
CONTINUOUS
10
3.4238834645669289
20
-4.1237921259842523
11
3.4201168897637793
21
-4.1230429133858264
0
LINE
8
BLACK
6
CONTINUOUS
10
3.4201168897637793
20
-4.1230429133858264
11
3.4169237401574803
21
-4.1209093307086615
0
LINE
8
BLACK
6
CONTINUOUS
10
3.4169237401574803
20
-4.1209093307086615
11
3.414790157480315
21
-4.1177161811023621
0
LINE
8
BLACK
6
CONTINUOUS
10
3.414790157480315
20
-4.1177161811023621
11
3.4140409448818896
21
-4.1139496062992125
0
LINE
8
BLACK
6
CONTINUOUS
10
3.4140409448818896
20
-4.1139496062992125
11
3.4140409448818896
21
-4.0883590551181097
0
LINE
8
BLACK
6
CONTINUOUS
10
3.4140409448818896
20
-4.0883590551181097
11
3.414790157480315
21
-4.0845924803149609
0
LINE
8
BLACK
6
CONTINUOUS
10
3.414790157480315
20
-4.0845924803149609
11
3.4169237401574803
21
-4.0813993307086616
0
LINE
8
BLACK
6
CONTINUOUS
10
3.4169237401574803
20
-4.0813993307086616
11
3.4201168897637793
21
-4.0792657480314958
0
LINE
8
BLACK
6
CONTINUOUS
10
3.4201168897637793
20
-4.0792657480314958
11
3.4238834645669289
21
-4.0785165354330708
0
LINE
8
BLACK
6
CONTINUOUS
10
3.4238834645669289
20
-4.0785165354330708
11
3.4593165354330706
21
-4.0785165354330708
0
LINE
8
BLACK
6
CONTINUOUS
10
3.4593165354330706
20
-4.0785165354330708
11
3.4630831102362203
21
-4.0792657480314958
0
LINE
8
BLACK
6
CONTINUOUS
10
3.4630831102362203
20
-3.9985570866141731
11
3.4662762598425196
21
-4.0006906692913384
0
LINE
8
BLACK
6
CONTINUOUS
10
3.4662762598425196
20
-4.0006906692913384
11
3.468409842519685
21
-4.0038838188976378
0
LINE
8
BLACK
6
CONTINUOUS
10
3.468409842519685
20
-4.0038838188976378
11
3.46915905511811
21
-4.0076503937007875
0
LINE
8
BLACK
6
CONTINUOUS
10
3.46915905511811
20
-4.0076503937007875
11
3.46915905511811
21
-4.0332409448818893
0
LINE
8
BLACK
6
CONTINUOUS
10
3.46915905511811
20
-4.0332409448818893
11
3.468409842519685
21
-4.037007519685039
0
LINE
8
BLACK
6
CONTINUOUS
10
3.468409842519685
20
-4.037007519685039
11
3.4662762598425196
21
-4.0402006692913384
0
LINE
8
BLACK
6
CONTINUOUS
10
3.4662762598425196
20
-4.0402006692913384
11
3.4630831102362203
21
-4.0423342519685042
0
LINE
8
BLACK
6
CONTINUOUS
10
3.4630831102362203
20
-4.0423342519685042
11
3.4593165354330706
21
-4.0430834645669291
0
LINE
8
BLACK
6
CONTINUOUS
10
3.4593165354330706
20
-4.0430834645669291
11
3.4238834645669289
21
-4.0430834645669291
0
LINE
8
BLACK
6
CONTINUOUS
10
3.4238834645669289
20
-4.0430834645669291
11
3.4201168897637793
21
-4.0423342519685042
0
LINE
8
BLACK
6
CONTINUOUS
10
3.4201168897637793
20
-4.0423342519685042
11
3.4169237401574803
21
-4.0402006692913384
0
LINE
8
BLACK
6
CONTINUOUS
10
3.4169237401574803
20
-4.0402006692913384
11
3.414790157480315
21
-4.037007519685039
0
LINE
8
BLACK
6
CONTINUOUS
10
3.414790157480315
20
-4.037007519685039
11
3.4140409448818896
21
-4.0332409448818893
0
LINE
8
BLACK
6
CONTINUOUS
10
3.4140409448818896
20
-4.0332409448818893
11
3.4140409448818896
21
-4.0076503937007875
0
LINE
8
BLACK
6
CONTINUOUS
10
3.4140409448818896
20
-4.0076503937007875
11
3.414790157480315
21
-4.0038838188976378
0
LINE
8
BLACK
6
CONTINUOUS
10
3.414790157480315
20
-4.0038838188976378
11
3.4169237401574803
21
-4.0006906692913384
0
LINE
8
BLACK
6
CONTINUOUS
10
3.4169237401574803
20
-4.0006906692913384
11
3.4201168897637793
21
-3.9985570866141731
0
LINE
8
BLACK
6
CONTINUOUS
10
3.4201168897637793
20
-3.9985570866141731
11
3.4238834645669289
21
-3.9978078740157481
0
LINE
8
BLACK
6
CONTINUOUS
10
3.4238834645669289
20
-3.9978078740157481
11
3.4593165354330706
21
-3.9978078740157481
0
LINE
8
BLACK
6
CONTINUOUS
10
3.4593165354330706
20
-3.9978078740157481
11
3.4630831102362203
21
-3.9985570866141731
0
LINE
8
BLACK
6
CONTINUOUS
10
3.4236655118110235
20
-3.9268553937007873
11
3.4265393307086613
21
-3.9287756299212599
0
LINE
8
BLACK
6
CONTINUOUS
10
3.4265393307086613
20
-3.9287756299212599
11
3.4284595669291336
21
-3.9316494488188973
0
LINE
8
BLACK
6
CONTINUOUS
10
3.4284595669291336
20
-3.9316494488188973
11
3.4291338582677167
21
-3.9350393700787403
0
LINE
8
BLACK
6
CONTINUOUS
10
3.4291338582677167
20
-3.9350393700787403
11
3.4291338582677167
21
-3.954724409448819
0
LINE
8
BLACK
6
CONTINUOUS
10
3.4291338582677167
20
-3.954724409448819
11
3.4284595669291336
21
-3.9581143307086615
0
LINE
8
BLACK
6
CONTINUOUS
10
3.4284595669291336
20
-3.9581143307086615
11
3.4265393307086613
21
-3.9609881496062993
0
LINE
8
BLACK
6
CONTINUOUS
10
3.4265393307086613
20
-3.9609881496062993
11
3.4236655118110235
21
-3.9629083858267715
0
LINE
8
BLACK
6
CONTINUOUS
10
3.4236655118110235
20
-3.9629083858267715
11
3.420275590551181
21
-3.9635826771653542
0
LINE
8
BLACK
6
CONTINUOUS
10
3.420275590551181
20
-3.9635826771653542
11
3.4025590551181102
21
-3.9635826771653542
0
LINE
8
BLACK
6
CONTINUOUS
10
3.4025590551181102
20
-3.9635826771653542
11
3.3991691338582677
21
-3.9629083858267715
0
LINE
8
BLACK
6
CONTINUOUS
10
3.3991691338582677
20
-3.9629083858267715
11
3.3962953149606299
21
-3.9609881496062993
0
LINE
8
BLACK
6
CONTINUOUS
10
3.3962953149606299
20
-3.9609881496062993
11
3.3943750787401572
21
-3.9581143307086615
0
LINE
8
BLACK
6
CONTINUOUS
10
3.3943750787401572
20
-3.9581143307086615
11
3.3937007874015745
21
-3.954724409448819
0
LINE
8
BLACK
6
CONTINUOUS
10
3.3937007874015745
20
-3.954724409448819
11
3.3937007874015745
21
-3.9350393700787403
0
LINE
8
BLACK
6
CONTINUOUS
10
3.3937007874015745
20
-3.9350393700787403
11
3.3943750787401572
21
-3.9316494488188973
0
LINE
8
BLACK
6
CONTINUOUS
10
3.3943750787401572
20
-3.9316494488188973
11
3.3962953149606299
21
-3.9287756299212599
0
LINE
8
BLACK
6
CONTINUOUS
10
3.3962953149606299
20
-3.9287756299212599
11
3.3991691338582677
21
-3.9268553937007873
0
LINE
8
BLACK
6
CONTINUOUS
10
3.3991691338582677
20
-3.9268553937007873
11
3.4025590551181102
21
-3.9261811023622046
0
LINE
8
BLACK
6
CONTINUOUS
10
3.4025590551181102
20
-3.9261811023622046
11
3.420275590551181
21
-3.9261811023622046
0
LINE
8
BLACK
6
CONTINUOUS
10
3.420275590551181
20
-3.9261811023622046
11
3.4236655118110235
21
-3.9268553937007873
0
LINE
8
BLACK
6
CONTINUOUS
10
3.4846891338582675
20
-3.9268553937007873
11
3.4875629527559053
21
-3.9287756299212599
0
LINE
8
BLACK
6
CONTINUOUS
10
3.4875629527559053
20
-3.9287756299212599
11
3.489483188976378
21
-3.9316494488188973
0
LINE
8
BLACK
6
CONTINUOUS
10
3.489483188976378
20
-3.9316494488188973
11
3.4901574803149606
21
-3.9350393700787403
0
LINE
8
BLACK
6
CONTINUOUS
10
3.4901574803149606
20
-3.9350393700787403
11
3.4901574803149606
21
-3.954724409448819
0
LINE
8
BLACK
6
CONTINUOUS
10
3.4901574803149606
20
-3.954724409448819
11
3.489483188976378
21
-3.9581143307086615
0
LINE
8
BLACK
6
CONTINUOUS
10
3.489483188976378
20
-3.9581143307086615
11
3.4875629527559053
21
-3.9609881496062993
0
LINE
8
BLACK
6
CONTINUOUS
10
3.4875629527559053
20
-3.9609881496062993
11
3.4846891338582675
21
-3.9629083858267715
0
LINE
8
BLACK
6
CONTINUOUS
10
3.4846891338582675
20
-3.9629083858267715
11
3.481299212598425
21
-3.9635826771653542
0
LINE
8
BLACK
6
CONTINUOUS
10
3.481299212598425
20
-3.9635826771653542
11
3.4635826771653542
21
-3.9635826771653542
0
LINE
8
BLACK
6
CONTINUOUS
10
3.4635826771653542
20
-3.9635826771653542
11
3.4601927559055117
21
-3.9629083858267715
0
LINE
8
BLACK
6
CONTINUOUS
10
3.4601927559055117
20
-3.9629083858267715
11
3.4573189370078738
21
-3.9609881496062993
0
LINE
8
BLACK
6
CONTINUOUS
10
3.4573189370078738
20
-3.9609881496062993
11
3.4553987007874016
21
-3.9581143307086615
0
LINE
8
BLACK
6
CONTINUOUS
10
3.4553987007874016
20
-3.9581143307086615
11
3.454724409448819
21
-3.954724409448819
0
LINE
8
BLACK
6
CONTINUOUS
10
3.454724409448819
20
-3.954724409448819
11
3.454724409448819
21
-3.9350393700787403
0
LINE
8
BLACK
6
CONTINUOUS
10
3.454724409448819
20
-3.9350393700787403
11
3.4553987007874016
21
-3.9316494488188973
0
LINE
8
BLACK
6
CONTINUOUS
10
3.4553987007874016
20
-3.9316494488188973
11
3.4573189370078738
21
-3.9287756299212599
0
LINE
8
BLACK
6
CONTINUOUS
10
3.4573189370078738
20
-3.9287756299212599
11
3.4601927559055117
21
-3.9268553937007873
0
LINE
8
BLACK
6
CONTINUOUS
10
3.4601927559055117
20
-3.9268553937007873
11
3.4635826771653542
21
-3.9261811023622046
0
LINE
8
BLACK
6
CONTINUOUS
10
3.4635826771653542
20
-3.9261811023622046
11
3.481299212598425
21
-3.9261811023622046
0
LINE
8
BLACK
6
CONTINUOUS
10
3.481299212598425
20
-3.9261811023622046
11
3.4846891338582675
21
-3.9268553937007873
0
LINE
8
BLACK
6
CONTINUOUS
10
3.5486655118110235
20
-3.8097294094488188
11
3.5515393307086613
21
-3.8116496456692914
0
LINE
8
BLACK
6
CONTINUOUS
10
3.5515393307086613
20
-3.8116496456692914
11
3.5534595669291336
21
-3.8145234645669293
0
LINE
8
BLACK
6
CONTINUOUS
10
3.5534595669291336
20
-3.8145234645669293
11
3.5541338582677167
21
-3.8179133858267718
0
LINE
8
BLACK
6
CONTINUOUS
10
3.5541338582677167
20
-3.8179133858267718
11
3.5541338582677167
21
-3.8356299212598426
0
LINE
8
BLACK
6
CONTINUOUS
10
3.5541338582677167
20
-3.8356299212598426
11
3.5534595669291336
21
-3.8390198425196851
0
LINE
8
BLACK
6
CONTINUOUS
10
3.5534595669291336
20
-3.8390198425196851
11
3.5515393307086613
21
-3.8418936614173229
0
LINE
8
BLACK
6
CONTINUOUS
10
3.5515393307086613
20
-3.8418936614173229
11
3.5486655118110235
21
-3.8438138976377951
0
LINE
8
BLACK
6
CONTINUOUS
10
3.5486655118110235
20
-3.8438138976377951
11
3.545275590551181
21
-3.8444881889763778
0
LINE
8
BLACK
6
CONTINUOUS
10
3.545275590551181
20
-3.8444881889763778
11
3.5255905511811023
21
-3.8444881889763778
0
LINE
8
BLACK
6
CONTINUOUS
10
3.5255905511811023
20
-3.8444881889763778
11
3.5222006299212598
21
-3.8438138976377951
0
LINE
8
BLACK
6
CONTINUOUS
10
3.5222006299212598
20
-3.8438138976377951
11
3.519326811023622
21
-3.8418936614173229
0
LINE
8
BLACK
6
CONTINUOUS
10
3.519326811023622
20
-3.8418936614173229
11
3.5174065748031493
21
-3.8390198425196851
0
LINE
8
BLACK
6
CONTINUOUS
10
3.5174065748031493
20
-3.8390198425196851
11
3.5167322834645667
21
-3.8356299212598426
0
LINE
8
BLACK
6
CONTINUOUS
10
3.5167322834645667
20
-3.8356299212598426
11
3.5167322834645667
21
-3.8179133858267718
0
LINE
8
BLACK
6
CONTINUOUS
10
3.5167322834645667
20
-3.8179133858267718
11
3.5174065748031493
21
-3.8145234645669293
0
LINE
8
BLACK
6
CONTINUOUS
10
3.5174065748031493
20
-3.8145234645669293
11
3.519326811023622
21
-3.8116496456692914
0
LINE
8
BLACK
6
CONTINUOUS
10
3.519326811023622
20
-3.8116496456692914
11
3.5222006299212598
21
-3.8097294094488188
0
LINE
8
BLACK
6
CONTINUOUS
10
3.5222006299212598
20
-3.8097294094488188
11
3.5255905511811023
21
-3.8090551181102361
0
LINE
8
BLACK
6
CONTINUOUS
10
3.5255905511811023
20
-3.8090551181102361
11
3.545275590551181
21
-3.8090551181102361
0
LINE
8
BLACK
6
CONTINUOUS
10
3.545275590551181
20
-3.8090551181102361
11
3.5486655118110235
21
-3.8097294094488188
0
LINE
8
BLACK
6
CONTINUOUS
10
3.6122652362204724
20
-3.7563316535433069
11
3.6148197244094487
21
-3.7580385433070864
0
LINE
8
BLACK
6
CONTINUOUS
10
3.6148197244094487
20
-3.7580385433070864
11
3.6165266141732282
21
-3.7605930314960627
0
LINE
8
BLACK
6
CONTINUOUS
10
3.6165266141732282
20
-3.7605930314960627
11
3.6171259842519685
21
-3.7636062992125985
0
LINE
8
BLACK
6
CONTINUOUS
10
3.6171259842519685
20
-3.7636062992125985
11
3.6171259842519685
21
-3.7793543307086614
0
LINE
8
BLACK
6
CONTINUOUS
10
3.6171259842519685
20
-3.7793543307086614
11
3.6165266141732282
21
-3.7823675984251968
0
LINE
8
BLACK
6
CONTINUOUS
10
3.6165266141732282
20
-3.7823675984251968
11
3.6148197244094487
21
-3.7849220866141731
0
LINE
8
BLACK
6
CONTINUOUS
10
3.6148197244094487
20
-3.7849220866141731
11
3.6122652362204724
21
-3.7866289763779526
0
LINE
8
BLACK
6
CONTINUOUS
10
3.6122652362204724
20
-3.7866289763779526
11
3.609251968503937
21
-3.7872283464566929
0
LINE
8
BLACK
6
CONTINUOUS
10
3.609251968503937
20
-3.7872283464566929
11
3.5875984251968505
21
-3.7872283464566929
0
LINE
8
BLACK
6
CONTINUOUS
10
3.5875984251968505
20
-3.7872283464566929
11
3.5845851574803147
21
-3.7866289763779526
0
LINE
8
BLACK
6
CONTINUOUS
10
3.5845851574803147
20
-3.7866289763779526
11
3.5820306692913384
21
-3.7849220866141731
0
LINE
8
BLACK
6
CONTINUOUS
10
3.5820306692913384
20
-3.7849220866141731
11
3.5803237795275589
21
-3.7823675984251968
0
LINE
8
BLACK
6
CONTINUOUS
10
3.5803237795275589
20
-3.7823675984251968
11
3.579724409448819
21
-3.7793543307086614
0
LINE
8
BLACK
6
CONTINUOUS
10
3.579724409448819
20
-3.7793543307086614
11
3.579724409448819
21
-3.7636062992125985
0
LINE
8
BLACK
6
CONTINUOUS
10
3.579724409448819
20
-3.7636062992125985
11
3.5803237795275589
21
-3.7605930314960627
0
LINE
8
BLACK
6
CONTINUOUS
10
3.5803237795275589
20
-3.7605930314960627
11
3.5820306692913384
21
-3.7580385433070864
0
LINE
8
BLACK
6
CONTINUOUS
10
3.5820306692913384
20
-3.7580385433070864
11
3.5845851574803147
21
-3.7563316535433069
0
LINE
8
BLACK
6
CONTINUOUS
10
3.5845851574803147
20
-3.7563316535433069
11
3.5875984251968505
21
-3.755732283464567
0
LINE
8
BLACK
6
CONTINUOUS
10
3.5875984251968505
20
-3.755732283464567
11
3.609251968503937
21
-3.755732283464567
0
LINE
8
BLACK
6
CONTINUOUS
10
3.609251968503937
20
-3.755732283464567
11
3.6122652362204724
21
-3.7563316535433069
0
LINE
8
BLACK
6
CONTINUOUS
10
3.67919437007874
20
-3.7563316535433069
11
3.6817488582677163
21
-3.7580385433070864
0
LINE
8
BLACK
6
CONTINUOUS
10
3.6817488582677163
20
-3.7580385433070864
11
3.6834557480314958
21
-3.7605930314960627
0
LINE
8
BLACK
6
CONTINUOUS
10
3.6834557480314958
20
-3.7605930314960627
11
3.6840551181102361
21
-3.7636062992125985
0
LINE
8
BLACK
6
CONTINUOUS
10
3.6840551181102361
20
-3.7636062992125985
11
3.6840551181102361
21
-3.7793543307086614
0
LINE
8
BLACK
6
CONTINUOUS
10
3.6840551181102361
20
-3.7793543307086614
11
3.6834557480314958
21
-3.7823675984251968
0
LINE
8
BLACK
6
CONTINUOUS
10
3.6834557480314958
20
-3.7823675984251968
11
3.6817488582677163
21
-3.7849220866141731
0
LINE
8
BLACK
6
CONTINUOUS
10
3.6817488582677163
20
-3.7849220866141731
11
3.67919437007874
21
-3.7866289763779526
0
LINE
8
BLACK
6
CONTINUOUS
10
3.67919437007874
20
-3.7866289763779526
11
3.6761811023622046
21
-3.7872283464566929
0
LINE
8
BLACK
6
CONTINUOUS
10
3.6761811023622046
20
-3.7872283464566929
11
3.6545275590551181
21
-3.7872283464566929
0
LINE
8
BLACK
6
CONTINUOUS
10
3.6545275590551181
20
-3.7872283464566929
11
3.6515142913385827
21
-3.7866289763779526
0
LINE
8
BLACK
6
CONTINUOUS
10
3.6515142913385827
20
-3.7866289763779526
11
3.648959803149606
21
-3.7849220866141731
0
LINE
8
BLACK
6
CONTINUOUS
10
3.648959803149606
20
-3.7849220866141731
11
3.6472529133858265
21
-3.7823675984251968
0
LINE
8
BLACK
6
CONTINUOUS
10
3.6472529133858265
20
-3.7823675984251968
11
3.6466535433070866
21
-3.7793543307086614
0
LINE
8
BLACK
6
CONTINUOUS
10
3.6466535433070866
20
-3.7793543307086614
11
3.6466535433070866
21
-3.7636062992125985
0
LINE
8
BLACK
6
CONTINUOUS
10
3.6466535433070866
20
-3.7636062992125985
11
3.6472529133858265
21
-3.7605930314960627
0
LINE
8
BLACK
6
CONTINUOUS
10
3.6472529133858265
20
-3.7605930314960627
11
3.648959803149606
21
-3.7580385433070864
0
LINE
8
BLACK
6
CONTINUOUS
10
3.648959803149606
20
-3.7580385433070864
11
3.6515142913385827
21
-3.7563316535433069
0
LINE
8
BLACK
6
CONTINUOUS
10
3.6515142913385827
20
-3.7563316535433069
11
3.6545275590551181
21
-3.755732283464567
0
LINE
8
BLACK
6
CONTINUOUS
10
3.6545275590551181
20
-3.755732283464567
11
3.6761811023622046
21
-3.755732283464567
0
LINE
8
BLACK
6
CONTINUOUS
10
3.6761811023622046
20
-3.755732283464567
11
3.67919437007874
21
-3.7563316535433069
0
LINE
8
BLACK
6
CONTINUOUS
10
3.7539975196850395
20
-3.7562592125984251
11
3.7565520078740158
21
-3.7579661023622046
0
LINE
8
BLACK
6
CONTINUOUS
10
3.7565520078740158
20
-3.7579661023622046
11
3.7582588976377953
21
-3.7605205905511809
0
LINE
8
BLACK
6
CONTINUOUS
10
3.7582588976377953
20
-3.7605205905511809
11
3.7588582677165352
21
-3.7635338582677162
0
LINE
8
BLACK
6
CONTINUOUS
10
3.7588582677165352
20
-3.7635338582677162
11
3.7588582677165352
21
-3.7792818897637797
0
LINE
8
BLACK
6
CONTINUOUS
10
3.7588582677165352
20
-3.7792818897637797
11
3.7582588976377953
21
-3.782295157480315
0
LINE
8
BLACK
6
CONTINUOUS
10
3.7582588976377953
20
-3.782295157480315
11
3.7565520078740158
21
-3.7848496456692913
0
LINE
8
BLACK
6
CONTINUOUS
10
3.7565520078740158
20
-3.7848496456692913
11
3.7539975196850395
21
-3.7865565354330708
0
LINE
8
BLACK
6
CONTINUOUS
10
3.7539975196850395
20
-3.7865565354330708
11
3.7509842519685037
21
-3.7871559055118111
0
LINE
8
BLACK
6
CONTINUOUS
10
3.7509842519685037
20
-3.7871559055118111
11
3.7293307086614171
21
-3.7871559055118111
0
LINE
8
BLACK
6
CONTINUOUS
10
3.7293307086614171
20
-3.7871559055118111
11
3.7263174409448818
21
-3.7865565354330708
0
LINE
8
BLACK
6
CONTINUOUS
10
3.7263174409448818
20
-3.7865565354330708
11
3.7237629527559055
21
-3.7848496456692913
0
LINE
8
BLACK
6
CONTINUOUS
10
3.7237629527559055
20
-3.7848496456692913
11
3.722056062992126
21
-3.782295157480315
0
LINE
8
BLACK
6
CONTINUOUS
10
3.722056062992126
20
-3.782295157480315
11
3.7214566929133857
21
-3.7792818897637797
0
LINE
8
BLACK
6
CONTINUOUS
10
3.7214566929133857
20
-3.7792818897637797
11
3.7214566929133857
21
-3.7635338582677162
0
LINE
8
BLACK
6
CONTINUOUS
10
3.7214566929133857
20
-3.7635338582677162
11
3.722056062992126
21
-3.7605205905511809
0
LINE
8
BLACK
6
CONTINUOUS
10
3.722056062992126
20
-3.7605205905511809
11
3.7237629527559055
21
-3.7579661023622046
0
LINE
8
BLACK
6
CONTINUOUS
10
3.7237629527559055
20
-3.7579661023622046
11
3.7263174409448818
21
-3.7562592125984251
0
LINE
8
BLACK
6
CONTINUOUS
10
3.7263174409448818
20
-3.7562592125984251
11
3.7293307086614171
21
-3.7556598425196848
0
LINE
8
BLACK
6
CONTINUOUS
10
3.7293307086614171
20
-3.7556598425196848
11
3.7509842519685037
21
-3.7556598425196848
0
LINE
8
BLACK
6
CONTINUOUS
10
3.7509842519685037
20
-3.7556598425196848
11
3.7539975196850395
21
-3.7562592125984251
0
LINE
8
BLACK
6
CONTINUOUS
10
3.5486655118110235
20
-3.7487057874015748
11
3.5515393307086613
21
-3.750626023622047
0
LINE
8
BLACK
6
CONTINUOUS
10
3.5515393307086613
20
-3.750626023622047
11
3.5534595669291336
21
-3.7534998425196848
0
LINE
8
BLACK
6
CONTINUOUS
10
3.5534595669291336
20
-3.7534998425196848
11
3.5541338582677167
21
-3.7568897637795273
0
LINE
8
BLACK
6
CONTINUOUS
10
3.5541338582677167
20
-3.7568897637795273
11
3.5541338582677167
21
-3.7746062992125982
0
LINE
8
BLACK
6
CONTINUOUS
10
3.5541338582677167
20
-3.7746062992125982
11
3.5534595669291336
21
-3.7779962204724407
0
LINE
8
BLACK
6
CONTINUOUS
10
3.5534595669291336
20
-3.7779962204724407
11
3.5515393307086613
21
-3.7808700393700785
0
LINE
8
BLACK
6
CONTINUOUS
10
3.5515393307086613
20
-3.7808700393700785
11
3.5486655118110235
21
-3.7827902755905511
0
LINE
8
BLACK
6
CONTINUOUS
10
3.5486655118110235
20
-3.7827902755905511
11
3.545275590551181
21
-3.7834645669291338
0
LINE
8
BLACK
6
CONTINUOUS
10
3.545275590551181
20
-3.7834645669291338
11
3.5255905511811023
21
-3.7834645669291338
0
LINE
8
BLACK
6
CONTINUOUS
10
3.5255905511811023
20
-3.7834645669291338
11
3.5222006299212598
21
-3.7827902755905511
0
LINE
8
BLACK
6
CONTINUOUS
10
3.5222006299212598
20
-3.7827902755905511
11
3.519326811023622
21
-3.7808700393700785
0
LINE
8
BLACK
6
CONTINUOUS
10
3.519326811023622
20
-3.7808700393700785
11
3.5174065748031493
21
-3.7779962204724407
0
LINE
8
BLACK
6
CONTINUOUS
10
3.5174065748031493
20
-3.7779962204724407
11
3.5167322834645667
21
-3.7746062992125982
0
LINE
8
BLACK
6
CONTINUOUS
10
3.5167322834645667
20
-3.7746062992125982
11
3.5167322834645667
21
-3.7568897637795273
0
LINE
8
BLACK
6
CONTINUOUS
10
3.5167322834645667
20
-3.7568897637795273
11
3.5174065748031493
21
-3.7534998425196848
0
LINE
8
BLACK
6
CONTINUOUS
10
3.5174065748031493
20
-3.7534998425196848
11
3.519326811023622
21
-3.750626023622047
0
LINE
8
BLACK
6
CONTINUOUS
10
3.519326811023622
20
-3.750626023622047
11
3.5222006299212598
21
-3.7487057874015748
0
LINE
8
BLACK
6
CONTINUOUS
10
3.5222006299212598
20
-3.7487057874015748
11
3.5255905511811023
21
-3.7480314960629921
0
LINE
8
BLACK
6
CONTINUOUS
10
3.5255905511811023
20
-3.7480314960629921
11
3.545275590551181
21
-3.7480314960629921
0
LINE
8
BLACK
6
CONTINUOUS
10
3.545275590551181
20
-3.7480314960629921
11
3.5486655118110235
21
-3.7487057874015748
0
LINE
8
BLACK
6
CONTINUOUS
10
3.5490421653543307
20
-3.6828358267716537
11
3.5522353149606301
21
-3.684969409448819
0
LINE
8
BLACK
6
CONTINUOUS
10
3.5522353149606301
20
-3.684969409448819
11
3.5543688976377954
21
-3.6881625590551179
0
LINE
8
BLACK
6
CONTINUOUS
10
3.5543688976377954
20
-3.6881625590551179
11
3.5551181102362204
21
-3.6919291338582676
0
LINE
8
BLACK
6
CONTINUOUS
10
3.5551181102362204
20
-3.6919291338582676
11
3.5551181102362204
21
-3.7175196850393699
0
LINE
8
BLACK
6
CONTINUOUS
10
3.5551181102362204
20
-3.7175196850393699
11
3.5543688976377954
21
-3.7212862598425196
0
LINE
8
BLACK
6
CONTINUOUS
10
3.5543688976377954
20
-3.7212862598425196
11
3.5522353149606301
21
-3.7244794094488189
0
LINE
8
BLACK
6
CONTINUOUS
10
3.5522353149606301
20
-3.7244794094488189
11
3.5490421653543307
21
-3.7266129921259843
0
LINE
8
BLACK
6
CONTINUOUS
10
3.5490421653543307
20
-3.7266129921259843
11
3.545275590551181
21
-3.7273622047244093
0
LINE
8
BLACK
6
CONTINUOUS
10
3.545275590551181
20
-3.7273622047244093
11
3.5098425196850394
21
-3.7273622047244093
0
LINE
8
BLACK
6
CONTINUOUS
10
3.5098425196850394
20
-3.7273622047244093
11
3.5060759448818897
21
-3.7266129921259843
0
LINE
8
BLACK
6
CONTINUOUS
10
3.5060759448818897
20
-3.7266129921259843
11
3.5028827952755903
21
-3.7244794094488189
0
LINE
8
BLACK
6
CONTINUOUS
10
3.5028827952755903
20
-3.7244794094488189
11
3.500749212598425
21
-3.7212862598425196
0
LINE
8
BLACK
6
CONTINUOUS
10
3.500749212598425
20
-3.7212862598425196
11
3.5
21
-3.7175196850393699
0
LINE
8
BLACK
6
CONTINUOUS
10
3.5
20
-3.7175196850393699
11
3.5
21
-3.6919291338582676
0
LINE
8
BLACK
6
CONTINUOUS
10
3.5
20
-3.6919291338582676
11
3.500749212598425
21
-3.6881625590551179
0
LINE
8
BLACK
6
CONTINUOUS
10
3.500749212598425
20
-3.6881625590551179
11
3.5028827952755903
21
-3.684969409448819
0
LINE
8
BLACK
6
CONTINUOUS
10
3.5028827952755903
20
-3.684969409448819
11
3.5060759448818897
21
-3.6828358267716537
0
LINE
8
BLACK
6
CONTINUOUS
10
3.5060759448818897
20
-3.6828358267716537
11
3.5098425196850394
21
-3.6820866141732282
0
LINE
8
BLACK
6
CONTINUOUS
10
3.5098425196850394
20
-3.6820866141732282
11
3.545275590551181
21
-3.6820866141732282
0
LINE
8
BLACK
6
CONTINUOUS
10
3.545275590551181
20
-3.6820866141732282
11
3.5490421653543307
21
-3.6828358267716537
0
LINE
8
BLACK
6
CONTINUOUS
10
3.6122652362204724
20
-3.6913710236220472
11
3.6148197244094487
21
-3.6930779133858267
0
LINE
8
BLACK
6
CONTINUOUS
10
3.6148197244094487
20
-3.6930779133858267
11
3.6165266141732282
21
-3.695632401574803
0
LINE
8
BLACK
6
CONTINUOUS
10
3.6165266141732282
20
-3.695632401574803
11
3.6171259842519685
21
-3.6986456692913383
0
LINE
8
BLACK
6
CONTINUOUS
10
3.6171259842519685
20
-3.6986456692913383
11
3.6171259842519685
21
-3.7143937007874013
0
LINE
8
BLACK
6
CONTINUOUS
10
3.6171259842519685
20
-3.7143937007874013
11
3.6165266141732282
21
-3.717406968503937
0
LINE
8
BLACK
6
CONTINUOUS
10
3.6165266141732282
20
-3.717406968503937
11
3.6148197244094487
21
-3.7199614566929133
0
LINE
8
BLACK
6
CONTINUOUS
10
3.6148197244094487
20
-3.7199614566929133
11
3.6122652362204724
21
-3.7216683464566929
0
LINE
8
BLACK
6
CONTINUOUS
10
3.6122652362204724
20
-3.7216683464566929
11
3.609251968503937
21
-3.7222677165354332
0
LINE
8
BLACK
6
CONTINUOUS
10
3.609251968503937
20
-3.7222677165354332
11
3.5875984251968505
21
-3.7222677165354332
0
LINE
8
BLACK
6
CONTINUOUS
10
3.5875984251968505
20
-3.7222677165354332
11
3.5845851574803147
21
-3.7216683464566929
0
LINE
8
BLACK
6
CONTINUOUS
10
3.5845851574803147
20
-3.7216683464566929
11
3.5820306692913384
21
-3.7199614566929133
0
LINE
8
BLACK
6
CONTINUOUS
10
3.5820306692913384
20
-3.7199614566929133
11
3.5803237795275589
21
-3.717406968503937
0
LINE
8
BLACK
6
CONTINUOUS
10
3.5803237795275589
20
-3.717406968503937
11
3.579724409448819
21
-3.7143937007874013
0
LINE
8
BLACK
6
CONTINUOUS
10
3.579724409448819
20
-3.7143937007874013
11
3.579724409448819
21
-3.6986456692913383
0
LINE
8
BLACK
6
CONTINUOUS
10
3.579724409448819
20
-3.6986456692913383
11
3.5803237795275589
21
-3.695632401574803
0
LINE
8
BLACK
6
CONTINUOUS
10
3.5803237795275589
20
-3.695632401574803
11
3.5820306692913384
21
-3.6930779133858267
0
LINE
8
BLACK
6
CONTINUOUS
10
3.5820306692913384
20
-3.6930779133858267
11
3.5845851574803147
21
-3.6913710236220472
0
LINE
8
BLACK
6
CONTINUOUS
10
3.5845851574803147
20
-3.6913710236220472
11
3.5875984251968505
21
-3.6907716535433068
0
LINE
8
BLACK
6
CONTINUOUS
10
3.5875984251968505
20
-3.6907716535433068
11
3.609251968503937
21
-3.6907716535433068
0
LINE
8
BLACK
6
CONTINUOUS
10
3.609251968503937
20
-3.6907716535433068
11
3.6122652362204724
21
-3.6913710236220472
0
LINE
8
BLACK
6
CONTINUOUS
10
3.67919437007874
20
-3.6913710236220472
11
3.6817488582677163
21
-3.6930779133858267
0
LINE
8
BLACK
6
CONTINUOUS
10
3.6817488582677163
20
-3.6930779133858267
11
3.6834557480314958
21
-3.695632401574803
0
LINE
8
BLACK
6
CONTINUOUS
10
3.6834557480314958
20
-3.695632401574803
11
3.6840551181102361
21
-3.6986456692913383
0
LINE
8
BLACK
6
CONTINUOUS
10
3.6840551181102361
20
-3.6986456692913383
11
3.6840551181102361
21
-3.7143937007874013
0
LINE
8
BLACK
6
CONTINUOUS
10
3.6840551181102361
20
-3.7143937007874013
11
3.6834557480314958
21
-3.717406968503937
0
LINE
8
BLACK
6
CONTINUOUS
10
3.6834557480314958
20
-3.717406968503937
11
3.6817488582677163
21
-3.7199614566929133
0
LINE
8
BLACK
6
CONTINUOUS
10
3.6817488582677163
20
-3.7199614566929133
11
3.67919437007874
21
-3.7216683464566929
0
LINE
8
BLACK
6
CONTINUOUS
10
3.67919437007874
20
-3.7216683464566929
11
3.6761811023622046
21
-3.7222677165354332
0
LINE
8
BLACK
6
CONTINUOUS
10
3.6761811023622046
20
-3.7222677165354332
11
3.6545275590551181
21
-3.7222677165354332
0
LINE
8
BLACK
6
CONTINUOUS
10
3.6545275590551181
20
-3.7222677165354332
11
3.6515142913385827
21
-3.7216683464566929
0
LINE
8
BLACK
6
CONTINUOUS
10
3.6515142913385827
20
-3.7216683464566929
11
3.648959803149606
21
-3.7199614566929133
0
LINE
8
BLACK
6
CONTINUOUS
10
3.648959803149606
20
-3.7199614566929133
11
3.6472529133858265
21
-3.717406968503937
0
LINE
8
BLACK
6
CONTINUOUS
10
3.6472529133858265
20
-3.717406968503937
11
3.6466535433070866
21
-3.7143937007874013
0
LINE
8
BLACK
6
CONTINUOUS
10
3.6466535433070866
20
-3.7143937007874013
11
3.6466535433070866
21
-3.6986456692913383
0
LINE
8
BLACK
6
CONTINUOUS
10
3.6466535433070866
20
-3.6986456692913383
11
3.6472529133858265
21
-3.695632401574803
0
LINE
8
BLACK
6
CONTINUOUS
10
3.6472529133858265
20
-3.695632401574803
11
3.648959803149606
21
-3.6930779133858267
0
LINE
8
BLACK
6
CONTINUOUS
10
3.648959803149606
20
-3.6930779133858267
11
3.6515142913385827
21
-3.6913710236220472
0
LINE
8
BLACK
6
CONTINUOUS
10
3.6515142913385827
20
-3.6913710236220472
11
3.6545275590551181
21
-3.6907716535433068
0
LINE
8
BLACK
6
CONTINUOUS
10
3.6545275590551181
20
-3.6907716535433068
11
3.6761811023622046
21
-3.6907716535433068
0
LINE
8
BLACK
6
CONTINUOUS
10
3.6761811023622046
20
-3.6907716535433068
11
3.67919437007874
21
-3.6913710236220472
0
LINE
8
BLACK
6
CONTINUOUS
10
3.7539975196850395
20
-3.6912985826771654
11
3.7565520078740158
21
-3.6930054724409449
0
LINE
8
BLACK
6
CONTINUOUS
10
3.7565520078740158
20
-3.6930054724409449
11
3.7582588976377953
21
-3.6955599606299212
0
LINE
8
BLACK
6
CONTINUOUS
10
3.7582588976377953
20
-3.6955599606299212
11
3.7588582677165352
21
-3.6985732283464565
0
LINE
8
BLACK
6
CONTINUOUS
10
3.7588582677165352
20
-3.6985732283464565
11
3.7588582677165352
21
-3.7143212598425195
0
LINE
8
BLACK
6
CONTINUOUS
10
3.7588582677165352
20
-3.7143212598425195
11
3.7582588976377953
21
-3.7173345275590552
0
LINE
8
BLACK
6
CONTINUOUS
10
3.7582588976377953
20
-3.7173345275590552
11
3.7565520078740158
21
-3.7198890157480315
0
LINE
8
BLACK
6
CONTINUOUS
10
3.7565520078740158
20
-3.7198890157480315
11
3.7539975196850395
21
-3.7215959055118111
0
LINE
8
BLACK
6
CONTINUOUS
10
3.7539975196850395
20
-3.7215959055118111
11
3.7509842519685037
21
-3.722195275590551
0
LINE
8
BLACK
6
CONTINUOUS
10
3.7509842519685037
20
-3.722195275590551
11
3.7293307086614171
21
-3.722195275590551
0
LINE
8
BLACK
6
CONTINUOUS
10
3.7293307086614171
20
-3.722195275590551
11
3.7263174409448818
21
-3.7215959055118111
0
LINE
8
BLACK
6
CONTINUOUS
10
3.7263174409448818
20
-3.7215959055118111
11
3.7237629527559055
21
-3.7198890157480315
0
LINE
8
BLACK
6
CONTINUOUS
10
3.7237629527559055
20
-3.7198890157480315
11
3.722056062992126
21
-3.7173345275590552
0
LINE
8
BLACK
6
CONTINUOUS
10
3.722056062992126
20
-3.7173345275590552
11
3.7214566929133857
21
-3.7143212598425195
0
LINE
8
BLACK
6
CONTINUOUS
10
3.7214566929133857
20
-3.7143212598425195
11
3.7214566929133857
21
-3.6985732283464565
0
LINE
8
BLACK
6
CONTINUOUS
10
3.7214566929133857
20
-3.6985732283464565
11
3.722056062992126
21
-3.6955599606299212
0
LINE
8
BLACK
6
CONTINUOUS
10
3.722056062992126
20
-3.6955599606299212
11
3.7237629527559055
21
-3.6930054724409449
0
LINE
8
BLACK
6
CONTINUOUS
10
3.7237629527559055
20
-3.6930054724409449
11
3.7263174409448818
21
-3.6912985826771654
0
LINE
8
BLACK
6
CONTINUOUS
10
3.7263174409448818
20
-3.6912985826771654
11
3.7293307086614171
21
-3.690699212598425
0
LINE
8
BLACK
6
CONTINUOUS
10
3.7293307086614171
20
-3.690699212598425
11
3.7509842519685037
21
-3.690699212598425
0
LINE
8
BLACK
6
CONTINUOUS
10
3.7509842519685037
20
-3.690699212598425
11
3.7539975196850395
21
-3.6912985826771654
0
LINE
8
BLACK
6
CONTINUOUS
10
3.5490421653543307
20
-3.6021271653543305
11
3.5522353149606301
21
-3.6042607480314959
0
LINE
8
BLACK
6
CONTINUOUS
10
3.5522353149606301
20
-3.6042607480314959
11
3.5543688976377954
21
-3.6074538976377952
0
LINE
8
BLACK
6
CONTINUOUS
10
3.5543688976377954
20
-3.6074538976377952
11
3.5551181102362204
21
-3.6112204724409449
0
LINE
8
BLACK
6
CONTINUOUS
10
3.5551181102362204
20
-3.6112204724409449
11
3.5551181102362204
21
-3.6368110236220472
0
LINE
8
BLACK
6
CONTINUOUS
10
3.5551181102362204
20
-3.6368110236220472
11
3.5543688976377954
21
-3.6405775984251969
0
LINE
8
BLACK
6
CONTINUOUS
10
3.5543688976377954
20
-3.6405775984251969
11
3.5522353149606301
21
-3.6437707480314958
0
LINE
8
BLACK
6
CONTINUOUS
10
3.5522353149606301
20
-3.6437707480314958
11
3.5490421653543307
21
-3.6459043307086612
0
LINE
8
BLACK
6
CONTINUOUS
10
3.5490421653543307
20
-3.6459043307086612
11
3.545275590551181
21
-3.6466535433070866
0
LINE
8
BLACK
6
CONTINUOUS
10
3.545275590551181
20
-3.6466535433070866
11
3.5098425196850394
21
-3.6466535433070866
0
LINE
8
BLACK
6
CONTINUOUS
10
3.5098425196850394
20
-3.6466535433070866
11
3.5060759448818897
21
-3.6459043307086612
0
LINE
8
BLACK
6
CONTINUOUS
10
3.5060759448818897
20
-3.6459043307086612
11
3.5028827952755903
21
-3.6437707480314958
0
LINE
8
BLACK
6
CONTINUOUS
10
3.5028827952755903
20
-3.6437707480314958
11
3.500749212598425
21
-3.6405775984251969
0
LINE
8
BLACK
6
CONTINUOUS
10
3.500749212598425
20
-3.6405775984251969
11
3.5
21
-3.6368110236220472
0
LINE
8
BLACK
6
CONTINUOUS
10
3.5
20
-3.6368110236220472
11
3.5
21
-3.6112204724409449
0
LINE
8
BLACK
6
CONTINUOUS
10
3.5
20
-3.6112204724409449
11
3.500749212598425
21
-3.6074538976377952
0
LINE
8
BLACK
6
CONTINUOUS
10
3.500749212598425
20
-3.6074538976377952
11
3.5028827952755903
21
-3.6042607480314959
0
LINE
8
BLACK
6
CONTINUOUS
10
3.5028827952755903
20
-3.6042607480314959
11
3.5060759448818897
21
-3.6021271653543305
0
LINE
8
BLACK
6
CONTINUOUS
10
3.5060759448818897
20
-3.6021271653543305
11
3.5098425196850394
21
-3.6013779527559056
0
LINE
8
BLACK
6
CONTINUOUS
10
3.5098425196850394
20
-3.6013779527559056
11
3.545275590551181
21
-3.6013779527559056
0
LINE
8
BLACK
6
CONTINUOUS
10
3.545275590551181
20
-3.6013779527559056
11
3.5490421653543307
21
-3.6021271653543305
0
LINE
8
BLACK
6
CONTINUOUS
10
3.7730749606299212
20
-3.6109105118110234
11
3.775948779527559
21
-3.6128307480314961
0
LINE
8
BLACK
6
CONTINUOUS
10
3.775948779527559
20
-3.6128307480314961
11
3.7778690157480312
21
-3.6157045669291339
0
LINE
8
BLACK
6
CONTINUOUS
10
3.7778690157480312
20
-3.6157045669291339
11
3.7785433070866139
21
-3.6190944881889764
0
LINE
8
BLACK
6
CONTINUOUS
10
3.7785433070866139
20
-3.6190944881889764
11
3.7785433070866139
21
-3.6368110236220472
0
LINE
8
BLACK
6
CONTINUOUS
10
3.7785433070866139
20
-3.6368110236220472
11
3.7778690157480312
21
-3.6402009448818897
0
LINE
8
BLACK
6
CONTINUOUS
10
3.7778690157480312
20
-3.6402009448818897
11
3.775948779527559
21
-3.6430747637795275
0
LINE
8
BLACK
6
CONTINUOUS
10
3.775948779527559
20
-3.6430747637795275
11
3.7730749606299212
21
-3.6449949999999998
0
LINE
8
BLACK
6
CONTINUOUS
10
3.7730749606299212
20
-3.6449949999999998
11
3.7696850393700787
21
-3.6456692913385824
0
LINE
8
BLACK
6
CONTINUOUS
10
3.7696850393700787
20
-3.6456692913385824
11
3.75
21
-3.6456692913385824
0
LINE
8
BLACK
6
CONTINUOUS
10
3.75
20
-3.6456692913385824
11
3.7466100787401575
21
-3.6449949999999998
0
LINE
8
BLACK
6
CONTINUOUS
10
3.7466100787401575
20
-3.6449949999999998
11
3.7437362598425197
21
-3.6430747637795275
0
LINE
8
BLACK
6
CONTINUOUS
10
3.7437362598425197
20
-3.6430747637795275
11
3.741816023622047
21
-3.6402009448818897
0
LINE
8
BLACK
6
CONTINUOUS
10
3.741816023622047
20
-3.6402009448818897
11
3.7411417322834644
21
-3.6368110236220472
0
LINE
8
BLACK
6
CONTINUOUS
10
3.7411417322834644
20
-3.6368110236220472
11
3.7411417322834644
21
-3.6190944881889764
0
LINE
8
BLACK
6
CONTINUOUS
10
3.7411417322834644
20
-3.6190944881889764
11
3.741816023622047
21
-3.6157045669291339
0
LINE
8
BLACK
6
CONTINUOUS
10
3.741816023622047
20
-3.6157045669291339
11
3.7437362598425197
21
-3.6128307480314961
0
LINE
8
BLACK
6
CONTINUOUS
10
3.7437362598425197
20
-3.6128307480314961
11
3.7466100787401575
21
-3.6109105118110234
0
LINE
8
BLACK
6
CONTINUOUS
10
3.7466100787401575
20
-3.6109105118110234
11
3.75
21
-3.6102362204724407
0
LINE
8
BLACK
6
CONTINUOUS
10
3.75
20
-3.6102362204724407
11
3.7696850393700787
21
-3.6102362204724407
0
LINE
8
BLACK
6
CONTINUOUS
10
3.7696850393700787
20
-3.6102362204724407
11
3.7730749606299212
21
-3.6109105118110234
0
LINE
8
BLACK
6
CONTINUOUS
10
3.7730749606299212
20
-3.5498868897637794
11
3.775948779527559
21
-3.5518071259842521
0
LINE
8
BLACK
6
CONTINUOUS
10
3.775948779527559
20
-3.5518071259842521
11
3.7778690157480312
21
-3.5546809448818899
0
LINE
8
BLACK
6
CONTINUOUS
10
3.7778690157480312
20
-3.5546809448818899
11
3.7785433070866139
21
-3.5580708661417324
0
LINE
8
BLACK
6
CONTINUOUS
10
3.7785433070866139
20
-3.5580708661417324
11
3.7785433070866139
21
-3.5757874015748032
0
LINE
8
BLACK
6
CONTINUOUS
10
3.7785433070866139
20
-3.5757874015748032
11
3.7778690157480312
21
-3.5791773228346457
0
LINE
8
BLACK
6
CONTINUOUS
10
3.7778690157480312
20
-3.5791773228346457
11
3.775948779527559
21
-3.5820511417322836
0
LINE
8
BLACK
6
CONTINUOUS
10
3.775948779527559
20
-3.5820511417322836
11
3.7730749606299212
21
-3.5839713779527558
0
LINE
8
BLACK
6
CONTINUOUS
10
3.7730749606299212
20
-3.5839713779527558
11
3.7696850393700787
21
-3.5846456692913384
0
LINE
8
BLACK
6
CONTINUOUS
10
3.7696850393700787
20
-3.5846456692913384
11
3.75
21
-3.5846456692913384
0
LINE
8
BLACK
6
CONTINUOUS
10
3.75
20
-3.5846456692913384
11
3.7466100787401575
21
-3.5839713779527558
0
LINE
8
BLACK
6
CONTINUOUS
10
3.7466100787401575
20
-3.5839713779527558
11
3.7437362598425197
21
-3.5820511417322836
0
LINE
8
BLACK
6
CONTINUOUS
10
3.7437362598425197
20
-3.5820511417322836
11
3.741816023622047
21
-3.5791773228346457
0
LINE
8
BLACK
6
CONTINUOUS
10
3.741816023622047
20
-3.5791773228346457
11
3.7411417322834644
21
-3.5757874015748032
0
LINE
8
BLACK
6
CONTINUOUS
10
3.7411417322834644
20
-3.5757874015748032
11
3.7411417322834644
21
-3.5580708661417324
0
LINE
8
BLACK
6
CONTINUOUS
10
3.7411417322834644
20
-3.5580708661417324
11
3.741816023622047
21
-3.5546809448818899
0
LINE
8
BLACK
6
CONTINUOUS
10
3.741816023622047
20
-3.5546809448818899
11
3.7437362598425197
21
-3.5518071259842521
0
LINE
8
BLACK
6
CONTINUOUS
10
3.7437362598425197
20
-3.5518071259842521
11
3.7466100787401575
21
-3.5498868897637794
0
LINE
8
BLACK
6
CONTINUOUS
10
3.7466100787401575
20
-3.5498868897637794
11
3.75
21
-3.5492125984251968
0
LINE
8
BLACK
6
CONTINUOUS
10
3.75
20
-3.5492125984251968
11
3.7696850393700787
21
-3.5492125984251968
0
LINE
8
BLACK
6
CONTINUOUS
10
3.7696850393700787
20
-3.5492125984251968
11
3.7730749606299212
21
-3.5498868897637794
0
LINE
8
BLACK
6
CONTINUOUS
10
3.4941550000000001
20
-3.5084733858267714
11
3.4967094881889764
21
-3.5101802755905509
0
LINE
8
BLACK
6
CONTINUOUS
10
3.4967094881889764
20
-3.5101802755905509
11
3.498416377952756
21
-3.5127347637795276
0
LINE
8
BLACK
6
CONTINUOUS
10
3.498416377952756
20
-3.5127347637795276
11
3.4990157480314958
21
-3.515748031496063
0
LINE
8
BLACK
6
CONTINUOUS
10
3.4990157480314958
20
-3.515748031496063
11
3.4990157480314958
21
-3.5314960629921259
0
LINE
8
BLACK
6
CONTINUOUS
10
3.4990157480314958
20
-3.5314960629921259
11
3.498416377952756
21
-3.5345093307086612
0
LINE
8
BLACK
6
CONTINUOUS
10
3.498416377952756
20
-3.5345093307086612
11
3.4967094881889764
21
-3.5370638188976375
0
LINE
8
BLACK
6
CONTINUOUS
10
3.4967094881889764
20
-3.5370638188976375
11
3.4941550000000001
21
-3.5387707086614171
0
LINE
8
BLACK
6
CONTINUOUS
10
3.4941550000000001
20
-3.5387707086614171
11
3.4911417322834644
21
-3.5393700787401574
0
LINE
8
BLACK
6
CONTINUOUS
10
3.4911417322834644
20
-3.5393700787401574
11
3.4694881889763778
21
-3.5393700787401574
0
LINE
8
BLACK
6
CONTINUOUS
10
3.4694881889763778
20
-3.5393700787401574
11
3.4664749212598425
21
-3.5387707086614171
0
LINE
8
BLACK
6
CONTINUOUS
10
3.4664749212598425
20
-3.5387707086614171
11
3.4639204330708662
21
-3.5370638188976375
0
LINE
8
BLACK
6
CONTINUOUS
10
3.4639204330708662
20
-3.5370638188976375
11
3.4622135433070866
21
-3.5345093307086612
0
LINE
8
BLACK
6
CONTINUOUS
10
3.4622135433070866
20
-3.5345093307086612
11
3.4616141732283463
21
-3.5314960629921259
0
LINE
8
BLACK
6
CONTINUOUS
10
3.4616141732283463
20
-3.5314960629921259
11
3.4616141732283463
21
-3.515748031496063
0
LINE
8
BLACK
6
CONTINUOUS
10
3.4616141732283463
20
-3.515748031496063
11
3.4622135433070866
21
-3.5127347637795276
0
LINE
8
BLACK
6
CONTINUOUS
10
3.4622135433070866
20
-3.5127347637795276
11
3.4639204330708662
21
-3.5101802755905509
0
LINE
8
BLACK
6
CONTINUOUS
10
3.4639204330708662
20
-3.5101802755905509
11
3.4664749212598425
21
-3.5084733858267714
0
LINE
8
BLACK
6
CONTINUOUS
10
3.4664749212598425
20
-3.5084733858267714
11
3.4694881889763778
21
-3.5078740157480315
0
LINE
8
BLACK
6
CONTINUOUS
10
3.4694881889763778
20
-3.5078740157480315
11
3.4911417322834644
21
-3.5078740157480315
0
LINE
8
BLACK
6
CONTINUOUS
10
3.4911417322834644
20
-3.5078740157480315
11
3.4941550000000001
21
-3.5084733858267714
0
LINE
8
BLACK
6
CONTINUOUS
10
3.4941550000000001
20
-3.4435127559055116
11
3.4967094881889764
21
-3.4452196456692912
0
LINE
8
BLACK
6
CONTINUOUS
10
3.4967094881889764
20
-3.4452196456692912
11
3.498416377952756
21
-3.4477741338582675
0
LINE
8
BLACK
6
CONTINUOUS
10
3.498416377952756
20
-3.4477741338582675
11
3.4990157480314958
21
-3.4507874015748032
0
LINE
8
BLACK
6
CONTINUOUS
10
3.4990157480314958
20
-3.4507874015748032
11
3.4990157480314958
21
-3.4665354330708662
0
LINE
8
BLACK
6
CONTINUOUS
10
3.4990157480314958
20
-3.4665354330708662
11
3.498416377952756
21
-3.4695487007874015
0
LINE
8
BLACK
6
CONTINUOUS
10
3.498416377952756
20
-3.4695487007874015
11
3.4967094881889764
21
-3.4721031889763778
0
LINE
8
BLACK
6
CONTINUOUS
10
3.4967094881889764
20
-3.4721031889763778
11
3.4941550000000001
21
-3.4738100787401573
0
LINE
8
BLACK
6
CONTINUOUS
10
3.4941550000000001
20
-3.4738100787401573
11
3.4911417322834644
21
-3.4744094488188977
0
LINE
8
BLACK
6
CONTINUOUS
10
3.4911417322834644
20
-3.4744094488188977
11
3.4694881889763778
21
-3.4744094488188977
0
LINE
8
BLACK
6
CONTINUOUS
10
3.4694881889763778
20
-3.4744094488188977
11
3.4664749212598425
21
-3.4738100787401573
0
LINE
8
BLACK
6
CONTINUOUS
10
3.4664749212598425
20
-3.4738100787401573
11
3.4639204330708662
21
-3.4721031889763778
0
LINE
8
BLACK
6
CONTINUOUS
10
3.4639204330708662
20
-3.4721031889763778
11
3.4622135433070866
21
-3.4695487007874015
0
LINE
8
BLACK
6
CONTINUOUS
10
3.4622135433070866
20
-3.4695487007874015
11
3.4616141732283463
21
-3.4665354330708662
0
LINE
8
BLACK
6
CONTINUOUS
10
3.4616141732283463
20
-3.4665354330708662
11
3.4616141732283463
21
-3.4507874015748032
0
LINE
8
BLACK
6
CONTINUOUS
10
3.4616141732283463
20
-3.4507874015748032
11
3.4622135433070866
21
-3.4477741338582675
0
LINE
8
BLACK
6
CONTINUOUS
10
3.4622135433070866
20
-3.4477741338582675
11
3.4639204330708662
21
-3.4452196456692912
0
LINE
8
BLACK
6
CONTINUOUS
10
3.4639204330708662
20
-3.4452196456692912
11
3.4664749212598425
21
-3.4435127559055116
0
LINE
8
BLACK
6
CONTINUOUS
10
3.4664749212598425
20
-3.4435127559055116
11
3.4694881889763778
21
-3.4429133858267718
0
LINE
8
BLACK
6
CONTINUOUS
10
3.4694881889763778
20
-3.4429133858267718
11
3.4911417322834644
21
-3.4429133858267718
0
LINE
8
BLACK
6
CONTINUOUS
10
3.4911417322834644
20
-3.4429133858267718
11
3.4941550000000001
21
-3.4435127559055116
0
LINE
8
BLACK
6
CONTINUOUS
10
3.4941550000000001
20
-3.3903631496062991
11
3.4967094881889764
21
-3.3920700393700787
0
LINE
8
BLACK
6
CONTINUOUS
10
3.4967094881889764
20
-3.3920700393700787
11
3.498416377952756
21
-3.394624527559055
0
LINE
8
BLACK
6
CONTINUOUS
10
3.498416377952756
20
-3.394624527559055
11
3.4990157480314958
21
-3.3976377952755903
0
LINE
8
BLACK
6
CONTINUOUS
10
3.4990157480314958
20
-3.3976377952755903
11
3.4990157480314958
21
-3.4133858267716533
0
LINE
8
BLACK
6
CONTINUOUS
10
3.4990157480314958
20
-3.4133858267716533
11
3.498416377952756
21
-3.416399094488189
0
LINE
8
BLACK
6
CONTINUOUS
10
3.498416377952756
20
-3.416399094488189
11
3.4967094881889764
21
-3.4189535826771653
0
LINE
8
BLACK
6
CONTINUOUS
10
3.4967094881889764
20
-3.4189535826771653
11
3.4941550000000001
21
-3.4206604724409448
0
LINE
8
BLACK
6
CONTINUOUS
10
3.4941550000000001
20
-3.4206604724409448
11
3.4911417322834644
21
-3.4212598425196852
0
LINE
8
BLACK
6
CONTINUOUS
10
3.4911417322834644
20
-3.4212598425196852
11
3.4694881889763778
21
-3.4212598425196852
0
LINE
8
BLACK
6
CONTINUOUS
10
3.4694881889763778
20
-3.4212598425196852
11
3.4664749212598425
21
-3.4206604724409448
0
LINE
8
BLACK
6
CONTINUOUS
10
3.4664749212598425
20
-3.4206604724409448
11
3.4639204330708662
21
-3.4189535826771653
0
LINE
8
BLACK
6
CONTINUOUS
10
3.4639204330708662
20
-3.4189535826771653
11
3.4622135433070866
21
-3.416399094488189
0
LINE
8
BLACK
6
CONTINUOUS
10
3.4622135433070866
20
-3.416399094488189
11
3.4616141732283463
21
-3.4133858267716533
0
LINE
8
BLACK
6
CONTINUOUS
10
3.4616141732283463
20
-3.4133858267716533
11
3.4616141732283463
21
-3.3976377952755903
0
LINE
8
BLACK
6
CONTINUOUS
10
3.4616141732283463
20
-3.3976377952755903
11
3.4622135433070866
21
-3.394624527559055
0
LINE
8
BLACK
6
CONTINUOUS
10
3.4622135433070866
20
-3.394624527559055
11
3.4639204330708662
21
-3.3920700393700787
0
LINE
8
BLACK
6
CONTINUOUS
10
3.4639204330708662
20
-3.3920700393700787
11
3.4664749212598425
21
-3.3903631496062991
0
LINE
8
BLACK
6
CONTINUOUS
10
3.4664749212598425
20
-3.3903631496062991
11
3.4694881889763778
21
-3.3897637795275588
0
LINE
8
BLACK
6
CONTINUOUS
10
3.4694881889763778
20
-3.3897637795275588
11
3.4911417322834644
21
-3.3897637795275588
0
LINE
8
BLACK
6
CONTINUOUS
10
3.4911417322834644
20
-3.3897637795275588
11
3.4941550000000001
21
-3.3903631496062991
0
LINE
8
BLACK
6
CONTINUOUS
10
3.4941550000000001
20
-3.3254025196850394
11
3.4967094881889764
21
-3.3271094094488189
0
LINE
8
BLACK
6
CONTINUOUS
10
3.4967094881889764
20
-3.3271094094488189
11
3.498416377952756
21
-3.3296638976377952
0
LINE
8
BLACK
6
CONTINUOUS
10
3.498416377952756
20
-3.3296638976377952
11
3.4990157480314958
21
-3.3326771653543306
0
LINE
8
BLACK
6
CONTINUOUS
10
3.4990157480314958
20
-3.3326771653543306
11
3.4990157480314958
21
-3.3484251968503935
0
LINE
8
BLACK
6
CONTINUOUS
10
3.4990157480314958
20
-3.3484251968503935
11
3.498416377952756
21
-3.3514384645669288
0
LINE
8
BLACK
6
CONTINUOUS
10
3.498416377952756
20
-3.3514384645669288
11
3.4967094881889764
21
-3.3539929527559056
0
LINE
8
BLACK
6
CONTINUOUS
10
3.4967094881889764
20
-3.3539929527559056
11
3.4941550000000001
21
-3.3556998425196851
0
LINE
8
BLACK
6
CONTINUOUS
10
3.4941550000000001
20
-3.3556998425196851
11
3.4911417322834644
21
-3.356299212598425
0
LINE
8
BLACK
6
CONTINUOUS
10
3.4911417322834644
20
-3.356299212598425
11
3.4694881889763778
21
-3.356299212598425
0
LINE
8
BLACK
6
CONTINUOUS
10
3.4694881889763778
20
-3.356299212598425
11
3.4664749212598425
21
-3.3556998425196851
0
LINE
8
BLACK
6
CONTINUOUS
10
3.4664749212598425
20
-3.3556998425196851
11
3.4639204330708662
21
-3.3539929527559056
0
LINE
8
BLACK
6
CONTINUOUS
10
3.4639204330708662
20
-3.3539929527559056
11
3.4622135433070866
21
-3.3514384645669288
0
LINE
8
BLACK
6
CONTINUOUS
10
3.4622135433070866
20
-3.3514384645669288
11
3.4616141732283463
21
-3.3484251968503935
0
LINE
8
BLACK
6
CONTINUOUS
10
3.4616141732283463
20
-3.3484251968503935
11
3.4616141732283463
21
-3.3326771653543306
0
LINE
8
BLACK
6
CONTINUOUS
10
3.4616141732283463
20
-3.3326771653543306
11
3.4622135433070866
21
-3.3296638976377952
0
LINE
8
BLACK
6
CONTINUOUS
10
3.4622135433070866
20
-3.3296638976377952
11
3.4639204330708662
21
-3.3271094094488189
0
LINE
8
BLACK
6
CONTINUOUS
10
3.4639204330708662
20
-3.3271094094488189
11
3.4664749212598425
21
-3.3254025196850394
0
LINE
8
BLACK
6
CONTINUOUS
10
3.4664749212598425
20
-3.3254025196850394
11
3.4694881889763778
21
-3.3248031496062991
0
LINE
8
BLACK
6
CONTINUOUS
10
3.4694881889763778
20
-3.3248031496062991
11
3.4911417322834644
21
-3.3248031496062991
0
LINE
8
BLACK
6
CONTINUOUS
10
3.4911417322834644
20
-3.3248031496062991
11
3.4941550000000001
21
-3.3254025196850394
0
LINE
8
BLACK
6
CONTINUOUS
10
3.5642400393700786
20
-3.1379316535433071
11
3.5667945275590549
21
-3.1396385433070866
0
LINE
8
BLACK
6
CONTINUOUS
10
3.5667945275590549
20
-3.1396385433070866
11
3.5685014173228344
21
-3.1421930314960629
0
LINE
8
BLACK
6
CONTINUOUS
10
3.5685014173228344
20
-3.1421930314960629
11
3.5691007874015748
21
-3.1452062992125982
0
LINE
8
BLACK
6
CONTINUOUS
10
3.5691007874015748
20
-3.1452062992125982
11
3.5691007874015748
21
-3.1609543307086612
0
LINE
8
BLACK
6
CONTINUOUS
10
3.5691007874015748
20
-3.1609543307086612
11
3.5685014173228344
21
-3.1639675984251969
0
LINE
8
BLACK
6
CONTINUOUS
10
3.5685014173228344
20
-3.1639675984251969
11
3.5667945275590549
21
-3.1665220866141732
0
LINE
8
BLACK
6
CONTINUOUS
10
3.5667945275590549
20
-3.1665220866141732
11
3.5642400393700786
21
-3.1682289763779528
0
LINE
8
BLACK
6
CONTINUOUS
10
3.5642400393700786
20
-3.1682289763779528
11
3.5612267716535433
21
-3.1688283464566926
0
LINE
8
BLACK
6
CONTINUOUS
10
3.5612267716535433
20
-3.1688283464566926
11
3.5395732283464567
21
-3.1688283464566926
0
LINE
8
BLACK
6
CONTINUOUS
10
3.5395732283464567
20
-3.1688283464566926
11
3.5365599606299214
21
-3.1682289763779528
0
LINE
8
BLACK
6
CONTINUOUS
10
3.5365599606299214
20
-3.1682289763779528
11
3.5340054724409447
21
-3.1665220866141732
0
LINE
8
BLACK
6
CONTINUOUS
10
3.5340054724409447
20
-3.1665220866141732
11
3.5322985826771651
21
-3.1639675984251969
0
LINE
8
BLACK
6
CONTINUOUS
10
3.5322985826771651
20
-3.1639675984251969
11
3.5316992125984252
21
-3.1609543307086612
0
LINE
8
BLACK
6
CONTINUOUS
10
3.5316992125984252
20
-3.1609543307086612
11
3.5316992125984252
21
-3.1452062992125982
0
LINE
8
BLACK
6
CONTINUOUS
10
3.5316992125984252
20
-3.1452062992125982
11
3.5322985826771651
21
-3.1421930314960629
0
LINE
8
BLACK
6
CONTINUOUS
10
3.5322985826771651
20
-3.1421930314960629
11
3.5340054724409447
21
-3.1396385433070866
0
LINE
8
BLACK
6
CONTINUOUS
10
3.5340054724409447
20
-3.1396385433070866
11
3.5365599606299214
21
-3.1379316535433071
0
LINE
8
BLACK
6
CONTINUOUS
10
3.5365599606299214
20
-3.1379316535433071
11
3.5395732283464567
21
-3.1373322834645667
0
LINE
8
BLACK
6
CONTINUOUS
10
3.5395732283464567
20
-3.1373322834645667
11
3.5612267716535433
21
-3.1373322834645667
0
LINE
8
BLACK
6
CONTINUOUS
10
3.5612267716535433
20
-3.1373322834645667
11
3.5642400393700786
21
-3.1379316535433071
0
LINE
8
BLACK
6
CONTINUOUS
10
3.5642400393700786
20
-3.0729710236220473
11
3.5667945275590549
21
-3.0746779133858269
0
LINE
8
BLACK
6
CONTINUOUS
10
3.5667945275590549
20
-3.0746779133858269
11
3.5685014173228344
21
-3.0772324015748032
0
LINE
8
BLACK
6
CONTINUOUS
10
3.5685014173228344
20
-3.0772324015748032
11
3.5691007874015748
21
-3.0802456692913385
0
LINE
8
BLACK
6
CONTINUOUS
10
3.5691007874015748
20
-3.0802456692913385
11
3.5691007874015748
21
-3.0959937007874014
0
LINE
8
BLACK
6
CONTINUOUS
10
3.5691007874015748
20
-3.0959937007874014
11
3.5685014173228344
21
-3.0990069685039368
0
LINE
8
BLACK
6
CONTINUOUS
10
3.5685014173228344
20
-3.0990069685039368
11
3.5667945275590549
21
-3.1015614566929135
0
LINE
8
BLACK
6
CONTINUOUS
10
3.5667945275590549
20
-3.1015614566929135
11
3.5642400393700786
21
-3.103268346456693
0
LINE
8
BLACK
6
CONTINUOUS
10
3.5642400393700786
20
-3.103268346456693
11
3.5612267716535433
21
-3.1038677165354329
0
LINE
8
BLACK
6
CONTINUOUS
10
3.5612267716535433
20
-3.1038677165354329
11
3.5395732283464567
21
-3.1038677165354329
0
LINE
8
BLACK
6
CONTINUOUS
10
3.5395732283464567
20
-3.1038677165354329
11
3.5365599606299214
21
-3.103268346456693
0
LINE
8
BLACK
6
CONTINUOUS
10
3.5365599606299214
20
-3.103268346456693
11
3.5340054724409447
21
-3.1015614566929135
0
LINE
8
BLACK
6
CONTINUOUS
10
3.5340054724409447
20
-3.1015614566929135
11
3.5322985826771651
21
-3.0990069685039368
0
LINE
8
BLACK
6
CONTINUOUS
10
3.5322985826771651
20
-3.0990069685039368
11
3.5316992125984252
21
-3.0959937007874014
0
LINE
8
BLACK
6
CONTINUOUS
10
3.5316992125984252
20
-3.0959937007874014
11
3.5316992125984252
21
-3.0802456692913385
0
LINE
8
BLACK
6
CONTINUOUS
10
3.5316992125984252
20
-3.0802456692913385
11
3.5322985826771651
21
-3.0772324015748032
0
LINE
8
BLACK
6
CONTINUOUS
10
3.5322985826771651
20
-3.0772324015748032
11
3.5340054724409447
21
-3.0746779133858269
0
LINE
8
BLACK
6
CONTINUOUS
10
3.5340054724409447
20
-3.0746779133858269
11
3.5365599606299214
21
-3.0729710236220473
0
LINE
8
BLACK
6
CONTINUOUS
10
3.5365599606299214
20
-3.0729710236220473
11
3.5395732283464567
21
-3.072371653543307
0
LINE
8
BLACK
6
CONTINUOUS
10
3.5395732283464567
20
-3.072371653543307
11
3.5612267716535433
21
-3.072371653543307
0
LINE
8
BLACK
6
CONTINUOUS
10
3.5612267716535433
20
-3.072371653543307
11
3.5642400393700786
21
-3.0729710236220473
0
LINE
8
BLACK
6
CONTINUOUS
10
4.2554543307086616
20
-3.0114787401574801
11
4.1767141732283459
21
-3.0114787401574801
0
LINE
8
BLACK
6
CONTINUOUS
10
4.1767141732283459
20
-3.0114787401574801
11
4.1767141732283459
21
-2.952423622047244
0
LINE
8
BLACK
6
CONTINUOUS
10
4.1767141732283459
20
-2.952423622047244
11
4.2554543307086616
21
-2.952423622047244
0
LINE
8
BLACK
6
CONTINUOUS
10
4.2554543307086616
20
-2.952423622047244
11
4.2554543307086616
21
-3.0114787401574801
0
LINE
8
BLACK
6
CONTINUOUS
10
3.7578740157480315
20
-3.0044299212598427
11
3.6791338582677167
21
-3.0044299212598427
0
LINE
8
BLACK
6
CONTINUOUS
10
3.6791338582677167
20
-3.0044299212598427
11
3.6791338582677167
21
-2.9453748031496061
0
LINE
8
BLACK
6
CONTINUOUS
10
3.6791338582677167
20
-2.9453748031496061
11
3.7578740157480315
21
-2.9453748031496061
0
LINE
8
BLACK
6
CONTINUOUS
10
3.7578740157480315
20
-2.9453748031496061
11
3.7578740157480315
21
-3.0044299212598427
0
LINE
8
BLACK
6
CONTINUOUS
10
4.1184673622047248
20
-2.9489657480314961
11
4.1216605118110232
21
-2.9510993307086615
0
LINE
8
BLACK
6
CONTINUOUS
10
4.1216605118110232
20
-2.9510993307086615
11
4.123794094488189
21
-2.9542924803149604
0
LINE
8
BLACK
6
CONTINUOUS
10
4.123794094488189
20
-2.9542924803149604
11
4.124543307086614
21
-2.9580590551181101
0
LINE
8
BLACK
6
CONTINUOUS
10
4.124543307086614
20
-2.9580590551181101
11
4.124543307086614
21
-2.9777440944881888
0
LINE
8
BLACK
6
CONTINUOUS
10
4.124543307086614
20
-2.9777440944881888
11
4.123794094488189
21
-2.9815106692913385
0
LINE
8
BLACK
6
CONTINUOUS
10
4.123794094488189
20
-2.9815106692913385
11
4.1216605118110232
21
-2.9847038188976378
0
LINE
8
BLACK
6
CONTINUOUS
10
4.1216605118110232
20
-2.9847038188976378
11
4.1184673622047248
21
-2.9868374015748032
0
LINE
8
BLACK
6
CONTINUOUS
10
4.1184673622047248
20
-2.9868374015748032
11
4.1147007874015751
21
-2.9875866141732281
0
LINE
8
BLACK
6
CONTINUOUS
10
4.1147007874015751
20
-2.9875866141732281
11
4.0772992125984251
21
-2.9875866141732281
0
LINE
8
BLACK
6
CONTINUOUS
10
4.0772992125984251
20
-2.9875866141732281
11
4.0735326377952754
21
-2.9868374015748032
0
LINE
8
BLACK
6
CONTINUOUS
10
4.0735326377952754
20
-2.9868374015748032
11
4.0703394881889761
21
-2.9847038188976378
0
LINE
8
BLACK
6
CONTINUOUS
10
4.0703394881889761
20
-2.9847038188976378
11
4.0682059055118112
21
-2.9815106692913385
0
LINE
8
BLACK
6
CONTINUOUS
10
4.0682059055118112
20
-2.9815106692913385
11
4.0674566929133853
21
-2.9777440944881888
0
LINE
8
BLACK
6
CONTINUOUS
10
4.0674566929133853
20
-2.9777440944881888
11
4.0674566929133853
21
-2.9580590551181101
0
LINE
8
BLACK
6
CONTINUOUS
10
4.0674566929133853
20
-2.9580590551181101
11
4.0682059055118112
21
-2.9542924803149604
0
LINE
8
BLACK
6
CONTINUOUS
10
4.0682059055118112
20
-2.9542924803149604
11
4.0703394881889761
21
-2.9510993307086615
0
LINE
8
BLACK
6
CONTINUOUS
10
4.0703394881889761
20
-2.9510993307086615
11
4.0735326377952754
21
-2.9489657480314961
0
LINE
8
BLACK
6
CONTINUOUS
10
4.0735326377952754
20
-2.9489657480314961
11
4.0772992125984251
21
-2.9482165354330707
0
LINE
8
BLACK
6
CONTINUOUS
10
4.0772992125984251
20
-2.9482165354330707
11
4.1147007874015751
21
-2.9482165354330707
0
LINE
8
BLACK
6
CONTINUOUS
10
4.1147007874015751
20
-2.9482165354330707
11
4.1184673622047248
21
-2.9489657480314961
0
LINE
8
BLACK
6
CONTINUOUS
10
3.5775854724409446
20
-2.9429657480314959
11
3.580778622047244
21
-2.9450993307086613
0
LINE
8
BLACK
6
CONTINUOUS
10
3.580778622047244
20
-2.9450993307086613
11
3.5829122047244093
21
-2.9482924803149606
0
LINE
8
BLACK
6
CONTINUOUS
10
3.5829122047244093
20
-2.9482924803149606
11
3.5836614173228347
21
-2.9520590551181103
0
LINE
8
BLACK
6
CONTINUOUS
10
3.5836614173228347
20
-2.9520590551181103
11
3.5836614173228347
21
-2.971744094488189
0
LINE
8
BLACK
6
CONTINUOUS
10
3.5836614173228347
20
-2.971744094488189
11
3.5829122047244093
21
-2.9755106692913387
0
LINE
8
BLACK
6
CONTINUOUS
10
3.5829122047244093
20
-2.9755106692913387
11
3.580778622047244
21
-2.9787038188976376
0
LINE
8
BLACK
6
CONTINUOUS
10
3.580778622047244
20
-2.9787038188976376
11
3.5775854724409446
21
-2.9808374015748029
0
LINE
8
BLACK
6
CONTINUOUS
10
3.5775854724409446
20
-2.9808374015748029
11
3.5738188976377954
21
-2.9815866141732283
0
LINE
8
BLACK
6
CONTINUOUS
10
3.5738188976377954
20
-2.9815866141732283
11
3.5364173228346454
21
-2.9815866141732283
0
LINE
8
BLACK
6
CONTINUOUS
10
3.5364173228346454
20
-2.9815866141732283
11
3.5326507480314961
21
-2.9808374015748029
0
LINE
8
BLACK
6
CONTINUOUS
10
3.5326507480314961
20
-2.9808374015748029
11
3.5294575984251968
21
-2.9787038188976376
0
LINE
8
BLACK
6
CONTINUOUS
10
3.5294575984251968
20
-2.9787038188976376
11
3.5273240157480314
21
-2.9755106692913387
0
LINE
8
BLACK
6
CONTINUOUS
10
3.5273240157480314
20
-2.9755106692913387
11
3.526574803149606
21
-2.971744094488189
0
LINE
8
BLACK
6
CONTINUOUS
10
3.526574803149606
20
-2.971744094488189
11
3.526574803149606
21
-2.9520590551181103
0
LINE
8
BLACK
6
CONTINUOUS
10
3.526574803149606
20
-2.9520590551181103
11
3.5273240157480314
21
-2.9482924803149606
0
LINE
8
BLACK
6
CONTINUOUS
10
3.5273240157480314
20
-2.9482924803149606
11
3.5294575984251968
21
-2.9450993307086613
0
LINE
8
BLACK
6
CONTINUOUS
10
3.5294575984251968
20
-2.9450993307086613
11
3.5326507480314961
21
-2.9429657480314959
0
LINE
8
BLACK
6
CONTINUOUS
10
3.5326507480314961
20
-2.9429657480314959
11
3.5364173228346454
21
-2.9422165354330709
0
LINE
8
BLACK
6
CONTINUOUS
10
3.5364173228346454
20
-2.9422165354330709
11
3.5738188976377954
21
-2.9422165354330709
0
LINE
8
BLACK
6
CONTINUOUS
10
3.5738188976377954
20
-2.9422165354330709
11
3.5775854724409446
21
-2.9429657480314959
0
LINE
8
BLACK
6
CONTINUOUS
10
4.5034858267716533
20
-2.966203149606299
11
4.4247456692913385
21
-2.966203149606299
0
LINE
8
BLACK
6
CONTINUOUS
10
4.4247456692913385
20
-2.966203149606299
11
4.4247456692913385
21
-2.8165968503937009
0
LINE
8
BLACK
6
CONTINUOUS
10
4.4247456692913385
20
-2.8165968503937009
11
4.5034858267716533
21
-2.8165968503937009
0
LINE
8
BLACK
6
CONTINUOUS
10
4.5034858267716533
20
-2.8165968503937009
11
4.5034858267716533
21
-2.966203149606299
0
LINE
8
BLACK
6
CONTINUOUS
10
3.6431537007874013
20
-2.9274695669291337
11
3.6460275196850391
21
-2.9293898031496064
0
LINE
8
BLACK
6
CONTINUOUS
10
3.6460275196850391
20
-2.9293898031496064
11
3.6479477559055118
21
-2.9322636220472442
0
LINE
8
BLACK
6
CONTINUOUS
10
3.6479477559055118
20
-2.9322636220472442
11
3.6486220472440944
21
-2.9356535433070867
0
LINE
8
BLACK
6
CONTINUOUS
10
3.6486220472440944
20
-2.9356535433070867
11
3.6486220472440944
21
-2.9533700787401576
0
LINE
8
BLACK
6
CONTINUOUS
10
3.6486220472440944
20
-2.9533700787401576
11
3.6479477559055118
21
-2.9567600000000001
0
LINE
8
BLACK
6
CONTINUOUS
10
3.6479477559055118
20
-2.9567600000000001
11
3.6460275196850391
21
-2.9596338188976379
0
LINE
8
BLACK
6
CONTINUOUS
10
3.6460275196850391
20
-2.9596338188976379
11
3.6431537007874013
21
-2.9615540551181101
0
LINE
8
BLACK
6
CONTINUOUS
10
3.6431537007874013
20
-2.9615540551181101
11
3.6397637795275588
21
-2.9622283464566928
0
LINE
8
BLACK
6
CONTINUOUS
10
3.6397637795275588
20
-2.9622283464566928
11
3.6200787401574801
21
-2.9622283464566928
0
LINE
8
BLACK
6
CONTINUOUS
10
3.6200787401574801
20
-2.9622283464566928
11
3.6166888188976376
21
-2.9615540551181101
0
LINE
8
BLACK
6
CONTINUOUS
10
3.6166888188976376
20
-2.9615540551181101
11
3.6138149999999998
21
-2.9596338188976379
0
LINE
8
BLACK
6
CONTINUOUS
10
3.6138149999999998
20
-2.9596338188976379
11
3.6118947637795276
21
-2.9567600000000001
0
LINE
8
BLACK
6
CONTINUOUS
10
3.6118947637795276
20
-2.9567600000000001
11
3.6112204724409449
21
-2.9533700787401576
0
LINE
8
BLACK
6
CONTINUOUS
10
3.6112204724409449
20
-2.9533700787401576
11
3.6112204724409449
21
-2.9356535433070867
0
LINE
8
BLACK
6
CONTINUOUS
10
3.6112204724409449
20
-2.9356535433070867
11
3.6118947637795276
21
-2.9322636220472442
0
LINE
8
BLACK
6
CONTINUOUS
10
3.6118947637795276
20
-2.9322636220472442
11
3.6138149999999998
21
-2.9293898031496064
0
LINE
8
BLACK
6
CONTINUOUS
10
3.6138149999999998
20
-2.9293898031496064
11
3.6166888188976376
21
-2.9274695669291337
0
LINE
8
BLACK
6
CONTINUOUS
10
3.6166888188976376
20
-2.9274695669291337
11
3.6200787401574801
21
-2.9267952755905511
0
LINE
8
BLACK
6
CONTINUOUS
10
3.6200787401574801
20
-2.9267952755905511
11
3.6397637795275588
21
-2.9267952755905511
0
LINE
8
BLACK
6
CONTINUOUS
10
3.6397637795275588
20
-2.9267952755905511
11
3.6431537007874013
21
-2.9274695669291337
0
LINE
8
BLACK
6
CONTINUOUS
10
4.0059055118110232
20
-2.9591543307086612
11
3.9271653543307088
21
-2.9591543307086612
0
LINE
8
BLACK
6
CONTINUOUS
10
3.9271653543307088
20
-2.9591543307086612
11
3.9271653543307088
21
-2.809548031496063
0
LINE
8
BLACK
6
CONTINUOUS
10
3.9271653543307088
20
-2.809548031496063
11
4.0059055118110232
21
-2.809548031496063
0
LINE
8
BLACK
6
CONTINUOUS
10
4.0059055118110232
20
-2.809548031496063
11
4.0059055118110232
21
-2.9591543307086612
0
LINE
8
BLACK
6
CONTINUOUS
10
4.2554543307086616
20
-2.920927559055118
11
4.1767141732283459
21
-2.920927559055118
0
LINE
8
BLACK
6
CONTINUOUS
10
4.1767141732283459
20
-2.920927559055118
11
4.1767141732283459
21
-2.8618724409448819
0
LINE
8
BLACK
6
CONTINUOUS
10
4.1767141732283459
20
-2.8618724409448819
11
4.2554543307086616
21
-2.8618724409448819
0
LINE
8
BLACK
6
CONTINUOUS
10
4.2554543307086616
20
-2.8618724409448819
11
4.2554543307086616
21
-2.920927559055118
0
LINE
8
BLACK
6
CONTINUOUS
10
3.7578740157480315
20
-2.9138787401574802
11
3.6791338582677167
21
-2.9138787401574802
0
LINE
8
BLACK
6
CONTINUOUS
10
3.6791338582677167
20
-2.9138787401574802
11
3.6791338582677167
21
-2.854823622047244
0
LINE
8
BLACK
6
CONTINUOUS
10
3.6791338582677167
20
-2.854823622047244
11
3.7578740157480315
21
-2.854823622047244
0
LINE
8
BLACK
6
CONTINUOUS
10
3.7578740157480315
20
-2.854823622047244
11
3.7578740157480315
21
-2.9138787401574802
0
LINE
8
BLACK
6
CONTINUOUS
10
4.1184673622047248
20
-2.8741625984251966
11
4.1216605118110232
21
-2.876296181102362
0
LINE
8
BLACK
6
CONTINUOUS
10
4.1216605118110232
20
-2.876296181102362
11
4.123794094488189
21
-2.8794893307086613
0
LINE
8
BLACK
6
CONTINUOUS
10
4.123794094488189
20
-2.8794893307086613
11
4.124543307086614
21
-2.883255905511811
0
LINE
8
BLACK
6
CONTINUOUS
10
4.124543307086614
20
-2.883255905511811
11
4.124543307086614
21
-2.9029409448818897
0
LINE
8
BLACK
6
CONTINUOUS
10
4.124543307086614
20
-2.9029409448818897
11
4.123794094488189
21
-2.9067075196850394
0
LINE
8
BLACK
6
CONTINUOUS
10
4.123794094488189
20
-2.9067075196850394
11
4.1216605118110232
21
-2.9099006692913387
0
LINE
8
BLACK
6
CONTINUOUS
10
4.1216605118110232
20
-2.9099006692913387
11
4.1184673622047248
21
-2.9120342519685041
0
LINE
8
BLACK
6
CONTINUOUS
10
4.1184673622047248
20
-2.9120342519685041
11
4.1147007874015751
21
-2.912783464566929
0
LINE
8
BLACK
6
CONTINUOUS
10
4.1147007874015751
20
-2.912783464566929
11
4.0772992125984251
21
-2.912783464566929
0
LINE
8
BLACK
6
CONTINUOUS
10
4.0772992125984251
20
-2.912783464566929
11
4.0735326377952754
21
-2.9120342519685041
0
LINE
8
BLACK
6
CONTINUOUS
10
4.0735326377952754
20
-2.9120342519685041
11
4.0703394881889761
21
-2.9099006692913387
0
LINE
8
BLACK
6
CONTINUOUS
10
4.0703394881889761
20
-2.9099006692913387
11
4.0682059055118112
21
-2.9067075196850394
0
LINE
8
BLACK
6
CONTINUOUS
10
4.0682059055118112
20
-2.9067075196850394
11
4.0674566929133853
21
-2.9029409448818897
0
LINE
8
BLACK
6
CONTINUOUS
10
4.0674566929133853
20
-2.9029409448818897
11
4.0674566929133853
21
-2.883255905511811
0
LINE
8
BLACK
6
CONTINUOUS
10
4.0674566929133853
20
-2.883255905511811
11
4.0682059055118112
21
-2.8794893307086613
0
LINE
8
BLACK
6
CONTINUOUS
10
4.0682059055118112
20
-2.8794893307086613
11
4.0703394881889761
21
-2.876296181102362
0
LINE
8
BLACK
6
CONTINUOUS
10
4.0703394881889761
20
-2.876296181102362
11
4.0735326377952754
21
-2.8741625984251966
0
LINE
8
BLACK
6
CONTINUOUS
10
4.0735326377952754
20
-2.8741625984251966
11
4.0772992125984251
21
-2.8734133858267716
0
LINE
8
BLACK
6
CONTINUOUS
10
4.0772992125984251
20
-2.8734133858267716
11
4.1147007874015751
21
-2.8734133858267716
0
LINE
8
BLACK
6
CONTINUOUS
10
4.1147007874015751
20
-2.8734133858267716
11
4.1184673622047248
21
-2.8741625984251966
0
LINE
8
BLACK
6
CONTINUOUS
10
3.5775854724409446
20
-2.8681625984251968
11
3.580778622047244
21
-2.8702961811023622
0
LINE
8
BLACK
6
CONTINUOUS
10
3.580778622047244
20
-2.8702961811023622
11
3.5829122047244093
21
-2.8734893307086615
0
LINE
8
BLACK
6
CONTINUOUS
10
3.5829122047244093
20
-2.8734893307086615
11
3.5836614173228347
21
-2.8772559055118108
0
LINE
8
BLACK
6
CONTINUOUS
10
3.5836614173228347
20
-2.8772559055118108
11
3.5836614173228347
21
-2.8969409448818899
0
LINE
8
BLACK
6
CONTINUOUS
10
3.5836614173228347
20
-2.8969409448818899
11
3.5829122047244093
21
-2.9007075196850391
0
LINE
8
BLACK
6
CONTINUOUS
10
3.5829122047244093
20
-2.9007075196850391
11
3.580778622047244
21
-2.9039006692913385
0
LINE
8
BLACK
6
CONTINUOUS
10
3.580778622047244
20
-2.9039006692913385
11
3.5775854724409446
21
-2.9060342519685038
0
LINE
8
BLACK
6
CONTINUOUS
10
3.5775854724409446
20
-2.9060342519685038
11
3.5738188976377954
21
-2.9067834645669293
0
LINE
8
BLACK
6
CONTINUOUS
10
3.5738188976377954
20
-2.9067834645669293
11
3.5364173228346454
21
-2.9067834645669293
0
LINE
8
BLACK
6
CONTINUOUS
10
3.5364173228346454
20
-2.9067834645669293
11
3.5326507480314961
21
-2.9060342519685038
0
LINE
8
BLACK
6
CONTINUOUS
10
3.5326507480314961
20
-2.9060342519685038
11
3.5294575984251968
21
-2.9039006692913385
0
LINE
8
BLACK
6
CONTINUOUS
10
3.5294575984251968
20
-2.9039006692913385
11
3.5273240157480314
21
-2.9007075196850391
0
LINE
8
BLACK
6
CONTINUOUS
10
3.5273240157480314
20
-2.9007075196850391
11
3.526574803149606
21
-2.8969409448818899
0
LINE
8
BLACK
6
CONTINUOUS
10
3.526574803149606
20
-2.8969409448818899
11
3.526574803149606
21
-2.8772559055118108
0
LINE
8
BLACK
6
CONTINUOUS
10
3.526574803149606
20
-2.8772559055118108
11
3.5273240157480314
21
-2.8734893307086615
0
LINE
8
BLACK
6
CONTINUOUS
10
3.5273240157480314
20
-2.8734893307086615
11
3.5294575984251968
21
-2.8702961811023622
0
LINE
8
BLACK
6
CONTINUOUS
10
3.5294575984251968
20
-2.8702961811023622
11
3.5326507480314961
21
-2.8681625984251968
0
LINE
8
BLACK
6
CONTINUOUS
10
3.5326507480314961
20
-2.8681625984251968
11
3.5364173228346454
21
-2.8674133858267714
0
LINE
8
BLACK
6
CONTINUOUS
10
3.5364173228346454
20
-2.8674133858267714
11
3.5738188976377954
21
-2.8674133858267714
0
LINE
8
BLACK
6
CONTINUOUS
10
3.5738188976377954
20
-2.8674133858267714
11
3.5775854724409446
21
-2.8681625984251968
0
LINE
8
BLACK
6
CONTINUOUS
10
3.6431537007874013
20
-2.8664459448818898
11
3.6460275196850391
21
-2.868366181102362
0
LINE
8
BLACK
6
CONTINUOUS
10
3.6460275196850391
20
-2.868366181102362
11
3.6479477559055118
21
-2.8712399999999998
0
LINE
8
BLACK
6
CONTINUOUS
10
3.6479477559055118
20
-2.8712399999999998
11
3.6486220472440944
21
-2.8746299212598423
0
LINE
8
BLACK
6
CONTINUOUS
10
3.6486220472440944
20
-2.8746299212598423
11
3.6486220472440944
21
-2.8923464566929131
0
LINE
8
BLACK
6
CONTINUOUS
10
3.6486220472440944
20
-2.8923464566929131
11
3.6479477559055118
21
-2.8957363779527556
0
LINE
8
BLACK
6
CONTINUOUS
10
3.6479477559055118
20
-2.8957363779527556
11
3.6460275196850391
21
-2.8986101968503935
0
LINE
8
BLACK
6
CONTINUOUS
10
3.6460275196850391
20
-2.8986101968503935
11
3.6431537007874013
21
-2.9005304330708661
0
LINE
8
BLACK
6
CONTINUOUS
10
3.6431537007874013
20
-2.9005304330708661
11
3.6397637795275588
21
-2.9012047244094488
0
LINE
8
BLACK
6
CONTINUOUS
10
3.6397637795275588
20
-2.9012047244094488
11
3.6200787401574801
21
-2.9012047244094488
0
LINE
8
BLACK
6
CONTINUOUS
10
3.6200787401574801
20
-2.9012047244094488
11
3.6166888188976376
21
-2.9005304330708661
0
LINE
8
BLACK
6
CONTINUOUS
10
3.6166888188976376
20
-2.9005304330708661
11
3.6138149999999998
21
-2.8986101968503935
0
LINE
8
BLACK
6
CONTINUOUS
10
3.6138149999999998
20
-2.8986101968503935
11
3.6118947637795276
21
-2.8957363779527556
0
LINE
8
BLACK
6
CONTINUOUS
10
3.6118947637795276
20
-2.8957363779527556
11
3.6112204724409449
21
-2.8923464566929131
0
LINE
8
BLACK
6
CONTINUOUS
10
3.6112204724409449
20
-2.8923464566929131
11
3.6112204724409449
21
-2.8746299212598423
0
LINE
8
BLACK
6
CONTINUOUS
10
3.6112204724409449
20
-2.8746299212598423
11
3.6118947637795276
21
-2.8712399999999998
0
LINE
8
BLACK
6
CONTINUOUS
10
3.6118947637795276
20
-2.8712399999999998
11
3.6138149999999998
21
-2.868366181102362
0
LINE
8
BLACK
6
CONTINUOUS
10
3.6138149999999998
20
-2.868366181102362
11
3.6166888188976376
21
-2.8664459448818898
0
LINE
8
BLACK
6
CONTINUOUS
10
3.6166888188976376
20
-2.8664459448818898
11
3.6200787401574801
21
-2.8657716535433071
0
LINE
8
BLACK
6
CONTINUOUS
10
3.6200787401574801
20
-2.8657716535433071
11
3.6397637795275588
21
-2.8657716535433071
0
LINE
8
BLACK
6
CONTINUOUS
10
3.6397637795275588
20
-2.8657716535433071
11
3.6431537007874013
21
-2.8664459448818898
0
LINE
8
BLACK
6
CONTINUOUS
10
4.2554543307086616
20
-2.830376377952756
11
4.1767141732283459
21
-2.830376377952756
0
LINE
8
BLACK
6
CONTINUOUS
10
4.1767141732283459
20
-2.830376377952756
11
4.1767141732283459
21
-2.7713212598425194
0
LINE
8
BLACK
6
CONTINUOUS
10
4.1767141732283459
20
-2.7713212598425194
11
4.2554543307086616
21
-2.7713212598425194
0
LINE
8
BLACK
6
CONTINUOUS
10
4.2554543307086616
20
-2.7713212598425194
11
4.2554543307086616
21
-2.830376377952756
0
LINE
8
BLACK
6
CONTINUOUS
10
4.1092324409448819
20
-2.7936971259842518
11
4.1121062598425198
21
-2.7956173622047245
0
LINE
8
BLACK
6
CONTINUOUS
10
4.1121062598425198
20
-2.7956173622047245
11
4.1140264960629924
21
-2.7984911811023623
0
LINE
8
BLACK
6
CONTINUOUS
10
4.1140264960629924
20
-2.7984911811023623
11
4.1147007874015751
21
-2.8018811023622048
0
LINE
8
BLACK
6
CONTINUOUS
10
4.1147007874015751
20
-2.8018811023622048
11
4.1147007874015751
21
-2.8195976377952756
0
LINE
8
BLACK
6
CONTINUOUS
10
4.1147007874015751
20
-2.8195976377952756
11
4.1140264960629924
21
-2.8229875590551181
0
LINE
8
BLACK
6
CONTINUOUS
10
4.1140264960629924
20
-2.8229875590551181
11
4.1121062598425198
21
-2.8258613779527559
0
LINE
8
BLACK
6
CONTINUOUS
10
4.1121062598425198
20
-2.8258613779527559
11
4.1092324409448819
21
-2.8277816141732282
0
LINE
8
BLACK
6
CONTINUOUS
10
4.1092324409448819
20
-2.8277816141732282
11
4.105842519685039
21
-2.8284559055118108
0
LINE
8
BLACK
6
CONTINUOUS
10
4.105842519685039
20
-2.8284559055118108
11
4.0861574803149603
21
-2.8284559055118108
0
LINE
8
BLACK
6
CONTINUOUS
10
4.0861574803149603
20
-2.8284559055118108
11
4.0827675590551182
21
-2.8277816141732282
0
LINE
8
BLACK
6
CONTINUOUS
10
4.0827675590551182
20
-2.8277816141732282
11
4.0798937401574804
21
-2.8258613779527559
0
LINE
8
BLACK
6
CONTINUOUS
10
4.0798937401574804
20
-2.8258613779527559
11
4.0779735039370077
21
-2.8229875590551181
0
LINE
8
BLACK
6
CONTINUOUS
10
4.0779735039370077
20
-2.8229875590551181
11
4.0772992125984251
21
-2.8195976377952756
0
LINE
8
BLACK
6
CONTINUOUS
10
4.0772992125984251
20
-2.8195976377952756
11
4.0772992125984251
21
-2.8018811023622048
0
LINE
8
BLACK
6
CONTINUOUS
10
4.0772992125984251
20
-2.8018811023622048
11
4.0779735039370077
21
-2.7984911811023623
0
LINE
8
BLACK
6
CONTINUOUS
10
4.0779735039370077
20
-2.7984911811023623
11
4.0798937401574804
21
-2.7956173622047245
0
LINE
8
BLACK
6
CONTINUOUS
10
4.0798937401574804
20
-2.7956173622047245
11
4.0827675590551182
21
-2.7936971259842518
0
LINE
8
BLACK
6
CONTINUOUS
10
4.0827675590551182
20
-2.7936971259842518
11
4.0861574803149603
21
-2.7930228346456691
0
LINE
8
BLACK
6
CONTINUOUS
10
4.0861574803149603
20
-2.7930228346456691
11
4.105842519685039
21
-2.7930228346456691
0
LINE
8
BLACK
6
CONTINUOUS
10
4.105842519685039
20
-2.7930228346456691
11
4.1092324409448819
21
-2.7936971259842518
0
LINE
8
BLACK
6
CONTINUOUS
10
3.7578740157480315
20
-2.8233275590551181
11
3.6791338582677167
21
-2.8233275590551181
0
LINE
8
BLACK
6
CONTINUOUS
10
3.6791338582677167
20
-2.8233275590551181
11
3.6791338582677167
21
-2.764272440944882
0
LINE
8
BLACK
6
CONTINUOUS
10
3.6791338582677167
20
-2.764272440944882
11
3.7578740157480315
21
-2.764272440944882
0
LINE
8
BLACK
6
CONTINUOUS
10
3.7578740157480315
20
-2.764272440944882
11
3.7578740157480315
21
-2.8233275590551181
0
LINE
8
BLACK
6
CONTINUOUS
10
3.577736377952756
20
-2.7759735039370077
11
3.5806101968503938
21
-2.7778937401574804
0
LINE
8
BLACK
6
CONTINUOUS
10
3.5806101968503938
20
-2.7778937401574804
11
3.582530433070866
21
-2.7807675590551182
0
LINE
8
BLACK
6
CONTINUOUS
10
3.582530433070866
20
-2.7807675590551182
11
3.5832047244094487
21
-2.7841574803149607
0
LINE
8
BLACK
6
CONTINUOUS
10
3.5832047244094487
20
-2.7841574803149607
11
3.5832047244094487
21
-2.8038425196850394
0
LINE
8
BLACK
6
CONTINUOUS
10
3.5832047244094487
20
-2.8038425196850394
11
3.582530433070866
21
-2.8072324409448819
0
LINE
8
BLACK
6
CONTINUOUS
10
3.582530433070866
20
-2.8072324409448819
11
3.5806101968503938
21
-2.8101062598425197
0
LINE
8
BLACK
6
CONTINUOUS
10
3.5806101968503938
20
-2.8101062598425197
11
3.577736377952756
21
-2.8120264960629919
0
LINE
8
BLACK
6
CONTINUOUS
10
3.577736377952756
20
-2.8120264960629919
11
3.5743464566929135
21
-2.8127007874015746
0
LINE
8
BLACK
6
CONTINUOUS
10
3.5743464566929135
20
-2.8127007874015746
11
3.5566299212598422
21
-2.8127007874015746
0
LINE
8
BLACK
6
CONTINUOUS
10
3.5566299212598422
20
-2.8127007874015746
11
3.5532399999999997
21
-2.8120264960629919
0
LINE
8
BLACK
6
CONTINUOUS
10
3.5532399999999997
20
-2.8120264960629919
11
3.5503661811023619
21
-2.8101062598425197
0
LINE
8
BLACK
6
CONTINUOUS
10
3.5503661811023619
20
-2.8101062598425197
11
3.5484459448818897
21
-2.8072324409448819
0
LINE
8
BLACK
6
CONTINUOUS
10
3.5484459448818897
20
-2.8072324409448819
11
3.547771653543307
21
-2.8038425196850394
0
LINE
8
BLACK
6
CONTINUOUS
10
3.547771653543307
20
-2.8038425196850394
11
3.547771653543307
21
-2.7841574803149607
0
LINE
8
BLACK
6
CONTINUOUS
10
3.547771653543307
20
-2.7841574803149607
11
3.5484459448818897
21
-2.7807675590551182
0
LINE
8
BLACK
6
CONTINUOUS
10
3.5484459448818897
20
-2.7807675590551182
11
3.5503661811023619
21
-2.7778937401574804
0
LINE
8
BLACK
6
CONTINUOUS
10
3.5503661811023619
20
-2.7778937401574804
11
3.5532399999999997
21
-2.7759735039370077
0
LINE
8
BLACK
6
CONTINUOUS
10
3.5532399999999997
20
-2.7759735039370077
11
3.5566299212598422
21
-2.775299212598425
0
LINE
8
BLACK
6
CONTINUOUS
10
3.5566299212598422
20
-2.775299212598425
11
3.5743464566929135
21
-2.775299212598425
0
LINE
8
BLACK
6
CONTINUOUS
10
3.5743464566929135
20
-2.775299212598425
11
3.577736377952756
21
-2.7759735039370077
0
LINE
8
BLACK
6
CONTINUOUS
10
3.63876
20
-2.7759735039370077
11
3.6416338188976378
21
-2.7778937401574804
0
LINE
8
BLACK
6
CONTINUOUS
10
3.6416338188976378
20
-2.7778937401574804
11
3.64355405511811
21
-2.7807675590551182
0
LINE
8
BLACK
6
CONTINUOUS
10
3.64355405511811
20
-2.7807675590551182
11
3.6442283464566927
21
-2.7841574803149607
0
LINE
8
BLACK
6
CONTINUOUS
10
3.6442283464566927
20
-2.7841574803149607
11
3.6442283464566927
21
-2.8038425196850394
0
LINE
8
BLACK
6
CONTINUOUS
10
3.6442283464566927
20
-2.8038425196850394
11
3.64355405511811
21
-2.8072324409448819
0
LINE
8
BLACK
6
CONTINUOUS
10
3.64355405511811
20
-2.8072324409448819
11
3.6416338188976378
21
-2.8101062598425197
0
LINE
8
BLACK
6
CONTINUOUS
10
3.6416338188976378
20
-2.8101062598425197
11
3.63876
21
-2.8120264960629919
0
LINE
8
BLACK
6
CONTINUOUS
10
3.63876
20
-2.8120264960629919
11
3.6353700787401575
21
-2.8127007874015746
0
LINE
8
BLACK
6
CONTINUOUS
10
3.6353700787401575
20
-2.8127007874015746
11
3.6176535433070867
21
-2.8127007874015746
0
LINE
8
BLACK
6
CONTINUOUS
10
3.6176535433070867
20
-2.8127007874015746
11
3.6142636220472442
21
-2.8120264960629919
0
LINE
8
BLACK
6
CONTINUOUS
10
3.6142636220472442
20
-2.8120264960629919
11
3.6113898031496063
21
-2.8101062598425197
0
LINE
8
BLACK
6
CONTINUOUS
10
3.6113898031496063
20
-2.8101062598425197
11
3.6094695669291337
21
-2.8072324409448819
0
LINE
8
BLACK
6
CONTINUOUS
10
3.6094695669291337
20
-2.8072324409448819
11
3.608795275590551
21
-2.8038425196850394
0
LINE
8
BLACK
6
CONTINUOUS
10
3.608795275590551
20
-2.8038425196850394
11
3.608795275590551
21
-2.7841574803149607
0
LINE
8
BLACK
6
CONTINUOUS
10
3.608795275590551
20
-2.7841574803149607
11
3.6094695669291337
21
-2.7807675590551182
0
LINE
8
BLACK
6
CONTINUOUS
10
3.6094695669291337
20
-2.7807675590551182
11
3.6113898031496063
21
-2.7778937401574804
0
LINE
8
BLACK
6
CONTINUOUS
10
3.6113898031496063
20
-2.7778937401574804
11
3.6142636220472442
21
-2.7759735039370077
0
LINE
8
BLACK
6
CONTINUOUS
10
3.6142636220472442
20
-2.7759735039370077
11
3.6176535433070867
21
-2.775299212598425
0
LINE
8
BLACK
6
CONTINUOUS
10
3.6176535433070867
20
-2.775299212598425
11
3.6353700787401575
21
-2.775299212598425
0
LINE
8
BLACK
6
CONTINUOUS
10
3.6353700787401575
20
-2.775299212598425
11
3.63876
21
-2.7759735039370077
0
LINE
8
BLACK
6
CONTINUOUS
10
4.1092324409448819
20
-2.7326735039370078
11
4.1121062598425198
21
-2.7345937401574805
0
LINE
8
BLACK
6
CONTINUOUS
10
4.1121062598425198
20
-2.7345937401574805
11
4.1140264960629924
21
-2.7374675590551178
0
LINE
8
BLACK
6
CONTINUOUS
10
4.1140264960629924
20
-2.7374675590551178
11
4.1147007874015751
21
-2.7408574803149603
0
LINE
8
BLACK
6
CONTINUOUS
10
4.1147007874015751
20
-2.7408574803149603
11
4.1147007874015751
21
-2.7585740157480316
0
LINE
8
BLACK
6
CONTINUOUS
10
4.1147007874015751
20
-2.7585740157480316
11
4.1140264960629924
21
-2.7619639370078741
0
LINE
8
BLACK
6
CONTINUOUS
10
4.1140264960629924
20
-2.7619639370078741
11
4.1121062598425198
21
-2.764837755905512
0
LINE
8
BLACK
6
CONTINUOUS
10
4.1121062598425198
20
-2.764837755905512
11
4.1092324409448819
21
-2.7667579921259842
0
LINE
8
BLACK
6
CONTINUOUS
10
4.1092324409448819
20
-2.7667579921259842
11
4.105842519685039
21
-2.7674322834645668
0
LINE
8
BLACK
6
CONTINUOUS
10
4.105842519685039
20
-2.7674322834645668
11
4.0861574803149603
21
-2.7674322834645668
0
LINE
8
BLACK
6
CONTINUOUS
10
4.0861574803149603
20
-2.7674322834645668
11
4.0827675590551182
21
-2.7667579921259842
0
LINE
8
BLACK
6
CONTINUOUS
10
4.0827675590551182
20
-2.7667579921259842
11
4.0798937401574804
21
-2.764837755905512
0
LINE
8
BLACK
6
CONTINUOUS
10
4.0798937401574804
20
-2.764837755905512
11
4.0779735039370077
21
-2.7619639370078741
0
LINE
8
BLACK
6
CONTINUOUS
10
4.0779735039370077
20
-2.7619639370078741
11
4.0772992125984251
21
-2.7585740157480316
0
LINE
8
BLACK
6
CONTINUOUS
10
4.0772992125984251
20
-2.7585740157480316
11
4.0772992125984251
21
-2.7408574803149603
0
LINE
8
BLACK
6
CONTINUOUS
10
4.0772992125984251
20
-2.7408574803149603
11
4.0779735039370077
21
-2.7374675590551178
0
LINE
8
BLACK
6
CONTINUOUS
10
4.0779735039370077
20
-2.7374675590551178
11
4.0798937401574804
21
-2.7345937401574805
0
LINE
8
BLACK
6
CONTINUOUS
10
4.0798937401574804
20
-2.7345937401574805
11
4.0827675590551182
21
-2.7326735039370078
0
LINE
8
BLACK
6
CONTINUOUS
10
4.0827675590551182
20
-2.7326735039370078
11
4.0861574803149603
21
-2.7319992125984252
0
LINE
8
BLACK
6
CONTINUOUS
10
4.0861574803149603
20
-2.7319992125984252
11
4.105842519685039
21
-2.7319992125984252
0
LINE
8
BLACK
6
CONTINUOUS
10
4.105842519685039
20
-2.7319992125984252
11
4.1092324409448819
21
-2.7326735039370078
0
LINE
8
BLACK
6
CONTINUOUS
10
4.1654639370078739
20
-2.6985089370078739
11
4.1683377559055117
21
-2.7004291732283465
0
LINE
8
BLACK
6
CONTINUOUS
10
4.1683377559055117
20
-2.7004291732283465
11
4.1702579921259844
21
-2.7033029921259843
0
LINE
8
BLACK
6
CONTINUOUS
10
4.1702579921259844
20
-2.7033029921259843
11
4.170932283464567
21
-2.7066929133858268
0
LINE
8
BLACK
6
CONTINUOUS
10
4.170932283464567
20
-2.7066929133858268
11
4.170932283464567
21
-2.7263779527559056
0
LINE
8
BLACK
6
CONTINUOUS
10
4.170932283464567
20
-2.7263779527559056
11
4.1702579921259844
21
-2.7297678740157481
0
LINE
8
BLACK
6
CONTINUOUS
10
4.1702579921259844
20
-2.7297678740157481
11
4.1683377559055117
21
-2.7326416929133859
0
LINE
8
BLACK
6
CONTINUOUS
10
4.1683377559055117
20
-2.7326416929133859
11
4.1654639370078739
21
-2.7345619291338581
0
LINE
8
BLACK
6
CONTINUOUS
10
4.1654639370078739
20
-2.7345619291338581
11
4.1620740157480318
21
-2.7352362204724407
0
LINE
8
BLACK
6
CONTINUOUS
10
4.1620740157480318
20
-2.7352362204724407
11
4.1443574803149605
21
-2.7352362204724407
0
LINE
8
BLACK
6
CONTINUOUS
10
4.1443574803149605
20
-2.7352362204724407
11
4.1409675590551176
21
-2.7345619291338581
0
LINE
8
BLACK
6
CONTINUOUS
10
4.1409675590551176
20
-2.7345619291338581
11
4.1380937401574807
21
-2.7326416929133859
0
LINE
8
BLACK
6
CONTINUOUS
10
4.1380937401574807
20
-2.7326416929133859
11
4.136173503937008
21
-2.7297678740157481
0
LINE
8
BLACK
6
CONTINUOUS
10
4.136173503937008
20
-2.7297678740157481
11
4.1354992125984253
21
-2.7263779527559056
0
LINE
8
BLACK
6
CONTINUOUS
10
4.1354992125984253
20
-2.7263779527559056
11
4.1354992125984253
21
-2.7066929133858268
0
LINE
8
BLACK
6
CONTINUOUS
10
4.1354992125984253
20
-2.7066929133858268
11
4.136173503937008
21
-2.7033029921259843
0
LINE
8
BLACK
6
CONTINUOUS
10
4.136173503937008
20
-2.7033029921259843
11
4.1380937401574807
21
-2.7004291732283465
0
LINE
8
BLACK
6
CONTINUOUS
10
4.1380937401574807
20
-2.7004291732283465
11
4.1409675590551176
21
-2.6985089370078739
0
LINE
8
BLACK
6
CONTINUOUS
10
4.1409675590551176
20
-2.6985089370078739
11
4.1443574803149605
21
-2.6978346456692912
0
LINE
8
BLACK
6
CONTINUOUS
10
4.1443574803149605
20
-2.6978346456692912
11
4.1620740157480318
21
-2.6978346456692912
0
LINE
8
BLACK
6
CONTINUOUS
10
4.1620740157480318
20
-2.6978346456692912
11
4.1654639370078739
21
-2.6985089370078739
0
LINE
8
BLACK
6
CONTINUOUS
10
4.2264875590551183
20
-2.6985089370078739
11
4.2293613779527561
21
-2.7004291732283465
0
LINE
8
BLACK
6
CONTINUOUS
10
4.2293613779527561
20
-2.7004291732283465
11
4.2312816141732279
21
-2.7033029921259843
0
LINE
8
BLACK
6
CONTINUOUS
10
4.2312816141732279
20
-2.7033029921259843
11
4.2319559055118106
21
-2.7066929133858268
0
LINE
8
BLACK
6
CONTINUOUS
10
4.2319559055118106
20
-2.7066929133858268
11
4.2319559055118106
21
-2.7263779527559056
0
LINE
8
BLACK
6
CONTINUOUS
10
4.2319559055118106
20
-2.7263779527559056
11
4.2312816141732279
21
-2.7297678740157481
0
LINE
8
BLACK
6
CONTINUOUS
10
4.2312816141732279
20
-2.7297678740157481
11
4.2293613779527561
21
-2.7326416929133859
0
LINE
8
BLACK
6
CONTINUOUS
10
4.2293613779527561
20
-2.7326416929133859
11
4.2264875590551183
21
-2.7345619291338581
0
LINE
8
BLACK
6
CONTINUOUS
10
4.2264875590551183
20
-2.7345619291338581
11
4.2230976377952754
21
-2.7352362204724407
0
LINE
8
BLACK
6
CONTINUOUS
10
4.2230976377952754
20
-2.7352362204724407
11
4.205381102362205
21
-2.7352362204724407
0
LINE
8
BLACK
6
CONTINUOUS
10
4.205381102362205
20
-2.7352362204724407
11
4.201991181102362
21
-2.7345619291338581
0
LINE
8
BLACK
6
CONTINUOUS
10
4.201991181102362
20
-2.7345619291338581
11
4.1991173622047242
21
-2.7326416929133859
0
LINE
8
BLACK
6
CONTINUOUS
10
4.1991173622047242
20
-2.7326416929133859
11
4.1971971259842515
21
-2.7297678740157481
0
LINE
8
BLACK
6
CONTINUOUS
10
4.1971971259842515
20
-2.7297678740157481
11
4.1965228346456689
21
-2.7263779527559056
0
LINE
8
BLACK
6
CONTINUOUS
10
4.1965228346456689
20
-2.7263779527559056
11
4.1965228346456689
21
-2.7066929133858268
0
LINE
8
BLACK
6
CONTINUOUS
10
4.1965228346456689
20
-2.7066929133858268
11
4.1971971259842515
21
-2.7033029921259843
0
LINE
8
BLACK
6
CONTINUOUS
10
4.1971971259842515
20
-2.7033029921259843
11
4.1991173622047242
21
-2.7004291732283465
0
LINE
8
BLACK
6
CONTINUOUS
10
4.1991173622047242
20
-2.7004291732283465
11
4.201991181102362
21
-2.6985089370078739
0
LINE
8
BLACK
6
CONTINUOUS
10
4.201991181102362
20
-2.6985089370078739
11
4.205381102362205
21
-2.6978346456692912
0
LINE
8
BLACK
6
CONTINUOUS
10
4.205381102362205
20
-2.6978346456692912
11
4.2230976377952754
21
-2.6978346456692912
0
LINE
8
BLACK
6
CONTINUOUS
10
4.2230976377952754
20
-2.6978346456692912
11
4.2264875590551183
21
-2.6985089370078739
  0
ENDSEC
  0
EOF
