  0
SECTION
  2
HEADER
  9
$ANGBASE
  50
0.0
  9
$ANGDIR
  70
1
  9
$MEASUREMENT
  70
0
  0
ENDSEC
  0
SECTION
  2
TABLES
  0
TABLE
  2
LTYPE
  70
4
  0
LTYPE
  5
40F
  2
CONTINUOUS
  70
0
  3
Solid line
  72
65
  73
0
  40
0.0
  0
LTYPE
  5
410
  2
DASHDOT
 70
0
  3
Dash Dot ____ _ ____ _
 72
65
 73
4
 40
2.0
 49
1.25
 49
-0.25
 49
0.25
 49
-0.25
  0
LTYPE
  5
411
  2
DASHED
 70
0
  3
Dashed __ __ __ __ __
 72
65
 73
2
 40
0.75
 49
0.5
 49
-0.25
  0
LTYPE
  5
43B
  2
DOTTED
 70
0
  3
Dotted .  .  .  .
 72
65
 73
2
 40
0.2
 49
0.0
 49
-0.2
  0
ENDTAB
  0
TABLE
  2
STYLE
  70
4
  0
STYLE
  2
KICAD
  70
0
  40
0
  41
1
  42
1
  50
0
  71
0
  3
isocp.shx
  0
STYLE
  2
KICADB
  70
0
  40
0
  41
1
  42
1
  50
0
  71
0
  3
isocp.shx
  0
STYLE
  2
KICADI
  70
0
  40
0
  41
1
  42
1
  50
15
  71
0
  3
isocp.shx
  0
STYLE
  2
KICADBI
  70
0
  40
0
  41
1
  42
1
  50
15
  71
0
  3
isocp.shx
  0
ENDTAB
  0
TABLE
  2
LAYER
  70
1
  0
LAYER
  2
BLACK
  70
0
  62
7
  6
CONTINUOUS
  0
ENDTAB
  0
ENDSEC
  0
SECTION
  2
ENTITIES
0
LINE
8
BLACK
6
CONTINUOUS
10
3.53856
20
-4.91526
11
3.53828
21
-4.91457
0
LINE
8
BLACK
6
CONTINUOUS
10
3.53828
20
-4.91457
11
3.53828
21
-4.79803
0
LINE
8
BLACK
6
CONTINUOUS
10
3.53828
20
-4.79803
11
3.53856
21
-4.79734
0
LINE
8
BLACK
6
CONTINUOUS
10
3.53856
20
-4.79734
11
3.53926
21
-4.79705
0
LINE
8
BLACK
6
CONTINUOUS
10
3.53926
20
-4.79705
11
3.59674
21
-4.79705
0
LINE
8
BLACK
6
CONTINUOUS
10
3.59674
20
-4.79705
11
3.59744
21
-4.79734
0
LINE
8
BLACK
6
CONTINUOUS
10
3.59744
20
-4.79734
11
3.59772
21
-4.79803
0
LINE
8
BLACK
6
CONTINUOUS
10
3.59772
20
-4.79803
11
3.59772
21
-4.91457
0
LINE
8
BLACK
6
CONTINUOUS
10
3.59772
20
-4.91457
11
3.59744
21
-4.91526
0
LINE
8
BLACK
6
CONTINUOUS
10
3.59744
20
-4.91526
11
3.59674
21
-4.91555
0
LINE
8
BLACK
6
CONTINUOUS
10
3.59674
20
-4.91555
11
3.53926
21
-4.91555
0
LINE
8
BLACK
6
CONTINUOUS
10
3.53926
20
-4.91555
11
3.53856
21
-4.91526
0
LINE
8
BLACK
6
CONTINUOUS
10
3.54024
20
-4.79902
11
3.54024
21
-4.91358
0
LINE
8
BLACK
6
CONTINUOUS
10
3.54024
20
-4.91358
11
3.59576
21
-4.91358
0
LINE
8
BLACK
6
CONTINUOUS
10
3.59576
20
-4.91358
11
3.59576
21
-4.79902
0
LINE
8
BLACK
6
CONTINUOUS
10
3.59576
20
-4.79902
11
3.54024
21
-4.79902
0
LINE
8
BLACK
6
CONTINUOUS
10
4.35056
20
-4.39944
11
4.35028
21
-4.39874
0
LINE
8
BLACK
6
CONTINUOUS
10
4.35028
20
-4.39874
11
4.35028
21
-4.2822
0
LINE
8
BLACK
6
CONTINUOUS
10
4.35028
20
-4.2822
11
4.35056
21
-4.28151
0
LINE
8
BLACK
6
CONTINUOUS
10
4.35056
20
-4.28151
11
4.35126
21
-4.28122
0
LINE
8
BLACK
6
CONTINUOUS
10
4.35126
20
-4.28122
11
4.40874
21
-4.28122
0
LINE
8
BLACK
6
CONTINUOUS
10
4.40874
20
-4.28122
11
4.40944
21
-4.28151
0
LINE
8
BLACK
6
CONTINUOUS
10
4.40944
20
-4.28151
11
4.40972
21
-4.2822
0
LINE
8
BLACK
6
CONTINUOUS
10
4.40972
20
-4.2822
11
4.40972
21
-4.39874
0
LINE
8
BLACK
6
CONTINUOUS
10
4.40972
20
-4.39874
11
4.40944
21
-4.39944
0
LINE
8
BLACK
6
CONTINUOUS
10
4.40944
20
-4.39944
11
4.40874
21
-4.39972
0
LINE
8
BLACK
6
CONTINUOUS
10
4.40874
20
-4.39972
11
4.35126
21
-4.39972
0
LINE
8
BLACK
6
CONTINUOUS
10
4.35126
20
-4.39972
11
4.35056
21
-4.39944
0
LINE
8
BLACK
6
CONTINUOUS
10
4.35224
20
-4.28319
11
4.35224
21
-4.39776
0
LINE
8
BLACK
6
CONTINUOUS
10
4.35224
20
-4.39776
11
4.40776
21
-4.39776
0
LINE
8
BLACK
6
CONTINUOUS
10
4.40776
20
-4.39776
11
4.40776
21
-4.28319
0
LINE
8
BLACK
6
CONTINUOUS
10
4.40776
20
-4.28319
11
4.35224
21
-4.28319
0
LINE
8
BLACK
6
CONTINUOUS
10
4.29056
20
-4.39896
11
4.29028
21
-4.39827
0
LINE
8
BLACK
6
CONTINUOUS
10
4.29028
20
-4.39827
11
4.29028
21
-4.28173
0
LINE
8
BLACK
6
CONTINUOUS
10
4.29028
20
-4.28173
11
4.29056
21
-4.28104
0
LINE
8
BLACK
6
CONTINUOUS
10
4.29056
20
-4.28104
11
4.29126
21
-4.28075
0
LINE
8
BLACK
6
CONTINUOUS
10
4.29126
20
-4.28075
11
4.34874
21
-4.28075
0
LINE
8
BLACK
6
CONTINUOUS
10
4.34874
20
-4.28075
11
4.34944
21
-4.28104
0
LINE
8
BLACK
6
CONTINUOUS
10
4.34944
20
-4.28104
11
4.34972
21
-4.28173
0
LINE
8
BLACK
6
CONTINUOUS
10
4.34972
20
-4.28173
11
4.34972
21
-4.39827
0
LINE
8
BLACK
6
CONTINUOUS
10
4.34972
20
-4.39827
11
4.34944
21
-4.39896
0
LINE
8
BLACK
6
CONTINUOUS
10
4.34944
20
-4.39896
11
4.34874
21
-4.39925
0
LINE
8
BLACK
6
CONTINUOUS
10
4.34874
20
-4.39925
11
4.29126
21
-4.39925
0
LINE
8
BLACK
6
CONTINUOUS
10
4.29126
20
-4.39925
11
4.29056
21
-4.39896
0
LINE
8
BLACK
6
CONTINUOUS
10
4.29224
20
-4.28272
11
4.29224
21
-4.39728
0
LINE
8
BLACK
6
CONTINUOUS
10
4.29224
20
-4.39728
11
4.34776
21
-4.39728
0
LINE
8
BLACK
6
CONTINUOUS
10
4.34776
20
-4.39728
11
4.34776
21
-4.28272
0
LINE
8
BLACK
6
CONTINUOUS
10
4.34776
20
-4.28272
11
4.29224
21
-4.28272
0
LINE
8
BLACK
6
CONTINUOUS
10
3.84852
20
-4.37392
11
3.84823
21
-4.37323
0
LINE
8
BLACK
6
CONTINUOUS
10
3.84823
20
-4.37323
11
3.84823
21
-4.25669
0
LINE
8
BLACK
6
CONTINUOUS
10
3.84823
20
-4.25669
11
3.84852
21
-4.256
0
LINE
8
BLACK
6
CONTINUOUS
10
3.84852
20
-4.256
11
3.84921
21
-4.25571
0
LINE
8
BLACK
6
CONTINUOUS
10
3.84921
20
-4.25571
11
3.90669
21
-4.25571
0
LINE
8
BLACK
6
CONTINUOUS
10
3.90669
20
-4.25571
11
3.90739
21
-4.256
0
LINE
8
BLACK
6
CONTINUOUS
10
3.90739
20
-4.256
11
3.90768
21
-4.25669
0
LINE
8
BLACK
6
CONTINUOUS
10
3.90768
20
-4.25669
11
3.90768
21
-4.37323
0
LINE
8
BLACK
6
CONTINUOUS
10
3.90768
20
-4.37323
11
3.90739
21
-4.37392
0
LINE
8
BLACK
6
CONTINUOUS
10
3.90739
20
-4.37392
11
3.90669
21
-4.37421
0
LINE
8
BLACK
6
CONTINUOUS
10
3.90669
20
-4.37421
11
3.84921
21
-4.37421
0
LINE
8
BLACK
6
CONTINUOUS
10
3.84921
20
-4.37421
11
3.84852
21
-4.37392
0
LINE
8
BLACK
6
CONTINUOUS
10
3.8502
20
-4.25768
11
3.8502
21
-4.37224
0
LINE
8
BLACK
6
CONTINUOUS
10
3.8502
20
-4.37224
11
3.90571
21
-4.37224
0
LINE
8
BLACK
6
CONTINUOUS
10
3.90571
20
-4.37224
11
3.90571
21
-4.25768
0
LINE
8
BLACK
6
CONTINUOUS
10
3.90571
20
-4.25768
11
3.8502
21
-4.25768
0
LINE
8
BLACK
6
CONTINUOUS
10
3.76584
20
-4.37392
11
3.76555
21
-4.37323
0
LINE
8
BLACK
6
CONTINUOUS
10
3.76555
20
-4.37323
11
3.76555
21
-4.25669
0
LINE
8
BLACK
6
CONTINUOUS
10
3.76555
20
-4.25669
11
3.76584
21
-4.256
0
LINE
8
BLACK
6
CONTINUOUS
10
3.76584
20
-4.256
11
3.76654
21
-4.25571
0
LINE
8
BLACK
6
CONTINUOUS
10
3.76654
20
-4.25571
11
3.82402
21
-4.25571
0
LINE
8
BLACK
6
CONTINUOUS
10
3.82402
20
-4.25571
11
3.82471
21
-4.256
0
LINE
8
BLACK
6
CONTINUOUS
10
3.82471
20
-4.256
11
3.825
21
-4.25669
0
LINE
8
BLACK
6
CONTINUOUS
10
3.825
20
-4.25669
11
3.825
21
-4.37323
0
LINE
8
BLACK
6
CONTINUOUS
10
3.825
20
-4.37323
11
3.82471
21
-4.37392
0
LINE
8
BLACK
6
CONTINUOUS
10
3.82471
20
-4.37392
11
3.82402
21
-4.37421
0
LINE
8
BLACK
6
CONTINUOUS
10
3.82402
20
-4.37421
11
3.76654
21
-4.37421
0
LINE
8
BLACK
6
CONTINUOUS
10
3.76654
20
-4.37421
11
3.76584
21
-4.37392
0
LINE
8
BLACK
6
CONTINUOUS
10
3.76752
20
-4.25768
11
3.76752
21
-4.37224
0
LINE
8
BLACK
6
CONTINUOUS
10
3.76752
20
-4.37224
11
3.82303
21
-4.37224
0
LINE
8
BLACK
6
CONTINUOUS
10
3.82303
20
-4.37224
11
3.82303
21
-4.25768
0
LINE
8
BLACK
6
CONTINUOUS
10
3.82303
20
-4.25768
11
3.76752
21
-4.25768
0
LINE
8
BLACK
6
CONTINUOUS
10
3.53257
20
-4.36802
11
3.53228
21
-4.36732
0
LINE
8
BLACK
6
CONTINUOUS
10
3.53228
20
-4.36732
11
3.53228
21
-4.30984
0
LINE
8
BLACK
6
CONTINUOUS
10
3.53228
20
-4.30984
11
3.53257
21
-4.30915
0
LINE
8
BLACK
6
CONTINUOUS
10
3.53257
20
-4.30915
11
3.53327
21
-4.30886
0
LINE
8
BLACK
6
CONTINUOUS
10
3.53327
20
-4.30886
11
3.6498
21
-4.30886
0
LINE
8
BLACK
6
CONTINUOUS
10
3.6498
20
-4.30886
11
3.6505
21
-4.30915
0
LINE
8
BLACK
6
CONTINUOUS
10
3.6505
20
-4.30915
11
3.65079
21
-4.30984
0
LINE
8
BLACK
6
CONTINUOUS
10
3.65079
20
-4.30984
11
3.65079
21
-4.36732
0
LINE
8
BLACK
6
CONTINUOUS
10
3.65079
20
-4.36732
11
3.6505
21
-4.36802
0
LINE
8
BLACK
6
CONTINUOUS
10
3.6505
20
-4.36802
11
3.6498
21
-4.36831
0
LINE
8
BLACK
6
CONTINUOUS
10
3.6498
20
-4.36831
11
3.53327
21
-4.36831
0
LINE
8
BLACK
6
CONTINUOUS
10
3.53327
20
-4.36831
11
3.53257
21
-4.36802
0
LINE
8
BLACK
6
CONTINUOUS
10
3.53425
20
-4.31083
11
3.53425
21
-4.36634
0
LINE
8
BLACK
6
CONTINUOUS
10
3.53425
20
-4.36634
11
3.64882
21
-4.36634
0
LINE
8
BLACK
6
CONTINUOUS
10
3.64882
20
-4.36634
11
3.64882
21
-4.31083
0
LINE
8
BLACK
6
CONTINUOUS
10
3.64882
20
-4.31083
11
3.53425
21
-4.31083
0
LINE
8
BLACK
6
CONTINUOUS
10
3.67146
20
-4.15039
11
3.67146
21
-4.26693
0
LINE
8
BLACK
6
CONTINUOUS
10
3.67146
20
-4.26693
11
3.67117
21
-4.26763
0
LINE
8
BLACK
6
CONTINUOUS
10
3.67117
20
-4.26763
11
3.67047
21
-4.26791
0
LINE
8
BLACK
6
CONTINUOUS
10
3.67047
20
-4.26791
11
3.61299
21
-4.26791
0
LINE
8
BLACK
6
CONTINUOUS
10
3.61299
20
-4.26791
11
3.6123
21
-4.26763
0
LINE
8
BLACK
6
CONTINUOUS
10
3.6123
20
-4.26763
11
3.6122
21
-4.2674
0
LINE
8
BLACK
6
CONTINUOUS
10
3.6122
20
-4.2674
11
3.61211
21
-4.26763
0
LINE
8
BLACK
6
CONTINUOUS
10
3.61211
20
-4.26763
11
3.61142
21
-4.26791
0
LINE
8
BLACK
6
CONTINUOUS
10
3.61142
20
-4.26791
11
3.55394
21
-4.26791
0
LINE
8
BLACK
6
CONTINUOUS
10
3.55394
20
-4.26791
11
3.55324
21
-4.26763
0
LINE
8
BLACK
6
CONTINUOUS
10
3.55324
20
-4.26763
11
3.55295
21
-4.26693
0
LINE
8
BLACK
6
CONTINUOUS
10
3.55295
20
-4.26693
11
3.55295
21
-4.15039
0
LINE
8
BLACK
6
CONTINUOUS
10
3.55295
20
-4.15039
11
3.55324
21
-4.1497
0
LINE
8
BLACK
6
CONTINUOUS
10
3.55324
20
-4.1497
11
3.55394
21
-4.14941
0
LINE
8
BLACK
6
CONTINUOUS
10
3.55394
20
-4.14941
11
3.61142
21
-4.14941
0
LINE
8
BLACK
6
CONTINUOUS
10
3.61142
20
-4.14941
11
3.61211
21
-4.1497
0
LINE
8
BLACK
6
CONTINUOUS
10
3.61211
20
-4.1497
11
3.6122
21
-4.14992
0
LINE
8
BLACK
6
CONTINUOUS
10
3.6122
20
-4.14992
11
3.6123
21
-4.1497
0
LINE
8
BLACK
6
CONTINUOUS
10
3.6123
20
-4.1497
11
3.61299
21
-4.14941
0
LINE
8
BLACK
6
CONTINUOUS
10
3.61299
20
-4.14941
11
3.67047
21
-4.14941
0
LINE
8
BLACK
6
CONTINUOUS
10
3.67047
20
-4.14941
11
3.67117
21
-4.1497
0
LINE
8
BLACK
6
CONTINUOUS
10
3.67117
20
-4.1497
11
3.67146
21
-4.15039
0
LINE
8
BLACK
6
CONTINUOUS
10
3.61398
20
-4.15138
11
3.61398
21
-4.26594
0
LINE
8
BLACK
6
CONTINUOUS
10
3.61398
20
-4.26594
11
3.66949
21
-4.26594
0
LINE
8
BLACK
6
CONTINUOUS
10
3.66949
20
-4.26594
11
3.66949
21
-4.15138
0
LINE
8
BLACK
6
CONTINUOUS
10
3.66949
20
-4.15138
11
3.61398
21
-4.15138
0
LINE
8
BLACK
6
CONTINUOUS
10
3.55492
20
-4.15138
11
3.55492
21
-4.26594
0
LINE
8
BLACK
6
CONTINUOUS
10
3.55492
20
-4.26594
11
3.61043
21
-4.26594
0
LINE
8
BLACK
6
CONTINUOUS
10
3.61043
20
-4.26594
11
3.61043
21
-4.15138
0
LINE
8
BLACK
6
CONTINUOUS
10
3.61043
20
-4.15138
11
3.55492
21
-4.15138
0
LINE
8
BLACK
6
CONTINUOUS
10
3.4993
20
-4.19755
11
3.49902
21
-4.19685
0
LINE
8
BLACK
6
CONTINUOUS
10
3.49902
20
-4.19685
11
3.49902
21
-4.11811
0
LINE
8
BLACK
6
CONTINUOUS
10
3.49902
20
-4.11811
11
3.4993
21
-4.11741
0
LINE
8
BLACK
6
CONTINUOUS
10
3.4993
20
-4.11741
11
3.5
21
-4.11713
0
LINE
8
BLACK
6
CONTINUOUS
10
3.5
20
-4.11713
11
3.53937
21
-4.11713
0
LINE
8
BLACK
6
CONTINUOUS
10
3.53937
20
-4.11713
11
3.54007
21
-4.11741
0
LINE
8
BLACK
6
CONTINUOUS
10
3.54007
20
-4.11741
11
3.54035
21
-4.11811
0
LINE
8
BLACK
6
CONTINUOUS
10
3.54035
20
-4.11811
11
3.54035
21
-4.19685
0
LINE
8
BLACK
6
CONTINUOUS
10
3.54035
20
-4.19685
11
3.54007
21
-4.19755
0
LINE
8
BLACK
6
CONTINUOUS
10
3.54007
20
-4.19755
11
3.53937
21
-4.19783
0
LINE
8
BLACK
6
CONTINUOUS
10
3.53937
20
-4.19783
11
3.5
21
-4.19783
0
LINE
8
BLACK
6
CONTINUOUS
10
3.5
20
-4.19783
11
3.4993
21
-4.19755
0
LINE
8
BLACK
6
CONTINUOUS
10
3.50098
20
-4.11909
11
3.50098
21
-4.19587
0
LINE
8
BLACK
6
CONTINUOUS
10
3.50098
20
-4.19587
11
3.53839
21
-4.19587
0
LINE
8
BLACK
6
CONTINUOUS
10
3.53839
20
-4.19587
11
3.53839
21
-4.11909
0
LINE
8
BLACK
6
CONTINUOUS
10
3.53839
20
-4.11909
11
3.50098
21
-4.11909
0
LINE
8
BLACK
6
CONTINUOUS
10
3.4035
20
-4.13433
11
3.40321
21
-4.13363
0
LINE
8
BLACK
6
CONTINUOUS
10
3.40321
20
-4.13363
11
3.40321
21
-3.98797
0
LINE
8
BLACK
6
CONTINUOUS
10
3.40321
20
-3.98797
11
3.4035
21
-3.98727
0
LINE
8
BLACK
6
CONTINUOUS
10
3.4035
20
-3.98727
11
3.4042
21
-3.98698
0
LINE
8
BLACK
6
CONTINUOUS
10
3.4042
20
-3.98698
11
3.479
21
-3.98698
0
LINE
8
BLACK
6
CONTINUOUS
10
3.479
20
-3.98698
11
3.4797
21
-3.98727
0
LINE
8
BLACK
6
CONTINUOUS
10
3.4797
20
-3.98727
11
3.47999
21
-3.98797
0
LINE
8
BLACK
6
CONTINUOUS
10
3.47999
20
-3.98797
11
3.47999
21
-4.13363
0
LINE
8
BLACK
6
CONTINUOUS
10
3.47999
20
-4.13363
11
3.4797
21
-4.13433
0
LINE
8
BLACK
6
CONTINUOUS
10
3.4797
20
-4.13433
11
3.479
21
-4.13462
0
LINE
8
BLACK
6
CONTINUOUS
10
3.479
20
-4.13462
11
3.4042
21
-4.13462
0
LINE
8
BLACK
6
CONTINUOUS
10
3.4042
20
-4.13462
11
3.4035
21
-4.13433
0
LINE
8
BLACK
6
CONTINUOUS
10
3.40518
20
-3.98895
11
3.40518
21
-4.13265
0
LINE
8
BLACK
6
CONTINUOUS
10
3.40518
20
-4.13265
11
3.47802
21
-4.13265
0
LINE
8
BLACK
6
CONTINUOUS
10
3.47802
20
-4.13265
11
3.47802
21
-3.98895
0
LINE
8
BLACK
6
CONTINUOUS
10
3.47802
20
-3.98895
11
3.40518
21
-3.98895
0
LINE
8
BLACK
6
CONTINUOUS
10
3.38297
20
-3.97432
11
3.38268
21
-3.97362
0
LINE
8
BLACK
6
CONTINUOUS
10
3.38268
20
-3.97362
11
3.38268
21
-3.91614
0
LINE
8
BLACK
6
CONTINUOUS
10
3.38268
20
-3.91614
11
3.38297
21
-3.91545
0
LINE
8
BLACK
6
CONTINUOUS
10
3.38297
20
-3.91545
11
3.38366
21
-3.91516
0
LINE
8
BLACK
6
CONTINUOUS
10
3.38366
20
-3.91516
11
3.5002
21
-3.91516
0
LINE
8
BLACK
6
CONTINUOUS
10
3.5002
20
-3.91516
11
3.50089
21
-3.91545
0
LINE
8
BLACK
6
CONTINUOUS
10
3.50089
20
-3.91545
11
3.50118
21
-3.91614
0
LINE
8
BLACK
6
CONTINUOUS
10
3.50118
20
-3.91614
11
3.50118
21
-3.97362
0
LINE
8
BLACK
6
CONTINUOUS
10
3.50118
20
-3.97362
11
3.50089
21
-3.97432
0
LINE
8
BLACK
6
CONTINUOUS
10
3.50089
20
-3.97432
11
3.5002
21
-3.97461
0
LINE
8
BLACK
6
CONTINUOUS
10
3.5002
20
-3.97461
11
3.38366
21
-3.97461
0
LINE
8
BLACK
6
CONTINUOUS
10
3.38366
20
-3.97461
11
3.38297
21
-3.97432
0
LINE
8
BLACK
6
CONTINUOUS
10
3.38465
20
-3.91713
11
3.38465
21
-3.97264
0
LINE
8
BLACK
6
CONTINUOUS
10
3.38465
20
-3.97264
11
3.49921
21
-3.97264
0
LINE
8
BLACK
6
CONTINUOUS
10
3.49921
20
-3.97264
11
3.49921
21
-3.91713
0
LINE
8
BLACK
6
CONTINUOUS
10
3.49921
20
-3.91713
11
3.38465
21
-3.91713
0
LINE
8
BLACK
6
CONTINUOUS
10
3.506
20
-3.85522
11
3.50571
21
-3.85453
0
LINE
8
BLACK
6
CONTINUOUS
10
3.50571
20
-3.85453
11
3.50571
21
-3.73819
0
LINE
8
BLACK
6
CONTINUOUS
10
3.50571
20
-3.73819
11
3.49016
21
-3.73819
0
LINE
8
BLACK
6
CONTINUOUS
10
3.49016
20
-3.73819
11
3.48946
21
-3.7379
0
LINE
8
BLACK
6
CONTINUOUS
10
3.48946
20
-3.7379
11
3.48917
21
-3.7372
0
LINE
8
BLACK
6
CONTINUOUS
10
3.48917
20
-3.7372
11
3.48917
21
-3.59154
0
LINE
8
BLACK
6
CONTINUOUS
10
3.48917
20
-3.59154
11
3.48946
21
-3.59084
0
LINE
8
BLACK
6
CONTINUOUS
10
3.48946
20
-3.59084
11
3.49016
21
-3.59055
0
LINE
8
BLACK
6
CONTINUOUS
10
3.49016
20
-3.59055
11
3.56496
21
-3.59055
0
LINE
8
BLACK
6
CONTINUOUS
10
3.56496
20
-3.59055
11
3.56566
21
-3.59084
0
LINE
8
BLACK
6
CONTINUOUS
10
3.56566
20
-3.59084
11
3.56594
21
-3.59154
0
LINE
8
BLACK
6
CONTINUOUS
10
3.56594
20
-3.59154
11
3.56594
21
-3.7372
0
LINE
8
BLACK
6
CONTINUOUS
10
3.56594
20
-3.7372
11
3.56566
21
-3.7379
0
LINE
8
BLACK
6
CONTINUOUS
10
3.56566
20
-3.7379
11
3.56516
21
-3.73811
0
LINE
8
BLACK
6
CONTINUOUS
10
3.56516
20
-3.73811
11
3.56516
21
-3.85453
0
LINE
8
BLACK
6
CONTINUOUS
10
3.56516
20
-3.85453
11
3.56487
21
-3.85522
0
LINE
8
BLACK
6
CONTINUOUS
10
3.56487
20
-3.85522
11
3.56417
21
-3.85551
0
LINE
8
BLACK
6
CONTINUOUS
10
3.56417
20
-3.85551
11
3.50669
21
-3.85551
0
LINE
8
BLACK
6
CONTINUOUS
10
3.50669
20
-3.85551
11
3.506
21
-3.85522
0
LINE
8
BLACK
6
CONTINUOUS
10
3.50768
20
-3.73898
11
3.50768
21
-3.85354
0
LINE
8
BLACK
6
CONTINUOUS
10
3.50768
20
-3.85354
11
3.56319
21
-3.85354
0
LINE
8
BLACK
6
CONTINUOUS
10
3.56319
20
-3.85354
11
3.56319
21
-3.73898
0
LINE
8
BLACK
6
CONTINUOUS
10
3.56319
20
-3.73898
11
3.50768
21
-3.73898
0
LINE
8
BLACK
6
CONTINUOUS
10
3.49114
20
-3.59252
11
3.49114
21
-3.73622
0
LINE
8
BLACK
6
CONTINUOUS
10
3.49114
20
-3.73622
11
3.56398
21
-3.73622
0
LINE
8
BLACK
6
CONTINUOUS
10
3.56398
20
-3.73622
11
3.56398
21
-3.59252
0
LINE
8
BLACK
6
CONTINUOUS
10
3.56398
20
-3.59252
11
3.49114
21
-3.59252
0
LINE
8
BLACK
6
CONTINUOUS
10
3.63592
20
-3.79796
11
3.63563
21
-3.79727
0
LINE
8
BLACK
6
CONTINUOUS
10
3.63563
20
-3.79727
11
3.63563
21
-3.68073
0
LINE
8
BLACK
6
CONTINUOUS
10
3.63563
20
-3.68073
11
3.63592
21
-3.68004
0
LINE
8
BLACK
6
CONTINUOUS
10
3.63592
20
-3.68004
11
3.63661
21
-3.67975
0
LINE
8
BLACK
6
CONTINUOUS
10
3.63661
20
-3.67975
11
3.69409
21
-3.67975
0
LINE
8
BLACK
6
CONTINUOUS
10
3.69409
20
-3.67975
11
3.69479
21
-3.68004
0
LINE
8
BLACK
6
CONTINUOUS
10
3.69479
20
-3.68004
11
3.69508
21
-3.68073
0
LINE
8
BLACK
6
CONTINUOUS
10
3.69508
20
-3.68073
11
3.69508
21
-3.79727
0
LINE
8
BLACK
6
CONTINUOUS
10
3.69508
20
-3.79727
11
3.69479
21
-3.79796
0
LINE
8
BLACK
6
CONTINUOUS
10
3.69479
20
-3.79796
11
3.69409
21
-3.79825
0
LINE
8
BLACK
6
CONTINUOUS
10
3.69409
20
-3.79825
11
3.63661
21
-3.79825
0
LINE
8
BLACK
6
CONTINUOUS
10
3.63661
20
-3.79825
11
3.63592
21
-3.79796
0
LINE
8
BLACK
6
CONTINUOUS
10
3.6376
20
-3.68172
11
3.6376
21
-3.79628
0
LINE
8
BLACK
6
CONTINUOUS
10
3.6376
20
-3.79628
11
3.69311
21
-3.79628
0
LINE
8
BLACK
6
CONTINUOUS
10
3.69311
20
-3.79628
11
3.69311
21
-3.68172
0
LINE
8
BLACK
6
CONTINUOUS
10
3.69311
20
-3.68172
11
3.6376
21
-3.68172
0
LINE
8
BLACK
6
CONTINUOUS
10
3.56899
20
-3.79796
11
3.5687
21
-3.79727
0
LINE
8
BLACK
6
CONTINUOUS
10
3.5687
20
-3.79727
11
3.5687
21
-3.68073
0
LINE
8
BLACK
6
CONTINUOUS
10
3.5687
20
-3.68073
11
3.56899
21
-3.68004
0
LINE
8
BLACK
6
CONTINUOUS
10
3.56899
20
-3.68004
11
3.56969
21
-3.67975
0
LINE
8
BLACK
6
CONTINUOUS
10
3.56969
20
-3.67975
11
3.62717
21
-3.67975
0
LINE
8
BLACK
6
CONTINUOUS
10
3.62717
20
-3.67975
11
3.62786
21
-3.68004
0
LINE
8
BLACK
6
CONTINUOUS
10
3.62786
20
-3.68004
11
3.62815
21
-3.68073
0
LINE
8
BLACK
6
CONTINUOUS
10
3.62815
20
-3.68073
11
3.62815
21
-3.79727
0
LINE
8
BLACK
6
CONTINUOUS
10
3.62815
20
-3.79727
11
3.62786
21
-3.79796
0
LINE
8
BLACK
6
CONTINUOUS
10
3.62786
20
-3.79796
11
3.62717
21
-3.79825
0
LINE
8
BLACK
6
CONTINUOUS
10
3.62717
20
-3.79825
11
3.56969
21
-3.79825
0
LINE
8
BLACK
6
CONTINUOUS
10
3.56969
20
-3.79825
11
3.56899
21
-3.79796
0
LINE
8
BLACK
6
CONTINUOUS
10
3.57067
20
-3.68172
11
3.57067
21
-3.79628
0
LINE
8
BLACK
6
CONTINUOUS
10
3.57067
20
-3.79628
11
3.62618
21
-3.79628
0
LINE
8
BLACK
6
CONTINUOUS
10
3.62618
20
-3.79628
11
3.62618
21
-3.68172
0
LINE
8
BLACK
6
CONTINUOUS
10
3.62618
20
-3.68172
11
3.57067
21
-3.68172
0
LINE
8
BLACK
6
CONTINUOUS
10
3.71072
20
-3.79789
11
3.71043
21
-3.7972
0
LINE
8
BLACK
6
CONTINUOUS
10
3.71043
20
-3.7972
11
3.71043
21
-3.68066
0
LINE
8
BLACK
6
CONTINUOUS
10
3.71043
20
-3.68066
11
3.71072
21
-3.67996
0
LINE
8
BLACK
6
CONTINUOUS
10
3.71072
20
-3.67996
11
3.71142
21
-3.67968
0
LINE
8
BLACK
6
CONTINUOUS
10
3.71142
20
-3.67968
11
3.7689
21
-3.67968
0
LINE
8
BLACK
6
CONTINUOUS
10
3.7689
20
-3.67968
11
3.76959
21
-3.67996
0
LINE
8
BLACK
6
CONTINUOUS
10
3.76959
20
-3.67996
11
3.76988
21
-3.68066
0
LINE
8
BLACK
6
CONTINUOUS
10
3.76988
20
-3.68066
11
3.76988
21
-3.7972
0
LINE
8
BLACK
6
CONTINUOUS
10
3.76988
20
-3.7972
11
3.76959
21
-3.79789
0
LINE
8
BLACK
6
CONTINUOUS
10
3.76959
20
-3.79789
11
3.7689
21
-3.79818
0
LINE
8
BLACK
6
CONTINUOUS
10
3.7689
20
-3.79818
11
3.71142
21
-3.79818
0
LINE
8
BLACK
6
CONTINUOUS
10
3.71142
20
-3.79818
11
3.71072
21
-3.79789
0
LINE
8
BLACK
6
CONTINUOUS
10
3.7124
20
-3.68164
11
3.7124
21
-3.79621
0
LINE
8
BLACK
6
CONTINUOUS
10
3.7124
20
-3.79621
11
3.76791
21
-3.79621
0
LINE
8
BLACK
6
CONTINUOUS
10
3.76791
20
-3.79621
11
3.76791
21
-3.68164
0
LINE
8
BLACK
6
CONTINUOUS
10
3.76791
20
-3.68164
11
3.7124
21
-3.68164
0
LINE
8
BLACK
6
CONTINUOUS
10
3.73041
20
-3.6564
11
3.73012
21
-3.65571
0
LINE
8
BLACK
6
CONTINUOUS
10
3.73012
20
-3.65571
11
3.73012
21
-3.53917
0
LINE
8
BLACK
6
CONTINUOUS
10
3.73012
20
-3.53917
11
3.73041
21
-3.53848
0
LINE
8
BLACK
6
CONTINUOUS
10
3.73041
20
-3.53848
11
3.7311
21
-3.53819
0
LINE
8
BLACK
6
CONTINUOUS
10
3.7311
20
-3.53819
11
3.78858
21
-3.53819
0
LINE
8
BLACK
6
CONTINUOUS
10
3.78858
20
-3.53819
11
3.78928
21
-3.53848
0
LINE
8
BLACK
6
CONTINUOUS
10
3.78928
20
-3.53848
11
3.78957
21
-3.53917
0
LINE
8
BLACK
6
CONTINUOUS
10
3.78957
20
-3.53917
11
3.78957
21
-3.65571
0
LINE
8
BLACK
6
CONTINUOUS
10
3.78957
20
-3.65571
11
3.78928
21
-3.6564
0
LINE
8
BLACK
6
CONTINUOUS
10
3.78928
20
-3.6564
11
3.78858
21
-3.65669
0
LINE
8
BLACK
6
CONTINUOUS
10
3.78858
20
-3.65669
11
3.7311
21
-3.65669
0
LINE
8
BLACK
6
CONTINUOUS
10
3.7311
20
-3.65669
11
3.73041
21
-3.6564
0
LINE
8
BLACK
6
CONTINUOUS
10
3.73209
20
-3.54016
11
3.73209
21
-3.65472
0
LINE
8
BLACK
6
CONTINUOUS
10
3.73209
20
-3.65472
11
3.7876
21
-3.65472
0
LINE
8
BLACK
6
CONTINUOUS
10
3.7876
20
-3.65472
11
3.7876
21
-3.54016
0
LINE
8
BLACK
6
CONTINUOUS
10
3.7876
20
-3.54016
11
3.73209
21
-3.54016
0
LINE
8
BLACK
6
CONTINUOUS
10
3.45088
20
-3.55011
11
3.45059
21
-3.54941
0
LINE
8
BLACK
6
CONTINUOUS
10
3.45059
20
-3.54941
11
3.45059
21
-3.43287
0
LINE
8
BLACK
6
CONTINUOUS
10
3.45059
20
-3.43287
11
3.45088
21
-3.43218
0
LINE
8
BLACK
6
CONTINUOUS
10
3.45088
20
-3.43218
11
3.4511
21
-3.43209
0
LINE
8
BLACK
6
CONTINUOUS
10
3.4511
20
-3.43209
11
3.45088
21
-3.432
0
LINE
8
BLACK
6
CONTINUOUS
10
3.45088
20
-3.432
11
3.45059
21
-3.4313
0
LINE
8
BLACK
6
CONTINUOUS
10
3.45059
20
-3.4313
11
3.45059
21
-3.31476
0
LINE
8
BLACK
6
CONTINUOUS
10
3.45059
20
-3.31476
11
3.45088
21
-3.31407
0
LINE
8
BLACK
6
CONTINUOUS
10
3.45088
20
-3.31407
11
3.45157
21
-3.31378
0
LINE
8
BLACK
6
CONTINUOUS
10
3.45157
20
-3.31378
11
3.50906
21
-3.31378
0
LINE
8
BLACK
6
CONTINUOUS
10
3.50906
20
-3.31378
11
3.50975
21
-3.31407
0
LINE
8
BLACK
6
CONTINUOUS
10
3.50975
20
-3.31407
11
3.51004
21
-3.31476
0
LINE
8
BLACK
6
CONTINUOUS
10
3.51004
20
-3.31476
11
3.51004
21
-3.4313
0
LINE
8
BLACK
6
CONTINUOUS
10
3.51004
20
-3.4313
11
3.50975
21
-3.432
0
LINE
8
BLACK
6
CONTINUOUS
10
3.50975
20
-3.432
11
3.50953
21
-3.43209
0
LINE
8
BLACK
6
CONTINUOUS
10
3.50953
20
-3.43209
11
3.50975
21
-3.43218
0
LINE
8
BLACK
6
CONTINUOUS
10
3.50975
20
-3.43218
11
3.51004
21
-3.43287
0
LINE
8
BLACK
6
CONTINUOUS
10
3.51004
20
-3.43287
11
3.51004
21
-3.54941
0
LINE
8
BLACK
6
CONTINUOUS
10
3.51004
20
-3.54941
11
3.50975
21
-3.55011
0
LINE
8
BLACK
6
CONTINUOUS
10
3.50975
20
-3.55011
11
3.50906
21
-3.55039
0
LINE
8
BLACK
6
CONTINUOUS
10
3.50906
20
-3.55039
11
3.45157
21
-3.55039
0
LINE
8
BLACK
6
CONTINUOUS
10
3.45157
20
-3.55039
11
3.45088
21
-3.55011
0
LINE
8
BLACK
6
CONTINUOUS
10
3.45256
20
-3.43386
11
3.45256
21
-3.54843
0
LINE
8
BLACK
6
CONTINUOUS
10
3.45256
20
-3.54843
11
3.50807
21
-3.54843
0
LINE
8
BLACK
6
CONTINUOUS
10
3.50807
20
-3.54843
11
3.50807
21
-3.43386
0
LINE
8
BLACK
6
CONTINUOUS
10
3.50807
20
-3.43386
11
3.45256
21
-3.43386
0
LINE
8
BLACK
6
CONTINUOUS
10
3.45256
20
-3.31575
11
3.45256
21
-3.43031
0
LINE
8
BLACK
6
CONTINUOUS
10
3.45256
20
-3.43031
11
3.50807
21
-3.43031
0
LINE
8
BLACK
6
CONTINUOUS
10
3.50807
20
-3.43031
11
3.50807
21
-3.31575
0
LINE
8
BLACK
6
CONTINUOUS
10
3.50807
20
-3.31575
11
3.45256
21
-3.31575
0
LINE
8
BLACK
6
CONTINUOUS
10
3.52096
20
-3.17956
11
3.52068
21
-3.17887
0
LINE
8
BLACK
6
CONTINUOUS
10
3.52068
20
-3.17887
11
3.52068
21
-3.06233
0
LINE
8
BLACK
6
CONTINUOUS
10
3.52068
20
-3.06233
11
3.52096
21
-3.06164
0
LINE
8
BLACK
6
CONTINUOUS
10
3.52096
20
-3.06164
11
3.52166
21
-3.06135
0
LINE
8
BLACK
6
CONTINUOUS
10
3.52166
20
-3.06135
11
3.57914
21
-3.06135
0
LINE
8
BLACK
6
CONTINUOUS
10
3.57914
20
-3.06135
11
3.57984
21
-3.06164
0
LINE
8
BLACK
6
CONTINUOUS
10
3.57984
20
-3.06164
11
3.58012
21
-3.06233
0
LINE
8
BLACK
6
CONTINUOUS
10
3.58012
20
-3.06233
11
3.58012
21
-3.17887
0
LINE
8
BLACK
6
CONTINUOUS
10
3.58012
20
-3.17887
11
3.57984
21
-3.17956
0
LINE
8
BLACK
6
CONTINUOUS
10
3.57984
20
-3.17956
11
3.57914
21
-3.17985
0
LINE
8
BLACK
6
CONTINUOUS
10
3.57914
20
-3.17985
11
3.52166
21
-3.17985
0
LINE
8
BLACK
6
CONTINUOUS
10
3.52166
20
-3.17985
11
3.52096
21
-3.17956
0
LINE
8
BLACK
6
CONTINUOUS
10
3.52264
20
-3.06332
11
3.52264
21
-3.17788
0
LINE
8
BLACK
6
CONTINUOUS
10
3.52264
20
-3.17788
11
3.57816
21
-3.17788
0
LINE
8
BLACK
6
CONTINUOUS
10
3.57816
20
-3.17788
11
3.57816
21
-3.06332
0
LINE
8
BLACK
6
CONTINUOUS
10
3.57816
20
-3.06332
11
3.52264
21
-3.06332
0
LINE
8
BLACK
6
CONTINUOUS
10
4.16618
20
-3.03383
11
4.16589
21
-3.03313
0
LINE
8
BLACK
6
CONTINUOUS
10
4.16589
20
-3.03313
11
4.16589
21
-2.74967
0
LINE
8
BLACK
6
CONTINUOUS
10
4.16589
20
-2.74967
11
4.16618
21
-2.74897
0
LINE
8
BLACK
6
CONTINUOUS
10
4.16618
20
-2.74897
11
4.16687
21
-2.74868
0
LINE
8
BLACK
6
CONTINUOUS
10
4.16687
20
-2.74868
11
4.51333
21
-2.74868
0
LINE
8
BLACK
6
CONTINUOUS
10
4.51333
20
-2.74868
11
4.51402
21
-2.74897
0
LINE
8
BLACK
6
CONTINUOUS
10
4.51402
20
-2.74897
11
4.51431
21
-2.74967
0
LINE
8
BLACK
6
CONTINUOUS
10
4.51431
20
-2.74967
11
4.51431
21
-3.03313
0
LINE
8
BLACK
6
CONTINUOUS
10
4.51431
20
-3.03313
11
4.51402
21
-3.03383
0
LINE
8
BLACK
6
CONTINUOUS
10
4.51402
20
-3.03383
11
4.51333
21
-3.03412
0
LINE
8
BLACK
6
CONTINUOUS
10
4.51333
20
-3.03412
11
4.16687
21
-3.03412
0
LINE
8
BLACK
6
CONTINUOUS
10
4.16687
20
-3.03412
11
4.16618
21
-3.03383
0
LINE
8
BLACK
6
CONTINUOUS
10
4.16786
20
-2.75065
11
4.16786
21
-3.03215
0
LINE
8
BLACK
6
CONTINUOUS
10
4.16786
20
-3.03215
11
4.51234
21
-3.03215
0
LINE
8
BLACK
6
CONTINUOUS
10
4.51234
20
-3.03215
11
4.51234
21
-2.75065
0
LINE
8
BLACK
6
CONTINUOUS
10
4.51234
20
-2.75065
11
4.16786
21
-2.75065
0
LINE
8
BLACK
6
CONTINUOUS
10
3.6686
20
-3.02678
11
3.66831
21
-3.02608
0
LINE
8
BLACK
6
CONTINUOUS
10
3.66831
20
-3.02608
11
3.66831
21
-2.74262
0
LINE
8
BLACK
6
CONTINUOUS
10
3.66831
20
-2.74262
11
3.6686
21
-2.74192
0
LINE
8
BLACK
6
CONTINUOUS
10
3.6686
20
-2.74192
11
3.66929
21
-2.74163
0
LINE
8
BLACK
6
CONTINUOUS
10
3.66929
20
-2.74163
11
4.01575
21
-2.74163
0
LINE
8
BLACK
6
CONTINUOUS
10
4.01575
20
-2.74163
11
4.01644
21
-2.74192
0
LINE
8
BLACK
6
CONTINUOUS
10
4.01644
20
-2.74192
11
4.01673
21
-2.74262
0
LINE
8
BLACK
6
CONTINUOUS
10
4.01673
20
-2.74262
11
4.01673
21
-3.02608
0
LINE
8
BLACK
6
CONTINUOUS
10
4.01673
20
-3.02608
11
4.01644
21
-3.02678
0
LINE
8
BLACK
6
CONTINUOUS
10
4.01644
20
-3.02678
11
4.01575
21
-3.02707
0
LINE
8
BLACK
6
CONTINUOUS
10
4.01575
20
-3.02707
11
3.66929
21
-3.02707
0
LINE
8
BLACK
6
CONTINUOUS
10
3.66929
20
-3.02707
11
3.6686
21
-3.02678
0
LINE
8
BLACK
6
CONTINUOUS
10
3.67028
20
-2.7436
11
3.67028
21
-3.0251
0
LINE
8
BLACK
6
CONTINUOUS
10
3.67028
20
-3.0251
11
4.01476
21
-3.0251
0
LINE
8
BLACK
6
CONTINUOUS
10
4.01476
20
-3.0251
11
4.01476
21
-2.7436
0
LINE
8
BLACK
6
CONTINUOUS
10
4.01476
20
-2.7436
11
3.67028
21
-2.7436
0
LINE
8
BLACK
6
CONTINUOUS
10
4.05672
20
-2.99813
11
4.05643
21
-2.99743
0
LINE
8
BLACK
6
CONTINUOUS
10
4.05643
20
-2.99743
11
4.05643
21
-2.86357
0
LINE
8
BLACK
6
CONTINUOUS
10
4.05643
20
-2.86357
11
4.05672
21
-2.86287
0
LINE
8
BLACK
6
CONTINUOUS
10
4.05672
20
-2.86287
11
4.05742
21
-2.86259
0
LINE
8
BLACK
6
CONTINUOUS
10
4.05742
20
-2.86259
11
4.13458
21
-2.86259
0
LINE
8
BLACK
6
CONTINUOUS
10
4.13458
20
-2.86259
11
4.13528
21
-2.86287
0
LINE
8
BLACK
6
CONTINUOUS
10
4.13528
20
-2.86287
11
4.13557
21
-2.86357
0
LINE
8
BLACK
6
CONTINUOUS
10
4.13557
20
-2.86357
11
4.13557
21
-2.99743
0
LINE
8
BLACK
6
CONTINUOUS
10
4.13557
20
-2.99743
11
4.13528
21
-2.99813
0
LINE
8
BLACK
6
CONTINUOUS
10
4.13528
20
-2.99813
11
4.13458
21
-2.99841
0
LINE
8
BLACK
6
CONTINUOUS
10
4.13458
20
-2.99841
11
4.05742
21
-2.99841
0
LINE
8
BLACK
6
CONTINUOUS
10
4.05742
20
-2.99841
11
4.05672
21
-2.99813
0
LINE
8
BLACK
6
CONTINUOUS
10
4.0584
20
-2.86456
11
4.0584
21
-2.99644
0
LINE
8
BLACK
6
CONTINUOUS
10
4.0584
20
-2.99644
11
4.1336
21
-2.99644
0
LINE
8
BLACK
6
CONTINUOUS
10
4.1336
20
-2.99644
11
4.1336
21
-2.86456
0
LINE
8
BLACK
6
CONTINUOUS
10
4.1336
20
-2.86456
11
4.0584
21
-2.86456
0
LINE
8
BLACK
6
CONTINUOUS
10
3.51584
20
-2.99213
11
3.51555
21
-2.99143
0
LINE
8
BLACK
6
CONTINUOUS
10
3.51555
20
-2.99143
11
3.51555
21
-2.85757
0
LINE
8
BLACK
6
CONTINUOUS
10
3.51555
20
-2.85757
11
3.51584
21
-2.85687
0
LINE
8
BLACK
6
CONTINUOUS
10
3.51584
20
-2.85687
11
3.51654
21
-2.85659
0
LINE
8
BLACK
6
CONTINUOUS
10
3.51654
20
-2.85659
11
3.5937
21
-2.85659
0
LINE
8
BLACK
6
CONTINUOUS
10
3.5937
20
-2.85659
11
3.5944
21
-2.85687
0
LINE
8
BLACK
6
CONTINUOUS
10
3.5944
20
-2.85687
11
3.59469
21
-2.85757
0
LINE
8
BLACK
6
CONTINUOUS
10
3.59469
20
-2.85757
11
3.59469
21
-2.99143
0
LINE
8
BLACK
6
CONTINUOUS
10
3.59469
20
-2.99143
11
3.5944
21
-2.99213
0
LINE
8
BLACK
6
CONTINUOUS
10
3.5944
20
-2.99213
11
3.5937
21
-2.99241
0
LINE
8
BLACK
6
CONTINUOUS
10
3.5937
20
-2.99241
11
3.51654
21
-2.99241
0
LINE
8
BLACK
6
CONTINUOUS
10
3.51654
20
-2.99241
11
3.51584
21
-2.99213
0
LINE
8
BLACK
6
CONTINUOUS
10
3.51752
20
-2.85856
11
3.51752
21
-2.99044
0
LINE
8
BLACK
6
CONTINUOUS
10
3.51752
20
-2.99044
11
3.59272
21
-2.99044
0
LINE
8
BLACK
6
CONTINUOUS
10
3.59272
20
-2.99044
11
3.59272
21
-2.85856
0
LINE
8
BLACK
6
CONTINUOUS
10
3.59272
20
-2.85856
11
3.51752
21
-2.85856
0
LINE
8
BLACK
6
CONTINUOUS
10
3.60049
20
-2.97296
11
3.6002
21
-2.97227
0
LINE
8
BLACK
6
CONTINUOUS
10
3.6002
20
-2.97227
11
3.6002
21
-2.85573
0
LINE
8
BLACK
6
CONTINUOUS
10
3.6002
20
-2.85573
11
3.60049
21
-2.85504
0
LINE
8
BLACK
6
CONTINUOUS
10
3.60049
20
-2.85504
11
3.60118
21
-2.85475
0
LINE
8
BLACK
6
CONTINUOUS
10
3.60118
20
-2.85475
11
3.65866
21
-2.85475
0
LINE
8
BLACK
6
CONTINUOUS
10
3.65866
20
-2.85475
11
3.65936
21
-2.85504
0
LINE
8
BLACK
6
CONTINUOUS
10
3.65936
20
-2.85504
11
3.65965
21
-2.85573
0
LINE
8
BLACK
6
CONTINUOUS
10
3.65965
20
-2.85573
11
3.65965
21
-2.97227
0
LINE
8
BLACK
6
CONTINUOUS
10
3.65965
20
-2.97227
11
3.65936
21
-2.97296
0
LINE
8
BLACK
6
CONTINUOUS
10
3.65936
20
-2.97296
11
3.65866
21
-2.97325
0
LINE
8
BLACK
6
CONTINUOUS
10
3.65866
20
-2.97325
11
3.60118
21
-2.97325
0
LINE
8
BLACK
6
CONTINUOUS
10
3.60118
20
-2.97325
11
3.60049
21
-2.97296
0
LINE
8
BLACK
6
CONTINUOUS
10
3.60217
20
-2.85672
11
3.60217
21
-2.97128
0
LINE
8
BLACK
6
CONTINUOUS
10
3.60217
20
-2.97128
11
3.65768
21
-2.97128
0
LINE
8
BLACK
6
CONTINUOUS
10
3.65768
20
-2.97128
11
3.65768
21
-2.85672
0
LINE
8
BLACK
6
CONTINUOUS
10
3.65768
20
-2.85672
11
3.60217
21
-2.85672
0
LINE
8
BLACK
6
CONTINUOUS
10
4.12572
20
-2.8385
11
4.12544
21
-2.83919
0
LINE
8
BLACK
6
CONTINUOUS
10
4.12544
20
-2.83919
11
4.12474
21
-2.83948
0
LINE
8
BLACK
6
CONTINUOUS
10
4.12474
20
-2.83948
11
4.06726
21
-2.83948
0
LINE
8
BLACK
6
CONTINUOUS
10
4.06726
20
-2.83948
11
4.06656
21
-2.83919
0
LINE
8
BLACK
6
CONTINUOUS
10
4.06656
20
-2.83919
11
4.06628
21
-2.8385
0
LINE
8
BLACK
6
CONTINUOUS
10
4.06628
20
-2.8385
11
4.06628
21
-2.72196
0
LINE
8
BLACK
6
CONTINUOUS
10
4.06628
20
-2.72196
11
4.06656
21
-2.72126
0
LINE
8
BLACK
6
CONTINUOUS
10
4.06656
20
-2.72126
11
4.06726
21
-2.72098
0
LINE
8
BLACK
6
CONTINUOUS
10
4.06726
20
-2.72098
11
4.12448
21
-2.72098
0
LINE
8
BLACK
6
CONTINUOUS
10
4.12448
20
-2.72098
11
4.12448
21
-2.6878
0
LINE
8
BLACK
6
CONTINUOUS
10
4.12448
20
-2.6878
11
4.12476
21
-2.6871
0
LINE
8
BLACK
6
CONTINUOUS
10
4.12476
20
-2.6871
11
4.12546
21
-2.68681
0
LINE
8
BLACK
6
CONTINUOUS
10
4.12546
20
-2.68681
11
4.242
21
-2.68681
0
LINE
8
BLACK
6
CONTINUOUS
10
4.242
20
-2.68681
11
4.24269
21
-2.6871
0
LINE
8
BLACK
6
CONTINUOUS
10
4.24269
20
-2.6871
11
4.24298
21
-2.6878
0
LINE
8
BLACK
6
CONTINUOUS
10
4.24298
20
-2.6878
11
4.24298
21
-2.74528
0
LINE
8
BLACK
6
CONTINUOUS
10
4.24298
20
-2.74528
11
4.24269
21
-2.74597
0
LINE
8
BLACK
6
CONTINUOUS
10
4.24269
20
-2.74597
11
4.242
21
-2.74626
0
LINE
8
BLACK
6
CONTINUOUS
10
4.242
20
-2.74626
11
4.12572
21
-2.74626
0
LINE
8
BLACK
6
CONTINUOUS
10
4.12572
20
-2.74626
11
4.12572
21
-2.8385
0
LINE
8
BLACK
6
CONTINUOUS
10
4.06824
20
-2.72294
11
4.06824
21
-2.83751
0
LINE
8
BLACK
6
CONTINUOUS
10
4.06824
20
-2.83751
11
4.12376
21
-2.83751
0
LINE
8
BLACK
6
CONTINUOUS
10
4.12376
20
-2.83751
11
4.12376
21
-2.72294
0
LINE
8
BLACK
6
CONTINUOUS
10
4.12376
20
-2.72294
11
4.06824
21
-2.72294
0
LINE
8
BLACK
6
CONTINUOUS
10
4.12644
20
-2.68878
11
4.12644
21
-2.74429
0
LINE
8
BLACK
6
CONTINUOUS
10
4.12644
20
-2.74429
11
4.24101
21
-2.74429
0
LINE
8
BLACK
6
CONTINUOUS
10
4.24101
20
-2.74429
11
4.24101
21
-2.68878
0
LINE
8
BLACK
6
CONTINUOUS
10
4.24101
20
-2.68878
11
4.12644
21
-2.68878
0
LINE
8
BLACK
6
CONTINUOUS
10
3.53704
20
-2.82344
11
3.53675
21
-2.82274
0
LINE
8
BLACK
6
CONTINUOUS
10
3.53675
20
-2.82274
11
3.53675
21
-2.76526
0
LINE
8
BLACK
6
CONTINUOUS
10
3.53675
20
-2.76526
11
3.53704
21
-2.76456
0
LINE
8
BLACK
6
CONTINUOUS
10
3.53704
20
-2.76456
11
3.53773
21
-2.76428
0
LINE
8
BLACK
6
CONTINUOUS
10
3.53773
20
-2.76428
11
3.65427
21
-2.76428
0
LINE
8
BLACK
6
CONTINUOUS
10
3.65427
20
-2.76428
11
3.65496
21
-2.76456
0
LINE
8
BLACK
6
CONTINUOUS
10
3.65496
20
-2.76456
11
3.65525
21
-2.76526
0
LINE
8
BLACK
6
CONTINUOUS
10
3.65525
20
-2.76526
11
3.65525
21
-2.82274
0
LINE
8
BLACK
6
CONTINUOUS
10
3.65525
20
-2.82274
11
3.65496
21
-2.82344
0
LINE
8
BLACK
6
CONTINUOUS
10
3.65496
20
-2.82344
11
3.65427
21
-2.82372
0
LINE
8
BLACK
6
CONTINUOUS
10
3.65427
20
-2.82372
11
3.53773
21
-2.82372
0
LINE
8
BLACK
6
CONTINUOUS
10
3.53773
20
-2.82372
11
3.53704
21
-2.82344
0
LINE
8
BLACK
6
CONTINUOUS
10
3.53872
20
-2.76624
11
3.53872
21
-2.82176
0
LINE
8
BLACK
6
CONTINUOUS
10
3.53872
20
-2.82176
11
3.65328
21
-2.82176
0
LINE
8
BLACK
6
CONTINUOUS
10
3.65328
20
-2.82176
11
3.65328
21
-2.76624
0
LINE
8
BLACK
6
CONTINUOUS
10
3.65328
20
-2.76624
11
3.53872
21
-2.76624
  0
ENDSEC
  0
EOF
