  0
SECTION
  2
HEADER
  9
$ANGBASE
  50
0.0
  9
$ANGDIR
  70
1
  9
$MEASUREMENT
  70
0
  0
ENDSEC
  0
SECTION
  2
TABLES
  0
TABLE
  2
LTYPE
  70
4
  0
LTYPE
  5
40F
  2
CONTINUOUS
  70
0
  3
Solid line
  72
65
  73
0
  40
0.0
  0
LTYPE
  5
410
  2
DASHDOT
 70
0
  3
Dash Dot ____ _ ____ _
 72
65
 73
4
 40
2.0
 49
1.25
 49
-0.25
 49
0.25
 49
-0.25
  0
LTYPE
  5
411
  2
DASHED
 70
0
  3
Dashed __ __ __ __ __
 72
65
 73
2
 40
0.75
 49
0.5
 49
-0.25
  0
LTYPE
  5
43B
  2
DOTTED
 70
0
  3
Dotted .  .  .  .
 72
65
 73
2
 40
0.2
 49
0.0
 49
-0.2
  0
ENDTAB
  0
TABLE
  2
STYLE
  70
4
  0
STYLE
  2
KICAD
  70
0
  40
0
  41
1
  42
1
  50
0
  71
0
  3
isocp.shx
  0
STYLE
  2
KICADB
  70
0
  40
0
  41
1
  42
1
  50
0
  71
0
  3
isocp.shx
  0
STYLE
  2
KICADI
  70
0
  40
0
  41
1
  42
1
  50
15
  71
0
  3
isocp.shx
  0
STYLE
  2
KICADBI
  70
0
  40
0
  41
1
  42
1
  50
15
  71
0
  3
isocp.shx
  0
ENDTAB
  0
TABLE
  2
LAYER
  70
1
  0
LAYER
  2
BLACK
  70
0
  62
7
  6
CONTINUOUS
  0
ENDTAB
  0
ENDSEC
  0
SECTION
  2
ENTITIES
0
LINE
8
BLACK
6
CONTINUOUS
10
3.58123
20
-4.86977
11
3.58411
21
-4.87169
0
LINE
8
BLACK
6
CONTINUOUS
10
3.58411
20
-4.87169
11
3.58603
21
-4.87456
0
LINE
8
BLACK
6
CONTINUOUS
10
3.58603
20
-4.87456
11
3.5867
21
-4.87795
0
LINE
8
BLACK
6
CONTINUOUS
10
3.5867
20
-4.87795
11
3.5867
21
-4.89567
0
LINE
8
BLACK
6
CONTINUOUS
10
3.5867
20
-4.89567
11
3.58603
21
-4.89906
0
LINE
8
BLACK
6
CONTINUOUS
10
3.58603
20
-4.89906
11
3.58411
21
-4.90193
0
LINE
8
BLACK
6
CONTINUOUS
10
3.58411
20
-4.90193
11
3.58123
21
-4.90385
0
LINE
8
BLACK
6
CONTINUOUS
10
3.58123
20
-4.90385
11
3.57784
21
-4.90453
0
LINE
8
BLACK
6
CONTINUOUS
10
3.57784
20
-4.90453
11
3.55816
21
-4.90453
0
LINE
8
BLACK
6
CONTINUOUS
10
3.55816
20
-4.90453
11
3.55477
21
-4.90385
0
LINE
8
BLACK
6
CONTINUOUS
10
3.55477
20
-4.90385
11
3.55189
21
-4.90193
0
LINE
8
BLACK
6
CONTINUOUS
10
3.55189
20
-4.90193
11
3.54997
21
-4.89906
0
LINE
8
BLACK
6
CONTINUOUS
10
3.54997
20
-4.89906
11
3.5493
21
-4.89567
0
LINE
8
BLACK
6
CONTINUOUS
10
3.5493
20
-4.89567
11
3.5493
21
-4.87795
0
LINE
8
BLACK
6
CONTINUOUS
10
3.5493
20
-4.87795
11
3.54997
21
-4.87456
0
LINE
8
BLACK
6
CONTINUOUS
10
3.54997
20
-4.87456
11
3.55189
21
-4.87169
0
LINE
8
BLACK
6
CONTINUOUS
10
3.55189
20
-4.87169
11
3.55477
21
-4.86977
0
LINE
8
BLACK
6
CONTINUOUS
10
3.55477
20
-4.86977
11
3.55816
21
-4.86909
0
LINE
8
BLACK
6
CONTINUOUS
10
3.55816
20
-4.86909
11
3.57784
21
-4.86909
0
LINE
8
BLACK
6
CONTINUOUS
10
3.57784
20
-4.86909
11
3.58123
21
-4.86977
0
LINE
8
BLACK
6
CONTINUOUS
10
3.58123
20
-4.80875
11
3.58411
21
-4.81067
0
LINE
8
BLACK
6
CONTINUOUS
10
3.58411
20
-4.81067
11
3.58603
21
-4.81354
0
LINE
8
BLACK
6
CONTINUOUS
10
3.58603
20
-4.81354
11
3.5867
21
-4.81693
0
LINE
8
BLACK
6
CONTINUOUS
10
3.5867
20
-4.81693
11
3.5867
21
-4.83465
0
LINE
8
BLACK
6
CONTINUOUS
10
3.5867
20
-4.83465
11
3.58603
21
-4.83804
0
LINE
8
BLACK
6
CONTINUOUS
10
3.58603
20
-4.83804
11
3.58411
21
-4.84091
0
LINE
8
BLACK
6
CONTINUOUS
10
3.58411
20
-4.84091
11
3.58123
21
-4.84283
0
LINE
8
BLACK
6
CONTINUOUS
10
3.58123
20
-4.84283
11
3.57784
21
-4.8435
0
LINE
8
BLACK
6
CONTINUOUS
10
3.57784
20
-4.8435
11
3.55816
21
-4.8435
0
LINE
8
BLACK
6
CONTINUOUS
10
3.55816
20
-4.8435
11
3.55477
21
-4.84283
0
LINE
8
BLACK
6
CONTINUOUS
10
3.55477
20
-4.84283
11
3.55189
21
-4.84091
0
LINE
8
BLACK
6
CONTINUOUS
10
3.55189
20
-4.84091
11
3.54997
21
-4.83804
0
LINE
8
BLACK
6
CONTINUOUS
10
3.54997
20
-4.83804
11
3.5493
21
-4.83465
0
LINE
8
BLACK
6
CONTINUOUS
10
3.5493
20
-4.83465
11
3.5493
21
-4.81693
0
LINE
8
BLACK
6
CONTINUOUS
10
3.5493
20
-4.81693
11
3.54997
21
-4.81354
0
LINE
8
BLACK
6
CONTINUOUS
10
3.54997
20
-4.81354
11
3.55189
21
-4.81067
0
LINE
8
BLACK
6
CONTINUOUS
10
3.55189
20
-4.81067
11
3.55477
21
-4.80875
0
LINE
8
BLACK
6
CONTINUOUS
10
3.55477
20
-4.80875
11
3.55816
21
-4.80807
0
LINE
8
BLACK
6
CONTINUOUS
10
3.55816
20
-4.80807
11
3.57784
21
-4.80807
0
LINE
8
BLACK
6
CONTINUOUS
10
3.57784
20
-4.80807
11
3.58123
21
-4.80875
0
LINE
8
BLACK
6
CONTINUOUS
10
4.39323
20
-4.35394
11
4.39611
21
-4.35586
0
LINE
8
BLACK
6
CONTINUOUS
10
4.39611
20
-4.35586
11
4.39803
21
-4.35874
0
LINE
8
BLACK
6
CONTINUOUS
10
4.39803
20
-4.35874
11
4.3987
21
-4.36213
0
LINE
8
BLACK
6
CONTINUOUS
10
4.3987
20
-4.36213
11
4.3987
21
-4.37984
0
LINE
8
BLACK
6
CONTINUOUS
10
4.3987
20
-4.37984
11
4.39803
21
-4.38323
0
LINE
8
BLACK
6
CONTINUOUS
10
4.39803
20
-4.38323
11
4.39611
21
-4.38611
0
LINE
8
BLACK
6
CONTINUOUS
10
4.39611
20
-4.38611
11
4.39323
21
-4.38803
0
LINE
8
BLACK
6
CONTINUOUS
10
4.39323
20
-4.38803
11
4.38984
21
-4.3887
0
LINE
8
BLACK
6
CONTINUOUS
10
4.38984
20
-4.3887
11
4.37016
21
-4.3887
0
LINE
8
BLACK
6
CONTINUOUS
10
4.37016
20
-4.3887
11
4.36677
21
-4.38803
0
LINE
8
BLACK
6
CONTINUOUS
10
4.36677
20
-4.38803
11
4.36389
21
-4.38611
0
LINE
8
BLACK
6
CONTINUOUS
10
4.36389
20
-4.38611
11
4.36197
21
-4.38323
0
LINE
8
BLACK
6
CONTINUOUS
10
4.36197
20
-4.38323
11
4.3613
21
-4.37984
0
LINE
8
BLACK
6
CONTINUOUS
10
4.3613
20
-4.37984
11
4.3613
21
-4.36213
0
LINE
8
BLACK
6
CONTINUOUS
10
4.3613
20
-4.36213
11
4.36197
21
-4.35874
0
LINE
8
BLACK
6
CONTINUOUS
10
4.36197
20
-4.35874
11
4.36389
21
-4.35586
0
LINE
8
BLACK
6
CONTINUOUS
10
4.36389
20
-4.35586
11
4.36677
21
-4.35394
0
LINE
8
BLACK
6
CONTINUOUS
10
4.36677
20
-4.35394
11
4.37016
21
-4.35327
0
LINE
8
BLACK
6
CONTINUOUS
10
4.37016
20
-4.35327
11
4.38984
21
-4.35327
0
LINE
8
BLACK
6
CONTINUOUS
10
4.38984
20
-4.35327
11
4.39323
21
-4.35394
0
LINE
8
BLACK
6
CONTINUOUS
10
4.33384
20
-4.35733
11
4.33639
21
-4.35904
0
LINE
8
BLACK
6
CONTINUOUS
10
4.33639
20
-4.35904
11
4.3381
21
-4.36159
0
LINE
8
BLACK
6
CONTINUOUS
10
4.3381
20
-4.36159
11
4.3387
21
-4.36461
0
LINE
8
BLACK
6
CONTINUOUS
10
4.3387
20
-4.36461
11
4.3387
21
-4.38035
0
LINE
8
BLACK
6
CONTINUOUS
10
4.3387
20
-4.38035
11
4.3381
21
-4.38337
0
LINE
8
BLACK
6
CONTINUOUS
10
4.3381
20
-4.38337
11
4.33639
21
-4.38592
0
LINE
8
BLACK
6
CONTINUOUS
10
4.33639
20
-4.38592
11
4.33384
21
-4.38763
0
LINE
8
BLACK
6
CONTINUOUS
10
4.33384
20
-4.38763
11
4.33083
21
-4.38823
0
LINE
8
BLACK
6
CONTINUOUS
10
4.33083
20
-4.38823
11
4.30917
21
-4.38823
0
LINE
8
BLACK
6
CONTINUOUS
10
4.30917
20
-4.38823
11
4.30616
21
-4.38763
0
LINE
8
BLACK
6
CONTINUOUS
10
4.30616
20
-4.38763
11
4.30361
21
-4.38592
0
LINE
8
BLACK
6
CONTINUOUS
10
4.30361
20
-4.38592
11
4.3019
21
-4.38337
0
LINE
8
BLACK
6
CONTINUOUS
10
4.3019
20
-4.38337
11
4.3013
21
-4.38035
0
LINE
8
BLACK
6
CONTINUOUS
10
4.3013
20
-4.38035
11
4.3013
21
-4.36461
0
LINE
8
BLACK
6
CONTINUOUS
10
4.3013
20
-4.36461
11
4.3019
21
-4.36159
0
LINE
8
BLACK
6
CONTINUOUS
10
4.3019
20
-4.36159
11
4.30361
21
-4.35904
0
LINE
8
BLACK
6
CONTINUOUS
10
4.30361
20
-4.35904
11
4.30616
21
-4.35733
0
LINE
8
BLACK
6
CONTINUOUS
10
4.30616
20
-4.35733
11
4.30917
21
-4.35673
0
LINE
8
BLACK
6
CONTINUOUS
10
4.30917
20
-4.35673
11
4.33083
21
-4.35673
0
LINE
8
BLACK
6
CONTINUOUS
10
4.33083
20
-4.35673
11
4.33384
21
-4.35733
0
LINE
8
BLACK
6
CONTINUOUS
10
3.82723
20
-4.34147
11
3.83011
21
-4.34339
0
LINE
8
BLACK
6
CONTINUOUS
10
3.83011
20
-4.34339
11
3.83203
21
-4.34626
0
LINE
8
BLACK
6
CONTINUOUS
10
3.83203
20
-4.34626
11
3.8327
21
-4.34965
0
LINE
8
BLACK
6
CONTINUOUS
10
3.8327
20
-4.34965
11
3.8327
21
-4.36737
0
LINE
8
BLACK
6
CONTINUOUS
10
3.8327
20
-4.36737
11
3.83203
21
-4.37076
0
LINE
8
BLACK
6
CONTINUOUS
10
3.83203
20
-4.37076
11
3.83011
21
-4.37363
0
LINE
8
BLACK
6
CONTINUOUS
10
3.83011
20
-4.37363
11
3.82723
21
-4.37555
0
LINE
8
BLACK
6
CONTINUOUS
10
3.82723
20
-4.37555
11
3.82384
21
-4.37623
0
LINE
8
BLACK
6
CONTINUOUS
10
3.82384
20
-4.37623
11
3.80416
21
-4.37623
0
LINE
8
BLACK
6
CONTINUOUS
10
3.80416
20
-4.37623
11
3.80077
21
-4.37555
0
LINE
8
BLACK
6
CONTINUOUS
10
3.80077
20
-4.37555
11
3.79789
21
-4.37363
0
LINE
8
BLACK
6
CONTINUOUS
10
3.79789
20
-4.37363
11
3.79597
21
-4.37076
0
LINE
8
BLACK
6
CONTINUOUS
10
3.79597
20
-4.37076
11
3.7953
21
-4.36737
0
LINE
8
BLACK
6
CONTINUOUS
10
3.7953
20
-4.36737
11
3.7953
21
-4.34965
0
LINE
8
BLACK
6
CONTINUOUS
10
3.7953
20
-4.34965
11
3.79597
21
-4.34626
0
LINE
8
BLACK
6
CONTINUOUS
10
3.79597
20
-4.34626
11
3.79789
21
-4.34339
0
LINE
8
BLACK
6
CONTINUOUS
10
3.79789
20
-4.34339
11
3.80077
21
-4.34147
0
LINE
8
BLACK
6
CONTINUOUS
10
3.80077
20
-4.34147
11
3.80416
21
-4.3408
0
LINE
8
BLACK
6
CONTINUOUS
10
3.80416
20
-4.3408
11
3.82384
21
-4.3408
0
LINE
8
BLACK
6
CONTINUOUS
10
3.82384
20
-4.3408
11
3.82723
21
-4.34147
0
LINE
8
BLACK
6
CONTINUOUS
10
3.71174
20
-4.33397
11
3.71461
21
-4.33589
0
LINE
8
BLACK
6
CONTINUOUS
10
3.71461
20
-4.33589
11
3.71653
21
-4.33877
0
LINE
8
BLACK
6
CONTINUOUS
10
3.71653
20
-4.33877
11
3.7172
21
-4.34216
0
LINE
8
BLACK
6
CONTINUOUS
10
3.7172
20
-4.34216
11
3.7172
21
-4.36184
0
LINE
8
BLACK
6
CONTINUOUS
10
3.7172
20
-4.36184
11
3.71653
21
-4.36523
0
LINE
8
BLACK
6
CONTINUOUS
10
3.71653
20
-4.36523
11
3.71461
21
-4.36811
0
LINE
8
BLACK
6
CONTINUOUS
10
3.71461
20
-4.36811
11
3.71174
21
-4.37003
0
LINE
8
BLACK
6
CONTINUOUS
10
3.71174
20
-4.37003
11
3.70835
21
-4.3707
0
LINE
8
BLACK
6
CONTINUOUS
10
3.70835
20
-4.3707
11
3.69063
21
-4.3707
0
LINE
8
BLACK
6
CONTINUOUS
10
3.69063
20
-4.3707
11
3.68724
21
-4.37003
0
LINE
8
BLACK
6
CONTINUOUS
10
3.68724
20
-4.37003
11
3.68437
21
-4.36811
0
LINE
8
BLACK
6
CONTINUOUS
10
3.68437
20
-4.36811
11
3.68245
21
-4.36523
0
LINE
8
BLACK
6
CONTINUOUS
10
3.68245
20
-4.36523
11
3.68177
21
-4.36184
0
LINE
8
BLACK
6
CONTINUOUS
10
3.68177
20
-4.36184
11
3.68177
21
-4.34216
0
LINE
8
BLACK
6
CONTINUOUS
10
3.68177
20
-4.34216
11
3.68245
21
-4.33877
0
LINE
8
BLACK
6
CONTINUOUS
10
3.68245
20
-4.33877
11
3.68437
21
-4.33589
0
LINE
8
BLACK
6
CONTINUOUS
10
3.68437
20
-4.33589
11
3.68724
21
-4.33397
0
LINE
8
BLACK
6
CONTINUOUS
10
3.68724
20
-4.33397
11
3.69063
21
-4.3333
0
LINE
8
BLACK
6
CONTINUOUS
10
3.69063
20
-4.3333
11
3.70835
21
-4.3333
0
LINE
8
BLACK
6
CONTINUOUS
10
3.70835
20
-4.3333
11
3.71174
21
-4.33397
0
LINE
8
BLACK
6
CONTINUOUS
10
3.77276
20
-4.33397
11
3.77563
21
-4.33589
0
LINE
8
BLACK
6
CONTINUOUS
10
3.77563
20
-4.33589
11
3.77755
21
-4.33877
0
LINE
8
BLACK
6
CONTINUOUS
10
3.77755
20
-4.33877
11
3.77823
21
-4.34216
0
LINE
8
BLACK
6
CONTINUOUS
10
3.77823
20
-4.34216
11
3.77823
21
-4.36184
0
LINE
8
BLACK
6
CONTINUOUS
10
3.77823
20
-4.36184
11
3.77755
21
-4.36523
0
LINE
8
BLACK
6
CONTINUOUS
10
3.77755
20
-4.36523
11
3.77563
21
-4.36811
0
LINE
8
BLACK
6
CONTINUOUS
10
3.77563
20
-4.36811
11
3.77276
21
-4.37003
0
LINE
8
BLACK
6
CONTINUOUS
10
3.77276
20
-4.37003
11
3.76937
21
-4.3707
0
LINE
8
BLACK
6
CONTINUOUS
10
3.76937
20
-4.3707
11
3.75165
21
-4.3707
0
LINE
8
BLACK
6
CONTINUOUS
10
3.75165
20
-4.3707
11
3.74826
21
-4.37003
0
LINE
8
BLACK
6
CONTINUOUS
10
3.74826
20
-4.37003
11
3.74539
21
-4.36811
0
LINE
8
BLACK
6
CONTINUOUS
10
3.74539
20
-4.36811
11
3.74347
21
-4.36523
0
LINE
8
BLACK
6
CONTINUOUS
10
3.74347
20
-4.36523
11
3.7428
21
-4.36184
0
LINE
8
BLACK
6
CONTINUOUS
10
3.7428
20
-4.36184
11
3.7428
21
-4.34216
0
LINE
8
BLACK
6
CONTINUOUS
10
3.7428
20
-4.34216
11
3.74347
21
-4.33877
0
LINE
8
BLACK
6
CONTINUOUS
10
3.74347
20
-4.33877
11
3.74539
21
-4.33589
0
LINE
8
BLACK
6
CONTINUOUS
10
3.74539
20
-4.33589
11
3.74826
21
-4.33397
0
LINE
8
BLACK
6
CONTINUOUS
10
3.74826
20
-4.33397
11
3.75165
21
-4.3333
0
LINE
8
BLACK
6
CONTINUOUS
10
3.75165
20
-4.3333
11
3.76937
21
-4.3333
0
LINE
8
BLACK
6
CONTINUOUS
10
3.76937
20
-4.3333
11
3.77276
21
-4.33397
0
LINE
8
BLACK
6
CONTINUOUS
10
4.39323
20
-4.29292
11
4.39611
21
-4.29484
0
LINE
8
BLACK
6
CONTINUOUS
10
4.39611
20
-4.29484
11
4.39803
21
-4.29771
0
LINE
8
BLACK
6
CONTINUOUS
10
4.39803
20
-4.29771
11
4.3987
21
-4.3011
0
LINE
8
BLACK
6
CONTINUOUS
10
4.3987
20
-4.3011
11
4.3987
21
-4.31882
0
LINE
8
BLACK
6
CONTINUOUS
10
4.3987
20
-4.31882
11
4.39803
21
-4.32221
0
LINE
8
BLACK
6
CONTINUOUS
10
4.39803
20
-4.32221
11
4.39611
21
-4.32508
0
LINE
8
BLACK
6
CONTINUOUS
10
4.39611
20
-4.32508
11
4.39323
21
-4.327
0
LINE
8
BLACK
6
CONTINUOUS
10
4.39323
20
-4.327
11
4.38984
21
-4.32768
0
LINE
8
BLACK
6
CONTINUOUS
10
4.38984
20
-4.32768
11
4.37016
21
-4.32768
0
LINE
8
BLACK
6
CONTINUOUS
10
4.37016
20
-4.32768
11
4.36677
21
-4.327
0
LINE
8
BLACK
6
CONTINUOUS
10
4.36677
20
-4.327
11
4.36389
21
-4.32508
0
LINE
8
BLACK
6
CONTINUOUS
10
4.36389
20
-4.32508
11
4.36197
21
-4.32221
0
LINE
8
BLACK
6
CONTINUOUS
10
4.36197
20
-4.32221
11
4.3613
21
-4.31882
0
LINE
8
BLACK
6
CONTINUOUS
10
4.3613
20
-4.31882
11
4.3613
21
-4.3011
0
LINE
8
BLACK
6
CONTINUOUS
10
4.3613
20
-4.3011
11
4.36197
21
-4.29771
0
LINE
8
BLACK
6
CONTINUOUS
10
4.36197
20
-4.29771
11
4.36389
21
-4.29484
0
LINE
8
BLACK
6
CONTINUOUS
10
4.36389
20
-4.29484
11
4.36677
21
-4.29292
0
LINE
8
BLACK
6
CONTINUOUS
10
4.36677
20
-4.29292
11
4.37016
21
-4.29224
0
LINE
8
BLACK
6
CONTINUOUS
10
4.37016
20
-4.29224
11
4.38984
21
-4.29224
0
LINE
8
BLACK
6
CONTINUOUS
10
4.38984
20
-4.29224
11
4.39323
21
-4.29292
0
LINE
8
BLACK
6
CONTINUOUS
10
4.33384
20
-4.29237
11
4.33639
21
-4.29408
0
LINE
8
BLACK
6
CONTINUOUS
10
4.33639
20
-4.29408
11
4.3381
21
-4.29663
0
LINE
8
BLACK
6
CONTINUOUS
10
4.3381
20
-4.29663
11
4.3387
21
-4.29965
0
LINE
8
BLACK
6
CONTINUOUS
10
4.3387
20
-4.29965
11
4.3387
21
-4.31539
0
LINE
8
BLACK
6
CONTINUOUS
10
4.3387
20
-4.31539
11
4.3381
21
-4.31841
0
LINE
8
BLACK
6
CONTINUOUS
10
4.3381
20
-4.31841
11
4.33639
21
-4.32096
0
LINE
8
BLACK
6
CONTINUOUS
10
4.33639
20
-4.32096
11
4.33384
21
-4.32267
0
LINE
8
BLACK
6
CONTINUOUS
10
4.33384
20
-4.32267
11
4.33083
21
-4.32327
0
LINE
8
BLACK
6
CONTINUOUS
10
4.33083
20
-4.32327
11
4.30917
21
-4.32327
0
LINE
8
BLACK
6
CONTINUOUS
10
4.30917
20
-4.32327
11
4.30616
21
-4.32267
0
LINE
8
BLACK
6
CONTINUOUS
10
4.30616
20
-4.32267
11
4.30361
21
-4.32096
0
LINE
8
BLACK
6
CONTINUOUS
10
4.30361
20
-4.32096
11
4.3019
21
-4.31841
0
LINE
8
BLACK
6
CONTINUOUS
10
4.3019
20
-4.31841
11
4.3013
21
-4.31539
0
LINE
8
BLACK
6
CONTINUOUS
10
4.3013
20
-4.31539
11
4.3013
21
-4.29965
0
LINE
8
BLACK
6
CONTINUOUS
10
4.3013
20
-4.29965
11
4.3019
21
-4.29663
0
LINE
8
BLACK
6
CONTINUOUS
10
4.3019
20
-4.29663
11
4.30361
21
-4.29408
0
LINE
8
BLACK
6
CONTINUOUS
10
4.30361
20
-4.29408
11
4.30616
21
-4.29237
0
LINE
8
BLACK
6
CONTINUOUS
10
4.30616
20
-4.29237
11
4.30917
21
-4.29177
0
LINE
8
BLACK
6
CONTINUOUS
10
4.30917
20
-4.29177
11
4.33083
21
-4.29177
0
LINE
8
BLACK
6
CONTINUOUS
10
4.33083
20
-4.29177
11
4.33384
21
-4.29237
0
LINE
8
BLACK
6
CONTINUOUS
10
3.77923
20
-4.28547
11
3.78211
21
-4.28739
0
LINE
8
BLACK
6
CONTINUOUS
10
3.78211
20
-4.28739
11
3.78403
21
-4.29026
0
LINE
8
BLACK
6
CONTINUOUS
10
3.78403
20
-4.29026
11
3.7847
21
-4.29365
0
LINE
8
BLACK
6
CONTINUOUS
10
3.7847
20
-4.29365
11
3.7847
21
-4.31137
0
LINE
8
BLACK
6
CONTINUOUS
10
3.7847
20
-4.31137
11
3.78403
21
-4.31476
0
LINE
8
BLACK
6
CONTINUOUS
10
3.78403
20
-4.31476
11
3.78211
21
-4.31763
0
LINE
8
BLACK
6
CONTINUOUS
10
3.78211
20
-4.31763
11
3.77923
21
-4.31955
0
LINE
8
BLACK
6
CONTINUOUS
10
3.77923
20
-4.31955
11
3.77584
21
-4.32023
0
LINE
8
BLACK
6
CONTINUOUS
10
3.77584
20
-4.32023
11
3.75616
21
-4.32023
0
LINE
8
BLACK
6
CONTINUOUS
10
3.75616
20
-4.32023
11
3.75277
21
-4.31955
0
LINE
8
BLACK
6
CONTINUOUS
10
3.75277
20
-4.31955
11
3.74989
21
-4.31763
0
LINE
8
BLACK
6
CONTINUOUS
10
3.74989
20
-4.31763
11
3.74797
21
-4.31476
0
LINE
8
BLACK
6
CONTINUOUS
10
3.74797
20
-4.31476
11
3.7473
21
-4.31137
0
LINE
8
BLACK
6
CONTINUOUS
10
3.7473
20
-4.31137
11
3.7473
21
-4.29365
0
LINE
8
BLACK
6
CONTINUOUS
10
3.7473
20
-4.29365
11
3.74797
21
-4.29026
0
LINE
8
BLACK
6
CONTINUOUS
10
3.74797
20
-4.29026
11
3.74989
21
-4.28739
0
LINE
8
BLACK
6
CONTINUOUS
10
3.74989
20
-4.28739
11
3.75277
21
-4.28547
0
LINE
8
BLACK
6
CONTINUOUS
10
3.75277
20
-4.28547
11
3.75616
21
-4.2848
0
LINE
8
BLACK
6
CONTINUOUS
10
3.75616
20
-4.2848
11
3.77584
21
-4.2848
0
LINE
8
BLACK
6
CONTINUOUS
10
3.77584
20
-4.2848
11
3.77923
21
-4.28547
0
LINE
8
BLACK
6
CONTINUOUS
10
3.82723
20
-4.28045
11
3.83011
21
-4.28237
0
LINE
8
BLACK
6
CONTINUOUS
10
3.83011
20
-4.28237
11
3.83203
21
-4.28524
0
LINE
8
BLACK
6
CONTINUOUS
10
3.83203
20
-4.28524
11
3.8327
21
-4.28863
0
LINE
8
BLACK
6
CONTINUOUS
10
3.8327
20
-4.28863
11
3.8327
21
-4.30635
0
LINE
8
BLACK
6
CONTINUOUS
10
3.8327
20
-4.30635
11
3.83203
21
-4.30974
0
LINE
8
BLACK
6
CONTINUOUS
10
3.83203
20
-4.30974
11
3.83011
21
-4.31261
0
LINE
8
BLACK
6
CONTINUOUS
10
3.83011
20
-4.31261
11
3.82723
21
-4.31453
0
LINE
8
BLACK
6
CONTINUOUS
10
3.82723
20
-4.31453
11
3.82384
21
-4.3152
0
LINE
8
BLACK
6
CONTINUOUS
10
3.82384
20
-4.3152
11
3.80416
21
-4.3152
0
LINE
8
BLACK
6
CONTINUOUS
10
3.80416
20
-4.3152
11
3.80077
21
-4.31453
0
LINE
8
BLACK
6
CONTINUOUS
10
3.80077
20
-4.31453
11
3.79789
21
-4.31261
0
LINE
8
BLACK
6
CONTINUOUS
10
3.79789
20
-4.31261
11
3.79597
21
-4.30974
0
LINE
8
BLACK
6
CONTINUOUS
10
3.79597
20
-4.30974
11
3.7953
21
-4.30635
0
LINE
8
BLACK
6
CONTINUOUS
10
3.7953
20
-4.30635
11
3.7953
21
-4.28863
0
LINE
8
BLACK
6
CONTINUOUS
10
3.7953
20
-4.28863
11
3.79597
21
-4.28524
0
LINE
8
BLACK
6
CONTINUOUS
10
3.79597
20
-4.28524
11
3.79789
21
-4.28237
0
LINE
8
BLACK
6
CONTINUOUS
10
3.79789
20
-4.28237
11
3.80077
21
-4.28045
0
LINE
8
BLACK
6
CONTINUOUS
10
3.80077
20
-4.28045
11
3.80416
21
-4.27977
0
LINE
8
BLACK
6
CONTINUOUS
10
3.80416
20
-4.27977
11
3.82384
21
-4.27977
0
LINE
8
BLACK
6
CONTINUOUS
10
3.82384
20
-4.27977
11
3.82723
21
-4.28045
0
LINE
8
BLACK
6
CONTINUOUS
10
3.77923
20
-4.22445
11
3.78211
21
-4.22637
0
LINE
8
BLACK
6
CONTINUOUS
10
3.78211
20
-4.22637
11
3.78403
21
-4.22924
0
LINE
8
BLACK
6
CONTINUOUS
10
3.78403
20
-4.22924
11
3.7847
21
-4.23263
0
LINE
8
BLACK
6
CONTINUOUS
10
3.7847
20
-4.23263
11
3.7847
21
-4.25035
0
LINE
8
BLACK
6
CONTINUOUS
10
3.7847
20
-4.25035
11
3.78403
21
-4.25374
0
LINE
8
BLACK
6
CONTINUOUS
10
3.78403
20
-4.25374
11
3.78211
21
-4.25661
0
LINE
8
BLACK
6
CONTINUOUS
10
3.78211
20
-4.25661
11
3.77923
21
-4.25853
0
LINE
8
BLACK
6
CONTINUOUS
10
3.77923
20
-4.25853
11
3.77584
21
-4.2592
0
LINE
8
BLACK
6
CONTINUOUS
10
3.77584
20
-4.2592
11
3.75616
21
-4.2592
0
LINE
8
BLACK
6
CONTINUOUS
10
3.75616
20
-4.2592
11
3.75277
21
-4.25853
0
LINE
8
BLACK
6
CONTINUOUS
10
3.75277
20
-4.25853
11
3.74989
21
-4.25661
0
LINE
8
BLACK
6
CONTINUOUS
10
3.74989
20
-4.25661
11
3.74797
21
-4.25374
0
LINE
8
BLACK
6
CONTINUOUS
10
3.74797
20
-4.25374
11
3.7473
21
-4.25035
0
LINE
8
BLACK
6
CONTINUOUS
10
3.7473
20
-4.25035
11
3.7473
21
-4.23263
0
LINE
8
BLACK
6
CONTINUOUS
10
3.7473
20
-4.23263
11
3.74797
21
-4.22924
0
LINE
8
BLACK
6
CONTINUOUS
10
3.74797
20
-4.22924
11
3.74989
21
-4.22637
0
LINE
8
BLACK
6
CONTINUOUS
10
3.74989
20
-4.22637
11
3.75277
21
-4.22445
0
LINE
8
BLACK
6
CONTINUOUS
10
3.75277
20
-4.22445
11
3.75616
21
-4.22377
0
LINE
8
BLACK
6
CONTINUOUS
10
3.75616
20
-4.22377
11
3.77584
21
-4.22377
0
LINE
8
BLACK
6
CONTINUOUS
10
3.77584
20
-4.22377
11
3.77923
21
-4.22445
0
LINE
8
BLACK
6
CONTINUOUS
10
3.67859
20
-4.22213
11
3.68146
21
-4.22405
0
LINE
8
BLACK
6
CONTINUOUS
10
3.68146
20
-4.22405
11
3.68338
21
-4.22693
0
LINE
8
BLACK
6
CONTINUOUS
10
3.68338
20
-4.22693
11
3.68406
21
-4.23031
0
LINE
8
BLACK
6
CONTINUOUS
10
3.68406
20
-4.23031
11
3.68406
21
-4.24803
0
LINE
8
BLACK
6
CONTINUOUS
10
3.68406
20
-4.24803
11
3.68338
21
-4.25142
0
LINE
8
BLACK
6
CONTINUOUS
10
3.68338
20
-4.25142
11
3.68146
21
-4.2543
0
LINE
8
BLACK
6
CONTINUOUS
10
3.68146
20
-4.2543
11
3.67859
21
-4.25622
0
LINE
8
BLACK
6
CONTINUOUS
10
3.67859
20
-4.25622
11
3.6752
21
-4.25689
0
LINE
8
BLACK
6
CONTINUOUS
10
3.6752
20
-4.25689
11
3.65551
21
-4.25689
0
LINE
8
BLACK
6
CONTINUOUS
10
3.65551
20
-4.25689
11
3.65212
21
-4.25622
0
LINE
8
BLACK
6
CONTINUOUS
10
3.65212
20
-4.25622
11
3.64925
21
-4.2543
0
LINE
8
BLACK
6
CONTINUOUS
10
3.64925
20
-4.2543
11
3.64733
21
-4.25142
0
LINE
8
BLACK
6
CONTINUOUS
10
3.64733
20
-4.25142
11
3.64665
21
-4.24803
0
LINE
8
BLACK
6
CONTINUOUS
10
3.64665
20
-4.24803
11
3.64665
21
-4.23031
0
LINE
8
BLACK
6
CONTINUOUS
10
3.64665
20
-4.23031
11
3.64733
21
-4.22693
0
LINE
8
BLACK
6
CONTINUOUS
10
3.64733
20
-4.22693
11
3.64925
21
-4.22405
0
LINE
8
BLACK
6
CONTINUOUS
10
3.64925
20
-4.22405
11
3.65212
21
-4.22213
0
LINE
8
BLACK
6
CONTINUOUS
10
3.65212
20
-4.22213
11
3.65551
21
-4.22146
0
LINE
8
BLACK
6
CONTINUOUS
10
3.65551
20
-4.22146
11
3.6752
21
-4.22146
0
LINE
8
BLACK
6
CONTINUOUS
10
3.6752
20
-4.22146
11
3.67859
21
-4.22213
0
LINE
8
BLACK
6
CONTINUOUS
10
3.59591
20
-4.22213
11
3.59878
21
-4.22405
0
LINE
8
BLACK
6
CONTINUOUS
10
3.59878
20
-4.22405
11
3.6007
21
-4.22693
0
LINE
8
BLACK
6
CONTINUOUS
10
3.6007
20
-4.22693
11
3.60138
21
-4.23031
0
LINE
8
BLACK
6
CONTINUOUS
10
3.60138
20
-4.23031
11
3.60138
21
-4.24803
0
LINE
8
BLACK
6
CONTINUOUS
10
3.60138
20
-4.24803
11
3.6007
21
-4.25142
0
LINE
8
BLACK
6
CONTINUOUS
10
3.6007
20
-4.25142
11
3.59878
21
-4.2543
0
LINE
8
BLACK
6
CONTINUOUS
10
3.59878
20
-4.2543
11
3.59591
21
-4.25622
0
LINE
8
BLACK
6
CONTINUOUS
10
3.59591
20
-4.25622
11
3.59252
21
-4.25689
0
LINE
8
BLACK
6
CONTINUOUS
10
3.59252
20
-4.25689
11
3.57283
21
-4.25689
0
LINE
8
BLACK
6
CONTINUOUS
10
3.57283
20
-4.25689
11
3.56944
21
-4.25622
0
LINE
8
BLACK
6
CONTINUOUS
10
3.56944
20
-4.25622
11
3.56657
21
-4.2543
0
LINE
8
BLACK
6
CONTINUOUS
10
3.56657
20
-4.2543
11
3.56465
21
-4.25142
0
LINE
8
BLACK
6
CONTINUOUS
10
3.56465
20
-4.25142
11
3.56398
21
-4.24803
0
LINE
8
BLACK
6
CONTINUOUS
10
3.56398
20
-4.24803
11
3.56398
21
-4.23031
0
LINE
8
BLACK
6
CONTINUOUS
10
3.56398
20
-4.23031
11
3.56465
21
-4.22693
0
LINE
8
BLACK
6
CONTINUOUS
10
3.56465
20
-4.22693
11
3.56657
21
-4.22405
0
LINE
8
BLACK
6
CONTINUOUS
10
3.56657
20
-4.22405
11
3.56944
21
-4.22213
0
LINE
8
BLACK
6
CONTINUOUS
10
3.56944
20
-4.22213
11
3.57283
21
-4.22146
0
LINE
8
BLACK
6
CONTINUOUS
10
3.57283
20
-4.22146
11
3.59252
21
-4.22146
0
LINE
8
BLACK
6
CONTINUOUS
10
3.59252
20
-4.22146
11
3.59591
21
-4.22213
0
LINE
8
BLACK
6
CONTINUOUS
10
3.59591
20
-4.16111
11
3.59878
21
-4.16303
0
LINE
8
BLACK
6
CONTINUOUS
10
3.59878
20
-4.16303
11
3.6007
21
-4.1659
0
LINE
8
BLACK
6
CONTINUOUS
10
3.6007
20
-4.1659
11
3.60138
21
-4.16929
0
LINE
8
BLACK
6
CONTINUOUS
10
3.60138
20
-4.16929
11
3.60138
21
-4.18701
0
LINE
8
BLACK
6
CONTINUOUS
10
3.60138
20
-4.18701
11
3.6007
21
-4.1904
0
LINE
8
BLACK
6
CONTINUOUS
10
3.6007
20
-4.1904
11
3.59878
21
-4.19327
0
LINE
8
BLACK
6
CONTINUOUS
10
3.59878
20
-4.19327
11
3.59591
21
-4.19519
0
LINE
8
BLACK
6
CONTINUOUS
10
3.59591
20
-4.19519
11
3.59252
21
-4.19587
0
LINE
8
BLACK
6
CONTINUOUS
10
3.59252
20
-4.19587
11
3.57283
21
-4.19587
0
LINE
8
BLACK
6
CONTINUOUS
10
3.57283
20
-4.19587
11
3.56944
21
-4.19519
0
LINE
8
BLACK
6
CONTINUOUS
10
3.56944
20
-4.19519
11
3.56657
21
-4.19327
0
LINE
8
BLACK
6
CONTINUOUS
10
3.56657
20
-4.19327
11
3.56465
21
-4.1904
0
LINE
8
BLACK
6
CONTINUOUS
10
3.56465
20
-4.1904
11
3.56398
21
-4.18701
0
LINE
8
BLACK
6
CONTINUOUS
10
3.56398
20
-4.18701
11
3.56398
21
-4.16929
0
LINE
8
BLACK
6
CONTINUOUS
10
3.56398
20
-4.16929
11
3.56465
21
-4.1659
0
LINE
8
BLACK
6
CONTINUOUS
10
3.56465
20
-4.1659
11
3.56657
21
-4.16303
0
LINE
8
BLACK
6
CONTINUOUS
10
3.56657
20
-4.16303
11
3.56944
21
-4.16111
0
LINE
8
BLACK
6
CONTINUOUS
10
3.56944
20
-4.16111
11
3.57283
21
-4.16043
0
LINE
8
BLACK
6
CONTINUOUS
10
3.57283
20
-4.16043
11
3.59252
21
-4.16043
0
LINE
8
BLACK
6
CONTINUOUS
10
3.59252
20
-4.16043
11
3.59591
21
-4.16111
0
LINE
8
BLACK
6
CONTINUOUS
10
3.67859
20
-4.16111
11
3.68146
21
-4.16303
0
LINE
8
BLACK
6
CONTINUOUS
10
3.68146
20
-4.16303
11
3.68338
21
-4.1659
0
LINE
8
BLACK
6
CONTINUOUS
10
3.68338
20
-4.1659
11
3.68406
21
-4.16929
0
LINE
8
BLACK
6
CONTINUOUS
10
3.68406
20
-4.16929
11
3.68406
21
-4.18701
0
LINE
8
BLACK
6
CONTINUOUS
10
3.68406
20
-4.18701
11
3.68338
21
-4.1904
0
LINE
8
BLACK
6
CONTINUOUS
10
3.68338
20
-4.1904
11
3.68146
21
-4.19327
0
LINE
8
BLACK
6
CONTINUOUS
10
3.68146
20
-4.19327
11
3.67859
21
-4.19519
0
LINE
8
BLACK
6
CONTINUOUS
10
3.67859
20
-4.19519
11
3.6752
21
-4.19587
0
LINE
8
BLACK
6
CONTINUOUS
10
3.6752
20
-4.19587
11
3.65551
21
-4.19587
0
LINE
8
BLACK
6
CONTINUOUS
10
3.65551
20
-4.19587
11
3.65212
21
-4.19519
0
LINE
8
BLACK
6
CONTINUOUS
10
3.65212
20
-4.19519
11
3.64925
21
-4.19327
0
LINE
8
BLACK
6
CONTINUOUS
10
3.64925
20
-4.19327
11
3.64733
21
-4.1904
0
LINE
8
BLACK
6
CONTINUOUS
10
3.64733
20
-4.1904
11
3.64665
21
-4.18701
0
LINE
8
BLACK
6
CONTINUOUS
10
3.64665
20
-4.18701
11
3.64665
21
-4.16929
0
LINE
8
BLACK
6
CONTINUOUS
10
3.64665
20
-4.16929
11
3.64733
21
-4.1659
0
LINE
8
BLACK
6
CONTINUOUS
10
3.64733
20
-4.1659
11
3.64925
21
-4.16303
0
LINE
8
BLACK
6
CONTINUOUS
10
3.64925
20
-4.16303
11
3.65212
21
-4.16111
0
LINE
8
BLACK
6
CONTINUOUS
10
3.65212
20
-4.16111
11
3.65551
21
-4.16043
0
LINE
8
BLACK
6
CONTINUOUS
10
3.65551
20
-4.16043
11
3.6752
21
-4.16043
0
LINE
8
BLACK
6
CONTINUOUS
10
3.6752
20
-4.16043
11
3.67859
21
-4.16111
0
LINE
8
BLACK
6
CONTINUOUS
10
3.46308
20
-4.07927
11
3.46628
21
-4.0814
0
LINE
8
BLACK
6
CONTINUOUS
10
3.46628
20
-4.0814
11
3.46841
21
-4.08459
0
LINE
8
BLACK
6
CONTINUOUS
10
3.46841
20
-4.08459
11
3.46916
21
-4.08836
0
LINE
8
BLACK
6
CONTINUOUS
10
3.46916
20
-4.08836
11
3.46916
21
-4.11395
0
LINE
8
BLACK
6
CONTINUOUS
10
3.46916
20
-4.11395
11
3.46841
21
-4.11772
0
LINE
8
BLACK
6
CONTINUOUS
10
3.46841
20
-4.11772
11
3.46628
21
-4.12091
0
LINE
8
BLACK
6
CONTINUOUS
10
3.46628
20
-4.12091
11
3.46308
21
-4.12304
0
LINE
8
BLACK
6
CONTINUOUS
10
3.46308
20
-4.12304
11
3.45932
21
-4.12379
0
LINE
8
BLACK
6
CONTINUOUS
10
3.45932
20
-4.12379
11
3.42388
21
-4.12379
0
LINE
8
BLACK
6
CONTINUOUS
10
3.42388
20
-4.12379
11
3.42012
21
-4.12304
0
LINE
8
BLACK
6
CONTINUOUS
10
3.42012
20
-4.12304
11
3.41692
21
-4.12091
0
LINE
8
BLACK
6
CONTINUOUS
10
3.41692
20
-4.12091
11
3.41479
21
-4.11772
0
LINE
8
BLACK
6
CONTINUOUS
10
3.41479
20
-4.11772
11
3.41404
21
-4.11395
0
LINE
8
BLACK
6
CONTINUOUS
10
3.41404
20
-4.11395
11
3.41404
21
-4.08836
0
LINE
8
BLACK
6
CONTINUOUS
10
3.41404
20
-4.08836
11
3.41479
21
-4.08459
0
LINE
8
BLACK
6
CONTINUOUS
10
3.41479
20
-4.08459
11
3.41692
21
-4.0814
0
LINE
8
BLACK
6
CONTINUOUS
10
3.41692
20
-4.0814
11
3.42012
21
-4.07927
0
LINE
8
BLACK
6
CONTINUOUS
10
3.42012
20
-4.07927
11
3.42388
21
-4.07852
0
LINE
8
BLACK
6
CONTINUOUS
10
3.42388
20
-4.07852
11
3.45932
21
-4.07852
0
LINE
8
BLACK
6
CONTINUOUS
10
3.45932
20
-4.07852
11
3.46308
21
-4.07927
0
LINE
8
BLACK
6
CONTINUOUS
10
3.46308
20
-3.99856
11
3.46628
21
-4.00069
0
LINE
8
BLACK
6
CONTINUOUS
10
3.46628
20
-4.00069
11
3.46841
21
-4.00388
0
LINE
8
BLACK
6
CONTINUOUS
10
3.46841
20
-4.00388
11
3.46916
21
-4.00765
0
LINE
8
BLACK
6
CONTINUOUS
10
3.46916
20
-4.00765
11
3.46916
21
-4.03324
0
LINE
8
BLACK
6
CONTINUOUS
10
3.46916
20
-4.03324
11
3.46841
21
-4.03701
0
LINE
8
BLACK
6
CONTINUOUS
10
3.46841
20
-4.03701
11
3.46628
21
-4.0402
0
LINE
8
BLACK
6
CONTINUOUS
10
3.46628
20
-4.0402
11
3.46308
21
-4.04233
0
LINE
8
BLACK
6
CONTINUOUS
10
3.46308
20
-4.04233
11
3.45932
21
-4.04308
0
LINE
8
BLACK
6
CONTINUOUS
10
3.45932
20
-4.04308
11
3.42388
21
-4.04308
0
LINE
8
BLACK
6
CONTINUOUS
10
3.42388
20
-4.04308
11
3.42012
21
-4.04233
0
LINE
8
BLACK
6
CONTINUOUS
10
3.42012
20
-4.04233
11
3.41692
21
-4.0402
0
LINE
8
BLACK
6
CONTINUOUS
10
3.41692
20
-4.0402
11
3.41479
21
-4.03701
0
LINE
8
BLACK
6
CONTINUOUS
10
3.41479
20
-4.03701
11
3.41404
21
-4.03324
0
LINE
8
BLACK
6
CONTINUOUS
10
3.41404
20
-4.03324
11
3.41404
21
-4.00765
0
LINE
8
BLACK
6
CONTINUOUS
10
3.41404
20
-4.00765
11
3.41479
21
-4.00388
0
LINE
8
BLACK
6
CONTINUOUS
10
3.41479
20
-4.00388
11
3.41692
21
-4.00069
0
LINE
8
BLACK
6
CONTINUOUS
10
3.41692
20
-4.00069
11
3.42012
21
-3.99856
0
LINE
8
BLACK
6
CONTINUOUS
10
3.42012
20
-3.99856
11
3.42388
21
-3.99781
0
LINE
8
BLACK
6
CONTINUOUS
10
3.42388
20
-3.99781
11
3.45932
21
-3.99781
0
LINE
8
BLACK
6
CONTINUOUS
10
3.45932
20
-3.99781
11
3.46308
21
-3.99856
0
LINE
8
BLACK
6
CONTINUOUS
10
3.54867
20
-3.80973
11
3.55154
21
-3.81165
0
LINE
8
BLACK
6
CONTINUOUS
10
3.55154
20
-3.81165
11
3.55346
21
-3.81452
0
LINE
8
BLACK
6
CONTINUOUS
10
3.55346
20
-3.81452
11
3.55413
21
-3.81791
0
LINE
8
BLACK
6
CONTINUOUS
10
3.55413
20
-3.81791
11
3.55413
21
-3.83563
0
LINE
8
BLACK
6
CONTINUOUS
10
3.55413
20
-3.83563
11
3.55346
21
-3.83902
0
LINE
8
BLACK
6
CONTINUOUS
10
3.55346
20
-3.83902
11
3.55154
21
-3.84189
0
LINE
8
BLACK
6
CONTINUOUS
10
3.55154
20
-3.84189
11
3.54867
21
-3.84381
0
LINE
8
BLACK
6
CONTINUOUS
10
3.54867
20
-3.84381
11
3.54528
21
-3.84449
0
LINE
8
BLACK
6
CONTINUOUS
10
3.54528
20
-3.84449
11
3.52559
21
-3.84449
0
LINE
8
BLACK
6
CONTINUOUS
10
3.52559
20
-3.84449
11
3.5222
21
-3.84381
0
LINE
8
BLACK
6
CONTINUOUS
10
3.5222
20
-3.84381
11
3.51933
21
-3.84189
0
LINE
8
BLACK
6
CONTINUOUS
10
3.51933
20
-3.84189
11
3.51741
21
-3.83902
0
LINE
8
BLACK
6
CONTINUOUS
10
3.51741
20
-3.83902
11
3.51673
21
-3.83563
0
LINE
8
BLACK
6
CONTINUOUS
10
3.51673
20
-3.83563
11
3.51673
21
-3.81791
0
LINE
8
BLACK
6
CONTINUOUS
10
3.51673
20
-3.81791
11
3.51741
21
-3.81452
0
LINE
8
BLACK
6
CONTINUOUS
10
3.51741
20
-3.81452
11
3.51933
21
-3.81165
0
LINE
8
BLACK
6
CONTINUOUS
10
3.51933
20
-3.81165
11
3.5222
21
-3.80973
0
LINE
8
BLACK
6
CONTINUOUS
10
3.5222
20
-3.80973
11
3.52559
21
-3.80906
0
LINE
8
BLACK
6
CONTINUOUS
10
3.52559
20
-3.80906
11
3.54528
21
-3.80906
0
LINE
8
BLACK
6
CONTINUOUS
10
3.54528
20
-3.80906
11
3.54867
21
-3.80973
0
LINE
8
BLACK
6
CONTINUOUS
10
3.67563
20
-3.76544
11
3.67851
21
-3.76736
0
LINE
8
BLACK
6
CONTINUOUS
10
3.67851
20
-3.76736
11
3.68043
21
-3.77023
0
LINE
8
BLACK
6
CONTINUOUS
10
3.68043
20
-3.77023
11
3.6811
21
-3.77362
0
LINE
8
BLACK
6
CONTINUOUS
10
3.6811
20
-3.77362
11
3.6811
21
-3.79331
0
LINE
8
BLACK
6
CONTINUOUS
10
3.6811
20
-3.79331
11
3.68043
21
-3.7967
0
LINE
8
BLACK
6
CONTINUOUS
10
3.68043
20
-3.7967
11
3.67851
21
-3.79957
0
LINE
8
BLACK
6
CONTINUOUS
10
3.67851
20
-3.79957
11
3.67563
21
-3.80149
0
LINE
8
BLACK
6
CONTINUOUS
10
3.67563
20
-3.80149
11
3.67224
21
-3.80217
0
LINE
8
BLACK
6
CONTINUOUS
10
3.67224
20
-3.80217
11
3.65453
21
-3.80217
0
LINE
8
BLACK
6
CONTINUOUS
10
3.65453
20
-3.80217
11
3.65114
21
-3.80149
0
LINE
8
BLACK
6
CONTINUOUS
10
3.65114
20
-3.80149
11
3.64826
21
-3.79957
0
LINE
8
BLACK
6
CONTINUOUS
10
3.64826
20
-3.79957
11
3.64634
21
-3.7967
0
LINE
8
BLACK
6
CONTINUOUS
10
3.64634
20
-3.7967
11
3.64567
21
-3.79331
0
LINE
8
BLACK
6
CONTINUOUS
10
3.64567
20
-3.79331
11
3.64567
21
-3.77362
0
LINE
8
BLACK
6
CONTINUOUS
10
3.64567
20
-3.77362
11
3.64634
21
-3.77023
0
LINE
8
BLACK
6
CONTINUOUS
10
3.64634
20
-3.77023
11
3.64826
21
-3.76736
0
LINE
8
BLACK
6
CONTINUOUS
10
3.64826
20
-3.76736
11
3.65114
21
-3.76544
0
LINE
8
BLACK
6
CONTINUOUS
10
3.65114
20
-3.76544
11
3.65453
21
-3.76476
0
LINE
8
BLACK
6
CONTINUOUS
10
3.65453
20
-3.76476
11
3.67224
21
-3.76476
0
LINE
8
BLACK
6
CONTINUOUS
10
3.67224
20
-3.76476
11
3.67563
21
-3.76544
0
LINE
8
BLACK
6
CONTINUOUS
10
3.61461
20
-3.76544
11
3.61748
21
-3.76736
0
LINE
8
BLACK
6
CONTINUOUS
10
3.61748
20
-3.76736
11
3.6194
21
-3.77023
0
LINE
8
BLACK
6
CONTINUOUS
10
3.6194
20
-3.77023
11
3.62008
21
-3.77362
0
LINE
8
BLACK
6
CONTINUOUS
10
3.62008
20
-3.77362
11
3.62008
21
-3.79331
0
LINE
8
BLACK
6
CONTINUOUS
10
3.62008
20
-3.79331
11
3.6194
21
-3.7967
0
LINE
8
BLACK
6
CONTINUOUS
10
3.6194
20
-3.7967
11
3.61748
21
-3.79957
0
LINE
8
BLACK
6
CONTINUOUS
10
3.61748
20
-3.79957
11
3.61461
21
-3.80149
0
LINE
8
BLACK
6
CONTINUOUS
10
3.61461
20
-3.80149
11
3.61122
21
-3.80217
0
LINE
8
BLACK
6
CONTINUOUS
10
3.61122
20
-3.80217
11
3.5935
21
-3.80217
0
LINE
8
BLACK
6
CONTINUOUS
10
3.5935
20
-3.80217
11
3.59011
21
-3.80149
0
LINE
8
BLACK
6
CONTINUOUS
10
3.59011
20
-3.80149
11
3.58724
21
-3.79957
0
LINE
8
BLACK
6
CONTINUOUS
10
3.58724
20
-3.79957
11
3.58532
21
-3.7967
0
LINE
8
BLACK
6
CONTINUOUS
10
3.58532
20
-3.7967
11
3.58465
21
-3.79331
0
LINE
8
BLACK
6
CONTINUOUS
10
3.58465
20
-3.79331
11
3.58465
21
-3.77362
0
LINE
8
BLACK
6
CONTINUOUS
10
3.58465
20
-3.77362
11
3.58532
21
-3.77023
0
LINE
8
BLACK
6
CONTINUOUS
10
3.58532
20
-3.77023
11
3.58724
21
-3.76736
0
LINE
8
BLACK
6
CONTINUOUS
10
3.58724
20
-3.76736
11
3.59011
21
-3.76544
0
LINE
8
BLACK
6
CONTINUOUS
10
3.59011
20
-3.76544
11
3.5935
21
-3.76476
0
LINE
8
BLACK
6
CONTINUOUS
10
3.5935
20
-3.76476
11
3.61122
21
-3.76476
0
LINE
8
BLACK
6
CONTINUOUS
10
3.61122
20
-3.76476
11
3.61461
21
-3.76544
0
LINE
8
BLACK
6
CONTINUOUS
10
3.54867
20
-3.74871
11
3.55154
21
-3.75063
0
LINE
8
BLACK
6
CONTINUOUS
10
3.55154
20
-3.75063
11
3.55346
21
-3.7535
0
LINE
8
BLACK
6
CONTINUOUS
10
3.55346
20
-3.7535
11
3.55413
21
-3.75689
0
LINE
8
BLACK
6
CONTINUOUS
10
3.55413
20
-3.75689
11
3.55413
21
-3.77461
0
LINE
8
BLACK
6
CONTINUOUS
10
3.55413
20
-3.77461
11
3.55346
21
-3.778
0
LINE
8
BLACK
6
CONTINUOUS
10
3.55346
20
-3.778
11
3.55154
21
-3.78087
0
LINE
8
BLACK
6
CONTINUOUS
10
3.55154
20
-3.78087
11
3.54867
21
-3.78279
0
LINE
8
BLACK
6
CONTINUOUS
10
3.54867
20
-3.78279
11
3.54528
21
-3.78346
0
LINE
8
BLACK
6
CONTINUOUS
10
3.54528
20
-3.78346
11
3.52559
21
-3.78346
0
LINE
8
BLACK
6
CONTINUOUS
10
3.52559
20
-3.78346
11
3.5222
21
-3.78279
0
LINE
8
BLACK
6
CONTINUOUS
10
3.5222
20
-3.78279
11
3.51933
21
-3.78087
0
LINE
8
BLACK
6
CONTINUOUS
10
3.51933
20
-3.78087
11
3.51741
21
-3.778
0
LINE
8
BLACK
6
CONTINUOUS
10
3.51741
20
-3.778
11
3.51673
21
-3.77461
0
LINE
8
BLACK
6
CONTINUOUS
10
3.51673
20
-3.77461
11
3.51673
21
-3.75689
0
LINE
8
BLACK
6
CONTINUOUS
10
3.51673
20
-3.75689
11
3.51741
21
-3.7535
0
LINE
8
BLACK
6
CONTINUOUS
10
3.51741
20
-3.7535
11
3.51933
21
-3.75063
0
LINE
8
BLACK
6
CONTINUOUS
10
3.51933
20
-3.75063
11
3.5222
21
-3.74871
0
LINE
8
BLACK
6
CONTINUOUS
10
3.5222
20
-3.74871
11
3.52559
21
-3.74803
0
LINE
8
BLACK
6
CONTINUOUS
10
3.52559
20
-3.74803
11
3.54528
21
-3.74803
0
LINE
8
BLACK
6
CONTINUOUS
10
3.54528
20
-3.74803
11
3.54867
21
-3.74871
0
LINE
8
BLACK
6
CONTINUOUS
10
3.67919
20
-3.70631
11
3.68175
21
-3.70801
0
LINE
8
BLACK
6
CONTINUOUS
10
3.68175
20
-3.70801
11
3.68346
21
-3.71057
0
LINE
8
BLACK
6
CONTINUOUS
10
3.68346
20
-3.71057
11
3.68406
21
-3.71358
0
LINE
8
BLACK
6
CONTINUOUS
10
3.68406
20
-3.71358
11
3.68406
21
-3.72933
0
LINE
8
BLACK
6
CONTINUOUS
10
3.68406
20
-3.72933
11
3.68346
21
-3.73234
0
LINE
8
BLACK
6
CONTINUOUS
10
3.68346
20
-3.73234
11
3.68175
21
-3.7349
0
LINE
8
BLACK
6
CONTINUOUS
10
3.68175
20
-3.7349
11
3.67919
21
-3.73661
0
LINE
8
BLACK
6
CONTINUOUS
10
3.67919
20
-3.73661
11
3.67618
21
-3.7372
0
LINE
8
BLACK
6
CONTINUOUS
10
3.67618
20
-3.7372
11
3.65453
21
-3.7372
0
LINE
8
BLACK
6
CONTINUOUS
10
3.65453
20
-3.7372
11
3.65151
21
-3.73661
0
LINE
8
BLACK
6
CONTINUOUS
10
3.65151
20
-3.73661
11
3.64896
21
-3.7349
0
LINE
8
BLACK
6
CONTINUOUS
10
3.64896
20
-3.7349
11
3.64725
21
-3.73234
0
LINE
8
BLACK
6
CONTINUOUS
10
3.64725
20
-3.73234
11
3.64665
21
-3.72933
0
LINE
8
BLACK
6
CONTINUOUS
10
3.64665
20
-3.72933
11
3.64665
21
-3.71358
0
LINE
8
BLACK
6
CONTINUOUS
10
3.64665
20
-3.71358
11
3.64725
21
-3.71057
0
LINE
8
BLACK
6
CONTINUOUS
10
3.64725
20
-3.71057
11
3.64896
21
-3.70801
0
LINE
8
BLACK
6
CONTINUOUS
10
3.64896
20
-3.70801
11
3.65151
21
-3.70631
0
LINE
8
BLACK
6
CONTINUOUS
10
3.65151
20
-3.70631
11
3.65453
21
-3.70571
0
LINE
8
BLACK
6
CONTINUOUS
10
3.65453
20
-3.70571
11
3.67618
21
-3.70571
0
LINE
8
BLACK
6
CONTINUOUS
10
3.67618
20
-3.70571
11
3.67919
21
-3.70631
0
LINE
8
BLACK
6
CONTINUOUS
10
3.61227
20
-3.70532
11
3.61482
21
-3.70703
0
LINE
8
BLACK
6
CONTINUOUS
10
3.61482
20
-3.70703
11
3.61653
21
-3.70959
0
LINE
8
BLACK
6
CONTINUOUS
10
3.61653
20
-3.70959
11
3.61713
21
-3.7126
0
LINE
8
BLACK
6
CONTINUOUS
10
3.61713
20
-3.7126
11
3.61713
21
-3.72835
0
LINE
8
BLACK
6
CONTINUOUS
10
3.61713
20
-3.72835
11
3.61653
21
-3.73136
0
LINE
8
BLACK
6
CONTINUOUS
10
3.61653
20
-3.73136
11
3.61482
21
-3.73391
0
LINE
8
BLACK
6
CONTINUOUS
10
3.61482
20
-3.73391
11
3.61227
21
-3.73562
0
LINE
8
BLACK
6
CONTINUOUS
10
3.61227
20
-3.73562
11
3.60925
21
-3.73622
0
LINE
8
BLACK
6
CONTINUOUS
10
3.60925
20
-3.73622
11
3.5876
21
-3.73622
0
LINE
8
BLACK
6
CONTINUOUS
10
3.5876
20
-3.73622
11
3.58459
21
-3.73562
0
LINE
8
BLACK
6
CONTINUOUS
10
3.58459
20
-3.73562
11
3.58203
21
-3.73391
0
LINE
8
BLACK
6
CONTINUOUS
10
3.58203
20
-3.73391
11
3.58032
21
-3.73136
0
LINE
8
BLACK
6
CONTINUOUS
10
3.58032
20
-3.73136
11
3.57972
21
-3.72835
0
LINE
8
BLACK
6
CONTINUOUS
10
3.57972
20
-3.72835
11
3.57972
21
-3.7126
0
LINE
8
BLACK
6
CONTINUOUS
10
3.57972
20
-3.7126
11
3.58032
21
-3.70959
0
LINE
8
BLACK
6
CONTINUOUS
10
3.58032
20
-3.70959
11
3.58203
21
-3.70703
0
LINE
8
BLACK
6
CONTINUOUS
10
3.58203
20
-3.70703
11
3.58459
21
-3.70532
0
LINE
8
BLACK
6
CONTINUOUS
10
3.58459
20
-3.70532
11
3.5876
21
-3.70472
0
LINE
8
BLACK
6
CONTINUOUS
10
3.5876
20
-3.70472
11
3.60925
21
-3.70472
0
LINE
8
BLACK
6
CONTINUOUS
10
3.60925
20
-3.70472
11
3.61227
21
-3.70532
0
LINE
8
BLACK
6
CONTINUOUS
10
3.54511
20
-3.6789
11
3.5483
21
-3.68103
0
LINE
8
BLACK
6
CONTINUOUS
10
3.5483
20
-3.68103
11
3.55043
21
-3.68423
0
LINE
8
BLACK
6
CONTINUOUS
10
3.55043
20
-3.68423
11
3.55118
21
-3.68799
0
LINE
8
BLACK
6
CONTINUOUS
10
3.55118
20
-3.68799
11
3.55118
21
-3.71358
0
LINE
8
BLACK
6
CONTINUOUS
10
3.55118
20
-3.71358
11
3.55043
21
-3.71735
0
LINE
8
BLACK
6
CONTINUOUS
10
3.55043
20
-3.71735
11
3.5483
21
-3.72054
0
LINE
8
BLACK
6
CONTINUOUS
10
3.5483
20
-3.72054
11
3.54511
21
-3.72268
0
LINE
8
BLACK
6
CONTINUOUS
10
3.54511
20
-3.72268
11
3.54134
21
-3.72343
0
LINE
8
BLACK
6
CONTINUOUS
10
3.54134
20
-3.72343
11
3.50591
21
-3.72343
0
LINE
8
BLACK
6
CONTINUOUS
10
3.50591
20
-3.72343
11
3.50214
21
-3.72268
0
LINE
8
BLACK
6
CONTINUOUS
10
3.50214
20
-3.72268
11
3.49895
21
-3.72054
0
LINE
8
BLACK
6
CONTINUOUS
10
3.49895
20
-3.72054
11
3.49681
21
-3.71735
0
LINE
8
BLACK
6
CONTINUOUS
10
3.49681
20
-3.71735
11
3.49606
21
-3.71358
0
LINE
8
BLACK
6
CONTINUOUS
10
3.49606
20
-3.71358
11
3.49606
21
-3.68799
0
LINE
8
BLACK
6
CONTINUOUS
10
3.49606
20
-3.68799
11
3.49681
21
-3.68423
0
LINE
8
BLACK
6
CONTINUOUS
10
3.49681
20
-3.68423
11
3.49895
21
-3.68103
0
LINE
8
BLACK
6
CONTINUOUS
10
3.49895
20
-3.68103
11
3.50214
21
-3.6789
0
LINE
8
BLACK
6
CONTINUOUS
10
3.50214
20
-3.6789
11
3.50591
21
-3.67815
0
LINE
8
BLACK
6
CONTINUOUS
10
3.50591
20
-3.67815
11
3.54134
21
-3.67815
0
LINE
8
BLACK
6
CONTINUOUS
10
3.54134
20
-3.67815
11
3.54511
21
-3.6789
0
LINE
8
BLACK
6
CONTINUOUS
10
3.67919
20
-3.64135
11
3.68175
21
-3.64305
0
LINE
8
BLACK
6
CONTINUOUS
10
3.68175
20
-3.64305
11
3.68346
21
-3.64561
0
LINE
8
BLACK
6
CONTINUOUS
10
3.68346
20
-3.64561
11
3.68406
21
-3.64862
0
LINE
8
BLACK
6
CONTINUOUS
10
3.68406
20
-3.64862
11
3.68406
21
-3.66437
0
LINE
8
BLACK
6
CONTINUOUS
10
3.68406
20
-3.66437
11
3.68346
21
-3.66738
0
LINE
8
BLACK
6
CONTINUOUS
10
3.68346
20
-3.66738
11
3.68175
21
-3.66994
0
LINE
8
BLACK
6
CONTINUOUS
10
3.68175
20
-3.66994
11
3.67919
21
-3.67164
0
LINE
8
BLACK
6
CONTINUOUS
10
3.67919
20
-3.67164
11
3.67618
21
-3.67224
0
LINE
8
BLACK
6
CONTINUOUS
10
3.67618
20
-3.67224
11
3.65453
21
-3.67224
0
LINE
8
BLACK
6
CONTINUOUS
10
3.65453
20
-3.67224
11
3.65151
21
-3.67164
0
LINE
8
BLACK
6
CONTINUOUS
10
3.65151
20
-3.67164
11
3.64896
21
-3.66994
0
LINE
8
BLACK
6
CONTINUOUS
10
3.64896
20
-3.66994
11
3.64725
21
-3.66738
0
LINE
8
BLACK
6
CONTINUOUS
10
3.64725
20
-3.66738
11
3.64665
21
-3.66437
0
LINE
8
BLACK
6
CONTINUOUS
10
3.64665
20
-3.66437
11
3.64665
21
-3.64862
0
LINE
8
BLACK
6
CONTINUOUS
10
3.64665
20
-3.64862
11
3.64725
21
-3.64561
0
LINE
8
BLACK
6
CONTINUOUS
10
3.64725
20
-3.64561
11
3.64896
21
-3.64305
0
LINE
8
BLACK
6
CONTINUOUS
10
3.64896
20
-3.64305
11
3.65151
21
-3.64135
0
LINE
8
BLACK
6
CONTINUOUS
10
3.65151
20
-3.64135
11
3.65453
21
-3.64075
0
LINE
8
BLACK
6
CONTINUOUS
10
3.65453
20
-3.64075
11
3.67618
21
-3.64075
0
LINE
8
BLACK
6
CONTINUOUS
10
3.67618
20
-3.64075
11
3.67919
21
-3.64135
0
LINE
8
BLACK
6
CONTINUOUS
10
3.61227
20
-3.64036
11
3.61482
21
-3.64207
0
LINE
8
BLACK
6
CONTINUOUS
10
3.61482
20
-3.64207
11
3.61653
21
-3.64462
0
LINE
8
BLACK
6
CONTINUOUS
10
3.61653
20
-3.64462
11
3.61713
21
-3.64764
0
LINE
8
BLACK
6
CONTINUOUS
10
3.61713
20
-3.64764
11
3.61713
21
-3.66339
0
LINE
8
BLACK
6
CONTINUOUS
10
3.61713
20
-3.66339
11
3.61653
21
-3.6664
0
LINE
8
BLACK
6
CONTINUOUS
10
3.61653
20
-3.6664
11
3.61482
21
-3.66895
0
LINE
8
BLACK
6
CONTINUOUS
10
3.61482
20
-3.66895
11
3.61227
21
-3.67066
0
LINE
8
BLACK
6
CONTINUOUS
10
3.61227
20
-3.67066
11
3.60925
21
-3.67126
0
LINE
8
BLACK
6
CONTINUOUS
10
3.60925
20
-3.67126
11
3.5876
21
-3.67126
0
LINE
8
BLACK
6
CONTINUOUS
10
3.5876
20
-3.67126
11
3.58459
21
-3.67066
0
LINE
8
BLACK
6
CONTINUOUS
10
3.58459
20
-3.67066
11
3.58203
21
-3.66895
0
LINE
8
BLACK
6
CONTINUOUS
10
3.58203
20
-3.66895
11
3.58032
21
-3.6664
0
LINE
8
BLACK
6
CONTINUOUS
10
3.58032
20
-3.6664
11
3.57972
21
-3.66339
0
LINE
8
BLACK
6
CONTINUOUS
10
3.57972
20
-3.66339
11
3.57972
21
-3.64764
0
LINE
8
BLACK
6
CONTINUOUS
10
3.57972
20
-3.64764
11
3.58032
21
-3.64462
0
LINE
8
BLACK
6
CONTINUOUS
10
3.58032
20
-3.64462
11
3.58203
21
-3.64207
0
LINE
8
BLACK
6
CONTINUOUS
10
3.58203
20
-3.64207
11
3.58459
21
-3.64036
0
LINE
8
BLACK
6
CONTINUOUS
10
3.58459
20
-3.64036
11
3.5876
21
-3.63976
0
LINE
8
BLACK
6
CONTINUOUS
10
3.5876
20
-3.63976
11
3.60925
21
-3.63976
0
LINE
8
BLACK
6
CONTINUOUS
10
3.60925
20
-3.63976
11
3.61227
21
-3.64036
0
LINE
8
BLACK
6
CONTINUOUS
10
3.77307
20
-3.61091
11
3.77595
21
-3.61283
0
LINE
8
BLACK
6
CONTINUOUS
10
3.77595
20
-3.61283
11
3.77787
21
-3.6157
0
LINE
8
BLACK
6
CONTINUOUS
10
3.77787
20
-3.6157
11
3.77854
21
-3.61909
0
LINE
8
BLACK
6
CONTINUOUS
10
3.77854
20
-3.61909
11
3.77854
21
-3.63681
0
LINE
8
BLACK
6
CONTINUOUS
10
3.77854
20
-3.63681
11
3.77787
21
-3.6402
0
LINE
8
BLACK
6
CONTINUOUS
10
3.77787
20
-3.6402
11
3.77595
21
-3.64307
0
LINE
8
BLACK
6
CONTINUOUS
10
3.77595
20
-3.64307
11
3.77307
21
-3.64499
0
LINE
8
BLACK
6
CONTINUOUS
10
3.77307
20
-3.64499
11
3.76969
21
-3.64567
0
LINE
8
BLACK
6
CONTINUOUS
10
3.76969
20
-3.64567
11
3.75
21
-3.64567
0
LINE
8
BLACK
6
CONTINUOUS
10
3.75
20
-3.64567
11
3.74661
21
-3.64499
0
LINE
8
BLACK
6
CONTINUOUS
10
3.74661
20
-3.64499
11
3.74374
21
-3.64307
0
LINE
8
BLACK
6
CONTINUOUS
10
3.74374
20
-3.64307
11
3.74182
21
-3.6402
0
LINE
8
BLACK
6
CONTINUOUS
10
3.74182
20
-3.6402
11
3.74114
21
-3.63681
0
LINE
8
BLACK
6
CONTINUOUS
10
3.74114
20
-3.63681
11
3.74114
21
-3.61909
0
LINE
8
BLACK
6
CONTINUOUS
10
3.74114
20
-3.61909
11
3.74182
21
-3.6157
0
LINE
8
BLACK
6
CONTINUOUS
10
3.74182
20
-3.6157
11
3.74374
21
-3.61283
0
LINE
8
BLACK
6
CONTINUOUS
10
3.74374
20
-3.61283
11
3.74661
21
-3.61091
0
LINE
8
BLACK
6
CONTINUOUS
10
3.74661
20
-3.61091
11
3.75
21
-3.61024
0
LINE
8
BLACK
6
CONTINUOUS
10
3.75
20
-3.61024
11
3.76969
21
-3.61024
0
LINE
8
BLACK
6
CONTINUOUS
10
3.76969
20
-3.61024
11
3.77307
21
-3.61091
0
LINE
8
BLACK
6
CONTINUOUS
10
3.54511
20
-3.59819
11
3.5483
21
-3.60032
0
LINE
8
BLACK
6
CONTINUOUS
10
3.5483
20
-3.60032
11
3.55043
21
-3.60352
0
LINE
8
BLACK
6
CONTINUOUS
10
3.55043
20
-3.60352
11
3.55118
21
-3.60728
0
LINE
8
BLACK
6
CONTINUOUS
10
3.55118
20
-3.60728
11
3.55118
21
-3.63287
0
LINE
8
BLACK
6
CONTINUOUS
10
3.55118
20
-3.63287
11
3.55043
21
-3.63664
0
LINE
8
BLACK
6
CONTINUOUS
10
3.55043
20
-3.63664
11
3.5483
21
-3.63983
0
LINE
8
BLACK
6
CONTINUOUS
10
3.5483
20
-3.63983
11
3.54511
21
-3.64197
0
LINE
8
BLACK
6
CONTINUOUS
10
3.54511
20
-3.64197
11
3.54134
21
-3.64272
0
LINE
8
BLACK
6
CONTINUOUS
10
3.54134
20
-3.64272
11
3.50591
21
-3.64272
0
LINE
8
BLACK
6
CONTINUOUS
10
3.50591
20
-3.64272
11
3.50214
21
-3.64197
0
LINE
8
BLACK
6
CONTINUOUS
10
3.50214
20
-3.64197
11
3.49895
21
-3.63983
0
LINE
8
BLACK
6
CONTINUOUS
10
3.49895
20
-3.63983
11
3.49681
21
-3.63664
0
LINE
8
BLACK
6
CONTINUOUS
10
3.49681
20
-3.63664
11
3.49606
21
-3.63287
0
LINE
8
BLACK
6
CONTINUOUS
10
3.49606
20
-3.63287
11
3.49606
21
-3.60728
0
LINE
8
BLACK
6
CONTINUOUS
10
3.49606
20
-3.60728
11
3.49681
21
-3.60352
0
LINE
8
BLACK
6
CONTINUOUS
10
3.49681
20
-3.60352
11
3.49895
21
-3.60032
0
LINE
8
BLACK
6
CONTINUOUS
10
3.49895
20
-3.60032
11
3.50214
21
-3.59819
0
LINE
8
BLACK
6
CONTINUOUS
10
3.50214
20
-3.59819
11
3.50591
21
-3.59744
0
LINE
8
BLACK
6
CONTINUOUS
10
3.50591
20
-3.59744
11
3.54134
21
-3.59744
0
LINE
8
BLACK
6
CONTINUOUS
10
3.54134
20
-3.59744
11
3.54511
21
-3.59819
0
LINE
8
BLACK
6
CONTINUOUS
10
3.77307
20
-3.54989
11
3.77595
21
-3.55181
0
LINE
8
BLACK
6
CONTINUOUS
10
3.77595
20
-3.55181
11
3.77787
21
-3.55468
0
LINE
8
BLACK
6
CONTINUOUS
10
3.77787
20
-3.55468
11
3.77854
21
-3.55807
0
LINE
8
BLACK
6
CONTINUOUS
10
3.77854
20
-3.55807
11
3.77854
21
-3.57579
0
LINE
8
BLACK
6
CONTINUOUS
10
3.77854
20
-3.57579
11
3.77787
21
-3.57918
0
LINE
8
BLACK
6
CONTINUOUS
10
3.77787
20
-3.57918
11
3.77595
21
-3.58205
0
LINE
8
BLACK
6
CONTINUOUS
10
3.77595
20
-3.58205
11
3.77307
21
-3.58397
0
LINE
8
BLACK
6
CONTINUOUS
10
3.77307
20
-3.58397
11
3.76969
21
-3.58465
0
LINE
8
BLACK
6
CONTINUOUS
10
3.76969
20
-3.58465
11
3.75
21
-3.58465
0
LINE
8
BLACK
6
CONTINUOUS
10
3.75
20
-3.58465
11
3.74661
21
-3.58397
0
LINE
8
BLACK
6
CONTINUOUS
10
3.74661
20
-3.58397
11
3.74374
21
-3.58205
0
LINE
8
BLACK
6
CONTINUOUS
10
3.74374
20
-3.58205
11
3.74182
21
-3.57918
0
LINE
8
BLACK
6
CONTINUOUS
10
3.74182
20
-3.57918
11
3.74114
21
-3.57579
0
LINE
8
BLACK
6
CONTINUOUS
10
3.74114
20
-3.57579
11
3.74114
21
-3.55807
0
LINE
8
BLACK
6
CONTINUOUS
10
3.74114
20
-3.55807
11
3.74182
21
-3.55468
0
LINE
8
BLACK
6
CONTINUOUS
10
3.74182
20
-3.55468
11
3.74374
21
-3.55181
0
LINE
8
BLACK
6
CONTINUOUS
10
3.74374
20
-3.55181
11
3.74661
21
-3.54989
0
LINE
8
BLACK
6
CONTINUOUS
10
3.74661
20
-3.54989
11
3.75
21
-3.54921
0
LINE
8
BLACK
6
CONTINUOUS
10
3.75
20
-3.54921
11
3.76969
21
-3.54921
0
LINE
8
BLACK
6
CONTINUOUS
10
3.76969
20
-3.54921
11
3.77307
21
-3.54989
0
LINE
8
BLACK
6
CONTINUOUS
10
3.49416
20
-3.50847
11
3.49671
21
-3.51018
0
LINE
8
BLACK
6
CONTINUOUS
10
3.49671
20
-3.51018
11
3.49842
21
-3.51273
0
LINE
8
BLACK
6
CONTINUOUS
10
3.49842
20
-3.51273
11
3.49902
21
-3.51575
0
LINE
8
BLACK
6
CONTINUOUS
10
3.49902
20
-3.51575
11
3.49902
21
-3.5315
0
LINE
8
BLACK
6
CONTINUOUS
10
3.49902
20
-3.5315
11
3.49842
21
-3.53451
0
LINE
8
BLACK
6
CONTINUOUS
10
3.49842
20
-3.53451
11
3.49671
21
-3.53706
0
LINE
8
BLACK
6
CONTINUOUS
10
3.49671
20
-3.53706
11
3.49416
21
-3.53877
0
LINE
8
BLACK
6
CONTINUOUS
10
3.49416
20
-3.53877
11
3.49114
21
-3.53937
0
LINE
8
BLACK
6
CONTINUOUS
10
3.49114
20
-3.53937
11
3.46949
21
-3.53937
0
LINE
8
BLACK
6
CONTINUOUS
10
3.46949
20
-3.53937
11
3.46647
21
-3.53877
0
LINE
8
BLACK
6
CONTINUOUS
10
3.46647
20
-3.53877
11
3.46392
21
-3.53706
0
LINE
8
BLACK
6
CONTINUOUS
10
3.46392
20
-3.53706
11
3.46221
21
-3.53451
0
LINE
8
BLACK
6
CONTINUOUS
10
3.46221
20
-3.53451
11
3.46161
21
-3.5315
0
LINE
8
BLACK
6
CONTINUOUS
10
3.46161
20
-3.5315
11
3.46161
21
-3.51575
0
LINE
8
BLACK
6
CONTINUOUS
10
3.46161
20
-3.51575
11
3.46221
21
-3.51273
0
LINE
8
BLACK
6
CONTINUOUS
10
3.46221
20
-3.51273
11
3.46392
21
-3.51018
0
LINE
8
BLACK
6
CONTINUOUS
10
3.46392
20
-3.51018
11
3.46647
21
-3.50847
0
LINE
8
BLACK
6
CONTINUOUS
10
3.46647
20
-3.50847
11
3.46949
21
-3.50787
0
LINE
8
BLACK
6
CONTINUOUS
10
3.46949
20
-3.50787
11
3.49114
21
-3.50787
0
LINE
8
BLACK
6
CONTINUOUS
10
3.49114
20
-3.50787
11
3.49416
21
-3.50847
0
LINE
8
BLACK
6
CONTINUOUS
10
3.49416
20
-3.44351
11
3.49671
21
-3.44522
0
LINE
8
BLACK
6
CONTINUOUS
10
3.49671
20
-3.44522
11
3.49842
21
-3.44777
0
LINE
8
BLACK
6
CONTINUOUS
10
3.49842
20
-3.44777
11
3.49902
21
-3.45079
0
LINE
8
BLACK
6
CONTINUOUS
10
3.49902
20
-3.45079
11
3.49902
21
-3.46654
0
LINE
8
BLACK
6
CONTINUOUS
10
3.49902
20
-3.46654
11
3.49842
21
-3.46955
0
LINE
8
BLACK
6
CONTINUOUS
10
3.49842
20
-3.46955
11
3.49671
21
-3.4721
0
LINE
8
BLACK
6
CONTINUOUS
10
3.49671
20
-3.4721
11
3.49416
21
-3.47381
0
LINE
8
BLACK
6
CONTINUOUS
10
3.49416
20
-3.47381
11
3.49114
21
-3.47441
0
LINE
8
BLACK
6
CONTINUOUS
10
3.49114
20
-3.47441
11
3.46949
21
-3.47441
0
LINE
8
BLACK
6
CONTINUOUS
10
3.46949
20
-3.47441
11
3.46647
21
-3.47381
0
LINE
8
BLACK
6
CONTINUOUS
10
3.46647
20
-3.47381
11
3.46392
21
-3.4721
0
LINE
8
BLACK
6
CONTINUOUS
10
3.46392
20
-3.4721
11
3.46221
21
-3.46955
0
LINE
8
BLACK
6
CONTINUOUS
10
3.46221
20
-3.46955
11
3.46161
21
-3.46654
0
LINE
8
BLACK
6
CONTINUOUS
10
3.46161
20
-3.46654
11
3.46161
21
-3.45079
0
LINE
8
BLACK
6
CONTINUOUS
10
3.46161
20
-3.45079
11
3.46221
21
-3.44777
0
LINE
8
BLACK
6
CONTINUOUS
10
3.46221
20
-3.44777
11
3.46392
21
-3.44522
0
LINE
8
BLACK
6
CONTINUOUS
10
3.46392
20
-3.44522
11
3.46647
21
-3.44351
0
LINE
8
BLACK
6
CONTINUOUS
10
3.46647
20
-3.44351
11
3.46949
21
-3.44291
0
LINE
8
BLACK
6
CONTINUOUS
10
3.46949
20
-3.44291
11
3.49114
21
-3.44291
0
LINE
8
BLACK
6
CONTINUOUS
10
3.49114
20
-3.44291
11
3.49416
21
-3.44351
0
LINE
8
BLACK
6
CONTINUOUS
10
3.49416
20
-3.39036
11
3.49671
21
-3.39207
0
LINE
8
BLACK
6
CONTINUOUS
10
3.49671
20
-3.39207
11
3.49842
21
-3.39462
0
LINE
8
BLACK
6
CONTINUOUS
10
3.49842
20
-3.39462
11
3.49902
21
-3.39764
0
LINE
8
BLACK
6
CONTINUOUS
10
3.49902
20
-3.39764
11
3.49902
21
-3.41339
0
LINE
8
BLACK
6
CONTINUOUS
10
3.49902
20
-3.41339
11
3.49842
21
-3.4164
0
LINE
8
BLACK
6
CONTINUOUS
10
3.49842
20
-3.4164
11
3.49671
21
-3.41895
0
LINE
8
BLACK
6
CONTINUOUS
10
3.49671
20
-3.41895
11
3.49416
21
-3.42066
0
LINE
8
BLACK
6
CONTINUOUS
10
3.49416
20
-3.42066
11
3.49114
21
-3.42126
0
LINE
8
BLACK
6
CONTINUOUS
10
3.49114
20
-3.42126
11
3.46949
21
-3.42126
0
LINE
8
BLACK
6
CONTINUOUS
10
3.46949
20
-3.42126
11
3.46647
21
-3.42066
0
LINE
8
BLACK
6
CONTINUOUS
10
3.46647
20
-3.42066
11
3.46392
21
-3.41895
0
LINE
8
BLACK
6
CONTINUOUS
10
3.46392
20
-3.41895
11
3.46221
21
-3.4164
0
LINE
8
BLACK
6
CONTINUOUS
10
3.46221
20
-3.4164
11
3.46161
21
-3.41339
0
LINE
8
BLACK
6
CONTINUOUS
10
3.46161
20
-3.41339
11
3.46161
21
-3.39764
0
LINE
8
BLACK
6
CONTINUOUS
10
3.46161
20
-3.39764
11
3.46221
21
-3.39462
0
LINE
8
BLACK
6
CONTINUOUS
10
3.46221
20
-3.39462
11
3.46392
21
-3.39207
0
LINE
8
BLACK
6
CONTINUOUS
10
3.46392
20
-3.39207
11
3.46647
21
-3.39036
0
LINE
8
BLACK
6
CONTINUOUS
10
3.46647
20
-3.39036
11
3.46949
21
-3.38976
0
LINE
8
BLACK
6
CONTINUOUS
10
3.46949
20
-3.38976
11
3.49114
21
-3.38976
0
LINE
8
BLACK
6
CONTINUOUS
10
3.49114
20
-3.38976
11
3.49416
21
-3.39036
0
LINE
8
BLACK
6
CONTINUOUS
10
3.49416
20
-3.3254
11
3.49671
21
-3.32711
0
LINE
8
BLACK
6
CONTINUOUS
10
3.49671
20
-3.32711
11
3.49842
21
-3.32966
0
LINE
8
BLACK
6
CONTINUOUS
10
3.49842
20
-3.32966
11
3.49902
21
-3.33268
0
LINE
8
BLACK
6
CONTINUOUS
10
3.49902
20
-3.33268
11
3.49902
21
-3.34843
0
LINE
8
BLACK
6
CONTINUOUS
10
3.49902
20
-3.34843
11
3.49842
21
-3.35144
0
LINE
8
BLACK
6
CONTINUOUS
10
3.49842
20
-3.35144
11
3.49671
21
-3.35399
0
LINE
8
BLACK
6
CONTINUOUS
10
3.49671
20
-3.35399
11
3.49416
21
-3.3557
0
LINE
8
BLACK
6
CONTINUOUS
10
3.49416
20
-3.3557
11
3.49114
21
-3.3563
0
LINE
8
BLACK
6
CONTINUOUS
10
3.49114
20
-3.3563
11
3.46949
21
-3.3563
0
LINE
8
BLACK
6
CONTINUOUS
10
3.46949
20
-3.3563
11
3.46647
21
-3.3557
0
LINE
8
BLACK
6
CONTINUOUS
10
3.46647
20
-3.3557
11
3.46392
21
-3.35399
0
LINE
8
BLACK
6
CONTINUOUS
10
3.46392
20
-3.35399
11
3.46221
21
-3.35144
0
LINE
8
BLACK
6
CONTINUOUS
10
3.46221
20
-3.35144
11
3.46161
21
-3.34843
0
LINE
8
BLACK
6
CONTINUOUS
10
3.46161
20
-3.34843
11
3.46161
21
-3.33268
0
LINE
8
BLACK
6
CONTINUOUS
10
3.46161
20
-3.33268
11
3.46221
21
-3.32966
0
LINE
8
BLACK
6
CONTINUOUS
10
3.46221
20
-3.32966
11
3.46392
21
-3.32711
0
LINE
8
BLACK
6
CONTINUOUS
10
3.46392
20
-3.32711
11
3.46647
21
-3.3254
0
LINE
8
BLACK
6
CONTINUOUS
10
3.46647
20
-3.3254
11
3.46949
21
-3.3248
0
LINE
8
BLACK
6
CONTINUOUS
10
3.46949
20
-3.3248
11
3.49114
21
-3.3248
0
LINE
8
BLACK
6
CONTINUOUS
10
3.49114
20
-3.3248
11
3.49416
21
-3.3254
0
LINE
8
BLACK
6
CONTINUOUS
10
3.62801
20
-3.13446
11
3.63057
21
-3.13616
0
LINE
8
BLACK
6
CONTINUOUS
10
3.63057
20
-3.13616
11
3.63227
21
-3.13872
0
LINE
8
BLACK
6
CONTINUOUS
10
3.63227
20
-3.13872
11
3.63287
21
-3.14173
0
LINE
8
BLACK
6
CONTINUOUS
10
3.63287
20
-3.14173
11
3.63287
21
-3.15748
0
LINE
8
BLACK
6
CONTINUOUS
10
3.63287
20
-3.15748
11
3.63227
21
-3.16049
0
LINE
8
BLACK
6
CONTINUOUS
10
3.63227
20
-3.16049
11
3.63057
21
-3.16305
0
LINE
8
BLACK
6
CONTINUOUS
10
3.63057
20
-3.16305
11
3.62801
21
-3.16475
0
LINE
8
BLACK
6
CONTINUOUS
10
3.62801
20
-3.16475
11
3.625
21
-3.16535
0
LINE
8
BLACK
6
CONTINUOUS
10
3.625
20
-3.16535
11
3.60335
21
-3.16535
0
LINE
8
BLACK
6
CONTINUOUS
10
3.60335
20
-3.16535
11
3.60033
21
-3.16475
0
LINE
8
BLACK
6
CONTINUOUS
10
3.60033
20
-3.16475
11
3.59778
21
-3.16305
0
LINE
8
BLACK
6
CONTINUOUS
10
3.59778
20
-3.16305
11
3.59607
21
-3.16049
0
LINE
8
BLACK
6
CONTINUOUS
10
3.59607
20
-3.16049
11
3.59547
21
-3.15748
0
LINE
8
BLACK
6
CONTINUOUS
10
3.59547
20
-3.15748
11
3.59547
21
-3.14173
0
LINE
8
BLACK
6
CONTINUOUS
10
3.59547
20
-3.14173
11
3.59607
21
-3.13872
0
LINE
8
BLACK
6
CONTINUOUS
10
3.59607
20
-3.13872
11
3.59778
21
-3.13616
0
LINE
8
BLACK
6
CONTINUOUS
10
3.59778
20
-3.13616
11
3.60033
21
-3.13446
0
LINE
8
BLACK
6
CONTINUOUS
10
3.60033
20
-3.13446
11
3.60335
21
-3.13386
0
LINE
8
BLACK
6
CONTINUOUS
10
3.60335
20
-3.13386
11
3.625
21
-3.13386
0
LINE
8
BLACK
6
CONTINUOUS
10
3.625
20
-3.13386
11
3.62801
21
-3.13446
0
LINE
8
BLACK
6
CONTINUOUS
10
3.56502
20
-3.13446
11
3.56758
21
-3.13616
0
LINE
8
BLACK
6
CONTINUOUS
10
3.56758
20
-3.13616
11
3.56928
21
-3.13872
0
LINE
8
BLACK
6
CONTINUOUS
10
3.56928
20
-3.13872
11
3.56988
21
-3.14173
0
LINE
8
BLACK
6
CONTINUOUS
10
3.56988
20
-3.14173
11
3.56988
21
-3.15748
0
LINE
8
BLACK
6
CONTINUOUS
10
3.56988
20
-3.15748
11
3.56928
21
-3.16049
0
LINE
8
BLACK
6
CONTINUOUS
10
3.56928
20
-3.16049
11
3.56758
21
-3.16305
0
LINE
8
BLACK
6
CONTINUOUS
10
3.56758
20
-3.16305
11
3.56502
21
-3.16475
0
LINE
8
BLACK
6
CONTINUOUS
10
3.56502
20
-3.16475
11
3.56201
21
-3.16535
0
LINE
8
BLACK
6
CONTINUOUS
10
3.56201
20
-3.16535
11
3.54035
21
-3.16535
0
LINE
8
BLACK
6
CONTINUOUS
10
3.54035
20
-3.16535
11
3.53734
21
-3.16475
0
LINE
8
BLACK
6
CONTINUOUS
10
3.53734
20
-3.16475
11
3.53479
21
-3.16305
0
LINE
8
BLACK
6
CONTINUOUS
10
3.53479
20
-3.16305
11
3.53308
21
-3.16049
0
LINE
8
BLACK
6
CONTINUOUS
10
3.53308
20
-3.16049
11
3.53248
21
-3.15748
0
LINE
8
BLACK
6
CONTINUOUS
10
3.53248
20
-3.15748
11
3.53248
21
-3.14173
0
LINE
8
BLACK
6
CONTINUOUS
10
3.53248
20
-3.14173
11
3.53308
21
-3.13872
0
LINE
8
BLACK
6
CONTINUOUS
10
3.53308
20
-3.13872
11
3.53479
21
-3.13616
0
LINE
8
BLACK
6
CONTINUOUS
10
3.53479
20
-3.13616
11
3.53734
21
-3.13446
0
LINE
8
BLACK
6
CONTINUOUS
10
3.53734
20
-3.13446
11
3.54035
21
-3.13386
0
LINE
8
BLACK
6
CONTINUOUS
10
3.54035
20
-3.13386
11
3.56201
21
-3.13386
0
LINE
8
BLACK
6
CONTINUOUS
10
3.56201
20
-3.13386
11
3.56502
21
-3.13446
0
LINE
8
BLACK
6
CONTINUOUS
10
3.62801
20
-3.0695
11
3.63057
21
-3.0712
0
LINE
8
BLACK
6
CONTINUOUS
10
3.63057
20
-3.0712
11
3.63227
21
-3.07376
0
LINE
8
BLACK
6
CONTINUOUS
10
3.63227
20
-3.07376
11
3.63287
21
-3.07677
0
LINE
8
BLACK
6
CONTINUOUS
10
3.63287
20
-3.07677
11
3.63287
21
-3.09252
0
LINE
8
BLACK
6
CONTINUOUS
10
3.63287
20
-3.09252
11
3.63227
21
-3.09553
0
LINE
8
BLACK
6
CONTINUOUS
10
3.63227
20
-3.09553
11
3.63057
21
-3.09809
0
LINE
8
BLACK
6
CONTINUOUS
10
3.63057
20
-3.09809
11
3.62801
21
-3.09979
0
LINE
8
BLACK
6
CONTINUOUS
10
3.62801
20
-3.09979
11
3.625
21
-3.10039
0
LINE
8
BLACK
6
CONTINUOUS
10
3.625
20
-3.10039
11
3.60335
21
-3.10039
0
LINE
8
BLACK
6
CONTINUOUS
10
3.60335
20
-3.10039
11
3.60033
21
-3.09979
0
LINE
8
BLACK
6
CONTINUOUS
10
3.60033
20
-3.09979
11
3.59778
21
-3.09809
0
LINE
8
BLACK
6
CONTINUOUS
10
3.59778
20
-3.09809
11
3.59607
21
-3.09553
0
LINE
8
BLACK
6
CONTINUOUS
10
3.59607
20
-3.09553
11
3.59547
21
-3.09252
0
LINE
8
BLACK
6
CONTINUOUS
10
3.59547
20
-3.09252
11
3.59547
21
-3.07677
0
LINE
8
BLACK
6
CONTINUOUS
10
3.59547
20
-3.07677
11
3.59607
21
-3.07376
0
LINE
8
BLACK
6
CONTINUOUS
10
3.59607
20
-3.07376
11
3.59778
21
-3.0712
0
LINE
8
BLACK
6
CONTINUOUS
10
3.59778
20
-3.0712
11
3.60033
21
-3.0695
0
LINE
8
BLACK
6
CONTINUOUS
10
3.60033
20
-3.0695
11
3.60335
21
-3.0689
0
LINE
8
BLACK
6
CONTINUOUS
10
3.60335
20
-3.0689
11
3.625
21
-3.0689
0
LINE
8
BLACK
6
CONTINUOUS
10
3.625
20
-3.0689
11
3.62801
21
-3.0695
0
LINE
8
BLACK
6
CONTINUOUS
10
3.56502
20
-3.0695
11
3.56758
21
-3.0712
0
LINE
8
BLACK
6
CONTINUOUS
10
3.56758
20
-3.0712
11
3.56928
21
-3.07376
0
LINE
8
BLACK
6
CONTINUOUS
10
3.56928
20
-3.07376
11
3.56988
21
-3.07677
0
LINE
8
BLACK
6
CONTINUOUS
10
3.56988
20
-3.07677
11
3.56988
21
-3.09252
0
LINE
8
BLACK
6
CONTINUOUS
10
3.56988
20
-3.09252
11
3.56928
21
-3.09553
0
LINE
8
BLACK
6
CONTINUOUS
10
3.56928
20
-3.09553
11
3.56758
21
-3.09809
0
LINE
8
BLACK
6
CONTINUOUS
10
3.56758
20
-3.09809
11
3.56502
21
-3.09979
0
LINE
8
BLACK
6
CONTINUOUS
10
3.56502
20
-3.09979
11
3.56201
21
-3.10039
0
LINE
8
BLACK
6
CONTINUOUS
10
3.56201
20
-3.10039
11
3.54035
21
-3.10039
0
LINE
8
BLACK
6
CONTINUOUS
10
3.54035
20
-3.10039
11
3.53734
21
-3.09979
0
LINE
8
BLACK
6
CONTINUOUS
10
3.53734
20
-3.09979
11
3.53479
21
-3.09809
0
LINE
8
BLACK
6
CONTINUOUS
10
3.53479
20
-3.09809
11
3.53308
21
-3.09553
0
LINE
8
BLACK
6
CONTINUOUS
10
3.53308
20
-3.09553
11
3.53248
21
-3.09252
0
LINE
8
BLACK
6
CONTINUOUS
10
3.53248
20
-3.09252
11
3.53248
21
-3.07677
0
LINE
8
BLACK
6
CONTINUOUS
10
3.53248
20
-3.07677
11
3.53308
21
-3.07376
0
LINE
8
BLACK
6
CONTINUOUS
10
3.53308
20
-3.07376
11
3.53479
21
-3.0712
0
LINE
8
BLACK
6
CONTINUOUS
10
3.53479
20
-3.0712
11
3.53734
21
-3.0695
0
LINE
8
BLACK
6
CONTINUOUS
10
3.53734
20
-3.0695
11
3.54035
21
-3.0689
0
LINE
8
BLACK
6
CONTINUOUS
10
3.54035
20
-3.0689
11
3.56201
21
-3.0689
0
LINE
8
BLACK
6
CONTINUOUS
10
3.56201
20
-3.0689
11
3.56502
21
-3.0695
0
LINE
8
BLACK
6
CONTINUOUS
10
4.25545
20
-3.01148
11
4.17671
21
-3.01148
0
LINE
8
BLACK
6
CONTINUOUS
10
4.17671
20
-3.01148
11
4.17671
21
-2.95242
0
LINE
8
BLACK
6
CONTINUOUS
10
4.17671
20
-2.95242
11
4.25545
21
-2.95242
0
LINE
8
BLACK
6
CONTINUOUS
10
4.25545
20
-2.95242
11
4.25545
21
-3.01148
0
LINE
8
BLACK
6
CONTINUOUS
10
3.75787
20
-3.00443
11
3.67913
21
-3.00443
0
LINE
8
BLACK
6
CONTINUOUS
10
3.67913
20
-3.00443
11
3.67913
21
-2.94537
0
LINE
8
BLACK
6
CONTINUOUS
10
3.67913
20
-2.94537
11
3.75787
21
-2.94537
0
LINE
8
BLACK
6
CONTINUOUS
10
3.75787
20
-2.94537
11
3.75787
21
-3.00443
0
LINE
8
BLACK
6
CONTINUOUS
10
4.11847
20
-2.94897
11
4.12166
21
-2.9511
0
LINE
8
BLACK
6
CONTINUOUS
10
4.12166
20
-2.9511
11
4.12379
21
-2.95429
0
LINE
8
BLACK
6
CONTINUOUS
10
4.12379
20
-2.95429
11
4.12454
21
-2.95806
0
LINE
8
BLACK
6
CONTINUOUS
10
4.12454
20
-2.95806
11
4.12454
21
-2.97774
0
LINE
8
BLACK
6
CONTINUOUS
10
4.12454
20
-2.97774
11
4.12379
21
-2.98151
0
LINE
8
BLACK
6
CONTINUOUS
10
4.12379
20
-2.98151
11
4.12166
21
-2.9847
0
LINE
8
BLACK
6
CONTINUOUS
10
4.12166
20
-2.9847
11
4.11847
21
-2.98684
0
LINE
8
BLACK
6
CONTINUOUS
10
4.11847
20
-2.98684
11
4.1147
21
-2.98759
0
LINE
8
BLACK
6
CONTINUOUS
10
4.1147
20
-2.98759
11
4.0773
21
-2.98759
0
LINE
8
BLACK
6
CONTINUOUS
10
4.0773
20
-2.98759
11
4.07353
21
-2.98684
0
LINE
8
BLACK
6
CONTINUOUS
10
4.07353
20
-2.98684
11
4.07034
21
-2.9847
0
LINE
8
BLACK
6
CONTINUOUS
10
4.07034
20
-2.9847
11
4.06821
21
-2.98151
0
LINE
8
BLACK
6
CONTINUOUS
10
4.06821
20
-2.98151
11
4.06746
21
-2.97774
0
LINE
8
BLACK
6
CONTINUOUS
10
4.06746
20
-2.97774
11
4.06746
21
-2.95806
0
LINE
8
BLACK
6
CONTINUOUS
10
4.06746
20
-2.95806
11
4.06821
21
-2.95429
0
LINE
8
BLACK
6
CONTINUOUS
10
4.06821
20
-2.95429
11
4.07034
21
-2.9511
0
LINE
8
BLACK
6
CONTINUOUS
10
4.07034
20
-2.9511
11
4.07353
21
-2.94897
0
LINE
8
BLACK
6
CONTINUOUS
10
4.07353
20
-2.94897
11
4.0773
21
-2.94822
0
LINE
8
BLACK
6
CONTINUOUS
10
4.0773
20
-2.94822
11
4.1147
21
-2.94822
0
LINE
8
BLACK
6
CONTINUOUS
10
4.1147
20
-2.94822
11
4.11847
21
-2.94897
0
LINE
8
BLACK
6
CONTINUOUS
10
3.57759
20
-2.94297
11
3.58078
21
-2.9451
0
LINE
8
BLACK
6
CONTINUOUS
10
3.58078
20
-2.9451
11
3.58291
21
-2.94829
0
LINE
8
BLACK
6
CONTINUOUS
10
3.58291
20
-2.94829
11
3.58366
21
-2.95206
0
LINE
8
BLACK
6
CONTINUOUS
10
3.58366
20
-2.95206
11
3.58366
21
-2.97174
0
LINE
8
BLACK
6
CONTINUOUS
10
3.58366
20
-2.97174
11
3.58291
21
-2.97551
0
LINE
8
BLACK
6
CONTINUOUS
10
3.58291
20
-2.97551
11
3.58078
21
-2.9787
0
LINE
8
BLACK
6
CONTINUOUS
10
3.58078
20
-2.9787
11
3.57759
21
-2.98084
0
LINE
8
BLACK
6
CONTINUOUS
10
3.57759
20
-2.98084
11
3.57382
21
-2.98159
0
LINE
8
BLACK
6
CONTINUOUS
10
3.57382
20
-2.98159
11
3.53642
21
-2.98159
0
LINE
8
BLACK
6
CONTINUOUS
10
3.53642
20
-2.98159
11
3.53265
21
-2.98084
0
LINE
8
BLACK
6
CONTINUOUS
10
3.53265
20
-2.98084
11
3.52946
21
-2.9787
0
LINE
8
BLACK
6
CONTINUOUS
10
3.52946
20
-2.9787
11
3.52732
21
-2.97551
0
LINE
8
BLACK
6
CONTINUOUS
10
3.52732
20
-2.97551
11
3.52657
21
-2.97174
0
LINE
8
BLACK
6
CONTINUOUS
10
3.52657
20
-2.97174
11
3.52657
21
-2.95206
0
LINE
8
BLACK
6
CONTINUOUS
10
3.52657
20
-2.95206
11
3.52732
21
-2.94829
0
LINE
8
BLACK
6
CONTINUOUS
10
3.52732
20
-2.94829
11
3.52946
21
-2.9451
0
LINE
8
BLACK
6
CONTINUOUS
10
3.52946
20
-2.9451
11
3.53265
21
-2.94297
0
LINE
8
BLACK
6
CONTINUOUS
10
3.53265
20
-2.94297
11
3.53642
21
-2.94222
0
LINE
8
BLACK
6
CONTINUOUS
10
3.53642
20
-2.94222
11
3.57382
21
-2.94222
0
LINE
8
BLACK
6
CONTINUOUS
10
3.57382
20
-2.94222
11
3.57759
21
-2.94297
0
LINE
8
BLACK
6
CONTINUOUS
10
4.50349
20
-2.9662
11
4.42475
21
-2.9662
0
LINE
8
BLACK
6
CONTINUOUS
10
4.42475
20
-2.9662
11
4.42475
21
-2.8166
0
LINE
8
BLACK
6
CONTINUOUS
10
4.42475
20
-2.8166
11
4.50349
21
-2.8166
0
LINE
8
BLACK
6
CONTINUOUS
10
4.50349
20
-2.8166
11
4.50349
21
-2.9662
0
LINE
8
BLACK
6
CONTINUOUS
10
3.64315
20
-2.92747
11
3.64603
21
-2.92939
0
LINE
8
BLACK
6
CONTINUOUS
10
3.64603
20
-2.92939
11
3.64795
21
-2.93226
0
LINE
8
BLACK
6
CONTINUOUS
10
3.64795
20
-2.93226
11
3.64862
21
-2.93565
0
LINE
8
BLACK
6
CONTINUOUS
10
3.64862
20
-2.93565
11
3.64862
21
-2.95337
0
LINE
8
BLACK
6
CONTINUOUS
10
3.64862
20
-2.95337
11
3.64795
21
-2.95676
0
LINE
8
BLACK
6
CONTINUOUS
10
3.64795
20
-2.95676
11
3.64603
21
-2.95963
0
LINE
8
BLACK
6
CONTINUOUS
10
3.64603
20
-2.95963
11
3.64315
21
-2.96155
0
LINE
8
BLACK
6
CONTINUOUS
10
3.64315
20
-2.96155
11
3.63976
21
-2.96223
0
LINE
8
BLACK
6
CONTINUOUS
10
3.63976
20
-2.96223
11
3.62008
21
-2.96223
0
LINE
8
BLACK
6
CONTINUOUS
10
3.62008
20
-2.96223
11
3.61669
21
-2.96155
0
LINE
8
BLACK
6
CONTINUOUS
10
3.61669
20
-2.96155
11
3.61381
21
-2.95963
0
LINE
8
BLACK
6
CONTINUOUS
10
3.61381
20
-2.95963
11
3.61189
21
-2.95676
0
LINE
8
BLACK
6
CONTINUOUS
10
3.61189
20
-2.95676
11
3.61122
21
-2.95337
0
LINE
8
BLACK
6
CONTINUOUS
10
3.61122
20
-2.95337
11
3.61122
21
-2.93565
0
LINE
8
BLACK
6
CONTINUOUS
10
3.61122
20
-2.93565
11
3.61189
21
-2.93226
0
LINE
8
BLACK
6
CONTINUOUS
10
3.61189
20
-2.93226
11
3.61381
21
-2.92939
0
LINE
8
BLACK
6
CONTINUOUS
10
3.61381
20
-2.92939
11
3.61669
21
-2.92747
0
LINE
8
BLACK
6
CONTINUOUS
10
3.61669
20
-2.92747
11
3.62008
21
-2.9268
0
LINE
8
BLACK
6
CONTINUOUS
10
3.62008
20
-2.9268
11
3.63976
21
-2.9268
0
LINE
8
BLACK
6
CONTINUOUS
10
3.63976
20
-2.9268
11
3.64315
21
-2.92747
0
LINE
8
BLACK
6
CONTINUOUS
10
4.00591
20
-2.95915
11
3.92717
21
-2.95915
0
LINE
8
BLACK
6
CONTINUOUS
10
3.92717
20
-2.95915
11
3.92717
21
-2.80955
0
LINE
8
BLACK
6
CONTINUOUS
10
3.92717
20
-2.80955
11
4.00591
21
-2.80955
0
LINE
8
BLACK
6
CONTINUOUS
10
4.00591
20
-2.80955
11
4.00591
21
-2.95915
0
LINE
8
BLACK
6
CONTINUOUS
10
4.25545
20
-2.92093
11
4.17671
21
-2.92093
0
LINE
8
BLACK
6
CONTINUOUS
10
4.17671
20
-2.92093
11
4.17671
21
-2.86187
0
LINE
8
BLACK
6
CONTINUOUS
10
4.17671
20
-2.86187
11
4.25545
21
-2.86187
0
LINE
8
BLACK
6
CONTINUOUS
10
4.25545
20
-2.86187
11
4.25545
21
-2.92093
0
LINE
8
BLACK
6
CONTINUOUS
10
3.75787
20
-2.91388
11
3.67913
21
-2.91388
0
LINE
8
BLACK
6
CONTINUOUS
10
3.67913
20
-2.91388
11
3.67913
21
-2.85482
0
LINE
8
BLACK
6
CONTINUOUS
10
3.67913
20
-2.85482
11
3.75787
21
-2.85482
0
LINE
8
BLACK
6
CONTINUOUS
10
3.75787
20
-2.85482
11
3.75787
21
-2.91388
0
LINE
8
BLACK
6
CONTINUOUS
10
4.11847
20
-2.87416
11
4.12166
21
-2.8763
0
LINE
8
BLACK
6
CONTINUOUS
10
4.12166
20
-2.8763
11
4.12379
21
-2.87949
0
LINE
8
BLACK
6
CONTINUOUS
10
4.12379
20
-2.87949
11
4.12454
21
-2.88326
0
LINE
8
BLACK
6
CONTINUOUS
10
4.12454
20
-2.88326
11
4.12454
21
-2.90294
0
LINE
8
BLACK
6
CONTINUOUS
10
4.12454
20
-2.90294
11
4.12379
21
-2.90671
0
LINE
8
BLACK
6
CONTINUOUS
10
4.12379
20
-2.90671
11
4.12166
21
-2.9099
0
LINE
8
BLACK
6
CONTINUOUS
10
4.12166
20
-2.9099
11
4.11847
21
-2.91203
0
LINE
8
BLACK
6
CONTINUOUS
10
4.11847
20
-2.91203
11
4.1147
21
-2.91278
0
LINE
8
BLACK
6
CONTINUOUS
10
4.1147
20
-2.91278
11
4.0773
21
-2.91278
0
LINE
8
BLACK
6
CONTINUOUS
10
4.0773
20
-2.91278
11
4.07353
21
-2.91203
0
LINE
8
BLACK
6
CONTINUOUS
10
4.07353
20
-2.91203
11
4.07034
21
-2.9099
0
LINE
8
BLACK
6
CONTINUOUS
10
4.07034
20
-2.9099
11
4.06821
21
-2.90671
0
LINE
8
BLACK
6
CONTINUOUS
10
4.06821
20
-2.90671
11
4.06746
21
-2.90294
0
LINE
8
BLACK
6
CONTINUOUS
10
4.06746
20
-2.90294
11
4.06746
21
-2.88326
0
LINE
8
BLACK
6
CONTINUOUS
10
4.06746
20
-2.88326
11
4.06821
21
-2.87949
0
LINE
8
BLACK
6
CONTINUOUS
10
4.06821
20
-2.87949
11
4.07034
21
-2.8763
0
LINE
8
BLACK
6
CONTINUOUS
10
4.07034
20
-2.8763
11
4.07353
21
-2.87416
0
LINE
8
BLACK
6
CONTINUOUS
10
4.07353
20
-2.87416
11
4.0773
21
-2.87341
0
LINE
8
BLACK
6
CONTINUOUS
10
4.0773
20
-2.87341
11
4.1147
21
-2.87341
0
LINE
8
BLACK
6
CONTINUOUS
10
4.1147
20
-2.87341
11
4.11847
21
-2.87416
0
LINE
8
BLACK
6
CONTINUOUS
10
3.57759
20
-2.86816
11
3.58078
21
-2.8703
0
LINE
8
BLACK
6
CONTINUOUS
10
3.58078
20
-2.8703
11
3.58291
21
-2.87349
0
LINE
8
BLACK
6
CONTINUOUS
10
3.58291
20
-2.87349
11
3.58366
21
-2.87726
0
LINE
8
BLACK
6
CONTINUOUS
10
3.58366
20
-2.87726
11
3.58366
21
-2.89694
0
LINE
8
BLACK
6
CONTINUOUS
10
3.58366
20
-2.89694
11
3.58291
21
-2.90071
0
LINE
8
BLACK
6
CONTINUOUS
10
3.58291
20
-2.90071
11
3.58078
21
-2.9039
0
LINE
8
BLACK
6
CONTINUOUS
10
3.58078
20
-2.9039
11
3.57759
21
-2.90603
0
LINE
8
BLACK
6
CONTINUOUS
10
3.57759
20
-2.90603
11
3.57382
21
-2.90678
0
LINE
8
BLACK
6
CONTINUOUS
10
3.57382
20
-2.90678
11
3.53642
21
-2.90678
0
LINE
8
BLACK
6
CONTINUOUS
10
3.53642
20
-2.90678
11
3.53265
21
-2.90603
0
LINE
8
BLACK
6
CONTINUOUS
10
3.53265
20
-2.90603
11
3.52946
21
-2.9039
0
LINE
8
BLACK
6
CONTINUOUS
10
3.52946
20
-2.9039
11
3.52732
21
-2.90071
0
LINE
8
BLACK
6
CONTINUOUS
10
3.52732
20
-2.90071
11
3.52657
21
-2.89694
0
LINE
8
BLACK
6
CONTINUOUS
10
3.52657
20
-2.89694
11
3.52657
21
-2.87726
0
LINE
8
BLACK
6
CONTINUOUS
10
3.52657
20
-2.87726
11
3.52732
21
-2.87349
0
LINE
8
BLACK
6
CONTINUOUS
10
3.52732
20
-2.87349
11
3.52946
21
-2.8703
0
LINE
8
BLACK
6
CONTINUOUS
10
3.52946
20
-2.8703
11
3.53265
21
-2.86816
0
LINE
8
BLACK
6
CONTINUOUS
10
3.53265
20
-2.86816
11
3.53642
21
-2.86741
0
LINE
8
BLACK
6
CONTINUOUS
10
3.53642
20
-2.86741
11
3.57382
21
-2.86741
0
LINE
8
BLACK
6
CONTINUOUS
10
3.57382
20
-2.86741
11
3.57759
21
-2.86816
0
LINE
8
BLACK
6
CONTINUOUS
10
3.64315
20
-2.86645
11
3.64603
21
-2.86837
0
LINE
8
BLACK
6
CONTINUOUS
10
3.64603
20
-2.86837
11
3.64795
21
-2.87124
0
LINE
8
BLACK
6
CONTINUOUS
10
3.64795
20
-2.87124
11
3.64862
21
-2.87463
0
LINE
8
BLACK
6
CONTINUOUS
10
3.64862
20
-2.87463
11
3.64862
21
-2.89235
0
LINE
8
BLACK
6
CONTINUOUS
10
3.64862
20
-2.89235
11
3.64795
21
-2.89574
0
LINE
8
BLACK
6
CONTINUOUS
10
3.64795
20
-2.89574
11
3.64603
21
-2.89861
0
LINE
8
BLACK
6
CONTINUOUS
10
3.64603
20
-2.89861
11
3.64315
21
-2.90053
0
LINE
8
BLACK
6
CONTINUOUS
10
3.64315
20
-2.90053
11
3.63976
21
-2.9012
0
LINE
8
BLACK
6
CONTINUOUS
10
3.63976
20
-2.9012
11
3.62008
21
-2.9012
0
LINE
8
BLACK
6
CONTINUOUS
10
3.62008
20
-2.9012
11
3.61669
21
-2.90053
0
LINE
8
BLACK
6
CONTINUOUS
10
3.61669
20
-2.90053
11
3.61381
21
-2.89861
0
LINE
8
BLACK
6
CONTINUOUS
10
3.61381
20
-2.89861
11
3.61189
21
-2.89574
0
LINE
8
BLACK
6
CONTINUOUS
10
3.61189
20
-2.89574
11
3.61122
21
-2.89235
0
LINE
8
BLACK
6
CONTINUOUS
10
3.61122
20
-2.89235
11
3.61122
21
-2.87463
0
LINE
8
BLACK
6
CONTINUOUS
10
3.61122
20
-2.87463
11
3.61189
21
-2.87124
0
LINE
8
BLACK
6
CONTINUOUS
10
3.61189
20
-2.87124
11
3.61381
21
-2.86837
0
LINE
8
BLACK
6
CONTINUOUS
10
3.61381
20
-2.86837
11
3.61669
21
-2.86645
0
LINE
8
BLACK
6
CONTINUOUS
10
3.61669
20
-2.86645
11
3.62008
21
-2.86577
0
LINE
8
BLACK
6
CONTINUOUS
10
3.62008
20
-2.86577
11
3.63976
21
-2.86577
0
LINE
8
BLACK
6
CONTINUOUS
10
3.63976
20
-2.86577
11
3.64315
21
-2.86645
0
LINE
8
BLACK
6
CONTINUOUS
10
4.25545
20
-2.83038
11
4.17671
21
-2.83038
0
LINE
8
BLACK
6
CONTINUOUS
10
4.17671
20
-2.83038
11
4.17671
21
-2.77132
0
LINE
8
BLACK
6
CONTINUOUS
10
4.17671
20
-2.77132
11
4.25545
21
-2.77132
0
LINE
8
BLACK
6
CONTINUOUS
10
4.25545
20
-2.77132
11
4.25545
21
-2.83038
0
LINE
8
BLACK
6
CONTINUOUS
10
4.10923
20
-2.7937
11
4.11211
21
-2.79562
0
LINE
8
BLACK
6
CONTINUOUS
10
4.11211
20
-2.79562
11
4.11403
21
-2.79849
0
LINE
8
BLACK
6
CONTINUOUS
10
4.11403
20
-2.79849
11
4.1147
21
-2.80188
0
LINE
8
BLACK
6
CONTINUOUS
10
4.1147
20
-2.80188
11
4.1147
21
-2.8196
0
LINE
8
BLACK
6
CONTINUOUS
10
4.1147
20
-2.8196
11
4.11403
21
-2.82299
0
LINE
8
BLACK
6
CONTINUOUS
10
4.11403
20
-2.82299
11
4.11211
21
-2.82586
0
LINE
8
BLACK
6
CONTINUOUS
10
4.11211
20
-2.82586
11
4.10923
21
-2.82778
0
LINE
8
BLACK
6
CONTINUOUS
10
4.10923
20
-2.82778
11
4.10584
21
-2.82846
0
LINE
8
BLACK
6
CONTINUOUS
10
4.10584
20
-2.82846
11
4.08616
21
-2.82846
0
LINE
8
BLACK
6
CONTINUOUS
10
4.08616
20
-2.82846
11
4.08277
21
-2.82778
0
LINE
8
BLACK
6
CONTINUOUS
10
4.08277
20
-2.82778
11
4.07989
21
-2.82586
0
LINE
8
BLACK
6
CONTINUOUS
10
4.07989
20
-2.82586
11
4.07797
21
-2.82299
0
LINE
8
BLACK
6
CONTINUOUS
10
4.07797
20
-2.82299
11
4.0773
21
-2.8196
0
LINE
8
BLACK
6
CONTINUOUS
10
4.0773
20
-2.8196
11
4.0773
21
-2.80188
0
LINE
8
BLACK
6
CONTINUOUS
10
4.0773
20
-2.80188
11
4.07797
21
-2.79849
0
LINE
8
BLACK
6
CONTINUOUS
10
4.07797
20
-2.79849
11
4.07989
21
-2.79562
0
LINE
8
BLACK
6
CONTINUOUS
10
4.07989
20
-2.79562
11
4.08277
21
-2.7937
0
LINE
8
BLACK
6
CONTINUOUS
10
4.08277
20
-2.7937
11
4.08616
21
-2.79302
0
LINE
8
BLACK
6
CONTINUOUS
10
4.08616
20
-2.79302
11
4.10584
21
-2.79302
0
LINE
8
BLACK
6
CONTINUOUS
10
4.10584
20
-2.79302
11
4.10923
21
-2.7937
0
LINE
8
BLACK
6
CONTINUOUS
10
3.75787
20
-2.82333
11
3.67913
21
-2.82333
0
LINE
8
BLACK
6
CONTINUOUS
10
3.67913
20
-2.82333
11
3.67913
21
-2.76427
0
LINE
8
BLACK
6
CONTINUOUS
10
3.67913
20
-2.76427
11
3.75787
21
-2.76427
0
LINE
8
BLACK
6
CONTINUOUS
10
3.75787
20
-2.76427
11
3.75787
21
-2.82333
0
LINE
8
BLACK
6
CONTINUOUS
10
3.57774
20
-2.77597
11
3.58061
21
-2.77789
0
LINE
8
BLACK
6
CONTINUOUS
10
3.58061
20
-2.77789
11
3.58253
21
-2.78077
0
LINE
8
BLACK
6
CONTINUOUS
10
3.58253
20
-2.78077
11
3.5832
21
-2.78416
0
LINE
8
BLACK
6
CONTINUOUS
10
3.5832
20
-2.78416
11
3.5832
21
-2.80384
0
LINE
8
BLACK
6
CONTINUOUS
10
3.5832
20
-2.80384
11
3.58253
21
-2.80723
0
LINE
8
BLACK
6
CONTINUOUS
10
3.58253
20
-2.80723
11
3.58061
21
-2.81011
0
LINE
8
BLACK
6
CONTINUOUS
10
3.58061
20
-2.81011
11
3.57774
21
-2.81203
0
LINE
8
BLACK
6
CONTINUOUS
10
3.57774
20
-2.81203
11
3.57435
21
-2.8127
0
LINE
8
BLACK
6
CONTINUOUS
10
3.57435
20
-2.8127
11
3.55663
21
-2.8127
0
LINE
8
BLACK
6
CONTINUOUS
10
3.55663
20
-2.8127
11
3.55324
21
-2.81203
0
LINE
8
BLACK
6
CONTINUOUS
10
3.55324
20
-2.81203
11
3.55037
21
-2.81011
0
LINE
8
BLACK
6
CONTINUOUS
10
3.55037
20
-2.81011
11
3.54845
21
-2.80723
0
LINE
8
BLACK
6
CONTINUOUS
10
3.54845
20
-2.80723
11
3.54777
21
-2.80384
0
LINE
8
BLACK
6
CONTINUOUS
10
3.54777
20
-2.80384
11
3.54777
21
-2.78416
0
LINE
8
BLACK
6
CONTINUOUS
10
3.54777
20
-2.78416
11
3.54845
21
-2.78077
0
LINE
8
BLACK
6
CONTINUOUS
10
3.54845
20
-2.78077
11
3.55037
21
-2.77789
0
LINE
8
BLACK
6
CONTINUOUS
10
3.55037
20
-2.77789
11
3.55324
21
-2.77597
0
LINE
8
BLACK
6
CONTINUOUS
10
3.55324
20
-2.77597
11
3.55663
21
-2.7753
0
LINE
8
BLACK
6
CONTINUOUS
10
3.55663
20
-2.7753
11
3.57435
21
-2.7753
0
LINE
8
BLACK
6
CONTINUOUS
10
3.57435
20
-2.7753
11
3.57774
21
-2.77597
0
LINE
8
BLACK
6
CONTINUOUS
10
3.63876
20
-2.77597
11
3.64163
21
-2.77789
0
LINE
8
BLACK
6
CONTINUOUS
10
3.64163
20
-2.77789
11
3.64355
21
-2.78077
0
LINE
8
BLACK
6
CONTINUOUS
10
3.64355
20
-2.78077
11
3.64423
21
-2.78416
0
LINE
8
BLACK
6
CONTINUOUS
10
3.64423
20
-2.78416
11
3.64423
21
-2.80384
0
LINE
8
BLACK
6
CONTINUOUS
10
3.64423
20
-2.80384
11
3.64355
21
-2.80723
0
LINE
8
BLACK
6
CONTINUOUS
10
3.64355
20
-2.80723
11
3.64163
21
-2.81011
0
LINE
8
BLACK
6
CONTINUOUS
10
3.64163
20
-2.81011
11
3.63876
21
-2.81203
0
LINE
8
BLACK
6
CONTINUOUS
10
3.63876
20
-2.81203
11
3.63537
21
-2.8127
0
LINE
8
BLACK
6
CONTINUOUS
10
3.63537
20
-2.8127
11
3.61765
21
-2.8127
0
LINE
8
BLACK
6
CONTINUOUS
10
3.61765
20
-2.8127
11
3.61426
21
-2.81203
0
LINE
8
BLACK
6
CONTINUOUS
10
3.61426
20
-2.81203
11
3.61139
21
-2.81011
0
LINE
8
BLACK
6
CONTINUOUS
10
3.61139
20
-2.81011
11
3.60947
21
-2.80723
0
LINE
8
BLACK
6
CONTINUOUS
10
3.60947
20
-2.80723
11
3.6088
21
-2.80384
0
LINE
8
BLACK
6
CONTINUOUS
10
3.6088
20
-2.80384
11
3.6088
21
-2.78416
0
LINE
8
BLACK
6
CONTINUOUS
10
3.6088
20
-2.78416
11
3.60947
21
-2.78077
0
LINE
8
BLACK
6
CONTINUOUS
10
3.60947
20
-2.78077
11
3.61139
21
-2.77789
0
LINE
8
BLACK
6
CONTINUOUS
10
3.61139
20
-2.77789
11
3.61426
21
-2.77597
0
LINE
8
BLACK
6
CONTINUOUS
10
3.61426
20
-2.77597
11
3.61765
21
-2.7753
0
LINE
8
BLACK
6
CONTINUOUS
10
3.61765
20
-2.7753
11
3.63537
21
-2.7753
0
LINE
8
BLACK
6
CONTINUOUS
10
3.63537
20
-2.7753
11
3.63876
21
-2.77597
0
LINE
8
BLACK
6
CONTINUOUS
10
4.10923
20
-2.73267
11
4.11211
21
-2.73459
0
LINE
8
BLACK
6
CONTINUOUS
10
4.11211
20
-2.73459
11
4.11403
21
-2.73747
0
LINE
8
BLACK
6
CONTINUOUS
10
4.11403
20
-2.73747
11
4.1147
21
-2.74086
0
LINE
8
BLACK
6
CONTINUOUS
10
4.1147
20
-2.74086
11
4.1147
21
-2.75857
0
LINE
8
BLACK
6
CONTINUOUS
10
4.1147
20
-2.75857
11
4.11403
21
-2.76196
0
LINE
8
BLACK
6
CONTINUOUS
10
4.11403
20
-2.76196
11
4.11211
21
-2.76484
0
LINE
8
BLACK
6
CONTINUOUS
10
4.11211
20
-2.76484
11
4.10923
21
-2.76676
0
LINE
8
BLACK
6
CONTINUOUS
10
4.10923
20
-2.76676
11
4.10584
21
-2.76743
0
LINE
8
BLACK
6
CONTINUOUS
10
4.10584
20
-2.76743
11
4.08616
21
-2.76743
0
LINE
8
BLACK
6
CONTINUOUS
10
4.08616
20
-2.76743
11
4.08277
21
-2.76676
0
LINE
8
BLACK
6
CONTINUOUS
10
4.08277
20
-2.76676
11
4.07989
21
-2.76484
0
LINE
8
BLACK
6
CONTINUOUS
10
4.07989
20
-2.76484
11
4.07797
21
-2.76196
0
LINE
8
BLACK
6
CONTINUOUS
10
4.07797
20
-2.76196
11
4.0773
21
-2.75857
0
LINE
8
BLACK
6
CONTINUOUS
10
4.0773
20
-2.75857
11
4.0773
21
-2.74086
0
LINE
8
BLACK
6
CONTINUOUS
10
4.0773
20
-2.74086
11
4.07797
21
-2.73747
0
LINE
8
BLACK
6
CONTINUOUS
10
4.07797
20
-2.73747
11
4.07989
21
-2.73459
0
LINE
8
BLACK
6
CONTINUOUS
10
4.07989
20
-2.73459
11
4.08277
21
-2.73267
0
LINE
8
BLACK
6
CONTINUOUS
10
4.08277
20
-2.73267
11
4.08616
21
-2.732
0
LINE
8
BLACK
6
CONTINUOUS
10
4.08616
20
-2.732
11
4.10584
21
-2.732
0
LINE
8
BLACK
6
CONTINUOUS
10
4.10584
20
-2.732
11
4.10923
21
-2.73267
0
LINE
8
BLACK
6
CONTINUOUS
10
4.16546
20
-2.69851
11
4.16834
21
-2.70043
0
LINE
8
BLACK
6
CONTINUOUS
10
4.16834
20
-2.70043
11
4.17026
21
-2.7033
0
LINE
8
BLACK
6
CONTINUOUS
10
4.17026
20
-2.7033
11
4.17093
21
-2.70669
0
LINE
8
BLACK
6
CONTINUOUS
10
4.17093
20
-2.70669
11
4.17093
21
-2.72638
0
LINE
8
BLACK
6
CONTINUOUS
10
4.17093
20
-2.72638
11
4.17026
21
-2.72977
0
LINE
8
BLACK
6
CONTINUOUS
10
4.17026
20
-2.72977
11
4.16834
21
-2.73264
0
LINE
8
BLACK
6
CONTINUOUS
10
4.16834
20
-2.73264
11
4.16546
21
-2.73456
0
LINE
8
BLACK
6
CONTINUOUS
10
4.16546
20
-2.73456
11
4.16207
21
-2.73524
0
LINE
8
BLACK
6
CONTINUOUS
10
4.16207
20
-2.73524
11
4.14436
21
-2.73524
0
LINE
8
BLACK
6
CONTINUOUS
10
4.14436
20
-2.73524
11
4.14097
21
-2.73456
0
LINE
8
BLACK
6
CONTINUOUS
10
4.14097
20
-2.73456
11
4.13809
21
-2.73264
0
LINE
8
BLACK
6
CONTINUOUS
10
4.13809
20
-2.73264
11
4.13617
21
-2.72977
0
LINE
8
BLACK
6
CONTINUOUS
10
4.13617
20
-2.72977
11
4.1355
21
-2.72638
0
LINE
8
BLACK
6
CONTINUOUS
10
4.1355
20
-2.72638
11
4.1355
21
-2.70669
0
LINE
8
BLACK
6
CONTINUOUS
10
4.1355
20
-2.70669
11
4.13617
21
-2.7033
0
LINE
8
BLACK
6
CONTINUOUS
10
4.13617
20
-2.7033
11
4.13809
21
-2.70043
0
LINE
8
BLACK
6
CONTINUOUS
10
4.13809
20
-2.70043
11
4.14097
21
-2.69851
0
LINE
8
BLACK
6
CONTINUOUS
10
4.14097
20
-2.69851
11
4.14436
21
-2.69783
0
LINE
8
BLACK
6
CONTINUOUS
10
4.14436
20
-2.69783
11
4.16207
21
-2.69783
0
LINE
8
BLACK
6
CONTINUOUS
10
4.16207
20
-2.69783
11
4.16546
21
-2.69851
0
LINE
8
BLACK
6
CONTINUOUS
10
4.22649
20
-2.69851
11
4.22936
21
-2.70043
0
LINE
8
BLACK
6
CONTINUOUS
10
4.22936
20
-2.70043
11
4.23128
21
-2.7033
0
LINE
8
BLACK
6
CONTINUOUS
10
4.23128
20
-2.7033
11
4.23196
21
-2.70669
0
LINE
8
BLACK
6
CONTINUOUS
10
4.23196
20
-2.70669
11
4.23196
21
-2.72638
0
LINE
8
BLACK
6
CONTINUOUS
10
4.23196
20
-2.72638
11
4.23128
21
-2.72977
0
LINE
8
BLACK
6
CONTINUOUS
10
4.23128
20
-2.72977
11
4.22936
21
-2.73264
0
LINE
8
BLACK
6
CONTINUOUS
10
4.22936
20
-2.73264
11
4.22649
21
-2.73456
0
LINE
8
BLACK
6
CONTINUOUS
10
4.22649
20
-2.73456
11
4.2231
21
-2.73524
0
LINE
8
BLACK
6
CONTINUOUS
10
4.2231
20
-2.73524
11
4.20538
21
-2.73524
0
LINE
8
BLACK
6
CONTINUOUS
10
4.20538
20
-2.73524
11
4.20199
21
-2.73456
0
LINE
8
BLACK
6
CONTINUOUS
10
4.20199
20
-2.73456
11
4.19912
21
-2.73264
0
LINE
8
BLACK
6
CONTINUOUS
10
4.19912
20
-2.73264
11
4.1972
21
-2.72977
0
LINE
8
BLACK
6
CONTINUOUS
10
4.1972
20
-2.72977
11
4.19652
21
-2.72638
0
LINE
8
BLACK
6
CONTINUOUS
10
4.19652
20
-2.72638
11
4.19652
21
-2.70669
0
LINE
8
BLACK
6
CONTINUOUS
10
4.19652
20
-2.70669
11
4.1972
21
-2.7033
0
LINE
8
BLACK
6
CONTINUOUS
10
4.1972
20
-2.7033
11
4.19912
21
-2.70043
0
LINE
8
BLACK
6
CONTINUOUS
10
4.19912
20
-2.70043
11
4.20199
21
-2.69851
0
LINE
8
BLACK
6
CONTINUOUS
10
4.20199
20
-2.69851
11
4.20538
21
-2.69783
0
LINE
8
BLACK
6
CONTINUOUS
10
4.20538
20
-2.69783
11
4.2231
21
-2.69783
0
LINE
8
BLACK
6
CONTINUOUS
10
4.2231
20
-2.69783
11
4.22649
21
-2.69851
  0
ENDSEC
  0
EOF
