  0
SECTION
  2
HEADER
  9
$ANGBASE
  50
0.0
  9
$ANGDIR
  70
1
  9
$MEASUREMENT
  70
0
  0
ENDSEC
  0
SECTION
  2
TABLES
  0
TABLE
  2
LTYPE
  70
4
  0
LTYPE
  5
40F
  2
CONTINUOUS
  70
0
  3
Solid line
  72
65
  73
0
  40
0.0
  0
LTYPE
  5
410
  2
DASHDOT
 70
0
  3
Dash Dot ____ _ ____ _
 72
65
 73
4
 40
2.0
 49
1.25
 49
-0.25
 49
0.25
 49
-0.25
  0
LTYPE
  5
411
  2
DASHED
 70
0
  3
Dashed __ __ __ __ __
 72
65
 73
2
 40
0.75
 49
0.5
 49
-0.25
  0
LTYPE
  5
43B
  2
DOTTED
 70
0
  3
Dotted .  .  .  .
 72
65
 73
2
 40
0.2
 49
0.0
 49
-0.2
  0
ENDTAB
  0
TABLE
  2
STYLE
  70
4
  0
STYLE
  2
KICAD
  70
0
  40
0
  41
1
  42
1
  50
0
  71
0
  3
isocp.shx
  0
STYLE
  2
KICADB
  70
0
  40
0
  41
1
  42
1
  50
0
  71
0
  3
isocp.shx
  0
STYLE
  2
KICADI
  70
0
  40
0
  41
1
  42
1
  50
15
  71
0
  3
isocp.shx
  0
STYLE
  2
KICADBI
  70
0
  40
0
  41
1
  42
1
  50
15
  71
0
  3
isocp.shx
  0
ENDTAB
  0
TABLE
  2
LAYER
  70
1
  0
LAYER
  2
BLACK
  70
0
  62
7
  6
CONTINUOUS
  0
ENDTAB
  0
ENDSEC
  0
SECTION
  2
ENTITIES
0
LINE
8
BLACK
6
CONTINUOUS
10
3.58123
20
-4.86977
11
3.58411
21
-4.87169
0
LINE
8
BLACK
6
CONTINUOUS
10
3.58411
20
-4.87169
11
3.58603
21
-4.87456
0
LINE
8
BLACK
6
CONTINUOUS
10
3.58603
20
-4.87456
11
3.5867
21
-4.87795
0
LINE
8
BLACK
6
CONTINUOUS
10
3.5867
20
-4.87795
11
3.5867
21
-4.89567
0
LINE
8
BLACK
6
CONTINUOUS
10
3.5867
20
-4.89567
11
3.58603
21
-4.89906
0
LINE
8
BLACK
6
CONTINUOUS
10
3.58603
20
-4.89906
11
3.58411
21
-4.90193
0
LINE
8
BLACK
6
CONTINUOUS
10
3.58411
20
-4.90193
11
3.58123
21
-4.90385
0
LINE
8
BLACK
6
CONTINUOUS
10
3.58123
20
-4.90385
11
3.57784
21
-4.90453
0
LINE
8
BLACK
6
CONTINUOUS
10
3.57784
20
-4.90453
11
3.55816
21
-4.90453
0
LINE
8
BLACK
6
CONTINUOUS
10
3.55816
20
-4.90453
11
3.55477
21
-4.90385
0
LINE
8
BLACK
6
CONTINUOUS
10
3.55477
20
-4.90385
11
3.55189
21
-4.90193
0
LINE
8
BLACK
6
CONTINUOUS
10
3.55189
20
-4.90193
11
3.54997
21
-4.89906
0
LINE
8
BLACK
6
CONTINUOUS
10
3.54997
20
-4.89906
11
3.5493
21
-4.89567
0
LINE
8
BLACK
6
CONTINUOUS
10
3.5493
20
-4.89567
11
3.5493
21
-4.87795
0
LINE
8
BLACK
6
CONTINUOUS
10
3.5493
20
-4.87795
11
3.54997
21
-4.87456
0
LINE
8
BLACK
6
CONTINUOUS
10
3.54997
20
-4.87456
11
3.55189
21
-4.87169
0
LINE
8
BLACK
6
CONTINUOUS
10
3.55189
20
-4.87169
11
3.55477
21
-4.86977
0
LINE
8
BLACK
6
CONTINUOUS
10
3.55477
20
-4.86977
11
3.55816
21
-4.86909
0
LINE
8
BLACK
6
CONTINUOUS
10
3.55816
20
-4.86909
11
3.57784
21
-4.86909
0
LINE
8
BLACK
6
CONTINUOUS
10
3.57784
20
-4.86909
11
3.58123
21
-4.86977
0
LINE
8
BLACK
6
CONTINUOUS
10
3.58123
20
-4.80875
11
3.58411
21
-4.81067
0
LINE
8
BLACK
6
CONTINUOUS
10
3.58411
20
-4.81067
11
3.58603
21
-4.81354
0
LINE
8
BLACK
6
CONTINUOUS
10
3.58603
20
-4.81354
11
3.5867
21
-4.81693
0
LINE
8
BLACK
6
CONTINUOUS
10
3.5867
20
-4.81693
11
3.5867
21
-4.83465
0
LINE
8
BLACK
6
CONTINUOUS
10
3.5867
20
-4.83465
11
3.58603
21
-4.83804
0
LINE
8
BLACK
6
CONTINUOUS
10
3.58603
20
-4.83804
11
3.58411
21
-4.84091
0
LINE
8
BLACK
6
CONTINUOUS
10
3.58411
20
-4.84091
11
3.58123
21
-4.84283
0
LINE
8
BLACK
6
CONTINUOUS
10
3.58123
20
-4.84283
11
3.57784
21
-4.8435
0
LINE
8
BLACK
6
CONTINUOUS
10
3.57784
20
-4.8435
11
3.55816
21
-4.8435
0
LINE
8
BLACK
6
CONTINUOUS
10
3.55816
20
-4.8435
11
3.55477
21
-4.84283
0
LINE
8
BLACK
6
CONTINUOUS
10
3.55477
20
-4.84283
11
3.55189
21
-4.84091
0
LINE
8
BLACK
6
CONTINUOUS
10
3.55189
20
-4.84091
11
3.54997
21
-4.83804
0
LINE
8
BLACK
6
CONTINUOUS
10
3.54997
20
-4.83804
11
3.5493
21
-4.83465
0
LINE
8
BLACK
6
CONTINUOUS
10
3.5493
20
-4.83465
11
3.5493
21
-4.81693
0
LINE
8
BLACK
6
CONTINUOUS
10
3.5493
20
-4.81693
11
3.54997
21
-4.81354
0
LINE
8
BLACK
6
CONTINUOUS
10
3.54997
20
-4.81354
11
3.55189
21
-4.81067
0
LINE
8
BLACK
6
CONTINUOUS
10
3.55189
20
-4.81067
11
3.55477
21
-4.80875
0
LINE
8
BLACK
6
CONTINUOUS
10
3.55477
20
-4.80875
11
3.55816
21
-4.80807
0
LINE
8
BLACK
6
CONTINUOUS
10
3.55816
20
-4.80807
11
3.57784
21
-4.80807
0
LINE
8
BLACK
6
CONTINUOUS
10
3.57784
20
-4.80807
11
3.58123
21
-4.80875
0
LINE
8
BLACK
6
CONTINUOUS
10
4.39323
20
-4.35394
11
4.39611
21
-4.35586
0
LINE
8
BLACK
6
CONTINUOUS
10
4.39611
20
-4.35586
11
4.39803
21
-4.35874
0
LINE
8
BLACK
6
CONTINUOUS
10
4.39803
20
-4.35874
11
4.3987
21
-4.36213
0
LINE
8
BLACK
6
CONTINUOUS
10
4.3987
20
-4.36213
11
4.3987
21
-4.37984
0
LINE
8
BLACK
6
CONTINUOUS
10
4.3987
20
-4.37984
11
4.39803
21
-4.38323
0
LINE
8
BLACK
6
CONTINUOUS
10
4.39803
20
-4.38323
11
4.39611
21
-4.38611
0
LINE
8
BLACK
6
CONTINUOUS
10
4.39611
20
-4.38611
11
4.39323
21
-4.38803
0
LINE
8
BLACK
6
CONTINUOUS
10
4.39323
20
-4.38803
11
4.38984
21
-4.3887
0
LINE
8
BLACK
6
CONTINUOUS
10
4.38984
20
-4.3887
11
4.37016
21
-4.3887
0
LINE
8
BLACK
6
CONTINUOUS
10
4.37016
20
-4.3887
11
4.36677
21
-4.38803
0
LINE
8
BLACK
6
CONTINUOUS
10
4.36677
20
-4.38803
11
4.36389
21
-4.38611
0
LINE
8
BLACK
6
CONTINUOUS
10
4.36389
20
-4.38611
11
4.36197
21
-4.38323
0
LINE
8
BLACK
6
CONTINUOUS
10
4.36197
20
-4.38323
11
4.3613
21
-4.37984
0
LINE
8
BLACK
6
CONTINUOUS
10
4.3613
20
-4.37984
11
4.3613
21
-4.36213
0
LINE
8
BLACK
6
CONTINUOUS
10
4.3613
20
-4.36213
11
4.36197
21
-4.35874
0
LINE
8
BLACK
6
CONTINUOUS
10
4.36197
20
-4.35874
11
4.36389
21
-4.35586
0
LINE
8
BLACK
6
CONTINUOUS
10
4.36389
20
-4.35586
11
4.36677
21
-4.35394
0
LINE
8
BLACK
6
CONTINUOUS
10
4.36677
20
-4.35394
11
4.37016
21
-4.35327
0
LINE
8
BLACK
6
CONTINUOUS
10
4.37016
20
-4.35327
11
4.38984
21
-4.35327
0
LINE
8
BLACK
6
CONTINUOUS
10
4.38984
20
-4.35327
11
4.39323
21
-4.35394
0
LINE
8
BLACK
6
CONTINUOUS
10
4.33384
20
-4.35733
11
4.33639
21
-4.35904
0
LINE
8
BLACK
6
CONTINUOUS
10
4.33639
20
-4.35904
11
4.3381
21
-4.36159
0
LINE
8
BLACK
6
CONTINUOUS
10
4.3381
20
-4.36159
11
4.3387
21
-4.36461
0
LINE
8
BLACK
6
CONTINUOUS
10
4.3387
20
-4.36461
11
4.3387
21
-4.38035
0
LINE
8
BLACK
6
CONTINUOUS
10
4.3387
20
-4.38035
11
4.3381
21
-4.38337
0
LINE
8
BLACK
6
CONTINUOUS
10
4.3381
20
-4.38337
11
4.33639
21
-4.38592
0
LINE
8
BLACK
6
CONTINUOUS
10
4.33639
20
-4.38592
11
4.33384
21
-4.38763
0
LINE
8
BLACK
6
CONTINUOUS
10
4.33384
20
-4.38763
11
4.33083
21
-4.38823
0
LINE
8
BLACK
6
CONTINUOUS
10
4.33083
20
-4.38823
11
4.30917
21
-4.38823
0
LINE
8
BLACK
6
CONTINUOUS
10
4.30917
20
-4.38823
11
4.30616
21
-4.38763
0
LINE
8
BLACK
6
CONTINUOUS
10
4.30616
20
-4.38763
11
4.30361
21
-4.38592
0
LINE
8
BLACK
6
CONTINUOUS
10
4.30361
20
-4.38592
11
4.3019
21
-4.38337
0
LINE
8
BLACK
6
CONTINUOUS
10
4.3019
20
-4.38337
11
4.3013
21
-4.38035
0
LINE
8
BLACK
6
CONTINUOUS
10
4.3013
20
-4.38035
11
4.3013
21
-4.36461
0
LINE
8
BLACK
6
CONTINUOUS
10
4.3013
20
-4.36461
11
4.3019
21
-4.36159
0
LINE
8
BLACK
6
CONTINUOUS
10
4.3019
20
-4.36159
11
4.30361
21
-4.35904
0
LINE
8
BLACK
6
CONTINUOUS
10
4.30361
20
-4.35904
11
4.30616
21
-4.35733
0
LINE
8
BLACK
6
CONTINUOUS
10
4.30616
20
-4.35733
11
4.30917
21
-4.35673
0
LINE
8
BLACK
6
CONTINUOUS
10
4.30917
20
-4.35673
11
4.33083
21
-4.35673
0
LINE
8
BLACK
6
CONTINUOUS
10
4.33083
20
-4.35673
11
4.33384
21
-4.35733
0
LINE
8
BLACK
6
CONTINUOUS
10
3.89119
20
-4.32843
11
3.89406
21
-4.33035
0
LINE
8
BLACK
6
CONTINUOUS
10
3.89406
20
-4.33035
11
3.89598
21
-4.33322
0
LINE
8
BLACK
6
CONTINUOUS
10
3.89598
20
-4.33322
11
3.89665
21
-4.33661
0
LINE
8
BLACK
6
CONTINUOUS
10
3.89665
20
-4.33661
11
3.89665
21
-4.35433
0
LINE
8
BLACK
6
CONTINUOUS
10
3.89665
20
-4.35433
11
3.89598
21
-4.35772
0
LINE
8
BLACK
6
CONTINUOUS
10
3.89598
20
-4.35772
11
3.89406
21
-4.36059
0
LINE
8
BLACK
6
CONTINUOUS
10
3.89406
20
-4.36059
11
3.89119
21
-4.36251
0
LINE
8
BLACK
6
CONTINUOUS
10
3.89119
20
-4.36251
11
3.8878
21
-4.36319
0
LINE
8
BLACK
6
CONTINUOUS
10
3.8878
20
-4.36319
11
3.86811
21
-4.36319
0
LINE
8
BLACK
6
CONTINUOUS
10
3.86811
20
-4.36319
11
3.86472
21
-4.36251
0
LINE
8
BLACK
6
CONTINUOUS
10
3.86472
20
-4.36251
11
3.86185
21
-4.36059
0
LINE
8
BLACK
6
CONTINUOUS
10
3.86185
20
-4.36059
11
3.85993
21
-4.35772
0
LINE
8
BLACK
6
CONTINUOUS
10
3.85993
20
-4.35772
11
3.85925
21
-4.35433
0
LINE
8
BLACK
6
CONTINUOUS
10
3.85925
20
-4.35433
11
3.85925
21
-4.33661
0
LINE
8
BLACK
6
CONTINUOUS
10
3.85925
20
-4.33661
11
3.85993
21
-4.33322
0
LINE
8
BLACK
6
CONTINUOUS
10
3.85993
20
-4.33322
11
3.86185
21
-4.33035
0
LINE
8
BLACK
6
CONTINUOUS
10
3.86185
20
-4.33035
11
3.86472
21
-4.32843
0
LINE
8
BLACK
6
CONTINUOUS
10
3.86472
20
-4.32843
11
3.86811
21
-4.32776
0
LINE
8
BLACK
6
CONTINUOUS
10
3.86811
20
-4.32776
11
3.8878
21
-4.32776
0
LINE
8
BLACK
6
CONTINUOUS
10
3.8878
20
-4.32776
11
3.89119
21
-4.32843
0
LINE
8
BLACK
6
CONTINUOUS
10
3.80851
20
-4.32843
11
3.81138
21
-4.33035
0
LINE
8
BLACK
6
CONTINUOUS
10
3.81138
20
-4.33035
11
3.8133
21
-4.33322
0
LINE
8
BLACK
6
CONTINUOUS
10
3.8133
20
-4.33322
11
3.81398
21
-4.33661
0
LINE
8
BLACK
6
CONTINUOUS
10
3.81398
20
-4.33661
11
3.81398
21
-4.35433
0
LINE
8
BLACK
6
CONTINUOUS
10
3.81398
20
-4.35433
11
3.8133
21
-4.35772
0
LINE
8
BLACK
6
CONTINUOUS
10
3.8133
20
-4.35772
11
3.81138
21
-4.36059
0
LINE
8
BLACK
6
CONTINUOUS
10
3.81138
20
-4.36059
11
3.80851
21
-4.36251
0
LINE
8
BLACK
6
CONTINUOUS
10
3.80851
20
-4.36251
11
3.80512
21
-4.36319
0
LINE
8
BLACK
6
CONTINUOUS
10
3.80512
20
-4.36319
11
3.78543
21
-4.36319
0
LINE
8
BLACK
6
CONTINUOUS
10
3.78543
20
-4.36319
11
3.78204
21
-4.36251
0
LINE
8
BLACK
6
CONTINUOUS
10
3.78204
20
-4.36251
11
3.77917
21
-4.36059
0
LINE
8
BLACK
6
CONTINUOUS
10
3.77917
20
-4.36059
11
3.77725
21
-4.35772
0
LINE
8
BLACK
6
CONTINUOUS
10
3.77725
20
-4.35772
11
3.77657
21
-4.35433
0
LINE
8
BLACK
6
CONTINUOUS
10
3.77657
20
-4.35433
11
3.77657
21
-4.33661
0
LINE
8
BLACK
6
CONTINUOUS
10
3.77657
20
-4.33661
11
3.77725
21
-4.33322
0
LINE
8
BLACK
6
CONTINUOUS
10
3.77725
20
-4.33322
11
3.77917
21
-4.33035
0
LINE
8
BLACK
6
CONTINUOUS
10
3.77917
20
-4.33035
11
3.78204
21
-4.32843
0
LINE
8
BLACK
6
CONTINUOUS
10
3.78204
20
-4.32843
11
3.78543
21
-4.32776
0
LINE
8
BLACK
6
CONTINUOUS
10
3.78543
20
-4.32776
11
3.80512
21
-4.32776
0
LINE
8
BLACK
6
CONTINUOUS
10
3.80512
20
-4.32776
11
3.80851
21
-4.32843
0
LINE
8
BLACK
6
CONTINUOUS
10
3.6343
20
-4.32056
11
3.63717
21
-4.32248
0
LINE
8
BLACK
6
CONTINUOUS
10
3.63717
20
-4.32248
11
3.63909
21
-4.32535
0
LINE
8
BLACK
6
CONTINUOUS
10
3.63909
20
-4.32535
11
3.63976
21
-4.32874
0
LINE
8
BLACK
6
CONTINUOUS
10
3.63976
20
-4.32874
11
3.63976
21
-4.34843
0
LINE
8
BLACK
6
CONTINUOUS
10
3.63976
20
-4.34843
11
3.63909
21
-4.35182
0
LINE
8
BLACK
6
CONTINUOUS
10
3.63909
20
-4.35182
11
3.63717
21
-4.35469
0
LINE
8
BLACK
6
CONTINUOUS
10
3.63717
20
-4.35469
11
3.6343
21
-4.35661
0
LINE
8
BLACK
6
CONTINUOUS
10
3.6343
20
-4.35661
11
3.63091
21
-4.35728
0
LINE
8
BLACK
6
CONTINUOUS
10
3.63091
20
-4.35728
11
3.61319
21
-4.35728
0
LINE
8
BLACK
6
CONTINUOUS
10
3.61319
20
-4.35728
11
3.6098
21
-4.35661
0
LINE
8
BLACK
6
CONTINUOUS
10
3.6098
20
-4.35661
11
3.60693
21
-4.35469
0
LINE
8
BLACK
6
CONTINUOUS
10
3.60693
20
-4.35469
11
3.605
21
-4.35182
0
LINE
8
BLACK
6
CONTINUOUS
10
3.605
20
-4.35182
11
3.60433
21
-4.34843
0
LINE
8
BLACK
6
CONTINUOUS
10
3.60433
20
-4.34843
11
3.60433
21
-4.32874
0
LINE
8
BLACK
6
CONTINUOUS
10
3.60433
20
-4.32874
11
3.605
21
-4.32535
0
LINE
8
BLACK
6
CONTINUOUS
10
3.605
20
-4.32535
11
3.60693
21
-4.32248
0
LINE
8
BLACK
6
CONTINUOUS
10
3.60693
20
-4.32248
11
3.6098
21
-4.32056
0
LINE
8
BLACK
6
CONTINUOUS
10
3.6098
20
-4.32056
11
3.61319
21
-4.31988
0
LINE
8
BLACK
6
CONTINUOUS
10
3.61319
20
-4.31988
11
3.63091
21
-4.31988
0
LINE
8
BLACK
6
CONTINUOUS
10
3.63091
20
-4.31988
11
3.6343
21
-4.32056
0
LINE
8
BLACK
6
CONTINUOUS
10
3.57327
20
-4.32056
11
3.57615
21
-4.32248
0
LINE
8
BLACK
6
CONTINUOUS
10
3.57615
20
-4.32248
11
3.57807
21
-4.32535
0
LINE
8
BLACK
6
CONTINUOUS
10
3.57807
20
-4.32535
11
3.57874
21
-4.32874
0
LINE
8
BLACK
6
CONTINUOUS
10
3.57874
20
-4.32874
11
3.57874
21
-4.34843
0
LINE
8
BLACK
6
CONTINUOUS
10
3.57874
20
-4.34843
11
3.57807
21
-4.35182
0
LINE
8
BLACK
6
CONTINUOUS
10
3.57807
20
-4.35182
11
3.57615
21
-4.35469
0
LINE
8
BLACK
6
CONTINUOUS
10
3.57615
20
-4.35469
11
3.57327
21
-4.35661
0
LINE
8
BLACK
6
CONTINUOUS
10
3.57327
20
-4.35661
11
3.56988
21
-4.35728
0
LINE
8
BLACK
6
CONTINUOUS
10
3.56988
20
-4.35728
11
3.55217
21
-4.35728
0
LINE
8
BLACK
6
CONTINUOUS
10
3.55217
20
-4.35728
11
3.54878
21
-4.35661
0
LINE
8
BLACK
6
CONTINUOUS
10
3.54878
20
-4.35661
11
3.5459
21
-4.35469
0
LINE
8
BLACK
6
CONTINUOUS
10
3.5459
20
-4.35469
11
3.54398
21
-4.35182
0
LINE
8
BLACK
6
CONTINUOUS
10
3.54398
20
-4.35182
11
3.54331
21
-4.34843
0
LINE
8
BLACK
6
CONTINUOUS
10
3.54331
20
-4.34843
11
3.54331
21
-4.32874
0
LINE
8
BLACK
6
CONTINUOUS
10
3.54331
20
-4.32874
11
3.54398
21
-4.32535
0
LINE
8
BLACK
6
CONTINUOUS
10
3.54398
20
-4.32535
11
3.5459
21
-4.32248
0
LINE
8
BLACK
6
CONTINUOUS
10
3.5459
20
-4.32248
11
3.54878
21
-4.32056
0
LINE
8
BLACK
6
CONTINUOUS
10
3.54878
20
-4.32056
11
3.55217
21
-4.31988
0
LINE
8
BLACK
6
CONTINUOUS
10
3.55217
20
-4.31988
11
3.56988
21
-4.31988
0
LINE
8
BLACK
6
CONTINUOUS
10
3.56988
20
-4.31988
11
3.57327
21
-4.32056
0
LINE
8
BLACK
6
CONTINUOUS
10
4.39323
20
-4.29292
11
4.39611
21
-4.29484
0
LINE
8
BLACK
6
CONTINUOUS
10
4.39611
20
-4.29484
11
4.39803
21
-4.29771
0
LINE
8
BLACK
6
CONTINUOUS
10
4.39803
20
-4.29771
11
4.3987
21
-4.3011
0
LINE
8
BLACK
6
CONTINUOUS
10
4.3987
20
-4.3011
11
4.3987
21
-4.31882
0
LINE
8
BLACK
6
CONTINUOUS
10
4.3987
20
-4.31882
11
4.39803
21
-4.32221
0
LINE
8
BLACK
6
CONTINUOUS
10
4.39803
20
-4.32221
11
4.39611
21
-4.32508
0
LINE
8
BLACK
6
CONTINUOUS
10
4.39611
20
-4.32508
11
4.39323
21
-4.327
0
LINE
8
BLACK
6
CONTINUOUS
10
4.39323
20
-4.327
11
4.38984
21
-4.32768
0
LINE
8
BLACK
6
CONTINUOUS
10
4.38984
20
-4.32768
11
4.37016
21
-4.32768
0
LINE
8
BLACK
6
CONTINUOUS
10
4.37016
20
-4.32768
11
4.36677
21
-4.327
0
LINE
8
BLACK
6
CONTINUOUS
10
4.36677
20
-4.327
11
4.36389
21
-4.32508
0
LINE
8
BLACK
6
CONTINUOUS
10
4.36389
20
-4.32508
11
4.36197
21
-4.32221
0
LINE
8
BLACK
6
CONTINUOUS
10
4.36197
20
-4.32221
11
4.3613
21
-4.31882
0
LINE
8
BLACK
6
CONTINUOUS
10
4.3613
20
-4.31882
11
4.3613
21
-4.3011
0
LINE
8
BLACK
6
CONTINUOUS
10
4.3613
20
-4.3011
11
4.36197
21
-4.29771
0
LINE
8
BLACK
6
CONTINUOUS
10
4.36197
20
-4.29771
11
4.36389
21
-4.29484
0
LINE
8
BLACK
6
CONTINUOUS
10
4.36389
20
-4.29484
11
4.36677
21
-4.29292
0
LINE
8
BLACK
6
CONTINUOUS
10
4.36677
20
-4.29292
11
4.37016
21
-4.29224
0
LINE
8
BLACK
6
CONTINUOUS
10
4.37016
20
-4.29224
11
4.38984
21
-4.29224
0
LINE
8
BLACK
6
CONTINUOUS
10
4.38984
20
-4.29224
11
4.39323
21
-4.29292
0
LINE
8
BLACK
6
CONTINUOUS
10
4.33384
20
-4.29237
11
4.33639
21
-4.29408
0
LINE
8
BLACK
6
CONTINUOUS
10
4.33639
20
-4.29408
11
4.3381
21
-4.29663
0
LINE
8
BLACK
6
CONTINUOUS
10
4.3381
20
-4.29663
11
4.3387
21
-4.29965
0
LINE
8
BLACK
6
CONTINUOUS
10
4.3387
20
-4.29965
11
4.3387
21
-4.31539
0
LINE
8
BLACK
6
CONTINUOUS
10
4.3387
20
-4.31539
11
4.3381
21
-4.31841
0
LINE
8
BLACK
6
CONTINUOUS
10
4.3381
20
-4.31841
11
4.33639
21
-4.32096
0
LINE
8
BLACK
6
CONTINUOUS
10
4.33639
20
-4.32096
11
4.33384
21
-4.32267
0
LINE
8
BLACK
6
CONTINUOUS
10
4.33384
20
-4.32267
11
4.33083
21
-4.32327
0
LINE
8
BLACK
6
CONTINUOUS
10
4.33083
20
-4.32327
11
4.30917
21
-4.32327
0
LINE
8
BLACK
6
CONTINUOUS
10
4.30917
20
-4.32327
11
4.30616
21
-4.32267
0
LINE
8
BLACK
6
CONTINUOUS
10
4.30616
20
-4.32267
11
4.30361
21
-4.32096
0
LINE
8
BLACK
6
CONTINUOUS
10
4.30361
20
-4.32096
11
4.3019
21
-4.31841
0
LINE
8
BLACK
6
CONTINUOUS
10
4.3019
20
-4.31841
11
4.3013
21
-4.31539
0
LINE
8
BLACK
6
CONTINUOUS
10
4.3013
20
-4.31539
11
4.3013
21
-4.29965
0
LINE
8
BLACK
6
CONTINUOUS
10
4.3013
20
-4.29965
11
4.3019
21
-4.29663
0
LINE
8
BLACK
6
CONTINUOUS
10
4.3019
20
-4.29663
11
4.30361
21
-4.29408
0
LINE
8
BLACK
6
CONTINUOUS
10
4.30361
20
-4.29408
11
4.30616
21
-4.29237
0
LINE
8
BLACK
6
CONTINUOUS
10
4.30616
20
-4.29237
11
4.30917
21
-4.29177
0
LINE
8
BLACK
6
CONTINUOUS
10
4.30917
20
-4.29177
11
4.33083
21
-4.29177
0
LINE
8
BLACK
6
CONTINUOUS
10
4.33083
20
-4.29177
11
4.33384
21
-4.29237
0
LINE
8
BLACK
6
CONTINUOUS
10
3.89119
20
-4.26741
11
3.89406
21
-4.26933
0
LINE
8
BLACK
6
CONTINUOUS
10
3.89406
20
-4.26933
11
3.89598
21
-4.2722
0
LINE
8
BLACK
6
CONTINUOUS
10
3.89598
20
-4.2722
11
3.89665
21
-4.27559
0
LINE
8
BLACK
6
CONTINUOUS
10
3.89665
20
-4.27559
11
3.89665
21
-4.29331
0
LINE
8
BLACK
6
CONTINUOUS
10
3.89665
20
-4.29331
11
3.89598
21
-4.2967
0
LINE
8
BLACK
6
CONTINUOUS
10
3.89598
20
-4.2967
11
3.89406
21
-4.29957
0
LINE
8
BLACK
6
CONTINUOUS
10
3.89406
20
-4.29957
11
3.89119
21
-4.30149
0
LINE
8
BLACK
6
CONTINUOUS
10
3.89119
20
-4.30149
11
3.8878
21
-4.30217
0
LINE
8
BLACK
6
CONTINUOUS
10
3.8878
20
-4.30217
11
3.86811
21
-4.30217
0
LINE
8
BLACK
6
CONTINUOUS
10
3.86811
20
-4.30217
11
3.86472
21
-4.30149
0
LINE
8
BLACK
6
CONTINUOUS
10
3.86472
20
-4.30149
11
3.86185
21
-4.29957
0
LINE
8
BLACK
6
CONTINUOUS
10
3.86185
20
-4.29957
11
3.85993
21
-4.2967
0
LINE
8
BLACK
6
CONTINUOUS
10
3.85993
20
-4.2967
11
3.85925
21
-4.29331
0
LINE
8
BLACK
6
CONTINUOUS
10
3.85925
20
-4.29331
11
3.85925
21
-4.27559
0
LINE
8
BLACK
6
CONTINUOUS
10
3.85925
20
-4.27559
11
3.85993
21
-4.2722
0
LINE
8
BLACK
6
CONTINUOUS
10
3.85993
20
-4.2722
11
3.86185
21
-4.26933
0
LINE
8
BLACK
6
CONTINUOUS
10
3.86185
20
-4.26933
11
3.86472
21
-4.26741
0
LINE
8
BLACK
6
CONTINUOUS
10
3.86472
20
-4.26741
11
3.86811
21
-4.26673
0
LINE
8
BLACK
6
CONTINUOUS
10
3.86811
20
-4.26673
11
3.8878
21
-4.26673
0
LINE
8
BLACK
6
CONTINUOUS
10
3.8878
20
-4.26673
11
3.89119
21
-4.26741
0
LINE
8
BLACK
6
CONTINUOUS
10
3.80851
20
-4.26741
11
3.81138
21
-4.26933
0
LINE
8
BLACK
6
CONTINUOUS
10
3.81138
20
-4.26933
11
3.8133
21
-4.2722
0
LINE
8
BLACK
6
CONTINUOUS
10
3.8133
20
-4.2722
11
3.81398
21
-4.27559
0
LINE
8
BLACK
6
CONTINUOUS
10
3.81398
20
-4.27559
11
3.81398
21
-4.29331
0
LINE
8
BLACK
6
CONTINUOUS
10
3.81398
20
-4.29331
11
3.8133
21
-4.2967
0
LINE
8
BLACK
6
CONTINUOUS
10
3.8133
20
-4.2967
11
3.81138
21
-4.29957
0
LINE
8
BLACK
6
CONTINUOUS
10
3.81138
20
-4.29957
11
3.80851
21
-4.30149
0
LINE
8
BLACK
6
CONTINUOUS
10
3.80851
20
-4.30149
11
3.80512
21
-4.30217
0
LINE
8
BLACK
6
CONTINUOUS
10
3.80512
20
-4.30217
11
3.78543
21
-4.30217
0
LINE
8
BLACK
6
CONTINUOUS
10
3.78543
20
-4.30217
11
3.78204
21
-4.30149
0
LINE
8
BLACK
6
CONTINUOUS
10
3.78204
20
-4.30149
11
3.77917
21
-4.29957
0
LINE
8
BLACK
6
CONTINUOUS
10
3.77917
20
-4.29957
11
3.77725
21
-4.2967
0
LINE
8
BLACK
6
CONTINUOUS
10
3.77725
20
-4.2967
11
3.77657
21
-4.29331
0
LINE
8
BLACK
6
CONTINUOUS
10
3.77657
20
-4.29331
11
3.77657
21
-4.27559
0
LINE
8
BLACK
6
CONTINUOUS
10
3.77657
20
-4.27559
11
3.77725
21
-4.2722
0
LINE
8
BLACK
6
CONTINUOUS
10
3.77725
20
-4.2722
11
3.77917
21
-4.26933
0
LINE
8
BLACK
6
CONTINUOUS
10
3.77917
20
-4.26933
11
3.78204
21
-4.26741
0
LINE
8
BLACK
6
CONTINUOUS
10
3.78204
20
-4.26741
11
3.78543
21
-4.26673
0
LINE
8
BLACK
6
CONTINUOUS
10
3.78543
20
-4.26673
11
3.80512
21
-4.26673
0
LINE
8
BLACK
6
CONTINUOUS
10
3.80512
20
-4.26673
11
3.80851
21
-4.26741
0
LINE
8
BLACK
6
CONTINUOUS
10
3.65496
20
-4.22213
11
3.65784
21
-4.22405
0
LINE
8
BLACK
6
CONTINUOUS
10
3.65784
20
-4.22405
11
3.65976
21
-4.22693
0
LINE
8
BLACK
6
CONTINUOUS
10
3.65976
20
-4.22693
11
3.66043
21
-4.23031
0
LINE
8
BLACK
6
CONTINUOUS
10
3.66043
20
-4.23031
11
3.66043
21
-4.24803
0
LINE
8
BLACK
6
CONTINUOUS
10
3.66043
20
-4.24803
11
3.65976
21
-4.25142
0
LINE
8
BLACK
6
CONTINUOUS
10
3.65976
20
-4.25142
11
3.65784
21
-4.2543
0
LINE
8
BLACK
6
CONTINUOUS
10
3.65784
20
-4.2543
11
3.65496
21
-4.25622
0
LINE
8
BLACK
6
CONTINUOUS
10
3.65496
20
-4.25622
11
3.65157
21
-4.25689
0
LINE
8
BLACK
6
CONTINUOUS
10
3.65157
20
-4.25689
11
3.63189
21
-4.25689
0
LINE
8
BLACK
6
CONTINUOUS
10
3.63189
20
-4.25689
11
3.6285
21
-4.25622
0
LINE
8
BLACK
6
CONTINUOUS
10
3.6285
20
-4.25622
11
3.62563
21
-4.2543
0
LINE
8
BLACK
6
CONTINUOUS
10
3.62563
20
-4.2543
11
3.62371
21
-4.25142
0
LINE
8
BLACK
6
CONTINUOUS
10
3.62371
20
-4.25142
11
3.62303
21
-4.24803
0
LINE
8
BLACK
6
CONTINUOUS
10
3.62303
20
-4.24803
11
3.62303
21
-4.23031
0
LINE
8
BLACK
6
CONTINUOUS
10
3.62303
20
-4.23031
11
3.62371
21
-4.22693
0
LINE
8
BLACK
6
CONTINUOUS
10
3.62371
20
-4.22693
11
3.62563
21
-4.22405
0
LINE
8
BLACK
6
CONTINUOUS
10
3.62563
20
-4.22405
11
3.6285
21
-4.22213
0
LINE
8
BLACK
6
CONTINUOUS
10
3.6285
20
-4.22213
11
3.63189
21
-4.22146
0
LINE
8
BLACK
6
CONTINUOUS
10
3.63189
20
-4.22146
11
3.65157
21
-4.22146
0
LINE
8
BLACK
6
CONTINUOUS
10
3.65157
20
-4.22146
11
3.65496
21
-4.22213
0
LINE
8
BLACK
6
CONTINUOUS
10
3.59591
20
-4.22213
11
3.59878
21
-4.22405
0
LINE
8
BLACK
6
CONTINUOUS
10
3.59878
20
-4.22405
11
3.6007
21
-4.22693
0
LINE
8
BLACK
6
CONTINUOUS
10
3.6007
20
-4.22693
11
3.60138
21
-4.23031
0
LINE
8
BLACK
6
CONTINUOUS
10
3.60138
20
-4.23031
11
3.60138
21
-4.24803
0
LINE
8
BLACK
6
CONTINUOUS
10
3.60138
20
-4.24803
11
3.6007
21
-4.25142
0
LINE
8
BLACK
6
CONTINUOUS
10
3.6007
20
-4.25142
11
3.59878
21
-4.2543
0
LINE
8
BLACK
6
CONTINUOUS
10
3.59878
20
-4.2543
11
3.59591
21
-4.25622
0
LINE
8
BLACK
6
CONTINUOUS
10
3.59591
20
-4.25622
11
3.59252
21
-4.25689
0
LINE
8
BLACK
6
CONTINUOUS
10
3.59252
20
-4.25689
11
3.57283
21
-4.25689
0
LINE
8
BLACK
6
CONTINUOUS
10
3.57283
20
-4.25689
11
3.56944
21
-4.25622
0
LINE
8
BLACK
6
CONTINUOUS
10
3.56944
20
-4.25622
11
3.56657
21
-4.2543
0
LINE
8
BLACK
6
CONTINUOUS
10
3.56657
20
-4.2543
11
3.56465
21
-4.25142
0
LINE
8
BLACK
6
CONTINUOUS
10
3.56465
20
-4.25142
11
3.56398
21
-4.24803
0
LINE
8
BLACK
6
CONTINUOUS
10
3.56398
20
-4.24803
11
3.56398
21
-4.23031
0
LINE
8
BLACK
6
CONTINUOUS
10
3.56398
20
-4.23031
11
3.56465
21
-4.22693
0
LINE
8
BLACK
6
CONTINUOUS
10
3.56465
20
-4.22693
11
3.56657
21
-4.22405
0
LINE
8
BLACK
6
CONTINUOUS
10
3.56657
20
-4.22405
11
3.56944
21
-4.22213
0
LINE
8
BLACK
6
CONTINUOUS
10
3.56944
20
-4.22213
11
3.57283
21
-4.22146
0
LINE
8
BLACK
6
CONTINUOUS
10
3.57283
20
-4.22146
11
3.59252
21
-4.22146
0
LINE
8
BLACK
6
CONTINUOUS
10
3.59252
20
-4.22146
11
3.59591
21
-4.22213
0
LINE
8
BLACK
6
CONTINUOUS
10
3.65496
20
-4.16111
11
3.65784
21
-4.16303
0
LINE
8
BLACK
6
CONTINUOUS
10
3.65784
20
-4.16303
11
3.65976
21
-4.1659
0
LINE
8
BLACK
6
CONTINUOUS
10
3.65976
20
-4.1659
11
3.66043
21
-4.16929
0
LINE
8
BLACK
6
CONTINUOUS
10
3.66043
20
-4.16929
11
3.66043
21
-4.18701
0
LINE
8
BLACK
6
CONTINUOUS
10
3.66043
20
-4.18701
11
3.65976
21
-4.1904
0
LINE
8
BLACK
6
CONTINUOUS
10
3.65976
20
-4.1904
11
3.65784
21
-4.19327
0
LINE
8
BLACK
6
CONTINUOUS
10
3.65784
20
-4.19327
11
3.65496
21
-4.19519
0
LINE
8
BLACK
6
CONTINUOUS
10
3.65496
20
-4.19519
11
3.65157
21
-4.19587
0
LINE
8
BLACK
6
CONTINUOUS
10
3.65157
20
-4.19587
11
3.63189
21
-4.19587
0
LINE
8
BLACK
6
CONTINUOUS
10
3.63189
20
-4.19587
11
3.6285
21
-4.19519
0
LINE
8
BLACK
6
CONTINUOUS
10
3.6285
20
-4.19519
11
3.62563
21
-4.19327
0
LINE
8
BLACK
6
CONTINUOUS
10
3.62563
20
-4.19327
11
3.62371
21
-4.1904
0
LINE
8
BLACK
6
CONTINUOUS
10
3.62371
20
-4.1904
11
3.62303
21
-4.18701
0
LINE
8
BLACK
6
CONTINUOUS
10
3.62303
20
-4.18701
11
3.62303
21
-4.16929
0
LINE
8
BLACK
6
CONTINUOUS
10
3.62303
20
-4.16929
11
3.62371
21
-4.1659
0
LINE
8
BLACK
6
CONTINUOUS
10
3.62371
20
-4.1659
11
3.62563
21
-4.16303
0
LINE
8
BLACK
6
CONTINUOUS
10
3.62563
20
-4.16303
11
3.6285
21
-4.16111
0
LINE
8
BLACK
6
CONTINUOUS
10
3.6285
20
-4.16111
11
3.63189
21
-4.16043
0
LINE
8
BLACK
6
CONTINUOUS
10
3.63189
20
-4.16043
11
3.65157
21
-4.16043
0
LINE
8
BLACK
6
CONTINUOUS
10
3.65157
20
-4.16043
11
3.65496
21
-4.16111
0
LINE
8
BLACK
6
CONTINUOUS
10
3.59591
20
-4.16111
11
3.59878
21
-4.16303
0
LINE
8
BLACK
6
CONTINUOUS
10
3.59878
20
-4.16303
11
3.6007
21
-4.1659
0
LINE
8
BLACK
6
CONTINUOUS
10
3.6007
20
-4.1659
11
3.60138
21
-4.16929
0
LINE
8
BLACK
6
CONTINUOUS
10
3.60138
20
-4.16929
11
3.60138
21
-4.18701
0
LINE
8
BLACK
6
CONTINUOUS
10
3.60138
20
-4.18701
11
3.6007
21
-4.1904
0
LINE
8
BLACK
6
CONTINUOUS
10
3.6007
20
-4.1904
11
3.59878
21
-4.19327
0
LINE
8
BLACK
6
CONTINUOUS
10
3.59878
20
-4.19327
11
3.59591
21
-4.19519
0
LINE
8
BLACK
6
CONTINUOUS
10
3.59591
20
-4.19519
11
3.59252
21
-4.19587
0
LINE
8
BLACK
6
CONTINUOUS
10
3.59252
20
-4.19587
11
3.57283
21
-4.19587
0
LINE
8
BLACK
6
CONTINUOUS
10
3.57283
20
-4.19587
11
3.56944
21
-4.19519
0
LINE
8
BLACK
6
CONTINUOUS
10
3.56944
20
-4.19519
11
3.56657
21
-4.19327
0
LINE
8
BLACK
6
CONTINUOUS
10
3.56657
20
-4.19327
11
3.56465
21
-4.1904
0
LINE
8
BLACK
6
CONTINUOUS
10
3.56465
20
-4.1904
11
3.56398
21
-4.18701
0
LINE
8
BLACK
6
CONTINUOUS
10
3.56398
20
-4.18701
11
3.56398
21
-4.16929
0
LINE
8
BLACK
6
CONTINUOUS
10
3.56398
20
-4.16929
11
3.56465
21
-4.1659
0
LINE
8
BLACK
6
CONTINUOUS
10
3.56465
20
-4.1659
11
3.56657
21
-4.16303
0
LINE
8
BLACK
6
CONTINUOUS
10
3.56657
20
-4.16303
11
3.56944
21
-4.16111
0
LINE
8
BLACK
6
CONTINUOUS
10
3.56944
20
-4.16111
11
3.57283
21
-4.16043
0
LINE
8
BLACK
6
CONTINUOUS
10
3.57283
20
-4.16043
11
3.59252
21
-4.16043
0
LINE
8
BLACK
6
CONTINUOUS
10
3.59252
20
-4.16043
11
3.59591
21
-4.16111
0
LINE
8
BLACK
6
CONTINUOUS
10
3.46308
20
-4.07927
11
3.46628
21
-4.0814
0
LINE
8
BLACK
6
CONTINUOUS
10
3.46628
20
-4.0814
11
3.46841
21
-4.08459
0
LINE
8
BLACK
6
CONTINUOUS
10
3.46841
20
-4.08459
11
3.46916
21
-4.08836
0
LINE
8
BLACK
6
CONTINUOUS
10
3.46916
20
-4.08836
11
3.46916
21
-4.11395
0
LINE
8
BLACK
6
CONTINUOUS
10
3.46916
20
-4.11395
11
3.46841
21
-4.11772
0
LINE
8
BLACK
6
CONTINUOUS
10
3.46841
20
-4.11772
11
3.46628
21
-4.12091
0
LINE
8
BLACK
6
CONTINUOUS
10
3.46628
20
-4.12091
11
3.46308
21
-4.12304
0
LINE
8
BLACK
6
CONTINUOUS
10
3.46308
20
-4.12304
11
3.45932
21
-4.12379
0
LINE
8
BLACK
6
CONTINUOUS
10
3.45932
20
-4.12379
11
3.42388
21
-4.12379
0
LINE
8
BLACK
6
CONTINUOUS
10
3.42388
20
-4.12379
11
3.42012
21
-4.12304
0
LINE
8
BLACK
6
CONTINUOUS
10
3.42012
20
-4.12304
11
3.41692
21
-4.12091
0
LINE
8
BLACK
6
CONTINUOUS
10
3.41692
20
-4.12091
11
3.41479
21
-4.11772
0
LINE
8
BLACK
6
CONTINUOUS
10
3.41479
20
-4.11772
11
3.41404
21
-4.11395
0
LINE
8
BLACK
6
CONTINUOUS
10
3.41404
20
-4.11395
11
3.41404
21
-4.08836
0
LINE
8
BLACK
6
CONTINUOUS
10
3.41404
20
-4.08836
11
3.41479
21
-4.08459
0
LINE
8
BLACK
6
CONTINUOUS
10
3.41479
20
-4.08459
11
3.41692
21
-4.0814
0
LINE
8
BLACK
6
CONTINUOUS
10
3.41692
20
-4.0814
11
3.42012
21
-4.07927
0
LINE
8
BLACK
6
CONTINUOUS
10
3.42012
20
-4.07927
11
3.42388
21
-4.07852
0
LINE
8
BLACK
6
CONTINUOUS
10
3.42388
20
-4.07852
11
3.45932
21
-4.07852
0
LINE
8
BLACK
6
CONTINUOUS
10
3.45932
20
-4.07852
11
3.46308
21
-4.07927
0
LINE
8
BLACK
6
CONTINUOUS
10
3.46308
20
-3.99856
11
3.46628
21
-4.00069
0
LINE
8
BLACK
6
CONTINUOUS
10
3.46628
20
-4.00069
11
3.46841
21
-4.00388
0
LINE
8
BLACK
6
CONTINUOUS
10
3.46841
20
-4.00388
11
3.46916
21
-4.00765
0
LINE
8
BLACK
6
CONTINUOUS
10
3.46916
20
-4.00765
11
3.46916
21
-4.03324
0
LINE
8
BLACK
6
CONTINUOUS
10
3.46916
20
-4.03324
11
3.46841
21
-4.03701
0
LINE
8
BLACK
6
CONTINUOUS
10
3.46841
20
-4.03701
11
3.46628
21
-4.0402
0
LINE
8
BLACK
6
CONTINUOUS
10
3.46628
20
-4.0402
11
3.46308
21
-4.04233
0
LINE
8
BLACK
6
CONTINUOUS
10
3.46308
20
-4.04233
11
3.45932
21
-4.04308
0
LINE
8
BLACK
6
CONTINUOUS
10
3.45932
20
-4.04308
11
3.42388
21
-4.04308
0
LINE
8
BLACK
6
CONTINUOUS
10
3.42388
20
-4.04308
11
3.42012
21
-4.04233
0
LINE
8
BLACK
6
CONTINUOUS
10
3.42012
20
-4.04233
11
3.41692
21
-4.0402
0
LINE
8
BLACK
6
CONTINUOUS
10
3.41692
20
-4.0402
11
3.41479
21
-4.03701
0
LINE
8
BLACK
6
CONTINUOUS
10
3.41479
20
-4.03701
11
3.41404
21
-4.03324
0
LINE
8
BLACK
6
CONTINUOUS
10
3.41404
20
-4.03324
11
3.41404
21
-4.00765
0
LINE
8
BLACK
6
CONTINUOUS
10
3.41404
20
-4.00765
11
3.41479
21
-4.00388
0
LINE
8
BLACK
6
CONTINUOUS
10
3.41479
20
-4.00388
11
3.41692
21
-4.00069
0
LINE
8
BLACK
6
CONTINUOUS
10
3.41692
20
-4.00069
11
3.42012
21
-3.99856
0
LINE
8
BLACK
6
CONTINUOUS
10
3.42012
20
-3.99856
11
3.42388
21
-3.99781
0
LINE
8
BLACK
6
CONTINUOUS
10
3.42388
20
-3.99781
11
3.45932
21
-3.99781
0
LINE
8
BLACK
6
CONTINUOUS
10
3.45932
20
-3.99781
11
3.46308
21
-3.99856
0
LINE
8
BLACK
6
CONTINUOUS
10
3.42367
20
-3.92686
11
3.42654
21
-3.92878
0
LINE
8
BLACK
6
CONTINUOUS
10
3.42654
20
-3.92878
11
3.42846
21
-3.93165
0
LINE
8
BLACK
6
CONTINUOUS
10
3.42846
20
-3.93165
11
3.42913
21
-3.93504
0
LINE
8
BLACK
6
CONTINUOUS
10
3.42913
20
-3.93504
11
3.42913
21
-3.95472
0
LINE
8
BLACK
6
CONTINUOUS
10
3.42913
20
-3.95472
11
3.42846
21
-3.95811
0
LINE
8
BLACK
6
CONTINUOUS
10
3.42846
20
-3.95811
11
3.42654
21
-3.96099
0
LINE
8
BLACK
6
CONTINUOUS
10
3.42654
20
-3.96099
11
3.42367
21
-3.96291
0
LINE
8
BLACK
6
CONTINUOUS
10
3.42367
20
-3.96291
11
3.42028
21
-3.96358
0
LINE
8
BLACK
6
CONTINUOUS
10
3.42028
20
-3.96358
11
3.40256
21
-3.96358
0
LINE
8
BLACK
6
CONTINUOUS
10
3.40256
20
-3.96358
11
3.39917
21
-3.96291
0
LINE
8
BLACK
6
CONTINUOUS
10
3.39917
20
-3.96291
11
3.3963
21
-3.96099
0
LINE
8
BLACK
6
CONTINUOUS
10
3.3963
20
-3.96099
11
3.39438
21
-3.95811
0
LINE
8
BLACK
6
CONTINUOUS
10
3.39438
20
-3.95811
11
3.3937
21
-3.95472
0
LINE
8
BLACK
6
CONTINUOUS
10
3.3937
20
-3.95472
11
3.3937
21
-3.93504
0
LINE
8
BLACK
6
CONTINUOUS
10
3.3937
20
-3.93504
11
3.39438
21
-3.93165
0
LINE
8
BLACK
6
CONTINUOUS
10
3.39438
20
-3.93165
11
3.3963
21
-3.92878
0
LINE
8
BLACK
6
CONTINUOUS
10
3.3963
20
-3.92878
11
3.39917
21
-3.92686
0
LINE
8
BLACK
6
CONTINUOUS
10
3.39917
20
-3.92686
11
3.40256
21
-3.92618
0
LINE
8
BLACK
6
CONTINUOUS
10
3.40256
20
-3.92618
11
3.42028
21
-3.92618
0
LINE
8
BLACK
6
CONTINUOUS
10
3.42028
20
-3.92618
11
3.42367
21
-3.92686
0
LINE
8
BLACK
6
CONTINUOUS
10
3.48469
20
-3.92686
11
3.48756
21
-3.92878
0
LINE
8
BLACK
6
CONTINUOUS
10
3.48756
20
-3.92878
11
3.48948
21
-3.93165
0
LINE
8
BLACK
6
CONTINUOUS
10
3.48948
20
-3.93165
11
3.49016
21
-3.93504
0
LINE
8
BLACK
6
CONTINUOUS
10
3.49016
20
-3.93504
11
3.49016
21
-3.95472
0
LINE
8
BLACK
6
CONTINUOUS
10
3.49016
20
-3.95472
11
3.48948
21
-3.95811
0
LINE
8
BLACK
6
CONTINUOUS
10
3.48948
20
-3.95811
11
3.48756
21
-3.96099
0
LINE
8
BLACK
6
CONTINUOUS
10
3.48756
20
-3.96099
11
3.48469
21
-3.96291
0
LINE
8
BLACK
6
CONTINUOUS
10
3.48469
20
-3.96291
11
3.4813
21
-3.96358
0
LINE
8
BLACK
6
CONTINUOUS
10
3.4813
20
-3.96358
11
3.46358
21
-3.96358
0
LINE
8
BLACK
6
CONTINUOUS
10
3.46358
20
-3.96358
11
3.46019
21
-3.96291
0
LINE
8
BLACK
6
CONTINUOUS
10
3.46019
20
-3.96291
11
3.45732
21
-3.96099
0
LINE
8
BLACK
6
CONTINUOUS
10
3.45732
20
-3.96099
11
3.4554
21
-3.95811
0
LINE
8
BLACK
6
CONTINUOUS
10
3.4554
20
-3.95811
11
3.45472
21
-3.95472
0
LINE
8
BLACK
6
CONTINUOUS
10
3.45472
20
-3.95472
11
3.45472
21
-3.93504
0
LINE
8
BLACK
6
CONTINUOUS
10
3.45472
20
-3.93504
11
3.4554
21
-3.93165
0
LINE
8
BLACK
6
CONTINUOUS
10
3.4554
20
-3.93165
11
3.45732
21
-3.92878
0
LINE
8
BLACK
6
CONTINUOUS
10
3.45732
20
-3.92878
11
3.46019
21
-3.92686
0
LINE
8
BLACK
6
CONTINUOUS
10
3.46019
20
-3.92686
11
3.46358
21
-3.92618
0
LINE
8
BLACK
6
CONTINUOUS
10
3.46358
20
-3.92618
11
3.4813
21
-3.92618
0
LINE
8
BLACK
6
CONTINUOUS
10
3.4813
20
-3.92618
11
3.48469
21
-3.92686
0
LINE
8
BLACK
6
CONTINUOUS
10
3.54867
20
-3.80973
11
3.55154
21
-3.81165
0
LINE
8
BLACK
6
CONTINUOUS
10
3.55154
20
-3.81165
11
3.55346
21
-3.81452
0
LINE
8
BLACK
6
CONTINUOUS
10
3.55346
20
-3.81452
11
3.55413
21
-3.81791
0
LINE
8
BLACK
6
CONTINUOUS
10
3.55413
20
-3.81791
11
3.55413
21
-3.83563
0
LINE
8
BLACK
6
CONTINUOUS
10
3.55413
20
-3.83563
11
3.55346
21
-3.83902
0
LINE
8
BLACK
6
CONTINUOUS
10
3.55346
20
-3.83902
11
3.55154
21
-3.84189
0
LINE
8
BLACK
6
CONTINUOUS
10
3.55154
20
-3.84189
11
3.54867
21
-3.84381
0
LINE
8
BLACK
6
CONTINUOUS
10
3.54867
20
-3.84381
11
3.54528
21
-3.84449
0
LINE
8
BLACK
6
CONTINUOUS
10
3.54528
20
-3.84449
11
3.52559
21
-3.84449
0
LINE
8
BLACK
6
CONTINUOUS
10
3.52559
20
-3.84449
11
3.5222
21
-3.84381
0
LINE
8
BLACK
6
CONTINUOUS
10
3.5222
20
-3.84381
11
3.51933
21
-3.84189
0
LINE
8
BLACK
6
CONTINUOUS
10
3.51933
20
-3.84189
11
3.51741
21
-3.83902
0
LINE
8
BLACK
6
CONTINUOUS
10
3.51741
20
-3.83902
11
3.51673
21
-3.83563
0
LINE
8
BLACK
6
CONTINUOUS
10
3.51673
20
-3.83563
11
3.51673
21
-3.81791
0
LINE
8
BLACK
6
CONTINUOUS
10
3.51673
20
-3.81791
11
3.51741
21
-3.81452
0
LINE
8
BLACK
6
CONTINUOUS
10
3.51741
20
-3.81452
11
3.51933
21
-3.81165
0
LINE
8
BLACK
6
CONTINUOUS
10
3.51933
20
-3.81165
11
3.5222
21
-3.80973
0
LINE
8
BLACK
6
CONTINUOUS
10
3.5222
20
-3.80973
11
3.52559
21
-3.80906
0
LINE
8
BLACK
6
CONTINUOUS
10
3.52559
20
-3.80906
11
3.54528
21
-3.80906
0
LINE
8
BLACK
6
CONTINUOUS
10
3.54528
20
-3.80906
11
3.54867
21
-3.80973
0
LINE
8
BLACK
6
CONTINUOUS
10
3.61227
20
-3.75633
11
3.61482
21
-3.75804
0
LINE
8
BLACK
6
CONTINUOUS
10
3.61482
20
-3.75804
11
3.61653
21
-3.76059
0
LINE
8
BLACK
6
CONTINUOUS
10
3.61653
20
-3.76059
11
3.61713
21
-3.76361
0
LINE
8
BLACK
6
CONTINUOUS
10
3.61713
20
-3.76361
11
3.61713
21
-3.77935
0
LINE
8
BLACK
6
CONTINUOUS
10
3.61713
20
-3.77935
11
3.61653
21
-3.78237
0
LINE
8
BLACK
6
CONTINUOUS
10
3.61653
20
-3.78237
11
3.61482
21
-3.78492
0
LINE
8
BLACK
6
CONTINUOUS
10
3.61482
20
-3.78492
11
3.61227
21
-3.78663
0
LINE
8
BLACK
6
CONTINUOUS
10
3.61227
20
-3.78663
11
3.60925
21
-3.78723
0
LINE
8
BLACK
6
CONTINUOUS
10
3.60925
20
-3.78723
11
3.5876
21
-3.78723
0
LINE
8
BLACK
6
CONTINUOUS
10
3.5876
20
-3.78723
11
3.58459
21
-3.78663
0
LINE
8
BLACK
6
CONTINUOUS
10
3.58459
20
-3.78663
11
3.58203
21
-3.78492
0
LINE
8
BLACK
6
CONTINUOUS
10
3.58203
20
-3.78492
11
3.58032
21
-3.78237
0
LINE
8
BLACK
6
CONTINUOUS
10
3.58032
20
-3.78237
11
3.57972
21
-3.77935
0
LINE
8
BLACK
6
CONTINUOUS
10
3.57972
20
-3.77935
11
3.57972
21
-3.76361
0
LINE
8
BLACK
6
CONTINUOUS
10
3.57972
20
-3.76361
11
3.58032
21
-3.76059
0
LINE
8
BLACK
6
CONTINUOUS
10
3.58032
20
-3.76059
11
3.58203
21
-3.75804
0
LINE
8
BLACK
6
CONTINUOUS
10
3.58203
20
-3.75804
11
3.58459
21
-3.75633
0
LINE
8
BLACK
6
CONTINUOUS
10
3.58459
20
-3.75633
11
3.5876
21
-3.75573
0
LINE
8
BLACK
6
CONTINUOUS
10
3.5876
20
-3.75573
11
3.60925
21
-3.75573
0
LINE
8
BLACK
6
CONTINUOUS
10
3.60925
20
-3.75573
11
3.61227
21
-3.75633
0
LINE
8
BLACK
6
CONTINUOUS
10
3.67919
20
-3.75633
11
3.68175
21
-3.75804
0
LINE
8
BLACK
6
CONTINUOUS
10
3.68175
20
-3.75804
11
3.68346
21
-3.76059
0
LINE
8
BLACK
6
CONTINUOUS
10
3.68346
20
-3.76059
11
3.68406
21
-3.76361
0
LINE
8
BLACK
6
CONTINUOUS
10
3.68406
20
-3.76361
11
3.68406
21
-3.77935
0
LINE
8
BLACK
6
CONTINUOUS
10
3.68406
20
-3.77935
11
3.68346
21
-3.78237
0
LINE
8
BLACK
6
CONTINUOUS
10
3.68346
20
-3.78237
11
3.68175
21
-3.78492
0
LINE
8
BLACK
6
CONTINUOUS
10
3.68175
20
-3.78492
11
3.67919
21
-3.78663
0
LINE
8
BLACK
6
CONTINUOUS
10
3.67919
20
-3.78663
11
3.67618
21
-3.78723
0
LINE
8
BLACK
6
CONTINUOUS
10
3.67618
20
-3.78723
11
3.65453
21
-3.78723
0
LINE
8
BLACK
6
CONTINUOUS
10
3.65453
20
-3.78723
11
3.65151
21
-3.78663
0
LINE
8
BLACK
6
CONTINUOUS
10
3.65151
20
-3.78663
11
3.64896
21
-3.78492
0
LINE
8
BLACK
6
CONTINUOUS
10
3.64896
20
-3.78492
11
3.64725
21
-3.78237
0
LINE
8
BLACK
6
CONTINUOUS
10
3.64725
20
-3.78237
11
3.64665
21
-3.77935
0
LINE
8
BLACK
6
CONTINUOUS
10
3.64665
20
-3.77935
11
3.64665
21
-3.76361
0
LINE
8
BLACK
6
CONTINUOUS
10
3.64665
20
-3.76361
11
3.64725
21
-3.76059
0
LINE
8
BLACK
6
CONTINUOUS
10
3.64725
20
-3.76059
11
3.64896
21
-3.75804
0
LINE
8
BLACK
6
CONTINUOUS
10
3.64896
20
-3.75804
11
3.65151
21
-3.75633
0
LINE
8
BLACK
6
CONTINUOUS
10
3.65151
20
-3.75633
11
3.65453
21
-3.75573
0
LINE
8
BLACK
6
CONTINUOUS
10
3.65453
20
-3.75573
11
3.67618
21
-3.75573
0
LINE
8
BLACK
6
CONTINUOUS
10
3.67618
20
-3.75573
11
3.67919
21
-3.75633
0
LINE
8
BLACK
6
CONTINUOUS
10
3.754
20
-3.75626
11
3.75655
21
-3.75797
0
LINE
8
BLACK
6
CONTINUOUS
10
3.75655
20
-3.75797
11
3.75826
21
-3.76052
0
LINE
8
BLACK
6
CONTINUOUS
10
3.75826
20
-3.76052
11
3.75886
21
-3.76353
0
LINE
8
BLACK
6
CONTINUOUS
10
3.75886
20
-3.76353
11
3.75886
21
-3.77928
0
LINE
8
BLACK
6
CONTINUOUS
10
3.75886
20
-3.77928
11
3.75826
21
-3.7823
0
LINE
8
BLACK
6
CONTINUOUS
10
3.75826
20
-3.7823
11
3.75655
21
-3.78485
0
LINE
8
BLACK
6
CONTINUOUS
10
3.75655
20
-3.78485
11
3.754
21
-3.78656
0
LINE
8
BLACK
6
CONTINUOUS
10
3.754
20
-3.78656
11
3.75098
21
-3.78716
0
LINE
8
BLACK
6
CONTINUOUS
10
3.75098
20
-3.78716
11
3.72933
21
-3.78716
0
LINE
8
BLACK
6
CONTINUOUS
10
3.72933
20
-3.78716
11
3.72632
21
-3.78656
0
LINE
8
BLACK
6
CONTINUOUS
10
3.72632
20
-3.78656
11
3.72376
21
-3.78485
0
LINE
8
BLACK
6
CONTINUOUS
10
3.72376
20
-3.78485
11
3.72206
21
-3.7823
0
LINE
8
BLACK
6
CONTINUOUS
10
3.72206
20
-3.7823
11
3.72146
21
-3.77928
0
LINE
8
BLACK
6
CONTINUOUS
10
3.72146
20
-3.77928
11
3.72146
21
-3.76353
0
LINE
8
BLACK
6
CONTINUOUS
10
3.72146
20
-3.76353
11
3.72206
21
-3.76052
0
LINE
8
BLACK
6
CONTINUOUS
10
3.72206
20
-3.76052
11
3.72376
21
-3.75797
0
LINE
8
BLACK
6
CONTINUOUS
10
3.72376
20
-3.75797
11
3.72632
21
-3.75626
0
LINE
8
BLACK
6
CONTINUOUS
10
3.72632
20
-3.75626
11
3.72933
21
-3.75566
0
LINE
8
BLACK
6
CONTINUOUS
10
3.72933
20
-3.75566
11
3.75098
21
-3.75566
0
LINE
8
BLACK
6
CONTINUOUS
10
3.75098
20
-3.75566
11
3.754
21
-3.75626
0
LINE
8
BLACK
6
CONTINUOUS
10
3.54867
20
-3.74871
11
3.55154
21
-3.75063
0
LINE
8
BLACK
6
CONTINUOUS
10
3.55154
20
-3.75063
11
3.55346
21
-3.7535
0
LINE
8
BLACK
6
CONTINUOUS
10
3.55346
20
-3.7535
11
3.55413
21
-3.75689
0
LINE
8
BLACK
6
CONTINUOUS
10
3.55413
20
-3.75689
11
3.55413
21
-3.77461
0
LINE
8
BLACK
6
CONTINUOUS
10
3.55413
20
-3.77461
11
3.55346
21
-3.778
0
LINE
8
BLACK
6
CONTINUOUS
10
3.55346
20
-3.778
11
3.55154
21
-3.78087
0
LINE
8
BLACK
6
CONTINUOUS
10
3.55154
20
-3.78087
11
3.54867
21
-3.78279
0
LINE
8
BLACK
6
CONTINUOUS
10
3.54867
20
-3.78279
11
3.54528
21
-3.78346
0
LINE
8
BLACK
6
CONTINUOUS
10
3.54528
20
-3.78346
11
3.52559
21
-3.78346
0
LINE
8
BLACK
6
CONTINUOUS
10
3.52559
20
-3.78346
11
3.5222
21
-3.78279
0
LINE
8
BLACK
6
CONTINUOUS
10
3.5222
20
-3.78279
11
3.51933
21
-3.78087
0
LINE
8
BLACK
6
CONTINUOUS
10
3.51933
20
-3.78087
11
3.51741
21
-3.778
0
LINE
8
BLACK
6
CONTINUOUS
10
3.51741
20
-3.778
11
3.51673
21
-3.77461
0
LINE
8
BLACK
6
CONTINUOUS
10
3.51673
20
-3.77461
11
3.51673
21
-3.75689
0
LINE
8
BLACK
6
CONTINUOUS
10
3.51673
20
-3.75689
11
3.51741
21
-3.7535
0
LINE
8
BLACK
6
CONTINUOUS
10
3.51741
20
-3.7535
11
3.51933
21
-3.75063
0
LINE
8
BLACK
6
CONTINUOUS
10
3.51933
20
-3.75063
11
3.5222
21
-3.74871
0
LINE
8
BLACK
6
CONTINUOUS
10
3.5222
20
-3.74871
11
3.52559
21
-3.74803
0
LINE
8
BLACK
6
CONTINUOUS
10
3.52559
20
-3.74803
11
3.54528
21
-3.74803
0
LINE
8
BLACK
6
CONTINUOUS
10
3.54528
20
-3.74803
11
3.54867
21
-3.74871
0
LINE
8
BLACK
6
CONTINUOUS
10
3.54904
20
-3.68284
11
3.55224
21
-3.68497
0
LINE
8
BLACK
6
CONTINUOUS
10
3.55224
20
-3.68497
11
3.55437
21
-3.68816
0
LINE
8
BLACK
6
CONTINUOUS
10
3.55437
20
-3.68816
11
3.55512
21
-3.69193
0
LINE
8
BLACK
6
CONTINUOUS
10
3.55512
20
-3.69193
11
3.55512
21
-3.71752
0
LINE
8
BLACK
6
CONTINUOUS
10
3.55512
20
-3.71752
11
3.55437
21
-3.72129
0
LINE
8
BLACK
6
CONTINUOUS
10
3.55437
20
-3.72129
11
3.55224
21
-3.72448
0
LINE
8
BLACK
6
CONTINUOUS
10
3.55224
20
-3.72448
11
3.54904
21
-3.72661
0
LINE
8
BLACK
6
CONTINUOUS
10
3.54904
20
-3.72661
11
3.54528
21
-3.72736
0
LINE
8
BLACK
6
CONTINUOUS
10
3.54528
20
-3.72736
11
3.50984
21
-3.72736
0
LINE
8
BLACK
6
CONTINUOUS
10
3.50984
20
-3.72736
11
3.50608
21
-3.72661
0
LINE
8
BLACK
6
CONTINUOUS
10
3.50608
20
-3.72661
11
3.50288
21
-3.72448
0
LINE
8
BLACK
6
CONTINUOUS
10
3.50288
20
-3.72448
11
3.50075
21
-3.72129
0
LINE
8
BLACK
6
CONTINUOUS
10
3.50075
20
-3.72129
11
3.5
21
-3.71752
0
LINE
8
BLACK
6
CONTINUOUS
10
3.5
20
-3.71752
11
3.5
21
-3.69193
0
LINE
8
BLACK
6
CONTINUOUS
10
3.5
20
-3.69193
11
3.50075
21
-3.68816
0
LINE
8
BLACK
6
CONTINUOUS
10
3.50075
20
-3.68816
11
3.50288
21
-3.68497
0
LINE
8
BLACK
6
CONTINUOUS
10
3.50288
20
-3.68497
11
3.50608
21
-3.68284
0
LINE
8
BLACK
6
CONTINUOUS
10
3.50608
20
-3.68284
11
3.50984
21
-3.68209
0
LINE
8
BLACK
6
CONTINUOUS
10
3.50984
20
-3.68209
11
3.54528
21
-3.68209
0
LINE
8
BLACK
6
CONTINUOUS
10
3.54528
20
-3.68209
11
3.54904
21
-3.68284
0
LINE
8
BLACK
6
CONTINUOUS
10
3.67919
20
-3.69137
11
3.68175
21
-3.69308
0
LINE
8
BLACK
6
CONTINUOUS
10
3.68175
20
-3.69308
11
3.68346
21
-3.69563
0
LINE
8
BLACK
6
CONTINUOUS
10
3.68346
20
-3.69563
11
3.68406
21
-3.69865
0
LINE
8
BLACK
6
CONTINUOUS
10
3.68406
20
-3.69865
11
3.68406
21
-3.71439
0
LINE
8
BLACK
6
CONTINUOUS
10
3.68406
20
-3.71439
11
3.68346
21
-3.71741
0
LINE
8
BLACK
6
CONTINUOUS
10
3.68346
20
-3.71741
11
3.68175
21
-3.71996
0
LINE
8
BLACK
6
CONTINUOUS
10
3.68175
20
-3.71996
11
3.67919
21
-3.72167
0
LINE
8
BLACK
6
CONTINUOUS
10
3.67919
20
-3.72167
11
3.67618
21
-3.72227
0
LINE
8
BLACK
6
CONTINUOUS
10
3.67618
20
-3.72227
11
3.65453
21
-3.72227
0
LINE
8
BLACK
6
CONTINUOUS
10
3.65453
20
-3.72227
11
3.65151
21
-3.72167
0
LINE
8
BLACK
6
CONTINUOUS
10
3.65151
20
-3.72167
11
3.64896
21
-3.71996
0
LINE
8
BLACK
6
CONTINUOUS
10
3.64896
20
-3.71996
11
3.64725
21
-3.71741
0
LINE
8
BLACK
6
CONTINUOUS
10
3.64725
20
-3.71741
11
3.64665
21
-3.71439
0
LINE
8
BLACK
6
CONTINUOUS
10
3.64665
20
-3.71439
11
3.64665
21
-3.69865
0
LINE
8
BLACK
6
CONTINUOUS
10
3.64665
20
-3.69865
11
3.64725
21
-3.69563
0
LINE
8
BLACK
6
CONTINUOUS
10
3.64725
20
-3.69563
11
3.64896
21
-3.69308
0
LINE
8
BLACK
6
CONTINUOUS
10
3.64896
20
-3.69308
11
3.65151
21
-3.69137
0
LINE
8
BLACK
6
CONTINUOUS
10
3.65151
20
-3.69137
11
3.65453
21
-3.69077
0
LINE
8
BLACK
6
CONTINUOUS
10
3.65453
20
-3.69077
11
3.67618
21
-3.69077
0
LINE
8
BLACK
6
CONTINUOUS
10
3.67618
20
-3.69077
11
3.67919
21
-3.69137
0
LINE
8
BLACK
6
CONTINUOUS
10
3.61227
20
-3.69137
11
3.61482
21
-3.69308
0
LINE
8
BLACK
6
CONTINUOUS
10
3.61482
20
-3.69308
11
3.61653
21
-3.69563
0
LINE
8
BLACK
6
CONTINUOUS
10
3.61653
20
-3.69563
11
3.61713
21
-3.69865
0
LINE
8
BLACK
6
CONTINUOUS
10
3.61713
20
-3.69865
11
3.61713
21
-3.71439
0
LINE
8
BLACK
6
CONTINUOUS
10
3.61713
20
-3.71439
11
3.61653
21
-3.71741
0
LINE
8
BLACK
6
CONTINUOUS
10
3.61653
20
-3.71741
11
3.61482
21
-3.71996
0
LINE
8
BLACK
6
CONTINUOUS
10
3.61482
20
-3.71996
11
3.61227
21
-3.72167
0
LINE
8
BLACK
6
CONTINUOUS
10
3.61227
20
-3.72167
11
3.60925
21
-3.72227
0
LINE
8
BLACK
6
CONTINUOUS
10
3.60925
20
-3.72227
11
3.5876
21
-3.72227
0
LINE
8
BLACK
6
CONTINUOUS
10
3.5876
20
-3.72227
11
3.58459
21
-3.72167
0
LINE
8
BLACK
6
CONTINUOUS
10
3.58459
20
-3.72167
11
3.58203
21
-3.71996
0
LINE
8
BLACK
6
CONTINUOUS
10
3.58203
20
-3.71996
11
3.58032
21
-3.71741
0
LINE
8
BLACK
6
CONTINUOUS
10
3.58032
20
-3.71741
11
3.57972
21
-3.71439
0
LINE
8
BLACK
6
CONTINUOUS
10
3.57972
20
-3.71439
11
3.57972
21
-3.69865
0
LINE
8
BLACK
6
CONTINUOUS
10
3.57972
20
-3.69865
11
3.58032
21
-3.69563
0
LINE
8
BLACK
6
CONTINUOUS
10
3.58032
20
-3.69563
11
3.58203
21
-3.69308
0
LINE
8
BLACK
6
CONTINUOUS
10
3.58203
20
-3.69308
11
3.58459
21
-3.69137
0
LINE
8
BLACK
6
CONTINUOUS
10
3.58459
20
-3.69137
11
3.5876
21
-3.69077
0
LINE
8
BLACK
6
CONTINUOUS
10
3.5876
20
-3.69077
11
3.60925
21
-3.69077
0
LINE
8
BLACK
6
CONTINUOUS
10
3.60925
20
-3.69077
11
3.61227
21
-3.69137
0
LINE
8
BLACK
6
CONTINUOUS
10
3.754
20
-3.6913
11
3.75655
21
-3.69301
0
LINE
8
BLACK
6
CONTINUOUS
10
3.75655
20
-3.69301
11
3.75826
21
-3.69556
0
LINE
8
BLACK
6
CONTINUOUS
10
3.75826
20
-3.69556
11
3.75886
21
-3.69857
0
LINE
8
BLACK
6
CONTINUOUS
10
3.75886
20
-3.69857
11
3.75886
21
-3.71432
0
LINE
8
BLACK
6
CONTINUOUS
10
3.75886
20
-3.71432
11
3.75826
21
-3.71733
0
LINE
8
BLACK
6
CONTINUOUS
10
3.75826
20
-3.71733
11
3.75655
21
-3.71989
0
LINE
8
BLACK
6
CONTINUOUS
10
3.75655
20
-3.71989
11
3.754
21
-3.7216
0
LINE
8
BLACK
6
CONTINUOUS
10
3.754
20
-3.7216
11
3.75098
21
-3.7222
0
LINE
8
BLACK
6
CONTINUOUS
10
3.75098
20
-3.7222
11
3.72933
21
-3.7222
0
LINE
8
BLACK
6
CONTINUOUS
10
3.72933
20
-3.7222
11
3.72632
21
-3.7216
0
LINE
8
BLACK
6
CONTINUOUS
10
3.72632
20
-3.7216
11
3.72376
21
-3.71989
0
LINE
8
BLACK
6
CONTINUOUS
10
3.72376
20
-3.71989
11
3.72206
21
-3.71733
0
LINE
8
BLACK
6
CONTINUOUS
10
3.72206
20
-3.71733
11
3.72146
21
-3.71432
0
LINE
8
BLACK
6
CONTINUOUS
10
3.72146
20
-3.71432
11
3.72146
21
-3.69857
0
LINE
8
BLACK
6
CONTINUOUS
10
3.72146
20
-3.69857
11
3.72206
21
-3.69556
0
LINE
8
BLACK
6
CONTINUOUS
10
3.72206
20
-3.69556
11
3.72376
21
-3.69301
0
LINE
8
BLACK
6
CONTINUOUS
10
3.72376
20
-3.69301
11
3.72632
21
-3.6913
0
LINE
8
BLACK
6
CONTINUOUS
10
3.72632
20
-3.6913
11
3.72933
21
-3.6907
0
LINE
8
BLACK
6
CONTINUOUS
10
3.72933
20
-3.6907
11
3.75098
21
-3.6907
0
LINE
8
BLACK
6
CONTINUOUS
10
3.75098
20
-3.6907
11
3.754
21
-3.6913
0
LINE
8
BLACK
6
CONTINUOUS
10
3.54904
20
-3.60213
11
3.55224
21
-3.60426
0
LINE
8
BLACK
6
CONTINUOUS
10
3.55224
20
-3.60426
11
3.55437
21
-3.60745
0
LINE
8
BLACK
6
CONTINUOUS
10
3.55437
20
-3.60745
11
3.55512
21
-3.61122
0
LINE
8
BLACK
6
CONTINUOUS
10
3.55512
20
-3.61122
11
3.55512
21
-3.63681
0
LINE
8
BLACK
6
CONTINUOUS
10
3.55512
20
-3.63681
11
3.55437
21
-3.64058
0
LINE
8
BLACK
6
CONTINUOUS
10
3.55437
20
-3.64058
11
3.55224
21
-3.64377
0
LINE
8
BLACK
6
CONTINUOUS
10
3.55224
20
-3.64377
11
3.54904
21
-3.6459
0
LINE
8
BLACK
6
CONTINUOUS
10
3.54904
20
-3.6459
11
3.54528
21
-3.64665
0
LINE
8
BLACK
6
CONTINUOUS
10
3.54528
20
-3.64665
11
3.50984
21
-3.64665
0
LINE
8
BLACK
6
CONTINUOUS
10
3.50984
20
-3.64665
11
3.50608
21
-3.6459
0
LINE
8
BLACK
6
CONTINUOUS
10
3.50608
20
-3.6459
11
3.50288
21
-3.64377
0
LINE
8
BLACK
6
CONTINUOUS
10
3.50288
20
-3.64377
11
3.50075
21
-3.64058
0
LINE
8
BLACK
6
CONTINUOUS
10
3.50075
20
-3.64058
11
3.5
21
-3.63681
0
LINE
8
BLACK
6
CONTINUOUS
10
3.5
20
-3.63681
11
3.5
21
-3.61122
0
LINE
8
BLACK
6
CONTINUOUS
10
3.5
20
-3.61122
11
3.50075
21
-3.60745
0
LINE
8
BLACK
6
CONTINUOUS
10
3.50075
20
-3.60745
11
3.50288
21
-3.60426
0
LINE
8
BLACK
6
CONTINUOUS
10
3.50288
20
-3.60426
11
3.50608
21
-3.60213
0
LINE
8
BLACK
6
CONTINUOUS
10
3.50608
20
-3.60213
11
3.50984
21
-3.60138
0
LINE
8
BLACK
6
CONTINUOUS
10
3.50984
20
-3.60138
11
3.54528
21
-3.60138
0
LINE
8
BLACK
6
CONTINUOUS
10
3.54528
20
-3.60138
11
3.54904
21
-3.60213
0
LINE
8
BLACK
6
CONTINUOUS
10
3.77307
20
-3.61091
11
3.77595
21
-3.61283
0
LINE
8
BLACK
6
CONTINUOUS
10
3.77595
20
-3.61283
11
3.77787
21
-3.6157
0
LINE
8
BLACK
6
CONTINUOUS
10
3.77787
20
-3.6157
11
3.77854
21
-3.61909
0
LINE
8
BLACK
6
CONTINUOUS
10
3.77854
20
-3.61909
11
3.77854
21
-3.63681
0
LINE
8
BLACK
6
CONTINUOUS
10
3.77854
20
-3.63681
11
3.77787
21
-3.6402
0
LINE
8
BLACK
6
CONTINUOUS
10
3.77787
20
-3.6402
11
3.77595
21
-3.64307
0
LINE
8
BLACK
6
CONTINUOUS
10
3.77595
20
-3.64307
11
3.77307
21
-3.64499
0
LINE
8
BLACK
6
CONTINUOUS
10
3.77307
20
-3.64499
11
3.76969
21
-3.64567
0
LINE
8
BLACK
6
CONTINUOUS
10
3.76969
20
-3.64567
11
3.75
21
-3.64567
0
LINE
8
BLACK
6
CONTINUOUS
10
3.75
20
-3.64567
11
3.74661
21
-3.64499
0
LINE
8
BLACK
6
CONTINUOUS
10
3.74661
20
-3.64499
11
3.74374
21
-3.64307
0
LINE
8
BLACK
6
CONTINUOUS
10
3.74374
20
-3.64307
11
3.74182
21
-3.6402
0
LINE
8
BLACK
6
CONTINUOUS
10
3.74182
20
-3.6402
11
3.74114
21
-3.63681
0
LINE
8
BLACK
6
CONTINUOUS
10
3.74114
20
-3.63681
11
3.74114
21
-3.61909
0
LINE
8
BLACK
6
CONTINUOUS
10
3.74114
20
-3.61909
11
3.74182
21
-3.6157
0
LINE
8
BLACK
6
CONTINUOUS
10
3.74182
20
-3.6157
11
3.74374
21
-3.61283
0
LINE
8
BLACK
6
CONTINUOUS
10
3.74374
20
-3.61283
11
3.74661
21
-3.61091
0
LINE
8
BLACK
6
CONTINUOUS
10
3.74661
20
-3.61091
11
3.75
21
-3.61024
0
LINE
8
BLACK
6
CONTINUOUS
10
3.75
20
-3.61024
11
3.76969
21
-3.61024
0
LINE
8
BLACK
6
CONTINUOUS
10
3.76969
20
-3.61024
11
3.77307
21
-3.61091
0
LINE
8
BLACK
6
CONTINUOUS
10
3.77307
20
-3.54989
11
3.77595
21
-3.55181
0
LINE
8
BLACK
6
CONTINUOUS
10
3.77595
20
-3.55181
11
3.77787
21
-3.55468
0
LINE
8
BLACK
6
CONTINUOUS
10
3.77787
20
-3.55468
11
3.77854
21
-3.55807
0
LINE
8
BLACK
6
CONTINUOUS
10
3.77854
20
-3.55807
11
3.77854
21
-3.57579
0
LINE
8
BLACK
6
CONTINUOUS
10
3.77854
20
-3.57579
11
3.77787
21
-3.57918
0
LINE
8
BLACK
6
CONTINUOUS
10
3.77787
20
-3.57918
11
3.77595
21
-3.58205
0
LINE
8
BLACK
6
CONTINUOUS
10
3.77595
20
-3.58205
11
3.77307
21
-3.58397
0
LINE
8
BLACK
6
CONTINUOUS
10
3.77307
20
-3.58397
11
3.76969
21
-3.58465
0
LINE
8
BLACK
6
CONTINUOUS
10
3.76969
20
-3.58465
11
3.75
21
-3.58465
0
LINE
8
BLACK
6
CONTINUOUS
10
3.75
20
-3.58465
11
3.74661
21
-3.58397
0
LINE
8
BLACK
6
CONTINUOUS
10
3.74661
20
-3.58397
11
3.74374
21
-3.58205
0
LINE
8
BLACK
6
CONTINUOUS
10
3.74374
20
-3.58205
11
3.74182
21
-3.57918
0
LINE
8
BLACK
6
CONTINUOUS
10
3.74182
20
-3.57918
11
3.74114
21
-3.57579
0
LINE
8
BLACK
6
CONTINUOUS
10
3.74114
20
-3.57579
11
3.74114
21
-3.55807
0
LINE
8
BLACK
6
CONTINUOUS
10
3.74114
20
-3.55807
11
3.74182
21
-3.55468
0
LINE
8
BLACK
6
CONTINUOUS
10
3.74182
20
-3.55468
11
3.74374
21
-3.55181
0
LINE
8
BLACK
6
CONTINUOUS
10
3.74374
20
-3.55181
11
3.74661
21
-3.54989
0
LINE
8
BLACK
6
CONTINUOUS
10
3.74661
20
-3.54989
11
3.75
21
-3.54921
0
LINE
8
BLACK
6
CONTINUOUS
10
3.75
20
-3.54921
11
3.76969
21
-3.54921
0
LINE
8
BLACK
6
CONTINUOUS
10
3.76969
20
-3.54921
11
3.77307
21
-3.54989
0
LINE
8
BLACK
6
CONTINUOUS
10
3.49416
20
-3.50847
11
3.49671
21
-3.51018
0
LINE
8
BLACK
6
CONTINUOUS
10
3.49671
20
-3.51018
11
3.49842
21
-3.51273
0
LINE
8
BLACK
6
CONTINUOUS
10
3.49842
20
-3.51273
11
3.49902
21
-3.51575
0
LINE
8
BLACK
6
CONTINUOUS
10
3.49902
20
-3.51575
11
3.49902
21
-3.5315
0
LINE
8
BLACK
6
CONTINUOUS
10
3.49902
20
-3.5315
11
3.49842
21
-3.53451
0
LINE
8
BLACK
6
CONTINUOUS
10
3.49842
20
-3.53451
11
3.49671
21
-3.53706
0
LINE
8
BLACK
6
CONTINUOUS
10
3.49671
20
-3.53706
11
3.49416
21
-3.53877
0
LINE
8
BLACK
6
CONTINUOUS
10
3.49416
20
-3.53877
11
3.49114
21
-3.53937
0
LINE
8
BLACK
6
CONTINUOUS
10
3.49114
20
-3.53937
11
3.46949
21
-3.53937
0
LINE
8
BLACK
6
CONTINUOUS
10
3.46949
20
-3.53937
11
3.46647
21
-3.53877
0
LINE
8
BLACK
6
CONTINUOUS
10
3.46647
20
-3.53877
11
3.46392
21
-3.53706
0
LINE
8
BLACK
6
CONTINUOUS
10
3.46392
20
-3.53706
11
3.46221
21
-3.53451
0
LINE
8
BLACK
6
CONTINUOUS
10
3.46221
20
-3.53451
11
3.46161
21
-3.5315
0
LINE
8
BLACK
6
CONTINUOUS
10
3.46161
20
-3.5315
11
3.46161
21
-3.51575
0
LINE
8
BLACK
6
CONTINUOUS
10
3.46161
20
-3.51575
11
3.46221
21
-3.51273
0
LINE
8
BLACK
6
CONTINUOUS
10
3.46221
20
-3.51273
11
3.46392
21
-3.51018
0
LINE
8
BLACK
6
CONTINUOUS
10
3.46392
20
-3.51018
11
3.46647
21
-3.50847
0
LINE
8
BLACK
6
CONTINUOUS
10
3.46647
20
-3.50847
11
3.46949
21
-3.50787
0
LINE
8
BLACK
6
CONTINUOUS
10
3.46949
20
-3.50787
11
3.49114
21
-3.50787
0
LINE
8
BLACK
6
CONTINUOUS
10
3.49114
20
-3.50787
11
3.49416
21
-3.50847
0
LINE
8
BLACK
6
CONTINUOUS
10
3.49416
20
-3.44351
11
3.49671
21
-3.44522
0
LINE
8
BLACK
6
CONTINUOUS
10
3.49671
20
-3.44522
11
3.49842
21
-3.44777
0
LINE
8
BLACK
6
CONTINUOUS
10
3.49842
20
-3.44777
11
3.49902
21
-3.45079
0
LINE
8
BLACK
6
CONTINUOUS
10
3.49902
20
-3.45079
11
3.49902
21
-3.46654
0
LINE
8
BLACK
6
CONTINUOUS
10
3.49902
20
-3.46654
11
3.49842
21
-3.46955
0
LINE
8
BLACK
6
CONTINUOUS
10
3.49842
20
-3.46955
11
3.49671
21
-3.4721
0
LINE
8
BLACK
6
CONTINUOUS
10
3.49671
20
-3.4721
11
3.49416
21
-3.47381
0
LINE
8
BLACK
6
CONTINUOUS
10
3.49416
20
-3.47381
11
3.49114
21
-3.47441
0
LINE
8
BLACK
6
CONTINUOUS
10
3.49114
20
-3.47441
11
3.46949
21
-3.47441
0
LINE
8
BLACK
6
CONTINUOUS
10
3.46949
20
-3.47441
11
3.46647
21
-3.47381
0
LINE
8
BLACK
6
CONTINUOUS
10
3.46647
20
-3.47381
11
3.46392
21
-3.4721
0
LINE
8
BLACK
6
CONTINUOUS
10
3.46392
20
-3.4721
11
3.46221
21
-3.46955
0
LINE
8
BLACK
6
CONTINUOUS
10
3.46221
20
-3.46955
11
3.46161
21
-3.46654
0
LINE
8
BLACK
6
CONTINUOUS
10
3.46161
20
-3.46654
11
3.46161
21
-3.45079
0
LINE
8
BLACK
6
CONTINUOUS
10
3.46161
20
-3.45079
11
3.46221
21
-3.44777
0
LINE
8
BLACK
6
CONTINUOUS
10
3.46221
20
-3.44777
11
3.46392
21
-3.44522
0
LINE
8
BLACK
6
CONTINUOUS
10
3.46392
20
-3.44522
11
3.46647
21
-3.44351
0
LINE
8
BLACK
6
CONTINUOUS
10
3.46647
20
-3.44351
11
3.46949
21
-3.44291
0
LINE
8
BLACK
6
CONTINUOUS
10
3.46949
20
-3.44291
11
3.49114
21
-3.44291
0
LINE
8
BLACK
6
CONTINUOUS
10
3.49114
20
-3.44291
11
3.49416
21
-3.44351
0
LINE
8
BLACK
6
CONTINUOUS
10
3.49416
20
-3.39036
11
3.49671
21
-3.39207
0
LINE
8
BLACK
6
CONTINUOUS
10
3.49671
20
-3.39207
11
3.49842
21
-3.39462
0
LINE
8
BLACK
6
CONTINUOUS
10
3.49842
20
-3.39462
11
3.49902
21
-3.39764
0
LINE
8
BLACK
6
CONTINUOUS
10
3.49902
20
-3.39764
11
3.49902
21
-3.41339
0
LINE
8
BLACK
6
CONTINUOUS
10
3.49902
20
-3.41339
11
3.49842
21
-3.4164
0
LINE
8
BLACK
6
CONTINUOUS
10
3.49842
20
-3.4164
11
3.49671
21
-3.41895
0
LINE
8
BLACK
6
CONTINUOUS
10
3.49671
20
-3.41895
11
3.49416
21
-3.42066
0
LINE
8
BLACK
6
CONTINUOUS
10
3.49416
20
-3.42066
11
3.49114
21
-3.42126
0
LINE
8
BLACK
6
CONTINUOUS
10
3.49114
20
-3.42126
11
3.46949
21
-3.42126
0
LINE
8
BLACK
6
CONTINUOUS
10
3.46949
20
-3.42126
11
3.46647
21
-3.42066
0
LINE
8
BLACK
6
CONTINUOUS
10
3.46647
20
-3.42066
11
3.46392
21
-3.41895
0
LINE
8
BLACK
6
CONTINUOUS
10
3.46392
20
-3.41895
11
3.46221
21
-3.4164
0
LINE
8
BLACK
6
CONTINUOUS
10
3.46221
20
-3.4164
11
3.46161
21
-3.41339
0
LINE
8
BLACK
6
CONTINUOUS
10
3.46161
20
-3.41339
11
3.46161
21
-3.39764
0
LINE
8
BLACK
6
CONTINUOUS
10
3.46161
20
-3.39764
11
3.46221
21
-3.39462
0
LINE
8
BLACK
6
CONTINUOUS
10
3.46221
20
-3.39462
11
3.46392
21
-3.39207
0
LINE
8
BLACK
6
CONTINUOUS
10
3.46392
20
-3.39207
11
3.46647
21
-3.39036
0
LINE
8
BLACK
6
CONTINUOUS
10
3.46647
20
-3.39036
11
3.46949
21
-3.38976
0
LINE
8
BLACK
6
CONTINUOUS
10
3.46949
20
-3.38976
11
3.49114
21
-3.38976
0
LINE
8
BLACK
6
CONTINUOUS
10
3.49114
20
-3.38976
11
3.49416
21
-3.39036
0
LINE
8
BLACK
6
CONTINUOUS
10
3.49416
20
-3.3254
11
3.49671
21
-3.32711
0
LINE
8
BLACK
6
CONTINUOUS
10
3.49671
20
-3.32711
11
3.49842
21
-3.32966
0
LINE
8
BLACK
6
CONTINUOUS
10
3.49842
20
-3.32966
11
3.49902
21
-3.33268
0
LINE
8
BLACK
6
CONTINUOUS
10
3.49902
20
-3.33268
11
3.49902
21
-3.34843
0
LINE
8
BLACK
6
CONTINUOUS
10
3.49902
20
-3.34843
11
3.49842
21
-3.35144
0
LINE
8
BLACK
6
CONTINUOUS
10
3.49842
20
-3.35144
11
3.49671
21
-3.35399
0
LINE
8
BLACK
6
CONTINUOUS
10
3.49671
20
-3.35399
11
3.49416
21
-3.3557
0
LINE
8
BLACK
6
CONTINUOUS
10
3.49416
20
-3.3557
11
3.49114
21
-3.3563
0
LINE
8
BLACK
6
CONTINUOUS
10
3.49114
20
-3.3563
11
3.46949
21
-3.3563
0
LINE
8
BLACK
6
CONTINUOUS
10
3.46949
20
-3.3563
11
3.46647
21
-3.3557
0
LINE
8
BLACK
6
CONTINUOUS
10
3.46647
20
-3.3557
11
3.46392
21
-3.35399
0
LINE
8
BLACK
6
CONTINUOUS
10
3.46392
20
-3.35399
11
3.46221
21
-3.35144
0
LINE
8
BLACK
6
CONTINUOUS
10
3.46221
20
-3.35144
11
3.46161
21
-3.34843
0
LINE
8
BLACK
6
CONTINUOUS
10
3.46161
20
-3.34843
11
3.46161
21
-3.33268
0
LINE
8
BLACK
6
CONTINUOUS
10
3.46161
20
-3.33268
11
3.46221
21
-3.32966
0
LINE
8
BLACK
6
CONTINUOUS
10
3.46221
20
-3.32966
11
3.46392
21
-3.32711
0
LINE
8
BLACK
6
CONTINUOUS
10
3.46392
20
-3.32711
11
3.46647
21
-3.3254
0
LINE
8
BLACK
6
CONTINUOUS
10
3.46647
20
-3.3254
11
3.46949
21
-3.3248
0
LINE
8
BLACK
6
CONTINUOUS
10
3.46949
20
-3.3248
11
3.49114
21
-3.3248
0
LINE
8
BLACK
6
CONTINUOUS
10
3.49114
20
-3.3248
11
3.49416
21
-3.3254
0
LINE
8
BLACK
6
CONTINUOUS
10
3.56424
20
-3.13793
11
3.56679
21
-3.13964
0
LINE
8
BLACK
6
CONTINUOUS
10
3.56679
20
-3.13964
11
3.5685
21
-3.14219
0
LINE
8
BLACK
6
CONTINUOUS
10
3.5685
20
-3.14219
11
3.5691
21
-3.14521
0
LINE
8
BLACK
6
CONTINUOUS
10
3.5691
20
-3.14521
11
3.5691
21
-3.16095
0
LINE
8
BLACK
6
CONTINUOUS
10
3.5691
20
-3.16095
11
3.5685
21
-3.16397
0
LINE
8
BLACK
6
CONTINUOUS
10
3.5685
20
-3.16397
11
3.56679
21
-3.16652
0
LINE
8
BLACK
6
CONTINUOUS
10
3.56679
20
-3.16652
11
3.56424
21
-3.16823
0
LINE
8
BLACK
6
CONTINUOUS
10
3.56424
20
-3.16823
11
3.56123
21
-3.16883
0
LINE
8
BLACK
6
CONTINUOUS
10
3.56123
20
-3.16883
11
3.53957
21
-3.16883
0
LINE
8
BLACK
6
CONTINUOUS
10
3.53957
20
-3.16883
11
3.53656
21
-3.16823
0
LINE
8
BLACK
6
CONTINUOUS
10
3.53656
20
-3.16823
11
3.53401
21
-3.16652
0
LINE
8
BLACK
6
CONTINUOUS
10
3.53401
20
-3.16652
11
3.5323
21
-3.16397
0
LINE
8
BLACK
6
CONTINUOUS
10
3.5323
20
-3.16397
11
3.5317
21
-3.16095
0
LINE
8
BLACK
6
CONTINUOUS
10
3.5317
20
-3.16095
11
3.5317
21
-3.14521
0
LINE
8
BLACK
6
CONTINUOUS
10
3.5317
20
-3.14521
11
3.5323
21
-3.14219
0
LINE
8
BLACK
6
CONTINUOUS
10
3.5323
20
-3.14219
11
3.53401
21
-3.13964
0
LINE
8
BLACK
6
CONTINUOUS
10
3.53401
20
-3.13964
11
3.53656
21
-3.13793
0
LINE
8
BLACK
6
CONTINUOUS
10
3.53656
20
-3.13793
11
3.53957
21
-3.13733
0
LINE
8
BLACK
6
CONTINUOUS
10
3.53957
20
-3.13733
11
3.56123
21
-3.13733
0
LINE
8
BLACK
6
CONTINUOUS
10
3.56123
20
-3.13733
11
3.56424
21
-3.13793
0
LINE
8
BLACK
6
CONTINUOUS
10
3.56424
20
-3.07297
11
3.56679
21
-3.07468
0
LINE
8
BLACK
6
CONTINUOUS
10
3.56679
20
-3.07468
11
3.5685
21
-3.07723
0
LINE
8
BLACK
6
CONTINUOUS
10
3.5685
20
-3.07723
11
3.5691
21
-3.08025
0
LINE
8
BLACK
6
CONTINUOUS
10
3.5691
20
-3.08025
11
3.5691
21
-3.09599
0
LINE
8
BLACK
6
CONTINUOUS
10
3.5691
20
-3.09599
11
3.5685
21
-3.09901
0
LINE
8
BLACK
6
CONTINUOUS
10
3.5685
20
-3.09901
11
3.56679
21
-3.10156
0
LINE
8
BLACK
6
CONTINUOUS
10
3.56679
20
-3.10156
11
3.56424
21
-3.10327
0
LINE
8
BLACK
6
CONTINUOUS
10
3.56424
20
-3.10327
11
3.56123
21
-3.10387
0
LINE
8
BLACK
6
CONTINUOUS
10
3.56123
20
-3.10387
11
3.53957
21
-3.10387
0
LINE
8
BLACK
6
CONTINUOUS
10
3.53957
20
-3.10387
11
3.53656
21
-3.10327
0
LINE
8
BLACK
6
CONTINUOUS
10
3.53656
20
-3.10327
11
3.53401
21
-3.10156
0
LINE
8
BLACK
6
CONTINUOUS
10
3.53401
20
-3.10156
11
3.5323
21
-3.09901
0
LINE
8
BLACK
6
CONTINUOUS
10
3.5323
20
-3.09901
11
3.5317
21
-3.09599
0
LINE
8
BLACK
6
CONTINUOUS
10
3.5317
20
-3.09599
11
3.5317
21
-3.08025
0
LINE
8
BLACK
6
CONTINUOUS
10
3.5317
20
-3.08025
11
3.5323
21
-3.07723
0
LINE
8
BLACK
6
CONTINUOUS
10
3.5323
20
-3.07723
11
3.53401
21
-3.07468
0
LINE
8
BLACK
6
CONTINUOUS
10
3.53401
20
-3.07468
11
3.53656
21
-3.07297
0
LINE
8
BLACK
6
CONTINUOUS
10
3.53656
20
-3.07297
11
3.53957
21
-3.07237
0
LINE
8
BLACK
6
CONTINUOUS
10
3.53957
20
-3.07237
11
3.56123
21
-3.07237
0
LINE
8
BLACK
6
CONTINUOUS
10
3.56123
20
-3.07237
11
3.56424
21
-3.07297
0
LINE
8
BLACK
6
CONTINUOUS
10
4.25545
20
-3.01148
11
4.17671
21
-3.01148
0
LINE
8
BLACK
6
CONTINUOUS
10
4.17671
20
-3.01148
11
4.17671
21
-2.95242
0
LINE
8
BLACK
6
CONTINUOUS
10
4.17671
20
-2.95242
11
4.25545
21
-2.95242
0
LINE
8
BLACK
6
CONTINUOUS
10
4.25545
20
-2.95242
11
4.25545
21
-3.01148
0
LINE
8
BLACK
6
CONTINUOUS
10
3.75787
20
-3.00443
11
3.67913
21
-3.00443
0
LINE
8
BLACK
6
CONTINUOUS
10
3.67913
20
-3.00443
11
3.67913
21
-2.94537
0
LINE
8
BLACK
6
CONTINUOUS
10
3.67913
20
-2.94537
11
3.75787
21
-2.94537
0
LINE
8
BLACK
6
CONTINUOUS
10
3.75787
20
-2.94537
11
3.75787
21
-3.00443
0
LINE
8
BLACK
6
CONTINUOUS
10
4.11847
20
-2.94897
11
4.12166
21
-2.9511
0
LINE
8
BLACK
6
CONTINUOUS
10
4.12166
20
-2.9511
11
4.12379
21
-2.95429
0
LINE
8
BLACK
6
CONTINUOUS
10
4.12379
20
-2.95429
11
4.12454
21
-2.95806
0
LINE
8
BLACK
6
CONTINUOUS
10
4.12454
20
-2.95806
11
4.12454
21
-2.97774
0
LINE
8
BLACK
6
CONTINUOUS
10
4.12454
20
-2.97774
11
4.12379
21
-2.98151
0
LINE
8
BLACK
6
CONTINUOUS
10
4.12379
20
-2.98151
11
4.12166
21
-2.9847
0
LINE
8
BLACK
6
CONTINUOUS
10
4.12166
20
-2.9847
11
4.11847
21
-2.98684
0
LINE
8
BLACK
6
CONTINUOUS
10
4.11847
20
-2.98684
11
4.1147
21
-2.98759
0
LINE
8
BLACK
6
CONTINUOUS
10
4.1147
20
-2.98759
11
4.0773
21
-2.98759
0
LINE
8
BLACK
6
CONTINUOUS
10
4.0773
20
-2.98759
11
4.07353
21
-2.98684
0
LINE
8
BLACK
6
CONTINUOUS
10
4.07353
20
-2.98684
11
4.07034
21
-2.9847
0
LINE
8
BLACK
6
CONTINUOUS
10
4.07034
20
-2.9847
11
4.06821
21
-2.98151
0
LINE
8
BLACK
6
CONTINUOUS
10
4.06821
20
-2.98151
11
4.06746
21
-2.97774
0
LINE
8
BLACK
6
CONTINUOUS
10
4.06746
20
-2.97774
11
4.06746
21
-2.95806
0
LINE
8
BLACK
6
CONTINUOUS
10
4.06746
20
-2.95806
11
4.06821
21
-2.95429
0
LINE
8
BLACK
6
CONTINUOUS
10
4.06821
20
-2.95429
11
4.07034
21
-2.9511
0
LINE
8
BLACK
6
CONTINUOUS
10
4.07034
20
-2.9511
11
4.07353
21
-2.94897
0
LINE
8
BLACK
6
CONTINUOUS
10
4.07353
20
-2.94897
11
4.0773
21
-2.94822
0
LINE
8
BLACK
6
CONTINUOUS
10
4.0773
20
-2.94822
11
4.1147
21
-2.94822
0
LINE
8
BLACK
6
CONTINUOUS
10
4.1147
20
-2.94822
11
4.11847
21
-2.94897
0
LINE
8
BLACK
6
CONTINUOUS
10
3.57759
20
-2.94297
11
3.58078
21
-2.9451
0
LINE
8
BLACK
6
CONTINUOUS
10
3.58078
20
-2.9451
11
3.58291
21
-2.94829
0
LINE
8
BLACK
6
CONTINUOUS
10
3.58291
20
-2.94829
11
3.58366
21
-2.95206
0
LINE
8
BLACK
6
CONTINUOUS
10
3.58366
20
-2.95206
11
3.58366
21
-2.97174
0
LINE
8
BLACK
6
CONTINUOUS
10
3.58366
20
-2.97174
11
3.58291
21
-2.97551
0
LINE
8
BLACK
6
CONTINUOUS
10
3.58291
20
-2.97551
11
3.58078
21
-2.9787
0
LINE
8
BLACK
6
CONTINUOUS
10
3.58078
20
-2.9787
11
3.57759
21
-2.98084
0
LINE
8
BLACK
6
CONTINUOUS
10
3.57759
20
-2.98084
11
3.57382
21
-2.98159
0
LINE
8
BLACK
6
CONTINUOUS
10
3.57382
20
-2.98159
11
3.53642
21
-2.98159
0
LINE
8
BLACK
6
CONTINUOUS
10
3.53642
20
-2.98159
11
3.53265
21
-2.98084
0
LINE
8
BLACK
6
CONTINUOUS
10
3.53265
20
-2.98084
11
3.52946
21
-2.9787
0
LINE
8
BLACK
6
CONTINUOUS
10
3.52946
20
-2.9787
11
3.52732
21
-2.97551
0
LINE
8
BLACK
6
CONTINUOUS
10
3.52732
20
-2.97551
11
3.52657
21
-2.97174
0
LINE
8
BLACK
6
CONTINUOUS
10
3.52657
20
-2.97174
11
3.52657
21
-2.95206
0
LINE
8
BLACK
6
CONTINUOUS
10
3.52657
20
-2.95206
11
3.52732
21
-2.94829
0
LINE
8
BLACK
6
CONTINUOUS
10
3.52732
20
-2.94829
11
3.52946
21
-2.9451
0
LINE
8
BLACK
6
CONTINUOUS
10
3.52946
20
-2.9451
11
3.53265
21
-2.94297
0
LINE
8
BLACK
6
CONTINUOUS
10
3.53265
20
-2.94297
11
3.53642
21
-2.94222
0
LINE
8
BLACK
6
CONTINUOUS
10
3.53642
20
-2.94222
11
3.57382
21
-2.94222
0
LINE
8
BLACK
6
CONTINUOUS
10
3.57382
20
-2.94222
11
3.57759
21
-2.94297
0
LINE
8
BLACK
6
CONTINUOUS
10
4.50349
20
-2.9662
11
4.42475
21
-2.9662
0
LINE
8
BLACK
6
CONTINUOUS
10
4.42475
20
-2.9662
11
4.42475
21
-2.8166
0
LINE
8
BLACK
6
CONTINUOUS
10
4.42475
20
-2.8166
11
4.50349
21
-2.8166
0
LINE
8
BLACK
6
CONTINUOUS
10
4.50349
20
-2.8166
11
4.50349
21
-2.9662
0
LINE
8
BLACK
6
CONTINUOUS
10
3.64315
20
-2.92747
11
3.64603
21
-2.92939
0
LINE
8
BLACK
6
CONTINUOUS
10
3.64603
20
-2.92939
11
3.64795
21
-2.93226
0
LINE
8
BLACK
6
CONTINUOUS
10
3.64795
20
-2.93226
11
3.64862
21
-2.93565
0
LINE
8
BLACK
6
CONTINUOUS
10
3.64862
20
-2.93565
11
3.64862
21
-2.95337
0
LINE
8
BLACK
6
CONTINUOUS
10
3.64862
20
-2.95337
11
3.64795
21
-2.95676
0
LINE
8
BLACK
6
CONTINUOUS
10
3.64795
20
-2.95676
11
3.64603
21
-2.95963
0
LINE
8
BLACK
6
CONTINUOUS
10
3.64603
20
-2.95963
11
3.64315
21
-2.96155
0
LINE
8
BLACK
6
CONTINUOUS
10
3.64315
20
-2.96155
11
3.63976
21
-2.96223
0
LINE
8
BLACK
6
CONTINUOUS
10
3.63976
20
-2.96223
11
3.62008
21
-2.96223
0
LINE
8
BLACK
6
CONTINUOUS
10
3.62008
20
-2.96223
11
3.61669
21
-2.96155
0
LINE
8
BLACK
6
CONTINUOUS
10
3.61669
20
-2.96155
11
3.61381
21
-2.95963
0
LINE
8
BLACK
6
CONTINUOUS
10
3.61381
20
-2.95963
11
3.61189
21
-2.95676
0
LINE
8
BLACK
6
CONTINUOUS
10
3.61189
20
-2.95676
11
3.61122
21
-2.95337
0
LINE
8
BLACK
6
CONTINUOUS
10
3.61122
20
-2.95337
11
3.61122
21
-2.93565
0
LINE
8
BLACK
6
CONTINUOUS
10
3.61122
20
-2.93565
11
3.61189
21
-2.93226
0
LINE
8
BLACK
6
CONTINUOUS
10
3.61189
20
-2.93226
11
3.61381
21
-2.92939
0
LINE
8
BLACK
6
CONTINUOUS
10
3.61381
20
-2.92939
11
3.61669
21
-2.92747
0
LINE
8
BLACK
6
CONTINUOUS
10
3.61669
20
-2.92747
11
3.62008
21
-2.9268
0
LINE
8
BLACK
6
CONTINUOUS
10
3.62008
20
-2.9268
11
3.63976
21
-2.9268
0
LINE
8
BLACK
6
CONTINUOUS
10
3.63976
20
-2.9268
11
3.64315
21
-2.92747
0
LINE
8
BLACK
6
CONTINUOUS
10
4.00591
20
-2.95915
11
3.92717
21
-2.95915
0
LINE
8
BLACK
6
CONTINUOUS
10
3.92717
20
-2.95915
11
3.92717
21
-2.80955
0
LINE
8
BLACK
6
CONTINUOUS
10
3.92717
20
-2.80955
11
4.00591
21
-2.80955
0
LINE
8
BLACK
6
CONTINUOUS
10
4.00591
20
-2.80955
11
4.00591
21
-2.95915
0
LINE
8
BLACK
6
CONTINUOUS
10
4.25545
20
-2.92093
11
4.17671
21
-2.92093
0
LINE
8
BLACK
6
CONTINUOUS
10
4.17671
20
-2.92093
11
4.17671
21
-2.86187
0
LINE
8
BLACK
6
CONTINUOUS
10
4.17671
20
-2.86187
11
4.25545
21
-2.86187
0
LINE
8
BLACK
6
CONTINUOUS
10
4.25545
20
-2.86187
11
4.25545
21
-2.92093
0
LINE
8
BLACK
6
CONTINUOUS
10
3.75787
20
-2.91388
11
3.67913
21
-2.91388
0
LINE
8
BLACK
6
CONTINUOUS
10
3.67913
20
-2.91388
11
3.67913
21
-2.85482
0
LINE
8
BLACK
6
CONTINUOUS
10
3.67913
20
-2.85482
11
3.75787
21
-2.85482
0
LINE
8
BLACK
6
CONTINUOUS
10
3.75787
20
-2.85482
11
3.75787
21
-2.91388
0
LINE
8
BLACK
6
CONTINUOUS
10
4.11847
20
-2.87416
11
4.12166
21
-2.8763
0
LINE
8
BLACK
6
CONTINUOUS
10
4.12166
20
-2.8763
11
4.12379
21
-2.87949
0
LINE
8
BLACK
6
CONTINUOUS
10
4.12379
20
-2.87949
11
4.12454
21
-2.88326
0
LINE
8
BLACK
6
CONTINUOUS
10
4.12454
20
-2.88326
11
4.12454
21
-2.90294
0
LINE
8
BLACK
6
CONTINUOUS
10
4.12454
20
-2.90294
11
4.12379
21
-2.90671
0
LINE
8
BLACK
6
CONTINUOUS
10
4.12379
20
-2.90671
11
4.12166
21
-2.9099
0
LINE
8
BLACK
6
CONTINUOUS
10
4.12166
20
-2.9099
11
4.11847
21
-2.91203
0
LINE
8
BLACK
6
CONTINUOUS
10
4.11847
20
-2.91203
11
4.1147
21
-2.91278
0
LINE
8
BLACK
6
CONTINUOUS
10
4.1147
20
-2.91278
11
4.0773
21
-2.91278
0
LINE
8
BLACK
6
CONTINUOUS
10
4.0773
20
-2.91278
11
4.07353
21
-2.91203
0
LINE
8
BLACK
6
CONTINUOUS
10
4.07353
20
-2.91203
11
4.07034
21
-2.9099
0
LINE
8
BLACK
6
CONTINUOUS
10
4.07034
20
-2.9099
11
4.06821
21
-2.90671
0
LINE
8
BLACK
6
CONTINUOUS
10
4.06821
20
-2.90671
11
4.06746
21
-2.90294
0
LINE
8
BLACK
6
CONTINUOUS
10
4.06746
20
-2.90294
11
4.06746
21
-2.88326
0
LINE
8
BLACK
6
CONTINUOUS
10
4.06746
20
-2.88326
11
4.06821
21
-2.87949
0
LINE
8
BLACK
6
CONTINUOUS
10
4.06821
20
-2.87949
11
4.07034
21
-2.8763
0
LINE
8
BLACK
6
CONTINUOUS
10
4.07034
20
-2.8763
11
4.07353
21
-2.87416
0
LINE
8
BLACK
6
CONTINUOUS
10
4.07353
20
-2.87416
11
4.0773
21
-2.87341
0
LINE
8
BLACK
6
CONTINUOUS
10
4.0773
20
-2.87341
11
4.1147
21
-2.87341
0
LINE
8
BLACK
6
CONTINUOUS
10
4.1147
20
-2.87341
11
4.11847
21
-2.87416
0
LINE
8
BLACK
6
CONTINUOUS
10
3.57759
20
-2.86816
11
3.58078
21
-2.8703
0
LINE
8
BLACK
6
CONTINUOUS
10
3.58078
20
-2.8703
11
3.58291
21
-2.87349
0
LINE
8
BLACK
6
CONTINUOUS
10
3.58291
20
-2.87349
11
3.58366
21
-2.87726
0
LINE
8
BLACK
6
CONTINUOUS
10
3.58366
20
-2.87726
11
3.58366
21
-2.89694
0
LINE
8
BLACK
6
CONTINUOUS
10
3.58366
20
-2.89694
11
3.58291
21
-2.90071
0
LINE
8
BLACK
6
CONTINUOUS
10
3.58291
20
-2.90071
11
3.58078
21
-2.9039
0
LINE
8
BLACK
6
CONTINUOUS
10
3.58078
20
-2.9039
11
3.57759
21
-2.90603
0
LINE
8
BLACK
6
CONTINUOUS
10
3.57759
20
-2.90603
11
3.57382
21
-2.90678
0
LINE
8
BLACK
6
CONTINUOUS
10
3.57382
20
-2.90678
11
3.53642
21
-2.90678
0
LINE
8
BLACK
6
CONTINUOUS
10
3.53642
20
-2.90678
11
3.53265
21
-2.90603
0
LINE
8
BLACK
6
CONTINUOUS
10
3.53265
20
-2.90603
11
3.52946
21
-2.9039
0
LINE
8
BLACK
6
CONTINUOUS
10
3.52946
20
-2.9039
11
3.52732
21
-2.90071
0
LINE
8
BLACK
6
CONTINUOUS
10
3.52732
20
-2.90071
11
3.52657
21
-2.89694
0
LINE
8
BLACK
6
CONTINUOUS
10
3.52657
20
-2.89694
11
3.52657
21
-2.87726
0
LINE
8
BLACK
6
CONTINUOUS
10
3.52657
20
-2.87726
11
3.52732
21
-2.87349
0
LINE
8
BLACK
6
CONTINUOUS
10
3.52732
20
-2.87349
11
3.52946
21
-2.8703
0
LINE
8
BLACK
6
CONTINUOUS
10
3.52946
20
-2.8703
11
3.53265
21
-2.86816
0
LINE
8
BLACK
6
CONTINUOUS
10
3.53265
20
-2.86816
11
3.53642
21
-2.86741
0
LINE
8
BLACK
6
CONTINUOUS
10
3.53642
20
-2.86741
11
3.57382
21
-2.86741
0
LINE
8
BLACK
6
CONTINUOUS
10
3.57382
20
-2.86741
11
3.57759
21
-2.86816
0
LINE
8
BLACK
6
CONTINUOUS
10
3.64315
20
-2.86645
11
3.64603
21
-2.86837
0
LINE
8
BLACK
6
CONTINUOUS
10
3.64603
20
-2.86837
11
3.64795
21
-2.87124
0
LINE
8
BLACK
6
CONTINUOUS
10
3.64795
20
-2.87124
11
3.64862
21
-2.87463
0
LINE
8
BLACK
6
CONTINUOUS
10
3.64862
20
-2.87463
11
3.64862
21
-2.89235
0
LINE
8
BLACK
6
CONTINUOUS
10
3.64862
20
-2.89235
11
3.64795
21
-2.89574
0
LINE
8
BLACK
6
CONTINUOUS
10
3.64795
20
-2.89574
11
3.64603
21
-2.89861
0
LINE
8
BLACK
6
CONTINUOUS
10
3.64603
20
-2.89861
11
3.64315
21
-2.90053
0
LINE
8
BLACK
6
CONTINUOUS
10
3.64315
20
-2.90053
11
3.63976
21
-2.9012
0
LINE
8
BLACK
6
CONTINUOUS
10
3.63976
20
-2.9012
11
3.62008
21
-2.9012
0
LINE
8
BLACK
6
CONTINUOUS
10
3.62008
20
-2.9012
11
3.61669
21
-2.90053
0
LINE
8
BLACK
6
CONTINUOUS
10
3.61669
20
-2.90053
11
3.61381
21
-2.89861
0
LINE
8
BLACK
6
CONTINUOUS
10
3.61381
20
-2.89861
11
3.61189
21
-2.89574
0
LINE
8
BLACK
6
CONTINUOUS
10
3.61189
20
-2.89574
11
3.61122
21
-2.89235
0
LINE
8
BLACK
6
CONTINUOUS
10
3.61122
20
-2.89235
11
3.61122
21
-2.87463
0
LINE
8
BLACK
6
CONTINUOUS
10
3.61122
20
-2.87463
11
3.61189
21
-2.87124
0
LINE
8
BLACK
6
CONTINUOUS
10
3.61189
20
-2.87124
11
3.61381
21
-2.86837
0
LINE
8
BLACK
6
CONTINUOUS
10
3.61381
20
-2.86837
11
3.61669
21
-2.86645
0
LINE
8
BLACK
6
CONTINUOUS
10
3.61669
20
-2.86645
11
3.62008
21
-2.86577
0
LINE
8
BLACK
6
CONTINUOUS
10
3.62008
20
-2.86577
11
3.63976
21
-2.86577
0
LINE
8
BLACK
6
CONTINUOUS
10
3.63976
20
-2.86577
11
3.64315
21
-2.86645
0
LINE
8
BLACK
6
CONTINUOUS
10
4.25545
20
-2.83038
11
4.17671
21
-2.83038
0
LINE
8
BLACK
6
CONTINUOUS
10
4.17671
20
-2.83038
11
4.17671
21
-2.77132
0
LINE
8
BLACK
6
CONTINUOUS
10
4.17671
20
-2.77132
11
4.25545
21
-2.77132
0
LINE
8
BLACK
6
CONTINUOUS
10
4.25545
20
-2.77132
11
4.25545
21
-2.83038
0
LINE
8
BLACK
6
CONTINUOUS
10
4.10923
20
-2.7937
11
4.11211
21
-2.79562
0
LINE
8
BLACK
6
CONTINUOUS
10
4.11211
20
-2.79562
11
4.11403
21
-2.79849
0
LINE
8
BLACK
6
CONTINUOUS
10
4.11403
20
-2.79849
11
4.1147
21
-2.80188
0
LINE
8
BLACK
6
CONTINUOUS
10
4.1147
20
-2.80188
11
4.1147
21
-2.8196
0
LINE
8
BLACK
6
CONTINUOUS
10
4.1147
20
-2.8196
11
4.11403
21
-2.82299
0
LINE
8
BLACK
6
CONTINUOUS
10
4.11403
20
-2.82299
11
4.11211
21
-2.82586
0
LINE
8
BLACK
6
CONTINUOUS
10
4.11211
20
-2.82586
11
4.10923
21
-2.82778
0
LINE
8
BLACK
6
CONTINUOUS
10
4.10923
20
-2.82778
11
4.10584
21
-2.82846
0
LINE
8
BLACK
6
CONTINUOUS
10
4.10584
20
-2.82846
11
4.08616
21
-2.82846
0
LINE
8
BLACK
6
CONTINUOUS
10
4.08616
20
-2.82846
11
4.08277
21
-2.82778
0
LINE
8
BLACK
6
CONTINUOUS
10
4.08277
20
-2.82778
11
4.07989
21
-2.82586
0
LINE
8
BLACK
6
CONTINUOUS
10
4.07989
20
-2.82586
11
4.07797
21
-2.82299
0
LINE
8
BLACK
6
CONTINUOUS
10
4.07797
20
-2.82299
11
4.0773
21
-2.8196
0
LINE
8
BLACK
6
CONTINUOUS
10
4.0773
20
-2.8196
11
4.0773
21
-2.80188
0
LINE
8
BLACK
6
CONTINUOUS
10
4.0773
20
-2.80188
11
4.07797
21
-2.79849
0
LINE
8
BLACK
6
CONTINUOUS
10
4.07797
20
-2.79849
11
4.07989
21
-2.79562
0
LINE
8
BLACK
6
CONTINUOUS
10
4.07989
20
-2.79562
11
4.08277
21
-2.7937
0
LINE
8
BLACK
6
CONTINUOUS
10
4.08277
20
-2.7937
11
4.08616
21
-2.79302
0
LINE
8
BLACK
6
CONTINUOUS
10
4.08616
20
-2.79302
11
4.10584
21
-2.79302
0
LINE
8
BLACK
6
CONTINUOUS
10
4.10584
20
-2.79302
11
4.10923
21
-2.7937
0
LINE
8
BLACK
6
CONTINUOUS
10
3.75787
20
-2.82333
11
3.67913
21
-2.82333
0
LINE
8
BLACK
6
CONTINUOUS
10
3.67913
20
-2.82333
11
3.67913
21
-2.76427
0
LINE
8
BLACK
6
CONTINUOUS
10
3.67913
20
-2.76427
11
3.75787
21
-2.76427
0
LINE
8
BLACK
6
CONTINUOUS
10
3.75787
20
-2.76427
11
3.75787
21
-2.82333
0
LINE
8
BLACK
6
CONTINUOUS
10
3.57774
20
-2.77597
11
3.58061
21
-2.77789
0
LINE
8
BLACK
6
CONTINUOUS
10
3.58061
20
-2.77789
11
3.58253
21
-2.78077
0
LINE
8
BLACK
6
CONTINUOUS
10
3.58253
20
-2.78077
11
3.5832
21
-2.78416
0
LINE
8
BLACK
6
CONTINUOUS
10
3.5832
20
-2.78416
11
3.5832
21
-2.80384
0
LINE
8
BLACK
6
CONTINUOUS
10
3.5832
20
-2.80384
11
3.58253
21
-2.80723
0
LINE
8
BLACK
6
CONTINUOUS
10
3.58253
20
-2.80723
11
3.58061
21
-2.81011
0
LINE
8
BLACK
6
CONTINUOUS
10
3.58061
20
-2.81011
11
3.57774
21
-2.81203
0
LINE
8
BLACK
6
CONTINUOUS
10
3.57774
20
-2.81203
11
3.57435
21
-2.8127
0
LINE
8
BLACK
6
CONTINUOUS
10
3.57435
20
-2.8127
11
3.55663
21
-2.8127
0
LINE
8
BLACK
6
CONTINUOUS
10
3.55663
20
-2.8127
11
3.55324
21
-2.81203
0
LINE
8
BLACK
6
CONTINUOUS
10
3.55324
20
-2.81203
11
3.55037
21
-2.81011
0
LINE
8
BLACK
6
CONTINUOUS
10
3.55037
20
-2.81011
11
3.54845
21
-2.80723
0
LINE
8
BLACK
6
CONTINUOUS
10
3.54845
20
-2.80723
11
3.54777
21
-2.80384
0
LINE
8
BLACK
6
CONTINUOUS
10
3.54777
20
-2.80384
11
3.54777
21
-2.78416
0
LINE
8
BLACK
6
CONTINUOUS
10
3.54777
20
-2.78416
11
3.54845
21
-2.78077
0
LINE
8
BLACK
6
CONTINUOUS
10
3.54845
20
-2.78077
11
3.55037
21
-2.77789
0
LINE
8
BLACK
6
CONTINUOUS
10
3.55037
20
-2.77789
11
3.55324
21
-2.77597
0
LINE
8
BLACK
6
CONTINUOUS
10
3.55324
20
-2.77597
11
3.55663
21
-2.7753
0
LINE
8
BLACK
6
CONTINUOUS
10
3.55663
20
-2.7753
11
3.57435
21
-2.7753
0
LINE
8
BLACK
6
CONTINUOUS
10
3.57435
20
-2.7753
11
3.57774
21
-2.77597
0
LINE
8
BLACK
6
CONTINUOUS
10
3.63876
20
-2.77597
11
3.64163
21
-2.77789
0
LINE
8
BLACK
6
CONTINUOUS
10
3.64163
20
-2.77789
11
3.64355
21
-2.78077
0
LINE
8
BLACK
6
CONTINUOUS
10
3.64355
20
-2.78077
11
3.64423
21
-2.78416
0
LINE
8
BLACK
6
CONTINUOUS
10
3.64423
20
-2.78416
11
3.64423
21
-2.80384
0
LINE
8
BLACK
6
CONTINUOUS
10
3.64423
20
-2.80384
11
3.64355
21
-2.80723
0
LINE
8
BLACK
6
CONTINUOUS
10
3.64355
20
-2.80723
11
3.64163
21
-2.81011
0
LINE
8
BLACK
6
CONTINUOUS
10
3.64163
20
-2.81011
11
3.63876
21
-2.81203
0
LINE
8
BLACK
6
CONTINUOUS
10
3.63876
20
-2.81203
11
3.63537
21
-2.8127
0
LINE
8
BLACK
6
CONTINUOUS
10
3.63537
20
-2.8127
11
3.61765
21
-2.8127
0
LINE
8
BLACK
6
CONTINUOUS
10
3.61765
20
-2.8127
11
3.61426
21
-2.81203
0
LINE
8
BLACK
6
CONTINUOUS
10
3.61426
20
-2.81203
11
3.61139
21
-2.81011
0
LINE
8
BLACK
6
CONTINUOUS
10
3.61139
20
-2.81011
11
3.60947
21
-2.80723
0
LINE
8
BLACK
6
CONTINUOUS
10
3.60947
20
-2.80723
11
3.6088
21
-2.80384
0
LINE
8
BLACK
6
CONTINUOUS
10
3.6088
20
-2.80384
11
3.6088
21
-2.78416
0
LINE
8
BLACK
6
CONTINUOUS
10
3.6088
20
-2.78416
11
3.60947
21
-2.78077
0
LINE
8
BLACK
6
CONTINUOUS
10
3.60947
20
-2.78077
11
3.61139
21
-2.77789
0
LINE
8
BLACK
6
CONTINUOUS
10
3.61139
20
-2.77789
11
3.61426
21
-2.77597
0
LINE
8
BLACK
6
CONTINUOUS
10
3.61426
20
-2.77597
11
3.61765
21
-2.7753
0
LINE
8
BLACK
6
CONTINUOUS
10
3.61765
20
-2.7753
11
3.63537
21
-2.7753
0
LINE
8
BLACK
6
CONTINUOUS
10
3.63537
20
-2.7753
11
3.63876
21
-2.77597
0
LINE
8
BLACK
6
CONTINUOUS
10
4.10923
20
-2.73267
11
4.11211
21
-2.73459
0
LINE
8
BLACK
6
CONTINUOUS
10
4.11211
20
-2.73459
11
4.11403
21
-2.73747
0
LINE
8
BLACK
6
CONTINUOUS
10
4.11403
20
-2.73747
11
4.1147
21
-2.74086
0
LINE
8
BLACK
6
CONTINUOUS
10
4.1147
20
-2.74086
11
4.1147
21
-2.75857
0
LINE
8
BLACK
6
CONTINUOUS
10
4.1147
20
-2.75857
11
4.11403
21
-2.76196
0
LINE
8
BLACK
6
CONTINUOUS
10
4.11403
20
-2.76196
11
4.11211
21
-2.76484
0
LINE
8
BLACK
6
CONTINUOUS
10
4.11211
20
-2.76484
11
4.10923
21
-2.76676
0
LINE
8
BLACK
6
CONTINUOUS
10
4.10923
20
-2.76676
11
4.10584
21
-2.76743
0
LINE
8
BLACK
6
CONTINUOUS
10
4.10584
20
-2.76743
11
4.08616
21
-2.76743
0
LINE
8
BLACK
6
CONTINUOUS
10
4.08616
20
-2.76743
11
4.08277
21
-2.76676
0
LINE
8
BLACK
6
CONTINUOUS
10
4.08277
20
-2.76676
11
4.07989
21
-2.76484
0
LINE
8
BLACK
6
CONTINUOUS
10
4.07989
20
-2.76484
11
4.07797
21
-2.76196
0
LINE
8
BLACK
6
CONTINUOUS
10
4.07797
20
-2.76196
11
4.0773
21
-2.75857
0
LINE
8
BLACK
6
CONTINUOUS
10
4.0773
20
-2.75857
11
4.0773
21
-2.74086
0
LINE
8
BLACK
6
CONTINUOUS
10
4.0773
20
-2.74086
11
4.07797
21
-2.73747
0
LINE
8
BLACK
6
CONTINUOUS
10
4.07797
20
-2.73747
11
4.07989
21
-2.73459
0
LINE
8
BLACK
6
CONTINUOUS
10
4.07989
20
-2.73459
11
4.08277
21
-2.73267
0
LINE
8
BLACK
6
CONTINUOUS
10
4.08277
20
-2.73267
11
4.08616
21
-2.732
0
LINE
8
BLACK
6
CONTINUOUS
10
4.08616
20
-2.732
11
4.10584
21
-2.732
0
LINE
8
BLACK
6
CONTINUOUS
10
4.10584
20
-2.732
11
4.10923
21
-2.73267
0
LINE
8
BLACK
6
CONTINUOUS
10
4.16546
20
-2.69851
11
4.16834
21
-2.70043
0
LINE
8
BLACK
6
CONTINUOUS
10
4.16834
20
-2.70043
11
4.17026
21
-2.7033
0
LINE
8
BLACK
6
CONTINUOUS
10
4.17026
20
-2.7033
11
4.17093
21
-2.70669
0
LINE
8
BLACK
6
CONTINUOUS
10
4.17093
20
-2.70669
11
4.17093
21
-2.72638
0
LINE
8
BLACK
6
CONTINUOUS
10
4.17093
20
-2.72638
11
4.17026
21
-2.72977
0
LINE
8
BLACK
6
CONTINUOUS
10
4.17026
20
-2.72977
11
4.16834
21
-2.73264
0
LINE
8
BLACK
6
CONTINUOUS
10
4.16834
20
-2.73264
11
4.16546
21
-2.73456
0
LINE
8
BLACK
6
CONTINUOUS
10
4.16546
20
-2.73456
11
4.16207
21
-2.73524
0
LINE
8
BLACK
6
CONTINUOUS
10
4.16207
20
-2.73524
11
4.14436
21
-2.73524
0
LINE
8
BLACK
6
CONTINUOUS
10
4.14436
20
-2.73524
11
4.14097
21
-2.73456
0
LINE
8
BLACK
6
CONTINUOUS
10
4.14097
20
-2.73456
11
4.13809
21
-2.73264
0
LINE
8
BLACK
6
CONTINUOUS
10
4.13809
20
-2.73264
11
4.13617
21
-2.72977
0
LINE
8
BLACK
6
CONTINUOUS
10
4.13617
20
-2.72977
11
4.1355
21
-2.72638
0
LINE
8
BLACK
6
CONTINUOUS
10
4.1355
20
-2.72638
11
4.1355
21
-2.70669
0
LINE
8
BLACK
6
CONTINUOUS
10
4.1355
20
-2.70669
11
4.13617
21
-2.7033
0
LINE
8
BLACK
6
CONTINUOUS
10
4.13617
20
-2.7033
11
4.13809
21
-2.70043
0
LINE
8
BLACK
6
CONTINUOUS
10
4.13809
20
-2.70043
11
4.14097
21
-2.69851
0
LINE
8
BLACK
6
CONTINUOUS
10
4.14097
20
-2.69851
11
4.14436
21
-2.69783
0
LINE
8
BLACK
6
CONTINUOUS
10
4.14436
20
-2.69783
11
4.16207
21
-2.69783
0
LINE
8
BLACK
6
CONTINUOUS
10
4.16207
20
-2.69783
11
4.16546
21
-2.69851
0
LINE
8
BLACK
6
CONTINUOUS
10
4.22649
20
-2.69851
11
4.22936
21
-2.70043
0
LINE
8
BLACK
6
CONTINUOUS
10
4.22936
20
-2.70043
11
4.23128
21
-2.7033
0
LINE
8
BLACK
6
CONTINUOUS
10
4.23128
20
-2.7033
11
4.23196
21
-2.70669
0
LINE
8
BLACK
6
CONTINUOUS
10
4.23196
20
-2.70669
11
4.23196
21
-2.72638
0
LINE
8
BLACK
6
CONTINUOUS
10
4.23196
20
-2.72638
11
4.23128
21
-2.72977
0
LINE
8
BLACK
6
CONTINUOUS
10
4.23128
20
-2.72977
11
4.22936
21
-2.73264
0
LINE
8
BLACK
6
CONTINUOUS
10
4.22936
20
-2.73264
11
4.22649
21
-2.73456
0
LINE
8
BLACK
6
CONTINUOUS
10
4.22649
20
-2.73456
11
4.2231
21
-2.73524
0
LINE
8
BLACK
6
CONTINUOUS
10
4.2231
20
-2.73524
11
4.20538
21
-2.73524
0
LINE
8
BLACK
6
CONTINUOUS
10
4.20538
20
-2.73524
11
4.20199
21
-2.73456
0
LINE
8
BLACK
6
CONTINUOUS
10
4.20199
20
-2.73456
11
4.19912
21
-2.73264
0
LINE
8
BLACK
6
CONTINUOUS
10
4.19912
20
-2.73264
11
4.1972
21
-2.72977
0
LINE
8
BLACK
6
CONTINUOUS
10
4.1972
20
-2.72977
11
4.19652
21
-2.72638
0
LINE
8
BLACK
6
CONTINUOUS
10
4.19652
20
-2.72638
11
4.19652
21
-2.70669
0
LINE
8
BLACK
6
CONTINUOUS
10
4.19652
20
-2.70669
11
4.1972
21
-2.7033
0
LINE
8
BLACK
6
CONTINUOUS
10
4.1972
20
-2.7033
11
4.19912
21
-2.70043
0
LINE
8
BLACK
6
CONTINUOUS
10
4.19912
20
-2.70043
11
4.20199
21
-2.69851
0
LINE
8
BLACK
6
CONTINUOUS
10
4.20199
20
-2.69851
11
4.20538
21
-2.69783
0
LINE
8
BLACK
6
CONTINUOUS
10
4.20538
20
-2.69783
11
4.2231
21
-2.69783
0
LINE
8
BLACK
6
CONTINUOUS
10
4.2231
20
-2.69783
11
4.22649
21
-2.69851
  0
ENDSEC
  0
EOF
