  0
SECTION
  2
HEADER
  9
$ANGBASE
  50
0.0
  9
$ANGDIR
  70
1
  9
$MEASUREMENT
  70
0
  0
ENDSEC
  0
SECTION
  2
TABLES
  0
TABLE
  2
LTYPE
  70
4
  0
LTYPE
  5
40F
  2
CONTINUOUS
  70
0
  3
Solid line
  72
65
  73
0
  40
0.0
  0
LTYPE
  5
410
  2
DASHDOT
 70
0
  3
Dash Dot ____ _ ____ _
 72
65
 73
4
 40
2.0
 49
1.25
 49
-0.25
 49
0.25
 49
-0.25
  0
LTYPE
  5
411
  2
DASHED
 70
0
  3
Dashed __ __ __ __ __
 72
65
 73
2
 40
0.75
 49
0.5
 49
-0.25
  0
LTYPE
  5
43B
  2
DOTTED
 70
0
  3
Dotted .  .  .  .
 72
65
 73
2
 40
0.2
 49
0.0
 49
-0.2
  0
ENDTAB
  0
TABLE
  2
STYLE
  70
4
  0
STYLE
  2
KICAD
  70
0
  40
0
  41
1
  42
1
  50
0
  71
0
  3
isocp.shx
  0
STYLE
  2
KICADB
  70
0
  40
0
  41
1
  42
1
  50
0
  71
0
  3
isocp.shx
  0
STYLE
  2
KICADI
  70
0
  40
0
  41
1
  42
1
  50
15
  71
0
  3
isocp.shx
  0
STYLE
  2
KICADBI
  70
0
  40
0
  41
1
  42
1
  50
15
  71
0
  3
isocp.shx
  0
ENDTAB
  0
TABLE
  2
LAYER
  70
1
  0
LAYER
  2
BLACK
  70
0
  62
7
  6
CONTINUOUS
  0
ENDTAB
  0
ENDSEC
  0
SECTION
  2
ENTITIES
0
LINE
8
BLACK
6
CONTINUOUS
10
3.5971168110236218
20
-4.797122165354331
11
3.5976494881889765
21
-4.7976548425196848
0
LINE
8
BLACK
6
CONTINUOUS
10
3.5976494881889765
20
-4.7976548425196848
11
3.5977244094488188
21
-4.7980314960629924
0
LINE
8
BLACK
6
CONTINUOUS
10
3.5977244094488188
20
-4.7980314960629924
11
3.5977244094488188
21
-4.9145669291338585
0
LINE
8
BLACK
6
CONTINUOUS
10
3.5977244094488188
20
-4.9145669291338585
11
3.5976494881889765
21
-4.9149435826771652
0
LINE
8
BLACK
6
CONTINUOUS
10
3.5976494881889765
20
-4.9149435826771652
11
3.5971168110236218
21
-4.9154762598425199
0
LINE
8
BLACK
6
CONTINUOUS
10
3.5971168110236218
20
-4.9154762598425199
11
3.5967401574803151
21
-4.9155511811023622
0
LINE
8
BLACK
6
CONTINUOUS
10
3.5967401574803151
20
-4.9155511811023622
11
3.5392598425196851
21
-4.9155511811023622
0
LINE
8
BLACK
6
CONTINUOUS
10
3.5392598425196851
20
-4.9155511811023622
11
3.5388831889763779
21
-4.9154762598425199
0
LINE
8
BLACK
6
CONTINUOUS
10
3.5388831889763779
20
-4.9154762598425199
11
3.5383505118110237
21
-4.9149435826771652
0
LINE
8
BLACK
6
CONTINUOUS
10
3.5383505118110237
20
-4.9149435826771652
11
3.5382755905511809
21
-4.9145669291338585
0
LINE
8
BLACK
6
CONTINUOUS
10
3.5382755905511809
20
-4.9145669291338585
11
3.5382755905511809
21
-4.7980314960629924
0
LINE
8
BLACK
6
CONTINUOUS
10
3.5382755905511809
20
-4.7980314960629924
11
3.5383505118110237
21
-4.7976548425196848
0
LINE
8
BLACK
6
CONTINUOUS
10
3.5383505118110237
20
-4.7976548425196848
11
3.5388831889763779
21
-4.797122165354331
0
LINE
8
BLACK
6
CONTINUOUS
10
3.5388831889763779
20
-4.797122165354331
11
3.5392598425196851
21
-4.7970472440944878
0
LINE
8
BLACK
6
CONTINUOUS
10
3.5392598425196851
20
-4.7970472440944878
11
3.5967401574803151
21
-4.7970472440944878
0
LINE
8
BLACK
6
CONTINUOUS
10
3.5967401574803151
20
-4.7970472440944878
11
3.5971168110236218
21
-4.797122165354331
0
LINE
8
BLACK
6
CONTINUOUS
10
3.5402440944881888
20
-4.7990157480314961
11
3.5402440944881888
21
-4.9135826771653539
0
LINE
8
BLACK
6
CONTINUOUS
10
3.5402440944881888
20
-4.9135826771653539
11
3.5957559055118109
21
-4.9135826771653539
0
LINE
8
BLACK
6
CONTINUOUS
10
3.5957559055118109
20
-4.9135826771653539
11
3.5957559055118109
21
-4.7990157480314961
0
LINE
8
BLACK
6
CONTINUOUS
10
3.5957559055118109
20
-4.7990157480314961
11
3.5402440944881888
21
-4.7990157480314961
0
LINE
8
BLACK
6
CONTINUOUS
10
4.4091168110236216
20
-4.2812953937007876
11
4.4096494881889763
21
-4.2818280708661414
0
LINE
8
BLACK
6
CONTINUOUS
10
4.4096494881889763
20
-4.2818280708661414
11
4.4097244094488186
21
-4.282204724409449
0
LINE
8
BLACK
6
CONTINUOUS
10
4.4097244094488186
20
-4.282204724409449
11
4.4097244094488186
21
-4.3987401574803151
0
LINE
8
BLACK
6
CONTINUOUS
10
4.4097244094488186
20
-4.3987401574803151
11
4.4096494881889763
21
-4.3991168110236218
0
LINE
8
BLACK
6
CONTINUOUS
10
4.4096494881889763
20
-4.3991168110236218
11
4.4091168110236216
21
-4.3996494881889765
0
LINE
8
BLACK
6
CONTINUOUS
10
4.4091168110236216
20
-4.3996494881889765
11
4.4087401574803149
21
-4.3997244094488188
0
LINE
8
BLACK
6
CONTINUOUS
10
4.4087401574803149
20
-4.3997244094488188
11
4.3512598425196849
21
-4.3997244094488188
0
LINE
8
BLACK
6
CONTINUOUS
10
4.3512598425196849
20
-4.3997244094488188
11
4.3508831889763782
21
-4.3996494881889765
0
LINE
8
BLACK
6
CONTINUOUS
10
4.3508831889763782
20
-4.3996494881889765
11
4.3503505118110235
21
-4.3991168110236218
0
LINE
8
BLACK
6
CONTINUOUS
10
4.3503505118110235
20
-4.3991168110236218
11
4.3502755905511812
21
-4.3987401574803151
0
LINE
8
BLACK
6
CONTINUOUS
10
4.3502755905511812
20
-4.3987401574803151
11
4.3502755905511812
21
-4.282204724409449
0
LINE
8
BLACK
6
CONTINUOUS
10
4.3502755905511812
20
-4.282204724409449
11
4.3503505118110235
21
-4.2818280708661414
0
LINE
8
BLACK
6
CONTINUOUS
10
4.3503505118110235
20
-4.2818280708661414
11
4.3508831889763782
21
-4.2812953937007876
0
LINE
8
BLACK
6
CONTINUOUS
10
4.3508831889763782
20
-4.2812953937007876
11
4.3512598425196849
21
-4.2812204724409444
0
LINE
8
BLACK
6
CONTINUOUS
10
4.3512598425196849
20
-4.2812204724409444
11
4.4087401574803149
21
-4.2812204724409444
0
LINE
8
BLACK
6
CONTINUOUS
10
4.4087401574803149
20
-4.2812204724409444
11
4.4091168110236216
21
-4.2812953937007876
0
LINE
8
BLACK
6
CONTINUOUS
10
4.3522440944881886
20
-4.2831889763779527
11
4.3522440944881886
21
-4.3977559055118105
0
LINE
8
BLACK
6
CONTINUOUS
10
4.3522440944881886
20
-4.3977559055118105
11
4.4077559055118112
21
-4.3977559055118105
0
LINE
8
BLACK
6
CONTINUOUS
10
4.4077559055118112
20
-4.3977559055118105
11
4.4077559055118112
21
-4.2831889763779527
0
LINE
8
BLACK
6
CONTINUOUS
10
4.4077559055118112
20
-4.2831889763779527
11
4.3522440944881886
21
-4.2831889763779527
0
LINE
8
BLACK
6
CONTINUOUS
10
4.349116811023622
20
-4.2808229527559059
11
4.3496494881889767
21
-4.2813556299212596
0
LINE
8
BLACK
6
CONTINUOUS
10
4.3496494881889767
20
-4.2813556299212596
11
4.349724409448819
21
-4.2817322834645672
0
LINE
8
BLACK
6
CONTINUOUS
10
4.349724409448819
20
-4.2817322834645672
11
4.349724409448819
21
-4.3982677165354334
0
LINE
8
BLACK
6
CONTINUOUS
10
4.349724409448819
20
-4.3982677165354334
11
4.3496494881889767
21
-4.3986443700787401
0
LINE
8
BLACK
6
CONTINUOUS
10
4.3496494881889767
20
-4.3986443700787401
11
4.349116811023622
21
-4.3991770472440948
0
LINE
8
BLACK
6
CONTINUOUS
10
4.349116811023622
20
-4.3991770472440948
11
4.3487401574803153
21
-4.3992519685039371
0
LINE
8
BLACK
6
CONTINUOUS
10
4.3487401574803153
20
-4.3992519685039371
11
4.2912598425196853
21
-4.3992519685039371
0
LINE
8
BLACK
6
CONTINUOUS
10
4.2912598425196853
20
-4.3992519685039371
11
4.2908831889763777
21
-4.3991770472440948
0
LINE
8
BLACK
6
CONTINUOUS
10
4.2908831889763777
20
-4.3991770472440948
11
4.2903505118110239
21
-4.3986443700787401
0
LINE
8
BLACK
6
CONTINUOUS
10
4.2903505118110239
20
-4.3986443700787401
11
4.2902755905511807
21
-4.3982677165354334
0
LINE
8
BLACK
6
CONTINUOUS
10
4.2902755905511807
20
-4.3982677165354334
11
4.2902755905511807
21
-4.2817322834645672
0
LINE
8
BLACK
6
CONTINUOUS
10
4.2902755905511807
20
-4.2817322834645672
11
4.2903505118110239
21
-4.2813556299212596
0
LINE
8
BLACK
6
CONTINUOUS
10
4.2903505118110239
20
-4.2813556299212596
11
4.2908831889763777
21
-4.2808229527559059
0
LINE
8
BLACK
6
CONTINUOUS
10
4.2908831889763777
20
-4.2808229527559059
11
4.2912598425196853
21
-4.2807480314960626
0
LINE
8
BLACK
6
CONTINUOUS
10
4.2912598425196853
20
-4.2807480314960626
11
4.3487401574803153
21
-4.2807480314960626
0
LINE
8
BLACK
6
CONTINUOUS
10
4.3487401574803153
20
-4.2807480314960626
11
4.349116811023622
21
-4.2808229527559059
0
LINE
8
BLACK
6
CONTINUOUS
10
4.292244094488189
20
-4.282716535433071
11
4.292244094488189
21
-4.3972834645669288
0
LINE
8
BLACK
6
CONTINUOUS
10
4.292244094488189
20
-4.3972834645669288
11
4.3477559055118107
21
-4.3972834645669288
0
LINE
8
BLACK
6
CONTINUOUS
10
4.3477559055118107
20
-4.3972834645669288
11
4.3477559055118107
21
-4.282716535433071
0
LINE
8
BLACK
6
CONTINUOUS
10
4.3477559055118107
20
-4.282716535433071
11
4.292244094488189
21
-4.282716535433071
0
LINE
8
BLACK
6
CONTINUOUS
10
3.8243924015748032
20
-4.2557835826771653
11
3.8249250787401574
21
-4.2563162598425199
0
LINE
8
BLACK
6
CONTINUOUS
10
3.8249250787401574
20
-4.2563162598425199
11
3.8249999999999997
21
-4.2566929133858267
0
LINE
8
BLACK
6
CONTINUOUS
10
3.8249999999999997
20
-4.2566929133858267
11
3.8249999999999997
21
-4.3732283464566928
0
LINE
8
BLACK
6
CONTINUOUS
10
3.8249999999999997
20
-4.3732283464566928
11
3.8249250787401574
21
-4.3736049999999995
0
LINE
8
BLACK
6
CONTINUOUS
10
3.8249250787401574
20
-4.3736049999999995
11
3.8243924015748032
21
-4.3741376771653542
0
LINE
8
BLACK
6
CONTINUOUS
10
3.8243924015748032
20
-4.3741376771653542
11
3.824015748031496
21
-4.3742125984251965
0
LINE
8
BLACK
6
CONTINUOUS
10
3.824015748031496
20
-4.3742125984251965
11
3.766535433070866
21
-4.3742125984251965
0
LINE
8
BLACK
6
CONTINUOUS
10
3.766535433070866
20
-4.3742125984251965
11
3.7661587795275588
21
-4.3741376771653542
0
LINE
8
BLACK
6
CONTINUOUS
10
3.7661587795275588
20
-4.3741376771653542
11
3.7656261023622046
21
-4.3736049999999995
0
LINE
8
BLACK
6
CONTINUOUS
10
3.7656261023622046
20
-4.3736049999999995
11
3.7655511811023623
21
-4.3732283464566928
0
LINE
8
BLACK
6
CONTINUOUS
10
3.7655511811023623
20
-4.3732283464566928
11
3.7655511811023623
21
-4.2566929133858267
0
LINE
8
BLACK
6
CONTINUOUS
10
3.7655511811023623
20
-4.2566929133858267
11
3.7656261023622046
21
-4.2563162598425199
0
LINE
8
BLACK
6
CONTINUOUS
10
3.7656261023622046
20
-4.2563162598425199
11
3.7661587795275588
21
-4.2557835826771653
0
LINE
8
BLACK
6
CONTINUOUS
10
3.7661587795275588
20
-4.2557835826771653
11
3.766535433070866
21
-4.255708661417323
0
LINE
8
BLACK
6
CONTINUOUS
10
3.766535433070866
20
-4.255708661417323
11
3.824015748031496
21
-4.255708661417323
0
LINE
8
BLACK
6
CONTINUOUS
10
3.824015748031496
20
-4.255708661417323
11
3.8243924015748032
21
-4.2557835826771653
0
LINE
8
BLACK
6
CONTINUOUS
10
3.7675196850393702
20
-4.2576771653543304
11
3.7675196850393702
21
-4.3722440944881891
0
LINE
8
BLACK
6
CONTINUOUS
10
3.7675196850393702
20
-4.3722440944881891
11
3.8230314960629919
21
-4.3722440944881891
0
LINE
8
BLACK
6
CONTINUOUS
10
3.8230314960629919
20
-4.3722440944881891
11
3.8230314960629919
21
-4.2576771653543304
0
LINE
8
BLACK
6
CONTINUOUS
10
3.8230314960629919
20
-4.2576771653543304
11
3.7675196850393702
21
-4.2576771653543304
0
LINE
8
BLACK
6
CONTINUOUS
10
3.9070695669291338
20
-4.2557835826771653
11
3.907602244094488
21
-4.2563162598425199
0
LINE
8
BLACK
6
CONTINUOUS
10
3.907602244094488
20
-4.2563162598425199
11
3.9076771653543307
21
-4.2566929133858267
0
LINE
8
BLACK
6
CONTINUOUS
10
3.9076771653543307
20
-4.2566929133858267
11
3.9076771653543307
21
-4.3732283464566928
0
LINE
8
BLACK
6
CONTINUOUS
10
3.9076771653543307
20
-4.3732283464566928
11
3.907602244094488
21
-4.3736049999999995
0
LINE
8
BLACK
6
CONTINUOUS
10
3.907602244094488
20
-4.3736049999999995
11
3.9070695669291338
21
-4.3741376771653542
0
LINE
8
BLACK
6
CONTINUOUS
10
3.9070695669291338
20
-4.3741376771653542
11
3.9066929133858266
21
-4.3742125984251965
0
LINE
8
BLACK
6
CONTINUOUS
10
3.9066929133858266
20
-4.3742125984251965
11
3.8492125984251966
21
-4.3742125984251965
0
LINE
8
BLACK
6
CONTINUOUS
10
3.8492125984251966
20
-4.3742125984251965
11
3.8488359448818898
21
-4.3741376771653542
0
LINE
8
BLACK
6
CONTINUOUS
10
3.8488359448818898
20
-4.3741376771653542
11
3.8483032677165352
21
-4.3736049999999995
0
LINE
8
BLACK
6
CONTINUOUS
10
3.8483032677165352
20
-4.3736049999999995
11
3.8482283464566929
21
-4.3732283464566928
0
LINE
8
BLACK
6
CONTINUOUS
10
3.8482283464566929
20
-4.3732283464566928
11
3.8482283464566929
21
-4.2566929133858267
0
LINE
8
BLACK
6
CONTINUOUS
10
3.8482283464566929
20
-4.2566929133858267
11
3.8483032677165352
21
-4.2563162598425199
0
LINE
8
BLACK
6
CONTINUOUS
10
3.8483032677165352
20
-4.2563162598425199
11
3.8488359448818898
21
-4.2557835826771653
0
LINE
8
BLACK
6
CONTINUOUS
10
3.8488359448818898
20
-4.2557835826771653
11
3.8492125984251966
21
-4.255708661417323
0
LINE
8
BLACK
6
CONTINUOUS
10
3.8492125984251966
20
-4.255708661417323
11
3.9066929133858266
21
-4.255708661417323
0
LINE
8
BLACK
6
CONTINUOUS
10
3.9066929133858266
20
-4.255708661417323
11
3.9070695669291338
21
-4.2557835826771653
0
LINE
8
BLACK
6
CONTINUOUS
10
3.8501968503937007
20
-4.2576771653543304
11
3.8501968503937007
21
-4.3722440944881891
0
LINE
8
BLACK
6
CONTINUOUS
10
3.8501968503937007
20
-4.3722440944881891
11
3.9057086614173229
21
-4.3722440944881891
0
LINE
8
BLACK
6
CONTINUOUS
10
3.9057086614173229
20
-4.3722440944881891
11
3.9057086614173229
21
-4.2576771653543304
0
LINE
8
BLACK
6
CONTINUOUS
10
3.9057086614173229
20
-4.2576771653543304
11
3.8501968503937007
21
-4.2576771653543304
0
LINE
8
BLACK
6
CONTINUOUS
10
3.650179803149606
20
-4.3089331889763782
11
3.6507124803149607
21
-4.309465866141732
0
LINE
8
BLACK
6
CONTINUOUS
10
3.6507124803149607
20
-4.309465866141732
11
3.650787401574803
21
-4.3098425196850396
0
LINE
8
BLACK
6
CONTINUOUS
10
3.650787401574803
20
-4.3098425196850396
11
3.650787401574803
21
-4.3673228346456696
0
LINE
8
BLACK
6
CONTINUOUS
10
3.650787401574803
20
-4.3673228346456696
11
3.6507124803149607
21
-4.3676994881889764
0
LINE
8
BLACK
6
CONTINUOUS
10
3.6507124803149607
20
-4.3676994881889764
11
3.650179803149606
21
-4.368232165354331
0
LINE
8
BLACK
6
CONTINUOUS
10
3.650179803149606
20
-4.368232165354331
11
3.6498031496062993
21
-4.3683070866141733
0
LINE
8
BLACK
6
CONTINUOUS
10
3.6498031496062993
20
-4.3683070866141733
11
3.5332677165354331
21
-4.3683070866141733
0
LINE
8
BLACK
6
CONTINUOUS
10
3.5332677165354331
20
-4.3683070866141733
11
3.532891062992126
21
-4.368232165354331
0
LINE
8
BLACK
6
CONTINUOUS
10
3.532891062992126
20
-4.368232165354331
11
3.5323583858267718
21
-4.3676994881889764
0
LINE
8
BLACK
6
CONTINUOUS
10
3.5323583858267718
20
-4.3676994881889764
11
3.532283464566929
21
-4.3673228346456696
0
LINE
8
BLACK
6
CONTINUOUS
10
3.532283464566929
20
-4.3673228346456696
11
3.532283464566929
21
-4.3098425196850396
0
LINE
8
BLACK
6
CONTINUOUS
10
3.532283464566929
20
-4.3098425196850396
11
3.5323583858267718
21
-4.309465866141732
0
LINE
8
BLACK
6
CONTINUOUS
10
3.5323583858267718
20
-4.309465866141732
11
3.532891062992126
21
-4.3089331889763782
0
LINE
8
BLACK
6
CONTINUOUS
10
3.532891062992126
20
-4.3089331889763782
11
3.5332677165354331
21
-4.308858267716535
0
LINE
8
BLACK
6
CONTINUOUS
10
3.5332677165354331
20
-4.308858267716535
11
3.6498031496062993
21
-4.308858267716535
0
LINE
8
BLACK
6
CONTINUOUS
10
3.6498031496062993
20
-4.308858267716535
11
3.650179803149606
21
-4.3089331889763782
0
LINE
8
BLACK
6
CONTINUOUS
10
3.5342519685039369
20
-4.3108267716535433
11
3.5342519685039369
21
-4.366338582677165
0
LINE
8
BLACK
6
CONTINUOUS
10
3.5342519685039369
20
-4.366338582677165
11
3.6488188976377951
21
-4.366338582677165
0
LINE
8
BLACK
6
CONTINUOUS
10
3.6488188976377951
20
-4.366338582677165
11
3.6488188976377951
21
-4.3108267716535433
0
LINE
8
BLACK
6
CONTINUOUS
10
3.6488188976377951
20
-4.3108267716535433
11
3.5342519685039369
21
-4.3108267716535433
0
LINE
8
BLACK
6
CONTINUOUS
10
3.6117939763779527
20
-4.1494843700787403
11
3.6122047244094486
21
-4.1498951181102361
0
LINE
8
BLACK
6
CONTINUOUS
10
3.6122047244094486
20
-4.1498951181102361
11
3.6126154724409449
21
-4.1494843700787403
0
LINE
8
BLACK
6
CONTINUOUS
10
3.6126154724409449
20
-4.1494843700787403
11
3.6129921259842517
21
-4.1494094488188979
0
LINE
8
BLACK
6
CONTINUOUS
10
3.6129921259842517
20
-4.1494094488188979
11
3.6704724409448817
21
-4.1494094488188979
0
LINE
8
BLACK
6
CONTINUOUS
10
3.6704724409448817
20
-4.1494094488188979
11
3.6708490944881889
21
-4.1494843700787403
0
LINE
8
BLACK
6
CONTINUOUS
10
3.6708490944881889
20
-4.1494843700787403
11
3.6713817716535431
21
-4.150017047244094
0
LINE
8
BLACK
6
CONTINUOUS
10
3.6713817716535431
20
-4.150017047244094
11
3.6714566929133858
21
-4.1503937007874017
0
LINE
8
BLACK
6
CONTINUOUS
10
3.6714566929133858
20
-4.1503937007874017
11
3.6714566929133858
21
-4.2669291338582678
0
LINE
8
BLACK
6
CONTINUOUS
10
3.6714566929133858
20
-4.2669291338582678
11
3.6713817716535431
21
-4.2673057874015745
0
LINE
8
BLACK
6
CONTINUOUS
10
3.6713817716535431
20
-4.2673057874015745
11
3.6708490944881889
21
-4.2678384645669292
0
LINE
8
BLACK
6
CONTINUOUS
10
3.6708490944881889
20
-4.2678384645669292
11
3.6704724409448817
21
-4.2679133858267715
0
LINE
8
BLACK
6
CONTINUOUS
10
3.6704724409448817
20
-4.2679133858267715
11
3.6129921259842517
21
-4.2679133858267715
0
LINE
8
BLACK
6
CONTINUOUS
10
3.6129921259842517
20
-4.2679133858267715
11
3.6126154724409449
21
-4.2678384645669292
0
LINE
8
BLACK
6
CONTINUOUS
10
3.6126154724409449
20
-4.2678384645669292
11
3.6122047244094486
21
-4.2674277165354333
0
LINE
8
BLACK
6
CONTINUOUS
10
3.6122047244094486
20
-4.2674277165354333
11
3.6117939763779527
21
-4.2678384645669292
0
LINE
8
BLACK
6
CONTINUOUS
10
3.6117939763779527
20
-4.2678384645669292
11
3.6114173228346456
21
-4.2679133858267715
0
LINE
8
BLACK
6
CONTINUOUS
10
3.6114173228346456
20
-4.2679133858267715
11
3.5539370078740156
21
-4.2679133858267715
0
LINE
8
BLACK
6
CONTINUOUS
10
3.5539370078740156
20
-4.2679133858267715
11
3.5535603543307084
21
-4.2678384645669292
0
LINE
8
BLACK
6
CONTINUOUS
10
3.5535603543307084
20
-4.2678384645669292
11
3.5530276771653542
21
-4.2673057874015745
0
LINE
8
BLACK
6
CONTINUOUS
10
3.5530276771653542
20
-4.2673057874015745
11
3.5529527559055119
21
-4.2669291338582678
0
LINE
8
BLACK
6
CONTINUOUS
10
3.5529527559055119
20
-4.2669291338582678
11
3.5529527559055119
21
-4.1503937007874017
0
LINE
8
BLACK
6
CONTINUOUS
10
3.5529527559055119
20
-4.1503937007874017
11
3.5530276771653542
21
-4.150017047244094
0
LINE
8
BLACK
6
CONTINUOUS
10
3.5530276771653542
20
-4.150017047244094
11
3.5535603543307084
21
-4.1494843700787403
0
LINE
8
BLACK
6
CONTINUOUS
10
3.5535603543307084
20
-4.1494843700787403
11
3.5539370078740156
21
-4.1494094488188979
0
LINE
8
BLACK
6
CONTINUOUS
10
3.5539370078740156
20
-4.1494094488188979
11
3.6114173228346456
21
-4.1494094488188979
0
LINE
8
BLACK
6
CONTINUOUS
10
3.6114173228346456
20
-4.1494094488188979
11
3.6117939763779527
21
-4.1494843700787403
0
LINE
8
BLACK
6
CONTINUOUS
10
3.6139763779527558
20
-4.1513779527559054
11
3.6139763779527558
21
-4.2659448818897641
0
LINE
8
BLACK
6
CONTINUOUS
10
3.6139763779527558
20
-4.2659448818897641
11
3.669488188976378
21
-4.2659448818897641
0
LINE
8
BLACK
6
CONTINUOUS
10
3.669488188976378
20
-4.2659448818897641
11
3.669488188976378
21
-4.1513779527559054
0
LINE
8
BLACK
6
CONTINUOUS
10
3.669488188976378
20
-4.1513779527559054
11
3.6139763779527558
21
-4.1513779527559054
0
LINE
8
BLACK
6
CONTINUOUS
10
3.5549212598425197
20
-4.1513779527559054
11
3.5549212598425197
21
-4.2659448818897641
0
LINE
8
BLACK
6
CONTINUOUS
10
3.5549212598425197
20
-4.2659448818897641
11
3.6104330708661418
21
-4.2659448818897641
0
LINE
8
BLACK
6
CONTINUOUS
10
3.6104330708661418
20
-4.2659448818897641
11
3.6104330708661418
21
-4.1513779527559054
0
LINE
8
BLACK
6
CONTINUOUS
10
3.6104330708661418
20
-4.1513779527559054
11
3.5549212598425197
21
-4.1513779527559054
0
LINE
8
BLACK
6
CONTINUOUS
10
3.5397467322834646
20
-4.1172009055118108
11
3.5402794094488188
21
-4.1177335826771655
0
LINE
8
BLACK
6
CONTINUOUS
10
3.5402794094488188
20
-4.1177335826771655
11
3.5403543307086611
21
-4.1181102362204722
0
LINE
8
BLACK
6
CONTINUOUS
10
3.5403543307086611
20
-4.1181102362204722
11
3.5403543307086611
21
-4.1968503937007871
0
LINE
8
BLACK
6
CONTINUOUS
10
3.5403543307086611
20
-4.1968503937007871
11
3.5402794094488188
21
-4.1972270472440947
0
LINE
8
BLACK
6
CONTINUOUS
10
3.5402794094488188
20
-4.1972270472440947
11
3.5397467322834646
21
-4.1977597244094484
0
LINE
8
BLACK
6
CONTINUOUS
10
3.5397467322834646
20
-4.1977597244094484
11
3.5393700787401574
21
-4.1978346456692917
0
LINE
8
BLACK
6
CONTINUOUS
10
3.5393700787401574
20
-4.1978346456692917
11
3.5
21
-4.1978346456692917
0
LINE
8
BLACK
6
CONTINUOUS
10
3.5
20
-4.1978346456692917
11
3.4996233464566928
21
-4.1977597244094484
0
LINE
8
BLACK
6
CONTINUOUS
10
3.4996233464566928
20
-4.1977597244094484
11
3.4990906692913386
21
-4.1972270472440947
0
LINE
8
BLACK
6
CONTINUOUS
10
3.4990906692913386
20
-4.1972270472440947
11
3.4990157480314958
21
-4.1968503937007871
0
LINE
8
BLACK
6
CONTINUOUS
10
3.4990157480314958
20
-4.1968503937007871
11
3.4990157480314958
21
-4.1181102362204722
0
LINE
8
BLACK
6
CONTINUOUS
10
3.4990157480314958
20
-4.1181102362204722
11
3.4990906692913386
21
-4.1177335826771655
0
LINE
8
BLACK
6
CONTINUOUS
10
3.4990906692913386
20
-4.1177335826771655
11
3.4996233464566928
21
-4.1172009055118108
0
LINE
8
BLACK
6
CONTINUOUS
10
3.4996233464566928
20
-4.1172009055118108
11
3.5
21
-4.1171259842519685
0
LINE
8
BLACK
6
CONTINUOUS
10
3.5
20
-4.1171259842519685
11
3.5393700787401574
21
-4.1171259842519685
0
LINE
8
BLACK
6
CONTINUOUS
10
3.5393700787401574
20
-4.1171259842519685
11
3.5397467322834646
21
-4.1172009055118108
0
LINE
8
BLACK
6
CONTINUOUS
10
3.5009842519685037
20
-4.1190944881889759
11
3.5009842519685037
21
-4.1958661417322833
0
LINE
8
BLACK
6
CONTINUOUS
10
3.5009842519685037
20
-4.1958661417322833
11
3.5383858267716533
21
-4.1958661417322833
0
LINE
8
BLACK
6
CONTINUOUS
10
3.5383858267716533
20
-4.1958661417322833
11
3.5383858267716533
21
-4.1190944881889759
0
LINE
8
BLACK
6
CONTINUOUS
10
3.5383858267716533
20
-4.1190944881889759
11
3.5009842519685037
21
-4.1190944881889759
0
LINE
8
BLACK
6
CONTINUOUS
10
3.4793782283464565
20
-3.9870560236220474
11
3.4799109055118111
21
-3.9875887007874016
0
LINE
8
BLACK
6
CONTINUOUS
10
3.4799109055118111
20
-3.9875887007874016
11
3.4799858267716535
21
-3.9879653543307088
0
LINE
8
BLACK
6
CONTINUOUS
10
3.4799858267716535
20
-3.9879653543307088
11
3.4799858267716535
21
-4.1336346456692912
0
LINE
8
BLACK
6
CONTINUOUS
10
3.4799858267716535
20
-4.1336346456692912
11
3.4799109055118111
21
-4.1340112992125979
0
LINE
8
BLACK
6
CONTINUOUS
10
3.4799109055118111
20
-4.1340112992125979
11
3.4793782283464565
21
-4.1345439763779526
0
LINE
8
BLACK
6
CONTINUOUS
10
3.4793782283464565
20
-4.1345439763779526
11
3.4790015748031493
21
-4.1346188976377949
0
LINE
8
BLACK
6
CONTINUOUS
10
3.4790015748031493
20
-4.1346188976377949
11
3.4041984251968502
21
-4.1346188976377949
0
LINE
8
BLACK
6
CONTINUOUS
10
3.4041984251968502
20
-4.1346188976377949
11
3.403821771653543
21
-4.1345439763779526
0
LINE
8
BLACK
6
CONTINUOUS
10
3.403821771653543
20
-4.1345439763779526
11
3.4032890944881888
21
-4.1340112992125979
0
LINE
8
BLACK
6
CONTINUOUS
10
3.4032890944881888
20
-4.1340112992125979
11
3.4032141732283465
21
-4.1336346456692912
0
LINE
8
BLACK
6
CONTINUOUS
10
3.4032141732283465
20
-4.1336346456692912
11
3.4032141732283465
21
-3.9879653543307088
0
LINE
8
BLACK
6
CONTINUOUS
10
3.4032141732283465
20
-3.9879653543307088
11
3.4032890944881888
21
-3.9875887007874016
0
LINE
8
BLACK
6
CONTINUOUS
10
3.4032890944881888
20
-3.9875887007874016
11
3.403821771653543
21
-3.9870560236220474
0
LINE
8
BLACK
6
CONTINUOUS
10
3.403821771653543
20
-3.9870560236220474
11
3.4041984251968502
21
-3.9869811023622046
0
LINE
8
BLACK
6
CONTINUOUS
10
3.4041984251968502
20
-3.9869811023622046
11
3.4790015748031493
21
-3.9869811023622046
0
LINE
8
BLACK
6
CONTINUOUS
10
3.4790015748031493
20
-3.9869811023622046
11
3.4793782283464565
21
-3.9870560236220474
0
LINE
8
BLACK
6
CONTINUOUS
10
3.4051826771653544
20
-3.9889496062992125
11
3.4051826771653544
21
-4.1326503937007875
0
LINE
8
BLACK
6
CONTINUOUS
10
3.4051826771653544
20
-4.1326503937007875
11
3.4780173228346456
21
-4.1326503937007875
0
LINE
8
BLACK
6
CONTINUOUS
10
3.4780173228346456
20
-4.1326503937007875
11
3.4780173228346456
21
-3.9889496062992125
0
LINE
8
BLACK
6
CONTINUOUS
10
3.4780173228346456
20
-3.9889496062992125
11
3.4051826771653544
21
-3.9889496062992125
0
LINE
8
BLACK
6
CONTINUOUS
10
3.5005735039370078
20
-3.9152324015748032
11
3.501106181102362
21
-3.9157650787401574
0
LINE
8
BLACK
6
CONTINUOUS
10
3.501106181102362
20
-3.9157650787401574
11
3.5011811023622048
21
-3.9161417322834646
0
LINE
8
BLACK
6
CONTINUOUS
10
3.5011811023622048
20
-3.9161417322834646
11
3.5011811023622048
21
-3.9736220472440942
0
LINE
8
BLACK
6
CONTINUOUS
10
3.5011811023622048
20
-3.9736220472440942
11
3.501106181102362
21
-3.9739987007874014
0
LINE
8
BLACK
6
CONTINUOUS
10
3.501106181102362
20
-3.9739987007874014
11
3.5005735039370078
21
-3.974531377952756
0
LINE
8
BLACK
6
CONTINUOUS
10
3.5005735039370078
20
-3.974531377952756
11
3.5001968503937007
21
-3.9746062992125983
0
LINE
8
BLACK
6
CONTINUOUS
10
3.5001968503937007
20
-3.9746062992125983
11
3.3836614173228345
21
-3.9746062992125983
0
LINE
8
BLACK
6
CONTINUOUS
10
3.3836614173228345
20
-3.9746062992125983
11
3.3832847637795274
21
-3.974531377952756
0
LINE
8
BLACK
6
CONTINUOUS
10
3.3832847637795274
20
-3.974531377952756
11
3.3827520866141731
21
-3.9739987007874014
0
LINE
8
BLACK
6
CONTINUOUS
10
3.3827520866141731
20
-3.9739987007874014
11
3.3826771653543308
21
-3.9736220472440942
0
LINE
8
BLACK
6
CONTINUOUS
10
3.3826771653543308
20
-3.9736220472440942
11
3.3826771653543308
21
-3.9161417322834646
0
LINE
8
BLACK
6
CONTINUOUS
10
3.3826771653543308
20
-3.9161417322834646
11
3.3827520866141731
21
-3.9157650787401574
0
LINE
8
BLACK
6
CONTINUOUS
10
3.3827520866141731
20
-3.9157650787401574
11
3.3832847637795274
21
-3.9152324015748032
0
LINE
8
BLACK
6
CONTINUOUS
10
3.3832847637795274
20
-3.9152324015748032
11
3.3836614173228345
21
-3.9151574803149605
0
LINE
8
BLACK
6
CONTINUOUS
10
3.3836614173228345
20
-3.9151574803149605
11
3.5001968503937007
21
-3.9151574803149605
0
LINE
8
BLACK
6
CONTINUOUS
10
3.5001968503937007
20
-3.9151574803149605
11
3.5005735039370078
21
-3.9152324015748032
0
LINE
8
BLACK
6
CONTINUOUS
10
3.3846456692913387
20
-3.9171259842519683
11
3.3846456692913387
21
-3.9726377952755905
0
LINE
8
BLACK
6
CONTINUOUS
10
3.3846456692913387
20
-3.9726377952755905
11
3.4992125984251969
21
-3.9726377952755905
0
LINE
8
BLACK
6
CONTINUOUS
10
3.4992125984251969
20
-3.9726377952755905
11
3.4992125984251969
21
-3.9171259842519683
0
LINE
8
BLACK
6
CONTINUOUS
10
3.4992125984251969
20
-3.9171259842519683
11
3.3846456692913387
21
-3.9171259842519683
0
LINE
8
BLACK
6
CONTINUOUS
10
3.5653372834645669
20
-3.5906261023622048
11
3.5658699606299211
21
-3.591158779527559
0
LINE
8
BLACK
6
CONTINUOUS
10
3.5658699606299211
20
-3.591158779527559
11
3.5659448818897639
21
-3.5915354330708662
0
LINE
8
BLACK
6
CONTINUOUS
10
3.5659448818897639
20
-3.5915354330708662
11
3.5659448818897639
21
-3.7372047244094486
0
LINE
8
BLACK
6
CONTINUOUS
10
3.5659448818897639
20
-3.7372047244094486
11
3.5658699606299211
21
-3.7375813779527558
0
LINE
8
BLACK
6
CONTINUOUS
10
3.5658699606299211
20
-3.7375813779527558
11
3.5653372834645669
21
-3.73811405511811
0
LINE
8
BLACK
6
CONTINUOUS
10
3.5653372834645669
20
-3.73811405511811
11
3.5651574803149604
21
-3.7381498031496063
0
LINE
8
BLACK
6
CONTINUOUS
10
3.5651574803149604
20
-3.7381498031496063
11
3.5651574803149604
21
-3.8545275590551182
0
LINE
8
BLACK
6
CONTINUOUS
10
3.5651574803149604
20
-3.8545275590551182
11
3.5650825590551181
21
-3.854904212598425
0
LINE
8
BLACK
6
CONTINUOUS
10
3.5650825590551181
20
-3.854904212598425
11
3.5645498818897638
21
-3.8554368897637796
0
LINE
8
BLACK
6
CONTINUOUS
10
3.5645498818897638
20
-3.8554368897637796
11
3.5641732283464567
21
-3.8555118110236219
0
LINE
8
BLACK
6
CONTINUOUS
10
3.5641732283464567
20
-3.8555118110236219
11
3.5066929133858267
21
-3.8555118110236219
0
LINE
8
BLACK
6
CONTINUOUS
10
3.5066929133858267
20
-3.8555118110236219
11
3.5063162598425195
21
-3.8554368897637796
0
LINE
8
BLACK
6
CONTINUOUS
10
3.5063162598425195
20
-3.8554368897637796
11
3.5057835826771653
21
-3.854904212598425
0
LINE
8
BLACK
6
CONTINUOUS
10
3.5057835826771653
20
-3.854904212598425
11
3.505708661417323
21
-3.8545275590551182
0
LINE
8
BLACK
6
CONTINUOUS
10
3.505708661417323
20
-3.8545275590551182
11
3.505708661417323
21
-3.7381889763779528
0
LINE
8
BLACK
6
CONTINUOUS
10
3.505708661417323
20
-3.7381889763779528
11
3.4901574803149606
21
-3.7381889763779528
0
LINE
8
BLACK
6
CONTINUOUS
10
3.4901574803149606
20
-3.7381889763779528
11
3.4897808267716535
21
-3.73811405511811
0
LINE
8
BLACK
6
CONTINUOUS
10
3.4897808267716535
20
-3.73811405511811
11
3.4892481496062993
21
-3.7375813779527558
0
LINE
8
BLACK
6
CONTINUOUS
10
3.4892481496062993
20
-3.7375813779527558
11
3.4891732283464565
21
-3.7372047244094486
0
LINE
8
BLACK
6
CONTINUOUS
10
3.4891732283464565
20
-3.7372047244094486
11
3.4891732283464565
21
-3.5915354330708662
0
LINE
8
BLACK
6
CONTINUOUS
10
3.4891732283464565
20
-3.5915354330708662
11
3.4892481496062993
21
-3.591158779527559
0
LINE
8
BLACK
6
CONTINUOUS
10
3.4892481496062993
20
-3.591158779527559
11
3.4897808267716535
21
-3.5906261023622048
0
LINE
8
BLACK
6
CONTINUOUS
10
3.4897808267716535
20
-3.5906261023622048
11
3.4901574803149606
21
-3.590551181102362
0
LINE
8
BLACK
6
CONTINUOUS
10
3.4901574803149606
20
-3.590551181102362
11
3.5649606299212597
21
-3.590551181102362
0
LINE
8
BLACK
6
CONTINUOUS
10
3.5649606299212597
20
-3.590551181102362
11
3.5653372834645669
21
-3.5906261023622048
0
LINE
8
BLACK
6
CONTINUOUS
10
3.5076771653543308
20
-3.7389763779527558
11
3.5076771653543308
21
-3.8535433070866141
0
LINE
8
BLACK
6
CONTINUOUS
10
3.5076771653543308
20
-3.8535433070866141
11
3.5631889763779525
21
-3.8535433070866141
0
LINE
8
BLACK
6
CONTINUOUS
10
3.5631889763779525
20
-3.8535433070866141
11
3.5631889763779525
21
-3.7389763779527558
0
LINE
8
BLACK
6
CONTINUOUS
10
3.5631889763779525
20
-3.7389763779527558
11
3.5076771653543308
21
-3.7389763779527558
0
LINE
8
BLACK
6
CONTINUOUS
10
3.4911417322834644
20
-3.5925196850393699
11
3.4911417322834644
21
-3.7362204724409449
0
LINE
8
BLACK
6
CONTINUOUS
10
3.4911417322834644
20
-3.7362204724409449
11
3.563976377952756
21
-3.7362204724409449
0
LINE
8
BLACK
6
CONTINUOUS
10
3.563976377952756
20
-3.7362204724409449
11
3.563976377952756
21
-3.5925196850393699
0
LINE
8
BLACK
6
CONTINUOUS
10
3.563976377952756
20
-3.5925196850393699
11
3.4911417322834644
21
-3.5925196850393699
0
LINE
8
BLACK
6
CONTINUOUS
10
3.6275420078740157
20
-3.6798229527559054
11
3.6280746850393699
21
-3.6803556299212596
0
LINE
8
BLACK
6
CONTINUOUS
10
3.6280746850393699
20
-3.6803556299212596
11
3.6281496062992127
21
-3.6807322834645668
0
LINE
8
BLACK
6
CONTINUOUS
10
3.6281496062992127
20
-3.6807322834645668
11
3.6281496062992127
21
-3.7972677165354329
0
LINE
8
BLACK
6
CONTINUOUS
10
3.6281496062992127
20
-3.7972677165354329
11
3.6280746850393699
21
-3.7976443700787401
0
LINE
8
BLACK
6
CONTINUOUS
10
3.6280746850393699
20
-3.7976443700787401
11
3.6275420078740157
21
-3.7981770472440943
0
LINE
8
BLACK
6
CONTINUOUS
10
3.6275420078740157
20
-3.7981770472440943
11
3.6271653543307085
21
-3.7982519685039371
0
LINE
8
BLACK
6
CONTINUOUS
10
3.6271653543307085
20
-3.7982519685039371
11
3.5696850393700785
21
-3.7982519685039371
0
LINE
8
BLACK
6
CONTINUOUS
10
3.5696850393700785
20
-3.7982519685039371
11
3.5693083858267718
21
-3.7981770472440943
0
LINE
8
BLACK
6
CONTINUOUS
10
3.5693083858267718
20
-3.7981770472440943
11
3.5687757086614171
21
-3.7976443700787401
0
LINE
8
BLACK
6
CONTINUOUS
10
3.5687757086614171
20
-3.7976443700787401
11
3.5687007874015748
21
-3.7972677165354329
0
LINE
8
BLACK
6
CONTINUOUS
10
3.5687007874015748
20
-3.7972677165354329
11
3.5687007874015748
21
-3.6807322834645668
0
LINE
8
BLACK
6
CONTINUOUS
10
3.5687007874015748
20
-3.6807322834645668
11
3.5687757086614171
21
-3.6803556299212596
0
LINE
8
BLACK
6
CONTINUOUS
10
3.5687757086614171
20
-3.6803556299212596
11
3.5693083858267718
21
-3.6798229527559054
0
LINE
8
BLACK
6
CONTINUOUS
10
3.5693083858267718
20
-3.6798229527559054
11
3.5696850393700785
21
-3.6797480314960631
0
LINE
8
BLACK
6
CONTINUOUS
10
3.5696850393700785
20
-3.6797480314960631
11
3.6271653543307085
21
-3.6797480314960631
0
LINE
8
BLACK
6
CONTINUOUS
10
3.6271653543307085
20
-3.6797480314960631
11
3.6275420078740157
21
-3.6798229527559054
0
LINE
8
BLACK
6
CONTINUOUS
10
3.5706692913385827
20
-3.681716535433071
11
3.5706692913385827
21
-3.7962834645669292
0
LINE
8
BLACK
6
CONTINUOUS
10
3.5706692913385827
20
-3.7962834645669292
11
3.6261811023622048
21
-3.7962834645669292
0
LINE
8
BLACK
6
CONTINUOUS
10
3.6261811023622048
20
-3.7962834645669292
11
3.6261811023622048
21
-3.681716535433071
0
LINE
8
BLACK
6
CONTINUOUS
10
3.6261811023622048
20
-3.681716535433071
11
3.5706692913385827
21
-3.681716535433071
0
LINE
8
BLACK
6
CONTINUOUS
10
3.6944711417322833
20
-3.6798229527559054
11
3.6950038188976375
21
-3.6803556299212596
0
LINE
8
BLACK
6
CONTINUOUS
10
3.6950038188976375
20
-3.6803556299212596
11
3.6950787401574803
21
-3.6807322834645668
0
LINE
8
BLACK
6
CONTINUOUS
10
3.6950787401574803
20
-3.6807322834645668
11
3.6950787401574803
21
-3.7972677165354329
0
LINE
8
BLACK
6
CONTINUOUS
10
3.6950787401574803
20
-3.7972677165354329
11
3.6950038188976375
21
-3.7976443700787401
0
LINE
8
BLACK
6
CONTINUOUS
10
3.6950038188976375
20
-3.7976443700787401
11
3.6944711417322833
21
-3.7981770472440943
0
LINE
8
BLACK
6
CONTINUOUS
10
3.6944711417322833
20
-3.7981770472440943
11
3.6940944881889761
21
-3.7982519685039371
0
LINE
8
BLACK
6
CONTINUOUS
10
3.6940944881889761
20
-3.7982519685039371
11
3.6366141732283466
21
-3.7982519685039371
0
LINE
8
BLACK
6
CONTINUOUS
10
3.6366141732283466
20
-3.7982519685039371
11
3.6362375196850394
21
-3.7981770472440943
0
LINE
8
BLACK
6
CONTINUOUS
10
3.6362375196850394
20
-3.7981770472440943
11
3.6357048425196852
21
-3.7976443700787401
0
LINE
8
BLACK
6
CONTINUOUS
10
3.6357048425196852
20
-3.7976443700787401
11
3.6356299212598424
21
-3.7972677165354329
0
LINE
8
BLACK
6
CONTINUOUS
10
3.6356299212598424
20
-3.7972677165354329
11
3.6356299212598424
21
-3.6807322834645668
0
LINE
8
BLACK
6
CONTINUOUS
10
3.6356299212598424
20
-3.6807322834645668
11
3.6357048425196852
21
-3.6803556299212596
0
LINE
8
BLACK
6
CONTINUOUS
10
3.6357048425196852
20
-3.6803556299212596
11
3.6362375196850394
21
-3.6798229527559054
0
LINE
8
BLACK
6
CONTINUOUS
10
3.6362375196850394
20
-3.6798229527559054
11
3.6366141732283466
21
-3.6797480314960631
0
LINE
8
BLACK
6
CONTINUOUS
10
3.6366141732283466
20
-3.6797480314960631
11
3.6940944881889761
21
-3.6797480314960631
0
LINE
8
BLACK
6
CONTINUOUS
10
3.6940944881889761
20
-3.6797480314960631
11
3.6944711417322833
21
-3.6798229527559054
0
LINE
8
BLACK
6
CONTINUOUS
10
3.6375984251968503
20
-3.681716535433071
11
3.6375984251968503
21
-3.7962834645669292
0
LINE
8
BLACK
6
CONTINUOUS
10
3.6375984251968503
20
-3.7962834645669292
11
3.6931102362204724
21
-3.7962834645669292
0
LINE
8
BLACK
6
CONTINUOUS
10
3.6931102362204724
20
-3.7962834645669292
11
3.6931102362204724
21
-3.681716535433071
0
LINE
8
BLACK
6
CONTINUOUS
10
3.6931102362204724
20
-3.681716535433071
11
3.6375984251968503
21
-3.681716535433071
0
LINE
8
BLACK
6
CONTINUOUS
10
3.7692742913385824
20
-3.6797505118110236
11
3.769806968503937
21
-3.6802831889763779
0
LINE
8
BLACK
6
CONTINUOUS
10
3.769806968503937
20
-3.6802831889763779
11
3.7698818897637794
21
-3.680659842519685
0
LINE
8
BLACK
6
CONTINUOUS
10
3.7698818897637794
20
-3.680659842519685
11
3.7698818897637794
21
-3.7971952755905511
0
LINE
8
BLACK
6
CONTINUOUS
10
3.7698818897637794
20
-3.7971952755905511
11
3.769806968503937
21
-3.7975719291338583
0
LINE
8
BLACK
6
CONTINUOUS
10
3.769806968503937
20
-3.7975719291338583
11
3.7692742913385824
21
-3.7981046062992125
0
LINE
8
BLACK
6
CONTINUOUS
10
3.7692742913385824
20
-3.7981046062992125
11
3.7688976377952756
21
-3.7981795275590549
0
LINE
8
BLACK
6
CONTINUOUS
10
3.7688976377952756
20
-3.7981795275590549
11
3.7114173228346456
21
-3.7981795275590549
0
LINE
8
BLACK
6
CONTINUOUS
10
3.7114173228346456
20
-3.7981795275590549
11
3.7110406692913385
21
-3.7981046062992125
0
LINE
8
BLACK
6
CONTINUOUS
10
3.7110406692913385
20
-3.7981046062992125
11
3.7105079921259843
21
-3.7975719291338583
0
LINE
8
BLACK
6
CONTINUOUS
10
3.7105079921259843
20
-3.7975719291338583
11
3.7104330708661415
21
-3.7971952755905511
0
LINE
8
BLACK
6
CONTINUOUS
10
3.7104330708661415
20
-3.7971952755905511
11
3.7104330708661415
21
-3.680659842519685
0
LINE
8
BLACK
6
CONTINUOUS
10
3.7104330708661415
20
-3.680659842519685
11
3.7105079921259843
21
-3.6802831889763779
0
LINE
8
BLACK
6
CONTINUOUS
10
3.7105079921259843
20
-3.6802831889763779
11
3.7110406692913385
21
-3.6797505118110236
0
LINE
8
BLACK
6
CONTINUOUS
10
3.7110406692913385
20
-3.6797505118110236
11
3.7114173228346456
21
-3.6796755905511809
0
LINE
8
BLACK
6
CONTINUOUS
10
3.7114173228346456
20
-3.6796755905511809
11
3.7688976377952756
21
-3.6796755905511809
0
LINE
8
BLACK
6
CONTINUOUS
10
3.7688976377952756
20
-3.6796755905511809
11
3.7692742913385824
21
-3.6797505118110236
0
LINE
8
BLACK
6
CONTINUOUS
10
3.7124015748031494
20
-3.6816440944881887
11
3.7124015748031494
21
-3.796211023622047
0
LINE
8
BLACK
6
CONTINUOUS
10
3.7124015748031494
20
-3.796211023622047
11
3.7679133858267715
21
-3.796211023622047
0
LINE
8
BLACK
6
CONTINUOUS
10
3.7679133858267715
20
-3.796211023622047
11
3.7679133858267715
21
-3.6816440944881887
0
LINE
8
BLACK
6
CONTINUOUS
10
3.7679133858267715
20
-3.6816440944881887
11
3.7124015748031494
21
-3.6816440944881887
0
LINE
8
BLACK
6
CONTINUOUS
10
3.7889593307086615
20
-3.5382638976377954
11
3.7894920078740157
21
-3.5387965748031496
0
LINE
8
BLACK
6
CONTINUOUS
10
3.7894920078740157
20
-3.5387965748031496
11
3.7895669291338581
21
-3.5391732283464568
0
LINE
8
BLACK
6
CONTINUOUS
10
3.7895669291338581
20
-3.5391732283464568
11
3.7895669291338581
21
-3.6557086614173229
0
LINE
8
BLACK
6
CONTINUOUS
10
3.7895669291338581
20
-3.6557086614173229
11
3.7894920078740157
21
-3.6560853149606301
0
LINE
8
BLACK
6
CONTINUOUS
10
3.7894920078740157
20
-3.6560853149606301
11
3.7889593307086615
21
-3.6566179921259843
0
LINE
8
BLACK
6
CONTINUOUS
10
3.7889593307086615
20
-3.6566179921259843
11
3.7885826771653544
21
-3.6566929133858266
0
LINE
8
BLACK
6
CONTINUOUS
10
3.7885826771653544
20
-3.6566929133858266
11
3.7311023622047244
21
-3.6566929133858266
0
LINE
8
BLACK
6
CONTINUOUS
10
3.7311023622047244
20
-3.6566929133858266
11
3.7307257086614172
21
-3.6566179921259843
0
LINE
8
BLACK
6
CONTINUOUS
10
3.7307257086614172
20
-3.6566179921259843
11
3.730193031496063
21
-3.6560853149606301
0
LINE
8
BLACK
6
CONTINUOUS
10
3.730193031496063
20
-3.6560853149606301
11
3.7301181102362202
21
-3.6557086614173229
0
LINE
8
BLACK
6
CONTINUOUS
10
3.7301181102362202
20
-3.6557086614173229
11
3.7301181102362202
21
-3.5391732283464568
0
LINE
8
BLACK
6
CONTINUOUS
10
3.7301181102362202
20
-3.5391732283464568
11
3.730193031496063
21
-3.5387965748031496
0
LINE
8
BLACK
6
CONTINUOUS
10
3.730193031496063
20
-3.5387965748031496
11
3.7307257086614172
21
-3.5382638976377954
0
LINE
8
BLACK
6
CONTINUOUS
10
3.7307257086614172
20
-3.5382638976377954
11
3.7311023622047244
21
-3.5381889763779526
0
LINE
8
BLACK
6
CONTINUOUS
10
3.7311023622047244
20
-3.5381889763779526
11
3.7885826771653544
21
-3.5381889763779526
0
LINE
8
BLACK
6
CONTINUOUS
10
3.7885826771653544
20
-3.5381889763779526
11
3.7889593307086615
21
-3.5382638976377954
0
LINE
8
BLACK
6
CONTINUOUS
10
3.7320866141732281
20
-3.5401574803149605
11
3.7320866141732281
21
-3.6547244094488187
0
LINE
8
BLACK
6
CONTINUOUS
10
3.7320866141732281
20
-3.6547244094488187
11
3.7875984251968502
21
-3.6547244094488187
0
LINE
8
BLACK
6
CONTINUOUS
10
3.7875984251968502
20
-3.6547244094488187
11
3.7875984251968502
21
-3.5401574803149605
0
LINE
8
BLACK
6
CONTINUOUS
10
3.7875984251968502
20
-3.5401574803149605
11
3.7320866141732281
21
-3.5401574803149605
0
LINE
8
BLACK
6
CONTINUOUS
10
3.509431771653543
20
-3.3138544488188977
11
3.5099644488188977
21
-3.3143871259842519
0
LINE
8
BLACK
6
CONTINUOUS
10
3.5099644488188977
20
-3.3143871259842519
11
3.51003937007874
21
-3.3147637795275591
0
LINE
8
BLACK
6
CONTINUOUS
10
3.51003937007874
20
-3.3147637795275591
11
3.51003937007874
21
-3.4312992125984252
0
LINE
8
BLACK
6
CONTINUOUS
10
3.51003937007874
20
-3.4312992125984252
11
3.5099644488188977
21
-3.4316758661417324
0
LINE
8
BLACK
6
CONTINUOUS
10
3.5099644488188977
20
-3.4316758661417324
11
3.5095537007874014
21
-3.4320866141732282
0
LINE
8
BLACK
6
CONTINUOUS
10
3.5095537007874014
20
-3.4320866141732282
11
3.5099644488188977
21
-3.4324973622047241
0
LINE
8
BLACK
6
CONTINUOUS
10
3.5099644488188977
20
-3.4324973622047241
11
3.51003937007874
21
-3.4328740157480313
0
LINE
8
BLACK
6
CONTINUOUS
10
3.51003937007874
20
-3.4328740157480313
11
3.51003937007874
21
-3.5494094488188974
0
LINE
8
BLACK
6
CONTINUOUS
10
3.51003937007874
20
-3.5494094488188974
11
3.5099644488188977
21
-3.5497861023622046
0
LINE
8
BLACK
6
CONTINUOUS
10
3.5099644488188977
20
-3.5497861023622046
11
3.509431771653543
21
-3.5503187795275588
0
LINE
8
BLACK
6
CONTINUOUS
10
3.509431771653543
20
-3.5503187795275588
11
3.5090551181102363
21
-3.5503937007874016
0
LINE
8
BLACK
6
CONTINUOUS
10
3.5090551181102363
20
-3.5503937007874016
11
3.4515748031496063
21
-3.5503937007874016
0
LINE
8
BLACK
6
CONTINUOUS
10
3.4515748031496063
20
-3.5503937007874016
11
3.4511981496062991
21
-3.5503187795275588
0
LINE
8
BLACK
6
CONTINUOUS
10
3.4511981496062991
20
-3.5503187795275588
11
3.4506654724409449
21
-3.5497861023622046
0
LINE
8
BLACK
6
CONTINUOUS
10
3.4506654724409449
20
-3.5497861023622046
11
3.4505905511811021
21
-3.5494094488188974
0
LINE
8
BLACK
6
CONTINUOUS
10
3.4505905511811021
20
-3.5494094488188974
11
3.4505905511811021
21
-3.4328740157480313
0
LINE
8
BLACK
6
CONTINUOUS
10
3.4505905511811021
20
-3.4328740157480313
11
3.4506654724409449
21
-3.4324973622047241
0
LINE
8
BLACK
6
CONTINUOUS
10
3.4506654724409449
20
-3.4324973622047241
11
3.4510762204724408
21
-3.4320866141732282
0
LINE
8
BLACK
6
CONTINUOUS
10
3.4510762204724408
20
-3.4320866141732282
11
3.4506654724409449
21
-3.4316758661417324
0
LINE
8
BLACK
6
CONTINUOUS
10
3.4506654724409449
20
-3.4316758661417324
11
3.4505905511811021
21
-3.4312992125984252
0
LINE
8
BLACK
6
CONTINUOUS
10
3.4505905511811021
20
-3.4312992125984252
11
3.4505905511811021
21
-3.3147637795275591
0
LINE
8
BLACK
6
CONTINUOUS
10
3.4505905511811021
20
-3.3147637795275591
11
3.4506654724409449
21
-3.3143871259842519
0
LINE
8
BLACK
6
CONTINUOUS
10
3.4506654724409449
20
-3.3143871259842519
11
3.4511981496062991
21
-3.3138544488188977
0
LINE
8
BLACK
6
CONTINUOUS
10
3.4511981496062991
20
-3.3138544488188977
11
3.4515748031496063
21
-3.3137795275590549
0
LINE
8
BLACK
6
CONTINUOUS
10
3.4515748031496063
20
-3.3137795275590549
11
3.5090551181102363
21
-3.3137795275590549
0
LINE
8
BLACK
6
CONTINUOUS
10
3.5090551181102363
20
-3.3137795275590549
11
3.509431771653543
21
-3.3138544488188977
0
LINE
8
BLACK
6
CONTINUOUS
10
3.45255905511811
20
-3.4338582677165355
11
3.45255905511811
21
-3.5484251968503937
0
LINE
8
BLACK
6
CONTINUOUS
10
3.45255905511811
20
-3.5484251968503937
11
3.5080708661417321
21
-3.5484251968503937
0
LINE
8
BLACK
6
CONTINUOUS
10
3.5080708661417321
20
-3.5484251968503937
11
3.5080708661417321
21
-3.4338582677165355
0
LINE
8
BLACK
6
CONTINUOUS
10
3.5080708661417321
20
-3.4338582677165355
11
3.45255905511811
21
-3.4338582677165355
0
LINE
8
BLACK
6
CONTINUOUS
10
3.45255905511811
20
-3.3157480314960628
11
3.45255905511811
21
-3.430314960629921
0
LINE
8
BLACK
6
CONTINUOUS
10
3.45255905511811
20
-3.430314960629921
11
3.5080708661417321
21
-3.430314960629921
0
LINE
8
BLACK
6
CONTINUOUS
10
3.5080708661417321
20
-3.430314960629921
11
3.5080708661417321
21
-3.3157480314960628
0
LINE
8
BLACK
6
CONTINUOUS
10
3.5080708661417321
20
-3.3157480314960628
11
3.45255905511811
21
-3.3157480314960628
0
LINE
8
BLACK
6
CONTINUOUS
10
3.579516811023622
20
-3.0614229527559056
11
3.5800494881889762
21
-3.0619556299212598
0
LINE
8
BLACK
6
CONTINUOUS
10
3.5800494881889762
20
-3.0619556299212598
11
3.5801244094488189
21
-3.062332283464567
0
LINE
8
BLACK
6
CONTINUOUS
10
3.5801244094488189
20
-3.062332283464567
11
3.5801244094488189
21
-3.1788677165354331
0
LINE
8
BLACK
6
CONTINUOUS
10
3.5801244094488189
20
-3.1788677165354331
11
3.5800494881889762
21
-3.1792443700787403
0
LINE
8
BLACK
6
CONTINUOUS
10
3.5800494881889762
20
-3.1792443700787403
11
3.579516811023622
21
-3.1797770472440945
0
LINE
8
BLACK
6
CONTINUOUS
10
3.579516811023622
20
-3.1797770472440945
11
3.5791401574803148
21
-3.1798519685039368
0
LINE
8
BLACK
6
CONTINUOUS
10
3.5791401574803148
20
-3.1798519685039368
11
3.5216598425196848
21
-3.1798519685039368
0
LINE
8
BLACK
6
CONTINUOUS
10
3.5216598425196848
20
-3.1798519685039368
11
3.521283188976378
21
-3.1797770472440945
0
LINE
8
BLACK
6
CONTINUOUS
10
3.521283188976378
20
-3.1797770472440945
11
3.5207505118110234
21
-3.1792443700787403
0
LINE
8
BLACK
6
CONTINUOUS
10
3.5207505118110234
20
-3.1792443700787403
11
3.5206755905511811
21
-3.1788677165354331
0
LINE
8
BLACK
6
CONTINUOUS
10
3.5206755905511811
20
-3.1788677165354331
11
3.5206755905511811
21
-3.062332283464567
0
LINE
8
BLACK
6
CONTINUOUS
10
3.5206755905511811
20
-3.062332283464567
11
3.5207505118110234
21
-3.0619556299212598
0
LINE
8
BLACK
6
CONTINUOUS
10
3.5207505118110234
20
-3.0619556299212598
11
3.521283188976378
21
-3.0614229527559056
0
LINE
8
BLACK
6
CONTINUOUS
10
3.521283188976378
20
-3.0614229527559056
11
3.5216598425196848
21
-3.0613480314960628
0
LINE
8
BLACK
6
CONTINUOUS
10
3.5216598425196848
20
-3.0613480314960628
11
3.5791401574803148
21
-3.0613480314960628
0
LINE
8
BLACK
6
CONTINUOUS
10
3.5791401574803148
20
-3.0613480314960628
11
3.579516811023622
21
-3.0614229527559056
0
LINE
8
BLACK
6
CONTINUOUS
10
3.5226440944881889
20
-3.0633165354330707
11
3.5226440944881889
21
-3.1778834645669289
0
LINE
8
BLACK
6
CONTINUOUS
10
3.5226440944881889
20
-3.1778834645669289
11
3.5781559055118111
21
-3.1778834645669289
0
LINE
8
BLACK
6
CONTINUOUS
10
3.5781559055118111
20
-3.1778834645669289
11
3.5781559055118111
21
-3.0633165354330707
0
LINE
8
BLACK
6
CONTINUOUS
10
3.5781559055118111
20
-3.0633165354330707
11
3.5226440944881889
21
-3.0633165354330707
0
LINE
8
BLACK
6
CONTINUOUS
10
4.5137049999999999
20
-2.7487583858267715
11
4.5142376771653545
21
-2.7492910629921261
0
LINE
8
BLACK
6
CONTINUOUS
10
4.5142376771653545
20
-2.7492910629921261
11
4.5143125984251968
21
-2.7496677165354328
0
LINE
8
BLACK
6
CONTINUOUS
10
4.5143125984251968
20
-2.7496677165354328
11
4.5143125984251968
21
-3.0331322834645666
0
LINE
8
BLACK
6
CONTINUOUS
10
4.5143125984251968
20
-3.0331322834645666
11
4.5142376771653545
21
-3.0335089370078738
0
LINE
8
BLACK
6
CONTINUOUS
10
4.5142376771653545
20
-3.0335089370078738
11
4.5137049999999999
21
-3.0340416141732285
0
LINE
8
BLACK
6
CONTINUOUS
10
4.5137049999999999
20
-3.0340416141732285
11
4.5133283464566931
21
-3.0341165354330708
0
LINE
8
BLACK
6
CONTINUOUS
10
4.5133283464566931
20
-3.0341165354330708
11
4.166871653543307
21
-3.0341165354330708
0
LINE
8
BLACK
6
CONTINUOUS
10
4.166871653543307
20
-3.0341165354330708
11
4.1664950000000003
21
-3.0340416141732285
0
LINE
8
BLACK
6
CONTINUOUS
10
4.1664950000000003
20
-3.0340416141732285
11
4.1659623228346456
21
-3.0335089370078738
0
LINE
8
BLACK
6
CONTINUOUS
10
4.1659623228346456
20
-3.0335089370078738
11
4.1658874015748033
21
-3.0331322834645666
0
LINE
8
BLACK
6
CONTINUOUS
10
4.1658874015748033
20
-3.0331322834645666
11
4.1658874015748033
21
-2.7496677165354328
0
LINE
8
BLACK
6
CONTINUOUS
10
4.1658874015748033
20
-2.7496677165354328
11
4.1659623228346456
21
-2.7492910629921261
0
LINE
8
BLACK
6
CONTINUOUS
10
4.1659623228346456
20
-2.7492910629921261
11
4.1664950000000003
21
-2.7487583858267715
0
LINE
8
BLACK
6
CONTINUOUS
10
4.1664950000000003
20
-2.7487583858267715
11
4.166871653543307
21
-2.7486834645669291
0
LINE
8
BLACK
6
CONTINUOUS
10
4.166871653543307
20
-2.7486834645669291
11
4.5133283464566931
21
-2.7486834645669291
0
LINE
8
BLACK
6
CONTINUOUS
10
4.5133283464566931
20
-2.7486834645669291
11
4.5137049999999999
21
-2.7487583858267715
0
LINE
8
BLACK
6
CONTINUOUS
10
4.1678559055118107
20
-2.750651968503937
11
4.1678559055118107
21
-3.0321480314960629
0
LINE
8
BLACK
6
CONTINUOUS
10
4.1678559055118107
20
-3.0321480314960629
11
4.5123440944881885
21
-3.0321480314960629
0
LINE
8
BLACK
6
CONTINUOUS
10
4.5123440944881885
20
-3.0321480314960629
11
4.5123440944881885
21
-2.750651968503937
0
LINE
8
BLACK
6
CONTINUOUS
10
4.5123440944881885
20
-2.750651968503937
11
4.1678559055118107
21
-2.750651968503937
0
LINE
8
BLACK
6
CONTINUOUS
10
4.0161246850393697
20
-2.7417095669291336
11
4.0166573622047244
21
-2.7422422440944882
0
LINE
8
BLACK
6
CONTINUOUS
10
4.0166573622047244
20
-2.7422422440944882
11
4.0167322834645667
21
-2.7426188976377954
0
LINE
8
BLACK
6
CONTINUOUS
10
4.0167322834645667
20
-2.7426188976377954
11
4.0167322834645667
21
-3.0260834645669292
0
LINE
8
BLACK
6
CONTINUOUS
10
4.0167322834645667
20
-3.0260834645669292
11
4.0166573622047244
21
-3.026460118110236
0
LINE
8
BLACK
6
CONTINUOUS
10
4.0166573622047244
20
-3.026460118110236
11
4.0161246850393697
21
-3.0269927952755906
0
LINE
8
BLACK
6
CONTINUOUS
10
4.0161246850393697
20
-3.0269927952755906
11
4.015748031496063
21
-3.0270677165354329
0
LINE
8
BLACK
6
CONTINUOUS
10
4.015748031496063
20
-3.0270677165354329
11
3.6692913385826769
21
-3.0270677165354329
0
LINE
8
BLACK
6
CONTINUOUS
10
3.6692913385826769
20
-3.0270677165354329
11
3.6689146850393701
21
-3.0269927952755906
0
LINE
8
BLACK
6
CONTINUOUS
10
3.6689146850393701
20
-3.0269927952755906
11
3.6683820078740155
21
-3.026460118110236
0
LINE
8
BLACK
6
CONTINUOUS
10
3.6683820078740155
20
-3.026460118110236
11
3.6683070866141732
21
-3.0260834645669292
0
LINE
8
BLACK
6
CONTINUOUS
10
3.6683070866141732
20
-3.0260834645669292
11
3.6683070866141732
21
-2.7426188976377954
0
LINE
8
BLACK
6
CONTINUOUS
10
3.6683070866141732
20
-2.7426188976377954
11
3.6683820078740155
21
-2.7422422440944882
0
LINE
8
BLACK
6
CONTINUOUS
10
3.6683820078740155
20
-2.7422422440944882
11
3.6689146850393701
21
-2.7417095669291336
0
LINE
8
BLACK
6
CONTINUOUS
10
3.6689146850393701
20
-2.7417095669291336
11
3.6692913385826769
21
-2.7416346456692913
0
LINE
8
BLACK
6
CONTINUOUS
10
3.6692913385826769
20
-2.7416346456692913
11
4.015748031496063
21
-2.7416346456692913
0
LINE
8
BLACK
6
CONTINUOUS
10
4.015748031496063
20
-2.7416346456692913
11
4.0161246850393697
21
-2.7417095669291336
0
LINE
8
BLACK
6
CONTINUOUS
10
3.670275590551181
20
-2.7436031496062991
11
3.670275590551181
21
-3.0250992125984251
0
LINE
8
BLACK
6
CONTINUOUS
10
3.670275590551181
20
-3.0250992125984251
11
4.0147637795275593
21
-3.0250992125984251
0
LINE
8
BLACK
6
CONTINUOUS
10
4.0147637795275593
20
-3.0250992125984251
11
4.0147637795275593
21
-2.7436031496062991
0
LINE
8
BLACK
6
CONTINUOUS
10
4.0147637795275593
20
-2.7436031496062991
11
3.670275590551181
21
-2.7436031496062991
0
LINE
8
BLACK
6
CONTINUOUS
10
4.1349593307086616
20
-2.8626615354330709
11
4.1354920078740154
21
-2.8631942125984251
0
LINE
8
BLACK
6
CONTINUOUS
10
4.1354920078740154
20
-2.8631942125984251
11
4.1355669291338586
21
-2.8635708661417323
0
LINE
8
BLACK
6
CONTINUOUS
10
4.1355669291338586
20
-2.8635708661417323
11
4.1355669291338586
21
-2.9974291338582675
0
LINE
8
BLACK
6
CONTINUOUS
10
4.1355669291338586
20
-2.9974291338582675
11
4.1354920078740154
21
-2.9978057874015747
0
LINE
8
BLACK
6
CONTINUOUS
10
4.1354920078740154
20
-2.9978057874015747
11
4.1349593307086616
21
-2.9983384645669289
0
LINE
8
BLACK
6
CONTINUOUS
10
4.1349593307086616
20
-2.9983384645669289
11
4.134582677165354
21
-2.9984133858267716
0
LINE
8
BLACK
6
CONTINUOUS
10
4.134582677165354
20
-2.9984133858267716
11
4.0574173228346453
21
-2.9984133858267716
0
LINE
8
BLACK
6
CONTINUOUS
10
4.0574173228346453
20
-2.9984133858267716
11
4.0570406692913386
21
-2.9983384645669289
0
LINE
8
BLACK
6
CONTINUOUS
10
4.0570406692913386
20
-2.9983384645669289
11
4.0565079921259839
21
-2.9978057874015747
0
LINE
8
BLACK
6
CONTINUOUS
10
4.0565079921259839
20
-2.9978057874015747
11
4.0564330708661416
21
-2.9974291338582675
0
LINE
8
BLACK
6
CONTINUOUS
10
4.0564330708661416
20
-2.9974291338582675
11
4.0564330708661416
21
-2.8635708661417323
0
LINE
8
BLACK
6
CONTINUOUS
10
4.0564330708661416
20
-2.8635708661417323
11
4.0565079921259839
21
-2.8631942125984251
0
LINE
8
BLACK
6
CONTINUOUS
10
4.0565079921259839
20
-2.8631942125984251
11
4.0570406692913386
21
-2.8626615354330709
0
LINE
8
BLACK
6
CONTINUOUS
10
4.0570406692913386
20
-2.8626615354330709
11
4.0574173228346453
21
-2.8625866141732281
0
LINE
8
BLACK
6
CONTINUOUS
10
4.0574173228346453
20
-2.8625866141732281
11
4.134582677165354
21
-2.8625866141732281
0
LINE
8
BLACK
6
CONTINUOUS
10
4.134582677165354
20
-2.8625866141732281
11
4.1349593307086616
21
-2.8626615354330709
0
LINE
8
BLACK
6
CONTINUOUS
10
4.0584015748031499
20
-2.864555118110236
11
4.0584015748031499
21
-2.9964448818897638
0
LINE
8
BLACK
6
CONTINUOUS
10
4.0584015748031499
20
-2.9964448818897638
11
4.1335984251968503
21
-2.9964448818897638
0
LINE
8
BLACK
6
CONTINUOUS
10
4.1335984251968503
20
-2.9964448818897638
11
4.1335984251968503
21
-2.864555118110236
0
LINE
8
BLACK
6
CONTINUOUS
10
4.1335984251968503
20
-2.864555118110236
11
4.0584015748031499
21
-2.864555118110236
0
LINE
8
BLACK
6
CONTINUOUS
10
3.5940774409448819
20
-2.8566615354330707
11
3.5946101181102361
21
-2.8571942125984253
0
LINE
8
BLACK
6
CONTINUOUS
10
3.5946101181102361
20
-2.8571942125984253
11
3.5946850393700784
21
-2.8575708661417321
0
LINE
8
BLACK
6
CONTINUOUS
10
3.5946850393700784
20
-2.8575708661417321
11
3.5946850393700784
21
-2.9914291338582677
0
LINE
8
BLACK
6
CONTINUOUS
10
3.5946850393700784
20
-2.9914291338582677
11
3.5946101181102361
21
-2.9918057874015749
0
LINE
8
BLACK
6
CONTINUOUS
10
3.5946101181102361
20
-2.9918057874015749
11
3.5940774409448819
21
-2.9923384645669291
0
LINE
8
BLACK
6
CONTINUOUS
10
3.5940774409448819
20
-2.9923384645669291
11
3.5937007874015747
21
-2.9924133858267714
0
LINE
8
BLACK
6
CONTINUOUS
10
3.5937007874015747
20
-2.9924133858267714
11
3.516535433070866
21
-2.9924133858267714
0
LINE
8
BLACK
6
CONTINUOUS
10
3.516535433070866
20
-2.9924133858267714
11
3.5161587795275588
21
-2.9923384645669291
0
LINE
8
BLACK
6
CONTINUOUS
10
3.5161587795275588
20
-2.9923384645669291
11
3.5156261023622046
21
-2.9918057874015749
0
LINE
8
BLACK
6
CONTINUOUS
10
3.5156261023622046
20
-2.9918057874015749
11
3.5155511811023623
21
-2.9914291338582677
0
LINE
8
BLACK
6
CONTINUOUS
10
3.5155511811023623
20
-2.9914291338582677
11
3.5155511811023623
21
-2.8575708661417321
0
LINE
8
BLACK
6
CONTINUOUS
10
3.5155511811023623
20
-2.8575708661417321
11
3.5156261023622046
21
-2.8571942125984253
0
LINE
8
BLACK
6
CONTINUOUS
10
3.5156261023622046
20
-2.8571942125984253
11
3.5161587795275588
21
-2.8566615354330707
0
LINE
8
BLACK
6
CONTINUOUS
10
3.5161587795275588
20
-2.8566615354330707
11
3.516535433070866
21
-2.8565866141732283
0
LINE
8
BLACK
6
CONTINUOUS
10
3.516535433070866
20
-2.8565866141732283
11
3.5937007874015747
21
-2.8565866141732283
0
LINE
8
BLACK
6
CONTINUOUS
10
3.5937007874015747
20
-2.8565866141732283
11
3.5940774409448819
21
-2.8566615354330707
0
LINE
8
BLACK
6
CONTINUOUS
10
3.5175196850393702
20
-2.8585551181102362
11
3.5175196850393702
21
-2.9904448818897635
0
LINE
8
BLACK
6
CONTINUOUS
10
3.5175196850393702
20
-2.9904448818897635
11
3.5927165354330706
21
-2.9904448818897635
0
LINE
8
BLACK
6
CONTINUOUS
10
3.5927165354330706
20
-2.9904448818897635
11
3.5927165354330706
21
-2.8585551181102362
0
LINE
8
BLACK
6
CONTINUOUS
10
3.5927165354330706
20
-2.8585551181102362
11
3.5175196850393702
21
-2.8585551181102362
0
LINE
8
BLACK
6
CONTINUOUS
10
3.6590380708661416
20
-2.8548229527559053
11
3.6595707480314958
21
-2.8553556299212599
0
LINE
8
BLACK
6
CONTINUOUS
10
3.6595707480314958
20
-2.8553556299212599
11
3.6596456692913386
21
-2.8557322834645666
0
LINE
8
BLACK
6
CONTINUOUS
10
3.6596456692913386
20
-2.8557322834645666
11
3.6596456692913386
21
-2.9722677165354332
0
LINE
8
BLACK
6
CONTINUOUS
10
3.6596456692913386
20
-2.9722677165354332
11
3.6595707480314958
21
-2.9726443700787399
0
LINE
8
BLACK
6
CONTINUOUS
10
3.6595707480314958
20
-2.9726443700787399
11
3.6590380708661416
21
-2.9731770472440946
0
LINE
8
BLACK
6
CONTINUOUS
10
3.6590380708661416
20
-2.9731770472440946
11
3.6586614173228345
21
-2.9732519685039369
0
LINE
8
BLACK
6
CONTINUOUS
10
3.6586614173228345
20
-2.9732519685039369
11
3.6011811023622045
21
-2.9732519685039369
0
LINE
8
BLACK
6
CONTINUOUS
10
3.6011811023622045
20
-2.9732519685039369
11
3.6008044488188977
21
-2.9731770472440946
0
LINE
8
BLACK
6
CONTINUOUS
10
3.6008044488188977
20
-2.9731770472440946
11
3.6002717716535431
21
-2.9726443700787399
0
LINE
8
BLACK
6
CONTINUOUS
10
3.6002717716535431
20
-2.9726443700787399
11
3.6001968503937007
21
-2.9722677165354332
0
LINE
8
BLACK
6
CONTINUOUS
10
3.6001968503937007
20
-2.9722677165354332
11
3.6001968503937007
21
-2.8557322834645666
0
LINE
8
BLACK
6
CONTINUOUS
10
3.6001968503937007
20
-2.8557322834645666
11
3.6002717716535431
21
-2.8553556299212599
0
LINE
8
BLACK
6
CONTINUOUS
10
3.6002717716535431
20
-2.8553556299212599
11
3.6008044488188977
21
-2.8548229527559053
0
LINE
8
BLACK
6
CONTINUOUS
10
3.6008044488188977
20
-2.8548229527559053
11
3.6011811023622045
21
-2.8547480314960629
0
LINE
8
BLACK
6
CONTINUOUS
10
3.6011811023622045
20
-2.8547480314960629
11
3.6586614173228345
21
-2.8547480314960629
0
LINE
8
BLACK
6
CONTINUOUS
10
3.6586614173228345
20
-2.8547480314960629
11
3.6590380708661416
21
-2.8548229527559053
0
LINE
8
BLACK
6
CONTINUOUS
10
3.6021653543307086
20
-2.8567165354330708
11
3.6021653543307086
21
-2.971283464566929
0
LINE
8
BLACK
6
CONTINUOUS
10
3.6021653543307086
20
-2.971283464566929
11
3.6576771653543307
21
-2.971283464566929
0
LINE
8
BLACK
6
CONTINUOUS
10
3.6576771653543307
20
-2.971283464566929
11
3.6576771653543307
21
-2.8567165354330708
0
LINE
8
BLACK
6
CONTINUOUS
10
3.6576771653543307
20
-2.8567165354330708
11
3.6021653543307086
21
-2.8567165354330708
0
LINE
8
BLACK
6
CONTINUOUS
10
4.2423719291338582
20
-2.6868859448818898
11
4.2429046062992128
21
-2.687418622047244
0
LINE
8
BLACK
6
CONTINUOUS
10
4.2429046062992128
20
-2.687418622047244
11
4.2429795275590552
21
-2.6877952755905512
0
LINE
8
BLACK
6
CONTINUOUS
10
4.2429795275590552
20
-2.6877952755905512
11
4.2429795275590552
21
-2.7452755905511812
0
LINE
8
BLACK
6
CONTINUOUS
10
4.2429795275590552
20
-2.7452755905511812
11
4.2429046062992128
21
-2.7456522440944879
0
LINE
8
BLACK
6
CONTINUOUS
10
4.2429046062992128
20
-2.7456522440944879
11
4.2423719291338582
21
-2.7461849212598426
0
LINE
8
BLACK
6
CONTINUOUS
10
4.2423719291338582
20
-2.7461849212598426
11
4.2419952755905515
21
-2.7462598425196849
0
LINE
8
BLACK
6
CONTINUOUS
10
4.2419952755905515
20
-2.7462598425196849
11
4.1257244094488188
21
-2.7462598425196849
0
LINE
8
BLACK
6
CONTINUOUS
10
4.1257244094488188
20
-2.7462598425196849
11
4.1257244094488188
21
-2.8384952755905513
0
LINE
8
BLACK
6
CONTINUOUS
10
4.1257244094488188
20
-2.8384952755905513
11
4.1256494881889765
21
-2.838871929133858
0
LINE
8
BLACK
6
CONTINUOUS
10
4.1256494881889765
20
-2.838871929133858
11
4.1251168110236218
21
-2.8394046062992127
0
LINE
8
BLACK
6
CONTINUOUS
10
4.1251168110236218
20
-2.8394046062992127
11
4.1247401574803151
21
-2.839479527559055
0
LINE
8
BLACK
6
CONTINUOUS
10
4.1247401574803151
20
-2.839479527559055
11
4.0672598425196851
21
-2.839479527559055
0
LINE
8
BLACK
6
CONTINUOUS
10
4.0672598425196851
20
-2.839479527559055
11
4.0668831889763775
21
-2.8394046062992127
0
LINE
8
BLACK
6
CONTINUOUS
10
4.0668831889763775
20
-2.8394046062992127
11
4.0663505118110237
21
-2.838871929133858
0
LINE
8
BLACK
6
CONTINUOUS
10
4.0663505118110237
20
-2.838871929133858
11
4.0662755905511814
21
-2.8384952755905513
0
LINE
8
BLACK
6
CONTINUOUS
10
4.0662755905511814
20
-2.8384952755905513
11
4.0662755905511814
21
-2.7219598425196851
0
LINE
8
BLACK
6
CONTINUOUS
10
4.0662755905511814
20
-2.7219598425196851
11
4.0663505118110237
21
-2.721583188976378
0
LINE
8
BLACK
6
CONTINUOUS
10
4.0663505118110237
20
-2.721583188976378
11
4.0668831889763775
21
-2.7210505118110238
0
LINE
8
BLACK
6
CONTINUOUS
10
4.0668831889763775
20
-2.7210505118110238
11
4.0672598425196851
21
-2.720975590551181
0
LINE
8
BLACK
6
CONTINUOUS
10
4.0672598425196851
20
-2.720975590551181
11
4.1244755905511807
21
-2.720975590551181
0
LINE
8
BLACK
6
CONTINUOUS
10
4.1244755905511807
20
-2.720975590551181
11
4.1244755905511807
21
-2.6877952755905512
0
LINE
8
BLACK
6
CONTINUOUS
10
4.1244755905511807
20
-2.6877952755905512
11
4.1245505118110239
21
-2.687418622047244
0
LINE
8
BLACK
6
CONTINUOUS
10
4.1245505118110239
20
-2.687418622047244
11
4.1250831889763777
21
-2.6868859448818898
0
LINE
8
BLACK
6
CONTINUOUS
10
4.1250831889763777
20
-2.6868859448818898
11
4.1254598425196853
21
-2.686811023622047
0
LINE
8
BLACK
6
CONTINUOUS
10
4.1254598425196853
20
-2.686811023622047
11
4.2419952755905515
21
-2.686811023622047
0
LINE
8
BLACK
6
CONTINUOUS
10
4.2419952755905515
20
-2.686811023622047
11
4.2423719291338582
21
-2.6868859448818898
0
LINE
8
BLACK
6
CONTINUOUS
10
4.0682440944881888
20
-2.7229440944881889
11
4.0682440944881888
21
-2.8375110236220471
0
LINE
8
BLACK
6
CONTINUOUS
10
4.0682440944881888
20
-2.8375110236220471
11
4.1237559055118114
21
-2.8375110236220471
0
LINE
8
BLACK
6
CONTINUOUS
10
4.1237559055118114
20
-2.8375110236220471
11
4.1237559055118114
21
-2.7229440944881889
0
LINE
8
BLACK
6
CONTINUOUS
10
4.1237559055118114
20
-2.7229440944881889
11
4.0682440944881888
21
-2.7229440944881889
0
LINE
8
BLACK
6
CONTINUOUS
10
4.1264440944881891
20
-2.6887795275590549
11
4.1264440944881891
21
-2.744291338582677
0
LINE
8
BLACK
6
CONTINUOUS
10
4.1264440944881891
20
-2.744291338582677
11
4.2410110236220468
21
-2.744291338582677
0
LINE
8
BLACK
6
CONTINUOUS
10
4.2410110236220468
20
-2.744291338582677
11
4.2410110236220468
21
-2.6887795275590549
0
LINE
8
BLACK
6
CONTINUOUS
10
4.2410110236220468
20
-2.6887795275590549
11
4.1264440944881891
21
-2.6887795275590549
0
LINE
8
BLACK
6
CONTINUOUS
10
3.6546443700787399
20
-2.7643505118110236
11
3.6551770472440945
21
-2.7648831889763779
0
LINE
8
BLACK
6
CONTINUOUS
10
3.6551770472440945
20
-2.7648831889763779
11
3.6552519685039369
21
-2.765259842519685
0
LINE
8
BLACK
6
CONTINUOUS
10
3.6552519685039369
20
-2.765259842519685
11
3.6552519685039369
21
-2.822740157480315
0
LINE
8
BLACK
6
CONTINUOUS
10
3.6552519685039369
20
-2.822740157480315
11
3.6551770472440945
21
-2.8231168110236218
0
LINE
8
BLACK
6
CONTINUOUS
10
3.6551770472440945
20
-2.8231168110236218
11
3.6546443700787399
21
-2.8236494881889764
0
LINE
8
BLACK
6
CONTINUOUS
10
3.6546443700787399
20
-2.8236494881889764
11
3.6542677165354331
21
-2.8237244094488188
0
LINE
8
BLACK
6
CONTINUOUS
10
3.6542677165354331
20
-2.8237244094488188
11
3.537732283464567
21
-2.8237244094488188
0
LINE
8
BLACK
6
CONTINUOUS
10
3.537732283464567
20
-2.8237244094488188
11
3.5373556299212598
21
-2.8236494881889764
0
LINE
8
BLACK
6
CONTINUOUS
10
3.5373556299212598
20
-2.8236494881889764
11
3.5368229527559056
21
-2.8231168110236218
0
LINE
8
BLACK
6
CONTINUOUS
10
3.5368229527559056
20
-2.8231168110236218
11
3.5367480314960629
21
-2.822740157480315
0
LINE
8
BLACK
6
CONTINUOUS
10
3.5367480314960629
20
-2.822740157480315
11
3.5367480314960629
21
-2.765259842519685
0
LINE
8
BLACK
6
CONTINUOUS
10
3.5367480314960629
20
-2.765259842519685
11
3.5368229527559056
21
-2.7648831889763779
0
LINE
8
BLACK
6
CONTINUOUS
10
3.5368229527559056
20
-2.7648831889763779
11
3.5373556299212598
21
-2.7643505118110236
0
LINE
8
BLACK
6
CONTINUOUS
10
3.5373556299212598
20
-2.7643505118110236
11
3.537732283464567
21
-2.7642755905511809
0
LINE
8
BLACK
6
CONTINUOUS
10
3.537732283464567
20
-2.7642755905511809
11
3.6542677165354331
21
-2.7642755905511809
0
LINE
8
BLACK
6
CONTINUOUS
10
3.6542677165354331
20
-2.7642755905511809
11
3.6546443700787399
21
-2.7643505118110236
0
LINE
8
BLACK
6
CONTINUOUS
10
3.5387165354330707
20
-2.7662440944881888
11
3.5387165354330707
21
-2.8217559055118109
0
LINE
8
BLACK
6
CONTINUOUS
10
3.5387165354330707
20
-2.8217559055118109
11
3.653283464566929
21
-2.8217559055118109
0
LINE
8
BLACK
6
CONTINUOUS
10
3.653283464566929
20
-2.8217559055118109
11
3.653283464566929
21
-2.7662440944881888
0
LINE
8
BLACK
6
CONTINUOUS
10
3.653283464566929
20
-2.7662440944881888
11
3.5387165354330707
21
-2.7662440944881888
0
CIRCLE
8
BLACK
10
2.5499999999999998
20
-2.7999999999999998
40
0.0068897637795276
0
CIRCLE
8
BLACK
10
4.9500000000000002
20
-2.7999999999999998
40
0.0068897637795276
0
CIRCLE
8
BLACK
10
4.9500000000000002
20
-5.2000000000000002
40
0.0068897637795276
0
CIRCLE
8
BLACK
10
2.5499999999999998
20
-5.2000000000000002
40
0.0068897637795276
0
CIRCLE
8
BLACK
10
3.9226377952755906
20
-5.2199999999999998
40
0.0068897637795276
0
CIRCLE
8
BLACK
10
3.8726377952755904
20
-5.1609448818897636
40
0.0068897637795276
0
CIRCLE
8
BLACK
10
3.8226377952755906
20
-5.1609448818897636
40
0.0068897637795276
0
CIRCLE
8
BLACK
10
3.7726377952755903
20
-5.2199999999999998
40
0.0068897637795276
0
CIRCLE
8
BLACK
10
3.7226377952755905
20
-5.1609448818897636
40
0.0068897637795276
0
CIRCLE
8
BLACK
10
3.6726377952755906
20
-5.1609448818897636
40
0.0068897637795276
0
CIRCLE
8
BLACK
10
3.6226377952755904
20
-5.2199999999999998
40
0.0068897637795276
0
CIRCLE
8
BLACK
10
3.5143700787401575
20
-5.1215748031496062
40
0.0068897637795276
0
CIRCLE
8
BLACK
10
4.0194881889763776
20
-5.1609448818897636
40
0.0068897637795276
0
CIRCLE
8
BLACK
10
3.2080708661417323
20
-5.2199999999999998
40
0.0068897637795276
0
CIRCLE
8
BLACK
10
3.158070866141732
20
-5.1609448818897636
40
0.0068897637795276
0
CIRCLE
8
BLACK
10
3.1080708661417322
20
-5.1609448818897636
40
0.0068897637795276
0
CIRCLE
8
BLACK
10
3.0580708661417324
20
-5.2199999999999998
40
0.0068897637795276
0
CIRCLE
8
BLACK
10
3.0080708661417321
20
-5.1609448818897636
40
0.0068897637795276
0
CIRCLE
8
BLACK
10
2.9580708661417323
20
-5.1609448818897636
40
0.0068897637795276
0
CIRCLE
8
BLACK
10
2.908070866141732
20
-5.2199999999999998
40
0.0068897637795276
0
CIRCLE
8
BLACK
10
2.7998031496062992
20
-5.1215748031496062
40
0.0068897637795276
0
CIRCLE
8
BLACK
10
3.3049212598425197
20
-5.1609448818897636
40
0.0068897637795276
0
CIRCLE
8
BLACK
10
2.9100393700787399
20
-2.7809448818897637
40
0.0068897637795276
0
CIRCLE
8
BLACK
10
2.9600393700787402
20
-2.8399999999999999
40
0.0068897637795276
0
CIRCLE
8
BLACK
10
3.01003937007874
20
-2.8399999999999999
40
0.0068897637795276
0
CIRCLE
8
BLACK
10
3.0600393700787403
20
-2.7809448818897637
40
0.0068897637795276
0
CIRCLE
8
BLACK
10
3.1100393700787401
20
-2.8399999999999999
40
0.0068897637795276
0
CIRCLE
8
BLACK
10
3.1600393700787399
20
-2.8399999999999999
40
0.0068897637795276
0
CIRCLE
8
BLACK
10
3.2100393700787402
20
-2.7809448818897637
40
0.0068897637795276
0
CIRCLE
8
BLACK
10
3.3183070866141731
20
-2.8793700787401573
40
0.0068897637795276
0
CIRCLE
8
BLACK
10
2.8131889763779525
20
-2.8399999999999999
40
0.0068897637795276
0
CIRCLE
8
BLACK
10
2.5299999999999998
20
-3.6999999999999997
40
0.0068897637795276
0
CIRCLE
8
BLACK
10
2.5890551181102364
20
-3.6499999999999999
40
0.0068897637795276
0
CIRCLE
8
BLACK
10
2.5890551181102364
20
-3.6000000000000001
40
0.0068897637795276
0
CIRCLE
8
BLACK
10
2.5299999999999998
20
-3.5499999999999998
40
0.0068897637795276
0
CIRCLE
8
BLACK
10
2.5890551181102364
20
-3.5
40
0.0068897637795276
0
CIRCLE
8
BLACK
10
2.5890551181102364
20
-3.4499999999999997
40
0.0068897637795276
0
CIRCLE
8
BLACK
10
2.5299999999999998
20
-3.3999999999999999
40
0.0068897637795276
0
CIRCLE
8
BLACK
10
2.6284251968503938
20
-3.291732283464567
40
0.0068897637795276
0
CIRCLE
8
BLACK
10
2.5890551181102364
20
-3.7968503937007871
40
0.0068897637795276
0
CIRCLE
8
BLACK
10
2.5299999999999998
20
-4.5999999999999996
40
0.0068897637795276
0
CIRCLE
8
BLACK
10
2.5890551181102364
20
-4.5499999999999998
40
0.0068897637795276
0
CIRCLE
8
BLACK
10
2.5890551181102364
20
-4.5
40
0.0068897637795276
0
CIRCLE
8
BLACK
10
2.5299999999999998
20
-4.4500000000000002
40
0.0068897637795276
0
CIRCLE
8
BLACK
10
2.5890551181102364
20
-4.3999999999999995
40
0.0068897637795276
0
CIRCLE
8
BLACK
10
2.5890551181102364
20
-4.3499999999999996
40
0.0068897637795276
0
CIRCLE
8
BLACK
10
2.5299999999999998
20
-4.2999999999999998
40
0.0068897637795276
0
CIRCLE
8
BLACK
10
2.6284251968503938
20
-4.1917322834645665
40
0.0068897637795276
0
CIRCLE
8
BLACK
10
2.5890551181102364
20
-4.6968503937007871
40
0.0068897637795276
0
CIRCLE
8
BLACK
10
3.5499999999999998
20
-3.23
40
0.0068897637795276
0
CIRCLE
8
BLACK
10
3.6499999999999999
20
-3.23
40
0.0068897637795276
0
CIRCLE
8
BLACK
10
3.5499999999999998
20
-3.3300000000000001
40
0.0068897637795276
0
CIRCLE
8
BLACK
10
3.6499999999999999
20
-3.3300000000000001
40
0.0068897637795276
0
CIRCLE
8
BLACK
10
3.5499999999999998
20
-3.4299999999999997
40
0.0068897637795276
0
CIRCLE
8
BLACK
10
3.6499999999999999
20
-3.4299999999999997
40
0.0068897637795276
0
CIRCLE
8
BLACK
10
3.5499999999999998
20
-3.5299999999999998
40
0.0068897637795276
0
CIRCLE
8
BLACK
10
3.6499999999999999
20
-3.5299999999999998
40
0.0068897637795276
0
CIRCLE
8
BLACK
10
3.3730314960629921
20
-3.2129921259842518
40
0.0068897637795276
0
CIRCLE
8
BLACK
10
3.3730314960629921
20
-3.1129921259842517
40
0.0068897637795276
0
CIRCLE
8
BLACK
10
3.4700787401574802
20
-4.5850393700787402
40
0.0068897637795276
0
CIRCLE
8
BLACK
10
3.4700787401574802
20
-4.6850393700787398
40
0.0068897637795276
0
CIRCLE
8
BLACK
10
3.6901574803149604
20
-4.3523622047244093
40
0.0068897637795276
0
CIRCLE
8
BLACK
10
3.6901574803149604
20
-4.4523622047244089
40
0.0068897637795276
0
CIRCLE
8
BLACK
10
4.6039370078740154
20
-2.7059055118110233
40
0.0068897637795276
0
CIRCLE
8
BLACK
10
4.7039370078740159
20
-2.7059055118110233
40
0.0068897637795276
0
CIRCLE
8
BLACK
10
4.6039370078740154
20
-2.8059055118110234
40
0.0068897637795276
0
CIRCLE
8
BLACK
10
4.7039370078740159
20
-2.8059055118110234
40
0.0068897637795276
0
CIRCLE
8
BLACK
10
4.6039370078740154
20
-2.9059055118110235
40
0.0068897637795276
0
CIRCLE
8
BLACK
10
4.7039370078740159
20
-2.9059055118110235
40
0.0068897637795276
0
CIRCLE
8
BLACK
10
5.0031606299212594
20
-4.
40
0.0068897637795276
0
CIRCLE
8
BLACK
10
4.37323937007874
20
-4.
40
0.0068897637795276
0
CIRCLE
8
BLACK
10
5.0385937007874011
20
-4.2062992125984255
40
0.0068897637795276
0
CIRCLE
8
BLACK
10
5.0385937007874011
20
-4.0787401574803148
40
0.0068897637795276
0
CIRCLE
8
BLACK
10
5.0385937007874011
20
-3.9216535433070865
40
0.0068897637795276
0
CIRCLE
8
BLACK
10
5.0385937007874011
20
-3.8417322834645669
40
0.0068897637795276
0
CIRCLE
8
BLACK
10
4.3378062992125983
20
-4.245669291338583
40
0.0068897637795276
0
CIRCLE
8
BLACK
10
4.3378062992125983
20
-4.0787401574803148
40
0.0068897637795276
0
CIRCLE
8
BLACK
10
4.3378062992125983
20
-3.9216535433070865
40
0.0068897637795276
0
CIRCLE
8
BLACK
10
4.3378062992125983
20
-3.8417322834645669
40
0.0068897637795276
0
CIRCLE
8
BLACK
10
3.5135748031496061
20
-3.9094488188976375
40
0.0039370078740157
0
CIRCLE
8
BLACK
10
3.5135748031496061
20
-3.954724409448819
40
0.0039370078740157
0
CIRCLE
8
BLACK
10
3.5135748031496061
20
-4.
40
0.0039370078740157
0
CIRCLE
8
BLACK
10
3.5135748031496061
20
-4.0452755905511806
40
0.0039370078740157
0
CIRCLE
8
BLACK
10
3.5135748031496061
20
-4.090551181102362
40
0.0039370078740157
0
CIRCLE
8
BLACK
10
3.5588503937007872
20
-3.8641732283464565
40
0.0039370078740157
0
CIRCLE
8
BLACK
10
3.5588503937007872
20
-3.9094488188976375
40
0.0039370078740157
0
CIRCLE
8
BLACK
10
3.5588503937007872
20
-3.954724409448819
40
0.0039370078740157
0
CIRCLE
8
BLACK
10
3.5588503937007872
20
-4.
40
0.0039370078740157
0
CIRCLE
8
BLACK
10
3.5588503937007872
20
-4.0452755905511806
40
0.0039370078740157
0
CIRCLE
8
BLACK
10
3.5588503937007872
20
-4.090551181102362
40
0.0039370078740157
0
CIRCLE
8
BLACK
10
3.5588503937007872
20
-4.1358267716535435
40
0.0039370078740157
0
CIRCLE
8
BLACK
10
3.6041259842519686
20
-3.8641732283464565
40
0.0039370078740157
0
CIRCLE
8
BLACK
10
3.6041259842519686
20
-3.9094488188976375
40
0.0039370078740157
0
CIRCLE
8
BLACK
10
3.6041259842519686
20
-3.954724409448819
40
0.0039370078740157
0
CIRCLE
8
BLACK
10
3.6041259842519686
20
-4.
40
0.0039370078740157
0
CIRCLE
8
BLACK
10
3.6041259842519686
20
-4.0452755905511806
40
0.0039370078740157
0
CIRCLE
8
BLACK
10
3.6041259842519686
20
-4.090551181102362
40
0.0039370078740157
0
CIRCLE
8
BLACK
10
3.6041259842519686
20
-4.1358267716535435
40
0.0039370078740157
0
CIRCLE
8
BLACK
10
3.6494015748031496
20
-3.8641732283464565
40
0.0039370078740157
0
CIRCLE
8
BLACK
10
3.6494015748031496
20
-3.9094488188976375
40
0.0039370078740157
0
CIRCLE
8
BLACK
10
3.6494015748031496
20
-3.954724409448819
40
0.0039370078740157
0
CIRCLE
8
BLACK
10
3.6494015748031496
20
-4.
40
0.0039370078740157
0
CIRCLE
8
BLACK
10
3.6494015748031496
20
-4.0452755905511806
40
0.0039370078740157
0
CIRCLE
8
BLACK
10
3.6494015748031496
20
-4.090551181102362
40
0.0039370078740157
0
CIRCLE
8
BLACK
10
3.6494015748031496
20
-4.1358267716535435
40
0.0039370078740157
0
CIRCLE
8
BLACK
10
3.6946771653543307
20
-3.8641732283464565
40
0.0039370078740157
0
CIRCLE
8
BLACK
10
3.6946771653543307
20
-3.9094488188976375
40
0.0039370078740157
0
CIRCLE
8
BLACK
10
3.6946771653543307
20
-3.954724409448819
40
0.0039370078740157
0
CIRCLE
8
BLACK
10
3.6946771653543307
20
-4.
40
0.0039370078740157
0
CIRCLE
8
BLACK
10
3.6946771653543307
20
-4.0452755905511806
40
0.0039370078740157
0
CIRCLE
8
BLACK
10
3.6946771653543307
20
-4.090551181102362
40
0.0039370078740157
0
CIRCLE
8
BLACK
10
3.6946771653543307
20
-4.1358267716535435
40
0.0039370078740157
0
CIRCLE
8
BLACK
10
3.7399527559055117
20
-3.8641732283464565
40
0.0039370078740157
0
CIRCLE
8
BLACK
10
3.7399527559055117
20
-3.9094488188976375
40
0.0039370078740157
0
CIRCLE
8
BLACK
10
3.7399527559055117
20
-3.954724409448819
40
0.0039370078740157
0
CIRCLE
8
BLACK
10
3.7399527559055117
20
-4.
40
0.0039370078740157
0
CIRCLE
8
BLACK
10
3.7399527559055117
20
-4.0452755905511806
40
0.0039370078740157
0
CIRCLE
8
BLACK
10
3.7399527559055117
20
-4.090551181102362
40
0.0039370078740157
0
CIRCLE
8
BLACK
10
3.7399527559055117
20
-4.1358267716535435
40
0.0039370078740157
0
CIRCLE
8
BLACK
10
3.7852283464566927
20
-3.9094488188976375
40
0.0039370078740157
0
CIRCLE
8
BLACK
10
3.7852283464566927
20
-3.954724409448819
40
0.0039370078740157
0
CIRCLE
8
BLACK
10
3.7852283464566927
20
-4.
40
0.0039370078740157
0
CIRCLE
8
BLACK
10
3.7852283464566927
20
-4.0452755905511806
40
0.0039370078740157
0
CIRCLE
8
BLACK
10
3.7852283464566927
20
-4.090551181102362
40
0.0039370078740157
  0
ENDSEC
  0
EOF
