  0
SECTION
  2
HEADER
  9
$ANGBASE
  50
0.0
  9
$ANGDIR
  70
1
  9
$MEASUREMENT
  70
0
  0
ENDSEC
  0
SECTION
  2
TABLES
  0
TABLE
  2
LTYPE
  70
4
  0
LTYPE
  5
40F
  2
CONTINUOUS
  70
0
  3
Solid line
  72
65
  73
0
  40
0.0
  0
LTYPE
  5
410
  2
DASHDOT
 70
0
  3
Dash Dot ____ _ ____ _
 72
65
 73
4
 40
2.0
 49
1.25
 49
-0.25
 49
0.25
 49
-0.25
  0
LTYPE
  5
411
  2
DASHED
 70
0
  3
Dashed __ __ __ __ __
 72
65
 73
2
 40
0.75
 49
0.5
 49
-0.25
  0
LTYPE
  5
43B
  2
DOTTED
 70
0
  3
Dotted .  .  .  .
 72
65
 73
2
 40
0.2
 49
0.0
 49
-0.2
  0
ENDTAB
  0
TABLE
  2
STYLE
  70
4
  0
STYLE
  2
KICAD
  70
0
  40
0
  41
1
  42
1
  50
0
  71
0
  3
isocp.shx
  0
STYLE
  2
KICADB
  70
0
  40
0
  41
1
  42
1
  50
0
  71
0
  3
isocp.shx
  0
STYLE
  2
KICADI
  70
0
  40
0
  41
1
  42
1
  50
15
  71
0
  3
isocp.shx
  0
STYLE
  2
KICADBI
  70
0
  40
0
  41
1
  42
1
  50
15
  71
0
  3
isocp.shx
  0
ENDTAB
  0
TABLE
  2
LAYER
  70
1
  0
LAYER
  2
BLACK
  70
0
  62
7
  6
CONTINUOUS
  0
ENDTAB
  0
ENDSEC
  0
SECTION
  2
ENTITIES
0
LINE
8
BLACK
6
CONTINUOUS
10
3.66741
20
-4.96448
11
3.66713
21
-4.96378
0
LINE
8
BLACK
6
CONTINUOUS
10
3.66713
20
-4.96378
11
3.66713
21
-4.84724
0
LINE
8
BLACK
6
CONTINUOUS
10
3.66713
20
-4.84724
11
3.66741
21
-4.84655
0
LINE
8
BLACK
6
CONTINUOUS
10
3.66741
20
-4.84655
11
3.66811
21
-4.84626
0
LINE
8
BLACK
6
CONTINUOUS
10
3.66811
20
-4.84626
11
3.72559
21
-4.84626
0
LINE
8
BLACK
6
CONTINUOUS
10
3.72559
20
-4.84626
11
3.72629
21
-4.84655
0
LINE
8
BLACK
6
CONTINUOUS
10
3.72629
20
-4.84655
11
3.72657
21
-4.84724
0
LINE
8
BLACK
6
CONTINUOUS
10
3.72657
20
-4.84724
11
3.72657
21
-4.96378
0
LINE
8
BLACK
6
CONTINUOUS
10
3.72657
20
-4.96378
11
3.72629
21
-4.96448
0
LINE
8
BLACK
6
CONTINUOUS
10
3.72629
20
-4.96448
11
3.72559
21
-4.96476
0
LINE
8
BLACK
6
CONTINUOUS
10
3.72559
20
-4.96476
11
3.66811
21
-4.96476
0
LINE
8
BLACK
6
CONTINUOUS
10
3.66811
20
-4.96476
11
3.66741
21
-4.96448
0
LINE
8
BLACK
6
CONTINUOUS
10
3.66909
20
-4.84823
11
3.66909
21
-4.9628
0
LINE
8
BLACK
6
CONTINUOUS
10
3.66909
20
-4.9628
11
3.72461
21
-4.9628
0
LINE
8
BLACK
6
CONTINUOUS
10
3.72461
20
-4.9628
11
3.72461
21
-4.84823
0
LINE
8
BLACK
6
CONTINUOUS
10
3.72461
20
-4.84823
11
3.66909
21
-4.84823
0
LINE
8
BLACK
6
CONTINUOUS
10
3.53277
20
-4.9318
11
3.53248
21
-4.9311
0
LINE
8
BLACK
6
CONTINUOUS
10
3.53248
20
-4.9311
11
3.53248
21
-4.78543
0
LINE
8
BLACK
6
CONTINUOUS
10
3.53248
20
-4.78543
11
3.53277
21
-4.78474
0
LINE
8
BLACK
6
CONTINUOUS
10
3.53277
20
-4.78474
11
3.53346
21
-4.78445
0
LINE
8
BLACK
6
CONTINUOUS
10
3.53346
20
-4.78445
11
3.60827
21
-4.78445
0
LINE
8
BLACK
6
CONTINUOUS
10
3.60827
20
-4.78445
11
3.60896
21
-4.78474
0
LINE
8
BLACK
6
CONTINUOUS
10
3.60896
20
-4.78474
11
3.60925
21
-4.78543
0
LINE
8
BLACK
6
CONTINUOUS
10
3.60925
20
-4.78543
11
3.60925
21
-4.9311
0
LINE
8
BLACK
6
CONTINUOUS
10
3.60925
20
-4.9311
11
3.60896
21
-4.9318
0
LINE
8
BLACK
6
CONTINUOUS
10
3.60896
20
-4.9318
11
3.60827
21
-4.93209
0
LINE
8
BLACK
6
CONTINUOUS
10
3.60827
20
-4.93209
11
3.53346
21
-4.93209
0
LINE
8
BLACK
6
CONTINUOUS
10
3.53346
20
-4.93209
11
3.53277
21
-4.9318
0
LINE
8
BLACK
6
CONTINUOUS
10
3.53445
20
-4.78642
11
3.53445
21
-4.93012
0
LINE
8
BLACK
6
CONTINUOUS
10
3.53445
20
-4.93012
11
3.60728
21
-4.93012
0
LINE
8
BLACK
6
CONTINUOUS
10
3.60728
20
-4.93012
11
3.60728
21
-4.78642
0
LINE
8
BLACK
6
CONTINUOUS
10
3.60728
20
-4.78642
11
3.53445
21
-4.78642
0
LINE
8
BLACK
6
CONTINUOUS
10
3.69615
20
-4.63138
11
3.69587
21
-4.63069
0
LINE
8
BLACK
6
CONTINUOUS
10
3.69587
20
-4.63069
11
3.69587
21
-4.59132
0
LINE
8
BLACK
6
CONTINUOUS
10
3.69587
20
-4.59132
11
3.69615
21
-4.59062
0
LINE
8
BLACK
6
CONTINUOUS
10
3.69615
20
-4.59062
11
3.69685
21
-4.59033
0
LINE
8
BLACK
6
CONTINUOUS
10
3.69685
20
-4.59033
11
3.77559
21
-4.59033
0
LINE
8
BLACK
6
CONTINUOUS
10
3.77559
20
-4.59033
11
3.77629
21
-4.59062
0
LINE
8
BLACK
6
CONTINUOUS
10
3.77629
20
-4.59062
11
3.77657
21
-4.59132
0
LINE
8
BLACK
6
CONTINUOUS
10
3.77657
20
-4.59132
11
3.77657
21
-4.63069
0
LINE
8
BLACK
6
CONTINUOUS
10
3.77657
20
-4.63069
11
3.77629
21
-4.63138
0
LINE
8
BLACK
6
CONTINUOUS
10
3.77629
20
-4.63138
11
3.77559
21
-4.63167
0
LINE
8
BLACK
6
CONTINUOUS
10
3.77559
20
-4.63167
11
3.69685
21
-4.63167
0
LINE
8
BLACK
6
CONTINUOUS
10
3.69685
20
-4.63167
11
3.69615
21
-4.63138
0
LINE
8
BLACK
6
CONTINUOUS
10
3.69783
20
-4.5923
11
3.69783
21
-4.6297
0
LINE
8
BLACK
6
CONTINUOUS
10
3.69783
20
-4.6297
11
3.77461
21
-4.6297
0
LINE
8
BLACK
6
CONTINUOUS
10
3.77461
20
-4.6297
11
3.77461
21
-4.5923
0
LINE
8
BLACK
6
CONTINUOUS
10
3.77461
20
-4.5923
11
3.69783
21
-4.5923
0
LINE
8
BLACK
6
CONTINUOUS
10
4.35056
20
-4.39944
11
4.35028
21
-4.39874
0
LINE
8
BLACK
6
CONTINUOUS
10
4.35028
20
-4.39874
11
4.35028
21
-4.2822
0
LINE
8
BLACK
6
CONTINUOUS
10
4.35028
20
-4.2822
11
4.35056
21
-4.28151
0
LINE
8
BLACK
6
CONTINUOUS
10
4.35056
20
-4.28151
11
4.35126
21
-4.28122
0
LINE
8
BLACK
6
CONTINUOUS
10
4.35126
20
-4.28122
11
4.40874
21
-4.28122
0
LINE
8
BLACK
6
CONTINUOUS
10
4.40874
20
-4.28122
11
4.40944
21
-4.28151
0
LINE
8
BLACK
6
CONTINUOUS
10
4.40944
20
-4.28151
11
4.40972
21
-4.2822
0
LINE
8
BLACK
6
CONTINUOUS
10
4.40972
20
-4.2822
11
4.40972
21
-4.39874
0
LINE
8
BLACK
6
CONTINUOUS
10
4.40972
20
-4.39874
11
4.40944
21
-4.39944
0
LINE
8
BLACK
6
CONTINUOUS
10
4.40944
20
-4.39944
11
4.40874
21
-4.39972
0
LINE
8
BLACK
6
CONTINUOUS
10
4.40874
20
-4.39972
11
4.35126
21
-4.39972
0
LINE
8
BLACK
6
CONTINUOUS
10
4.35126
20
-4.39972
11
4.35056
21
-4.39944
0
LINE
8
BLACK
6
CONTINUOUS
10
4.35224
20
-4.28319
11
4.35224
21
-4.39776
0
LINE
8
BLACK
6
CONTINUOUS
10
4.35224
20
-4.39776
11
4.40776
21
-4.39776
0
LINE
8
BLACK
6
CONTINUOUS
10
4.40776
20
-4.39776
11
4.40776
21
-4.28319
0
LINE
8
BLACK
6
CONTINUOUS
10
4.40776
20
-4.28319
11
4.35224
21
-4.28319
0
LINE
8
BLACK
6
CONTINUOUS
10
4.29056
20
-4.39896
11
4.29028
21
-4.39827
0
LINE
8
BLACK
6
CONTINUOUS
10
4.29028
20
-4.39827
11
4.29028
21
-4.28173
0
LINE
8
BLACK
6
CONTINUOUS
10
4.29028
20
-4.28173
11
4.29056
21
-4.28104
0
LINE
8
BLACK
6
CONTINUOUS
10
4.29056
20
-4.28104
11
4.29126
21
-4.28075
0
LINE
8
BLACK
6
CONTINUOUS
10
4.29126
20
-4.28075
11
4.34874
21
-4.28075
0
LINE
8
BLACK
6
CONTINUOUS
10
4.34874
20
-4.28075
11
4.34944
21
-4.28104
0
LINE
8
BLACK
6
CONTINUOUS
10
4.34944
20
-4.28104
11
4.34972
21
-4.28173
0
LINE
8
BLACK
6
CONTINUOUS
10
4.34972
20
-4.28173
11
4.34972
21
-4.39827
0
LINE
8
BLACK
6
CONTINUOUS
10
4.34972
20
-4.39827
11
4.34944
21
-4.39896
0
LINE
8
BLACK
6
CONTINUOUS
10
4.34944
20
-4.39896
11
4.34874
21
-4.39925
0
LINE
8
BLACK
6
CONTINUOUS
10
4.34874
20
-4.39925
11
4.29126
21
-4.39925
0
LINE
8
BLACK
6
CONTINUOUS
10
4.29126
20
-4.39925
11
4.29056
21
-4.39896
0
LINE
8
BLACK
6
CONTINUOUS
10
4.29224
20
-4.28272
11
4.29224
21
-4.39728
0
LINE
8
BLACK
6
CONTINUOUS
10
4.29224
20
-4.39728
11
4.34776
21
-4.39728
0
LINE
8
BLACK
6
CONTINUOUS
10
4.34776
20
-4.39728
11
4.34776
21
-4.28272
0
LINE
8
BLACK
6
CONTINUOUS
10
4.34776
20
-4.28272
11
4.29224
21
-4.28272
0
LINE
8
BLACK
6
CONTINUOUS
10
3.63887
20
-4.36408
11
3.63858
21
-4.36339
0
LINE
8
BLACK
6
CONTINUOUS
10
3.63858
20
-4.36339
11
3.63858
21
-4.30591
0
LINE
8
BLACK
6
CONTINUOUS
10
3.63858
20
-4.30591
11
3.63887
21
-4.30521
0
LINE
8
BLACK
6
CONTINUOUS
10
3.63887
20
-4.30521
11
3.63957
21
-4.30492
0
LINE
8
BLACK
6
CONTINUOUS
10
3.63957
20
-4.30492
11
3.7561
21
-4.30492
0
LINE
8
BLACK
6
CONTINUOUS
10
3.7561
20
-4.30492
11
3.7568
21
-4.30521
0
LINE
8
BLACK
6
CONTINUOUS
10
3.7568
20
-4.30521
11
3.75709
21
-4.30591
0
LINE
8
BLACK
6
CONTINUOUS
10
3.75709
20
-4.30591
11
3.75709
21
-4.36339
0
LINE
8
BLACK
6
CONTINUOUS
10
3.75709
20
-4.36339
11
3.7568
21
-4.36408
0
LINE
8
BLACK
6
CONTINUOUS
10
3.7568
20
-4.36408
11
3.7561
21
-4.36437
0
LINE
8
BLACK
6
CONTINUOUS
10
3.7561
20
-4.36437
11
3.63957
21
-4.36437
0
LINE
8
BLACK
6
CONTINUOUS
10
3.63957
20
-4.36437
11
3.63887
21
-4.36408
0
LINE
8
BLACK
6
CONTINUOUS
10
3.64055
20
-4.30689
11
3.64055
21
-4.3624
0
LINE
8
BLACK
6
CONTINUOUS
10
3.64055
20
-4.3624
11
3.75512
21
-4.3624
0
LINE
8
BLACK
6
CONTINUOUS
10
3.75512
20
-4.3624
11
3.75512
21
-4.30689
0
LINE
8
BLACK
6
CONTINUOUS
10
3.75512
20
-4.30689
11
3.64055
21
-4.30689
0
LINE
8
BLACK
6
CONTINUOUS
10
3.7619
20
-4.33554
11
3.76161
21
-4.33484
0
LINE
8
BLACK
6
CONTINUOUS
10
3.76161
20
-4.33484
11
3.76161
21
-4.21831
0
LINE
8
BLACK
6
CONTINUOUS
10
3.76161
20
-4.21831
11
3.7619
21
-4.21761
0
LINE
8
BLACK
6
CONTINUOUS
10
3.7619
20
-4.21761
11
3.7626
21
-4.21732
0
LINE
8
BLACK
6
CONTINUOUS
10
3.7626
20
-4.21732
11
3.82008
21
-4.21732
0
LINE
8
BLACK
6
CONTINUOUS
10
3.82008
20
-4.21732
11
3.82077
21
-4.21761
0
LINE
8
BLACK
6
CONTINUOUS
10
3.82077
20
-4.21761
11
3.82106
21
-4.21831
0
LINE
8
BLACK
6
CONTINUOUS
10
3.82106
20
-4.21831
11
3.82106
21
-4.33484
0
LINE
8
BLACK
6
CONTINUOUS
10
3.82106
20
-4.33484
11
3.82077
21
-4.33554
0
LINE
8
BLACK
6
CONTINUOUS
10
3.82077
20
-4.33554
11
3.82008
21
-4.33583
0
LINE
8
BLACK
6
CONTINUOUS
10
3.82008
20
-4.33583
11
3.7626
21
-4.33583
0
LINE
8
BLACK
6
CONTINUOUS
10
3.7626
20
-4.33583
11
3.7619
21
-4.33554
0
LINE
8
BLACK
6
CONTINUOUS
10
3.76358
20
-4.21929
11
3.76358
21
-4.33386
0
LINE
8
BLACK
6
CONTINUOUS
10
3.76358
20
-4.33386
11
3.81909
21
-4.33386
0
LINE
8
BLACK
6
CONTINUOUS
10
3.81909
20
-4.33386
11
3.81909
21
-4.21929
0
LINE
8
BLACK
6
CONTINUOUS
10
3.81909
20
-4.21929
11
3.76358
21
-4.21929
0
LINE
8
BLACK
6
CONTINUOUS
10
3.55324
20
-4.26763
11
3.55295
21
-4.26693
0
LINE
8
BLACK
6
CONTINUOUS
10
3.55295
20
-4.26693
11
3.55295
21
-4.15039
0
LINE
8
BLACK
6
CONTINUOUS
10
3.55295
20
-4.15039
11
3.55324
21
-4.1497
0
LINE
8
BLACK
6
CONTINUOUS
10
3.55324
20
-4.1497
11
3.55394
21
-4.14941
0
LINE
8
BLACK
6
CONTINUOUS
10
3.55394
20
-4.14941
11
3.61142
21
-4.14941
0
LINE
8
BLACK
6
CONTINUOUS
10
3.61142
20
-4.14941
11
3.61211
21
-4.1497
0
LINE
8
BLACK
6
CONTINUOUS
10
3.61211
20
-4.1497
11
3.6124
21
-4.15039
0
LINE
8
BLACK
6
CONTINUOUS
10
3.6124
20
-4.15039
11
3.6124
21
-4.26693
0
LINE
8
BLACK
6
CONTINUOUS
10
3.6124
20
-4.26693
11
3.61211
21
-4.26763
0
LINE
8
BLACK
6
CONTINUOUS
10
3.61211
20
-4.26763
11
3.61142
21
-4.26791
0
LINE
8
BLACK
6
CONTINUOUS
10
3.61142
20
-4.26791
11
3.55394
21
-4.26791
0
LINE
8
BLACK
6
CONTINUOUS
10
3.55394
20
-4.26791
11
3.55324
21
-4.26763
0
LINE
8
BLACK
6
CONTINUOUS
10
3.55492
20
-4.15138
11
3.55492
21
-4.26594
0
LINE
8
BLACK
6
CONTINUOUS
10
3.55492
20
-4.26594
11
3.61043
21
-4.26594
0
LINE
8
BLACK
6
CONTINUOUS
10
3.61043
20
-4.26594
11
3.61043
21
-4.15138
0
LINE
8
BLACK
6
CONTINUOUS
10
3.61043
20
-4.15138
11
3.55492
21
-4.15138
0
LINE
8
BLACK
6
CONTINUOUS
10
3.63986
20
-4.25778
11
3.63957
21
-4.25709
0
LINE
8
BLACK
6
CONTINUOUS
10
3.63957
20
-4.25709
11
3.63957
21
-4.14055
0
LINE
8
BLACK
6
CONTINUOUS
10
3.63957
20
-4.14055
11
3.63986
21
-4.13986
0
LINE
8
BLACK
6
CONTINUOUS
10
3.63986
20
-4.13986
11
3.64055
21
-4.13957
0
LINE
8
BLACK
6
CONTINUOUS
10
3.64055
20
-4.13957
11
3.69803
21
-4.13957
0
LINE
8
BLACK
6
CONTINUOUS
10
3.69803
20
-4.13957
11
3.69873
21
-4.13986
0
LINE
8
BLACK
6
CONTINUOUS
10
3.69873
20
-4.13986
11
3.69902
21
-4.14055
0
LINE
8
BLACK
6
CONTINUOUS
10
3.69902
20
-4.14055
11
3.69902
21
-4.25709
0
LINE
8
BLACK
6
CONTINUOUS
10
3.69902
20
-4.25709
11
3.69873
21
-4.25778
0
LINE
8
BLACK
6
CONTINUOUS
10
3.69873
20
-4.25778
11
3.69803
21
-4.25807
0
LINE
8
BLACK
6
CONTINUOUS
10
3.69803
20
-4.25807
11
3.64055
21
-4.25807
0
LINE
8
BLACK
6
CONTINUOUS
10
3.64055
20
-4.25807
11
3.63986
21
-4.25778
0
LINE
8
BLACK
6
CONTINUOUS
10
3.64154
20
-4.14154
11
3.64154
21
-4.2561
0
LINE
8
BLACK
6
CONTINUOUS
10
3.64154
20
-4.2561
11
3.69705
21
-4.2561
0
LINE
8
BLACK
6
CONTINUOUS
10
3.69705
20
-4.2561
11
3.69705
21
-4.14154
0
LINE
8
BLACK
6
CONTINUOUS
10
3.69705
20
-4.14154
11
3.64154
21
-4.14154
0
LINE
8
BLACK
6
CONTINUOUS
10
3.35757
20
-3.91408
11
3.35728
21
-3.91339
0
LINE
8
BLACK
6
CONTINUOUS
10
3.35728
20
-3.91339
11
3.35728
21
-3.76772
0
LINE
8
BLACK
6
CONTINUOUS
10
3.35728
20
-3.76772
11
3.35757
21
-3.76702
0
LINE
8
BLACK
6
CONTINUOUS
10
3.35757
20
-3.76702
11
3.35827
21
-3.76673
0
LINE
8
BLACK
6
CONTINUOUS
10
3.35827
20
-3.76673
11
3.43307
21
-3.76673
0
LINE
8
BLACK
6
CONTINUOUS
10
3.43307
20
-3.76673
11
3.43377
21
-3.76702
0
LINE
8
BLACK
6
CONTINUOUS
10
3.43377
20
-3.76702
11
3.43406
21
-3.76772
0
LINE
8
BLACK
6
CONTINUOUS
10
3.43406
20
-3.76772
11
3.43406
21
-3.91339
0
LINE
8
BLACK
6
CONTINUOUS
10
3.43406
20
-3.91339
11
3.43377
21
-3.91408
0
LINE
8
BLACK
6
CONTINUOUS
10
3.43377
20
-3.91408
11
3.43307
21
-3.91437
0
LINE
8
BLACK
6
CONTINUOUS
10
3.43307
20
-3.91437
11
3.35827
21
-3.91437
0
LINE
8
BLACK
6
CONTINUOUS
10
3.35827
20
-3.91437
11
3.35757
21
-3.91408
0
LINE
8
BLACK
6
CONTINUOUS
10
3.35925
20
-3.7687
11
3.35925
21
-3.9124
0
LINE
8
BLACK
6
CONTINUOUS
10
3.35925
20
-3.9124
11
3.43209
21
-3.9124
0
LINE
8
BLACK
6
CONTINUOUS
10
3.43209
20
-3.9124
11
3.43209
21
-3.7687
0
LINE
8
BLACK
6
CONTINUOUS
10
3.43209
20
-3.7687
11
3.35925
21
-3.7687
0
LINE
8
BLACK
6
CONTINUOUS
10
3.506
20
-3.85522
11
3.50571
21
-3.85453
0
LINE
8
BLACK
6
CONTINUOUS
10
3.50571
20
-3.85453
11
3.50571
21
-3.73799
0
LINE
8
BLACK
6
CONTINUOUS
10
3.50571
20
-3.73799
11
3.506
21
-3.7373
0
LINE
8
BLACK
6
CONTINUOUS
10
3.506
20
-3.7373
11
3.50669
21
-3.73701
0
LINE
8
BLACK
6
CONTINUOUS
10
3.50669
20
-3.73701
11
3.56417
21
-3.73701
0
LINE
8
BLACK
6
CONTINUOUS
10
3.56417
20
-3.73701
11
3.56487
21
-3.7373
0
LINE
8
BLACK
6
CONTINUOUS
10
3.56487
20
-3.7373
11
3.56516
21
-3.73799
0
LINE
8
BLACK
6
CONTINUOUS
10
3.56516
20
-3.73799
11
3.56516
21
-3.85453
0
LINE
8
BLACK
6
CONTINUOUS
10
3.56516
20
-3.85453
11
3.56487
21
-3.85522
0
LINE
8
BLACK
6
CONTINUOUS
10
3.56487
20
-3.85522
11
3.56417
21
-3.85551
0
LINE
8
BLACK
6
CONTINUOUS
10
3.56417
20
-3.85551
11
3.50669
21
-3.85551
0
LINE
8
BLACK
6
CONTINUOUS
10
3.50669
20
-3.85551
11
3.506
21
-3.85522
0
LINE
8
BLACK
6
CONTINUOUS
10
3.50768
20
-3.73898
11
3.50768
21
-3.85354
0
LINE
8
BLACK
6
CONTINUOUS
10
3.50768
20
-3.85354
11
3.56319
21
-3.85354
0
LINE
8
BLACK
6
CONTINUOUS
10
3.56319
20
-3.85354
11
3.56319
21
-3.73898
0
LINE
8
BLACK
6
CONTINUOUS
10
3.56319
20
-3.73898
11
3.50768
21
-3.73898
0
LINE
8
BLACK
6
CONTINUOUS
10
3.57391
20
-3.8129
11
3.57362
21
-3.8122
0
LINE
8
BLACK
6
CONTINUOUS
10
3.57362
20
-3.8122
11
3.57362
21
-3.75472
0
LINE
8
BLACK
6
CONTINUOUS
10
3.57362
20
-3.75472
11
3.57391
21
-3.75403
0
LINE
8
BLACK
6
CONTINUOUS
10
3.57391
20
-3.75403
11
3.57461
21
-3.75374
0
LINE
8
BLACK
6
CONTINUOUS
10
3.57461
20
-3.75374
11
3.69114
21
-3.75374
0
LINE
8
BLACK
6
CONTINUOUS
10
3.69114
20
-3.75374
11
3.69184
21
-3.75403
0
LINE
8
BLACK
6
CONTINUOUS
10
3.69184
20
-3.75403
11
3.69213
21
-3.75472
0
LINE
8
BLACK
6
CONTINUOUS
10
3.69213
20
-3.75472
11
3.69213
21
-3.8122
0
LINE
8
BLACK
6
CONTINUOUS
10
3.69213
20
-3.8122
11
3.69184
21
-3.8129
0
LINE
8
BLACK
6
CONTINUOUS
10
3.69184
20
-3.8129
11
3.69114
21
-3.81319
0
LINE
8
BLACK
6
CONTINUOUS
10
3.69114
20
-3.81319
11
3.57461
21
-3.81319
0
LINE
8
BLACK
6
CONTINUOUS
10
3.57461
20
-3.81319
11
3.57391
21
-3.8129
0
LINE
8
BLACK
6
CONTINUOUS
10
3.57559
20
-3.75571
11
3.57559
21
-3.81122
0
LINE
8
BLACK
6
CONTINUOUS
10
3.57559
20
-3.81122
11
3.69016
21
-3.81122
0
LINE
8
BLACK
6
CONTINUOUS
10
3.69016
20
-3.81122
11
3.69016
21
-3.75571
0
LINE
8
BLACK
6
CONTINUOUS
10
3.69016
20
-3.75571
11
3.57559
21
-3.75571
0
LINE
8
BLACK
6
CONTINUOUS
10
3.7619
20
-3.80798
11
3.76161
21
-3.80728
0
LINE
8
BLACK
6
CONTINUOUS
10
3.76161
20
-3.80728
11
3.76161
21
-3.69075
0
LINE
8
BLACK
6
CONTINUOUS
10
3.76161
20
-3.69075
11
3.7619
21
-3.69005
0
LINE
8
BLACK
6
CONTINUOUS
10
3.7619
20
-3.69005
11
3.7626
21
-3.68976
0
LINE
8
BLACK
6
CONTINUOUS
10
3.7626
20
-3.68976
11
3.82008
21
-3.68976
0
LINE
8
BLACK
6
CONTINUOUS
10
3.82008
20
-3.68976
11
3.82077
21
-3.69005
0
LINE
8
BLACK
6
CONTINUOUS
10
3.82077
20
-3.69005
11
3.82106
21
-3.69075
0
LINE
8
BLACK
6
CONTINUOUS
10
3.82106
20
-3.69075
11
3.82106
21
-3.80728
0
LINE
8
BLACK
6
CONTINUOUS
10
3.82106
20
-3.80728
11
3.82077
21
-3.80798
0
LINE
8
BLACK
6
CONTINUOUS
10
3.82077
20
-3.80798
11
3.82008
21
-3.80827
0
LINE
8
BLACK
6
CONTINUOUS
10
3.82008
20
-3.80827
11
3.7626
21
-3.80827
0
LINE
8
BLACK
6
CONTINUOUS
10
3.7626
20
-3.80827
11
3.7619
21
-3.80798
0
LINE
8
BLACK
6
CONTINUOUS
10
3.76358
20
-3.69173
11
3.76358
21
-3.8063
0
LINE
8
BLACK
6
CONTINUOUS
10
3.76358
20
-3.8063
11
3.81909
21
-3.8063
0
LINE
8
BLACK
6
CONTINUOUS
10
3.81909
20
-3.8063
11
3.81909
21
-3.69173
0
LINE
8
BLACK
6
CONTINUOUS
10
3.81909
20
-3.69173
11
3.76358
21
-3.69173
0
LINE
8
BLACK
6
CONTINUOUS
10
3.63592
20
-3.74794
11
3.63563
21
-3.74724
0
LINE
8
BLACK
6
CONTINUOUS
10
3.63563
20
-3.74724
11
3.63563
21
-3.63071
0
LINE
8
BLACK
6
CONTINUOUS
10
3.63563
20
-3.63071
11
3.63592
21
-3.63001
0
LINE
8
BLACK
6
CONTINUOUS
10
3.63592
20
-3.63001
11
3.63661
21
-3.62972
0
LINE
8
BLACK
6
CONTINUOUS
10
3.63661
20
-3.62972
11
3.69409
21
-3.62972
0
LINE
8
BLACK
6
CONTINUOUS
10
3.69409
20
-3.62972
11
3.69479
21
-3.63001
0
LINE
8
BLACK
6
CONTINUOUS
10
3.69479
20
-3.63001
11
3.69508
21
-3.63071
0
LINE
8
BLACK
6
CONTINUOUS
10
3.69508
20
-3.63071
11
3.69508
21
-3.74724
0
LINE
8
BLACK
6
CONTINUOUS
10
3.69508
20
-3.74724
11
3.69479
21
-3.74794
0
LINE
8
BLACK
6
CONTINUOUS
10
3.69479
20
-3.74794
11
3.69409
21
-3.74823
0
LINE
8
BLACK
6
CONTINUOUS
10
3.69409
20
-3.74823
11
3.63661
21
-3.74823
0
LINE
8
BLACK
6
CONTINUOUS
10
3.63661
20
-3.74823
11
3.63592
21
-3.74794
0
LINE
8
BLACK
6
CONTINUOUS
10
3.6376
20
-3.63169
11
3.6376
21
-3.74626
0
LINE
8
BLACK
6
CONTINUOUS
10
3.6376
20
-3.74626
11
3.69311
21
-3.74626
0
LINE
8
BLACK
6
CONTINUOUS
10
3.69311
20
-3.74626
11
3.69311
21
-3.63169
0
LINE
8
BLACK
6
CONTINUOUS
10
3.69311
20
-3.63169
11
3.6376
21
-3.63169
0
LINE
8
BLACK
6
CONTINUOUS
10
3.56899
20
-3.74696
11
3.5687
21
-3.74626
0
LINE
8
BLACK
6
CONTINUOUS
10
3.5687
20
-3.74626
11
3.5687
21
-3.62972
0
LINE
8
BLACK
6
CONTINUOUS
10
3.5687
20
-3.62972
11
3.56899
21
-3.62903
0
LINE
8
BLACK
6
CONTINUOUS
10
3.56899
20
-3.62903
11
3.56969
21
-3.62874
0
LINE
8
BLACK
6
CONTINUOUS
10
3.56969
20
-3.62874
11
3.62717
21
-3.62874
0
LINE
8
BLACK
6
CONTINUOUS
10
3.62717
20
-3.62874
11
3.62786
21
-3.62903
0
LINE
8
BLACK
6
CONTINUOUS
10
3.62786
20
-3.62903
11
3.62815
21
-3.62972
0
LINE
8
BLACK
6
CONTINUOUS
10
3.62815
20
-3.62972
11
3.62815
21
-3.74626
0
LINE
8
BLACK
6
CONTINUOUS
10
3.62815
20
-3.74626
11
3.62786
21
-3.74696
0
LINE
8
BLACK
6
CONTINUOUS
10
3.62786
20
-3.74696
11
3.62717
21
-3.74724
0
LINE
8
BLACK
6
CONTINUOUS
10
3.62717
20
-3.74724
11
3.56969
21
-3.74724
0
LINE
8
BLACK
6
CONTINUOUS
10
3.56969
20
-3.74724
11
3.56899
21
-3.74696
0
LINE
8
BLACK
6
CONTINUOUS
10
3.57067
20
-3.63071
11
3.57067
21
-3.74528
0
LINE
8
BLACK
6
CONTINUOUS
10
3.57067
20
-3.74528
11
3.62618
21
-3.74528
0
LINE
8
BLACK
6
CONTINUOUS
10
3.62618
20
-3.74528
11
3.62618
21
-3.63071
0
LINE
8
BLACK
6
CONTINUOUS
10
3.62618
20
-3.63071
11
3.57067
21
-3.63071
0
LINE
8
BLACK
6
CONTINUOUS
10
3.48552
20
-3.73396
11
3.48524
21
-3.73327
0
LINE
8
BLACK
6
CONTINUOUS
10
3.48524
20
-3.73327
11
3.48524
21
-3.5876
0
LINE
8
BLACK
6
CONTINUOUS
10
3.48524
20
-3.5876
11
3.48552
21
-3.5869
0
LINE
8
BLACK
6
CONTINUOUS
10
3.48552
20
-3.5869
11
3.48622
21
-3.58661
0
LINE
8
BLACK
6
CONTINUOUS
10
3.48622
20
-3.58661
11
3.56102
21
-3.58661
0
LINE
8
BLACK
6
CONTINUOUS
10
3.56102
20
-3.58661
11
3.56172
21
-3.5869
0
LINE
8
BLACK
6
CONTINUOUS
10
3.56172
20
-3.5869
11
3.56201
21
-3.5876
0
LINE
8
BLACK
6
CONTINUOUS
10
3.56201
20
-3.5876
11
3.56201
21
-3.73327
0
LINE
8
BLACK
6
CONTINUOUS
10
3.56201
20
-3.73327
11
3.56172
21
-3.73396
0
LINE
8
BLACK
6
CONTINUOUS
10
3.56172
20
-3.73396
11
3.56102
21
-3.73425
0
LINE
8
BLACK
6
CONTINUOUS
10
3.56102
20
-3.73425
11
3.48622
21
-3.73425
0
LINE
8
BLACK
6
CONTINUOUS
10
3.48622
20
-3.73425
11
3.48552
21
-3.73396
0
LINE
8
BLACK
6
CONTINUOUS
10
3.4872
20
-3.58858
11
3.4872
21
-3.73228
0
LINE
8
BLACK
6
CONTINUOUS
10
3.4872
20
-3.73228
11
3.56004
21
-3.73228
0
LINE
8
BLACK
6
CONTINUOUS
10
3.56004
20
-3.73228
11
3.56004
21
-3.58858
0
LINE
8
BLACK
6
CONTINUOUS
10
3.56004
20
-3.58858
11
3.4872
21
-3.58858
0
LINE
8
BLACK
6
CONTINUOUS
10
3.45088
20
-3.55011
11
3.45059
21
-3.54941
0
LINE
8
BLACK
6
CONTINUOUS
10
3.45059
20
-3.54941
11
3.45059
21
-3.43287
0
LINE
8
BLACK
6
CONTINUOUS
10
3.45059
20
-3.43287
11
3.45088
21
-3.43218
0
LINE
8
BLACK
6
CONTINUOUS
10
3.45088
20
-3.43218
11
3.4511
21
-3.43209
0
LINE
8
BLACK
6
CONTINUOUS
10
3.4511
20
-3.43209
11
3.45088
21
-3.432
0
LINE
8
BLACK
6
CONTINUOUS
10
3.45088
20
-3.432
11
3.45059
21
-3.4313
0
LINE
8
BLACK
6
CONTINUOUS
10
3.45059
20
-3.4313
11
3.45059
21
-3.31476
0
LINE
8
BLACK
6
CONTINUOUS
10
3.45059
20
-3.31476
11
3.45088
21
-3.31407
0
LINE
8
BLACK
6
CONTINUOUS
10
3.45088
20
-3.31407
11
3.45157
21
-3.31378
0
LINE
8
BLACK
6
CONTINUOUS
10
3.45157
20
-3.31378
11
3.50906
21
-3.31378
0
LINE
8
BLACK
6
CONTINUOUS
10
3.50906
20
-3.31378
11
3.50975
21
-3.31407
0
LINE
8
BLACK
6
CONTINUOUS
10
3.50975
20
-3.31407
11
3.51004
21
-3.31476
0
LINE
8
BLACK
6
CONTINUOUS
10
3.51004
20
-3.31476
11
3.51004
21
-3.4313
0
LINE
8
BLACK
6
CONTINUOUS
10
3.51004
20
-3.4313
11
3.50975
21
-3.432
0
LINE
8
BLACK
6
CONTINUOUS
10
3.50975
20
-3.432
11
3.50953
21
-3.43209
0
LINE
8
BLACK
6
CONTINUOUS
10
3.50953
20
-3.43209
11
3.50975
21
-3.43218
0
LINE
8
BLACK
6
CONTINUOUS
10
3.50975
20
-3.43218
11
3.51004
21
-3.43287
0
LINE
8
BLACK
6
CONTINUOUS
10
3.51004
20
-3.43287
11
3.51004
21
-3.54941
0
LINE
8
BLACK
6
CONTINUOUS
10
3.51004
20
-3.54941
11
3.50975
21
-3.55011
0
LINE
8
BLACK
6
CONTINUOUS
10
3.50975
20
-3.55011
11
3.50906
21
-3.55039
0
LINE
8
BLACK
6
CONTINUOUS
10
3.50906
20
-3.55039
11
3.45157
21
-3.55039
0
LINE
8
BLACK
6
CONTINUOUS
10
3.45157
20
-3.55039
11
3.45088
21
-3.55011
0
LINE
8
BLACK
6
CONTINUOUS
10
3.45256
20
-3.43386
11
3.45256
21
-3.54843
0
LINE
8
BLACK
6
CONTINUOUS
10
3.45256
20
-3.54843
11
3.50807
21
-3.54843
0
LINE
8
BLACK
6
CONTINUOUS
10
3.50807
20
-3.54843
11
3.50807
21
-3.43386
0
LINE
8
BLACK
6
CONTINUOUS
10
3.50807
20
-3.43386
11
3.45256
21
-3.43386
0
LINE
8
BLACK
6
CONTINUOUS
10
3.45256
20
-3.31575
11
3.45256
21
-3.43031
0
LINE
8
BLACK
6
CONTINUOUS
10
3.45256
20
-3.43031
11
3.50807
21
-3.43031
0
LINE
8
BLACK
6
CONTINUOUS
10
3.50807
20
-3.43031
11
3.50807
21
-3.31575
0
LINE
8
BLACK
6
CONTINUOUS
10
3.50807
20
-3.31575
11
3.45256
21
-3.31575
0
LINE
8
BLACK
6
CONTINUOUS
10
3.58474
20
-3.17609
11
3.58445
21
-3.17539
0
LINE
8
BLACK
6
CONTINUOUS
10
3.58445
20
-3.17539
11
3.58445
21
-3.05886
0
LINE
8
BLACK
6
CONTINUOUS
10
3.58445
20
-3.05886
11
3.58474
21
-3.05816
0
LINE
8
BLACK
6
CONTINUOUS
10
3.58474
20
-3.05816
11
3.58543
21
-3.05787
0
LINE
8
BLACK
6
CONTINUOUS
10
3.58543
20
-3.05787
11
3.64291
21
-3.05787
0
LINE
8
BLACK
6
CONTINUOUS
10
3.64291
20
-3.05787
11
3.64361
21
-3.05816
0
LINE
8
BLACK
6
CONTINUOUS
10
3.64361
20
-3.05816
11
3.6439
21
-3.05886
0
LINE
8
BLACK
6
CONTINUOUS
10
3.6439
20
-3.05886
11
3.6439
21
-3.17539
0
LINE
8
BLACK
6
CONTINUOUS
10
3.6439
20
-3.17539
11
3.64361
21
-3.17609
0
LINE
8
BLACK
6
CONTINUOUS
10
3.64361
20
-3.17609
11
3.64291
21
-3.17638
0
LINE
8
BLACK
6
CONTINUOUS
10
3.64291
20
-3.17638
11
3.58543
21
-3.17638
0
LINE
8
BLACK
6
CONTINUOUS
10
3.58543
20
-3.17638
11
3.58474
21
-3.17609
0
LINE
8
BLACK
6
CONTINUOUS
10
3.58642
20
-3.05984
11
3.58642
21
-3.17441
0
LINE
8
BLACK
6
CONTINUOUS
10
3.58642
20
-3.17441
11
3.64193
21
-3.17441
0
LINE
8
BLACK
6
CONTINUOUS
10
3.64193
20
-3.17441
11
3.64193
21
-3.05984
0
LINE
8
BLACK
6
CONTINUOUS
10
3.64193
20
-3.05984
11
3.58642
21
-3.05984
0
LINE
8
BLACK
6
CONTINUOUS
10
3.52174
20
-3.17609
11
3.52146
21
-3.17539
0
LINE
8
BLACK
6
CONTINUOUS
10
3.52146
20
-3.17539
11
3.52146
21
-3.05886
0
LINE
8
BLACK
6
CONTINUOUS
10
3.52146
20
-3.05886
11
3.52174
21
-3.05816
0
LINE
8
BLACK
6
CONTINUOUS
10
3.52174
20
-3.05816
11
3.52244
21
-3.05787
0
LINE
8
BLACK
6
CONTINUOUS
10
3.52244
20
-3.05787
11
3.57992
21
-3.05787
0
LINE
8
BLACK
6
CONTINUOUS
10
3.57992
20
-3.05787
11
3.58062
21
-3.05816
0
LINE
8
BLACK
6
CONTINUOUS
10
3.58062
20
-3.05816
11
3.58091
21
-3.05886
0
LINE
8
BLACK
6
CONTINUOUS
10
3.58091
20
-3.05886
11
3.58091
21
-3.17539
0
LINE
8
BLACK
6
CONTINUOUS
10
3.58091
20
-3.17539
11
3.58062
21
-3.17609
0
LINE
8
BLACK
6
CONTINUOUS
10
3.58062
20
-3.17609
11
3.57992
21
-3.17638
0
LINE
8
BLACK
6
CONTINUOUS
10
3.57992
20
-3.17638
11
3.52244
21
-3.17638
0
LINE
8
BLACK
6
CONTINUOUS
10
3.52244
20
-3.17638
11
3.52174
21
-3.17609
0
LINE
8
BLACK
6
CONTINUOUS
10
3.52343
20
-3.05984
11
3.52343
21
-3.17441
0
LINE
8
BLACK
6
CONTINUOUS
10
3.52343
20
-3.17441
11
3.57894
21
-3.17441
0
LINE
8
BLACK
6
CONTINUOUS
10
3.57894
20
-3.17441
11
3.57894
21
-3.05984
0
LINE
8
BLACK
6
CONTINUOUS
10
3.57894
20
-3.05984
11
3.52343
21
-3.05984
0
LINE
8
BLACK
6
CONTINUOUS
10
4.16618
20
-3.03383
11
4.16589
21
-3.03313
0
LINE
8
BLACK
6
CONTINUOUS
10
4.16589
20
-3.03313
11
4.16589
21
-2.74967
0
LINE
8
BLACK
6
CONTINUOUS
10
4.16589
20
-2.74967
11
4.16618
21
-2.74897
0
LINE
8
BLACK
6
CONTINUOUS
10
4.16618
20
-2.74897
11
4.16687
21
-2.74868
0
LINE
8
BLACK
6
CONTINUOUS
10
4.16687
20
-2.74868
11
4.51333
21
-2.74868
0
LINE
8
BLACK
6
CONTINUOUS
10
4.51333
20
-2.74868
11
4.51402
21
-2.74897
0
LINE
8
BLACK
6
CONTINUOUS
10
4.51402
20
-2.74897
11
4.51431
21
-2.74967
0
LINE
8
BLACK
6
CONTINUOUS
10
4.51431
20
-2.74967
11
4.51431
21
-3.03313
0
LINE
8
BLACK
6
CONTINUOUS
10
4.51431
20
-3.03313
11
4.51402
21
-3.03383
0
LINE
8
BLACK
6
CONTINUOUS
10
4.51402
20
-3.03383
11
4.51333
21
-3.03412
0
LINE
8
BLACK
6
CONTINUOUS
10
4.51333
20
-3.03412
11
4.16687
21
-3.03412
0
LINE
8
BLACK
6
CONTINUOUS
10
4.16687
20
-3.03412
11
4.16618
21
-3.03383
0
LINE
8
BLACK
6
CONTINUOUS
10
4.16786
20
-2.75065
11
4.16786
21
-3.03215
0
LINE
8
BLACK
6
CONTINUOUS
10
4.16786
20
-3.03215
11
4.51234
21
-3.03215
0
LINE
8
BLACK
6
CONTINUOUS
10
4.51234
20
-3.03215
11
4.51234
21
-2.75065
0
LINE
8
BLACK
6
CONTINUOUS
10
4.51234
20
-2.75065
11
4.16786
21
-2.75065
0
LINE
8
BLACK
6
CONTINUOUS
10
3.6686
20
-3.02678
11
3.66831
21
-3.02608
0
LINE
8
BLACK
6
CONTINUOUS
10
3.66831
20
-3.02608
11
3.66831
21
-2.74262
0
LINE
8
BLACK
6
CONTINUOUS
10
3.66831
20
-2.74262
11
3.6686
21
-2.74192
0
LINE
8
BLACK
6
CONTINUOUS
10
3.6686
20
-2.74192
11
3.66929
21
-2.74163
0
LINE
8
BLACK
6
CONTINUOUS
10
3.66929
20
-2.74163
11
4.01575
21
-2.74163
0
LINE
8
BLACK
6
CONTINUOUS
10
4.01575
20
-2.74163
11
4.01644
21
-2.74192
0
LINE
8
BLACK
6
CONTINUOUS
10
4.01644
20
-2.74192
11
4.01673
21
-2.74262
0
LINE
8
BLACK
6
CONTINUOUS
10
4.01673
20
-2.74262
11
4.01673
21
-3.02608
0
LINE
8
BLACK
6
CONTINUOUS
10
4.01673
20
-3.02608
11
4.01644
21
-3.02678
0
LINE
8
BLACK
6
CONTINUOUS
10
4.01644
20
-3.02678
11
4.01575
21
-3.02707
0
LINE
8
BLACK
6
CONTINUOUS
10
4.01575
20
-3.02707
11
3.66929
21
-3.02707
0
LINE
8
BLACK
6
CONTINUOUS
10
3.66929
20
-3.02707
11
3.6686
21
-3.02678
0
LINE
8
BLACK
6
CONTINUOUS
10
3.67028
20
-2.7436
11
3.67028
21
-3.0251
0
LINE
8
BLACK
6
CONTINUOUS
10
3.67028
20
-3.0251
11
4.01476
21
-3.0251
0
LINE
8
BLACK
6
CONTINUOUS
10
4.01476
20
-3.0251
11
4.01476
21
-2.7436
0
LINE
8
BLACK
6
CONTINUOUS
10
4.01476
20
-2.7436
11
3.67028
21
-2.7436
0
LINE
8
BLACK
6
CONTINUOUS
10
4.05672
20
-2.99813
11
4.05643
21
-2.99743
0
LINE
8
BLACK
6
CONTINUOUS
10
4.05643
20
-2.99743
11
4.05643
21
-2.86357
0
LINE
8
BLACK
6
CONTINUOUS
10
4.05643
20
-2.86357
11
4.05672
21
-2.86287
0
LINE
8
BLACK
6
CONTINUOUS
10
4.05672
20
-2.86287
11
4.05742
21
-2.86259
0
LINE
8
BLACK
6
CONTINUOUS
10
4.05742
20
-2.86259
11
4.13458
21
-2.86259
0
LINE
8
BLACK
6
CONTINUOUS
10
4.13458
20
-2.86259
11
4.13528
21
-2.86287
0
LINE
8
BLACK
6
CONTINUOUS
10
4.13528
20
-2.86287
11
4.13557
21
-2.86357
0
LINE
8
BLACK
6
CONTINUOUS
10
4.13557
20
-2.86357
11
4.13557
21
-2.99743
0
LINE
8
BLACK
6
CONTINUOUS
10
4.13557
20
-2.99743
11
4.13528
21
-2.99813
0
LINE
8
BLACK
6
CONTINUOUS
10
4.13528
20
-2.99813
11
4.13458
21
-2.99841
0
LINE
8
BLACK
6
CONTINUOUS
10
4.13458
20
-2.99841
11
4.05742
21
-2.99841
0
LINE
8
BLACK
6
CONTINUOUS
10
4.05742
20
-2.99841
11
4.05672
21
-2.99813
0
LINE
8
BLACK
6
CONTINUOUS
10
4.0584
20
-2.86456
11
4.0584
21
-2.99644
0
LINE
8
BLACK
6
CONTINUOUS
10
4.0584
20
-2.99644
11
4.1336
21
-2.99644
0
LINE
8
BLACK
6
CONTINUOUS
10
4.1336
20
-2.99644
11
4.1336
21
-2.86456
0
LINE
8
BLACK
6
CONTINUOUS
10
4.1336
20
-2.86456
11
4.0584
21
-2.86456
0
LINE
8
BLACK
6
CONTINUOUS
10
3.51584
20
-2.99213
11
3.51555
21
-2.99143
0
LINE
8
BLACK
6
CONTINUOUS
10
3.51555
20
-2.99143
11
3.51555
21
-2.85757
0
LINE
8
BLACK
6
CONTINUOUS
10
3.51555
20
-2.85757
11
3.51584
21
-2.85687
0
LINE
8
BLACK
6
CONTINUOUS
10
3.51584
20
-2.85687
11
3.51654
21
-2.85659
0
LINE
8
BLACK
6
CONTINUOUS
10
3.51654
20
-2.85659
11
3.5937
21
-2.85659
0
LINE
8
BLACK
6
CONTINUOUS
10
3.5937
20
-2.85659
11
3.5944
21
-2.85687
0
LINE
8
BLACK
6
CONTINUOUS
10
3.5944
20
-2.85687
11
3.59469
21
-2.85757
0
LINE
8
BLACK
6
CONTINUOUS
10
3.59469
20
-2.85757
11
3.59469
21
-2.99143
0
LINE
8
BLACK
6
CONTINUOUS
10
3.59469
20
-2.99143
11
3.5944
21
-2.99213
0
LINE
8
BLACK
6
CONTINUOUS
10
3.5944
20
-2.99213
11
3.5937
21
-2.99241
0
LINE
8
BLACK
6
CONTINUOUS
10
3.5937
20
-2.99241
11
3.51654
21
-2.99241
0
LINE
8
BLACK
6
CONTINUOUS
10
3.51654
20
-2.99241
11
3.51584
21
-2.99213
0
LINE
8
BLACK
6
CONTINUOUS
10
3.51752
20
-2.85856
11
3.51752
21
-2.99044
0
LINE
8
BLACK
6
CONTINUOUS
10
3.51752
20
-2.99044
11
3.59272
21
-2.99044
0
LINE
8
BLACK
6
CONTINUOUS
10
3.59272
20
-2.99044
11
3.59272
21
-2.85856
0
LINE
8
BLACK
6
CONTINUOUS
10
3.59272
20
-2.85856
11
3.51752
21
-2.85856
0
LINE
8
BLACK
6
CONTINUOUS
10
3.60049
20
-2.97296
11
3.6002
21
-2.97227
0
LINE
8
BLACK
6
CONTINUOUS
10
3.6002
20
-2.97227
11
3.6002
21
-2.85573
0
LINE
8
BLACK
6
CONTINUOUS
10
3.6002
20
-2.85573
11
3.60049
21
-2.85504
0
LINE
8
BLACK
6
CONTINUOUS
10
3.60049
20
-2.85504
11
3.60118
21
-2.85475
0
LINE
8
BLACK
6
CONTINUOUS
10
3.60118
20
-2.85475
11
3.65866
21
-2.85475
0
LINE
8
BLACK
6
CONTINUOUS
10
3.65866
20
-2.85475
11
3.65936
21
-2.85504
0
LINE
8
BLACK
6
CONTINUOUS
10
3.65936
20
-2.85504
11
3.65965
21
-2.85573
0
LINE
8
BLACK
6
CONTINUOUS
10
3.65965
20
-2.85573
11
3.65965
21
-2.97227
0
LINE
8
BLACK
6
CONTINUOUS
10
3.65965
20
-2.97227
11
3.65936
21
-2.97296
0
LINE
8
BLACK
6
CONTINUOUS
10
3.65936
20
-2.97296
11
3.65866
21
-2.97325
0
LINE
8
BLACK
6
CONTINUOUS
10
3.65866
20
-2.97325
11
3.60118
21
-2.97325
0
LINE
8
BLACK
6
CONTINUOUS
10
3.60118
20
-2.97325
11
3.60049
21
-2.97296
0
LINE
8
BLACK
6
CONTINUOUS
10
3.60217
20
-2.85672
11
3.60217
21
-2.97128
0
LINE
8
BLACK
6
CONTINUOUS
10
3.60217
20
-2.97128
11
3.65768
21
-2.97128
0
LINE
8
BLACK
6
CONTINUOUS
10
3.65768
20
-2.97128
11
3.65768
21
-2.85672
0
LINE
8
BLACK
6
CONTINUOUS
10
3.65768
20
-2.85672
11
3.60217
21
-2.85672
0
LINE
8
BLACK
6
CONTINUOUS
10
4.12572
20
-2.8385
11
4.12544
21
-2.83919
0
LINE
8
BLACK
6
CONTINUOUS
10
4.12544
20
-2.83919
11
4.12474
21
-2.83948
0
LINE
8
BLACK
6
CONTINUOUS
10
4.12474
20
-2.83948
11
4.06726
21
-2.83948
0
LINE
8
BLACK
6
CONTINUOUS
10
4.06726
20
-2.83948
11
4.06656
21
-2.83919
0
LINE
8
BLACK
6
CONTINUOUS
10
4.06656
20
-2.83919
11
4.06628
21
-2.8385
0
LINE
8
BLACK
6
CONTINUOUS
10
4.06628
20
-2.8385
11
4.06628
21
-2.72196
0
LINE
8
BLACK
6
CONTINUOUS
10
4.06628
20
-2.72196
11
4.06656
21
-2.72126
0
LINE
8
BLACK
6
CONTINUOUS
10
4.06656
20
-2.72126
11
4.06726
21
-2.72098
0
LINE
8
BLACK
6
CONTINUOUS
10
4.06726
20
-2.72098
11
4.12448
21
-2.72098
0
LINE
8
BLACK
6
CONTINUOUS
10
4.12448
20
-2.72098
11
4.12448
21
-2.6878
0
LINE
8
BLACK
6
CONTINUOUS
10
4.12448
20
-2.6878
11
4.12476
21
-2.6871
0
LINE
8
BLACK
6
CONTINUOUS
10
4.12476
20
-2.6871
11
4.12546
21
-2.68681
0
LINE
8
BLACK
6
CONTINUOUS
10
4.12546
20
-2.68681
11
4.242
21
-2.68681
0
LINE
8
BLACK
6
CONTINUOUS
10
4.242
20
-2.68681
11
4.24269
21
-2.6871
0
LINE
8
BLACK
6
CONTINUOUS
10
4.24269
20
-2.6871
11
4.24298
21
-2.6878
0
LINE
8
BLACK
6
CONTINUOUS
10
4.24298
20
-2.6878
11
4.24298
21
-2.74528
0
LINE
8
BLACK
6
CONTINUOUS
10
4.24298
20
-2.74528
11
4.24269
21
-2.74597
0
LINE
8
BLACK
6
CONTINUOUS
10
4.24269
20
-2.74597
11
4.242
21
-2.74626
0
LINE
8
BLACK
6
CONTINUOUS
10
4.242
20
-2.74626
11
4.12572
21
-2.74626
0
LINE
8
BLACK
6
CONTINUOUS
10
4.12572
20
-2.74626
11
4.12572
21
-2.8385
0
LINE
8
BLACK
6
CONTINUOUS
10
4.06824
20
-2.72294
11
4.06824
21
-2.83751
0
LINE
8
BLACK
6
CONTINUOUS
10
4.06824
20
-2.83751
11
4.12376
21
-2.83751
0
LINE
8
BLACK
6
CONTINUOUS
10
4.12376
20
-2.83751
11
4.12376
21
-2.72294
0
LINE
8
BLACK
6
CONTINUOUS
10
4.12376
20
-2.72294
11
4.06824
21
-2.72294
0
LINE
8
BLACK
6
CONTINUOUS
10
4.12644
20
-2.68878
11
4.12644
21
-2.74429
0
LINE
8
BLACK
6
CONTINUOUS
10
4.12644
20
-2.74429
11
4.24101
21
-2.74429
0
LINE
8
BLACK
6
CONTINUOUS
10
4.24101
20
-2.74429
11
4.24101
21
-2.68878
0
LINE
8
BLACK
6
CONTINUOUS
10
4.24101
20
-2.68878
11
4.12644
21
-2.68878
0
LINE
8
BLACK
6
CONTINUOUS
10
3.53704
20
-2.82344
11
3.53675
21
-2.82274
0
LINE
8
BLACK
6
CONTINUOUS
10
3.53675
20
-2.82274
11
3.53675
21
-2.76526
0
LINE
8
BLACK
6
CONTINUOUS
10
3.53675
20
-2.76526
11
3.53704
21
-2.76456
0
LINE
8
BLACK
6
CONTINUOUS
10
3.53704
20
-2.76456
11
3.53773
21
-2.76428
0
LINE
8
BLACK
6
CONTINUOUS
10
3.53773
20
-2.76428
11
3.65427
21
-2.76428
0
LINE
8
BLACK
6
CONTINUOUS
10
3.65427
20
-2.76428
11
3.65496
21
-2.76456
0
LINE
8
BLACK
6
CONTINUOUS
10
3.65496
20
-2.76456
11
3.65525
21
-2.76526
0
LINE
8
BLACK
6
CONTINUOUS
10
3.65525
20
-2.76526
11
3.65525
21
-2.82274
0
LINE
8
BLACK
6
CONTINUOUS
10
3.65525
20
-2.82274
11
3.65496
21
-2.82344
0
LINE
8
BLACK
6
CONTINUOUS
10
3.65496
20
-2.82344
11
3.65427
21
-2.82372
0
LINE
8
BLACK
6
CONTINUOUS
10
3.65427
20
-2.82372
11
3.53773
21
-2.82372
0
LINE
8
BLACK
6
CONTINUOUS
10
3.53773
20
-2.82372
11
3.53704
21
-2.82344
0
LINE
8
BLACK
6
CONTINUOUS
10
3.53872
20
-2.76624
11
3.53872
21
-2.82176
0
LINE
8
BLACK
6
CONTINUOUS
10
3.53872
20
-2.82176
11
3.65328
21
-2.82176
0
LINE
8
BLACK
6
CONTINUOUS
10
3.65328
20
-2.82176
11
3.65328
21
-2.76624
0
LINE
8
BLACK
6
CONTINUOUS
10
3.65328
20
-2.76624
11
3.53872
21
-2.76624
  0
ENDSEC
  0
EOF
