  0
SECTION
  2
HEADER
  9
$ANGBASE
  50
0.0
  9
$ANGDIR
  70
1
  9
$MEASUREMENT
  70
0
  0
ENDSEC
  0
SECTION
  2
TABLES
  0
TABLE
  2
LTYPE
  70
4
  0
LTYPE
  5
40F
  2
CONTINUOUS
  70
0
  3
Solid line
  72
65
  73
0
  40
0.0
  0
LTYPE
  5
410
  2
DASHDOT
 70
0
  3
Dash Dot ____ _ ____ _
 72
65
 73
4
 40
2.0
 49
1.25
 49
-0.25
 49
0.25
 49
-0.25
  0
LTYPE
  5
411
  2
DASHED
 70
0
  3
Dashed __ __ __ __ __
 72
65
 73
2
 40
0.75
 49
0.5
 49
-0.25
  0
LTYPE
  5
43B
  2
DOTTED
 70
0
  3
Dotted .  .  .  .
 72
65
 73
2
 40
0.2
 49
0.0
 49
-0.2
  0
ENDTAB
  0
TABLE
  2
STYLE
  70
4
  0
STYLE
  2
KICAD
  70
0
  40
0
  41
1
  42
1
  50
0
  71
0
  3
isocp.shx
  0
STYLE
  2
KICADB
  70
0
  40
0
  41
1
  42
1
  50
0
  71
0
  3
isocp.shx
  0
STYLE
  2
KICADI
  70
0
  40
0
  41
1
  42
1
  50
15
  71
0
  3
isocp.shx
  0
STYLE
  2
KICADBI
  70
0
  40
0
  41
1
  42
1
  50
15
  71
0
  3
isocp.shx
  0
ENDTAB
  0
TABLE
  2
LAYER
  70
1
  0
LAYER
  2
BLACK
  70
0
  62
7
  6
CONTINUOUS
  0
ENDTAB
  0
ENDSEC
  0
SECTION
  2
ENTITIES
0
CIRCLE
8
BLACK
10
2.5499999999999998
20
-2.7999999999999998
40
0.0068897637795276
0
CIRCLE
8
BLACK
10
4.9500000000000002
20
-2.7999999999999998
40
0.0068897637795276
0
CIRCLE
8
BLACK
10
4.9500000000000002
20
-5.2000000000000002
40
0.0068897637795276
0
CIRCLE
8
BLACK
10
2.5499999999999998
20
-5.2000000000000002
40
0.0068897637795276
0
CIRCLE
8
BLACK
10
3.9226377952755906
20
-5.2199999999999998
40
0.0068897637795276
0
CIRCLE
8
BLACK
10
3.8726377952755904
20
-5.1609448818897636
40
0.0068897637795276
0
CIRCLE
8
BLACK
10
3.8226377952755906
20
-5.1609448818897636
40
0.0068897637795276
0
CIRCLE
8
BLACK
10
3.7726377952755903
20
-5.2199999999999998
40
0.0068897637795276
0
CIRCLE
8
BLACK
10
3.7226377952755905
20
-5.1609448818897636
40
0.0068897637795276
0
CIRCLE
8
BLACK
10
3.6726377952755906
20
-5.1609448818897636
40
0.0068897637795276
0
CIRCLE
8
BLACK
10
3.6226377952755904
20
-5.2199999999999998
40
0.0068897637795276
0
CIRCLE
8
BLACK
10
3.5143700787401575
20
-5.1215748031496062
40
0.0068897637795276
0
CIRCLE
8
BLACK
10
4.0194881889763776
20
-5.1609448818897636
40
0.0068897637795276
0
CIRCLE
8
BLACK
10
3.2080708661417323
20
-5.2199999999999998
40
0.0068897637795276
0
CIRCLE
8
BLACK
10
3.158070866141732
20
-5.1609448818897636
40
0.0068897637795276
0
CIRCLE
8
BLACK
10
3.1080708661417322
20
-5.1609448818897636
40
0.0068897637795276
0
CIRCLE
8
BLACK
10
3.0580708661417324
20
-5.2199999999999998
40
0.0068897637795276
0
CIRCLE
8
BLACK
10
3.0080708661417321
20
-5.1609448818897636
40
0.0068897637795276
0
CIRCLE
8
BLACK
10
2.9580708661417323
20
-5.1609448818897636
40
0.0068897637795276
0
CIRCLE
8
BLACK
10
2.908070866141732
20
-5.2199999999999998
40
0.0068897637795276
0
CIRCLE
8
BLACK
10
2.7998031496062992
20
-5.1215748031496062
40
0.0068897637795276
0
CIRCLE
8
BLACK
10
3.3049212598425197
20
-5.1609448818897636
40
0.0068897637795276
0
CIRCLE
8
BLACK
10
2.9100393700787399
20
-2.7809448818897637
40
0.0068897637795276
0
CIRCLE
8
BLACK
10
2.9600393700787402
20
-2.8399999999999999
40
0.0068897637795276
0
CIRCLE
8
BLACK
10
3.01003937007874
20
-2.8399999999999999
40
0.0068897637795276
0
CIRCLE
8
BLACK
10
3.0600393700787403
20
-2.7809448818897637
40
0.0068897637795276
0
CIRCLE
8
BLACK
10
3.1100393700787401
20
-2.8399999999999999
40
0.0068897637795276
0
CIRCLE
8
BLACK
10
3.1600393700787399
20
-2.8399999999999999
40
0.0068897637795276
0
CIRCLE
8
BLACK
10
3.2100393700787402
20
-2.7809448818897637
40
0.0068897637795276
0
CIRCLE
8
BLACK
10
3.3183070866141731
20
-2.8793700787401573
40
0.0068897637795276
0
CIRCLE
8
BLACK
10
2.8131889763779525
20
-2.8399999999999999
40
0.0068897637795276
0
CIRCLE
8
BLACK
10
2.5299999999999998
20
-3.6999999999999997
40
0.0068897637795276
0
CIRCLE
8
BLACK
10
2.5890551181102364
20
-3.6499999999999999
40
0.0068897637795276
0
CIRCLE
8
BLACK
10
2.5890551181102364
20
-3.6000000000000001
40
0.0068897637795276
0
CIRCLE
8
BLACK
10
2.5299999999999998
20
-3.5499999999999998
40
0.0068897637795276
0
CIRCLE
8
BLACK
10
2.5890551181102364
20
-3.5
40
0.0068897637795276
0
CIRCLE
8
BLACK
10
2.5890551181102364
20
-3.4499999999999997
40
0.0068897637795276
0
CIRCLE
8
BLACK
10
2.5299999999999998
20
-3.3999999999999999
40
0.0068897637795276
0
CIRCLE
8
BLACK
10
2.6284251968503938
20
-3.291732283464567
40
0.0068897637795276
0
CIRCLE
8
BLACK
10
2.5890551181102364
20
-3.7968503937007871
40
0.0068897637795276
0
CIRCLE
8
BLACK
10
2.5299999999999998
20
-4.5999999999999996
40
0.0068897637795276
0
CIRCLE
8
BLACK
10
2.5890551181102364
20
-4.5499999999999998
40
0.0068897637795276
0
CIRCLE
8
BLACK
10
2.5890551181102364
20
-4.5
40
0.0068897637795276
0
CIRCLE
8
BLACK
10
2.5299999999999998
20
-4.4500000000000002
40
0.0068897637795276
0
CIRCLE
8
BLACK
10
2.5890551181102364
20
-4.3999999999999995
40
0.0068897637795276
0
CIRCLE
8
BLACK
10
2.5890551181102364
20
-4.3499999999999996
40
0.0068897637795276
0
CIRCLE
8
BLACK
10
2.5299999999999998
20
-4.2999999999999998
40
0.0068897637795276
0
CIRCLE
8
BLACK
10
2.6284251968503938
20
-4.1917322834645665
40
0.0068897637795276
0
CIRCLE
8
BLACK
10
2.5890551181102364
20
-4.6968503937007871
40
0.0068897637795276
0
CIRCLE
8
BLACK
10
3.5499999999999998
20
-3.23
40
0.0068897637795276
0
CIRCLE
8
BLACK
10
3.6499999999999999
20
-3.23
40
0.0068897637795276
0
CIRCLE
8
BLACK
10
3.5499999999999998
20
-3.3300000000000001
40
0.0068897637795276
0
CIRCLE
8
BLACK
10
3.6499999999999999
20
-3.3300000000000001
40
0.0068897637795276
0
CIRCLE
8
BLACK
10
3.5499999999999998
20
-3.4299999999999997
40
0.0068897637795276
0
CIRCLE
8
BLACK
10
3.6499999999999999
20
-3.4299999999999997
40
0.0068897637795276
0
CIRCLE
8
BLACK
10
3.5499999999999998
20
-3.5299999999999998
40
0.0068897637795276
0
CIRCLE
8
BLACK
10
3.6499999999999999
20
-3.5299999999999998
40
0.0068897637795276
0
CIRCLE
8
BLACK
10
3.3730314960629921
20
-3.2129921259842518
40
0.0068897637795276
0
CIRCLE
8
BLACK
10
3.3730314960629921
20
-3.1129921259842517
40
0.0068897637795276
0
CIRCLE
8
BLACK
10
3.4700787401574802
20
-4.5850393700787402
40
0.0068897637795276
0
CIRCLE
8
BLACK
10
3.4700787401574802
20
-4.6850393700787398
40
0.0068897637795276
0
CIRCLE
8
BLACK
10
3.6901574803149604
20
-4.3523622047244093
40
0.0068897637795276
0
CIRCLE
8
BLACK
10
3.6901574803149604
20
-4.4523622047244089
40
0.0068897637795276
0
CIRCLE
8
BLACK
10
4.6039370078740154
20
-2.7059055118110233
40
0.0068897637795276
0
CIRCLE
8
BLACK
10
4.7039370078740159
20
-2.7059055118110233
40
0.0068897637795276
0
CIRCLE
8
BLACK
10
4.6039370078740154
20
-2.8059055118110234
40
0.0068897637795276
0
CIRCLE
8
BLACK
10
4.7039370078740159
20
-2.8059055118110234
40
0.0068897637795276
0
CIRCLE
8
BLACK
10
4.6039370078740154
20
-2.9059055118110235
40
0.0068897637795276
0
CIRCLE
8
BLACK
10
4.7039370078740159
20
-2.9059055118110235
40
0.0068897637795276
0
CIRCLE
8
BLACK
10
5.0031606299212594
20
-4.
40
0.0068897637795276
0
CIRCLE
8
BLACK
10
4.37323937007874
20
-4.
40
0.0068897637795276
0
CIRCLE
8
BLACK
10
5.0385937007874011
20
-4.2062992125984255
40
0.0068897637795276
0
CIRCLE
8
BLACK
10
5.0385937007874011
20
-4.0787401574803148
40
0.0068897637795276
0
CIRCLE
8
BLACK
10
5.0385937007874011
20
-3.9216535433070865
40
0.0068897637795276
0
CIRCLE
8
BLACK
10
5.0385937007874011
20
-3.8417322834645669
40
0.0068897637795276
0
CIRCLE
8
BLACK
10
4.3378062992125983
20
-4.245669291338583
40
0.0068897637795276
0
CIRCLE
8
BLACK
10
4.3378062992125983
20
-4.0787401574803148
40
0.0068897637795276
0
CIRCLE
8
BLACK
10
4.3378062992125983
20
-3.9216535433070865
40
0.0068897637795276
0
CIRCLE
8
BLACK
10
4.3378062992125983
20
-3.8417322834645669
40
0.0068897637795276
0
CIRCLE
8
BLACK
10
3.5135748031496061
20
-3.9094488188976375
40
0.0039370078740157
0
CIRCLE
8
BLACK
10
3.5135748031496061
20
-3.954724409448819
40
0.0039370078740157
0
CIRCLE
8
BLACK
10
3.5135748031496061
20
-4.
40
0.0039370078740157
0
CIRCLE
8
BLACK
10
3.5135748031496061
20
-4.0452755905511806
40
0.0039370078740157
0
CIRCLE
8
BLACK
10
3.5135748031496061
20
-4.090551181102362
40
0.0039370078740157
0
CIRCLE
8
BLACK
10
3.5588503937007872
20
-3.8641732283464565
40
0.0039370078740157
0
CIRCLE
8
BLACK
10
3.5588503937007872
20
-3.9094488188976375
40
0.0039370078740157
0
CIRCLE
8
BLACK
10
3.5588503937007872
20
-3.954724409448819
40
0.0039370078740157
0
CIRCLE
8
BLACK
10
3.5588503937007872
20
-4.
40
0.0039370078740157
0
CIRCLE
8
BLACK
10
3.5588503937007872
20
-4.0452755905511806
40
0.0039370078740157
0
CIRCLE
8
BLACK
10
3.5588503937007872
20
-4.090551181102362
40
0.0039370078740157
0
CIRCLE
8
BLACK
10
3.5588503937007872
20
-4.1358267716535435
40
0.0039370078740157
0
CIRCLE
8
BLACK
10
3.6041259842519686
20
-3.8641732283464565
40
0.0039370078740157
0
CIRCLE
8
BLACK
10
3.6041259842519686
20
-3.9094488188976375
40
0.0039370078740157
0
CIRCLE
8
BLACK
10
3.6041259842519686
20
-3.954724409448819
40
0.0039370078740157
0
CIRCLE
8
BLACK
10
3.6041259842519686
20
-4.
40
0.0039370078740157
0
CIRCLE
8
BLACK
10
3.6041259842519686
20
-4.0452755905511806
40
0.0039370078740157
0
CIRCLE
8
BLACK
10
3.6041259842519686
20
-4.090551181102362
40
0.0039370078740157
0
CIRCLE
8
BLACK
10
3.6041259842519686
20
-4.1358267716535435
40
0.0039370078740157
0
CIRCLE
8
BLACK
10
3.6494015748031496
20
-3.8641732283464565
40
0.0039370078740157
0
CIRCLE
8
BLACK
10
3.6494015748031496
20
-3.9094488188976375
40
0.0039370078740157
0
CIRCLE
8
BLACK
10
3.6494015748031496
20
-3.954724409448819
40
0.0039370078740157
0
CIRCLE
8
BLACK
10
3.6494015748031496
20
-4.
40
0.0039370078740157
0
CIRCLE
8
BLACK
10
3.6494015748031496
20
-4.0452755905511806
40
0.0039370078740157
0
CIRCLE
8
BLACK
10
3.6494015748031496
20
-4.090551181102362
40
0.0039370078740157
0
CIRCLE
8
BLACK
10
3.6494015748031496
20
-4.1358267716535435
40
0.0039370078740157
0
CIRCLE
8
BLACK
10
3.6946771653543307
20
-3.8641732283464565
40
0.0039370078740157
0
CIRCLE
8
BLACK
10
3.6946771653543307
20
-3.9094488188976375
40
0.0039370078740157
0
CIRCLE
8
BLACK
10
3.6946771653543307
20
-3.954724409448819
40
0.0039370078740157
0
CIRCLE
8
BLACK
10
3.6946771653543307
20
-4.
40
0.0039370078740157
0
CIRCLE
8
BLACK
10
3.6946771653543307
20
-4.0452755905511806
40
0.0039370078740157
0
CIRCLE
8
BLACK
10
3.6946771653543307
20
-4.090551181102362
40
0.0039370078740157
0
CIRCLE
8
BLACK
10
3.6946771653543307
20
-4.1358267716535435
40
0.0039370078740157
0
CIRCLE
8
BLACK
10
3.7399527559055117
20
-3.8641732283464565
40
0.0039370078740157
0
CIRCLE
8
BLACK
10
3.7399527559055117
20
-3.9094488188976375
40
0.0039370078740157
0
CIRCLE
8
BLACK
10
3.7399527559055117
20
-3.954724409448819
40
0.0039370078740157
0
CIRCLE
8
BLACK
10
3.7399527559055117
20
-4.
40
0.0039370078740157
0
CIRCLE
8
BLACK
10
3.7399527559055117
20
-4.0452755905511806
40
0.0039370078740157
0
CIRCLE
8
BLACK
10
3.7399527559055117
20
-4.090551181102362
40
0.0039370078740157
0
CIRCLE
8
BLACK
10
3.7399527559055117
20
-4.1358267716535435
40
0.0039370078740157
0
CIRCLE
8
BLACK
10
3.7852283464566927
20
-3.9094488188976375
40
0.0039370078740157
0
CIRCLE
8
BLACK
10
3.7852283464566927
20
-3.954724409448819
40
0.0039370078740157
0
CIRCLE
8
BLACK
10
3.7852283464566927
20
-4.
40
0.0039370078740157
0
CIRCLE
8
BLACK
10
3.7852283464566927
20
-4.0452755905511806
40
0.0039370078740157
0
CIRCLE
8
BLACK
10
3.7852283464566927
20
-4.090551181102362
40
0.0039370078740157
  0
ENDSEC
  0
EOF
