  0
SECTION
  2
HEADER
  9
$ANGBASE
  50
0.0
  9
$ANGDIR
  70
1
  9
$MEASUREMENT
  70
0
  0
ENDSEC
  0
SECTION
  2
TABLES
  0
TABLE
  2
LTYPE
  70
4
  0
LTYPE
  5
40F
  2
CONTINUOUS
  70
0
  3
Solid line
  72
65
  73
0
  40
0.0
  0
LTYPE
  5
410
  2
DASHDOT
 70
0
  3
Dash Dot ____ _ ____ _
 72
65
 73
4
 40
2.0
 49
1.25
 49
-0.25
 49
0.25
 49
-0.25
  0
LTYPE
  5
411
  2
DASHED
 70
0
  3
Dashed __ __ __ __ __
 72
65
 73
2
 40
0.75
 49
0.5
 49
-0.25
  0
LTYPE
  5
43B
  2
DOTTED
 70
0
  3
Dotted .  .  .  .
 72
65
 73
2
 40
0.2
 49
0.0
 49
-0.2
  0
ENDTAB
  0
TABLE
  2
STYLE
  70
4
  0
STYLE
  2
KICAD
  70
0
  40
0
  41
1
  42
1
  50
0
  71
0
  3
isocp.shx
  0
STYLE
  2
KICADB
  70
0
  40
0
  41
1
  42
1
  50
0
  71
0
  3
isocp.shx
  0
STYLE
  2
KICADI
  70
0
  40
0
  41
1
  42
1
  50
15
  71
0
  3
isocp.shx
  0
STYLE
  2
KICADBI
  70
0
  40
0
  41
1
  42
1
  50
15
  71
0
  3
isocp.shx
  0
ENDTAB
  0
TABLE
  2
LAYER
  70
1
  0
LAYER
  2
BLACK
  70
0
  62
7
  6
CONTINUOUS
  0
ENDTAB
  0
ENDSEC
  0
SECTION
  2
ENTITIES
0
LINE
8
BLACK
6
CONTINUOUS
10
3.3950616929133859
20
-5.0517678346456689
11
3.3955943700787401
21
-5.0523005118110236
0
LINE
8
BLACK
6
CONTINUOUS
10
3.3955943700787401
20
-5.0523005118110236
11
3.3956692913385824
21
-5.0526771653543303
0
LINE
8
BLACK
6
CONTINUOUS
10
3.3956692913385824
20
-5.0526771653543303
11
3.3956692913385824
21
-5.269212598425197
0
LINE
8
BLACK
6
CONTINUOUS
10
3.3956692913385824
20
-5.269212598425197
11
3.3955943700787401
21
-5.2695892519685037
0
LINE
8
BLACK
6
CONTINUOUS
10
3.3955943700787401
20
-5.2695892519685037
11
3.3950616929133859
21
-5.2701219291338584
0
LINE
8
BLACK
6
CONTINUOUS
10
3.3950616929133859
20
-5.2701219291338584
11
3.3946850393700787
21
-5.2701968503937007
0
LINE
8
BLACK
6
CONTINUOUS
10
3.3946850393700787
20
-5.2701968503937007
11
2.7214566929133857
21
-5.2701968503937007
0
LINE
8
BLACK
6
CONTINUOUS
10
2.7214566929133857
20
-5.2701968503937007
11
2.7210800393700785
21
-5.2701219291338584
0
LINE
8
BLACK
6
CONTINUOUS
10
2.7210800393700785
20
-5.2701219291338584
11
2.7205473622047243
21
-5.2695892519685037
0
LINE
8
BLACK
6
CONTINUOUS
10
2.7205473622047243
20
-5.2695892519685037
11
2.7204724409448819
21
-5.269212598425197
0
LINE
8
BLACK
6
CONTINUOUS
10
2.7204724409448819
20
-5.269212598425197
11
2.7204724409448819
21
-5.0526771653543303
0
LINE
8
BLACK
6
CONTINUOUS
10
2.7204724409448819
20
-5.0526771653543303
11
2.7205473622047243
21
-5.0523005118110236
0
LINE
8
BLACK
6
CONTINUOUS
10
2.7205473622047243
20
-5.0523005118110236
11
2.7210800393700785
21
-5.0517678346456689
0
LINE
8
BLACK
6
CONTINUOUS
10
2.7210800393700785
20
-5.0517678346456689
11
2.7214566929133857
21
-5.0516929133858266
0
LINE
8
BLACK
6
CONTINUOUS
10
2.7214566929133857
20
-5.0516929133858266
11
3.3946850393700787
21
-5.0516929133858266
0
LINE
8
BLACK
6
CONTINUOUS
10
3.3946850393700787
20
-5.0516929133858266
11
3.3950616929133859
21
-5.0517678346456689
0
LINE
8
BLACK
6
CONTINUOUS
10
2.7224409448818898
20
-5.0536614173228349
11
2.7224409448818898
21
-5.2682283464566924
0
LINE
8
BLACK
6
CONTINUOUS
10
2.7224409448818898
20
-5.2682283464566924
11
3.3937007874015745
21
-5.2682283464566924
0
LINE
8
BLACK
6
CONTINUOUS
10
3.3937007874015745
20
-5.2682283464566924
11
3.3937007874015745
21
-5.0536614173228349
0
LINE
8
BLACK
6
CONTINUOUS
10
3.3937007874015745
20
-5.0536614173228349
11
2.7224409448818898
21
-5.0536614173228349
0
LINE
8
BLACK
6
CONTINUOUS
10
4.1096286220472438
20
-5.0517678346456689
11
4.1101612992125984
21
-5.0523005118110236
0
LINE
8
BLACK
6
CONTINUOUS
10
4.1101612992125984
20
-5.0523005118110236
11
4.1102362204724407
21
-5.0526771653543303
0
LINE
8
BLACK
6
CONTINUOUS
10
4.1102362204724407
20
-5.0526771653543303
11
4.1102362204724407
21
-5.269212598425197
0
LINE
8
BLACK
6
CONTINUOUS
10
4.1102362204724407
20
-5.269212598425197
11
4.1101612992125984
21
-5.2695892519685037
0
LINE
8
BLACK
6
CONTINUOUS
10
4.1101612992125984
20
-5.2695892519685037
11
4.1096286220472438
21
-5.2701219291338584
0
LINE
8
BLACK
6
CONTINUOUS
10
4.1096286220472438
20
-5.2701219291338584
11
4.109251968503937
21
-5.2701968503937007
0
LINE
8
BLACK
6
CONTINUOUS
10
4.109251968503937
20
-5.2701968503937007
11
3.436023622047244
21
-5.2701968503937007
0
LINE
8
BLACK
6
CONTINUOUS
10
3.436023622047244
20
-5.2701968503937007
11
3.4356469685039368
21
-5.2701219291338584
0
LINE
8
BLACK
6
CONTINUOUS
10
3.4356469685039368
20
-5.2701219291338584
11
3.4351142913385826
21
-5.2695892519685037
0
LINE
8
BLACK
6
CONTINUOUS
10
3.4351142913385826
20
-5.2695892519685037
11
3.4350393700787403
21
-5.269212598425197
0
LINE
8
BLACK
6
CONTINUOUS
10
3.4350393700787403
20
-5.269212598425197
11
3.4350393700787403
21
-5.0526771653543303
0
LINE
8
BLACK
6
CONTINUOUS
10
3.4350393700787403
20
-5.0526771653543303
11
3.4351142913385826
21
-5.0523005118110236
0
LINE
8
BLACK
6
CONTINUOUS
10
3.4351142913385826
20
-5.0523005118110236
11
3.4356469685039368
21
-5.0517678346456689
0
LINE
8
BLACK
6
CONTINUOUS
10
3.4356469685039368
20
-5.0517678346456689
11
3.436023622047244
21
-5.0516929133858266
0
LINE
8
BLACK
6
CONTINUOUS
10
3.436023622047244
20
-5.0516929133858266
11
4.109251968503937
21
-5.0516929133858266
0
LINE
8
BLACK
6
CONTINUOUS
10
4.109251968503937
20
-5.0516929133858266
11
4.1096286220472438
21
-5.0517678346456689
0
LINE
8
BLACK
6
CONTINUOUS
10
3.4370078740157481
20
-5.0536614173228349
11
3.4370078740157481
21
-5.2682283464566924
0
LINE
8
BLACK
6
CONTINUOUS
10
3.4370078740157481
20
-5.2682283464566924
11
4.1082677165354333
21
-5.2682283464566924
0
LINE
8
BLACK
6
CONTINUOUS
10
4.1082677165354333
20
-5.2682283464566924
11
4.1082677165354333
21
-5.0536614173228349
0
LINE
8
BLACK
6
CONTINUOUS
10
4.1082677165354333
20
-5.0536614173228349
11
3.4370078740157481
21
-5.0536614173228349
0
LINE
8
BLACK
6
CONTINUOUS
10
3.6941168110236218
20
-4.9753505118110235
11
3.6946494881889764
21
-4.9758831889763782
0
LINE
8
BLACK
6
CONTINUOUS
10
3.6946494881889764
20
-4.9758831889763782
11
3.6947244094488187
21
-4.9762598425196849
0
LINE
8
BLACK
6
CONTINUOUS
10
3.6947244094488187
20
-4.9762598425196849
11
3.6947244094488187
21
-5.0337401574803149
0
LINE
8
BLACK
6
CONTINUOUS
10
3.6947244094488187
20
-5.0337401574803149
11
3.6946494881889764
21
-5.0341168110236216
0
LINE
8
BLACK
6
CONTINUOUS
10
3.6946494881889764
20
-5.0341168110236216
11
3.6941168110236218
21
-5.0346494881889763
0
LINE
8
BLACK
6
CONTINUOUS
10
3.6941168110236218
20
-5.0346494881889763
11
3.693740157480315
21
-5.0347244094488186
0
LINE
8
BLACK
6
CONTINUOUS
10
3.693740157480315
20
-5.0347244094488186
11
3.5772047244094489
21
-5.0347244094488186
0
LINE
8
BLACK
6
CONTINUOUS
10
3.5772047244094489
20
-5.0347244094488186
11
3.5768280708661417
21
-5.0346494881889763
0
LINE
8
BLACK
6
CONTINUOUS
10
3.5768280708661417
20
-5.0346494881889763
11
3.5762953937007875
21
-5.0341168110236216
0
LINE
8
BLACK
6
CONTINUOUS
10
3.5762953937007875
20
-5.0341168110236216
11
3.5762204724409448
21
-5.0337401574803149
0
LINE
8
BLACK
6
CONTINUOUS
10
3.5762204724409448
20
-5.0337401574803149
11
3.5762204724409448
21
-4.9762598425196849
0
LINE
8
BLACK
6
CONTINUOUS
10
3.5762204724409448
20
-4.9762598425196849
11
3.5762953937007875
21
-4.9758831889763782
0
LINE
8
BLACK
6
CONTINUOUS
10
3.5762953937007875
20
-4.9758831889763782
11
3.5768280708661417
21
-4.9753505118110235
0
LINE
8
BLACK
6
CONTINUOUS
10
3.5768280708661417
20
-4.9753505118110235
11
3.5772047244094489
21
-4.9752755905511812
0
LINE
8
BLACK
6
CONTINUOUS
10
3.5772047244094489
20
-4.9752755905511812
11
3.693740157480315
21
-4.9752755905511812
0
LINE
8
BLACK
6
CONTINUOUS
10
3.693740157480315
20
-4.9752755905511812
11
3.6941168110236218
21
-4.9753505118110235
0
LINE
8
BLACK
6
CONTINUOUS
10
3.5781889763779526
20
-4.9772440944881886
11
3.5781889763779526
21
-5.0327559055118112
0
LINE
8
BLACK
6
CONTINUOUS
10
3.5781889763779526
20
-5.0327559055118112
11
3.6927559055118109
21
-5.0327559055118112
0
LINE
8
BLACK
6
CONTINUOUS
10
3.6927559055118109
20
-5.0327559055118112
11
3.6927559055118109
21
-4.9772440944881886
0
LINE
8
BLACK
6
CONTINUOUS
10
3.6927559055118109
20
-4.9772440944881886
11
3.5781889763779526
21
-4.9772440944881886
0
LINE
8
BLACK
6
CONTINUOUS
10
3.8136443700787401
20
-4.9753505118110235
11
3.8141770472440943
21
-4.9758831889763782
0
LINE
8
BLACK
6
CONTINUOUS
10
3.8141770472440943
20
-4.9758831889763782
11
3.8142519685039371
21
-4.9762598425196849
0
LINE
8
BLACK
6
CONTINUOUS
10
3.8142519685039371
20
-4.9762598425196849
11
3.8142519685039371
21
-5.0337401574803149
0
LINE
8
BLACK
6
CONTINUOUS
10
3.8142519685039371
20
-5.0337401574803149
11
3.8141770472440943
21
-5.0341168110236216
0
LINE
8
BLACK
6
CONTINUOUS
10
3.8141770472440943
20
-5.0341168110236216
11
3.8136443700787401
21
-5.0346494881889763
0
LINE
8
BLACK
6
CONTINUOUS
10
3.8136443700787401
20
-5.0346494881889763
11
3.8132677165354329
21
-5.0347244094488186
0
LINE
8
BLACK
6
CONTINUOUS
10
3.8132677165354329
20
-5.0347244094488186
11
3.6967322834645668
21
-5.0347244094488186
0
LINE
8
BLACK
6
CONTINUOUS
10
3.6967322834645668
20
-5.0347244094488186
11
3.6963556299212597
21
-5.0346494881889763
0
LINE
8
BLACK
6
CONTINUOUS
10
3.6963556299212597
20
-5.0346494881889763
11
3.6958229527559054
21
-5.0341168110236216
0
LINE
8
BLACK
6
CONTINUOUS
10
3.6958229527559054
20
-5.0341168110236216
11
3.6957480314960631
21
-5.0337401574803149
0
LINE
8
BLACK
6
CONTINUOUS
10
3.6957480314960631
20
-5.0337401574803149
11
3.6957480314960631
21
-4.9762598425196849
0
LINE
8
BLACK
6
CONTINUOUS
10
3.6957480314960631
20
-4.9762598425196849
11
3.6958229527559054
21
-4.9758831889763782
0
LINE
8
BLACK
6
CONTINUOUS
10
3.6958229527559054
20
-4.9758831889763782
11
3.6963556299212597
21
-4.9753505118110235
0
LINE
8
BLACK
6
CONTINUOUS
10
3.6963556299212597
20
-4.9753505118110235
11
3.6967322834645668
21
-4.9752755905511812
0
LINE
8
BLACK
6
CONTINUOUS
10
3.6967322834645668
20
-4.9752755905511812
11
3.8132677165354329
21
-4.9752755905511812
0
LINE
8
BLACK
6
CONTINUOUS
10
3.8132677165354329
20
-4.9752755905511812
11
3.8136443700787401
21
-4.9753505118110235
0
LINE
8
BLACK
6
CONTINUOUS
10
3.697716535433071
20
-4.9772440944881886
11
3.697716535433071
21
-5.0327559055118112
0
LINE
8
BLACK
6
CONTINUOUS
10
3.697716535433071
20
-5.0327559055118112
11
3.8122834645669292
21
-5.0327559055118112
0
LINE
8
BLACK
6
CONTINUOUS
10
3.8122834645669292
20
-5.0327559055118112
11
3.8122834645669292
21
-4.9772440944881886
0
LINE
8
BLACK
6
CONTINUOUS
10
3.8122834645669292
20
-4.9772440944881886
11
3.697716535433071
21
-4.9772440944881886
0
LINE
8
BLACK
6
CONTINUOUS
10
3.0416443700787399
20
-4.9453505118110233
11
3.0421770472440945
21
-4.9458831889763779
0
LINE
8
BLACK
6
CONTINUOUS
10
3.0421770472440945
20
-4.9458831889763779
11
3.0422519685039369
21
-4.9462598425196846
0
LINE
8
BLACK
6
CONTINUOUS
10
3.0422519685039369
20
-4.9462598425196846
11
3.0422519685039369
21
-5.0037401574803146
0
LINE
8
BLACK
6
CONTINUOUS
10
3.0422519685039369
20
-5.0037401574803146
11
3.0421770472440945
21
-5.0041168110236223
0
LINE
8
BLACK
6
CONTINUOUS
10
3.0421770472440945
20
-5.0041168110236223
11
3.0416443700787399
21
-5.004649488188976
0
LINE
8
BLACK
6
CONTINUOUS
10
3.0416443700787399
20
-5.004649488188976
11
3.0412677165354332
21
-5.0047244094488184
0
LINE
8
BLACK
6
CONTINUOUS
10
3.0412677165354332
20
-5.0047244094488184
11
2.924732283464567
21
-5.0047244094488184
0
LINE
8
BLACK
6
CONTINUOUS
10
2.924732283464567
20
-5.0047244094488184
11
2.9243556299212599
21
-5.004649488188976
0
LINE
8
BLACK
6
CONTINUOUS
10
2.9243556299212599
20
-5.004649488188976
11
2.9238229527559056
21
-5.0041168110236223
0
LINE
8
BLACK
6
CONTINUOUS
10
2.9238229527559056
20
-5.0041168110236223
11
2.9237480314960629
21
-5.0037401574803146
0
LINE
8
BLACK
6
CONTINUOUS
10
2.9237480314960629
20
-5.0037401574803146
11
2.9237480314960629
21
-4.9462598425196846
0
LINE
8
BLACK
6
CONTINUOUS
10
2.9237480314960629
20
-4.9462598425196846
11
2.9238229527559056
21
-4.9458831889763779
0
LINE
8
BLACK
6
CONTINUOUS
10
2.9238229527559056
20
-4.9458831889763779
11
2.9243556299212599
21
-4.9453505118110233
0
LINE
8
BLACK
6
CONTINUOUS
10
2.9243556299212599
20
-4.9453505118110233
11
2.924732283464567
21
-4.9452755905511809
0
LINE
8
BLACK
6
CONTINUOUS
10
2.924732283464567
20
-4.9452755905511809
11
3.0412677165354332
21
-4.9452755905511809
0
LINE
8
BLACK
6
CONTINUOUS
10
3.0412677165354332
20
-4.9452755905511809
11
3.0416443700787399
21
-4.9453505118110233
0
LINE
8
BLACK
6
CONTINUOUS
10
2.9257165354330708
20
-4.9472440944881892
11
2.9257165354330708
21
-5.0027559055118109
0
LINE
8
BLACK
6
CONTINUOUS
10
2.9257165354330708
20
-5.0027559055118109
11
3.040283464566929
21
-5.0027559055118109
0
LINE
8
BLACK
6
CONTINUOUS
10
3.040283464566929
20
-5.0027559055118109
11
3.040283464566929
21
-4.9472440944881892
0
LINE
8
BLACK
6
CONTINUOUS
10
3.040283464566929
20
-4.9472440944881892
11
2.9257165354330708
21
-4.9472440944881892
0
LINE
8
BLACK
6
CONTINUOUS
10
3.19214437007874
20
-4.9453505118110233
11
3.1926770472440946
21
-4.9458831889763779
0
LINE
8
BLACK
6
CONTINUOUS
10
3.1926770472440946
20
-4.9458831889763779
11
3.1927519685039369
21
-4.9462598425196846
0
LINE
8
BLACK
6
CONTINUOUS
10
3.1927519685039369
20
-4.9462598425196846
11
3.1927519685039369
21
-5.0037401574803146
0
LINE
8
BLACK
6
CONTINUOUS
10
3.1927519685039369
20
-5.0037401574803146
11
3.1926770472440946
21
-5.0041168110236223
0
LINE
8
BLACK
6
CONTINUOUS
10
3.1926770472440946
20
-5.0041168110236223
11
3.19214437007874
21
-5.004649488188976
0
LINE
8
BLACK
6
CONTINUOUS
10
3.19214437007874
20
-5.004649488188976
11
3.1917677165354328
21
-5.0047244094488184
0
LINE
8
BLACK
6
CONTINUOUS
10
3.1917677165354328
20
-5.0047244094488184
11
3.0752322834645667
21
-5.0047244094488184
0
LINE
8
BLACK
6
CONTINUOUS
10
3.0752322834645667
20
-5.0047244094488184
11
3.0748556299212599
21
-5.004649488188976
0
LINE
8
BLACK
6
CONTINUOUS
10
3.0748556299212599
20
-5.004649488188976
11
3.0743229527559053
21
-5.0041168110236223
0
LINE
8
BLACK
6
CONTINUOUS
10
3.0743229527559053
20
-5.0041168110236223
11
3.074248031496063
21
-5.0037401574803146
0
LINE
8
BLACK
6
CONTINUOUS
10
3.074248031496063
20
-5.0037401574803146
11
3.074248031496063
21
-4.9462598425196846
0
LINE
8
BLACK
6
CONTINUOUS
10
3.074248031496063
20
-4.9462598425196846
11
3.0743229527559053
21
-4.9458831889763779
0
LINE
8
BLACK
6
CONTINUOUS
10
3.0743229527559053
20
-4.9458831889763779
11
3.0748556299212599
21
-4.9453505118110233
0
LINE
8
BLACK
6
CONTINUOUS
10
3.0748556299212599
20
-4.9453505118110233
11
3.0752322834645667
21
-4.9452755905511809
0
LINE
8
BLACK
6
CONTINUOUS
10
3.0752322834645667
20
-4.9452755905511809
11
3.1917677165354328
21
-4.9452755905511809
0
LINE
8
BLACK
6
CONTINUOUS
10
3.1917677165354328
20
-4.9452755905511809
11
3.19214437007874
21
-4.9453505118110233
0
LINE
8
BLACK
6
CONTINUOUS
10
3.0762165354330708
20
-4.9472440944881892
11
3.0762165354330708
21
-5.0027559055118109
0
LINE
8
BLACK
6
CONTINUOUS
10
3.0762165354330708
20
-5.0027559055118109
11
3.1907834645669291
21
-5.0027559055118109
0
LINE
8
BLACK
6
CONTINUOUS
10
3.1907834645669291
20
-5.0027559055118109
11
3.1907834645669291
21
-4.9472440944881892
0
LINE
8
BLACK
6
CONTINUOUS
10
3.1907834645669291
20
-4.9472440944881892
11
3.0762165354330708
21
-4.9472440944881892
0
LINE
8
BLACK
6
CONTINUOUS
10
3.5611128740157478
20
-4.8916890944881892
11
3.5616455511811025
21
-4.892221771653543
0
LINE
8
BLACK
6
CONTINUOUS
10
3.5616455511811025
20
-4.892221771653543
11
3.5617204724409448
21
-4.8925984251968506
0
LINE
8
BLACK
6
CONTINUOUS
10
3.5617204724409448
20
-4.8925984251968506
11
3.5617204724409448
21
-4.9674015748031497
0
LINE
8
BLACK
6
CONTINUOUS
10
3.5617204724409448
20
-4.9674015748031497
11
3.5616455511811025
21
-4.9677782283464564
0
LINE
8
BLACK
6
CONTINUOUS
10
3.5616455511811025
20
-4.9677782283464564
11
3.5611128740157478
21
-4.9683109055118111
0
LINE
8
BLACK
6
CONTINUOUS
10
3.5611128740157478
20
-4.9683109055118111
11
3.5607362204724406
21
-4.9683858267716534
0
LINE
8
BLACK
6
CONTINUOUS
10
3.5607362204724406
20
-4.9683858267716534
11
3.4150669291338582
21
-4.9683858267716534
0
LINE
8
BLACK
6
CONTINUOUS
10
3.4150669291338582
20
-4.9683858267716534
11
3.414690275590551
21
-4.9683109055118111
0
LINE
8
BLACK
6
CONTINUOUS
10
3.414690275590551
20
-4.9683109055118111
11
3.4141575984251968
21
-4.9677782283464564
0
LINE
8
BLACK
6
CONTINUOUS
10
3.4141575984251968
20
-4.9677782283464564
11
3.4140826771653541
21
-4.9674015748031497
0
LINE
8
BLACK
6
CONTINUOUS
10
3.4140826771653541
20
-4.9674015748031497
11
3.4140826771653541
21
-4.8925984251968506
0
LINE
8
BLACK
6
CONTINUOUS
10
3.4140826771653541
20
-4.8925984251968506
11
3.4141575984251968
21
-4.892221771653543
0
LINE
8
BLACK
6
CONTINUOUS
10
3.4141575984251968
20
-4.892221771653543
11
3.414690275590551
21
-4.8916890944881892
0
LINE
8
BLACK
6
CONTINUOUS
10
3.414690275590551
20
-4.8916890944881892
11
3.4150669291338582
21
-4.891614173228346
0
LINE
8
BLACK
6
CONTINUOUS
10
3.4150669291338582
20
-4.891614173228346
11
3.5607362204724406
21
-4.891614173228346
0
LINE
8
BLACK
6
CONTINUOUS
10
3.5607362204724406
20
-4.891614173228346
11
3.5611128740157478
21
-4.8916890944881892
0
LINE
8
BLACK
6
CONTINUOUS
10
3.4160511811023619
20
-4.8935826771653543
11
3.4160511811023619
21
-4.966417322834646
0
LINE
8
BLACK
6
CONTINUOUS
10
3.4160511811023619
20
-4.966417322834646
11
3.5597519685039369
21
-4.966417322834646
0
LINE
8
BLACK
6
CONTINUOUS
10
3.5597519685039369
20
-4.966417322834646
11
3.5597519685039369
21
-4.8935826771653543
0
LINE
8
BLACK
6
CONTINUOUS
10
3.5597519685039369
20
-4.8935826771653543
11
3.4160511811023619
21
-4.8935826771653543
0
LINE
8
BLACK
6
CONTINUOUS
10
3.69364437007874
20
-4.9003505118110233
11
3.6941770472440942
21
-4.900883188976378
0
LINE
8
BLACK
6
CONTINUOUS
10
3.6941770472440942
20
-4.900883188976378
11
3.694251968503937
21
-4.9012598425196847
0
LINE
8
BLACK
6
CONTINUOUS
10
3.694251968503937
20
-4.9012598425196847
11
3.694251968503937
21
-4.9587401574803147
0
LINE
8
BLACK
6
CONTINUOUS
10
3.694251968503937
20
-4.9587401574803147
11
3.6941770472440942
21
-4.9591168110236223
0
LINE
8
BLACK
6
CONTINUOUS
10
3.6941770472440942
20
-4.9591168110236223
11
3.69364437007874
21
-4.9596494881889761
0
LINE
8
BLACK
6
CONTINUOUS
10
3.69364437007874
20
-4.9596494881889761
11
3.6932677165354328
21
-4.9597244094488184
0
LINE
8
BLACK
6
CONTINUOUS
10
3.6932677165354328
20
-4.9597244094488184
11
3.5767322834645667
21
-4.9597244094488184
0
LINE
8
BLACK
6
CONTINUOUS
10
3.5767322834645667
20
-4.9597244094488184
11
3.5763556299212595
21
-4.9596494881889761
0
LINE
8
BLACK
6
CONTINUOUS
10
3.5763556299212595
20
-4.9596494881889761
11
3.5758229527559053
21
-4.9591168110236223
0
LINE
8
BLACK
6
CONTINUOUS
10
3.5758229527559053
20
-4.9591168110236223
11
3.575748031496063
21
-4.9587401574803147
0
LINE
8
BLACK
6
CONTINUOUS
10
3.575748031496063
20
-4.9587401574803147
11
3.575748031496063
21
-4.9012598425196847
0
LINE
8
BLACK
6
CONTINUOUS
10
3.575748031496063
20
-4.9012598425196847
11
3.5758229527559053
21
-4.900883188976378
0
LINE
8
BLACK
6
CONTINUOUS
10
3.5758229527559053
20
-4.900883188976378
11
3.5763556299212595
21
-4.9003505118110233
0
LINE
8
BLACK
6
CONTINUOUS
10
3.5763556299212595
20
-4.9003505118110233
11
3.5767322834645667
21
-4.900275590551181
0
LINE
8
BLACK
6
CONTINUOUS
10
3.5767322834645667
20
-4.900275590551181
11
3.6932677165354328
21
-4.900275590551181
0
LINE
8
BLACK
6
CONTINUOUS
10
3.6932677165354328
20
-4.900275590551181
11
3.69364437007874
21
-4.9003505118110233
0
LINE
8
BLACK
6
CONTINUOUS
10
3.5777165354330709
20
-4.9022440944881884
11
3.5777165354330709
21
-4.957755905511811
0
LINE
8
BLACK
6
CONTINUOUS
10
3.5777165354330709
20
-4.957755905511811
11
3.6922834645669291
21
-4.957755905511811
0
LINE
8
BLACK
6
CONTINUOUS
10
3.6922834645669291
20
-4.957755905511811
11
3.6922834645669291
21
-4.9022440944881884
0
LINE
8
BLACK
6
CONTINUOUS
10
3.6922834645669291
20
-4.9022440944881884
11
3.5777165354330709
21
-4.9022440944881884
0
LINE
8
BLACK
6
CONTINUOUS
10
3.8136443700787401
20
-4.9003505118110233
11
3.8141770472440943
21
-4.900883188976378
0
LINE
8
BLACK
6
CONTINUOUS
10
3.8141770472440943
20
-4.900883188976378
11
3.8142519685039371
21
-4.9012598425196847
0
LINE
8
BLACK
6
CONTINUOUS
10
3.8142519685039371
20
-4.9012598425196847
11
3.8142519685039371
21
-4.9587401574803147
0
LINE
8
BLACK
6
CONTINUOUS
10
3.8142519685039371
20
-4.9587401574803147
11
3.8141770472440943
21
-4.9591168110236223
0
LINE
8
BLACK
6
CONTINUOUS
10
3.8141770472440943
20
-4.9591168110236223
11
3.8136443700787401
21
-4.9596494881889761
0
LINE
8
BLACK
6
CONTINUOUS
10
3.8136443700787401
20
-4.9596494881889761
11
3.8132677165354329
21
-4.9597244094488184
0
LINE
8
BLACK
6
CONTINUOUS
10
3.8132677165354329
20
-4.9597244094488184
11
3.6967322834645668
21
-4.9597244094488184
0
LINE
8
BLACK
6
CONTINUOUS
10
3.6967322834645668
20
-4.9597244094488184
11
3.6963556299212597
21
-4.9596494881889761
0
LINE
8
BLACK
6
CONTINUOUS
10
3.6963556299212597
20
-4.9596494881889761
11
3.6958229527559054
21
-4.9591168110236223
0
LINE
8
BLACK
6
CONTINUOUS
10
3.6958229527559054
20
-4.9591168110236223
11
3.6957480314960631
21
-4.9587401574803147
0
LINE
8
BLACK
6
CONTINUOUS
10
3.6957480314960631
20
-4.9587401574803147
11
3.6957480314960631
21
-4.9012598425196847
0
LINE
8
BLACK
6
CONTINUOUS
10
3.6957480314960631
20
-4.9012598425196847
11
3.6958229527559054
21
-4.900883188976378
0
LINE
8
BLACK
6
CONTINUOUS
10
3.6958229527559054
20
-4.900883188976378
11
3.6963556299212597
21
-4.9003505118110233
0
LINE
8
BLACK
6
CONTINUOUS
10
3.6963556299212597
20
-4.9003505118110233
11
3.6967322834645668
21
-4.900275590551181
0
LINE
8
BLACK
6
CONTINUOUS
10
3.6967322834645668
20
-4.900275590551181
11
3.8132677165354329
21
-4.900275590551181
0
LINE
8
BLACK
6
CONTINUOUS
10
3.8132677165354329
20
-4.900275590551181
11
3.8136443700787401
21
-4.9003505118110233
0
LINE
8
BLACK
6
CONTINUOUS
10
3.697716535433071
20
-4.9022440944881884
11
3.697716535433071
21
-4.957755905511811
0
LINE
8
BLACK
6
CONTINUOUS
10
3.697716535433071
20
-4.957755905511811
11
3.8122834645669292
21
-4.957755905511811
0
LINE
8
BLACK
6
CONTINUOUS
10
3.8122834645669292
20
-4.957755905511811
11
3.8122834645669292
21
-4.9022440944881884
0
LINE
8
BLACK
6
CONTINUOUS
10
3.8122834645669292
20
-4.9022440944881884
11
3.697716535433071
21
-4.9022440944881884
0
LINE
8
BLACK
6
CONTINUOUS
10
2.9771168110236221
20
-4.8158229527559051
11
2.9776494881889763
21
-4.8163556299212598
0
LINE
8
BLACK
6
CONTINUOUS
10
2.9776494881889763
20
-4.8163556299212598
11
2.9777244094488187
21
-4.8167322834645665
0
LINE
8
BLACK
6
CONTINUOUS
10
2.9777244094488187
20
-4.8167322834645665
11
2.9777244094488187
21
-4.9332677165354326
0
LINE
8
BLACK
6
CONTINUOUS
10
2.9777244094488187
20
-4.9332677165354326
11
2.9776494881889763
21
-4.9336443700787402
0
LINE
8
BLACK
6
CONTINUOUS
10
2.9776494881889763
20
-4.9336443700787402
11
2.9771168110236221
21
-4.934177047244094
0
LINE
8
BLACK
6
CONTINUOUS
10
2.9771168110236221
20
-4.934177047244094
11
2.976740157480315
21
-4.9342519685039372
0
LINE
8
BLACK
6
CONTINUOUS
10
2.976740157480315
20
-4.9342519685039372
11
2.919259842519685
21
-4.9342519685039372
0
LINE
8
BLACK
6
CONTINUOUS
10
2.919259842519685
20
-4.9342519685039372
11
2.9188831889763778
21
-4.934177047244094
0
LINE
8
BLACK
6
CONTINUOUS
10
2.9188831889763778
20
-4.934177047244094
11
2.9183505118110236
21
-4.9336443700787402
0
LINE
8
BLACK
6
CONTINUOUS
10
2.9183505118110236
20
-4.9336443700787402
11
2.9182755905511812
21
-4.9332677165354326
0
LINE
8
BLACK
6
CONTINUOUS
10
2.9182755905511812
20
-4.9332677165354326
11
2.9182755905511812
21
-4.8167322834645665
0
LINE
8
BLACK
6
CONTINUOUS
10
2.9182755905511812
20
-4.8167322834645665
11
2.9183505118110236
21
-4.8163556299212598
0
LINE
8
BLACK
6
CONTINUOUS
10
2.9183505118110236
20
-4.8163556299212598
11
2.9188831889763778
21
-4.8158229527559051
0
LINE
8
BLACK
6
CONTINUOUS
10
2.9188831889763778
20
-4.8158229527559051
11
2.919259842519685
21
-4.8157480314960628
0
LINE
8
BLACK
6
CONTINUOUS
10
2.919259842519685
20
-4.8157480314960628
11
2.976740157480315
21
-4.8157480314960628
0
LINE
8
BLACK
6
CONTINUOUS
10
2.976740157480315
20
-4.8157480314960628
11
2.9771168110236221
21
-4.8158229527559051
0
LINE
8
BLACK
6
CONTINUOUS
10
2.9202440944881891
20
-4.8177165354330711
11
2.9202440944881891
21
-4.9322834645669289
0
LINE
8
BLACK
6
CONTINUOUS
10
2.9202440944881891
20
-4.9322834645669289
11
2.9757559055118108
21
-4.9322834645669289
0
LINE
8
BLACK
6
CONTINUOUS
10
2.9757559055118108
20
-4.9322834645669289
11
2.9757559055118108
21
-4.8177165354330711
0
LINE
8
BLACK
6
CONTINUOUS
10
2.9757559055118108
20
-4.8177165354330711
11
2.9202440944881891
21
-4.8177165354330711
0
LINE
8
BLACK
6
CONTINUOUS
10
3.047116811023622
20
-4.8158229527559051
11
3.0476494881889762
21
-4.8163556299212598
0
LINE
8
BLACK
6
CONTINUOUS
10
3.0476494881889762
20
-4.8163556299212598
11
3.0477244094488189
21
-4.8167322834645665
0
LINE
8
BLACK
6
CONTINUOUS
10
3.0477244094488189
20
-4.8167322834645665
11
3.0477244094488189
21
-4.9332677165354326
0
LINE
8
BLACK
6
CONTINUOUS
10
3.0477244094488189
20
-4.9332677165354326
11
3.0476494881889762
21
-4.9336443700787402
0
LINE
8
BLACK
6
CONTINUOUS
10
3.0476494881889762
20
-4.9336443700787402
11
3.047116811023622
21
-4.934177047244094
0
LINE
8
BLACK
6
CONTINUOUS
10
3.047116811023622
20
-4.934177047244094
11
3.0467401574803148
21
-4.9342519685039372
0
LINE
8
BLACK
6
CONTINUOUS
10
3.0467401574803148
20
-4.9342519685039372
11
2.9892598425196848
21
-4.9342519685039372
0
LINE
8
BLACK
6
CONTINUOUS
10
2.9892598425196848
20
-4.9342519685039372
11
2.9888831889763781
21
-4.934177047244094
0
LINE
8
BLACK
6
CONTINUOUS
10
2.9888831889763781
20
-4.934177047244094
11
2.9883505118110234
21
-4.9336443700787402
0
LINE
8
BLACK
6
CONTINUOUS
10
2.9883505118110234
20
-4.9336443700787402
11
2.9882755905511811
21
-4.9332677165354326
0
LINE
8
BLACK
6
CONTINUOUS
10
2.9882755905511811
20
-4.9332677165354326
11
2.9882755905511811
21
-4.8167322834645665
0
LINE
8
BLACK
6
CONTINUOUS
10
2.9882755905511811
20
-4.8167322834645665
11
2.9883505118110234
21
-4.8163556299212598
0
LINE
8
BLACK
6
CONTINUOUS
10
2.9883505118110234
20
-4.8163556299212598
11
2.9888831889763781
21
-4.8158229527559051
0
LINE
8
BLACK
6
CONTINUOUS
10
2.9888831889763781
20
-4.8158229527559051
11
2.9892598425196848
21
-4.8157480314960628
0
LINE
8
BLACK
6
CONTINUOUS
10
2.9892598425196848
20
-4.8157480314960628
11
3.0467401574803148
21
-4.8157480314960628
0
LINE
8
BLACK
6
CONTINUOUS
10
3.0467401574803148
20
-4.8157480314960628
11
3.047116811023622
21
-4.8158229527559051
0
LINE
8
BLACK
6
CONTINUOUS
10
2.990244094488189
20
-4.8177165354330711
11
2.990244094488189
21
-4.9322834645669289
0
LINE
8
BLACK
6
CONTINUOUS
10
2.990244094488189
20
-4.9322834645669289
11
3.0457559055118111
21
-4.9322834645669289
0
LINE
8
BLACK
6
CONTINUOUS
10
3.0457559055118111
20
-4.9322834645669289
11
3.0457559055118111
21
-4.8177165354330711
0
LINE
8
BLACK
6
CONTINUOUS
10
3.0457559055118111
20
-4.8177165354330711
11
2.990244094488189
21
-4.8177165354330711
0
LINE
8
BLACK
6
CONTINUOUS
10
3.1276168110236218
20
-4.8158229527559051
11
3.1281494881889764
21
-4.8163556299212598
0
LINE
8
BLACK
6
CONTINUOUS
10
3.1281494881889764
20
-4.8163556299212598
11
3.1282244094488187
21
-4.8167322834645665
0
LINE
8
BLACK
6
CONTINUOUS
10
3.1282244094488187
20
-4.8167322834645665
11
3.1282244094488187
21
-4.9332677165354326
0
LINE
8
BLACK
6
CONTINUOUS
10
3.1282244094488187
20
-4.9332677165354326
11
3.1281494881889764
21
-4.9336443700787402
0
LINE
8
BLACK
6
CONTINUOUS
10
3.1281494881889764
20
-4.9336443700787402
11
3.1276168110236218
21
-4.934177047244094
0
LINE
8
BLACK
6
CONTINUOUS
10
3.1276168110236218
20
-4.934177047244094
11
3.127240157480315
21
-4.9342519685039372
0
LINE
8
BLACK
6
CONTINUOUS
10
3.127240157480315
20
-4.9342519685039372
11
3.069759842519685
21
-4.9342519685039372
0
LINE
8
BLACK
6
CONTINUOUS
10
3.069759842519685
20
-4.9342519685039372
11
3.0693831889763779
21
-4.934177047244094
0
LINE
8
BLACK
6
CONTINUOUS
10
3.0693831889763779
20
-4.934177047244094
11
3.0688505118110236
21
-4.9336443700787402
0
LINE
8
BLACK
6
CONTINUOUS
10
3.0688505118110236
20
-4.9336443700787402
11
3.0687755905511809
21
-4.9332677165354326
0
LINE
8
BLACK
6
CONTINUOUS
10
3.0687755905511809
20
-4.9332677165354326
11
3.0687755905511809
21
-4.8167322834645665
0
LINE
8
BLACK
6
CONTINUOUS
10
3.0687755905511809
20
-4.8167322834645665
11
3.0688505118110236
21
-4.8163556299212598
0
LINE
8
BLACK
6
CONTINUOUS
10
3.0688505118110236
20
-4.8163556299212598
11
3.0693831889763779
21
-4.8158229527559051
0
LINE
8
BLACK
6
CONTINUOUS
10
3.0693831889763779
20
-4.8158229527559051
11
3.069759842519685
21
-4.8157480314960628
0
LINE
8
BLACK
6
CONTINUOUS
10
3.069759842519685
20
-4.8157480314960628
11
3.127240157480315
21
-4.8157480314960628
0
LINE
8
BLACK
6
CONTINUOUS
10
3.127240157480315
20
-4.8157480314960628
11
3.1276168110236218
21
-4.8158229527559051
0
LINE
8
BLACK
6
CONTINUOUS
10
3.0707440944881887
20
-4.8177165354330711
11
3.0707440944881887
21
-4.9322834645669289
0
LINE
8
BLACK
6
CONTINUOUS
10
3.0707440944881887
20
-4.9322834645669289
11
3.1262559055118109
21
-4.9322834645669289
0
LINE
8
BLACK
6
CONTINUOUS
10
3.1262559055118109
20
-4.9322834645669289
11
3.1262559055118109
21
-4.8177165354330711
0
LINE
8
BLACK
6
CONTINUOUS
10
3.1262559055118109
20
-4.8177165354330711
11
3.0707440944881887
21
-4.8177165354330711
0
LINE
8
BLACK
6
CONTINUOUS
10
3.1976168110236221
20
-4.8158229527559051
11
3.1981494881889763
21
-4.8163556299212598
0
LINE
8
BLACK
6
CONTINUOUS
10
3.1981494881889763
20
-4.8163556299212598
11
3.198224409448819
21
-4.8167322834645665
0
LINE
8
BLACK
6
CONTINUOUS
10
3.198224409448819
20
-4.8167322834645665
11
3.198224409448819
21
-4.9332677165354326
0
LINE
8
BLACK
6
CONTINUOUS
10
3.198224409448819
20
-4.9332677165354326
11
3.1981494881889763
21
-4.9336443700787402
0
LINE
8
BLACK
6
CONTINUOUS
10
3.1981494881889763
20
-4.9336443700787402
11
3.1976168110236221
21
-4.934177047244094
0
LINE
8
BLACK
6
CONTINUOUS
10
3.1976168110236221
20
-4.934177047244094
11
3.1972401574803149
21
-4.9342519685039372
0
LINE
8
BLACK
6
CONTINUOUS
10
3.1972401574803149
20
-4.9342519685039372
11
3.1397598425196849
21
-4.9342519685039372
0
LINE
8
BLACK
6
CONTINUOUS
10
3.1397598425196849
20
-4.9342519685039372
11
3.1393831889763777
21
-4.934177047244094
0
LINE
8
BLACK
6
CONTINUOUS
10
3.1393831889763777
20
-4.934177047244094
11
3.1388505118110235
21
-4.9336443700787402
0
LINE
8
BLACK
6
CONTINUOUS
10
3.1388505118110235
20
-4.9336443700787402
11
3.1387755905511812
21
-4.9332677165354326
0
LINE
8
BLACK
6
CONTINUOUS
10
3.1387755905511812
20
-4.9332677165354326
11
3.1387755905511812
21
-4.8167322834645665
0
LINE
8
BLACK
6
CONTINUOUS
10
3.1387755905511812
20
-4.8167322834645665
11
3.1388505118110235
21
-4.8163556299212598
0
LINE
8
BLACK
6
CONTINUOUS
10
3.1388505118110235
20
-4.8163556299212598
11
3.1393831889763777
21
-4.8158229527559051
0
LINE
8
BLACK
6
CONTINUOUS
10
3.1393831889763777
20
-4.8158229527559051
11
3.1397598425196849
21
-4.8157480314960628
0
LINE
8
BLACK
6
CONTINUOUS
10
3.1397598425196849
20
-4.8157480314960628
11
3.1972401574803149
21
-4.8157480314960628
0
LINE
8
BLACK
6
CONTINUOUS
10
3.1972401574803149
20
-4.8157480314960628
11
3.1976168110236221
21
-4.8158229527559051
0
LINE
8
BLACK
6
CONTINUOUS
10
3.140744094488189
20
-4.8177165354330711
11
3.140744094488189
21
-4.9322834645669289
0
LINE
8
BLACK
6
CONTINUOUS
10
3.140744094488189
20
-4.9322834645669289
11
3.1962559055118112
21
-4.9322834645669289
0
LINE
8
BLACK
6
CONTINUOUS
10
3.1962559055118112
20
-4.9322834645669289
11
3.1962559055118112
21
-4.8177165354330711
0
LINE
8
BLACK
6
CONTINUOUS
10
3.1962559055118112
20
-4.8177165354330711
11
3.140744094488189
21
-4.8177165354330711
0
LINE
8
BLACK
6
CONTINUOUS
10
3.6866168110236219
20
-4.7708229527559052
11
3.6871494881889761
21
-4.7713556299212598
0
LINE
8
BLACK
6
CONTINUOUS
10
3.6871494881889761
20
-4.7713556299212598
11
3.6872244094488189
21
-4.7717322834645666
0
LINE
8
BLACK
6
CONTINUOUS
10
3.6872244094488189
20
-4.7717322834645666
11
3.6872244094488189
21
-4.8882677165354327
0
LINE
8
BLACK
6
CONTINUOUS
10
3.6872244094488189
20
-4.8882677165354327
11
3.6871494881889761
21
-4.8886443700787403
0
LINE
8
BLACK
6
CONTINUOUS
10
3.6871494881889761
20
-4.8886443700787403
11
3.6866168110236219
21
-4.8891770472440941
0
LINE
8
BLACK
6
CONTINUOUS
10
3.6866168110236219
20
-4.8891770472440941
11
3.6862401574803147
21
-4.8892519685039373
0
LINE
8
BLACK
6
CONTINUOUS
10
3.6862401574803147
20
-4.8892519685039373
11
3.6287598425196848
21
-4.8892519685039373
0
LINE
8
BLACK
6
CONTINUOUS
10
3.6287598425196848
20
-4.8892519685039373
11
3.628383188976378
21
-4.8891770472440941
0
LINE
8
BLACK
6
CONTINUOUS
10
3.628383188976378
20
-4.8891770472440941
11
3.6278505118110234
21
-4.8886443700787403
0
LINE
8
BLACK
6
CONTINUOUS
10
3.6278505118110234
20
-4.8886443700787403
11
3.627775590551181
21
-4.8882677165354327
0
LINE
8
BLACK
6
CONTINUOUS
10
3.627775590551181
20
-4.8882677165354327
11
3.627775590551181
21
-4.7717322834645666
0
LINE
8
BLACK
6
CONTINUOUS
10
3.627775590551181
20
-4.7717322834645666
11
3.6278505118110234
21
-4.7713556299212598
0
LINE
8
BLACK
6
CONTINUOUS
10
3.6278505118110234
20
-4.7713556299212598
11
3.628383188976378
21
-4.7708229527559052
0
LINE
8
BLACK
6
CONTINUOUS
10
3.628383188976378
20
-4.7708229527559052
11
3.6287598425196848
21
-4.7707480314960629
0
LINE
8
BLACK
6
CONTINUOUS
10
3.6287598425196848
20
-4.7707480314960629
11
3.6862401574803147
21
-4.7707480314960629
0
LINE
8
BLACK
6
CONTINUOUS
10
3.6862401574803147
20
-4.7707480314960629
11
3.6866168110236219
21
-4.7708229527559052
0
LINE
8
BLACK
6
CONTINUOUS
10
3.6297440944881889
20
-4.7727165354330712
11
3.6297440944881889
21
-4.887283464566929
0
LINE
8
BLACK
6
CONTINUOUS
10
3.6297440944881889
20
-4.887283464566929
11
3.685255905511811
21
-4.887283464566929
0
LINE
8
BLACK
6
CONTINUOUS
10
3.685255905511811
20
-4.887283464566929
11
3.685255905511811
21
-4.7727165354330712
0
LINE
8
BLACK
6
CONTINUOUS
10
3.685255905511811
20
-4.7727165354330712
11
3.6297440944881889
21
-4.7727165354330712
0
LINE
8
BLACK
6
CONTINUOUS
10
3.7616168110236221
20
-4.7708229527559052
11
3.7621494881889763
21
-4.7713556299212598
0
LINE
8
BLACK
6
CONTINUOUS
10
3.7621494881889763
20
-4.7713556299212598
11
3.7622244094488186
21
-4.7717322834645666
0
LINE
8
BLACK
6
CONTINUOUS
10
3.7622244094488186
20
-4.7717322834645666
11
3.7622244094488186
21
-4.8882677165354327
0
LINE
8
BLACK
6
CONTINUOUS
10
3.7622244094488186
20
-4.8882677165354327
11
3.7621494881889763
21
-4.8886443700787403
0
LINE
8
BLACK
6
CONTINUOUS
10
3.7621494881889763
20
-4.8886443700787403
11
3.7616168110236221
21
-4.8891770472440941
0
LINE
8
BLACK
6
CONTINUOUS
10
3.7616168110236221
20
-4.8891770472440941
11
3.7612401574803149
21
-4.8892519685039373
0
LINE
8
BLACK
6
CONTINUOUS
10
3.7612401574803149
20
-4.8892519685039373
11
3.7037598425196849
21
-4.8892519685039373
0
LINE
8
BLACK
6
CONTINUOUS
10
3.7037598425196849
20
-4.8892519685039373
11
3.7033831889763777
21
-4.8891770472440941
0
LINE
8
BLACK
6
CONTINUOUS
10
3.7033831889763777
20
-4.8891770472440941
11
3.7028505118110235
21
-4.8886443700787403
0
LINE
8
BLACK
6
CONTINUOUS
10
3.7028505118110235
20
-4.8886443700787403
11
3.7027755905511812
21
-4.8882677165354327
0
LINE
8
BLACK
6
CONTINUOUS
10
3.7027755905511812
20
-4.8882677165354327
11
3.7027755905511812
21
-4.7717322834645666
0
LINE
8
BLACK
6
CONTINUOUS
10
3.7027755905511812
20
-4.7717322834645666
11
3.7028505118110235
21
-4.7713556299212598
0
LINE
8
BLACK
6
CONTINUOUS
10
3.7028505118110235
20
-4.7713556299212598
11
3.7033831889763777
21
-4.7708229527559052
0
LINE
8
BLACK
6
CONTINUOUS
10
3.7033831889763777
20
-4.7708229527559052
11
3.7037598425196849
21
-4.7707480314960629
0
LINE
8
BLACK
6
CONTINUOUS
10
3.7037598425196849
20
-4.7707480314960629
11
3.7612401574803149
21
-4.7707480314960629
0
LINE
8
BLACK
6
CONTINUOUS
10
3.7612401574803149
20
-4.7707480314960629
11
3.7616168110236221
21
-4.7708229527559052
0
LINE
8
BLACK
6
CONTINUOUS
10
3.7047440944881891
20
-4.7727165354330712
11
3.7047440944881891
21
-4.887283464566929
0
LINE
8
BLACK
6
CONTINUOUS
10
3.7047440944881891
20
-4.887283464566929
11
3.7602559055118108
21
-4.887283464566929
0
LINE
8
BLACK
6
CONTINUOUS
10
3.7602559055118108
20
-4.887283464566929
11
3.7602559055118108
21
-4.7727165354330712
0
LINE
8
BLACK
6
CONTINUOUS
10
3.7602559055118108
20
-4.7727165354330712
11
3.7047440944881891
21
-4.7727165354330712
0
LINE
8
BLACK
6
CONTINUOUS
10
2.6976994881889764
20
-4.1124764960629916
11
2.6982321653543306
21
-4.1130091732283462
0
LINE
8
BLACK
6
CONTINUOUS
10
2.6982321653543306
20
-4.1130091732283462
11
2.698307086614173
21
-4.1133858267716539
0
LINE
8
BLACK
6
CONTINUOUS
10
2.698307086614173
20
-4.1133858267716539
11
2.698307086614173
21
-4.7866141732283465
0
LINE
8
BLACK
6
CONTINUOUS
10
2.698307086614173
20
-4.7866141732283465
11
2.6982321653543306
21
-4.7869908267716532
0
LINE
8
BLACK
6
CONTINUOUS
10
2.6982321653543306
20
-4.7869908267716532
11
2.6976994881889764
21
-4.7875235039370079
0
LINE
8
BLACK
6
CONTINUOUS
10
2.6976994881889764
20
-4.7875235039370079
11
2.6973228346456692
21
-4.7875984251968502
0
LINE
8
BLACK
6
CONTINUOUS
10
2.6973228346456692
20
-4.7875984251968502
11
2.480787401574803
21
-4.7875984251968502
0
LINE
8
BLACK
6
CONTINUOUS
10
2.480787401574803
20
-4.7875984251968502
11
2.4804107480314959
21
-4.7875235039370079
0
LINE
8
BLACK
6
CONTINUOUS
10
2.4804107480314959
20
-4.7875235039370079
11
2.4798780708661416
21
-4.7869908267716532
0
LINE
8
BLACK
6
CONTINUOUS
10
2.4798780708661416
20
-4.7869908267716532
11
2.4798031496062993
21
-4.7866141732283465
0
LINE
8
BLACK
6
CONTINUOUS
10
2.4798031496062993
20
-4.7866141732283465
11
2.4798031496062993
21
-4.1133858267716539
0
LINE
8
BLACK
6
CONTINUOUS
10
2.4798031496062993
20
-4.1133858267716539
11
2.4798780708661416
21
-4.1130091732283462
0
LINE
8
BLACK
6
CONTINUOUS
10
2.4798780708661416
20
-4.1130091732283462
11
2.4804107480314959
21
-4.1124764960629916
0
LINE
8
BLACK
6
CONTINUOUS
10
2.4804107480314959
20
-4.1124764960629916
11
2.480787401574803
21
-4.1124015748031493
0
LINE
8
BLACK
6
CONTINUOUS
10
2.480787401574803
20
-4.1124015748031493
11
2.6973228346456692
21
-4.1124015748031493
0
LINE
8
BLACK
6
CONTINUOUS
10
2.6973228346456692
20
-4.1124015748031493
11
2.6976994881889764
21
-4.1124764960629916
0
LINE
8
BLACK
6
CONTINUOUS
10
2.4817716535433072
20
-4.1143700787401576
11
2.4817716535433072
21
-4.7856299212598428
0
LINE
8
BLACK
6
CONTINUOUS
10
2.4817716535433072
20
-4.7856299212598428
11
2.6963385826771651
21
-4.7856299212598428
0
LINE
8
BLACK
6
CONTINUOUS
10
2.6963385826771651
20
-4.7856299212598428
11
2.6963385826771651
21
-4.1143700787401576
0
LINE
8
BLACK
6
CONTINUOUS
10
2.6963385826771651
20
-4.1143700787401576
11
2.4817716535433072
21
-4.1143700787401576
0
LINE
8
BLACK
6
CONTINUOUS
10
2.93814437007874
20
-4.5288505118110232
11
2.9386770472440946
21
-4.5293831889763778
0
LINE
8
BLACK
6
CONTINUOUS
10
2.9386770472440946
20
-4.5293831889763778
11
2.9387519685039369
21
-4.5297598425196846
0
LINE
8
BLACK
6
CONTINUOUS
10
2.9387519685039369
20
-4.5297598425196846
11
2.9387519685039369
21
-4.5872401574803146
0
LINE
8
BLACK
6
CONTINUOUS
10
2.9387519685039369
20
-4.5872401574803146
11
2.9386770472440946
21
-4.5876168110236222
0
LINE
8
BLACK
6
CONTINUOUS
10
2.9386770472440946
20
-4.5876168110236222
11
2.93814437007874
21
-4.5881494881889759
0
LINE
8
BLACK
6
CONTINUOUS
10
2.93814437007874
20
-4.5881494881889759
11
2.9377677165354328
21
-4.5882244094488192
0
LINE
8
BLACK
6
CONTINUOUS
10
2.9377677165354328
20
-4.5882244094488192
11
2.8212322834645667
21
-4.5882244094488192
0
LINE
8
BLACK
6
CONTINUOUS
10
2.8212322834645667
20
-4.5882244094488192
11
2.8208556299212599
21
-4.5881494881889759
0
LINE
8
BLACK
6
CONTINUOUS
10
2.8208556299212599
20
-4.5881494881889759
11
2.8203229527559053
21
-4.5876168110236222
0
LINE
8
BLACK
6
CONTINUOUS
10
2.8203229527559053
20
-4.5876168110236222
11
2.820248031496063
21
-4.5872401574803146
0
LINE
8
BLACK
6
CONTINUOUS
10
2.820248031496063
20
-4.5872401574803146
11
2.820248031496063
21
-4.5297598425196846
0
LINE
8
BLACK
6
CONTINUOUS
10
2.820248031496063
20
-4.5297598425196846
11
2.8203229527559053
21
-4.5293831889763778
0
LINE
8
BLACK
6
CONTINUOUS
10
2.8203229527559053
20
-4.5293831889763778
11
2.8208556299212599
21
-4.5288505118110232
0
LINE
8
BLACK
6
CONTINUOUS
10
2.8208556299212599
20
-4.5288505118110232
11
2.8212322834645667
21
-4.5287755905511808
0
LINE
8
BLACK
6
CONTINUOUS
10
2.8212322834645667
20
-4.5287755905511808
11
2.9377677165354328
21
-4.5287755905511808
0
LINE
8
BLACK
6
CONTINUOUS
10
2.9377677165354328
20
-4.5287755905511808
11
2.93814437007874
21
-4.5288505118110232
0
LINE
8
BLACK
6
CONTINUOUS
10
2.8222165354330708
20
-4.5307440944881892
11
2.8222165354330708
21
-4.5862559055118108
0
LINE
8
BLACK
6
CONTINUOUS
10
2.8222165354330708
20
-4.5862559055118108
11
2.9367834645669291
21
-4.5862559055118108
0
LINE
8
BLACK
6
CONTINUOUS
10
2.9367834645669291
20
-4.5862559055118108
11
2.9367834645669291
21
-4.5307440944881892
0
LINE
8
BLACK
6
CONTINUOUS
10
2.9367834645669291
20
-4.5307440944881892
11
2.8222165354330708
21
-4.5307440944881892
0
LINE
8
BLACK
6
CONTINUOUS
10
2.8086168110236218
20
-4.4643229527559054
11
2.8091494881889765
21
-4.4648556299212601
0
LINE
8
BLACK
6
CONTINUOUS
10
2.8091494881889765
20
-4.4648556299212601
11
2.8092244094488188
21
-4.4652322834645668
0
LINE
8
BLACK
6
CONTINUOUS
10
2.8092244094488188
20
-4.4652322834645668
11
2.8092244094488188
21
-4.5817677165354329
0
LINE
8
BLACK
6
CONTINUOUS
10
2.8092244094488188
20
-4.5817677165354329
11
2.8091494881889765
21
-4.5821443700787396
0
LINE
8
BLACK
6
CONTINUOUS
10
2.8091494881889765
20
-4.5821443700787396
11
2.8086168110236218
21
-4.5826770472440943
0
LINE
8
BLACK
6
CONTINUOUS
10
2.8086168110236218
20
-4.5826770472440943
11
2.8082401574803151
21
-4.5827519685039366
0
LINE
8
BLACK
6
CONTINUOUS
10
2.8082401574803151
20
-4.5827519685039366
11
2.7507598425196851
21
-4.5827519685039366
0
LINE
8
BLACK
6
CONTINUOUS
10
2.7507598425196851
20
-4.5827519685039366
11
2.7503831889763779
21
-4.5826770472440943
0
LINE
8
BLACK
6
CONTINUOUS
10
2.7503831889763779
20
-4.5826770472440943
11
2.7498505118110237
21
-4.5821443700787396
0
LINE
8
BLACK
6
CONTINUOUS
10
2.7498505118110237
20
-4.5821443700787396
11
2.7497755905511809
21
-4.5817677165354329
0
LINE
8
BLACK
6
CONTINUOUS
10
2.7497755905511809
20
-4.5817677165354329
11
2.7497755905511809
21
-4.4652322834645668
0
LINE
8
BLACK
6
CONTINUOUS
10
2.7497755905511809
20
-4.4652322834645668
11
2.7498505118110237
21
-4.4648556299212601
0
LINE
8
BLACK
6
CONTINUOUS
10
2.7498505118110237
20
-4.4648556299212601
11
2.7503831889763779
21
-4.4643229527559054
0
LINE
8
BLACK
6
CONTINUOUS
10
2.7503831889763779
20
-4.4643229527559054
11
2.7507598425196851
21
-4.4642480314960631
0
LINE
8
BLACK
6
CONTINUOUS
10
2.7507598425196851
20
-4.4642480314960631
11
2.8082401574803151
21
-4.4642480314960631
0
LINE
8
BLACK
6
CONTINUOUS
10
2.8082401574803151
20
-4.4642480314960631
11
2.8086168110236218
21
-4.4643229527559054
0
LINE
8
BLACK
6
CONTINUOUS
10
2.7517440944881888
20
-4.4662165354330705
11
2.7517440944881888
21
-4.5807834645669292
0
LINE
8
BLACK
6
CONTINUOUS
10
2.7517440944881888
20
-4.5807834645669292
11
2.8072559055118109
21
-4.5807834645669292
0
LINE
8
BLACK
6
CONTINUOUS
10
2.8072559055118109
20
-4.5807834645669292
11
2.8072559055118109
21
-4.4662165354330705
0
LINE
8
BLACK
6
CONTINUOUS
10
2.8072559055118109
20
-4.4662165354330705
11
2.7517440944881888
21
-4.4662165354330705
0
LINE
8
BLACK
6
CONTINUOUS
10
2.93814437007874
20
-4.4588505118110238
11
2.9386770472440946
21
-4.4593831889763775
0
LINE
8
BLACK
6
CONTINUOUS
10
2.9386770472440946
20
-4.4593831889763775
11
2.9387519685039369
21
-4.4597598425196852
0
LINE
8
BLACK
6
CONTINUOUS
10
2.9387519685039369
20
-4.4597598425196852
11
2.9387519685039369
21
-4.5172401574803152
0
LINE
8
BLACK
6
CONTINUOUS
10
2.9387519685039369
20
-4.5172401574803152
11
2.9386770472440946
21
-4.5176168110236219
0
LINE
8
BLACK
6
CONTINUOUS
10
2.9386770472440946
20
-4.5176168110236219
11
2.93814437007874
21
-4.5181494881889765
0
LINE
8
BLACK
6
CONTINUOUS
10
2.93814437007874
20
-4.5181494881889765
11
2.9377677165354328
21
-4.5182244094488189
0
LINE
8
BLACK
6
CONTINUOUS
10
2.9377677165354328
20
-4.5182244094488189
11
2.8212322834645667
21
-4.5182244094488189
0
LINE
8
BLACK
6
CONTINUOUS
10
2.8212322834645667
20
-4.5182244094488189
11
2.8208556299212599
21
-4.5181494881889765
0
LINE
8
BLACK
6
CONTINUOUS
10
2.8208556299212599
20
-4.5181494881889765
11
2.8203229527559053
21
-4.5176168110236219
0
LINE
8
BLACK
6
CONTINUOUS
10
2.8203229527559053
20
-4.5176168110236219
11
2.820248031496063
21
-4.5172401574803152
0
LINE
8
BLACK
6
CONTINUOUS
10
2.820248031496063
20
-4.5172401574803152
11
2.820248031496063
21
-4.4597598425196852
0
LINE
8
BLACK
6
CONTINUOUS
10
2.820248031496063
20
-4.4597598425196852
11
2.8203229527559053
21
-4.4593831889763775
0
LINE
8
BLACK
6
CONTINUOUS
10
2.8203229527559053
20
-4.4593831889763775
11
2.8208556299212599
21
-4.4588505118110238
0
LINE
8
BLACK
6
CONTINUOUS
10
2.8208556299212599
20
-4.4588505118110238
11
2.8212322834645667
21
-4.4587755905511814
0
LINE
8
BLACK
6
CONTINUOUS
10
2.8212322834645667
20
-4.4587755905511814
11
2.9377677165354328
21
-4.4587755905511814
0
LINE
8
BLACK
6
CONTINUOUS
10
2.9377677165354328
20
-4.4587755905511814
11
2.93814437007874
21
-4.4588505118110238
0
LINE
8
BLACK
6
CONTINUOUS
10
2.8222165354330708
20
-4.4607440944881889
11
2.8222165354330708
21
-4.5162559055118106
0
LINE
8
BLACK
6
CONTINUOUS
10
2.8222165354330708
20
-4.5162559055118106
11
2.9367834645669291
21
-4.5162559055118106
0
LINE
8
BLACK
6
CONTINUOUS
10
2.9367834645669291
20
-4.5162559055118106
11
2.9367834645669291
21
-4.4607440944881889
0
LINE
8
BLACK
6
CONTINUOUS
10
2.9367834645669291
20
-4.4607440944881889
11
2.8222165354330708
21
-4.4607440944881889
0
LINE
8
BLACK
6
CONTINUOUS
10
3.502316811023622
20
-4.3986229527559058
11
3.5028494881889762
21
-4.3991556299212595
0
LINE
8
BLACK
6
CONTINUOUS
10
3.5028494881889762
20
-4.3991556299212595
11
3.502924409448819
21
-4.3995322834645672
0
LINE
8
BLACK
6
CONTINUOUS
10
3.502924409448819
20
-4.3995322834645672
11
3.502924409448819
21
-4.5160677165354333
0
LINE
8
BLACK
6
CONTINUOUS
10
3.502924409448819
20
-4.5160677165354333
11
3.5028494881889762
21
-4.51644437007874
0
LINE
8
BLACK
6
CONTINUOUS
10
3.5028494881889762
20
-4.51644437007874
11
3.502316811023622
21
-4.5169770472440947
0
LINE
8
BLACK
6
CONTINUOUS
10
3.502316811023622
20
-4.5169770472440947
11
3.5019401574803148
21
-4.517051968503937
0
LINE
8
BLACK
6
CONTINUOUS
10
3.5019401574803148
20
-4.517051968503937
11
3.4444598425196848
21
-4.517051968503937
0
LINE
8
BLACK
6
CONTINUOUS
10
3.4444598425196848
20
-4.517051968503937
11
3.4440831889763777
21
-4.5169770472440947
0
LINE
8
BLACK
6
CONTINUOUS
10
3.4440831889763777
20
-4.5169770472440947
11
3.4435505118110235
21
-4.51644437007874
0
LINE
8
BLACK
6
CONTINUOUS
10
3.4435505118110235
20
-4.51644437007874
11
3.4434755905511811
21
-4.5160677165354333
0
LINE
8
BLACK
6
CONTINUOUS
10
3.4434755905511811
20
-4.5160677165354333
11
3.4434755905511811
21
-4.3995322834645672
0
LINE
8
BLACK
6
CONTINUOUS
10
3.4434755905511811
20
-4.3995322834645672
11
3.4435505118110235
21
-4.3991556299212595
0
LINE
8
BLACK
6
CONTINUOUS
10
3.4435505118110235
20
-4.3991556299212595
11
3.4440831889763777
21
-4.3986229527559058
0
LINE
8
BLACK
6
CONTINUOUS
10
3.4440831889763777
20
-4.3986229527559058
11
3.4444598425196848
21
-4.3985480314960625
0
LINE
8
BLACK
6
CONTINUOUS
10
3.4444598425196848
20
-4.3985480314960625
11
3.5019401574803148
21
-4.3985480314960625
0
LINE
8
BLACK
6
CONTINUOUS
10
3.5019401574803148
20
-4.3985480314960625
11
3.502316811023622
21
-4.3986229527559058
0
LINE
8
BLACK
6
CONTINUOUS
10
3.445444094488189
20
-4.4005165354330709
11
3.445444094488189
21
-4.5150834645669287
0
LINE
8
BLACK
6
CONTINUOUS
10
3.445444094488189
20
-4.5150834645669287
11
3.5009559055118111
21
-4.5150834645669287
0
LINE
8
BLACK
6
CONTINUOUS
10
3.5009559055118111
20
-4.5150834645669287
11
3.5009559055118111
21
-4.4005165354330709
0
LINE
8
BLACK
6
CONTINUOUS
10
3.5009559055118111
20
-4.4005165354330709
11
3.445444094488189
21
-4.4005165354330709
0
LINE
8
BLACK
6
CONTINUOUS
10
2.9376443700787402
20
-4.3808505118110235
11
2.9381770472440945
21
-4.3813831889763781
0
LINE
8
BLACK
6
CONTINUOUS
10
2.9381770472440945
20
-4.3813831889763781
11
2.9382519685039368
21
-4.3817598425196849
0
LINE
8
BLACK
6
CONTINUOUS
10
2.9382519685039368
20
-4.3817598425196849
11
2.9382519685039368
21
-4.4392401574803149
0
LINE
8
BLACK
6
CONTINUOUS
10
2.9382519685039368
20
-4.4392401574803149
11
2.9381770472440945
21
-4.4396168110236216
0
LINE
8
BLACK
6
CONTINUOUS
10
2.9381770472440945
20
-4.4396168110236216
11
2.9376443700787402
21
-4.4401494881889763
0
LINE
8
BLACK
6
CONTINUOUS
10
2.9376443700787402
20
-4.4401494881889763
11
2.9372677165354331
21
-4.4402244094488186
0
LINE
8
BLACK
6
CONTINUOUS
10
2.9372677165354331
20
-4.4402244094488186
11
2.8207322834645669
21
-4.4402244094488186
0
LINE
8
BLACK
6
CONTINUOUS
10
2.8207322834645669
20
-4.4402244094488186
11
2.8203556299212598
21
-4.4401494881889763
0
LINE
8
BLACK
6
CONTINUOUS
10
2.8203556299212598
20
-4.4401494881889763
11
2.8198229527559056
21
-4.4396168110236216
0
LINE
8
BLACK
6
CONTINUOUS
10
2.8198229527559056
20
-4.4396168110236216
11
2.8197480314960628
21
-4.4392401574803149
0
LINE
8
BLACK
6
CONTINUOUS
10
2.8197480314960628
20
-4.4392401574803149
11
2.8197480314960628
21
-4.3817598425196849
0
LINE
8
BLACK
6
CONTINUOUS
10
2.8197480314960628
20
-4.3817598425196849
11
2.8198229527559056
21
-4.3813831889763781
0
LINE
8
BLACK
6
CONTINUOUS
10
2.8198229527559056
20
-4.3813831889763781
11
2.8203556299212598
21
-4.3808505118110235
0
LINE
8
BLACK
6
CONTINUOUS
10
2.8203556299212598
20
-4.3808505118110235
11
2.8207322834645669
21
-4.3807755905511812
0
LINE
8
BLACK
6
CONTINUOUS
10
2.8207322834645669
20
-4.3807755905511812
11
2.9372677165354331
21
-4.3807755905511812
0
LINE
8
BLACK
6
CONTINUOUS
10
2.9372677165354331
20
-4.3807755905511812
11
2.9376443700787402
21
-4.3808505118110235
0
LINE
8
BLACK
6
CONTINUOUS
10
2.8217165354330707
20
-4.3827440944881886
11
2.8217165354330707
21
-4.4382559055118112
0
LINE
8
BLACK
6
CONTINUOUS
10
2.8217165354330707
20
-4.4382559055118112
11
2.9362834645669289
21
-4.4382559055118112
0
LINE
8
BLACK
6
CONTINUOUS
10
2.9362834645669289
20
-4.4382559055118112
11
2.9362834645669289
21
-4.3827440944881886
0
LINE
8
BLACK
6
CONTINUOUS
10
2.9362834645669289
20
-4.3827440944881886
11
2.8217165354330707
21
-4.3827440944881886
0
LINE
8
BLACK
6
CONTINUOUS
10
2.8081168110236221
20
-4.3163229527559057
11
2.8086494881889763
21
-4.3168556299212595
0
LINE
8
BLACK
6
CONTINUOUS
10
2.8086494881889763
20
-4.3168556299212595
11
2.8087244094488186
21
-4.3172322834645671
0
LINE
8
BLACK
6
CONTINUOUS
10
2.8087244094488186
20
-4.3172322834645671
11
2.8087244094488186
21
-4.4337677165354332
0
LINE
8
BLACK
6
CONTINUOUS
10
2.8087244094488186
20
-4.4337677165354332
11
2.8086494881889763
21
-4.43414437007874
0
LINE
8
BLACK
6
CONTINUOUS
10
2.8086494881889763
20
-4.43414437007874
11
2.8081168110236221
21
-4.4346770472440946
0
LINE
8
BLACK
6
CONTINUOUS
10
2.8081168110236221
20
-4.4346770472440946
11
2.8077401574803149
21
-4.4347519685039369
0
LINE
8
BLACK
6
CONTINUOUS
10
2.8077401574803149
20
-4.4347519685039369
11
2.7502598425196849
21
-4.4347519685039369
0
LINE
8
BLACK
6
CONTINUOUS
10
2.7502598425196849
20
-4.4347519685039369
11
2.7498831889763777
21
-4.4346770472440946
0
LINE
8
BLACK
6
CONTINUOUS
10
2.7498831889763777
20
-4.4346770472440946
11
2.7493505118110235
21
-4.43414437007874
0
LINE
8
BLACK
6
CONTINUOUS
10
2.7493505118110235
20
-4.43414437007874
11
2.7492755905511812
21
-4.4337677165354332
0
LINE
8
BLACK
6
CONTINUOUS
10
2.7492755905511812
20
-4.4337677165354332
11
2.7492755905511812
21
-4.3172322834645671
0
LINE
8
BLACK
6
CONTINUOUS
10
2.7492755905511812
20
-4.3172322834645671
11
2.7493505118110235
21
-4.3168556299212595
0
LINE
8
BLACK
6
CONTINUOUS
10
2.7493505118110235
20
-4.3168556299212595
11
2.7498831889763777
21
-4.3163229527559057
0
LINE
8
BLACK
6
CONTINUOUS
10
2.7498831889763777
20
-4.3163229527559057
11
2.7502598425196849
21
-4.3162480314960625
0
LINE
8
BLACK
6
CONTINUOUS
10
2.7502598425196849
20
-4.3162480314960625
11
2.8077401574803149
21
-4.3162480314960625
0
LINE
8
BLACK
6
CONTINUOUS
10
2.8077401574803149
20
-4.3162480314960625
11
2.8081168110236221
21
-4.3163229527559057
0
LINE
8
BLACK
6
CONTINUOUS
10
2.7512440944881891
20
-4.3182165354330708
11
2.7512440944881891
21
-4.4327834645669286
0
LINE
8
BLACK
6
CONTINUOUS
10
2.7512440944881891
20
-4.4327834645669286
11
2.8067559055118108
21
-4.4327834645669286
0
LINE
8
BLACK
6
CONTINUOUS
10
2.8067559055118108
20
-4.4327834645669286
11
2.8067559055118108
21
-4.3182165354330708
0
LINE
8
BLACK
6
CONTINUOUS
10
2.8067559055118108
20
-4.3182165354330708
11
2.7512440944881891
21
-4.3182165354330708
0
LINE
8
BLACK
6
CONTINUOUS
10
2.9376443700787402
20
-4.3108505118110232
11
2.9381770472440945
21
-4.3113831889763778
0
LINE
8
BLACK
6
CONTINUOUS
10
2.9381770472440945
20
-4.3113831889763778
11
2.9382519685039368
21
-4.3117598425196846
0
LINE
8
BLACK
6
CONTINUOUS
10
2.9382519685039368
20
-4.3117598425196846
11
2.9382519685039368
21
-4.3692401574803146
0
LINE
8
BLACK
6
CONTINUOUS
10
2.9382519685039368
20
-4.3692401574803146
11
2.9381770472440945
21
-4.3696168110236222
0
LINE
8
BLACK
6
CONTINUOUS
10
2.9381770472440945
20
-4.3696168110236222
11
2.9376443700787402
21
-4.370149488188976
0
LINE
8
BLACK
6
CONTINUOUS
10
2.9376443700787402
20
-4.370149488188976
11
2.9372677165354331
21
-4.3702244094488192
0
LINE
8
BLACK
6
CONTINUOUS
10
2.9372677165354331
20
-4.3702244094488192
11
2.8207322834645669
21
-4.3702244094488192
0
LINE
8
BLACK
6
CONTINUOUS
10
2.8207322834645669
20
-4.3702244094488192
11
2.8203556299212598
21
-4.370149488188976
0
LINE
8
BLACK
6
CONTINUOUS
10
2.8203556299212598
20
-4.370149488188976
11
2.8198229527559056
21
-4.3696168110236222
0
LINE
8
BLACK
6
CONTINUOUS
10
2.8198229527559056
20
-4.3696168110236222
11
2.8197480314960628
21
-4.3692401574803146
0
LINE
8
BLACK
6
CONTINUOUS
10
2.8197480314960628
20
-4.3692401574803146
11
2.8197480314960628
21
-4.3117598425196846
0
LINE
8
BLACK
6
CONTINUOUS
10
2.8197480314960628
20
-4.3117598425196846
11
2.8198229527559056
21
-4.3113831889763778
0
LINE
8
BLACK
6
CONTINUOUS
10
2.8198229527559056
20
-4.3113831889763778
11
2.8203556299212598
21
-4.3108505118110232
0
LINE
8
BLACK
6
CONTINUOUS
10
2.8203556299212598
20
-4.3108505118110232
11
2.8207322834645669
21
-4.3107755905511809
0
LINE
8
BLACK
6
CONTINUOUS
10
2.8207322834645669
20
-4.3107755905511809
11
2.9372677165354331
21
-4.3107755905511809
0
LINE
8
BLACK
6
CONTINUOUS
10
2.9372677165354331
20
-4.3107755905511809
11
2.9376443700787402
21
-4.3108505118110232
0
LINE
8
BLACK
6
CONTINUOUS
10
2.8217165354330707
20
-4.3127440944881892
11
2.8217165354330707
21
-4.3682559055118109
0
LINE
8
BLACK
6
CONTINUOUS
10
2.8217165354330707
20
-4.3682559055118109
11
2.9362834645669289
21
-4.3682559055118109
0
LINE
8
BLACK
6
CONTINUOUS
10
2.9362834645669289
20
-4.3682559055118109
11
2.9362834645669289
21
-4.3127440944881892
0
LINE
8
BLACK
6
CONTINUOUS
10
2.9362834645669289
20
-4.3127440944881892
11
2.8217165354330707
21
-4.3127440944881892
0
LINE
8
BLACK
6
CONTINUOUS
10
5.0795215354330709
20
-3.7333426377952756
11
5.0800542125984247
21
-3.7338753149606299
0
LINE
8
BLACK
6
CONTINUOUS
10
5.0800542125984247
20
-3.7338753149606299
11
5.0801291338582679
21
-3.734251968503937
0
LINE
8
BLACK
6
CONTINUOUS
10
5.0801291338582679
20
-3.734251968503937
11
5.0801291338582679
21
-4.2866141732283465
0
LINE
8
BLACK
6
CONTINUOUS
10
5.0801291338582679
20
-4.2866141732283465
11
5.0800542125984247
21
-4.2869908267716532
0
LINE
8
BLACK
6
CONTINUOUS
10
5.0800542125984247
20
-4.2869908267716532
11
5.0795215354330709
21
-4.2875235039370079
0
LINE
8
BLACK
6
CONTINUOUS
10
5.0795215354330709
20
-4.2875235039370079
11
5.0791448818897633
21
-4.2875984251968502
0
LINE
8
BLACK
6
CONTINUOUS
10
5.0791448818897633
20
-4.2875984251968502
11
4.2972551181102361
21
-4.2875984251968502
0
LINE
8
BLACK
6
CONTINUOUS
10
4.2972551181102361
20
-4.2875984251968502
11
4.2968784645669293
21
-4.2875235039370079
0
LINE
8
BLACK
6
CONTINUOUS
10
4.2968784645669293
20
-4.2875235039370079
11
4.2963457874015747
21
-4.2869908267716532
0
LINE
8
BLACK
6
CONTINUOUS
10
4.2963457874015747
20
-4.2869908267716532
11
4.2962708661417324
21
-4.2866141732283465
0
LINE
8
BLACK
6
CONTINUOUS
10
4.2962708661417324
20
-4.2866141732283465
11
4.2962708661417324
21
-3.734251968503937
0
LINE
8
BLACK
6
CONTINUOUS
10
4.2962708661417324
20
-3.734251968503937
11
4.2963457874015747
21
-3.7338753149606299
0
LINE
8
BLACK
6
CONTINUOUS
10
4.2963457874015747
20
-3.7338753149606299
11
4.2968784645669293
21
-3.7333426377952756
0
LINE
8
BLACK
6
CONTINUOUS
10
4.2968784645669293
20
-3.7333426377952756
11
4.2972551181102361
21
-3.7332677165354329
0
LINE
8
BLACK
6
CONTINUOUS
10
4.2972551181102361
20
-3.7332677165354329
11
5.0791448818897633
21
-3.7332677165354329
0
LINE
8
BLACK
6
CONTINUOUS
10
5.0791448818897633
20
-3.7332677165354329
11
5.0795215354330709
21
-3.7333426377952756
0
LINE
8
BLACK
6
CONTINUOUS
10
4.2982393700787398
20
-3.7352362204724407
11
4.2982393700787398
21
-4.2856299212598428
0
LINE
8
BLACK
6
CONTINUOUS
10
4.2982393700787398
20
-4.2856299212598428
11
5.0781606299212596
21
-4.2856299212598428
0
LINE
8
BLACK
6
CONTINUOUS
10
5.0781606299212596
20
-4.2856299212598428
11
5.0781606299212596
21
-3.7352362204724407
0
LINE
8
BLACK
6
CONTINUOUS
10
5.0781606299212596
20
-3.7352362204724407
11
4.2982393700787398
21
-3.7352362204724407
0
LINE
8
BLACK
6
CONTINUOUS
10
3.8525341338582675
20
-3.7963347637795275
11
3.8530668110236221
21
-3.7968674409448817
0
LINE
8
BLACK
6
CONTINUOUS
10
3.8530668110236221
20
-3.7968674409448817
11
3.8531417322834645
21
-3.7972440944881889
0
LINE
8
BLACK
6
CONTINUOUS
10
3.8531417322834645
20
-3.7972440944881889
11
3.8531417322834645
21
-4.2027559055118111
0
LINE
8
BLACK
6
CONTINUOUS
10
3.8531417322834645
20
-4.2027559055118111
11
3.8530668110236221
21
-4.2031325590551178
0
LINE
8
BLACK
6
CONTINUOUS
10
3.8530668110236221
20
-4.2031325590551178
11
3.8525341338582675
21
-4.2036652362204725
0
LINE
8
BLACK
6
CONTINUOUS
10
3.8525341338582675
20
-4.2036652362204725
11
3.8521574803149607
21
-4.2037401574803148
0
LINE
8
BLACK
6
CONTINUOUS
10
3.8521574803149607
20
-4.2037401574803148
11
3.4466456692913385
21
-4.2037401574803148
0
LINE
8
BLACK
6
CONTINUOUS
10
3.4466456692913385
20
-4.2037401574803148
11
3.4462690157480314
21
-4.2036652362204725
0
LINE
8
BLACK
6
CONTINUOUS
10
3.4462690157480314
20
-4.2036652362204725
11
3.4457363385826771
21
-4.2031325590551178
0
LINE
8
BLACK
6
CONTINUOUS
10
3.4457363385826771
20
-4.2031325590551178
11
3.4456614173228344
21
-4.2027559055118111
0
LINE
8
BLACK
6
CONTINUOUS
10
3.4456614173228344
20
-4.2027559055118111
11
3.4456614173228344
21
-3.7972440944881889
0
LINE
8
BLACK
6
CONTINUOUS
10
3.4456614173228344
20
-3.7972440944881889
11
3.4457363385826771
21
-3.7968674409448817
0
LINE
8
BLACK
6
CONTINUOUS
10
3.4457363385826771
20
-3.7968674409448817
11
3.4462690157480314
21
-3.7963347637795275
0
LINE
8
BLACK
6
CONTINUOUS
10
3.4462690157480314
20
-3.7963347637795275
11
3.4466456692913385
21
-3.7962598425196847
0
LINE
8
BLACK
6
CONTINUOUS
10
3.4466456692913385
20
-3.7962598425196847
11
3.8521574803149607
21
-3.7962598425196847
0
LINE
8
BLACK
6
CONTINUOUS
10
3.8521574803149607
20
-3.7962598425196847
11
3.8525341338582675
21
-3.7963347637795275
0
LINE
8
BLACK
6
CONTINUOUS
10
3.4476299212598422
20
-3.7982283464566926
11
3.4476299212598422
21
-4.2017716535433074
0
LINE
8
BLACK
6
CONTINUOUS
10
3.4476299212598422
20
-4.2017716535433074
11
3.8511732283464566
21
-4.2017716535433074
0
LINE
8
BLACK
6
CONTINUOUS
10
3.8511732283464566
20
-4.2017716535433074
11
3.8511732283464566
21
-3.7982283464566926
0
LINE
8
BLACK
6
CONTINUOUS
10
3.8511732283464566
20
-3.7982283464566926
11
3.4476299212598422
21
-3.7982283464566926
0
LINE
8
BLACK
6
CONTINUOUS
10
2.6976994881889764
20
-3.2124764960629921
11
2.6982321653543306
21
-3.2130091732283463
0
LINE
8
BLACK
6
CONTINUOUS
10
2.6982321653543306
20
-3.2130091732283463
11
2.698307086614173
21
-3.2133858267716535
0
LINE
8
BLACK
6
CONTINUOUS
10
2.698307086614173
20
-3.2133858267716535
11
2.698307086614173
21
-3.8866141732283466
0
LINE
8
BLACK
6
CONTINUOUS
10
2.698307086614173
20
-3.8866141732283466
11
2.6982321653543306
21
-3.8869908267716533
0
LINE
8
BLACK
6
CONTINUOUS
10
2.6982321653543306
20
-3.8869908267716533
11
2.6976994881889764
21
-3.887523503937008
0
LINE
8
BLACK
6
CONTINUOUS
10
2.6976994881889764
20
-3.887523503937008
11
2.6973228346456692
21
-3.8875984251968503
0
LINE
8
BLACK
6
CONTINUOUS
10
2.6973228346456692
20
-3.8875984251968503
11
2.480787401574803
21
-3.8875984251968503
0
LINE
8
BLACK
6
CONTINUOUS
10
2.480787401574803
20
-3.8875984251968503
11
2.4804107480314959
21
-3.887523503937008
0
LINE
8
BLACK
6
CONTINUOUS
10
2.4804107480314959
20
-3.887523503937008
11
2.4798780708661416
21
-3.8869908267716533
0
LINE
8
BLACK
6
CONTINUOUS
10
2.4798780708661416
20
-3.8869908267716533
11
2.4798031496062993
21
-3.8866141732283466
0
LINE
8
BLACK
6
CONTINUOUS
10
2.4798031496062993
20
-3.8866141732283466
11
2.4798031496062993
21
-3.2133858267716535
0
LINE
8
BLACK
6
CONTINUOUS
10
2.4798031496062993
20
-3.2133858267716535
11
2.4798780708661416
21
-3.2130091732283463
0
LINE
8
BLACK
6
CONTINUOUS
10
2.4798780708661416
20
-3.2130091732283463
11
2.4804107480314959
21
-3.2124764960629921
0
LINE
8
BLACK
6
CONTINUOUS
10
2.4804107480314959
20
-3.2124764960629921
11
2.480787401574803
21
-3.2124015748031494
0
LINE
8
BLACK
6
CONTINUOUS
10
2.480787401574803
20
-3.2124015748031494
11
2.6973228346456692
21
-3.2124015748031494
0
LINE
8
BLACK
6
CONTINUOUS
10
2.6973228346456692
20
-3.2124015748031494
11
2.6976994881889764
21
-3.2124764960629921
0
LINE
8
BLACK
6
CONTINUOUS
10
2.4817716535433072
20
-3.2143700787401572
11
2.4817716535433072
21
-3.8856299212598424
0
LINE
8
BLACK
6
CONTINUOUS
10
2.4817716535433072
20
-3.8856299212598424
11
2.6963385826771651
21
-3.8856299212598424
0
LINE
8
BLACK
6
CONTINUOUS
10
2.6963385826771651
20
-3.8856299212598424
11
2.6963385826771651
21
-3.2143700787401572
0
LINE
8
BLACK
6
CONTINUOUS
10
2.6963385826771651
20
-3.2143700787401572
11
2.4817716535433072
21
-3.2143700787401572
0
LINE
8
BLACK
6
CONTINUOUS
10
2.9376443700787402
20
-3.6303505118110238
11
2.9381770472440945
21
-3.630883188976378
0
LINE
8
BLACK
6
CONTINUOUS
10
2.9381770472440945
20
-3.630883188976378
11
2.9382519685039368
21
-3.6312598425196851
0
LINE
8
BLACK
6
CONTINUOUS
10
2.9382519685039368
20
-3.6312598425196851
11
2.9382519685039368
21
-3.6887401574803147
0
LINE
8
BLACK
6
CONTINUOUS
10
2.9382519685039368
20
-3.6887401574803147
11
2.9381770472440945
21
-3.6891168110236219
0
LINE
8
BLACK
6
CONTINUOUS
10
2.9381770472440945
20
-3.6891168110236219
11
2.9376443700787402
21
-3.6896494881889761
0
LINE
8
BLACK
6
CONTINUOUS
10
2.9376443700787402
20
-3.6896494881889761
11
2.9372677165354331
21
-3.6897244094488189
0
LINE
8
BLACK
6
CONTINUOUS
10
2.9372677165354331
20
-3.6897244094488189
11
2.8207322834645669
21
-3.6897244094488189
0
LINE
8
BLACK
6
CONTINUOUS
10
2.8207322834645669
20
-3.6897244094488189
11
2.8203556299212598
21
-3.6896494881889761
0
LINE
8
BLACK
6
CONTINUOUS
10
2.8203556299212598
20
-3.6896494881889761
11
2.8198229527559056
21
-3.6891168110236219
0
LINE
8
BLACK
6
CONTINUOUS
10
2.8198229527559056
20
-3.6891168110236219
11
2.8197480314960628
21
-3.6887401574803147
0
LINE
8
BLACK
6
CONTINUOUS
10
2.8197480314960628
20
-3.6887401574803147
11
2.8197480314960628
21
-3.6312598425196851
0
LINE
8
BLACK
6
CONTINUOUS
10
2.8197480314960628
20
-3.6312598425196851
11
2.8198229527559056
21
-3.630883188976378
0
LINE
8
BLACK
6
CONTINUOUS
10
2.8198229527559056
20
-3.630883188976378
11
2.8203556299212598
21
-3.6303505118110238
0
LINE
8
BLACK
6
CONTINUOUS
10
2.8203556299212598
20
-3.6303505118110238
11
2.8207322834645669
21
-3.630275590551181
0
LINE
8
BLACK
6
CONTINUOUS
10
2.8207322834645669
20
-3.630275590551181
11
2.9372677165354331
21
-3.630275590551181
0
LINE
8
BLACK
6
CONTINUOUS
10
2.9372677165354331
20
-3.630275590551181
11
2.9376443700787402
21
-3.6303505118110238
0
LINE
8
BLACK
6
CONTINUOUS
10
2.8217165354330707
20
-3.6322440944881889
11
2.8217165354330707
21
-3.687755905511811
0
LINE
8
BLACK
6
CONTINUOUS
10
2.8217165354330707
20
-3.687755905511811
11
2.9362834645669289
21
-3.687755905511811
0
LINE
8
BLACK
6
CONTINUOUS
10
2.9362834645669289
20
-3.687755905511811
11
2.9362834645669289
21
-3.6322440944881889
0
LINE
8
BLACK
6
CONTINUOUS
10
2.9362834645669289
20
-3.6322440944881889
11
2.8217165354330707
21
-3.6322440944881889
0
LINE
8
BLACK
6
CONTINUOUS
10
2.8081168110236221
20
-3.5658229527559056
11
2.8086494881889763
21
-3.5663556299212598
0
LINE
8
BLACK
6
CONTINUOUS
10
2.8086494881889763
20
-3.5663556299212598
11
2.8087244094488186
21
-3.5667322834645669
0
LINE
8
BLACK
6
CONTINUOUS
10
2.8087244094488186
20
-3.5667322834645669
11
2.8087244094488186
21
-3.6832677165354331
0
LINE
8
BLACK
6
CONTINUOUS
10
2.8087244094488186
20
-3.6832677165354331
11
2.8086494881889763
21
-3.6836443700787402
0
LINE
8
BLACK
6
CONTINUOUS
10
2.8086494881889763
20
-3.6836443700787402
11
2.8081168110236221
21
-3.6841770472440944
0
LINE
8
BLACK
6
CONTINUOUS
10
2.8081168110236221
20
-3.6841770472440944
11
2.8077401574803149
21
-3.6842519685039368
0
LINE
8
BLACK
6
CONTINUOUS
10
2.8077401574803149
20
-3.6842519685039368
11
2.7502598425196849
21
-3.6842519685039368
0
LINE
8
BLACK
6
CONTINUOUS
10
2.7502598425196849
20
-3.6842519685039368
11
2.7498831889763777
21
-3.6841770472440944
0
LINE
8
BLACK
6
CONTINUOUS
10
2.7498831889763777
20
-3.6841770472440944
11
2.7493505118110235
21
-3.6836443700787402
0
LINE
8
BLACK
6
CONTINUOUS
10
2.7493505118110235
20
-3.6836443700787402
11
2.7492755905511812
21
-3.6832677165354331
0
LINE
8
BLACK
6
CONTINUOUS
10
2.7492755905511812
20
-3.6832677165354331
11
2.7492755905511812
21
-3.5667322834645669
0
LINE
8
BLACK
6
CONTINUOUS
10
2.7492755905511812
20
-3.5667322834645669
11
2.7493505118110235
21
-3.5663556299212598
0
LINE
8
BLACK
6
CONTINUOUS
10
2.7493505118110235
20
-3.5663556299212598
11
2.7498831889763777
21
-3.5658229527559056
0
LINE
8
BLACK
6
CONTINUOUS
10
2.7498831889763777
20
-3.5658229527559056
11
2.7502598425196849
21
-3.5657480314960628
0
LINE
8
BLACK
6
CONTINUOUS
10
2.7502598425196849
20
-3.5657480314960628
11
2.8077401574803149
21
-3.5657480314960628
0
LINE
8
BLACK
6
CONTINUOUS
10
2.8077401574803149
20
-3.5657480314960628
11
2.8081168110236221
21
-3.5658229527559056
0
LINE
8
BLACK
6
CONTINUOUS
10
2.7512440944881891
20
-3.5677165354330707
11
2.7512440944881891
21
-3.6822834645669289
0
LINE
8
BLACK
6
CONTINUOUS
10
2.7512440944881891
20
-3.6822834645669289
11
2.8067559055118108
21
-3.6822834645669289
0
LINE
8
BLACK
6
CONTINUOUS
10
2.8067559055118108
20
-3.6822834645669289
11
2.8067559055118108
21
-3.5677165354330707
0
LINE
8
BLACK
6
CONTINUOUS
10
2.8067559055118108
20
-3.5677165354330707
11
2.7512440944881891
21
-3.5677165354330707
0
LINE
8
BLACK
6
CONTINUOUS
10
2.9376443700787402
20
-3.5603505118110235
11
2.9381770472440945
21
-3.5608831889763777
0
LINE
8
BLACK
6
CONTINUOUS
10
2.9381770472440945
20
-3.5608831889763777
11
2.9382519685039368
21
-3.5612598425196849
0
LINE
8
BLACK
6
CONTINUOUS
10
2.9382519685039368
20
-3.5612598425196849
11
2.9382519685039368
21
-3.6187401574803149
0
LINE
8
BLACK
6
CONTINUOUS
10
2.9382519685039368
20
-3.6187401574803149
11
2.9381770472440945
21
-3.619116811023622
0
LINE
8
BLACK
6
CONTINUOUS
10
2.9381770472440945
20
-3.619116811023622
11
2.9376443700787402
21
-3.6196494881889762
0
LINE
8
BLACK
6
CONTINUOUS
10
2.9376443700787402
20
-3.6196494881889762
11
2.9372677165354331
21
-3.619724409448819
0
LINE
8
BLACK
6
CONTINUOUS
10
2.9372677165354331
20
-3.619724409448819
11
2.8207322834645669
21
-3.619724409448819
0
LINE
8
BLACK
6
CONTINUOUS
10
2.8207322834645669
20
-3.619724409448819
11
2.8203556299212598
21
-3.6196494881889762
0
LINE
8
BLACK
6
CONTINUOUS
10
2.8203556299212598
20
-3.6196494881889762
11
2.8198229527559056
21
-3.619116811023622
0
LINE
8
BLACK
6
CONTINUOUS
10
2.8198229527559056
20
-3.619116811023622
11
2.8197480314960628
21
-3.6187401574803149
0
LINE
8
BLACK
6
CONTINUOUS
10
2.8197480314960628
20
-3.6187401574803149
11
2.8197480314960628
21
-3.5612598425196849
0
LINE
8
BLACK
6
CONTINUOUS
10
2.8197480314960628
20
-3.5612598425196849
11
2.8198229527559056
21
-3.5608831889763777
0
LINE
8
BLACK
6
CONTINUOUS
10
2.8198229527559056
20
-3.5608831889763777
11
2.8203556299212598
21
-3.5603505118110235
0
LINE
8
BLACK
6
CONTINUOUS
10
2.8203556299212598
20
-3.5603505118110235
11
2.8207322834645669
21
-3.5602755905511811
0
LINE
8
BLACK
6
CONTINUOUS
10
2.8207322834645669
20
-3.5602755905511811
11
2.9372677165354331
21
-3.5602755905511811
0
LINE
8
BLACK
6
CONTINUOUS
10
2.9372677165354331
20
-3.5602755905511811
11
2.9376443700787402
21
-3.5603505118110235
0
LINE
8
BLACK
6
CONTINUOUS
10
2.8217165354330707
20
-3.562244094488189
11
2.8217165354330707
21
-3.6177559055118111
0
LINE
8
BLACK
6
CONTINUOUS
10
2.8217165354330707
20
-3.6177559055118111
11
2.9362834645669289
21
-3.6177559055118111
0
LINE
8
BLACK
6
CONTINUOUS
10
2.9362834645669289
20
-3.6177559055118111
11
2.9362834645669289
21
-3.562244094488189
0
LINE
8
BLACK
6
CONTINUOUS
10
2.9362834645669289
20
-3.562244094488189
11
2.8217165354330707
21
-3.562244094488189
0
LINE
8
BLACK
6
CONTINUOUS
10
2.9374443700787403
20
-3.4800505118110237
11
2.9379770472440945
21
-3.4805831889763779
0
LINE
8
BLACK
6
CONTINUOUS
10
2.9379770472440945
20
-3.4805831889763779
11
2.9380519685039368
21
-3.480959842519685
0
LINE
8
BLACK
6
CONTINUOUS
10
2.9380519685039368
20
-3.480959842519685
11
2.9380519685039368
21
-3.538440157480315
0
LINE
8
BLACK
6
CONTINUOUS
10
2.9380519685039368
20
-3.538440157480315
11
2.9379770472440945
21
-3.5388168110236218
0
LINE
8
BLACK
6
CONTINUOUS
10
2.9379770472440945
20
-3.5388168110236218
11
2.9374443700787403
21
-3.5393494881889764
0
LINE
8
BLACK
6
CONTINUOUS
10
2.9374443700787403
20
-3.5393494881889764
11
2.9370677165354331
21
-3.5394244094488188
0
LINE
8
BLACK
6
CONTINUOUS
10
2.9370677165354331
20
-3.5394244094488188
11
2.820532283464567
21
-3.5394244094488188
0
LINE
8
BLACK
6
CONTINUOUS
10
2.820532283464567
20
-3.5394244094488188
11
2.8201556299212598
21
-3.5393494881889764
0
LINE
8
BLACK
6
CONTINUOUS
10
2.8201556299212598
20
-3.5393494881889764
11
2.8196229527559056
21
-3.5388168110236218
0
LINE
8
BLACK
6
CONTINUOUS
10
2.8196229527559056
20
-3.5388168110236218
11
2.8195480314960628
21
-3.538440157480315
0
LINE
8
BLACK
6
CONTINUOUS
10
2.8195480314960628
20
-3.538440157480315
11
2.8195480314960628
21
-3.480959842519685
0
LINE
8
BLACK
6
CONTINUOUS
10
2.8195480314960628
20
-3.480959842519685
11
2.8196229527559056
21
-3.4805831889763779
0
LINE
8
BLACK
6
CONTINUOUS
10
2.8196229527559056
20
-3.4805831889763779
11
2.8201556299212598
21
-3.4800505118110237
0
LINE
8
BLACK
6
CONTINUOUS
10
2.8201556299212598
20
-3.4800505118110237
11
2.820532283464567
21
-3.4799755905511809
0
LINE
8
BLACK
6
CONTINUOUS
10
2.820532283464567
20
-3.4799755905511809
11
2.9370677165354331
21
-3.4799755905511809
0
LINE
8
BLACK
6
CONTINUOUS
10
2.9370677165354331
20
-3.4799755905511809
11
2.9374443700787403
21
-3.4800505118110237
0
LINE
8
BLACK
6
CONTINUOUS
10
2.8215165354330707
20
-3.4819440944881888
11
2.8215165354330707
21
-3.5374559055118109
0
LINE
8
BLACK
6
CONTINUOUS
10
2.8215165354330707
20
-3.5374559055118109
11
2.9360834645669289
21
-3.5374559055118109
0
LINE
8
BLACK
6
CONTINUOUS
10
2.9360834645669289
20
-3.5374559055118109
11
2.9360834645669289
21
-3.4819440944881888
0
LINE
8
BLACK
6
CONTINUOUS
10
2.9360834645669289
20
-3.4819440944881888
11
2.8215165354330707
21
-3.4819440944881888
0
LINE
8
BLACK
6
CONTINUOUS
10
2.8079168110236221
20
-3.4155229527559055
11
2.8084494881889763
21
-3.4160556299212597
0
LINE
8
BLACK
6
CONTINUOUS
10
2.8084494881889763
20
-3.4160556299212597
11
2.8085244094488186
21
-3.4164322834645668
0
LINE
8
BLACK
6
CONTINUOUS
10
2.8085244094488186
20
-3.4164322834645668
11
2.8085244094488186
21
-3.532967716535433
0
LINE
8
BLACK
6
CONTINUOUS
10
2.8085244094488186
20
-3.532967716535433
11
2.8084494881889763
21
-3.5333443700787401
0
LINE
8
BLACK
6
CONTINUOUS
10
2.8084494881889763
20
-3.5333443700787401
11
2.8079168110236221
21
-3.5338770472440943
0
LINE
8
BLACK
6
CONTINUOUS
10
2.8079168110236221
20
-3.5338770472440943
11
2.8075401574803149
21
-3.5339519685039371
0
LINE
8
BLACK
6
CONTINUOUS
10
2.8075401574803149
20
-3.5339519685039371
11
2.7500598425196849
21
-3.5339519685039371
0
LINE
8
BLACK
6
CONTINUOUS
10
2.7500598425196849
20
-3.5339519685039371
11
2.7496831889763778
21
-3.5338770472440943
0
LINE
8
BLACK
6
CONTINUOUS
10
2.7496831889763778
20
-3.5338770472440943
11
2.7491505118110235
21
-3.5333443700787401
0
LINE
8
BLACK
6
CONTINUOUS
10
2.7491505118110235
20
-3.5333443700787401
11
2.7490755905511812
21
-3.532967716535433
0
LINE
8
BLACK
6
CONTINUOUS
10
2.7490755905511812
20
-3.532967716535433
11
2.7490755905511812
21
-3.4164322834645668
0
LINE
8
BLACK
6
CONTINUOUS
10
2.7490755905511812
20
-3.4164322834645668
11
2.7491505118110235
21
-3.4160556299212597
0
LINE
8
BLACK
6
CONTINUOUS
10
2.7491505118110235
20
-3.4160556299212597
11
2.7496831889763778
21
-3.4155229527559055
0
LINE
8
BLACK
6
CONTINUOUS
10
2.7496831889763778
20
-3.4155229527559055
11
2.7500598425196849
21
-3.4154480314960631
0
LINE
8
BLACK
6
CONTINUOUS
10
2.7500598425196849
20
-3.4154480314960631
11
2.8075401574803149
21
-3.4154480314960631
0
LINE
8
BLACK
6
CONTINUOUS
10
2.8075401574803149
20
-3.4154480314960631
11
2.8079168110236221
21
-3.4155229527559055
0
LINE
8
BLACK
6
CONTINUOUS
10
2.7510440944881891
20
-3.417416535433071
11
2.7510440944881891
21
-3.5319834645669292
0
LINE
8
BLACK
6
CONTINUOUS
10
2.7510440944881891
20
-3.5319834645669292
11
2.8065559055118108
21
-3.5319834645669292
0
LINE
8
BLACK
6
CONTINUOUS
10
2.8065559055118108
20
-3.5319834645669292
11
2.8065559055118108
21
-3.417416535433071
0
LINE
8
BLACK
6
CONTINUOUS
10
2.8065559055118108
20
-3.417416535433071
11
2.7510440944881891
21
-3.417416535433071
0
LINE
8
BLACK
6
CONTINUOUS
10
2.9374443700787403
20
-3.4100505118110234
11
2.9379770472440945
21
-3.410583188976378
0
LINE
8
BLACK
6
CONTINUOUS
10
2.9379770472440945
20
-3.410583188976378
11
2.9380519685039368
21
-3.4109598425196848
0
LINE
8
BLACK
6
CONTINUOUS
10
2.9380519685039368
20
-3.4109598425196848
11
2.9380519685039368
21
-3.4684401574803148
0
LINE
8
BLACK
6
CONTINUOUS
10
2.9380519685039368
20
-3.4684401574803148
11
2.9379770472440945
21
-3.4688168110236219
0
LINE
8
BLACK
6
CONTINUOUS
10
2.9379770472440945
20
-3.4688168110236219
11
2.9374443700787403
21
-3.4693494881889761
0
LINE
8
BLACK
6
CONTINUOUS
10
2.9374443700787403
20
-3.4693494881889761
11
2.9370677165354331
21
-3.4694244094488189
0
LINE
8
BLACK
6
CONTINUOUS
10
2.9370677165354331
20
-3.4694244094488189
11
2.820532283464567
21
-3.4694244094488189
0
LINE
8
BLACK
6
CONTINUOUS
10
2.820532283464567
20
-3.4694244094488189
11
2.8201556299212598
21
-3.4693494881889761
0
LINE
8
BLACK
6
CONTINUOUS
10
2.8201556299212598
20
-3.4693494881889761
11
2.8196229527559056
21
-3.4688168110236219
0
LINE
8
BLACK
6
CONTINUOUS
10
2.8196229527559056
20
-3.4688168110236219
11
2.8195480314960628
21
-3.4684401574803148
0
LINE
8
BLACK
6
CONTINUOUS
10
2.8195480314960628
20
-3.4684401574803148
11
2.8195480314960628
21
-3.4109598425196848
0
LINE
8
BLACK
6
CONTINUOUS
10
2.8195480314960628
20
-3.4109598425196848
11
2.8196229527559056
21
-3.410583188976378
0
LINE
8
BLACK
6
CONTINUOUS
10
2.8196229527559056
20
-3.410583188976378
11
2.8201556299212598
21
-3.4100505118110234
0
LINE
8
BLACK
6
CONTINUOUS
10
2.8201556299212598
20
-3.4100505118110234
11
2.820532283464567
21
-3.409975590551181
0
LINE
8
BLACK
6
CONTINUOUS
10
2.820532283464567
20
-3.409975590551181
11
2.9370677165354331
21
-3.409975590551181
0
LINE
8
BLACK
6
CONTINUOUS
10
2.9370677165354331
20
-3.409975590551181
11
2.9374443700787403
21
-3.4100505118110234
0
LINE
8
BLACK
6
CONTINUOUS
10
2.8215165354330707
20
-3.4119440944881889
11
2.8215165354330707
21
-3.467455905511811
0
LINE
8
BLACK
6
CONTINUOUS
10
2.8215165354330707
20
-3.467455905511811
11
2.9360834645669289
21
-3.467455905511811
0
LINE
8
BLACK
6
CONTINUOUS
10
2.9360834645669289
20
-3.467455905511811
11
2.9360834645669289
21
-3.4119440944881889
0
LINE
8
BLACK
6
CONTINUOUS
10
2.9360834645669289
20
-3.4119440944881889
11
2.8215165354330707
21
-3.4119440944881889
0
LINE
8
BLACK
6
CONTINUOUS
10
3.3143168110236219
20
-3.1228229527559055
11
3.3148494881889765
21
-3.1233556299212597
0
LINE
8
BLACK
6
CONTINUOUS
10
3.3148494881889765
20
-3.1233556299212597
11
3.3149244094488188
21
-3.1237322834645669
0
LINE
8
BLACK
6
CONTINUOUS
10
3.3149244094488188
20
-3.1237322834645669
11
3.3149244094488188
21
-3.240267716535433
0
LINE
8
BLACK
6
CONTINUOUS
10
3.3149244094488188
20
-3.240267716535433
11
3.3148494881889765
21
-3.2406443700787402
0
LINE
8
BLACK
6
CONTINUOUS
10
3.3148494881889765
20
-3.2406443700787402
11
3.3143168110236219
21
-3.2411770472440944
0
LINE
8
BLACK
6
CONTINUOUS
10
3.3143168110236219
20
-3.2411770472440944
11
3.3139401574803147
21
-3.2412519685039372
0
LINE
8
BLACK
6
CONTINUOUS
10
3.3139401574803147
20
-3.2412519685039372
11
3.2564598425196851
21
-3.2412519685039372
0
LINE
8
BLACK
6
CONTINUOUS
10
3.2564598425196851
20
-3.2412519685039372
11
3.2560831889763779
21
-3.2411770472440944
0
LINE
8
BLACK
6
CONTINUOUS
10
3.2560831889763779
20
-3.2411770472440944
11
3.2555505118110237
21
-3.2406443700787402
0
LINE
8
BLACK
6
CONTINUOUS
10
3.2555505118110237
20
-3.2406443700787402
11
3.255475590551181
21
-3.240267716535433
0
LINE
8
BLACK
6
CONTINUOUS
10
3.255475590551181
20
-3.240267716535433
11
3.255475590551181
21
-3.1237322834645669
0
LINE
8
BLACK
6
CONTINUOUS
10
3.255475590551181
20
-3.1237322834645669
11
3.2555505118110237
21
-3.1233556299212597
0
LINE
8
BLACK
6
CONTINUOUS
10
3.2555505118110237
20
-3.1233556299212597
11
3.2560831889763779
21
-3.1228229527559055
0
LINE
8
BLACK
6
CONTINUOUS
10
3.2560831889763779
20
-3.1228229527559055
11
3.2564598425196851
21
-3.1227480314960627
0
LINE
8
BLACK
6
CONTINUOUS
10
3.2564598425196851
20
-3.1227480314960627
11
3.3139401574803147
21
-3.1227480314960627
0
LINE
8
BLACK
6
CONTINUOUS
10
3.3139401574803147
20
-3.1227480314960627
11
3.3143168110236219
21
-3.1228229527559055
0
LINE
8
BLACK
6
CONTINUOUS
10
3.2574440944881888
20
-3.1247165354330706
11
3.2574440944881888
21
-3.2392834645669288
0
LINE
8
BLACK
6
CONTINUOUS
10
3.2574440944881888
20
-3.2392834645669288
11
3.312955905511811
21
-3.2392834645669288
0
LINE
8
BLACK
6
CONTINUOUS
10
3.312955905511811
20
-3.2392834645669288
11
3.312955905511811
21
-3.1247165354330706
0
LINE
8
BLACK
6
CONTINUOUS
10
3.312955905511811
20
-3.1247165354330706
11
3.2574440944881888
21
-3.1247165354330706
0
LINE
8
BLACK
6
CONTINUOUS
10
2.9791168110236219
20
-3.0658229527559056
11
2.9796494881889761
21
-3.0663556299212598
0
LINE
8
BLACK
6
CONTINUOUS
10
2.9796494881889761
20
-3.0663556299212598
11
2.9797244094488189
21
-3.0667322834645669
0
LINE
8
BLACK
6
CONTINUOUS
10
2.9797244094488189
20
-3.0667322834645669
11
2.9797244094488189
21
-3.1832677165354331
0
LINE
8
BLACK
6
CONTINUOUS
10
2.9797244094488189
20
-3.1832677165354331
11
2.9796494881889761
21
-3.1836443700787402
0
LINE
8
BLACK
6
CONTINUOUS
10
2.9796494881889761
20
-3.1836443700787402
11
2.9791168110236219
21
-3.1841770472440944
0
LINE
8
BLACK
6
CONTINUOUS
10
2.9791168110236219
20
-3.1841770472440944
11
2.9787401574803147
21
-3.1842519685039368
0
LINE
8
BLACK
6
CONTINUOUS
10
2.9787401574803147
20
-3.1842519685039368
11
2.9212598425196852
21
-3.1842519685039368
0
LINE
8
BLACK
6
CONTINUOUS
10
2.9212598425196852
20
-3.1842519685039368
11
2.920883188976378
21
-3.1841770472440944
0
LINE
8
BLACK
6
CONTINUOUS
10
2.920883188976378
20
-3.1841770472440944
11
2.9203505118110233
21
-3.1836443700787402
0
LINE
8
BLACK
6
CONTINUOUS
10
2.9203505118110233
20
-3.1836443700787402
11
2.920275590551181
21
-3.1832677165354331
0
LINE
8
BLACK
6
CONTINUOUS
10
2.920275590551181
20
-3.1832677165354331
11
2.920275590551181
21
-3.0667322834645669
0
LINE
8
BLACK
6
CONTINUOUS
10
2.920275590551181
20
-3.0667322834645669
11
2.9203505118110233
21
-3.0663556299212598
0
LINE
8
BLACK
6
CONTINUOUS
10
2.9203505118110233
20
-3.0663556299212598
11
2.920883188976378
21
-3.0658229527559056
0
LINE
8
BLACK
6
CONTINUOUS
10
2.920883188976378
20
-3.0658229527559056
11
2.9212598425196852
21
-3.0657480314960628
0
LINE
8
BLACK
6
CONTINUOUS
10
2.9212598425196852
20
-3.0657480314960628
11
2.9787401574803147
21
-3.0657480314960628
0
LINE
8
BLACK
6
CONTINUOUS
10
2.9787401574803147
20
-3.0657480314960628
11
2.9791168110236219
21
-3.0658229527559056
0
LINE
8
BLACK
6
CONTINUOUS
10
2.9222440944881889
20
-3.0677165354330707
11
2.9222440944881889
21
-3.1822834645669289
0
LINE
8
BLACK
6
CONTINUOUS
10
2.9222440944881889
20
-3.1822834645669289
11
2.977755905511811
21
-3.1822834645669289
0
LINE
8
BLACK
6
CONTINUOUS
10
2.977755905511811
20
-3.1822834645669289
11
2.977755905511811
21
-3.0677165354330707
0
LINE
8
BLACK
6
CONTINUOUS
10
2.977755905511811
20
-3.0677165354330707
11
2.9222440944881889
21
-3.0677165354330707
0
LINE
8
BLACK
6
CONTINUOUS
10
3.0491168110236222
20
-3.0658229527559056
11
3.0496494881889764
21
-3.0663556299212598
0
LINE
8
BLACK
6
CONTINUOUS
10
3.0496494881889764
20
-3.0663556299212598
11
3.0497244094488187
21
-3.0667322834645669
0
LINE
8
BLACK
6
CONTINUOUS
10
3.0497244094488187
20
-3.0667322834645669
11
3.0497244094488187
21
-3.1832677165354331
0
LINE
8
BLACK
6
CONTINUOUS
10
3.0497244094488187
20
-3.1832677165354331
11
3.0496494881889764
21
-3.1836443700787402
0
LINE
8
BLACK
6
CONTINUOUS
10
3.0496494881889764
20
-3.1836443700787402
11
3.0491168110236222
21
-3.1841770472440944
0
LINE
8
BLACK
6
CONTINUOUS
10
3.0491168110236222
20
-3.1841770472440944
11
3.048740157480315
21
-3.1842519685039368
0
LINE
8
BLACK
6
CONTINUOUS
10
3.048740157480315
20
-3.1842519685039368
11
2.991259842519685
21
-3.1842519685039368
0
LINE
8
BLACK
6
CONTINUOUS
10
2.991259842519685
20
-3.1842519685039368
11
2.9908831889763778
21
-3.1841770472440944
0
LINE
8
BLACK
6
CONTINUOUS
10
2.9908831889763778
20
-3.1841770472440944
11
2.9903505118110236
21
-3.1836443700787402
0
LINE
8
BLACK
6
CONTINUOUS
10
2.9903505118110236
20
-3.1836443700787402
11
2.9902755905511809
21
-3.1832677165354331
0
LINE
8
BLACK
6
CONTINUOUS
10
2.9902755905511809
20
-3.1832677165354331
11
2.9902755905511809
21
-3.0667322834645669
0
LINE
8
BLACK
6
CONTINUOUS
10
2.9902755905511809
20
-3.0667322834645669
11
2.9903505118110236
21
-3.0663556299212598
0
LINE
8
BLACK
6
CONTINUOUS
10
2.9903505118110236
20
-3.0663556299212598
11
2.9908831889763778
21
-3.0658229527559056
0
LINE
8
BLACK
6
CONTINUOUS
10
2.9908831889763778
20
-3.0658229527559056
11
2.991259842519685
21
-3.0657480314960628
0
LINE
8
BLACK
6
CONTINUOUS
10
2.991259842519685
20
-3.0657480314960628
11
3.048740157480315
21
-3.0657480314960628
0
LINE
8
BLACK
6
CONTINUOUS
10
3.048740157480315
20
-3.0657480314960628
11
3.0491168110236222
21
-3.0658229527559056
0
LINE
8
BLACK
6
CONTINUOUS
10
2.9922440944881887
20
-3.0677165354330707
11
2.9922440944881887
21
-3.1822834645669289
0
LINE
8
BLACK
6
CONTINUOUS
10
2.9922440944881887
20
-3.1822834645669289
11
3.0477559055118109
21
-3.1822834645669289
0
LINE
8
BLACK
6
CONTINUOUS
10
3.0477559055118109
20
-3.1822834645669289
11
3.0477559055118109
21
-3.0677165354330707
0
LINE
8
BLACK
6
CONTINUOUS
10
3.0477559055118109
20
-3.0677165354330707
11
2.9922440944881887
21
-3.0677165354330707
0
LINE
8
BLACK
6
CONTINUOUS
10
3.1291168110236218
20
-3.0658229527559056
11
3.1296494881889765
21
-3.0663556299212598
0
LINE
8
BLACK
6
CONTINUOUS
10
3.1296494881889765
20
-3.0663556299212598
11
3.1297244094488188
21
-3.0667322834645669
0
LINE
8
BLACK
6
CONTINUOUS
10
3.1297244094488188
20
-3.0667322834645669
11
3.1297244094488188
21
-3.1832677165354331
0
LINE
8
BLACK
6
CONTINUOUS
10
3.1297244094488188
20
-3.1832677165354331
11
3.1296494881889765
21
-3.1836443700787402
0
LINE
8
BLACK
6
CONTINUOUS
10
3.1296494881889765
20
-3.1836443700787402
11
3.1291168110236218
21
-3.1841770472440944
0
LINE
8
BLACK
6
CONTINUOUS
10
3.1291168110236218
20
-3.1841770472440944
11
3.1287401574803151
21
-3.1842519685039368
0
LINE
8
BLACK
6
CONTINUOUS
10
3.1287401574803151
20
-3.1842519685039368
11
3.0712598425196851
21
-3.1842519685039368
0
LINE
8
BLACK
6
CONTINUOUS
10
3.0712598425196851
20
-3.1842519685039368
11
3.0708831889763779
21
-3.1841770472440944
0
LINE
8
BLACK
6
CONTINUOUS
10
3.0708831889763779
20
-3.1841770472440944
11
3.0703505118110237
21
-3.1836443700787402
0
LINE
8
BLACK
6
CONTINUOUS
10
3.0703505118110237
20
-3.1836443700787402
11
3.0702755905511809
21
-3.1832677165354331
0
LINE
8
BLACK
6
CONTINUOUS
10
3.0702755905511809
20
-3.1832677165354331
11
3.0702755905511809
21
-3.0667322834645669
0
LINE
8
BLACK
6
CONTINUOUS
10
3.0702755905511809
20
-3.0667322834645669
11
3.0703505118110237
21
-3.0663556299212598
0
LINE
8
BLACK
6
CONTINUOUS
10
3.0703505118110237
20
-3.0663556299212598
11
3.0708831889763779
21
-3.0658229527559056
0
LINE
8
BLACK
6
CONTINUOUS
10
3.0708831889763779
20
-3.0658229527559056
11
3.0712598425196851
21
-3.0657480314960628
0
LINE
8
BLACK
6
CONTINUOUS
10
3.0712598425196851
20
-3.0657480314960628
11
3.1287401574803151
21
-3.0657480314960628
0
LINE
8
BLACK
6
CONTINUOUS
10
3.1287401574803151
20
-3.0657480314960628
11
3.1291168110236218
21
-3.0658229527559056
0
LINE
8
BLACK
6
CONTINUOUS
10
3.0722440944881888
20
-3.0677165354330707
11
3.0722440944881888
21
-3.1822834645669289
0
LINE
8
BLACK
6
CONTINUOUS
10
3.0722440944881888
20
-3.1822834645669289
11
3.1277559055118109
21
-3.1822834645669289
0
LINE
8
BLACK
6
CONTINUOUS
10
3.1277559055118109
20
-3.1822834645669289
11
3.1277559055118109
21
-3.0677165354330707
0
LINE
8
BLACK
6
CONTINUOUS
10
3.1277559055118109
20
-3.0677165354330707
11
3.0722440944881888
21
-3.0677165354330707
0
LINE
8
BLACK
6
CONTINUOUS
10
3.1991168110236221
20
-3.0658229527559056
11
3.1996494881889763
21
-3.0663556299212598
0
LINE
8
BLACK
6
CONTINUOUS
10
3.1996494881889763
20
-3.0663556299212598
11
3.1997244094488186
21
-3.0667322834645669
0
LINE
8
BLACK
6
CONTINUOUS
10
3.1997244094488186
20
-3.0667322834645669
11
3.1997244094488186
21
-3.1832677165354331
0
LINE
8
BLACK
6
CONTINUOUS
10
3.1997244094488186
20
-3.1832677165354331
11
3.1996494881889763
21
-3.1836443700787402
0
LINE
8
BLACK
6
CONTINUOUS
10
3.1996494881889763
20
-3.1836443700787402
11
3.1991168110236221
21
-3.1841770472440944
0
LINE
8
BLACK
6
CONTINUOUS
10
3.1991168110236221
20
-3.1841770472440944
11
3.1987401574803149
21
-3.1842519685039368
0
LINE
8
BLACK
6
CONTINUOUS
10
3.1987401574803149
20
-3.1842519685039368
11
3.1412598425196849
21
-3.1842519685039368
0
LINE
8
BLACK
6
CONTINUOUS
10
3.1412598425196849
20
-3.1842519685039368
11
3.1408831889763777
21
-3.1841770472440944
0
LINE
8
BLACK
6
CONTINUOUS
10
3.1408831889763777
20
-3.1841770472440944
11
3.1403505118110235
21
-3.1836443700787402
0
LINE
8
BLACK
6
CONTINUOUS
10
3.1403505118110235
20
-3.1836443700787402
11
3.1402755905511812
21
-3.1832677165354331
0
LINE
8
BLACK
6
CONTINUOUS
10
3.1402755905511812
20
-3.1832677165354331
11
3.1402755905511812
21
-3.0667322834645669
0
LINE
8
BLACK
6
CONTINUOUS
10
3.1402755905511812
20
-3.0667322834645669
11
3.1403505118110235
21
-3.0663556299212598
0
LINE
8
BLACK
6
CONTINUOUS
10
3.1403505118110235
20
-3.0663556299212598
11
3.1408831889763777
21
-3.0658229527559056
0
LINE
8
BLACK
6
CONTINUOUS
10
3.1408831889763777
20
-3.0658229527559056
11
3.1412598425196849
21
-3.0657480314960628
0
LINE
8
BLACK
6
CONTINUOUS
10
3.1412598425196849
20
-3.0657480314960628
11
3.1987401574803149
21
-3.0657480314960628
0
LINE
8
BLACK
6
CONTINUOUS
10
3.1987401574803149
20
-3.0657480314960628
11
3.1991168110236221
21
-3.0658229527559056
0
LINE
8
BLACK
6
CONTINUOUS
10
3.1422440944881891
20
-3.0677165354330707
11
3.1422440944881891
21
-3.1822834645669289
0
LINE
8
BLACK
6
CONTINUOUS
10
3.1422440944881891
20
-3.1822834645669289
11
3.1977559055118108
21
-3.1822834645669289
0
LINE
8
BLACK
6
CONTINUOUS
10
3.1977559055118108
20
-3.1822834645669289
11
3.1977559055118108
21
-3.0677165354330707
0
LINE
8
BLACK
6
CONTINUOUS
10
3.1977559055118108
20
-3.0677165354330707
11
3.1422440944881891
21
-3.0677165354330707
0
LINE
8
BLACK
6
CONTINUOUS
10
3.0436443700787401
20
-2.9953505118110235
11
3.0441770472440943
21
-2.9958831889763777
0
LINE
8
BLACK
6
CONTINUOUS
10
3.0441770472440943
20
-2.9958831889763777
11
3.0442519685039371
21
-2.9962598425196849
0
LINE
8
BLACK
6
CONTINUOUS
10
3.0442519685039371
20
-2.9962598425196849
11
3.0442519685039371
21
-3.0537401574803149
0
LINE
8
BLACK
6
CONTINUOUS
10
3.0442519685039371
20
-3.0537401574803149
11
3.0441770472440943
21
-3.0541168110236221
0
LINE
8
BLACK
6
CONTINUOUS
10
3.0441770472440943
20
-3.0541168110236221
11
3.0436443700787401
21
-3.0546494881889763
0
LINE
8
BLACK
6
CONTINUOUS
10
3.0436443700787401
20
-3.0546494881889763
11
3.0432677165354329
21
-3.0547244094488186
0
LINE
8
BLACK
6
CONTINUOUS
10
3.0432677165354329
20
-3.0547244094488186
11
2.9267322834645668
21
-3.0547244094488186
0
LINE
8
BLACK
6
CONTINUOUS
10
2.9267322834645668
20
-3.0547244094488186
11
2.9263556299212596
21
-3.0546494881889763
0
LINE
8
BLACK
6
CONTINUOUS
10
2.9263556299212596
20
-3.0546494881889763
11
2.9258229527559054
21
-3.0541168110236221
0
LINE
8
BLACK
6
CONTINUOUS
10
2.9258229527559054
20
-3.0541168110236221
11
2.9257480314960631
21
-3.0537401574803149
0
LINE
8
BLACK
6
CONTINUOUS
10
2.9257480314960631
20
-3.0537401574803149
11
2.9257480314960631
21
-2.9962598425196849
0
LINE
8
BLACK
6
CONTINUOUS
10
2.9257480314960631
20
-2.9962598425196849
11
2.9258229527559054
21
-2.9958831889763777
0
LINE
8
BLACK
6
CONTINUOUS
10
2.9258229527559054
20
-2.9958831889763777
11
2.9263556299212596
21
-2.9953505118110235
0
LINE
8
BLACK
6
CONTINUOUS
10
2.9263556299212596
20
-2.9953505118110235
11
2.9267322834645668
21
-2.9952755905511812
0
LINE
8
BLACK
6
CONTINUOUS
10
2.9267322834645668
20
-2.9952755905511812
11
3.0432677165354329
21
-2.9952755905511812
0
LINE
8
BLACK
6
CONTINUOUS
10
3.0432677165354329
20
-2.9952755905511812
11
3.0436443700787401
21
-2.9953505118110235
0
LINE
8
BLACK
6
CONTINUOUS
10
2.927716535433071
20
-2.9972440944881891
11
2.927716535433071
21
-3.0527559055118108
0
LINE
8
BLACK
6
CONTINUOUS
10
2.927716535433071
20
-3.0527559055118108
11
3.0422834645669292
21
-3.0527559055118108
0
LINE
8
BLACK
6
CONTINUOUS
10
3.0422834645669292
20
-3.0527559055118108
11
3.0422834645669292
21
-2.9972440944881891
0
LINE
8
BLACK
6
CONTINUOUS
10
3.0422834645669292
20
-2.9972440944881891
11
2.927716535433071
21
-2.9972440944881891
0
LINE
8
BLACK
6
CONTINUOUS
10
3.19364437007874
20
-2.9953505118110235
11
3.1941770472440942
21
-2.9958831889763777
0
LINE
8
BLACK
6
CONTINUOUS
10
3.1941770472440942
20
-2.9958831889763777
11
3.194251968503937
21
-2.9962598425196849
0
LINE
8
BLACK
6
CONTINUOUS
10
3.194251968503937
20
-2.9962598425196849
11
3.194251968503937
21
-3.0537401574803149
0
LINE
8
BLACK
6
CONTINUOUS
10
3.194251968503937
20
-3.0537401574803149
11
3.1941770472440942
21
-3.0541168110236221
0
LINE
8
BLACK
6
CONTINUOUS
10
3.1941770472440942
20
-3.0541168110236221
11
3.19364437007874
21
-3.0546494881889763
0
LINE
8
BLACK
6
CONTINUOUS
10
3.19364437007874
20
-3.0546494881889763
11
3.1932677165354328
21
-3.0547244094488186
0
LINE
8
BLACK
6
CONTINUOUS
10
3.1932677165354328
20
-3.0547244094488186
11
3.0767322834645667
21
-3.0547244094488186
0
LINE
8
BLACK
6
CONTINUOUS
10
3.0767322834645667
20
-3.0547244094488186
11
3.07635562992126
21
-3.0546494881889763
0
LINE
8
BLACK
6
CONTINUOUS
10
3.07635562992126
20
-3.0546494881889763
11
3.0758229527559053
21
-3.0541168110236221
0
LINE
8
BLACK
6
CONTINUOUS
10
3.0758229527559053
20
-3.0541168110236221
11
3.075748031496063
21
-3.0537401574803149
0
LINE
8
BLACK
6
CONTINUOUS
10
3.075748031496063
20
-3.0537401574803149
11
3.075748031496063
21
-2.9962598425196849
0
LINE
8
BLACK
6
CONTINUOUS
10
3.075748031496063
20
-2.9962598425196849
11
3.0758229527559053
21
-2.9958831889763777
0
LINE
8
BLACK
6
CONTINUOUS
10
3.0758229527559053
20
-2.9958831889763777
11
3.07635562992126
21
-2.9953505118110235
0
LINE
8
BLACK
6
CONTINUOUS
10
3.07635562992126
20
-2.9953505118110235
11
3.0767322834645667
21
-2.9952755905511812
0
LINE
8
BLACK
6
CONTINUOUS
10
3.0767322834645667
20
-2.9952755905511812
11
3.1932677165354328
21
-2.9952755905511812
0
LINE
8
BLACK
6
CONTINUOUS
10
3.1932677165354328
20
-2.9952755905511812
11
3.19364437007874
21
-2.9953505118110235
0
LINE
8
BLACK
6
CONTINUOUS
10
3.0777165354330709
20
-2.9972440944881891
11
3.0777165354330709
21
-3.0527559055118108
0
LINE
8
BLACK
6
CONTINUOUS
10
3.0777165354330709
20
-3.0527559055118108
11
3.1922834645669291
21
-3.0527559055118108
0
LINE
8
BLACK
6
CONTINUOUS
10
3.1922834645669291
20
-3.0527559055118108
11
3.1922834645669291
21
-2.9972440944881891
0
LINE
8
BLACK
6
CONTINUOUS
10
3.1922834645669291
20
-2.9972440944881891
11
3.0777165354330709
21
-2.9972440944881891
0
LINE
8
BLACK
6
CONTINUOUS
10
3.3970301968503938
20
-2.7308229527559056
11
3.397562874015748
21
-2.7313556299212598
0
LINE
8
BLACK
6
CONTINUOUS
10
3.397562874015748
20
-2.7313556299212598
11
3.3976377952755903
21
-2.731732283464567
0
LINE
8
BLACK
6
CONTINUOUS
10
3.3976377952755903
20
-2.731732283464567
11
3.3976377952755903
21
-2.9482677165354332
0
LINE
8
BLACK
6
CONTINUOUS
10
3.3976377952755903
20
-2.9482677165354332
11
3.397562874015748
21
-2.9486443700787399
0
LINE
8
BLACK
6
CONTINUOUS
10
3.397562874015748
20
-2.9486443700787399
11
3.3970301968503938
21
-2.9491770472440946
0
LINE
8
BLACK
6
CONTINUOUS
10
3.3970301968503938
20
-2.9491770472440946
11
3.3966535433070866
21
-2.9492519685039369
0
LINE
8
BLACK
6
CONTINUOUS
10
3.3966535433070866
20
-2.9492519685039369
11
2.7234251968503935
21
-2.9492519685039369
0
LINE
8
BLACK
6
CONTINUOUS
10
2.7234251968503935
20
-2.9492519685039369
11
2.7230485433070863
21
-2.9491770472440946
0
LINE
8
BLACK
6
CONTINUOUS
10
2.7230485433070863
20
-2.9491770472440946
11
2.7225158661417321
21
-2.9486443700787399
0
LINE
8
BLACK
6
CONTINUOUS
10
2.7225158661417321
20
-2.9486443700787399
11
2.7224409448818898
21
-2.9482677165354332
0
LINE
8
BLACK
6
CONTINUOUS
10
2.7224409448818898
20
-2.9482677165354332
11
2.7224409448818898
21
-2.731732283464567
0
LINE
8
BLACK
6
CONTINUOUS
10
2.7224409448818898
20
-2.731732283464567
11
2.7225158661417321
21
-2.7313556299212598
0
LINE
8
BLACK
6
CONTINUOUS
10
2.7225158661417321
20
-2.7313556299212598
11
2.7230485433070863
21
-2.7308229527559056
0
LINE
8
BLACK
6
CONTINUOUS
10
2.7230485433070863
20
-2.7308229527559056
11
2.7234251968503935
21
-2.7307480314960628
0
LINE
8
BLACK
6
CONTINUOUS
10
2.7234251968503935
20
-2.7307480314960628
11
3.3966535433070866
21
-2.7307480314960628
0
LINE
8
BLACK
6
CONTINUOUS
10
3.3966535433070866
20
-2.7307480314960628
11
3.3970301968503938
21
-2.7308229527559056
0
LINE
8
BLACK
6
CONTINUOUS
10
2.7244094488188977
20
-2.7327165354330707
11
2.7244094488188977
21
-2.947283464566929
0
LINE
8
BLACK
6
CONTINUOUS
10
2.7244094488188977
20
-2.947283464566929
11
3.3956692913385824
21
-2.947283464566929
0
LINE
8
BLACK
6
CONTINUOUS
10
3.3956692913385824
20
-2.947283464566929
11
3.3956692913385824
21
-2.7327165354330707
0
LINE
8
BLACK
6
CONTINUOUS
10
3.3956692913385824
20
-2.7327165354330707
11
2.7244094488188977
21
-2.7327165354330707
0
LINE
8
BLACK
6
CONTINUOUS
10
4.5292742913385826
20
-2.6512953937007873
11
4.5298069685039373
21
-2.6518280708661415
0
LINE
8
BLACK
6
CONTINUOUS
10
4.5298069685039373
20
-2.6518280708661415
11
4.5298818897637796
21
-2.6522047244094487
0
LINE
8
BLACK
6
CONTINUOUS
10
4.5298818897637796
20
-2.6522047244094487
11
4.5298818897637796
21
-2.927795275590551
0
LINE
8
BLACK
6
CONTINUOUS
10
4.5298818897637796
20
-2.927795275590551
11
4.5298069685039373
21
-2.9281719291338582
0
LINE
8
BLACK
6
CONTINUOUS
10
4.5298069685039373
20
-2.9281719291338582
11
4.5292742913385826
21
-2.9287046062992124
0
LINE
8
BLACK
6
CONTINUOUS
10
4.5292742913385826
20
-2.9287046062992124
11
4.5288976377952759
21
-2.9287795275590551
0
LINE
8
BLACK
6
CONTINUOUS
10
4.5288976377952759
20
-2.9287795275590551
11
4.3911023622047241
21
-2.9287795275590551
0
LINE
8
BLACK
6
CONTINUOUS
10
4.3911023622047241
20
-2.9287795275590551
11
4.3907257086614173
21
-2.9287046062992124
0
LINE
8
BLACK
6
CONTINUOUS
10
4.3907257086614173
20
-2.9287046062992124
11
4.3901930314960627
21
-2.9281719291338582
0
LINE
8
BLACK
6
CONTINUOUS
10
4.3901930314960627
20
-2.9281719291338582
11
4.3901181102362203
21
-2.927795275590551
0
LINE
8
BLACK
6
CONTINUOUS
10
4.3901181102362203
20
-2.927795275590551
11
4.3901181102362203
21
-2.6522047244094487
0
LINE
8
BLACK
6
CONTINUOUS
10
4.3901181102362203
20
-2.6522047244094487
11
4.3901930314960627
21
-2.6518280708661415
0
LINE
8
BLACK
6
CONTINUOUS
10
4.3901930314960627
20
-2.6518280708661415
11
4.3907257086614173
21
-2.6512953937007873
0
LINE
8
BLACK
6
CONTINUOUS
10
4.3907257086614173
20
-2.6512953937007873
11
4.3911023622047241
21
-2.6512204724409449
0
LINE
8
BLACK
6
CONTINUOUS
10
4.3911023622047241
20
-2.6512204724409449
11
4.5288976377952759
21
-2.6512204724409449
0
LINE
8
BLACK
6
CONTINUOUS
10
4.5288976377952759
20
-2.6512204724409449
11
4.5292742913385826
21
-2.6512953937007873
0
LINE
8
BLACK
6
CONTINUOUS
10
4.3920866141732287
20
-2.6531889763779528
11
4.3920866141732287
21
-2.9268110236220473
0
LINE
8
BLACK
6
CONTINUOUS
10
4.3920866141732287
20
-2.9268110236220473
11
4.5279133858267713
21
-2.9268110236220473
0
LINE
8
BLACK
6
CONTINUOUS
10
4.5279133858267713
20
-2.9268110236220473
11
4.5279133858267713
21
-2.6531889763779528
0
LINE
8
BLACK
6
CONTINUOUS
10
4.5279133858267713
20
-2.6531889763779528
11
4.3920866141732287
21
-2.6531889763779528
0
LINE
8
BLACK
6
CONTINUOUS
10
4.3541168110236219
20
-2.6753505118110237
11
4.3546494881889766
21
-2.6758831889763779
0
LINE
8
BLACK
6
CONTINUOUS
10
4.3546494881889766
20
-2.6758831889763779
11
4.3547244094488189
21
-2.6762598425196851
0
LINE
8
BLACK
6
CONTINUOUS
10
4.3547244094488189
20
-2.6762598425196851
11
4.3547244094488189
21
-2.7927952755905512
0
LINE
8
BLACK
6
CONTINUOUS
10
4.3547244094488189
20
-2.7927952755905512
11
4.3546494881889766
21
-2.7931719291338584
0
LINE
8
BLACK
6
CONTINUOUS
10
4.3546494881889766
20
-2.7931719291338584
11
4.3541168110236219
21
-2.7937046062992126
0
LINE
8
BLACK
6
CONTINUOUS
10
4.3541168110236219
20
-2.7937046062992126
11
4.3537401574803152
21
-2.7937795275590549
0
LINE
8
BLACK
6
CONTINUOUS
10
4.3537401574803152
20
-2.7937795275590549
11
4.3536220472440945
21
-2.7937795275590549
0
LINE
8
BLACK
6
CONTINUOUS
10
4.3536220472440945
20
-2.7937795275590549
11
4.3536220472440945
21
-2.9195921259842521
0
LINE
8
BLACK
6
CONTINUOUS
10
4.3536220472440945
20
-2.9195921259842521
11
4.3535471259842522
21
-2.9199687795275588
0
LINE
8
BLACK
6
CONTINUOUS
10
4.3535471259842522
20
-2.9199687795275588
11
4.3530144488188975
21
-2.9205014566929135
0
LINE
8
BLACK
6
CONTINUOUS
10
4.3530144488188975
20
-2.9205014566929135
11
4.3526377952755908
21
-2.9205763779527558
0
LINE
8
BLACK
6
CONTINUOUS
10
4.3526377952755908
20
-2.9205763779527558
11
4.157362204724409
21
-2.9205763779527558
0
LINE
8
BLACK
6
CONTINUOUS
10
4.157362204724409
20
-2.9205763779527558
11
4.1569855511811022
21
-2.9205014566929135
0
LINE
8
BLACK
6
CONTINUOUS
10
4.1569855511811022
20
-2.9205014566929135
11
4.1564528740157476
21
-2.9199687795275588
0
LINE
8
BLACK
6
CONTINUOUS
10
4.1564528740157476
20
-2.9199687795275588
11
4.1563779527559053
21
-2.9195921259842521
0
LINE
8
BLACK
6
CONTINUOUS
10
4.1563779527559053
20
-2.9195921259842521
11
4.1563779527559053
21
-2.7936078740157479
0
LINE
8
BLACK
6
CONTINUOUS
10
4.1563779527559053
20
-2.7936078740157479
11
4.1564528740157476
21
-2.7932312204724408
0
LINE
8
BLACK
6
CONTINUOUS
10
4.1564528740157476
20
-2.7932312204724408
11
4.1569855511811022
21
-2.7926985433070866
0
LINE
8
BLACK
6
CONTINUOUS
10
4.1569855511811022
20
-2.7926985433070866
11
4.157362204724409
21
-2.7926236220472442
0
LINE
8
BLACK
6
CONTINUOUS
10
4.157362204724409
20
-2.7926236220472442
11
4.2952755905511806
21
-2.7926236220472442
0
LINE
8
BLACK
6
CONTINUOUS
10
4.2952755905511806
20
-2.7926236220472442
11
4.2952755905511806
21
-2.6762598425196851
0
LINE
8
BLACK
6
CONTINUOUS
10
4.2952755905511806
20
-2.6762598425196851
11
4.2953505118110238
21
-2.6758831889763779
0
LINE
8
BLACK
6
CONTINUOUS
10
4.2953505118110238
20
-2.6758831889763779
11
4.2958831889763776
21
-2.6753505118110237
0
LINE
8
BLACK
6
CONTINUOUS
10
4.2958831889763776
20
-2.6753505118110237
11
4.2962598425196852
21
-2.6752755905511809
0
LINE
8
BLACK
6
CONTINUOUS
10
4.2962598425196852
20
-2.6752755905511809
11
4.3537401574803152
21
-2.6752755905511809
0
LINE
8
BLACK
6
CONTINUOUS
10
4.3537401574803152
20
-2.6752755905511809
11
4.3541168110236219
21
-2.6753505118110237
0
LINE
8
BLACK
6
CONTINUOUS
10
4.1583464566929136
20
-2.7945921259842521
11
4.1583464566929136
21
-2.9186078740157479
0
LINE
8
BLACK
6
CONTINUOUS
10
4.1583464566929136
20
-2.9186078740157479
11
4.3516535433070862
21
-2.9186078740157479
0
LINE
8
BLACK
6
CONTINUOUS
10
4.3516535433070862
20
-2.9186078740157479
11
4.3516535433070862
21
-2.7945921259842521
0
LINE
8
BLACK
6
CONTINUOUS
10
4.3516535433070862
20
-2.7945921259842521
11
4.1583464566929136
21
-2.7945921259842521
0
LINE
8
BLACK
6
CONTINUOUS
10
4.2972440944881889
20
-2.6772440944881888
11
4.2972440944881889
21
-2.791811023622047
0
LINE
8
BLACK
6
CONTINUOUS
10
4.2972440944881889
20
-2.791811023622047
11
4.3527559055118106
21
-2.791811023622047
0
LINE
8
BLACK
6
CONTINUOUS
10
4.3527559055118106
20
-2.791811023622047
11
4.3527559055118106
21
-2.6772440944881888
0
LINE
8
BLACK
6
CONTINUOUS
10
4.3527559055118106
20
-2.6772440944881888
11
4.2972440944881889
21
-2.6772440944881888
0
CIRCLE
8
BLACK
10
2.5499999999999998
20
-2.7999999999999998
40
0.0068897637795276
0
CIRCLE
8
BLACK
10
4.9500000000000002
20
-2.7999999999999998
40
0.0068897637795276
0
CIRCLE
8
BLACK
10
4.9500000000000002
20
-5.2000000000000002
40
0.0068897637795276
0
CIRCLE
8
BLACK
10
2.5499999999999998
20
-5.2000000000000002
40
0.0068897637795276
0
CIRCLE
8
BLACK
10
3.9226377952755906
20
-5.2199999999999998
40
0.0068897637795276
0
CIRCLE
8
BLACK
10
3.8726377952755904
20
-5.1609448818897636
40
0.0068897637795276
0
CIRCLE
8
BLACK
10
3.8226377952755906
20
-5.1609448818897636
40
0.0068897637795276
0
CIRCLE
8
BLACK
10
3.7726377952755903
20
-5.2199999999999998
40
0.0068897637795276
0
CIRCLE
8
BLACK
10
3.7226377952755905
20
-5.1609448818897636
40
0.0068897637795276
0
CIRCLE
8
BLACK
10
3.6726377952755906
20
-5.1609448818897636
40
0.0068897637795276
0
CIRCLE
8
BLACK
10
3.6226377952755904
20
-5.2199999999999998
40
0.0068897637795276
0
CIRCLE
8
BLACK
10
3.5143700787401575
20
-5.1215748031496062
40
0.0068897637795276
0
CIRCLE
8
BLACK
10
4.0194881889763776
20
-5.1609448818897636
40
0.0068897637795276
0
CIRCLE
8
BLACK
10
3.2080708661417323
20
-5.2199999999999998
40
0.0068897637795276
0
CIRCLE
8
BLACK
10
3.158070866141732
20
-5.1609448818897636
40
0.0068897637795276
0
CIRCLE
8
BLACK
10
3.1080708661417322
20
-5.1609448818897636
40
0.0068897637795276
0
CIRCLE
8
BLACK
10
3.0580708661417324
20
-5.2199999999999998
40
0.0068897637795276
0
CIRCLE
8
BLACK
10
3.0080708661417321
20
-5.1609448818897636
40
0.0068897637795276
0
CIRCLE
8
BLACK
10
2.9580708661417323
20
-5.1609448818897636
40
0.0068897637795276
0
CIRCLE
8
BLACK
10
2.908070866141732
20
-5.2199999999999998
40
0.0068897637795276
0
CIRCLE
8
BLACK
10
2.7998031496062992
20
-5.1215748031496062
40
0.0068897637795276
0
CIRCLE
8
BLACK
10
3.3049212598425197
20
-5.1609448818897636
40
0.0068897637795276
0
CIRCLE
8
BLACK
10
2.9100393700787399
20
-2.7809448818897637
40
0.0068897637795276
0
CIRCLE
8
BLACK
10
2.9600393700787402
20
-2.8399999999999999
40
0.0068897637795276
0
CIRCLE
8
BLACK
10
3.01003937007874
20
-2.8399999999999999
40
0.0068897637795276
0
CIRCLE
8
BLACK
10
3.0600393700787403
20
-2.7809448818897637
40
0.0068897637795276
0
CIRCLE
8
BLACK
10
3.1100393700787401
20
-2.8399999999999999
40
0.0068897637795276
0
CIRCLE
8
BLACK
10
3.1600393700787399
20
-2.8399999999999999
40
0.0068897637795276
0
CIRCLE
8
BLACK
10
3.2100393700787402
20
-2.7809448818897637
40
0.0068897637795276
0
CIRCLE
8
BLACK
10
3.3183070866141731
20
-2.8793700787401573
40
0.0068897637795276
0
CIRCLE
8
BLACK
10
2.8131889763779525
20
-2.8399999999999999
40
0.0068897637795276
0
CIRCLE
8
BLACK
10
2.5299999999999998
20
-3.6999999999999997
40
0.0068897637795276
0
CIRCLE
8
BLACK
10
2.5890551181102364
20
-3.6499999999999999
40
0.0068897637795276
0
CIRCLE
8
BLACK
10
2.5890551181102364
20
-3.6000000000000001
40
0.0068897637795276
0
CIRCLE
8
BLACK
10
2.5299999999999998
20
-3.5499999999999998
40
0.0068897637795276
0
CIRCLE
8
BLACK
10
2.5890551181102364
20
-3.5
40
0.0068897637795276
0
CIRCLE
8
BLACK
10
2.5890551181102364
20
-3.4499999999999997
40
0.0068897637795276
0
CIRCLE
8
BLACK
10
2.5299999999999998
20
-3.3999999999999999
40
0.0068897637795276
0
CIRCLE
8
BLACK
10
2.6284251968503938
20
-3.291732283464567
40
0.0068897637795276
0
CIRCLE
8
BLACK
10
2.5890551181102364
20
-3.7968503937007871
40
0.0068897637795276
0
CIRCLE
8
BLACK
10
2.5299999999999998
20
-4.5999999999999996
40
0.0068897637795276
0
CIRCLE
8
BLACK
10
2.5890551181102364
20
-4.5499999999999998
40
0.0068897637795276
0
CIRCLE
8
BLACK
10
2.5890551181102364
20
-4.5
40
0.0068897637795276
0
CIRCLE
8
BLACK
10
2.5299999999999998
20
-4.4500000000000002
40
0.0068897637795276
0
CIRCLE
8
BLACK
10
2.5890551181102364
20
-4.3999999999999995
40
0.0068897637795276
0
CIRCLE
8
BLACK
10
2.5890551181102364
20
-4.3499999999999996
40
0.0068897637795276
0
CIRCLE
8
BLACK
10
2.5299999999999998
20
-4.2999999999999998
40
0.0068897637795276
0
CIRCLE
8
BLACK
10
2.6284251968503938
20
-4.1917322834645665
40
0.0068897637795276
0
CIRCLE
8
BLACK
10
2.5890551181102364
20
-4.6968503937007871
40
0.0068897637795276
0
CIRCLE
8
BLACK
10
3.5499999999999998
20
-3.23
40
0.0068897637795276
0
CIRCLE
8
BLACK
10
3.6499999999999999
20
-3.23
40
0.0068897637795276
0
CIRCLE
8
BLACK
10
3.5499999999999998
20
-3.3300000000000001
40
0.0068897637795276
0
CIRCLE
8
BLACK
10
3.6499999999999999
20
-3.3300000000000001
40
0.0068897637795276
0
CIRCLE
8
BLACK
10
3.5499999999999998
20
-3.4299999999999997
40
0.0068897637795276
0
CIRCLE
8
BLACK
10
3.6499999999999999
20
-3.4299999999999997
40
0.0068897637795276
0
CIRCLE
8
BLACK
10
3.5499999999999998
20
-3.5299999999999998
40
0.0068897637795276
0
CIRCLE
8
BLACK
10
3.6499999999999999
20
-3.5299999999999998
40
0.0068897637795276
0
CIRCLE
8
BLACK
10
3.3730314960629921
20
-3.2129921259842518
40
0.0068897637795276
0
CIRCLE
8
BLACK
10
3.3730314960629921
20
-3.1129921259842517
40
0.0068897637795276
0
CIRCLE
8
BLACK
10
3.4700787401574802
20
-4.5850393700787402
40
0.0068897637795276
0
CIRCLE
8
BLACK
10
3.4700787401574802
20
-4.6850393700787398
40
0.0068897637795276
0
CIRCLE
8
BLACK
10
3.6901574803149604
20
-4.3523622047244093
40
0.0068897637795276
0
CIRCLE
8
BLACK
10
3.6901574803149604
20
-4.4523622047244089
40
0.0068897637795276
0
CIRCLE
8
BLACK
10
4.6039370078740154
20
-2.7059055118110233
40
0.0068897637795276
0
CIRCLE
8
BLACK
10
4.7039370078740159
20
-2.7059055118110233
40
0.0068897637795276
0
CIRCLE
8
BLACK
10
4.6039370078740154
20
-2.8059055118110234
40
0.0068897637795276
0
CIRCLE
8
BLACK
10
4.7039370078740159
20
-2.8059055118110234
40
0.0068897637795276
0
CIRCLE
8
BLACK
10
4.6039370078740154
20
-2.9059055118110235
40
0.0068897637795276
0
CIRCLE
8
BLACK
10
4.7039370078740159
20
-2.9059055118110235
40
0.0068897637795276
0
CIRCLE
8
BLACK
10
5.0031606299212594
20
-4.
40
0.0068897637795276
0
CIRCLE
8
BLACK
10
4.37323937007874
20
-4.
40
0.0068897637795276
0
CIRCLE
8
BLACK
10
5.0385937007874011
20
-4.2062992125984255
40
0.0068897637795276
0
CIRCLE
8
BLACK
10
5.0385937007874011
20
-4.0787401574803148
40
0.0068897637795276
0
CIRCLE
8
BLACK
10
5.0385937007874011
20
-3.9216535433070865
40
0.0068897637795276
0
CIRCLE
8
BLACK
10
5.0385937007874011
20
-3.8417322834645669
40
0.0068897637795276
0
CIRCLE
8
BLACK
10
4.3378062992125983
20
-4.245669291338583
40
0.0068897637795276
0
CIRCLE
8
BLACK
10
4.3378062992125983
20
-4.0787401574803148
40
0.0068897637795276
0
CIRCLE
8
BLACK
10
4.3378062992125983
20
-3.9216535433070865
40
0.0068897637795276
0
CIRCLE
8
BLACK
10
4.3378062992125983
20
-3.8417322834645669
40
0.0068897637795276
0
CIRCLE
8
BLACK
10
3.5135748031496061
20
-3.9094488188976375
40
0.0039370078740157
0
CIRCLE
8
BLACK
10
3.5135748031496061
20
-3.954724409448819
40
0.0039370078740157
0
CIRCLE
8
BLACK
10
3.5135748031496061
20
-4.
40
0.0039370078740157
0
CIRCLE
8
BLACK
10
3.5135748031496061
20
-4.0452755905511806
40
0.0039370078740157
0
CIRCLE
8
BLACK
10
3.5135748031496061
20
-4.090551181102362
40
0.0039370078740157
0
CIRCLE
8
BLACK
10
3.5588503937007872
20
-3.8641732283464565
40
0.0039370078740157
0
CIRCLE
8
BLACK
10
3.5588503937007872
20
-3.9094488188976375
40
0.0039370078740157
0
CIRCLE
8
BLACK
10
3.5588503937007872
20
-3.954724409448819
40
0.0039370078740157
0
CIRCLE
8
BLACK
10
3.5588503937007872
20
-4.
40
0.0039370078740157
0
CIRCLE
8
BLACK
10
3.5588503937007872
20
-4.0452755905511806
40
0.0039370078740157
0
CIRCLE
8
BLACK
10
3.5588503937007872
20
-4.090551181102362
40
0.0039370078740157
0
CIRCLE
8
BLACK
10
3.5588503937007872
20
-4.1358267716535435
40
0.0039370078740157
0
CIRCLE
8
BLACK
10
3.6041259842519686
20
-3.8641732283464565
40
0.0039370078740157
0
CIRCLE
8
BLACK
10
3.6041259842519686
20
-3.9094488188976375
40
0.0039370078740157
0
CIRCLE
8
BLACK
10
3.6041259842519686
20
-3.954724409448819
40
0.0039370078740157
0
CIRCLE
8
BLACK
10
3.6041259842519686
20
-4.
40
0.0039370078740157
0
CIRCLE
8
BLACK
10
3.6041259842519686
20
-4.0452755905511806
40
0.0039370078740157
0
CIRCLE
8
BLACK
10
3.6041259842519686
20
-4.090551181102362
40
0.0039370078740157
0
CIRCLE
8
BLACK
10
3.6041259842519686
20
-4.1358267716535435
40
0.0039370078740157
0
CIRCLE
8
BLACK
10
3.6494015748031496
20
-3.8641732283464565
40
0.0039370078740157
0
CIRCLE
8
BLACK
10
3.6494015748031496
20
-3.9094488188976375
40
0.0039370078740157
0
CIRCLE
8
BLACK
10
3.6494015748031496
20
-3.954724409448819
40
0.0039370078740157
0
CIRCLE
8
BLACK
10
3.6494015748031496
20
-4.
40
0.0039370078740157
0
CIRCLE
8
BLACK
10
3.6494015748031496
20
-4.0452755905511806
40
0.0039370078740157
0
CIRCLE
8
BLACK
10
3.6494015748031496
20
-4.090551181102362
40
0.0039370078740157
0
CIRCLE
8
BLACK
10
3.6494015748031496
20
-4.1358267716535435
40
0.0039370078740157
0
CIRCLE
8
BLACK
10
3.6946771653543307
20
-3.8641732283464565
40
0.0039370078740157
0
CIRCLE
8
BLACK
10
3.6946771653543307
20
-3.9094488188976375
40
0.0039370078740157
0
CIRCLE
8
BLACK
10
3.6946771653543307
20
-3.954724409448819
40
0.0039370078740157
0
CIRCLE
8
BLACK
10
3.6946771653543307
20
-4.
40
0.0039370078740157
0
CIRCLE
8
BLACK
10
3.6946771653543307
20
-4.0452755905511806
40
0.0039370078740157
0
CIRCLE
8
BLACK
10
3.6946771653543307
20
-4.090551181102362
40
0.0039370078740157
0
CIRCLE
8
BLACK
10
3.6946771653543307
20
-4.1358267716535435
40
0.0039370078740157
0
CIRCLE
8
BLACK
10
3.7399527559055117
20
-3.8641732283464565
40
0.0039370078740157
0
CIRCLE
8
BLACK
10
3.7399527559055117
20
-3.9094488188976375
40
0.0039370078740157
0
CIRCLE
8
BLACK
10
3.7399527559055117
20
-3.954724409448819
40
0.0039370078740157
0
CIRCLE
8
BLACK
10
3.7399527559055117
20
-4.
40
0.0039370078740157
0
CIRCLE
8
BLACK
10
3.7399527559055117
20
-4.0452755905511806
40
0.0039370078740157
0
CIRCLE
8
BLACK
10
3.7399527559055117
20
-4.090551181102362
40
0.0039370078740157
0
CIRCLE
8
BLACK
10
3.7399527559055117
20
-4.1358267716535435
40
0.0039370078740157
0
CIRCLE
8
BLACK
10
3.7852283464566927
20
-3.9094488188976375
40
0.0039370078740157
0
CIRCLE
8
BLACK
10
3.7852283464566927
20
-3.954724409448819
40
0.0039370078740157
0
CIRCLE
8
BLACK
10
3.7852283464566927
20
-4.
40
0.0039370078740157
0
CIRCLE
8
BLACK
10
3.7852283464566927
20
-4.0452755905511806
40
0.0039370078740157
0
CIRCLE
8
BLACK
10
3.7852283464566927
20
-4.090551181102362
40
0.0039370078740157
  0
ENDSEC
  0
EOF
