  0
SECTION
  2
HEADER
  9
$ANGBASE
  50
0.0
  9
$ANGDIR
  70
1
  9
$MEASUREMENT
  70
0
  0
ENDSEC
  0
SECTION
  2
TABLES
  0
TABLE
  2
LTYPE
  70
4
  0
LTYPE
  5
40F
  2
CONTINUOUS
  70
0
  3
Solid line
  72
65
  73
0
  40
0.0
  0
LTYPE
  5
410
  2
DASHDOT
 70
0
  3
Dash Dot ____ _ ____ _
 72
65
 73
4
 40
2.0
 49
1.25
 49
-0.25
 49
0.25
 49
-0.25
  0
LTYPE
  5
411
  2
DASHED
 70
0
  3
Dashed __ __ __ __ __
 72
65
 73
2
 40
0.75
 49
0.5
 49
-0.25
  0
LTYPE
  5
43B
  2
DOTTED
 70
0
  3
Dotted .  .  .  .
 72
65
 73
2
 40
0.2
 49
0.0
 49
-0.2
  0
ENDTAB
  0
TABLE
  2
STYLE
  70
4
  0
STYLE
  2
KICAD
  70
0
  40
0
  41
1
  42
1
  50
0
  71
0
  3
isocp.shx
  0
STYLE
  2
KICADB
  70
0
  40
0
  41
1
  42
1
  50
0
  71
0
  3
isocp.shx
  0
STYLE
  2
KICADI
  70
0
  40
0
  41
1
  42
1
  50
15
  71
0
  3
isocp.shx
  0
STYLE
  2
KICADBI
  70
0
  40
0
  41
1
  42
1
  50
15
  71
0
  3
isocp.shx
  0
ENDTAB
  0
TABLE
  2
LAYER
  70
1
  0
LAYER
  2
BLACK
  70
0
  62
7
  6
CONTINUOUS
  0
ENDTAB
  0
ENDSEC
  0
SECTION
  2
ENTITIES
0
LINE
8
BLACK
6
CONTINUOUS
10
3.43533
20
-5.26991
11
3.43504
21
-5.26921
0
LINE
8
BLACK
6
CONTINUOUS
10
3.43504
20
-5.26921
11
3.43504
21
-5.05268
0
LINE
8
BLACK
6
CONTINUOUS
10
3.43504
20
-5.05268
11
3.43533
21
-5.05198
0
LINE
8
BLACK
6
CONTINUOUS
10
3.43533
20
-5.05198
11
3.43602
21
-5.05169
0
LINE
8
BLACK
6
CONTINUOUS
10
3.43602
20
-5.05169
11
4.10925
21
-5.05169
0
LINE
8
BLACK
6
CONTINUOUS
10
4.10925
20
-5.05169
11
4.10995
21
-5.05198
0
LINE
8
BLACK
6
CONTINUOUS
10
4.10995
20
-5.05198
11
4.11024
21
-5.05268
0
LINE
8
BLACK
6
CONTINUOUS
10
4.11024
20
-5.05268
11
4.11024
21
-5.26921
0
LINE
8
BLACK
6
CONTINUOUS
10
4.11024
20
-5.26921
11
4.10995
21
-5.26991
0
LINE
8
BLACK
6
CONTINUOUS
10
4.10995
20
-5.26991
11
4.10925
21
-5.2702
0
LINE
8
BLACK
6
CONTINUOUS
10
4.10925
20
-5.2702
11
3.43602
21
-5.2702
0
LINE
8
BLACK
6
CONTINUOUS
10
3.43602
20
-5.2702
11
3.43533
21
-5.26991
0
LINE
8
BLACK
6
CONTINUOUS
10
3.43701
20
-5.05366
11
3.43701
21
-5.26823
0
LINE
8
BLACK
6
CONTINUOUS
10
3.43701
20
-5.26823
11
4.10827
21
-5.26823
0
LINE
8
BLACK
6
CONTINUOUS
10
4.10827
20
-5.26823
11
4.10827
21
-5.05366
0
LINE
8
BLACK
6
CONTINUOUS
10
4.10827
20
-5.05366
11
3.43701
21
-5.05366
0
LINE
8
BLACK
6
CONTINUOUS
10
2.72076
20
-5.26991
11
2.72047
21
-5.26921
0
LINE
8
BLACK
6
CONTINUOUS
10
2.72047
20
-5.26921
11
2.72047
21
-5.05268
0
LINE
8
BLACK
6
CONTINUOUS
10
2.72047
20
-5.05268
11
2.72076
21
-5.05198
0
LINE
8
BLACK
6
CONTINUOUS
10
2.72076
20
-5.05198
11
2.72146
21
-5.05169
0
LINE
8
BLACK
6
CONTINUOUS
10
2.72146
20
-5.05169
11
3.39469
21
-5.05169
0
LINE
8
BLACK
6
CONTINUOUS
10
3.39469
20
-5.05169
11
3.39538
21
-5.05198
0
LINE
8
BLACK
6
CONTINUOUS
10
3.39538
20
-5.05198
11
3.39567
21
-5.05268
0
LINE
8
BLACK
6
CONTINUOUS
10
3.39567
20
-5.05268
11
3.39567
21
-5.26921
0
LINE
8
BLACK
6
CONTINUOUS
10
3.39567
20
-5.26921
11
3.39538
21
-5.26991
0
LINE
8
BLACK
6
CONTINUOUS
10
3.39538
20
-5.26991
11
3.39469
21
-5.2702
0
LINE
8
BLACK
6
CONTINUOUS
10
3.39469
20
-5.2702
11
2.72146
21
-5.2702
0
LINE
8
BLACK
6
CONTINUOUS
10
2.72146
20
-5.2702
11
2.72076
21
-5.26991
0
LINE
8
BLACK
6
CONTINUOUS
10
2.72244
20
-5.05366
11
2.72244
21
-5.26823
0
LINE
8
BLACK
6
CONTINUOUS
10
2.72244
20
-5.26823
11
3.3937
21
-5.26823
0
LINE
8
BLACK
6
CONTINUOUS
10
3.3937
20
-5.26823
11
3.3937
21
-5.05366
0
LINE
8
BLACK
6
CONTINUOUS
10
3.3937
20
-5.05366
11
2.72244
21
-5.05366
0
LINE
8
BLACK
6
CONTINUOUS
10
3.57651
20
-5.03444
11
3.57622
21
-5.03374
0
LINE
8
BLACK
6
CONTINUOUS
10
3.57622
20
-5.03374
11
3.57622
21
-4.97626
0
LINE
8
BLACK
6
CONTINUOUS
10
3.57622
20
-4.97626
11
3.57651
21
-4.97556
0
LINE
8
BLACK
6
CONTINUOUS
10
3.57651
20
-4.97556
11
3.5772
21
-4.97528
0
LINE
8
BLACK
6
CONTINUOUS
10
3.5772
20
-4.97528
11
3.69374
21
-4.97528
0
LINE
8
BLACK
6
CONTINUOUS
10
3.69374
20
-4.97528
11
3.69444
21
-4.97556
0
LINE
8
BLACK
6
CONTINUOUS
10
3.69444
20
-4.97556
11
3.69472
21
-4.97626
0
LINE
8
BLACK
6
CONTINUOUS
10
3.69472
20
-4.97626
11
3.69472
21
-5.03374
0
LINE
8
BLACK
6
CONTINUOUS
10
3.69472
20
-5.03374
11
3.69444
21
-5.03444
0
LINE
8
BLACK
6
CONTINUOUS
10
3.69444
20
-5.03444
11
3.69374
21
-5.03472
0
LINE
8
BLACK
6
CONTINUOUS
10
3.69374
20
-5.03472
11
3.5772
21
-5.03472
0
LINE
8
BLACK
6
CONTINUOUS
10
3.5772
20
-5.03472
11
3.57651
21
-5.03444
0
LINE
8
BLACK
6
CONTINUOUS
10
3.57819
20
-4.97724
11
3.57819
21
-5.03276
0
LINE
8
BLACK
6
CONTINUOUS
10
3.57819
20
-5.03276
11
3.69276
21
-5.03276
0
LINE
8
BLACK
6
CONTINUOUS
10
3.69276
20
-5.03276
11
3.69276
21
-4.97724
0
LINE
8
BLACK
6
CONTINUOUS
10
3.69276
20
-4.97724
11
3.57819
21
-4.97724
0
LINE
8
BLACK
6
CONTINUOUS
10
3.69604
20
-5.03444
11
3.69575
21
-5.03374
0
LINE
8
BLACK
6
CONTINUOUS
10
3.69575
20
-5.03374
11
3.69575
21
-4.97626
0
LINE
8
BLACK
6
CONTINUOUS
10
3.69575
20
-4.97626
11
3.69604
21
-4.97556
0
LINE
8
BLACK
6
CONTINUOUS
10
3.69604
20
-4.97556
11
3.69673
21
-4.97528
0
LINE
8
BLACK
6
CONTINUOUS
10
3.69673
20
-4.97528
11
3.81327
21
-4.97528
0
LINE
8
BLACK
6
CONTINUOUS
10
3.81327
20
-4.97528
11
3.81396
21
-4.97556
0
LINE
8
BLACK
6
CONTINUOUS
10
3.81396
20
-4.97556
11
3.81425
21
-4.97626
0
LINE
8
BLACK
6
CONTINUOUS
10
3.81425
20
-4.97626
11
3.81425
21
-5.03374
0
LINE
8
BLACK
6
CONTINUOUS
10
3.81425
20
-5.03374
11
3.81396
21
-5.03444
0
LINE
8
BLACK
6
CONTINUOUS
10
3.81396
20
-5.03444
11
3.81327
21
-5.03472
0
LINE
8
BLACK
6
CONTINUOUS
10
3.81327
20
-5.03472
11
3.69673
21
-5.03472
0
LINE
8
BLACK
6
CONTINUOUS
10
3.69673
20
-5.03472
11
3.69604
21
-5.03444
0
LINE
8
BLACK
6
CONTINUOUS
10
3.69772
20
-4.97724
11
3.69772
21
-5.03276
0
LINE
8
BLACK
6
CONTINUOUS
10
3.69772
20
-5.03276
11
3.81228
21
-5.03276
0
LINE
8
BLACK
6
CONTINUOUS
10
3.81228
20
-5.03276
11
3.81228
21
-4.97724
0
LINE
8
BLACK
6
CONTINUOUS
10
3.81228
20
-4.97724
11
3.69772
21
-4.97724
0
LINE
8
BLACK
6
CONTINUOUS
10
2.92404
20
-5.00444
11
2.92375
21
-5.00374
0
LINE
8
BLACK
6
CONTINUOUS
10
2.92375
20
-5.00374
11
2.92375
21
-4.94626
0
LINE
8
BLACK
6
CONTINUOUS
10
2.92375
20
-4.94626
11
2.92404
21
-4.94556
0
LINE
8
BLACK
6
CONTINUOUS
10
2.92404
20
-4.94556
11
2.92473
21
-4.94528
0
LINE
8
BLACK
6
CONTINUOUS
10
2.92473
20
-4.94528
11
3.04127
21
-4.94528
0
LINE
8
BLACK
6
CONTINUOUS
10
3.04127
20
-4.94528
11
3.04196
21
-4.94556
0
LINE
8
BLACK
6
CONTINUOUS
10
3.04196
20
-4.94556
11
3.04225
21
-4.94626
0
LINE
8
BLACK
6
CONTINUOUS
10
3.04225
20
-4.94626
11
3.04225
21
-5.00374
0
LINE
8
BLACK
6
CONTINUOUS
10
3.04225
20
-5.00374
11
3.04196
21
-5.00444
0
LINE
8
BLACK
6
CONTINUOUS
10
3.04196
20
-5.00444
11
3.04127
21
-5.00472
0
LINE
8
BLACK
6
CONTINUOUS
10
3.04127
20
-5.00472
11
2.92473
21
-5.00472
0
LINE
8
BLACK
6
CONTINUOUS
10
2.92473
20
-5.00472
11
2.92404
21
-5.00444
0
LINE
8
BLACK
6
CONTINUOUS
10
2.92572
20
-4.94724
11
2.92572
21
-5.00276
0
LINE
8
BLACK
6
CONTINUOUS
10
2.92572
20
-5.00276
11
3.04028
21
-5.00276
0
LINE
8
BLACK
6
CONTINUOUS
10
3.04028
20
-5.00276
11
3.04028
21
-4.94724
0
LINE
8
BLACK
6
CONTINUOUS
10
3.04028
20
-4.94724
11
2.92572
21
-4.94724
0
LINE
8
BLACK
6
CONTINUOUS
10
3.07454
20
-5.00444
11
3.07425
21
-5.00374
0
LINE
8
BLACK
6
CONTINUOUS
10
3.07425
20
-5.00374
11
3.07425
21
-4.94626
0
LINE
8
BLACK
6
CONTINUOUS
10
3.07425
20
-4.94626
11
3.07454
21
-4.94556
0
LINE
8
BLACK
6
CONTINUOUS
10
3.07454
20
-4.94556
11
3.07523
21
-4.94528
0
LINE
8
BLACK
6
CONTINUOUS
10
3.07523
20
-4.94528
11
3.19177
21
-4.94528
0
LINE
8
BLACK
6
CONTINUOUS
10
3.19177
20
-4.94528
11
3.19246
21
-4.94556
0
LINE
8
BLACK
6
CONTINUOUS
10
3.19246
20
-4.94556
11
3.19275
21
-4.94626
0
LINE
8
BLACK
6
CONTINUOUS
10
3.19275
20
-4.94626
11
3.19275
21
-5.00374
0
LINE
8
BLACK
6
CONTINUOUS
10
3.19275
20
-5.00374
11
3.19246
21
-5.00444
0
LINE
8
BLACK
6
CONTINUOUS
10
3.19246
20
-5.00444
11
3.19177
21
-5.00472
0
LINE
8
BLACK
6
CONTINUOUS
10
3.19177
20
-5.00472
11
3.07523
21
-5.00472
0
LINE
8
BLACK
6
CONTINUOUS
10
3.07523
20
-5.00472
11
3.07454
21
-5.00444
0
LINE
8
BLACK
6
CONTINUOUS
10
3.07622
20
-4.94724
11
3.07622
21
-5.00276
0
LINE
8
BLACK
6
CONTINUOUS
10
3.07622
20
-5.00276
11
3.19078
21
-5.00276
0
LINE
8
BLACK
6
CONTINUOUS
10
3.19078
20
-5.00276
11
3.19078
21
-4.94724
0
LINE
8
BLACK
6
CONTINUOUS
10
3.19078
20
-4.94724
11
3.07622
21
-4.94724
0
LINE
8
BLACK
6
CONTINUOUS
10
3.69604
20
-4.95944
11
3.69575
21
-4.95874
0
LINE
8
BLACK
6
CONTINUOUS
10
3.69575
20
-4.95874
11
3.69575
21
-4.90126
0
LINE
8
BLACK
6
CONTINUOUS
10
3.69575
20
-4.90126
11
3.69604
21
-4.90056
0
LINE
8
BLACK
6
CONTINUOUS
10
3.69604
20
-4.90056
11
3.69673
21
-4.90028
0
LINE
8
BLACK
6
CONTINUOUS
10
3.69673
20
-4.90028
11
3.81327
21
-4.90028
0
LINE
8
BLACK
6
CONTINUOUS
10
3.81327
20
-4.90028
11
3.81396
21
-4.90056
0
LINE
8
BLACK
6
CONTINUOUS
10
3.81396
20
-4.90056
11
3.81425
21
-4.90126
0
LINE
8
BLACK
6
CONTINUOUS
10
3.81425
20
-4.90126
11
3.81425
21
-4.95874
0
LINE
8
BLACK
6
CONTINUOUS
10
3.81425
20
-4.95874
11
3.81396
21
-4.95944
0
LINE
8
BLACK
6
CONTINUOUS
10
3.81396
20
-4.95944
11
3.81327
21
-4.95972
0
LINE
8
BLACK
6
CONTINUOUS
10
3.81327
20
-4.95972
11
3.69673
21
-4.95972
0
LINE
8
BLACK
6
CONTINUOUS
10
3.69673
20
-4.95972
11
3.69604
21
-4.95944
0
LINE
8
BLACK
6
CONTINUOUS
10
3.69772
20
-4.90224
11
3.69772
21
-4.95776
0
LINE
8
BLACK
6
CONTINUOUS
10
3.69772
20
-4.95776
11
3.81228
21
-4.95776
0
LINE
8
BLACK
6
CONTINUOUS
10
3.81228
20
-4.95776
11
3.81228
21
-4.90224
0
LINE
8
BLACK
6
CONTINUOUS
10
3.81228
20
-4.90224
11
3.69772
21
-4.90224
0
LINE
8
BLACK
6
CONTINUOUS
10
3.57604
20
-4.95944
11
3.57575
21
-4.95874
0
LINE
8
BLACK
6
CONTINUOUS
10
3.57575
20
-4.95874
11
3.57575
21
-4.90126
0
LINE
8
BLACK
6
CONTINUOUS
10
3.57575
20
-4.90126
11
3.57604
21
-4.90056
0
LINE
8
BLACK
6
CONTINUOUS
10
3.57604
20
-4.90056
11
3.57673
21
-4.90028
0
LINE
8
BLACK
6
CONTINUOUS
10
3.57673
20
-4.90028
11
3.69327
21
-4.90028
0
LINE
8
BLACK
6
CONTINUOUS
10
3.69327
20
-4.90028
11
3.69396
21
-4.90056
0
LINE
8
BLACK
6
CONTINUOUS
10
3.69396
20
-4.90056
11
3.69425
21
-4.90126
0
LINE
8
BLACK
6
CONTINUOUS
10
3.69425
20
-4.90126
11
3.69425
21
-4.95874
0
LINE
8
BLACK
6
CONTINUOUS
10
3.69425
20
-4.95874
11
3.69396
21
-4.95944
0
LINE
8
BLACK
6
CONTINUOUS
10
3.69396
20
-4.95944
11
3.69327
21
-4.95972
0
LINE
8
BLACK
6
CONTINUOUS
10
3.69327
20
-4.95972
11
3.57673
21
-4.95972
0
LINE
8
BLACK
6
CONTINUOUS
10
3.57673
20
-4.95972
11
3.57604
21
-4.95944
0
LINE
8
BLACK
6
CONTINUOUS
10
3.57772
20
-4.90224
11
3.57772
21
-4.95776
0
LINE
8
BLACK
6
CONTINUOUS
10
3.57772
20
-4.95776
11
3.69228
21
-4.95776
0
LINE
8
BLACK
6
CONTINUOUS
10
3.69228
20
-4.95776
11
3.69228
21
-4.90224
0
LINE
8
BLACK
6
CONTINUOUS
10
3.69228
20
-4.90224
11
3.57772
21
-4.90224
0
LINE
8
BLACK
6
CONTINUOUS
10
3.13906
20
-4.93396
11
3.13878
21
-4.93327
0
LINE
8
BLACK
6
CONTINUOUS
10
3.13878
20
-4.93327
11
3.13878
21
-4.81673
0
LINE
8
BLACK
6
CONTINUOUS
10
3.13878
20
-4.81673
11
3.13906
21
-4.81604
0
LINE
8
BLACK
6
CONTINUOUS
10
3.13906
20
-4.81604
11
3.13976
21
-4.81575
0
LINE
8
BLACK
6
CONTINUOUS
10
3.13976
20
-4.81575
11
3.19724
21
-4.81575
0
LINE
8
BLACK
6
CONTINUOUS
10
3.19724
20
-4.81575
11
3.19794
21
-4.81604
0
LINE
8
BLACK
6
CONTINUOUS
10
3.19794
20
-4.81604
11
3.19822
21
-4.81673
0
LINE
8
BLACK
6
CONTINUOUS
10
3.19822
20
-4.81673
11
3.19822
21
-4.93327
0
LINE
8
BLACK
6
CONTINUOUS
10
3.19822
20
-4.93327
11
3.19794
21
-4.93396
0
LINE
8
BLACK
6
CONTINUOUS
10
3.19794
20
-4.93396
11
3.19724
21
-4.93425
0
LINE
8
BLACK
6
CONTINUOUS
10
3.19724
20
-4.93425
11
3.13976
21
-4.93425
0
LINE
8
BLACK
6
CONTINUOUS
10
3.13976
20
-4.93425
11
3.13906
21
-4.93396
0
LINE
8
BLACK
6
CONTINUOUS
10
3.14074
20
-4.81772
11
3.14074
21
-4.93228
0
LINE
8
BLACK
6
CONTINUOUS
10
3.14074
20
-4.93228
11
3.19626
21
-4.93228
0
LINE
8
BLACK
6
CONTINUOUS
10
3.19626
20
-4.93228
11
3.19626
21
-4.81772
0
LINE
8
BLACK
6
CONTINUOUS
10
3.19626
20
-4.81772
11
3.14074
21
-4.81772
0
LINE
8
BLACK
6
CONTINUOUS
10
2.91856
20
-4.93396
11
2.91828
21
-4.93327
0
LINE
8
BLACK
6
CONTINUOUS
10
2.91828
20
-4.93327
11
2.91828
21
-4.81673
0
LINE
8
BLACK
6
CONTINUOUS
10
2.91828
20
-4.81673
11
2.91856
21
-4.81604
0
LINE
8
BLACK
6
CONTINUOUS
10
2.91856
20
-4.81604
11
2.91926
21
-4.81575
0
LINE
8
BLACK
6
CONTINUOUS
10
2.91926
20
-4.81575
11
2.97674
21
-4.81575
0
LINE
8
BLACK
6
CONTINUOUS
10
2.97674
20
-4.81575
11
2.97744
21
-4.81604
0
LINE
8
BLACK
6
CONTINUOUS
10
2.97744
20
-4.81604
11
2.97772
21
-4.81673
0
LINE
8
BLACK
6
CONTINUOUS
10
2.97772
20
-4.81673
11
2.97772
21
-4.93327
0
LINE
8
BLACK
6
CONTINUOUS
10
2.97772
20
-4.93327
11
2.97744
21
-4.93396
0
LINE
8
BLACK
6
CONTINUOUS
10
2.97744
20
-4.93396
11
2.97674
21
-4.93425
0
LINE
8
BLACK
6
CONTINUOUS
10
2.97674
20
-4.93425
11
2.91926
21
-4.93425
0
LINE
8
BLACK
6
CONTINUOUS
10
2.91926
20
-4.93425
11
2.91856
21
-4.93396
0
LINE
8
BLACK
6
CONTINUOUS
10
2.92024
20
-4.81772
11
2.92024
21
-4.93228
0
LINE
8
BLACK
6
CONTINUOUS
10
2.92024
20
-4.93228
11
2.97576
21
-4.93228
0
LINE
8
BLACK
6
CONTINUOUS
10
2.97576
20
-4.93228
11
2.97576
21
-4.81772
0
LINE
8
BLACK
6
CONTINUOUS
10
2.97576
20
-4.81772
11
2.92024
21
-4.81772
0
LINE
8
BLACK
6
CONTINUOUS
10
2.98856
20
-4.93396
11
2.98828
21
-4.93327
0
LINE
8
BLACK
6
CONTINUOUS
10
2.98828
20
-4.93327
11
2.98828
21
-4.81673
0
LINE
8
BLACK
6
CONTINUOUS
10
2.98828
20
-4.81673
11
2.98856
21
-4.81604
0
LINE
8
BLACK
6
CONTINUOUS
10
2.98856
20
-4.81604
11
2.98926
21
-4.81575
0
LINE
8
BLACK
6
CONTINUOUS
10
2.98926
20
-4.81575
11
3.04674
21
-4.81575
0
LINE
8
BLACK
6
CONTINUOUS
10
3.04674
20
-4.81575
11
3.04744
21
-4.81604
0
LINE
8
BLACK
6
CONTINUOUS
10
3.04744
20
-4.81604
11
3.04772
21
-4.81673
0
LINE
8
BLACK
6
CONTINUOUS
10
3.04772
20
-4.81673
11
3.04772
21
-4.93327
0
LINE
8
BLACK
6
CONTINUOUS
10
3.04772
20
-4.93327
11
3.04744
21
-4.93396
0
LINE
8
BLACK
6
CONTINUOUS
10
3.04744
20
-4.93396
11
3.04674
21
-4.93425
0
LINE
8
BLACK
6
CONTINUOUS
10
3.04674
20
-4.93425
11
2.98926
21
-4.93425
0
LINE
8
BLACK
6
CONTINUOUS
10
2.98926
20
-4.93425
11
2.98856
21
-4.93396
0
LINE
8
BLACK
6
CONTINUOUS
10
2.99024
20
-4.81772
11
2.99024
21
-4.93228
0
LINE
8
BLACK
6
CONTINUOUS
10
2.99024
20
-4.93228
11
3.04576
21
-4.93228
0
LINE
8
BLACK
6
CONTINUOUS
10
3.04576
20
-4.93228
11
3.04576
21
-4.81772
0
LINE
8
BLACK
6
CONTINUOUS
10
3.04576
20
-4.81772
11
2.99024
21
-4.81772
0
LINE
8
BLACK
6
CONTINUOUS
10
3.06906
20
-4.93396
11
3.06878
21
-4.93327
0
LINE
8
BLACK
6
CONTINUOUS
10
3.06878
20
-4.93327
11
3.06878
21
-4.81673
0
LINE
8
BLACK
6
CONTINUOUS
10
3.06878
20
-4.81673
11
3.06906
21
-4.81604
0
LINE
8
BLACK
6
CONTINUOUS
10
3.06906
20
-4.81604
11
3.06976
21
-4.81575
0
LINE
8
BLACK
6
CONTINUOUS
10
3.06976
20
-4.81575
11
3.12724
21
-4.81575
0
LINE
8
BLACK
6
CONTINUOUS
10
3.12724
20
-4.81575
11
3.12794
21
-4.81604
0
LINE
8
BLACK
6
CONTINUOUS
10
3.12794
20
-4.81604
11
3.12822
21
-4.81673
0
LINE
8
BLACK
6
CONTINUOUS
10
3.12822
20
-4.81673
11
3.12822
21
-4.93327
0
LINE
8
BLACK
6
CONTINUOUS
10
3.12822
20
-4.93327
11
3.12794
21
-4.93396
0
LINE
8
BLACK
6
CONTINUOUS
10
3.12794
20
-4.93396
11
3.12724
21
-4.93425
0
LINE
8
BLACK
6
CONTINUOUS
10
3.12724
20
-4.93425
11
3.06976
21
-4.93425
0
LINE
8
BLACK
6
CONTINUOUS
10
3.06976
20
-4.93425
11
3.06906
21
-4.93396
0
LINE
8
BLACK
6
CONTINUOUS
10
3.07074
20
-4.81772
11
3.07074
21
-4.93228
0
LINE
8
BLACK
6
CONTINUOUS
10
3.07074
20
-4.93228
11
3.12626
21
-4.93228
0
LINE
8
BLACK
6
CONTINUOUS
10
3.12626
20
-4.93228
11
3.12626
21
-4.81772
0
LINE
8
BLACK
6
CONTINUOUS
10
3.12626
20
-4.81772
11
3.07074
21
-4.81772
0
LINE
8
BLACK
6
CONTINUOUS
10
3.62806
20
-4.88896
11
3.62778
21
-4.88827
0
LINE
8
BLACK
6
CONTINUOUS
10
3.62778
20
-4.88827
11
3.62778
21
-4.77173
0
LINE
8
BLACK
6
CONTINUOUS
10
3.62778
20
-4.77173
11
3.62806
21
-4.77104
0
LINE
8
BLACK
6
CONTINUOUS
10
3.62806
20
-4.77104
11
3.62876
21
-4.77075
0
LINE
8
BLACK
6
CONTINUOUS
10
3.62876
20
-4.77075
11
3.68624
21
-4.77075
0
LINE
8
BLACK
6
CONTINUOUS
10
3.68624
20
-4.77075
11
3.68694
21
-4.77104
0
LINE
8
BLACK
6
CONTINUOUS
10
3.68694
20
-4.77104
11
3.68722
21
-4.77173
0
LINE
8
BLACK
6
CONTINUOUS
10
3.68722
20
-4.77173
11
3.68722
21
-4.88827
0
LINE
8
BLACK
6
CONTINUOUS
10
3.68722
20
-4.88827
11
3.68694
21
-4.88896
0
LINE
8
BLACK
6
CONTINUOUS
10
3.68694
20
-4.88896
11
3.68624
21
-4.88925
0
LINE
8
BLACK
6
CONTINUOUS
10
3.68624
20
-4.88925
11
3.62876
21
-4.88925
0
LINE
8
BLACK
6
CONTINUOUS
10
3.62876
20
-4.88925
11
3.62806
21
-4.88896
0
LINE
8
BLACK
6
CONTINUOUS
10
3.62974
20
-4.77272
11
3.62974
21
-4.88728
0
LINE
8
BLACK
6
CONTINUOUS
10
3.62974
20
-4.88728
11
3.68526
21
-4.88728
0
LINE
8
BLACK
6
CONTINUOUS
10
3.68526
20
-4.88728
11
3.68526
21
-4.77272
0
LINE
8
BLACK
6
CONTINUOUS
10
3.68526
20
-4.77272
11
3.62974
21
-4.77272
0
LINE
8
BLACK
6
CONTINUOUS
10
3.70306
20
-4.88896
11
3.70278
21
-4.88827
0
LINE
8
BLACK
6
CONTINUOUS
10
3.70278
20
-4.88827
11
3.70278
21
-4.77173
0
LINE
8
BLACK
6
CONTINUOUS
10
3.70278
20
-4.77173
11
3.70306
21
-4.77104
0
LINE
8
BLACK
6
CONTINUOUS
10
3.70306
20
-4.77104
11
3.70376
21
-4.77075
0
LINE
8
BLACK
6
CONTINUOUS
10
3.70376
20
-4.77075
11
3.76124
21
-4.77075
0
LINE
8
BLACK
6
CONTINUOUS
10
3.76124
20
-4.77075
11
3.76194
21
-4.77104
0
LINE
8
BLACK
6
CONTINUOUS
10
3.76194
20
-4.77104
11
3.76222
21
-4.77173
0
LINE
8
BLACK
6
CONTINUOUS
10
3.76222
20
-4.77173
11
3.76222
21
-4.88827
0
LINE
8
BLACK
6
CONTINUOUS
10
3.76222
20
-4.88827
11
3.76194
21
-4.88896
0
LINE
8
BLACK
6
CONTINUOUS
10
3.76194
20
-4.88896
11
3.76124
21
-4.88925
0
LINE
8
BLACK
6
CONTINUOUS
10
3.76124
20
-4.88925
11
3.70376
21
-4.88925
0
LINE
8
BLACK
6
CONTINUOUS
10
3.70376
20
-4.88925
11
3.70306
21
-4.88896
0
LINE
8
BLACK
6
CONTINUOUS
10
3.70474
20
-4.77272
11
3.70474
21
-4.88728
0
LINE
8
BLACK
6
CONTINUOUS
10
3.70474
20
-4.88728
11
3.76026
21
-4.88728
0
LINE
8
BLACK
6
CONTINUOUS
10
3.76026
20
-4.88728
11
3.76026
21
-4.77272
0
LINE
8
BLACK
6
CONTINUOUS
10
3.76026
20
-4.77272
11
3.70474
21
-4.77272
0
LINE
8
BLACK
6
CONTINUOUS
10
2.48009
20
-4.78731
11
2.4798
21
-4.78661
0
LINE
8
BLACK
6
CONTINUOUS
10
2.4798
20
-4.78661
11
2.4798
21
-4.11339
0
LINE
8
BLACK
6
CONTINUOUS
10
2.4798
20
-4.11339
11
2.48009
21
-4.11269
0
LINE
8
BLACK
6
CONTINUOUS
10
2.48009
20
-4.11269
11
2.48079
21
-4.1124
0
LINE
8
BLACK
6
CONTINUOUS
10
2.48079
20
-4.1124
11
2.69732
21
-4.1124
0
LINE
8
BLACK
6
CONTINUOUS
10
2.69732
20
-4.1124
11
2.69802
21
-4.11269
0
LINE
8
BLACK
6
CONTINUOUS
10
2.69802
20
-4.11269
11
2.69831
21
-4.11339
0
LINE
8
BLACK
6
CONTINUOUS
10
2.69831
20
-4.11339
11
2.69831
21
-4.78661
0
LINE
8
BLACK
6
CONTINUOUS
10
2.69831
20
-4.78661
11
2.69802
21
-4.78731
0
LINE
8
BLACK
6
CONTINUOUS
10
2.69802
20
-4.78731
11
2.69732
21
-4.7876
0
LINE
8
BLACK
6
CONTINUOUS
10
2.69732
20
-4.7876
11
2.48079
21
-4.7876
0
LINE
8
BLACK
6
CONTINUOUS
10
2.48079
20
-4.7876
11
2.48009
21
-4.78731
0
LINE
8
BLACK
6
CONTINUOUS
10
2.48177
20
-4.11437
11
2.48177
21
-4.78563
0
LINE
8
BLACK
6
CONTINUOUS
10
2.48177
20
-4.78563
11
2.69634
21
-4.78563
0
LINE
8
BLACK
6
CONTINUOUS
10
2.69634
20
-4.78563
11
2.69634
21
-4.11437
0
LINE
8
BLACK
6
CONTINUOUS
10
2.69634
20
-4.11437
11
2.48177
21
-4.11437
0
LINE
8
BLACK
6
CONTINUOUS
10
2.82054
20
-4.58794
11
2.82025
21
-4.58724
0
LINE
8
BLACK
6
CONTINUOUS
10
2.82025
20
-4.58724
11
2.82025
21
-4.52976
0
LINE
8
BLACK
6
CONTINUOUS
10
2.82025
20
-4.52976
11
2.82054
21
-4.52906
0
LINE
8
BLACK
6
CONTINUOUS
10
2.82054
20
-4.52906
11
2.82123
21
-4.52878
0
LINE
8
BLACK
6
CONTINUOUS
10
2.82123
20
-4.52878
11
2.93777
21
-4.52878
0
LINE
8
BLACK
6
CONTINUOUS
10
2.93777
20
-4.52878
11
2.93846
21
-4.52906
0
LINE
8
BLACK
6
CONTINUOUS
10
2.93846
20
-4.52906
11
2.93875
21
-4.52976
0
LINE
8
BLACK
6
CONTINUOUS
10
2.93875
20
-4.52976
11
2.93875
21
-4.58724
0
LINE
8
BLACK
6
CONTINUOUS
10
2.93875
20
-4.58724
11
2.93846
21
-4.58794
0
LINE
8
BLACK
6
CONTINUOUS
10
2.93846
20
-4.58794
11
2.93777
21
-4.58822
0
LINE
8
BLACK
6
CONTINUOUS
10
2.93777
20
-4.58822
11
2.82123
21
-4.58822
0
LINE
8
BLACK
6
CONTINUOUS
10
2.82123
20
-4.58822
11
2.82054
21
-4.58794
0
LINE
8
BLACK
6
CONTINUOUS
10
2.82222
20
-4.53074
11
2.82222
21
-4.58626
0
LINE
8
BLACK
6
CONTINUOUS
10
2.82222
20
-4.58626
11
2.93678
21
-4.58626
0
LINE
8
BLACK
6
CONTINUOUS
10
2.93678
20
-4.58626
11
2.93678
21
-4.53074
0
LINE
8
BLACK
6
CONTINUOUS
10
2.93678
20
-4.53074
11
2.82222
21
-4.53074
0
LINE
8
BLACK
6
CONTINUOUS
10
2.75006
20
-4.58246
11
2.74978
21
-4.58177
0
LINE
8
BLACK
6
CONTINUOUS
10
2.74978
20
-4.58177
11
2.74978
21
-4.46523
0
LINE
8
BLACK
6
CONTINUOUS
10
2.74978
20
-4.46523
11
2.75006
21
-4.46454
0
LINE
8
BLACK
6
CONTINUOUS
10
2.75006
20
-4.46454
11
2.75076
21
-4.46425
0
LINE
8
BLACK
6
CONTINUOUS
10
2.75076
20
-4.46425
11
2.80824
21
-4.46425
0
LINE
8
BLACK
6
CONTINUOUS
10
2.80824
20
-4.46425
11
2.80894
21
-4.46454
0
LINE
8
BLACK
6
CONTINUOUS
10
2.80894
20
-4.46454
11
2.80922
21
-4.46523
0
LINE
8
BLACK
6
CONTINUOUS
10
2.80922
20
-4.46523
11
2.80922
21
-4.58177
0
LINE
8
BLACK
6
CONTINUOUS
10
2.80922
20
-4.58177
11
2.80894
21
-4.58246
0
LINE
8
BLACK
6
CONTINUOUS
10
2.80894
20
-4.58246
11
2.80824
21
-4.58275
0
LINE
8
BLACK
6
CONTINUOUS
10
2.80824
20
-4.58275
11
2.75076
21
-4.58275
0
LINE
8
BLACK
6
CONTINUOUS
10
2.75076
20
-4.58275
11
2.75006
21
-4.58246
0
LINE
8
BLACK
6
CONTINUOUS
10
2.75174
20
-4.46622
11
2.75174
21
-4.58078
0
LINE
8
BLACK
6
CONTINUOUS
10
2.75174
20
-4.58078
11
2.80726
21
-4.58078
0
LINE
8
BLACK
6
CONTINUOUS
10
2.80726
20
-4.58078
11
2.80726
21
-4.46622
0
LINE
8
BLACK
6
CONTINUOUS
10
2.80726
20
-4.46622
11
2.75174
21
-4.46622
0
LINE
8
BLACK
6
CONTINUOUS
10
2.82054
20
-4.51794
11
2.82025
21
-4.51724
0
LINE
8
BLACK
6
CONTINUOUS
10
2.82025
20
-4.51724
11
2.82025
21
-4.45976
0
LINE
8
BLACK
6
CONTINUOUS
10
2.82025
20
-4.45976
11
2.82054
21
-4.45906
0
LINE
8
BLACK
6
CONTINUOUS
10
2.82054
20
-4.45906
11
2.82123
21
-4.45878
0
LINE
8
BLACK
6
CONTINUOUS
10
2.82123
20
-4.45878
11
2.93777
21
-4.45878
0
LINE
8
BLACK
6
CONTINUOUS
10
2.93777
20
-4.45878
11
2.93846
21
-4.45906
0
LINE
8
BLACK
6
CONTINUOUS
10
2.93846
20
-4.45906
11
2.93875
21
-4.45976
0
LINE
8
BLACK
6
CONTINUOUS
10
2.93875
20
-4.45976
11
2.93875
21
-4.51724
0
LINE
8
BLACK
6
CONTINUOUS
10
2.93875
20
-4.51724
11
2.93846
21
-4.51794
0
LINE
8
BLACK
6
CONTINUOUS
10
2.93846
20
-4.51794
11
2.93777
21
-4.51822
0
LINE
8
BLACK
6
CONTINUOUS
10
2.93777
20
-4.51822
11
2.82123
21
-4.51822
0
LINE
8
BLACK
6
CONTINUOUS
10
2.82123
20
-4.51822
11
2.82054
21
-4.51794
0
LINE
8
BLACK
6
CONTINUOUS
10
2.82222
20
-4.46074
11
2.82222
21
-4.51626
0
LINE
8
BLACK
6
CONTINUOUS
10
2.82222
20
-4.51626
11
2.93678
21
-4.51626
0
LINE
8
BLACK
6
CONTINUOUS
10
2.93678
20
-4.51626
11
2.93678
21
-4.46074
0
LINE
8
BLACK
6
CONTINUOUS
10
2.93678
20
-4.46074
11
2.82222
21
-4.46074
0
LINE
8
BLACK
6
CONTINUOUS
10
2.82004
20
-4.43994
11
2.81975
21
-4.43924
0
LINE
8
BLACK
6
CONTINUOUS
10
2.81975
20
-4.43924
11
2.81975
21
-4.38176
0
LINE
8
BLACK
6
CONTINUOUS
10
2.81975
20
-4.38176
11
2.82004
21
-4.38106
0
LINE
8
BLACK
6
CONTINUOUS
10
2.82004
20
-4.38106
11
2.82073
21
-4.38078
0
LINE
8
BLACK
6
CONTINUOUS
10
2.82073
20
-4.38078
11
2.93727
21
-4.38078
0
LINE
8
BLACK
6
CONTINUOUS
10
2.93727
20
-4.38078
11
2.93796
21
-4.38106
0
LINE
8
BLACK
6
CONTINUOUS
10
2.93796
20
-4.38106
11
2.93825
21
-4.38176
0
LINE
8
BLACK
6
CONTINUOUS
10
2.93825
20
-4.38176
11
2.93825
21
-4.43924
0
LINE
8
BLACK
6
CONTINUOUS
10
2.93825
20
-4.43924
11
2.93796
21
-4.43994
0
LINE
8
BLACK
6
CONTINUOUS
10
2.93796
20
-4.43994
11
2.93727
21
-4.44022
0
LINE
8
BLACK
6
CONTINUOUS
10
2.93727
20
-4.44022
11
2.82073
21
-4.44022
0
LINE
8
BLACK
6
CONTINUOUS
10
2.82073
20
-4.44022
11
2.82004
21
-4.43994
0
LINE
8
BLACK
6
CONTINUOUS
10
2.82172
20
-4.38274
11
2.82172
21
-4.43826
0
LINE
8
BLACK
6
CONTINUOUS
10
2.82172
20
-4.43826
11
2.93628
21
-4.43826
0
LINE
8
BLACK
6
CONTINUOUS
10
2.93628
20
-4.43826
11
2.93628
21
-4.38274
0
LINE
8
BLACK
6
CONTINUOUS
10
2.93628
20
-4.38274
11
2.82172
21
-4.38274
0
LINE
8
BLACK
6
CONTINUOUS
10
2.74956
20
-4.43446
11
2.74928
21
-4.43377
0
LINE
8
BLACK
6
CONTINUOUS
10
2.74928
20
-4.43377
11
2.74928
21
-4.31723
0
LINE
8
BLACK
6
CONTINUOUS
10
2.74928
20
-4.31723
11
2.74956
21
-4.31654
0
LINE
8
BLACK
6
CONTINUOUS
10
2.74956
20
-4.31654
11
2.75026
21
-4.31625
0
LINE
8
BLACK
6
CONTINUOUS
10
2.75026
20
-4.31625
11
2.80774
21
-4.31625
0
LINE
8
BLACK
6
CONTINUOUS
10
2.80774
20
-4.31625
11
2.80844
21
-4.31654
0
LINE
8
BLACK
6
CONTINUOUS
10
2.80844
20
-4.31654
11
2.80872
21
-4.31723
0
LINE
8
BLACK
6
CONTINUOUS
10
2.80872
20
-4.31723
11
2.80872
21
-4.43377
0
LINE
8
BLACK
6
CONTINUOUS
10
2.80872
20
-4.43377
11
2.80844
21
-4.43446
0
LINE
8
BLACK
6
CONTINUOUS
10
2.80844
20
-4.43446
11
2.80774
21
-4.43475
0
LINE
8
BLACK
6
CONTINUOUS
10
2.80774
20
-4.43475
11
2.75026
21
-4.43475
0
LINE
8
BLACK
6
CONTINUOUS
10
2.75026
20
-4.43475
11
2.74956
21
-4.43446
0
LINE
8
BLACK
6
CONTINUOUS
10
2.75124
20
-4.31822
11
2.75124
21
-4.43278
0
LINE
8
BLACK
6
CONTINUOUS
10
2.75124
20
-4.43278
11
2.80676
21
-4.43278
0
LINE
8
BLACK
6
CONTINUOUS
10
2.80676
20
-4.43278
11
2.80676
21
-4.31822
0
LINE
8
BLACK
6
CONTINUOUS
10
2.80676
20
-4.31822
11
2.75124
21
-4.31822
0
LINE
8
BLACK
6
CONTINUOUS
10
2.82004
20
-4.36994
11
2.81975
21
-4.36924
0
LINE
8
BLACK
6
CONTINUOUS
10
2.81975
20
-4.36924
11
2.81975
21
-4.31176
0
LINE
8
BLACK
6
CONTINUOUS
10
2.81975
20
-4.31176
11
2.82004
21
-4.31106
0
LINE
8
BLACK
6
CONTINUOUS
10
2.82004
20
-4.31106
11
2.82073
21
-4.31078
0
LINE
8
BLACK
6
CONTINUOUS
10
2.82073
20
-4.31078
11
2.93727
21
-4.31078
0
LINE
8
BLACK
6
CONTINUOUS
10
2.93727
20
-4.31078
11
2.93796
21
-4.31106
0
LINE
8
BLACK
6
CONTINUOUS
10
2.93796
20
-4.31106
11
2.93825
21
-4.31176
0
LINE
8
BLACK
6
CONTINUOUS
10
2.93825
20
-4.31176
11
2.93825
21
-4.36924
0
LINE
8
BLACK
6
CONTINUOUS
10
2.93825
20
-4.36924
11
2.93796
21
-4.36994
0
LINE
8
BLACK
6
CONTINUOUS
10
2.93796
20
-4.36994
11
2.93727
21
-4.37022
0
LINE
8
BLACK
6
CONTINUOUS
10
2.93727
20
-4.37022
11
2.82073
21
-4.37022
0
LINE
8
BLACK
6
CONTINUOUS
10
2.82073
20
-4.37022
11
2.82004
21
-4.36994
0
LINE
8
BLACK
6
CONTINUOUS
10
2.82172
20
-4.31274
11
2.82172
21
-4.36826
0
LINE
8
BLACK
6
CONTINUOUS
10
2.82172
20
-4.36826
11
2.93628
21
-4.36826
0
LINE
8
BLACK
6
CONTINUOUS
10
2.93628
20
-4.36826
11
2.93628
21
-4.31274
0
LINE
8
BLACK
6
CONTINUOUS
10
2.93628
20
-4.31274
11
2.82172
21
-4.31274
0
LINE
8
BLACK
6
CONTINUOUS
10
3.60934
20
-4.36014
11
3.60906
21
-4.35945
0
LINE
8
BLACK
6
CONTINUOUS
10
3.60906
20
-4.35945
11
3.60906
21
-4.30197
0
LINE
8
BLACK
6
CONTINUOUS
10
3.60906
20
-4.30197
11
3.60934
21
-4.30127
0
LINE
8
BLACK
6
CONTINUOUS
10
3.60934
20
-4.30127
11
3.61004
21
-4.30098
0
LINE
8
BLACK
6
CONTINUOUS
10
3.61004
20
-4.30098
11
3.72657
21
-4.30098
0
LINE
8
BLACK
6
CONTINUOUS
10
3.72657
20
-4.30098
11
3.72727
21
-4.30127
0
LINE
8
BLACK
6
CONTINUOUS
10
3.72727
20
-4.30127
11
3.72756
21
-4.30197
0
LINE
8
BLACK
6
CONTINUOUS
10
3.72756
20
-4.30197
11
3.72756
21
-4.35945
0
LINE
8
BLACK
6
CONTINUOUS
10
3.72756
20
-4.35945
11
3.72727
21
-4.36014
0
LINE
8
BLACK
6
CONTINUOUS
10
3.72727
20
-4.36014
11
3.72657
21
-4.36043
0
LINE
8
BLACK
6
CONTINUOUS
10
3.72657
20
-4.36043
11
3.61004
21
-4.36043
0
LINE
8
BLACK
6
CONTINUOUS
10
3.61004
20
-4.36043
11
3.60934
21
-4.36014
0
LINE
8
BLACK
6
CONTINUOUS
10
3.61102
20
-4.30295
11
3.61102
21
-4.35846
0
LINE
8
BLACK
6
CONTINUOUS
10
3.61102
20
-4.35846
11
3.72559
21
-4.35846
0
LINE
8
BLACK
6
CONTINUOUS
10
3.72559
20
-4.35846
11
3.72559
21
-4.30295
0
LINE
8
BLACK
6
CONTINUOUS
10
3.72559
20
-4.30295
11
3.61102
21
-4.30295
0
LINE
8
BLACK
6
CONTINUOUS
10
3.44913
20
-4.2071
11
3.49891
21
-4.23584
0
LINE
8
BLACK
6
CONTINUOUS
10
3.49891
20
-4.23584
11
3.49936
21
-4.23644
0
LINE
8
BLACK
6
CONTINUOUS
10
3.49936
20
-4.23644
11
3.49927
21
-4.23719
0
LINE
8
BLACK
6
CONTINUOUS
10
3.49927
20
-4.23719
11
3.441
21
-4.33811
0
LINE
8
BLACK
6
CONTINUOUS
10
3.441
20
-4.33811
11
3.4404
21
-4.33857
0
LINE
8
BLACK
6
CONTINUOUS
10
3.4404
20
-4.33857
11
3.43965
21
-4.33847
0
LINE
8
BLACK
6
CONTINUOUS
10
3.43965
20
-4.33847
11
3.38987
21
-4.30973
0
LINE
8
BLACK
6
CONTINUOUS
10
3.38987
20
-4.30973
11
3.38942
21
-4.30913
0
LINE
8
BLACK
6
CONTINUOUS
10
3.38942
20
-4.30913
11
3.38951
21
-4.30839
0
LINE
8
BLACK
6
CONTINUOUS
10
3.38951
20
-4.30839
11
3.44778
21
-4.20747
0
LINE
8
BLACK
6
CONTINUOUS
10
3.44778
20
-4.20747
11
3.44778
21
-4.20747
0
LINE
8
BLACK
6
CONTINUOUS
10
3.44778
20
-4.20747
11
3.44838
21
-4.20701
0
LINE
8
BLACK
6
CONTINUOUS
10
3.44838
20
-4.20701
11
3.44838
21
-4.20701
0
LINE
8
BLACK
6
CONTINUOUS
10
3.44838
20
-4.20701
11
3.44913
21
-4.2071
0
LINE
8
BLACK
6
CONTINUOUS
10
3.39171
20
-4.30852
11
3.43979
21
-4.33628
0
LINE
8
BLACK
6
CONTINUOUS
10
3.43979
20
-4.33628
11
3.49707
21
-4.23706
0
LINE
8
BLACK
6
CONTINUOUS
10
3.49707
20
-4.23706
11
3.44899
21
-4.2093
0
LINE
8
BLACK
6
CONTINUOUS
10
3.44899
20
-4.2093
11
3.39171
21
-4.30852
0
LINE
8
BLACK
6
CONTINUOUS
10
4.29656
20
-4.28731
11
4.29627
21
-4.28661
0
LINE
8
BLACK
6
CONTINUOUS
10
4.29627
20
-4.28661
11
4.29627
21
-3.73425
0
LINE
8
BLACK
6
CONTINUOUS
10
4.29627
20
-3.73425
11
4.29656
21
-3.73356
0
LINE
8
BLACK
6
CONTINUOUS
10
4.29656
20
-3.73356
11
4.29726
21
-3.73327
0
LINE
8
BLACK
6
CONTINUOUS
10
4.29726
20
-3.73327
11
5.07914
21
-3.73327
0
LINE
8
BLACK
6
CONTINUOUS
10
5.07914
20
-3.73327
11
5.07984
21
-3.73356
0
LINE
8
BLACK
6
CONTINUOUS
10
5.07984
20
-3.73356
11
5.08013
21
-3.73425
0
LINE
8
BLACK
6
CONTINUOUS
10
5.08013
20
-3.73425
11
5.08013
21
-4.28661
0
LINE
8
BLACK
6
CONTINUOUS
10
5.08013
20
-4.28661
11
5.07984
21
-4.28731
0
LINE
8
BLACK
6
CONTINUOUS
10
5.07984
20
-4.28731
11
5.07914
21
-4.2876
0
LINE
8
BLACK
6
CONTINUOUS
10
5.07914
20
-4.2876
11
4.29726
21
-4.2876
0
LINE
8
BLACK
6
CONTINUOUS
10
4.29726
20
-4.2876
11
4.29656
21
-4.28731
0
LINE
8
BLACK
6
CONTINUOUS
10
4.29824
20
-3.73524
11
4.29824
21
-4.28563
0
LINE
8
BLACK
6
CONTINUOUS
10
4.29824
20
-4.28563
11
5.07816
21
-4.28563
0
LINE
8
BLACK
6
CONTINUOUS
10
5.07816
20
-4.28563
11
5.07816
21
-3.73524
0
LINE
8
BLACK
6
CONTINUOUS
10
5.07816
20
-3.73524
11
4.29824
21
-3.73524
0
LINE
8
BLACK
6
CONTINUOUS
10
3.44595
20
-4.20345
11
3.44566
21
-4.20276
0
LINE
8
BLACK
6
CONTINUOUS
10
3.44566
20
-4.20276
11
3.44566
21
-3.79724
0
LINE
8
BLACK
6
CONTINUOUS
10
3.44566
20
-3.79724
11
3.44595
21
-3.79655
0
LINE
8
BLACK
6
CONTINUOUS
10
3.44595
20
-3.79655
11
3.44665
21
-3.79626
0
LINE
8
BLACK
6
CONTINUOUS
10
3.44665
20
-3.79626
11
3.85216
21
-3.79626
0
LINE
8
BLACK
6
CONTINUOUS
10
3.85216
20
-3.79626
11
3.85285
21
-3.79655
0
LINE
8
BLACK
6
CONTINUOUS
10
3.85285
20
-3.79655
11
3.85314
21
-3.79724
0
LINE
8
BLACK
6
CONTINUOUS
10
3.85314
20
-3.79724
11
3.85314
21
-4.20276
0
LINE
8
BLACK
6
CONTINUOUS
10
3.85314
20
-4.20276
11
3.85285
21
-4.20345
0
LINE
8
BLACK
6
CONTINUOUS
10
3.85285
20
-4.20345
11
3.85216
21
-4.20374
0
LINE
8
BLACK
6
CONTINUOUS
10
3.85216
20
-4.20374
11
3.44665
21
-4.20374
0
LINE
8
BLACK
6
CONTINUOUS
10
3.44665
20
-4.20374
11
3.44595
21
-4.20345
0
LINE
8
BLACK
6
CONTINUOUS
10
3.44763
20
-3.79823
11
3.44763
21
-4.20177
0
LINE
8
BLACK
6
CONTINUOUS
10
3.44763
20
-4.20177
11
3.85117
21
-4.20177
0
LINE
8
BLACK
6
CONTINUOUS
10
3.85117
20
-4.20177
11
3.85117
21
-3.79823
0
LINE
8
BLACK
6
CONTINUOUS
10
3.85117
20
-3.79823
11
3.44763
21
-3.79823
0
LINE
8
BLACK
6
CONTINUOUS
10
2.48009
20
-3.88731
11
2.4798
21
-3.88661
0
LINE
8
BLACK
6
CONTINUOUS
10
2.4798
20
-3.88661
11
2.4798
21
-3.21339
0
LINE
8
BLACK
6
CONTINUOUS
10
2.4798
20
-3.21339
11
2.48009
21
-3.21269
0
LINE
8
BLACK
6
CONTINUOUS
10
2.48009
20
-3.21269
11
2.48079
21
-3.2124
0
LINE
8
BLACK
6
CONTINUOUS
10
2.48079
20
-3.2124
11
2.69732
21
-3.2124
0
LINE
8
BLACK
6
CONTINUOUS
10
2.69732
20
-3.2124
11
2.69802
21
-3.21269
0
LINE
8
BLACK
6
CONTINUOUS
10
2.69802
20
-3.21269
11
2.69831
21
-3.21339
0
LINE
8
BLACK
6
CONTINUOUS
10
2.69831
20
-3.21339
11
2.69831
21
-3.88661
0
LINE
8
BLACK
6
CONTINUOUS
10
2.69831
20
-3.88661
11
2.69802
21
-3.88731
0
LINE
8
BLACK
6
CONTINUOUS
10
2.69802
20
-3.88731
11
2.69732
21
-3.8876
0
LINE
8
BLACK
6
CONTINUOUS
10
2.69732
20
-3.8876
11
2.48079
21
-3.8876
0
LINE
8
BLACK
6
CONTINUOUS
10
2.48079
20
-3.8876
11
2.48009
21
-3.88731
0
LINE
8
BLACK
6
CONTINUOUS
10
2.48177
20
-3.21437
11
2.48177
21
-3.88563
0
LINE
8
BLACK
6
CONTINUOUS
10
2.48177
20
-3.88563
11
2.69634
21
-3.88563
0
LINE
8
BLACK
6
CONTINUOUS
10
2.69634
20
-3.88563
11
2.69634
21
-3.21437
0
LINE
8
BLACK
6
CONTINUOUS
10
2.69634
20
-3.21437
11
2.48177
21
-3.21437
0
LINE
8
BLACK
6
CONTINUOUS
10
2.82004
20
-3.68944
11
2.81975
21
-3.68874
0
LINE
8
BLACK
6
CONTINUOUS
10
2.81975
20
-3.68874
11
2.81975
21
-3.63126
0
LINE
8
BLACK
6
CONTINUOUS
10
2.81975
20
-3.63126
11
2.82004
21
-3.63056
0
LINE
8
BLACK
6
CONTINUOUS
10
2.82004
20
-3.63056
11
2.82073
21
-3.63028
0
LINE
8
BLACK
6
CONTINUOUS
10
2.82073
20
-3.63028
11
2.93727
21
-3.63028
0
LINE
8
BLACK
6
CONTINUOUS
10
2.93727
20
-3.63028
11
2.93796
21
-3.63056
0
LINE
8
BLACK
6
CONTINUOUS
10
2.93796
20
-3.63056
11
2.93825
21
-3.63126
0
LINE
8
BLACK
6
CONTINUOUS
10
2.93825
20
-3.63126
11
2.93825
21
-3.68874
0
LINE
8
BLACK
6
CONTINUOUS
10
2.93825
20
-3.68874
11
2.93796
21
-3.68944
0
LINE
8
BLACK
6
CONTINUOUS
10
2.93796
20
-3.68944
11
2.93727
21
-3.68972
0
LINE
8
BLACK
6
CONTINUOUS
10
2.93727
20
-3.68972
11
2.82073
21
-3.68972
0
LINE
8
BLACK
6
CONTINUOUS
10
2.82073
20
-3.68972
11
2.82004
21
-3.68944
0
LINE
8
BLACK
6
CONTINUOUS
10
2.82172
20
-3.63224
11
2.82172
21
-3.68776
0
LINE
8
BLACK
6
CONTINUOUS
10
2.82172
20
-3.68776
11
2.93628
21
-3.68776
0
LINE
8
BLACK
6
CONTINUOUS
10
2.93628
20
-3.68776
11
2.93628
21
-3.63224
0
LINE
8
BLACK
6
CONTINUOUS
10
2.93628
20
-3.63224
11
2.82172
21
-3.63224
0
LINE
8
BLACK
6
CONTINUOUS
10
2.74956
20
-3.68396
11
2.74928
21
-3.68327
0
LINE
8
BLACK
6
CONTINUOUS
10
2.74928
20
-3.68327
11
2.74928
21
-3.56673
0
LINE
8
BLACK
6
CONTINUOUS
10
2.74928
20
-3.56673
11
2.74956
21
-3.56604
0
LINE
8
BLACK
6
CONTINUOUS
10
2.74956
20
-3.56604
11
2.75026
21
-3.56575
0
LINE
8
BLACK
6
CONTINUOUS
10
2.75026
20
-3.56575
11
2.80774
21
-3.56575
0
LINE
8
BLACK
6
CONTINUOUS
10
2.80774
20
-3.56575
11
2.80844
21
-3.56604
0
LINE
8
BLACK
6
CONTINUOUS
10
2.80844
20
-3.56604
11
2.80872
21
-3.56673
0
LINE
8
BLACK
6
CONTINUOUS
10
2.80872
20
-3.56673
11
2.80872
21
-3.68327
0
LINE
8
BLACK
6
CONTINUOUS
10
2.80872
20
-3.68327
11
2.80844
21
-3.68396
0
LINE
8
BLACK
6
CONTINUOUS
10
2.80844
20
-3.68396
11
2.80774
21
-3.68425
0
LINE
8
BLACK
6
CONTINUOUS
10
2.80774
20
-3.68425
11
2.75026
21
-3.68425
0
LINE
8
BLACK
6
CONTINUOUS
10
2.75026
20
-3.68425
11
2.74956
21
-3.68396
0
LINE
8
BLACK
6
CONTINUOUS
10
2.75124
20
-3.56772
11
2.75124
21
-3.68228
0
LINE
8
BLACK
6
CONTINUOUS
10
2.75124
20
-3.68228
11
2.80676
21
-3.68228
0
LINE
8
BLACK
6
CONTINUOUS
10
2.80676
20
-3.68228
11
2.80676
21
-3.56772
0
LINE
8
BLACK
6
CONTINUOUS
10
2.80676
20
-3.56772
11
2.75124
21
-3.56772
0
LINE
8
BLACK
6
CONTINUOUS
10
2.82004
20
-3.61944
11
2.81975
21
-3.61874
0
LINE
8
BLACK
6
CONTINUOUS
10
2.81975
20
-3.61874
11
2.81975
21
-3.56126
0
LINE
8
BLACK
6
CONTINUOUS
10
2.81975
20
-3.56126
11
2.82004
21
-3.56056
0
LINE
8
BLACK
6
CONTINUOUS
10
2.82004
20
-3.56056
11
2.82073
21
-3.56028
0
LINE
8
BLACK
6
CONTINUOUS
10
2.82073
20
-3.56028
11
2.93727
21
-3.56028
0
LINE
8
BLACK
6
CONTINUOUS
10
2.93727
20
-3.56028
11
2.93796
21
-3.56056
0
LINE
8
BLACK
6
CONTINUOUS
10
2.93796
20
-3.56056
11
2.93825
21
-3.56126
0
LINE
8
BLACK
6
CONTINUOUS
10
2.93825
20
-3.56126
11
2.93825
21
-3.61874
0
LINE
8
BLACK
6
CONTINUOUS
10
2.93825
20
-3.61874
11
2.93796
21
-3.61944
0
LINE
8
BLACK
6
CONTINUOUS
10
2.93796
20
-3.61944
11
2.93727
21
-3.61972
0
LINE
8
BLACK
6
CONTINUOUS
10
2.93727
20
-3.61972
11
2.82073
21
-3.61972
0
LINE
8
BLACK
6
CONTINUOUS
10
2.82073
20
-3.61972
11
2.82004
21
-3.61944
0
LINE
8
BLACK
6
CONTINUOUS
10
2.82172
20
-3.56224
11
2.82172
21
-3.61776
0
LINE
8
BLACK
6
CONTINUOUS
10
2.82172
20
-3.61776
11
2.93628
21
-3.61776
0
LINE
8
BLACK
6
CONTINUOUS
10
2.93628
20
-3.61776
11
2.93628
21
-3.56224
0
LINE
8
BLACK
6
CONTINUOUS
10
2.93628
20
-3.56224
11
2.82172
21
-3.56224
0
LINE
8
BLACK
6
CONTINUOUS
10
2.81984
20
-3.53914
11
2.81955
21
-3.53844
0
LINE
8
BLACK
6
CONTINUOUS
10
2.81955
20
-3.53844
11
2.81955
21
-3.48096
0
LINE
8
BLACK
6
CONTINUOUS
10
2.81955
20
-3.48096
11
2.81984
21
-3.48026
0
LINE
8
BLACK
6
CONTINUOUS
10
2.81984
20
-3.48026
11
2.82053
21
-3.47998
0
LINE
8
BLACK
6
CONTINUOUS
10
2.82053
20
-3.47998
11
2.93707
21
-3.47998
0
LINE
8
BLACK
6
CONTINUOUS
10
2.93707
20
-3.47998
11
2.93776
21
-3.48026
0
LINE
8
BLACK
6
CONTINUOUS
10
2.93776
20
-3.48026
11
2.93805
21
-3.48096
0
LINE
8
BLACK
6
CONTINUOUS
10
2.93805
20
-3.48096
11
2.93805
21
-3.53844
0
LINE
8
BLACK
6
CONTINUOUS
10
2.93805
20
-3.53844
11
2.93776
21
-3.53914
0
LINE
8
BLACK
6
CONTINUOUS
10
2.93776
20
-3.53914
11
2.93707
21
-3.53942
0
LINE
8
BLACK
6
CONTINUOUS
10
2.93707
20
-3.53942
11
2.82053
21
-3.53942
0
LINE
8
BLACK
6
CONTINUOUS
10
2.82053
20
-3.53942
11
2.81984
21
-3.53914
0
LINE
8
BLACK
6
CONTINUOUS
10
2.82152
20
-3.48194
11
2.82152
21
-3.53746
0
LINE
8
BLACK
6
CONTINUOUS
10
2.82152
20
-3.53746
11
2.93608
21
-3.53746
0
LINE
8
BLACK
6
CONTINUOUS
10
2.93608
20
-3.53746
11
2.93608
21
-3.48194
0
LINE
8
BLACK
6
CONTINUOUS
10
2.93608
20
-3.48194
11
2.82152
21
-3.48194
0
LINE
8
BLACK
6
CONTINUOUS
10
2.74936
20
-3.53366
11
2.74908
21
-3.53297
0
LINE
8
BLACK
6
CONTINUOUS
10
2.74908
20
-3.53297
11
2.74908
21
-3.41643
0
LINE
8
BLACK
6
CONTINUOUS
10
2.74908
20
-3.41643
11
2.74936
21
-3.41574
0
LINE
8
BLACK
6
CONTINUOUS
10
2.74936
20
-3.41574
11
2.75006
21
-3.41545
0
LINE
8
BLACK
6
CONTINUOUS
10
2.75006
20
-3.41545
11
2.80754
21
-3.41545
0
LINE
8
BLACK
6
CONTINUOUS
10
2.80754
20
-3.41545
11
2.80824
21
-3.41574
0
LINE
8
BLACK
6
CONTINUOUS
10
2.80824
20
-3.41574
11
2.80852
21
-3.41643
0
LINE
8
BLACK
6
CONTINUOUS
10
2.80852
20
-3.41643
11
2.80852
21
-3.53297
0
LINE
8
BLACK
6
CONTINUOUS
10
2.80852
20
-3.53297
11
2.80824
21
-3.53366
0
LINE
8
BLACK
6
CONTINUOUS
10
2.80824
20
-3.53366
11
2.80754
21
-3.53395
0
LINE
8
BLACK
6
CONTINUOUS
10
2.80754
20
-3.53395
11
2.75006
21
-3.53395
0
LINE
8
BLACK
6
CONTINUOUS
10
2.75006
20
-3.53395
11
2.74936
21
-3.53366
0
LINE
8
BLACK
6
CONTINUOUS
10
2.75104
20
-3.41742
11
2.75104
21
-3.53198
0
LINE
8
BLACK
6
CONTINUOUS
10
2.75104
20
-3.53198
11
2.80656
21
-3.53198
0
LINE
8
BLACK
6
CONTINUOUS
10
2.80656
20
-3.53198
11
2.80656
21
-3.41742
0
LINE
8
BLACK
6
CONTINUOUS
10
2.80656
20
-3.41742
11
2.75104
21
-3.41742
0
LINE
8
BLACK
6
CONTINUOUS
10
2.81984
20
-3.46914
11
2.81955
21
-3.46844
0
LINE
8
BLACK
6
CONTINUOUS
10
2.81955
20
-3.46844
11
2.81955
21
-3.41096
0
LINE
8
BLACK
6
CONTINUOUS
10
2.81955
20
-3.41096
11
2.81984
21
-3.41026
0
LINE
8
BLACK
6
CONTINUOUS
10
2.81984
20
-3.41026
11
2.82053
21
-3.40998
0
LINE
8
BLACK
6
CONTINUOUS
10
2.82053
20
-3.40998
11
2.93707
21
-3.40998
0
LINE
8
BLACK
6
CONTINUOUS
10
2.93707
20
-3.40998
11
2.93776
21
-3.41026
0
LINE
8
BLACK
6
CONTINUOUS
10
2.93776
20
-3.41026
11
2.93805
21
-3.41096
0
LINE
8
BLACK
6
CONTINUOUS
10
2.93805
20
-3.41096
11
2.93805
21
-3.46844
0
LINE
8
BLACK
6
CONTINUOUS
10
2.93805
20
-3.46844
11
2.93776
21
-3.46914
0
LINE
8
BLACK
6
CONTINUOUS
10
2.93776
20
-3.46914
11
2.93707
21
-3.46942
0
LINE
8
BLACK
6
CONTINUOUS
10
2.93707
20
-3.46942
11
2.82053
21
-3.46942
0
LINE
8
BLACK
6
CONTINUOUS
10
2.82053
20
-3.46942
11
2.81984
21
-3.46914
0
LINE
8
BLACK
6
CONTINUOUS
10
2.82152
20
-3.41194
11
2.82152
21
-3.46746
0
LINE
8
BLACK
6
CONTINUOUS
10
2.82152
20
-3.46746
11
2.93608
21
-3.46746
0
LINE
8
BLACK
6
CONTINUOUS
10
2.93608
20
-3.46746
11
2.93608
21
-3.41194
0
LINE
8
BLACK
6
CONTINUOUS
10
2.93608
20
-3.41194
11
2.82152
21
-3.41194
0
LINE
8
BLACK
6
CONTINUOUS
10
3.14056
20
-3.18396
11
3.14028
21
-3.18327
0
LINE
8
BLACK
6
CONTINUOUS
10
3.14028
20
-3.18327
11
3.14028
21
-3.06673
0
LINE
8
BLACK
6
CONTINUOUS
10
3.14028
20
-3.06673
11
3.14056
21
-3.06604
0
LINE
8
BLACK
6
CONTINUOUS
10
3.14056
20
-3.06604
11
3.14126
21
-3.06575
0
LINE
8
BLACK
6
CONTINUOUS
10
3.14126
20
-3.06575
11
3.19874
21
-3.06575
0
LINE
8
BLACK
6
CONTINUOUS
10
3.19874
20
-3.06575
11
3.19944
21
-3.06604
0
LINE
8
BLACK
6
CONTINUOUS
10
3.19944
20
-3.06604
11
3.19972
21
-3.06673
0
LINE
8
BLACK
6
CONTINUOUS
10
3.19972
20
-3.06673
11
3.19972
21
-3.18327
0
LINE
8
BLACK
6
CONTINUOUS
10
3.19972
20
-3.18327
11
3.19944
21
-3.18396
0
LINE
8
BLACK
6
CONTINUOUS
10
3.19944
20
-3.18396
11
3.19874
21
-3.18425
0
LINE
8
BLACK
6
CONTINUOUS
10
3.19874
20
-3.18425
11
3.14126
21
-3.18425
0
LINE
8
BLACK
6
CONTINUOUS
10
3.14126
20
-3.18425
11
3.14056
21
-3.18396
0
LINE
8
BLACK
6
CONTINUOUS
10
3.14224
20
-3.06772
11
3.14224
21
-3.18228
0
LINE
8
BLACK
6
CONTINUOUS
10
3.14224
20
-3.18228
11
3.19776
21
-3.18228
0
LINE
8
BLACK
6
CONTINUOUS
10
3.19776
20
-3.18228
11
3.19776
21
-3.06772
0
LINE
8
BLACK
6
CONTINUOUS
10
3.19776
20
-3.06772
11
3.14224
21
-3.06772
0
LINE
8
BLACK
6
CONTINUOUS
10
3.07056
20
-3.18396
11
3.07028
21
-3.18327
0
LINE
8
BLACK
6
CONTINUOUS
10
3.07028
20
-3.18327
11
3.07028
21
-3.06673
0
LINE
8
BLACK
6
CONTINUOUS
10
3.07028
20
-3.06673
11
3.07056
21
-3.06604
0
LINE
8
BLACK
6
CONTINUOUS
10
3.07056
20
-3.06604
11
3.07126
21
-3.06575
0
LINE
8
BLACK
6
CONTINUOUS
10
3.07126
20
-3.06575
11
3.12874
21
-3.06575
0
LINE
8
BLACK
6
CONTINUOUS
10
3.12874
20
-3.06575
11
3.12944
21
-3.06604
0
LINE
8
BLACK
6
CONTINUOUS
10
3.12944
20
-3.06604
11
3.12972
21
-3.06673
0
LINE
8
BLACK
6
CONTINUOUS
10
3.12972
20
-3.06673
11
3.12972
21
-3.18327
0
LINE
8
BLACK
6
CONTINUOUS
10
3.12972
20
-3.18327
11
3.12944
21
-3.18396
0
LINE
8
BLACK
6
CONTINUOUS
10
3.12944
20
-3.18396
11
3.12874
21
-3.18425
0
LINE
8
BLACK
6
CONTINUOUS
10
3.12874
20
-3.18425
11
3.07126
21
-3.18425
0
LINE
8
BLACK
6
CONTINUOUS
10
3.07126
20
-3.18425
11
3.07056
21
-3.18396
0
LINE
8
BLACK
6
CONTINUOUS
10
3.07224
20
-3.06772
11
3.07224
21
-3.18228
0
LINE
8
BLACK
6
CONTINUOUS
10
3.07224
20
-3.18228
11
3.12776
21
-3.18228
0
LINE
8
BLACK
6
CONTINUOUS
10
3.12776
20
-3.18228
11
3.12776
21
-3.06772
0
LINE
8
BLACK
6
CONTINUOUS
10
3.12776
20
-3.06772
11
3.07224
21
-3.06772
0
LINE
8
BLACK
6
CONTINUOUS
10
2.99056
20
-3.18396
11
2.99028
21
-3.18327
0
LINE
8
BLACK
6
CONTINUOUS
10
2.99028
20
-3.18327
11
2.99028
21
-3.06673
0
LINE
8
BLACK
6
CONTINUOUS
10
2.99028
20
-3.06673
11
2.99056
21
-3.06604
0
LINE
8
BLACK
6
CONTINUOUS
10
2.99056
20
-3.06604
11
2.99126
21
-3.06575
0
LINE
8
BLACK
6
CONTINUOUS
10
2.99126
20
-3.06575
11
3.04874
21
-3.06575
0
LINE
8
BLACK
6
CONTINUOUS
10
3.04874
20
-3.06575
11
3.04944
21
-3.06604
0
LINE
8
BLACK
6
CONTINUOUS
10
3.04944
20
-3.06604
11
3.04972
21
-3.06673
0
LINE
8
BLACK
6
CONTINUOUS
10
3.04972
20
-3.06673
11
3.04972
21
-3.18327
0
LINE
8
BLACK
6
CONTINUOUS
10
3.04972
20
-3.18327
11
3.04944
21
-3.18396
0
LINE
8
BLACK
6
CONTINUOUS
10
3.04944
20
-3.18396
11
3.04874
21
-3.18425
0
LINE
8
BLACK
6
CONTINUOUS
10
3.04874
20
-3.18425
11
2.99126
21
-3.18425
0
LINE
8
BLACK
6
CONTINUOUS
10
2.99126
20
-3.18425
11
2.99056
21
-3.18396
0
LINE
8
BLACK
6
CONTINUOUS
10
2.99224
20
-3.06772
11
2.99224
21
-3.18228
0
LINE
8
BLACK
6
CONTINUOUS
10
2.99224
20
-3.18228
11
3.04776
21
-3.18228
0
LINE
8
BLACK
6
CONTINUOUS
10
3.04776
20
-3.18228
11
3.04776
21
-3.06772
0
LINE
8
BLACK
6
CONTINUOUS
10
3.04776
20
-3.06772
11
2.99224
21
-3.06772
0
LINE
8
BLACK
6
CONTINUOUS
10
2.92056
20
-3.18396
11
2.92028
21
-3.18327
0
LINE
8
BLACK
6
CONTINUOUS
10
2.92028
20
-3.18327
11
2.92028
21
-3.06673
0
LINE
8
BLACK
6
CONTINUOUS
10
2.92028
20
-3.06673
11
2.92056
21
-3.06604
0
LINE
8
BLACK
6
CONTINUOUS
10
2.92056
20
-3.06604
11
2.92126
21
-3.06575
0
LINE
8
BLACK
6
CONTINUOUS
10
2.92126
20
-3.06575
11
2.97874
21
-3.06575
0
LINE
8
BLACK
6
CONTINUOUS
10
2.97874
20
-3.06575
11
2.97944
21
-3.06604
0
LINE
8
BLACK
6
CONTINUOUS
10
2.97944
20
-3.06604
11
2.97972
21
-3.06673
0
LINE
8
BLACK
6
CONTINUOUS
10
2.97972
20
-3.06673
11
2.97972
21
-3.18327
0
LINE
8
BLACK
6
CONTINUOUS
10
2.97972
20
-3.18327
11
2.97944
21
-3.18396
0
LINE
8
BLACK
6
CONTINUOUS
10
2.97944
20
-3.18396
11
2.97874
21
-3.18425
0
LINE
8
BLACK
6
CONTINUOUS
10
2.97874
20
-3.18425
11
2.92126
21
-3.18425
0
LINE
8
BLACK
6
CONTINUOUS
10
2.92126
20
-3.18425
11
2.92056
21
-3.18396
0
LINE
8
BLACK
6
CONTINUOUS
10
2.92224
20
-3.06772
11
2.92224
21
-3.18228
0
LINE
8
BLACK
6
CONTINUOUS
10
2.92224
20
-3.18228
11
2.97776
21
-3.18228
0
LINE
8
BLACK
6
CONTINUOUS
10
2.97776
20
-3.18228
11
2.97776
21
-3.06772
0
LINE
8
BLACK
6
CONTINUOUS
10
2.97776
20
-3.06772
11
2.92224
21
-3.06772
0
LINE
8
BLACK
6
CONTINUOUS
10
3.25355
20
-3.16514
11
3.25326
21
-3.16445
0
LINE
8
BLACK
6
CONTINUOUS
10
3.25326
20
-3.16445
11
3.25326
21
-3.04791
0
LINE
8
BLACK
6
CONTINUOUS
10
3.25326
20
-3.04791
11
3.25355
21
-3.04722
0
LINE
8
BLACK
6
CONTINUOUS
10
3.25355
20
-3.04722
11
3.25425
21
-3.04693
0
LINE
8
BLACK
6
CONTINUOUS
10
3.25425
20
-3.04693
11
3.31173
21
-3.04693
0
LINE
8
BLACK
6
CONTINUOUS
10
3.31173
20
-3.04693
11
3.31242
21
-3.04722
0
LINE
8
BLACK
6
CONTINUOUS
10
3.31242
20
-3.04722
11
3.31271
21
-3.04791
0
LINE
8
BLACK
6
CONTINUOUS
10
3.31271
20
-3.04791
11
3.31271
21
-3.16445
0
LINE
8
BLACK
6
CONTINUOUS
10
3.31271
20
-3.16445
11
3.31242
21
-3.16514
0
LINE
8
BLACK
6
CONTINUOUS
10
3.31242
20
-3.16514
11
3.31173
21
-3.16543
0
LINE
8
BLACK
6
CONTINUOUS
10
3.31173
20
-3.16543
11
3.25425
21
-3.16543
0
LINE
8
BLACK
6
CONTINUOUS
10
3.25425
20
-3.16543
11
3.25355
21
-3.16514
0
LINE
8
BLACK
6
CONTINUOUS
10
3.25523
20
-3.0489
11
3.25523
21
-3.16346
0
LINE
8
BLACK
6
CONTINUOUS
10
3.25523
20
-3.16346
11
3.31074
21
-3.16346
0
LINE
8
BLACK
6
CONTINUOUS
10
3.31074
20
-3.16346
11
3.31074
21
-3.0489
0
LINE
8
BLACK
6
CONTINUOUS
10
3.31074
20
-3.0489
11
3.25523
21
-3.0489
0
LINE
8
BLACK
6
CONTINUOUS
10
3.07604
20
-3.05444
11
3.07575
21
-3.05374
0
LINE
8
BLACK
6
CONTINUOUS
10
3.07575
20
-3.05374
11
3.07575
21
-2.99626
0
LINE
8
BLACK
6
CONTINUOUS
10
3.07575
20
-2.99626
11
3.07604
21
-2.99556
0
LINE
8
BLACK
6
CONTINUOUS
10
3.07604
20
-2.99556
11
3.07673
21
-2.99528
0
LINE
8
BLACK
6
CONTINUOUS
10
3.07673
20
-2.99528
11
3.19327
21
-2.99528
0
LINE
8
BLACK
6
CONTINUOUS
10
3.19327
20
-2.99528
11
3.19396
21
-2.99556
0
LINE
8
BLACK
6
CONTINUOUS
10
3.19396
20
-2.99556
11
3.19425
21
-2.99626
0
LINE
8
BLACK
6
CONTINUOUS
10
3.19425
20
-2.99626
11
3.19425
21
-3.05374
0
LINE
8
BLACK
6
CONTINUOUS
10
3.19425
20
-3.05374
11
3.19396
21
-3.05444
0
LINE
8
BLACK
6
CONTINUOUS
10
3.19396
20
-3.05444
11
3.19327
21
-3.05472
0
LINE
8
BLACK
6
CONTINUOUS
10
3.19327
20
-3.05472
11
3.07673
21
-3.05472
0
LINE
8
BLACK
6
CONTINUOUS
10
3.07673
20
-3.05472
11
3.07604
21
-3.05444
0
LINE
8
BLACK
6
CONTINUOUS
10
3.07772
20
-2.99724
11
3.07772
21
-3.05276
0
LINE
8
BLACK
6
CONTINUOUS
10
3.07772
20
-3.05276
11
3.19228
21
-3.05276
0
LINE
8
BLACK
6
CONTINUOUS
10
3.19228
20
-3.05276
11
3.19228
21
-2.99724
0
LINE
8
BLACK
6
CONTINUOUS
10
3.19228
20
-2.99724
11
3.07772
21
-2.99724
0
LINE
8
BLACK
6
CONTINUOUS
10
2.92604
20
-3.05444
11
2.92575
21
-3.05374
0
LINE
8
BLACK
6
CONTINUOUS
10
2.92575
20
-3.05374
11
2.92575
21
-2.99626
0
LINE
8
BLACK
6
CONTINUOUS
10
2.92575
20
-2.99626
11
2.92604
21
-2.99556
0
LINE
8
BLACK
6
CONTINUOUS
10
2.92604
20
-2.99556
11
2.92673
21
-2.99528
0
LINE
8
BLACK
6
CONTINUOUS
10
2.92673
20
-2.99528
11
3.04327
21
-2.99528
0
LINE
8
BLACK
6
CONTINUOUS
10
3.04327
20
-2.99528
11
3.04396
21
-2.99556
0
LINE
8
BLACK
6
CONTINUOUS
10
3.04396
20
-2.99556
11
3.04425
21
-2.99626
0
LINE
8
BLACK
6
CONTINUOUS
10
3.04425
20
-2.99626
11
3.04425
21
-3.05374
0
LINE
8
BLACK
6
CONTINUOUS
10
3.04425
20
-3.05374
11
3.04396
21
-3.05444
0
LINE
8
BLACK
6
CONTINUOUS
10
3.04396
20
-3.05444
11
3.04327
21
-3.05472
0
LINE
8
BLACK
6
CONTINUOUS
10
3.04327
20
-3.05472
11
2.92673
21
-3.05472
0
LINE
8
BLACK
6
CONTINUOUS
10
2.92673
20
-3.05472
11
2.92604
21
-3.05444
0
LINE
8
BLACK
6
CONTINUOUS
10
2.92772
20
-2.99724
11
2.92772
21
-3.05276
0
LINE
8
BLACK
6
CONTINUOUS
10
2.92772
20
-3.05276
11
3.04228
21
-3.05276
0
LINE
8
BLACK
6
CONTINUOUS
10
3.04228
20
-3.05276
11
3.04228
21
-2.99724
0
LINE
8
BLACK
6
CONTINUOUS
10
3.04228
20
-2.99724
11
2.92772
21
-2.99724
0
LINE
8
BLACK
6
CONTINUOUS
10
2.72273
20
-2.94896
11
2.72244
21
-2.94827
0
LINE
8
BLACK
6
CONTINUOUS
10
2.72244
20
-2.94827
11
2.72244
21
-2.73173
0
LINE
8
BLACK
6
CONTINUOUS
10
2.72244
20
-2.73173
11
2.72273
21
-2.73104
0
LINE
8
BLACK
6
CONTINUOUS
10
2.72273
20
-2.73104
11
2.72343
21
-2.73075
0
LINE
8
BLACK
6
CONTINUOUS
10
2.72343
20
-2.73075
11
3.39665
21
-2.73075
0
LINE
8
BLACK
6
CONTINUOUS
10
3.39665
20
-2.73075
11
3.39735
21
-2.73104
0
LINE
8
BLACK
6
CONTINUOUS
10
3.39735
20
-2.73104
11
3.39764
21
-2.73173
0
LINE
8
BLACK
6
CONTINUOUS
10
3.39764
20
-2.73173
11
3.39764
21
-2.94827
0
LINE
8
BLACK
6
CONTINUOUS
10
3.39764
20
-2.94827
11
3.39735
21
-2.94896
0
LINE
8
BLACK
6
CONTINUOUS
10
3.39735
20
-2.94896
11
3.39665
21
-2.94925
0
LINE
8
BLACK
6
CONTINUOUS
10
3.39665
20
-2.94925
11
2.72343
21
-2.94925
0
LINE
8
BLACK
6
CONTINUOUS
10
2.72343
20
-2.94925
11
2.72273
21
-2.94896
0
LINE
8
BLACK
6
CONTINUOUS
10
2.72441
20
-2.73272
11
2.72441
21
-2.94728
0
LINE
8
BLACK
6
CONTINUOUS
10
2.72441
20
-2.94728
11
3.39567
21
-2.94728
0
LINE
8
BLACK
6
CONTINUOUS
10
3.39567
20
-2.94728
11
3.39567
21
-2.73272
0
LINE
8
BLACK
6
CONTINUOUS
10
3.39567
20
-2.73272
11
2.72441
21
-2.73272
0
LINE
8
BLACK
6
CONTINUOUS
10
4.39041
20
-2.92849
11
4.39012
21
-2.9278
0
LINE
8
BLACK
6
CONTINUOUS
10
4.39012
20
-2.9278
11
4.39012
21
-2.6522
0
LINE
8
BLACK
6
CONTINUOUS
10
4.39012
20
-2.6522
11
4.39041
21
-2.65151
0
LINE
8
BLACK
6
CONTINUOUS
10
4.39041
20
-2.65151
11
4.3911
21
-2.65122
0
LINE
8
BLACK
6
CONTINUOUS
10
4.3911
20
-2.65122
11
4.5289
21
-2.65122
0
LINE
8
BLACK
6
CONTINUOUS
10
4.5289
20
-2.65122
11
4.52959
21
-2.65151
0
LINE
8
BLACK
6
CONTINUOUS
10
4.52959
20
-2.65151
11
4.52988
21
-2.6522
0
LINE
8
BLACK
6
CONTINUOUS
10
4.52988
20
-2.6522
11
4.52988
21
-2.9278
0
LINE
8
BLACK
6
CONTINUOUS
10
4.52988
20
-2.9278
11
4.52959
21
-2.92849
0
LINE
8
BLACK
6
CONTINUOUS
10
4.52959
20
-2.92849
11
4.5289
21
-2.92878
0
LINE
8
BLACK
6
CONTINUOUS
10
4.5289
20
-2.92878
11
4.3911
21
-2.92878
0
LINE
8
BLACK
6
CONTINUOUS
10
4.3911
20
-2.92878
11
4.39041
21
-2.92849
0
LINE
8
BLACK
6
CONTINUOUS
10
4.39209
20
-2.65319
11
4.39209
21
-2.92681
0
LINE
8
BLACK
6
CONTINUOUS
10
4.39209
20
-2.92681
11
4.52791
21
-2.92681
0
LINE
8
BLACK
6
CONTINUOUS
10
4.52791
20
-2.92681
11
4.52791
21
-2.65319
0
LINE
8
BLACK
6
CONTINUOUS
10
4.52791
20
-2.65319
11
4.39209
21
-2.65319
0
LINE
8
BLACK
6
CONTINUOUS
10
4.35362
20
-2.91959
11
4.35333
21
-2.92029
0
LINE
8
BLACK
6
CONTINUOUS
10
4.35333
20
-2.92029
11
4.35264
21
-2.92058
0
LINE
8
BLACK
6
CONTINUOUS
10
4.35264
20
-2.92058
11
4.15736
21
-2.92058
0
LINE
8
BLACK
6
CONTINUOUS
10
4.15736
20
-2.92058
11
4.15667
21
-2.92029
0
LINE
8
BLACK
6
CONTINUOUS
10
4.15667
20
-2.92029
11
4.15638
21
-2.91959
0
LINE
8
BLACK
6
CONTINUOUS
10
4.15638
20
-2.91959
11
4.15638
21
-2.79361
0
LINE
8
BLACK
6
CONTINUOUS
10
4.15638
20
-2.79361
11
4.15667
21
-2.79291
0
LINE
8
BLACK
6
CONTINUOUS
10
4.15667
20
-2.79291
11
4.15736
21
-2.79262
0
LINE
8
BLACK
6
CONTINUOUS
10
4.15736
20
-2.79262
11
4.29528
21
-2.79262
0
LINE
8
BLACK
6
CONTINUOUS
10
4.29528
20
-2.79262
11
4.29528
21
-2.67626
0
LINE
8
BLACK
6
CONTINUOUS
10
4.29528
20
-2.67626
11
4.29556
21
-2.67556
0
LINE
8
BLACK
6
CONTINUOUS
10
4.29556
20
-2.67556
11
4.29626
21
-2.67528
0
LINE
8
BLACK
6
CONTINUOUS
10
4.29626
20
-2.67528
11
4.35374
21
-2.67528
0
LINE
8
BLACK
6
CONTINUOUS
10
4.35374
20
-2.67528
11
4.35444
21
-2.67556
0
LINE
8
BLACK
6
CONTINUOUS
10
4.35444
20
-2.67556
11
4.35472
21
-2.67626
0
LINE
8
BLACK
6
CONTINUOUS
10
4.35472
20
-2.67626
11
4.35472
21
-2.7928
0
LINE
8
BLACK
6
CONTINUOUS
10
4.35472
20
-2.7928
11
4.35444
21
-2.79349
0
LINE
8
BLACK
6
CONTINUOUS
10
4.35444
20
-2.79349
11
4.35374
21
-2.79378
0
LINE
8
BLACK
6
CONTINUOUS
10
4.35374
20
-2.79378
11
4.35362
21
-2.79378
0
LINE
8
BLACK
6
CONTINUOUS
10
4.35362
20
-2.79378
11
4.35362
21
-2.91959
0
LINE
8
BLACK
6
CONTINUOUS
10
4.15835
20
-2.79459
11
4.15835
21
-2.91861
0
LINE
8
BLACK
6
CONTINUOUS
10
4.15835
20
-2.91861
11
4.35165
21
-2.91861
0
LINE
8
BLACK
6
CONTINUOUS
10
4.35165
20
-2.91861
11
4.35165
21
-2.79459
0
LINE
8
BLACK
6
CONTINUOUS
10
4.35165
20
-2.79459
11
4.15835
21
-2.79459
0
LINE
8
BLACK
6
CONTINUOUS
10
4.29724
20
-2.67724
11
4.29724
21
-2.79181
0
LINE
8
BLACK
6
CONTINUOUS
10
4.29724
20
-2.79181
11
4.35276
21
-2.79181
0
LINE
8
BLACK
6
CONTINUOUS
10
4.35276
20
-2.79181
11
4.35276
21
-2.67724
0
LINE
8
BLACK
6
CONTINUOUS
10
4.35276
20
-2.67724
11
4.29724
21
-2.67724
  0
ENDSEC
  0
EOF
