  0
SECTION
  2
HEADER
  9
$ANGBASE
  50
0.0
  9
$ANGDIR
  70
1
  9
$MEASUREMENT
  70
0
  0
ENDSEC
  0
SECTION
  2
TABLES
  0
TABLE
  2
LTYPE
  70
4
  0
LTYPE
  5
40F
  2
CONTINUOUS
  70
0
  3
Solid line
  72
65
  73
0
  40
0.0
  0
LTYPE
  5
410
  2
DASHDOT
 70
0
  3
Dash Dot ____ _ ____ _
 72
65
 73
4
 40
2.0
 49
1.25
 49
-0.25
 49
0.25
 49
-0.25
  0
LTYPE
  5
411
  2
DASHED
 70
0
  3
Dashed __ __ __ __ __
 72
65
 73
2
 40
0.75
 49
0.5
 49
-0.25
  0
LTYPE
  5
43B
  2
DOTTED
 70
0
  3
Dotted .  .  .  .
 72
65
 73
2
 40
0.2
 49
0.0
 49
-0.2
  0
ENDTAB
  0
TABLE
  2
STYLE
  70
4
  0
STYLE
  2
KICAD
  70
0
  40
0
  41
1
  42
1
  50
0
  71
0
  3
isocp.shx
  0
STYLE
  2
KICADB
  70
0
  40
0
  41
1
  42
1
  50
0
  71
0
  3
isocp.shx
  0
STYLE
  2
KICADI
  70
0
  40
0
  41
1
  42
1
  50
15
  71
0
  3
isocp.shx
  0
STYLE
  2
KICADBI
  70
0
  40
0
  41
1
  42
1
  50
15
  71
0
  3
isocp.shx
  0
ENDTAB
  0
TABLE
  2
LAYER
  70
1
  0
LAYER
  2
BLACK
  70
0
  62
7
  6
CONTINUOUS
  0
ENDTAB
  0
ENDSEC
  0
SECTION
  2
ENTITIES
0
LINE
8
BLACK
6
CONTINUOUS
10
3.53856
20
-4.91526
11
3.53828
21
-4.91457
0
LINE
8
BLACK
6
CONTINUOUS
10
3.53828
20
-4.91457
11
3.53828
21
-4.79803
0
LINE
8
BLACK
6
CONTINUOUS
10
3.53828
20
-4.79803
11
3.53856
21
-4.79734
0
LINE
8
BLACK
6
CONTINUOUS
10
3.53856
20
-4.79734
11
3.53926
21
-4.79705
0
LINE
8
BLACK
6
CONTINUOUS
10
3.53926
20
-4.79705
11
3.59674
21
-4.79705
0
LINE
8
BLACK
6
CONTINUOUS
10
3.59674
20
-4.79705
11
3.59744
21
-4.79734
0
LINE
8
BLACK
6
CONTINUOUS
10
3.59744
20
-4.79734
11
3.59772
21
-4.79803
0
LINE
8
BLACK
6
CONTINUOUS
10
3.59772
20
-4.79803
11
3.59772
21
-4.91457
0
LINE
8
BLACK
6
CONTINUOUS
10
3.59772
20
-4.91457
11
3.59744
21
-4.91526
0
LINE
8
BLACK
6
CONTINUOUS
10
3.59744
20
-4.91526
11
3.59674
21
-4.91555
0
LINE
8
BLACK
6
CONTINUOUS
10
3.59674
20
-4.91555
11
3.53926
21
-4.91555
0
LINE
8
BLACK
6
CONTINUOUS
10
3.53926
20
-4.91555
11
3.53856
21
-4.91526
0
LINE
8
BLACK
6
CONTINUOUS
10
3.54024
20
-4.79902
11
3.54024
21
-4.91358
0
LINE
8
BLACK
6
CONTINUOUS
10
3.54024
20
-4.91358
11
3.59576
21
-4.91358
0
LINE
8
BLACK
6
CONTINUOUS
10
3.59576
20
-4.91358
11
3.59576
21
-4.79902
0
LINE
8
BLACK
6
CONTINUOUS
10
3.59576
20
-4.79902
11
3.54024
21
-4.79902
0
LINE
8
BLACK
6
CONTINUOUS
10
4.35056
20
-4.39944
11
4.35028
21
-4.39874
0
LINE
8
BLACK
6
CONTINUOUS
10
4.35028
20
-4.39874
11
4.35028
21
-4.2822
0
LINE
8
BLACK
6
CONTINUOUS
10
4.35028
20
-4.2822
11
4.35056
21
-4.28151
0
LINE
8
BLACK
6
CONTINUOUS
10
4.35056
20
-4.28151
11
4.35126
21
-4.28122
0
LINE
8
BLACK
6
CONTINUOUS
10
4.35126
20
-4.28122
11
4.40874
21
-4.28122
0
LINE
8
BLACK
6
CONTINUOUS
10
4.40874
20
-4.28122
11
4.40944
21
-4.28151
0
LINE
8
BLACK
6
CONTINUOUS
10
4.40944
20
-4.28151
11
4.40972
21
-4.2822
0
LINE
8
BLACK
6
CONTINUOUS
10
4.40972
20
-4.2822
11
4.40972
21
-4.39874
0
LINE
8
BLACK
6
CONTINUOUS
10
4.40972
20
-4.39874
11
4.40944
21
-4.39944
0
LINE
8
BLACK
6
CONTINUOUS
10
4.40944
20
-4.39944
11
4.40874
21
-4.39972
0
LINE
8
BLACK
6
CONTINUOUS
10
4.40874
20
-4.39972
11
4.35126
21
-4.39972
0
LINE
8
BLACK
6
CONTINUOUS
10
4.35126
20
-4.39972
11
4.35056
21
-4.39944
0
LINE
8
BLACK
6
CONTINUOUS
10
4.35224
20
-4.28319
11
4.35224
21
-4.39776
0
LINE
8
BLACK
6
CONTINUOUS
10
4.35224
20
-4.39776
11
4.40776
21
-4.39776
0
LINE
8
BLACK
6
CONTINUOUS
10
4.40776
20
-4.39776
11
4.40776
21
-4.28319
0
LINE
8
BLACK
6
CONTINUOUS
10
4.40776
20
-4.28319
11
4.35224
21
-4.28319
0
LINE
8
BLACK
6
CONTINUOUS
10
4.29056
20
-4.39896
11
4.29028
21
-4.39827
0
LINE
8
BLACK
6
CONTINUOUS
10
4.29028
20
-4.39827
11
4.29028
21
-4.28173
0
LINE
8
BLACK
6
CONTINUOUS
10
4.29028
20
-4.28173
11
4.29056
21
-4.28104
0
LINE
8
BLACK
6
CONTINUOUS
10
4.29056
20
-4.28104
11
4.29126
21
-4.28075
0
LINE
8
BLACK
6
CONTINUOUS
10
4.29126
20
-4.28075
11
4.34874
21
-4.28075
0
LINE
8
BLACK
6
CONTINUOUS
10
4.34874
20
-4.28075
11
4.34944
21
-4.28104
0
LINE
8
BLACK
6
CONTINUOUS
10
4.34944
20
-4.28104
11
4.34972
21
-4.28173
0
LINE
8
BLACK
6
CONTINUOUS
10
4.34972
20
-4.28173
11
4.34972
21
-4.39827
0
LINE
8
BLACK
6
CONTINUOUS
10
4.34972
20
-4.39827
11
4.34944
21
-4.39896
0
LINE
8
BLACK
6
CONTINUOUS
10
4.34944
20
-4.39896
11
4.34874
21
-4.39925
0
LINE
8
BLACK
6
CONTINUOUS
10
4.34874
20
-4.39925
11
4.29126
21
-4.39925
0
LINE
8
BLACK
6
CONTINUOUS
10
4.29126
20
-4.39925
11
4.29056
21
-4.39896
0
LINE
8
BLACK
6
CONTINUOUS
10
4.29224
20
-4.28272
11
4.29224
21
-4.39728
0
LINE
8
BLACK
6
CONTINUOUS
10
4.29224
20
-4.39728
11
4.34776
21
-4.39728
0
LINE
8
BLACK
6
CONTINUOUS
10
4.34776
20
-4.39728
11
4.34776
21
-4.28272
0
LINE
8
BLACK
6
CONTINUOUS
10
4.34776
20
-4.28272
11
4.29224
21
-4.28272
0
LINE
8
BLACK
6
CONTINUOUS
10
3.66114
20
-4.27674
11
3.66085
21
-4.27604
0
LINE
8
BLACK
6
CONTINUOUS
10
3.66085
20
-4.27604
11
3.66085
21
-4.21856
0
LINE
8
BLACK
6
CONTINUOUS
10
3.66085
20
-4.21856
11
3.66114
21
-4.21786
0
LINE
8
BLACK
6
CONTINUOUS
10
3.66114
20
-4.21786
11
3.66183
21
-4.21758
0
LINE
8
BLACK
6
CONTINUOUS
10
3.66183
20
-4.21758
11
3.77837
21
-4.21758
0
LINE
8
BLACK
6
CONTINUOUS
10
3.77837
20
-4.21758
11
3.77906
21
-4.21786
0
LINE
8
BLACK
6
CONTINUOUS
10
3.77906
20
-4.21786
11
3.77935
21
-4.21856
0
LINE
8
BLACK
6
CONTINUOUS
10
3.77935
20
-4.21856
11
3.77935
21
-4.27604
0
LINE
8
BLACK
6
CONTINUOUS
10
3.77935
20
-4.27604
11
3.77906
21
-4.27674
0
LINE
8
BLACK
6
CONTINUOUS
10
3.77906
20
-4.27674
11
3.77837
21
-4.27702
0
LINE
8
BLACK
6
CONTINUOUS
10
3.77837
20
-4.27702
11
3.66183
21
-4.27702
0
LINE
8
BLACK
6
CONTINUOUS
10
3.66183
20
-4.27702
11
3.66114
21
-4.27674
0
LINE
8
BLACK
6
CONTINUOUS
10
3.66282
20
-4.21954
11
3.66282
21
-4.27506
0
LINE
8
BLACK
6
CONTINUOUS
10
3.66282
20
-4.27506
11
3.77738
21
-4.27506
0
LINE
8
BLACK
6
CONTINUOUS
10
3.77738
20
-4.27506
11
3.77738
21
-4.21954
0
LINE
8
BLACK
6
CONTINUOUS
10
3.77738
20
-4.21954
11
3.66282
21
-4.21954
0
LINE
8
BLACK
6
CONTINUOUS
10
3.44556
20
-4.26544
11
3.44528
21
-4.26474
0
LINE
8
BLACK
6
CONTINUOUS
10
3.44528
20
-4.26474
11
3.44528
21
-4.1482
0
LINE
8
BLACK
6
CONTINUOUS
10
3.44528
20
-4.1482
11
3.44556
21
-4.14751
0
LINE
8
BLACK
6
CONTINUOUS
10
3.44556
20
-4.14751
11
3.44626
21
-4.14722
0
LINE
8
BLACK
6
CONTINUOUS
10
3.44626
20
-4.14722
11
3.50374
21
-4.14722
0
LINE
8
BLACK
6
CONTINUOUS
10
3.50374
20
-4.14722
11
3.50444
21
-4.14751
0
LINE
8
BLACK
6
CONTINUOUS
10
3.50444
20
-4.14751
11
3.50472
21
-4.1482
0
LINE
8
BLACK
6
CONTINUOUS
10
3.50472
20
-4.1482
11
3.50472
21
-4.26474
0
LINE
8
BLACK
6
CONTINUOUS
10
3.50472
20
-4.26474
11
3.50444
21
-4.26544
0
LINE
8
BLACK
6
CONTINUOUS
10
3.50444
20
-4.26544
11
3.50374
21
-4.26572
0
LINE
8
BLACK
6
CONTINUOUS
10
3.50374
20
-4.26572
11
3.44626
21
-4.26572
0
LINE
8
BLACK
6
CONTINUOUS
10
3.44626
20
-4.26572
11
3.44556
21
-4.26544
0
LINE
8
BLACK
6
CONTINUOUS
10
3.44724
20
-4.14919
11
3.44724
21
-4.26376
0
LINE
8
BLACK
6
CONTINUOUS
10
3.44724
20
-4.26376
11
3.50276
21
-4.26376
0
LINE
8
BLACK
6
CONTINUOUS
10
3.50276
20
-4.26376
11
3.50276
21
-4.14919
0
LINE
8
BLACK
6
CONTINUOUS
10
3.50276
20
-4.14919
11
3.44724
21
-4.14919
0
LINE
8
BLACK
6
CONTINUOUS
10
3.4035
20
-4.13433
11
3.40321
21
-4.13363
0
LINE
8
BLACK
6
CONTINUOUS
10
3.40321
20
-4.13363
11
3.40321
21
-3.98797
0
LINE
8
BLACK
6
CONTINUOUS
10
3.40321
20
-3.98797
11
3.4035
21
-3.98727
0
LINE
8
BLACK
6
CONTINUOUS
10
3.4035
20
-3.98727
11
3.4042
21
-3.98698
0
LINE
8
BLACK
6
CONTINUOUS
10
3.4042
20
-3.98698
11
3.479
21
-3.98698
0
LINE
8
BLACK
6
CONTINUOUS
10
3.479
20
-3.98698
11
3.4797
21
-3.98727
0
LINE
8
BLACK
6
CONTINUOUS
10
3.4797
20
-3.98727
11
3.47999
21
-3.98797
0
LINE
8
BLACK
6
CONTINUOUS
10
3.47999
20
-3.98797
11
3.47999
21
-4.13363
0
LINE
8
BLACK
6
CONTINUOUS
10
3.47999
20
-4.13363
11
3.4797
21
-4.13433
0
LINE
8
BLACK
6
CONTINUOUS
10
3.4797
20
-4.13433
11
3.479
21
-4.13462
0
LINE
8
BLACK
6
CONTINUOUS
10
3.479
20
-4.13462
11
3.4042
21
-4.13462
0
LINE
8
BLACK
6
CONTINUOUS
10
3.4042
20
-4.13462
11
3.4035
21
-4.13433
0
LINE
8
BLACK
6
CONTINUOUS
10
3.40518
20
-3.98895
11
3.40518
21
-4.13265
0
LINE
8
BLACK
6
CONTINUOUS
10
3.40518
20
-4.13265
11
3.47802
21
-4.13265
0
LINE
8
BLACK
6
CONTINUOUS
10
3.47802
20
-4.13265
11
3.47802
21
-3.98895
0
LINE
8
BLACK
6
CONTINUOUS
10
3.47802
20
-3.98895
11
3.40518
21
-3.98895
0
LINE
8
BLACK
6
CONTINUOUS
10
3.61156
20
-4.12644
11
3.61128
21
-4.12574
0
LINE
8
BLACK
6
CONTINUOUS
10
3.61128
20
-4.12574
11
3.61128
21
-4.0092
0
LINE
8
BLACK
6
CONTINUOUS
10
3.61128
20
-4.0092
11
3.61156
21
-4.00851
0
LINE
8
BLACK
6
CONTINUOUS
10
3.61156
20
-4.00851
11
3.61226
21
-4.00822
0
LINE
8
BLACK
6
CONTINUOUS
10
3.61226
20
-4.00822
11
3.66974
21
-4.00822
0
LINE
8
BLACK
6
CONTINUOUS
10
3.66974
20
-4.00822
11
3.67044
21
-4.00851
0
LINE
8
BLACK
6
CONTINUOUS
10
3.67044
20
-4.00851
11
3.67072
21
-4.0092
0
LINE
8
BLACK
6
CONTINUOUS
10
3.67072
20
-4.0092
11
3.67072
21
-4.12574
0
LINE
8
BLACK
6
CONTINUOUS
10
3.67072
20
-4.12574
11
3.67044
21
-4.12644
0
LINE
8
BLACK
6
CONTINUOUS
10
3.67044
20
-4.12644
11
3.66974
21
-4.12672
0
LINE
8
BLACK
6
CONTINUOUS
10
3.66974
20
-4.12672
11
3.61226
21
-4.12672
0
LINE
8
BLACK
6
CONTINUOUS
10
3.61226
20
-4.12672
11
3.61156
21
-4.12644
0
LINE
8
BLACK
6
CONTINUOUS
10
3.61324
20
-4.01019
11
3.61324
21
-4.12476
0
LINE
8
BLACK
6
CONTINUOUS
10
3.61324
20
-4.12476
11
3.66876
21
-4.12476
0
LINE
8
BLACK
6
CONTINUOUS
10
3.66876
20
-4.12476
11
3.66876
21
-4.01019
0
LINE
8
BLACK
6
CONTINUOUS
10
3.66876
20
-4.01019
11
3.61324
21
-4.01019
0
LINE
8
BLACK
6
CONTINUOUS
10
3.68856
20
-4.12549
11
3.68828
21
-4.1248
0
LINE
8
BLACK
6
CONTINUOUS
10
3.68828
20
-4.1248
11
3.68828
21
-4.00826
0
LINE
8
BLACK
6
CONTINUOUS
10
3.68828
20
-4.00826
11
3.68856
21
-4.00756
0
LINE
8
BLACK
6
CONTINUOUS
10
3.68856
20
-4.00756
11
3.68926
21
-4.00728
0
LINE
8
BLACK
6
CONTINUOUS
10
3.68926
20
-4.00728
11
3.80174
21
-4.00728
0
LINE
8
BLACK
6
CONTINUOUS
10
3.80174
20
-4.00728
11
3.80244
21
-4.00756
0
LINE
8
BLACK
6
CONTINUOUS
10
3.80244
20
-4.00756
11
3.80272
21
-4.00826
0
LINE
8
BLACK
6
CONTINUOUS
10
3.80272
20
-4.00826
11
3.80272
21
-4.1248
0
LINE
8
BLACK
6
CONTINUOUS
10
3.80272
20
-4.1248
11
3.80244
21
-4.12549
0
LINE
8
BLACK
6
CONTINUOUS
10
3.80244
20
-4.12549
11
3.80174
21
-4.12578
0
LINE
8
BLACK
6
CONTINUOUS
10
3.80174
20
-4.12578
11
3.68926
21
-4.12578
0
LINE
8
BLACK
6
CONTINUOUS
10
3.68926
20
-4.12578
11
3.68856
21
-4.12549
0
LINE
8
BLACK
6
CONTINUOUS
10
3.74772
20
-4.00924
11
3.74772
21
-4.12381
0
LINE
8
BLACK
6
CONTINUOUS
10
3.74772
20
-4.12381
11
3.80076
21
-4.12381
0
LINE
8
BLACK
6
CONTINUOUS
10
3.80076
20
-4.12381
11
3.80076
21
-4.00924
0
LINE
8
BLACK
6
CONTINUOUS
10
3.80076
20
-4.00924
11
3.74772
21
-4.00924
0
LINE
8
BLACK
6
CONTINUOUS
10
3.69024
20
-4.00924
11
3.69024
21
-4.12381
0
LINE
8
BLACK
6
CONTINUOUS
10
3.69024
20
-4.12381
11
3.74328
21
-4.12381
0
LINE
8
BLACK
6
CONTINUOUS
10
3.74328
20
-4.12381
11
3.74328
21
-4.00924
0
LINE
8
BLACK
6
CONTINUOUS
10
3.74328
20
-4.00924
11
3.69024
21
-4.00924
0
LINE
8
BLACK
6
CONTINUOUS
10
3.74524
20
-4.00924
11
3.74524
21
-4.12381
0
LINE
8
BLACK
6
CONTINUOUS
10
3.74524
20
-4.12381
11
3.74576
21
-4.12381
0
LINE
8
BLACK
6
CONTINUOUS
10
3.74576
20
-4.12381
11
3.74576
21
-4.00924
0
LINE
8
BLACK
6
CONTINUOUS
10
3.74576
20
-4.00924
11
3.74524
21
-4.00924
0
LINE
8
BLACK
6
CONTINUOUS
10
3.57972
20
-3.9922
11
3.57972
21
-4.10874
0
LINE
8
BLACK
6
CONTINUOUS
10
3.57972
20
-4.10874
11
3.57944
21
-4.10944
0
LINE
8
BLACK
6
CONTINUOUS
10
3.57944
20
-4.10944
11
3.57874
21
-4.10972
0
LINE
8
BLACK
6
CONTINUOUS
10
3.57874
20
-4.10972
11
3.52126
21
-4.10972
0
LINE
8
BLACK
6
CONTINUOUS
10
3.52126
20
-4.10972
11
3.52056
21
-4.10944
0
LINE
8
BLACK
6
CONTINUOUS
10
3.52056
20
-4.10944
11
3.52028
21
-4.10874
0
LINE
8
BLACK
6
CONTINUOUS
10
3.52028
20
-4.10874
11
3.52028
21
-3.9922
0
LINE
8
BLACK
6
CONTINUOUS
10
3.52028
20
-3.9922
11
3.52047
21
-3.99172
0
LINE
8
BLACK
6
CONTINUOUS
10
3.52047
20
-3.99172
11
3.51626
21
-3.99172
0
LINE
8
BLACK
6
CONTINUOUS
10
3.51626
20
-3.99172
11
3.51556
21
-3.99144
0
LINE
8
BLACK
6
CONTINUOUS
10
3.51556
20
-3.99144
11
3.51528
21
-3.99074
0
LINE
8
BLACK
6
CONTINUOUS
10
3.51528
20
-3.99074
11
3.51528
21
-3.8742
0
LINE
8
BLACK
6
CONTINUOUS
10
3.51528
20
-3.8742
11
3.51556
21
-3.87351
0
LINE
8
BLACK
6
CONTINUOUS
10
3.51556
20
-3.87351
11
3.51626
21
-3.87322
0
LINE
8
BLACK
6
CONTINUOUS
10
3.51626
20
-3.87322
11
3.57374
21
-3.87322
0
LINE
8
BLACK
6
CONTINUOUS
10
3.57374
20
-3.87322
11
3.57444
21
-3.87351
0
LINE
8
BLACK
6
CONTINUOUS
10
3.57444
20
-3.87351
11
3.57472
21
-3.8742
0
LINE
8
BLACK
6
CONTINUOUS
10
3.57472
20
-3.8742
11
3.57472
21
-3.99074
0
LINE
8
BLACK
6
CONTINUOUS
10
3.57472
20
-3.99074
11
3.57453
21
-3.99122
0
LINE
8
BLACK
6
CONTINUOUS
10
3.57453
20
-3.99122
11
3.57874
21
-3.99122
0
LINE
8
BLACK
6
CONTINUOUS
10
3.57874
20
-3.99122
11
3.57944
21
-3.99151
0
LINE
8
BLACK
6
CONTINUOUS
10
3.57944
20
-3.99151
11
3.57972
21
-3.9922
0
LINE
8
BLACK
6
CONTINUOUS
10
3.52224
20
-3.99319
11
3.52224
21
-4.10776
0
LINE
8
BLACK
6
CONTINUOUS
10
3.52224
20
-4.10776
11
3.57776
21
-4.10776
0
LINE
8
BLACK
6
CONTINUOUS
10
3.57776
20
-4.10776
11
3.57776
21
-3.99319
0
LINE
8
BLACK
6
CONTINUOUS
10
3.57776
20
-3.99319
11
3.52224
21
-3.99319
0
LINE
8
BLACK
6
CONTINUOUS
10
3.51724
20
-3.87519
11
3.51724
21
-3.98976
0
LINE
8
BLACK
6
CONTINUOUS
10
3.51724
20
-3.98976
11
3.57276
21
-3.98976
0
LINE
8
BLACK
6
CONTINUOUS
10
3.57276
20
-3.98976
11
3.57276
21
-3.87519
0
LINE
8
BLACK
6
CONTINUOUS
10
3.57276
20
-3.87519
11
3.51724
21
-3.87519
0
LINE
8
BLACK
6
CONTINUOUS
10
3.72856
20
-3.99149
11
3.72828
21
-3.9908
0
LINE
8
BLACK
6
CONTINUOUS
10
3.72828
20
-3.9908
11
3.72828
21
-3.87426
0
LINE
8
BLACK
6
CONTINUOUS
10
3.72828
20
-3.87426
11
3.72856
21
-3.87356
0
LINE
8
BLACK
6
CONTINUOUS
10
3.72856
20
-3.87356
11
3.72926
21
-3.87328
0
LINE
8
BLACK
6
CONTINUOUS
10
3.72926
20
-3.87328
11
3.78674
21
-3.87328
0
LINE
8
BLACK
6
CONTINUOUS
10
3.78674
20
-3.87328
11
3.78744
21
-3.87356
0
LINE
8
BLACK
6
CONTINUOUS
10
3.78744
20
-3.87356
11
3.78772
21
-3.87426
0
LINE
8
BLACK
6
CONTINUOUS
10
3.78772
20
-3.87426
11
3.78772
21
-3.9908
0
LINE
8
BLACK
6
CONTINUOUS
10
3.78772
20
-3.9908
11
3.78744
21
-3.99149
0
LINE
8
BLACK
6
CONTINUOUS
10
3.78744
20
-3.99149
11
3.78674
21
-3.99178
0
LINE
8
BLACK
6
CONTINUOUS
10
3.78674
20
-3.99178
11
3.72926
21
-3.99178
0
LINE
8
BLACK
6
CONTINUOUS
10
3.72926
20
-3.99178
11
3.72856
21
-3.99149
0
LINE
8
BLACK
6
CONTINUOUS
10
3.73024
20
-3.87524
11
3.73024
21
-3.98981
0
LINE
8
BLACK
6
CONTINUOUS
10
3.73024
20
-3.98981
11
3.78576
21
-3.98981
0
LINE
8
BLACK
6
CONTINUOUS
10
3.78576
20
-3.98981
11
3.78576
21
-3.87524
0
LINE
8
BLACK
6
CONTINUOUS
10
3.78576
20
-3.87524
11
3.73024
21
-3.87524
0
LINE
8
BLACK
6
CONTINUOUS
10
3.5019
20
-3.85013
11
3.50161
21
-3.84943
0
LINE
8
BLACK
6
CONTINUOUS
10
3.50161
20
-3.84943
11
3.50161
21
-3.70376
0
LINE
8
BLACK
6
CONTINUOUS
10
3.50161
20
-3.70376
11
3.5019
21
-3.70307
0
LINE
8
BLACK
6
CONTINUOUS
10
3.5019
20
-3.70307
11
3.5026
21
-3.70278
0
LINE
8
BLACK
6
CONTINUOUS
10
3.5026
20
-3.70278
11
3.5774
21
-3.70278
0
LINE
8
BLACK
6
CONTINUOUS
10
3.5774
20
-3.70278
11
3.5781
21
-3.70307
0
LINE
8
BLACK
6
CONTINUOUS
10
3.5781
20
-3.70307
11
3.57839
21
-3.70376
0
LINE
8
BLACK
6
CONTINUOUS
10
3.57839
20
-3.70376
11
3.57839
21
-3.84943
0
LINE
8
BLACK
6
CONTINUOUS
10
3.57839
20
-3.84943
11
3.5781
21
-3.85013
0
LINE
8
BLACK
6
CONTINUOUS
10
3.5781
20
-3.85013
11
3.5774
21
-3.85042
0
LINE
8
BLACK
6
CONTINUOUS
10
3.5774
20
-3.85042
11
3.5026
21
-3.85042
0
LINE
8
BLACK
6
CONTINUOUS
10
3.5026
20
-3.85042
11
3.5019
21
-3.85013
0
LINE
8
BLACK
6
CONTINUOUS
10
3.50358
20
-3.70475
11
3.50358
21
-3.84845
0
LINE
8
BLACK
6
CONTINUOUS
10
3.50358
20
-3.84845
11
3.57642
21
-3.84845
0
LINE
8
BLACK
6
CONTINUOUS
10
3.57642
20
-3.84845
11
3.57642
21
-3.70475
0
LINE
8
BLACK
6
CONTINUOUS
10
3.57642
20
-3.70475
11
3.50358
21
-3.70475
0
LINE
8
BLACK
6
CONTINUOUS
10
3.57896
20
-3.79796
11
3.57868
21
-3.79727
0
LINE
8
BLACK
6
CONTINUOUS
10
3.57868
20
-3.79727
11
3.57868
21
-3.68073
0
LINE
8
BLACK
6
CONTINUOUS
10
3.57868
20
-3.68073
11
3.57896
21
-3.68004
0
LINE
8
BLACK
6
CONTINUOUS
10
3.57896
20
-3.68004
11
3.57966
21
-3.67975
0
LINE
8
BLACK
6
CONTINUOUS
10
3.57966
20
-3.67975
11
3.63714
21
-3.67975
0
LINE
8
BLACK
6
CONTINUOUS
10
3.63714
20
-3.67975
11
3.63784
21
-3.68004
0
LINE
8
BLACK
6
CONTINUOUS
10
3.63784
20
-3.68004
11
3.63812
21
-3.68073
0
LINE
8
BLACK
6
CONTINUOUS
10
3.63812
20
-3.68073
11
3.63812
21
-3.79727
0
LINE
8
BLACK
6
CONTINUOUS
10
3.63812
20
-3.79727
11
3.63784
21
-3.79796
0
LINE
8
BLACK
6
CONTINUOUS
10
3.63784
20
-3.79796
11
3.63714
21
-3.79825
0
LINE
8
BLACK
6
CONTINUOUS
10
3.63714
20
-3.79825
11
3.57966
21
-3.79825
0
LINE
8
BLACK
6
CONTINUOUS
10
3.57966
20
-3.79825
11
3.57896
21
-3.79796
0
LINE
8
BLACK
6
CONTINUOUS
10
3.58064
20
-3.68172
11
3.58064
21
-3.79628
0
LINE
8
BLACK
6
CONTINUOUS
10
3.58064
20
-3.79628
11
3.63616
21
-3.79628
0
LINE
8
BLACK
6
CONTINUOUS
10
3.63616
20
-3.79628
11
3.63616
21
-3.68172
0
LINE
8
BLACK
6
CONTINUOUS
10
3.63616
20
-3.68172
11
3.58064
21
-3.68172
0
LINE
8
BLACK
6
CONTINUOUS
10
3.64216
20
-3.79796
11
3.64188
21
-3.79727
0
LINE
8
BLACK
6
CONTINUOUS
10
3.64188
20
-3.79727
11
3.64188
21
-3.68073
0
LINE
8
BLACK
6
CONTINUOUS
10
3.64188
20
-3.68073
11
3.64216
21
-3.68004
0
LINE
8
BLACK
6
CONTINUOUS
10
3.64216
20
-3.68004
11
3.64286
21
-3.67975
0
LINE
8
BLACK
6
CONTINUOUS
10
3.64286
20
-3.67975
11
3.70034
21
-3.67975
0
LINE
8
BLACK
6
CONTINUOUS
10
3.70034
20
-3.67975
11
3.70104
21
-3.68004
0
LINE
8
BLACK
6
CONTINUOUS
10
3.70104
20
-3.68004
11
3.70132
21
-3.68073
0
LINE
8
BLACK
6
CONTINUOUS
10
3.70132
20
-3.68073
11
3.70132
21
-3.79727
0
LINE
8
BLACK
6
CONTINUOUS
10
3.70132
20
-3.79727
11
3.70104
21
-3.79796
0
LINE
8
BLACK
6
CONTINUOUS
10
3.70104
20
-3.79796
11
3.70034
21
-3.79825
0
LINE
8
BLACK
6
CONTINUOUS
10
3.70034
20
-3.79825
11
3.64286
21
-3.79825
0
LINE
8
BLACK
6
CONTINUOUS
10
3.64286
20
-3.79825
11
3.64216
21
-3.79796
0
LINE
8
BLACK
6
CONTINUOUS
10
3.64384
20
-3.68172
11
3.64384
21
-3.79628
0
LINE
8
BLACK
6
CONTINUOUS
10
3.64384
20
-3.79628
11
3.69936
21
-3.79628
0
LINE
8
BLACK
6
CONTINUOUS
10
3.69936
20
-3.79628
11
3.69936
21
-3.68172
0
LINE
8
BLACK
6
CONTINUOUS
10
3.69936
20
-3.68172
11
3.64384
21
-3.68172
0
LINE
8
BLACK
6
CONTINUOUS
10
3.70536
20
-3.79789
11
3.70508
21
-3.7972
0
LINE
8
BLACK
6
CONTINUOUS
10
3.70508
20
-3.7972
11
3.70508
21
-3.68066
0
LINE
8
BLACK
6
CONTINUOUS
10
3.70508
20
-3.68066
11
3.70536
21
-3.67996
0
LINE
8
BLACK
6
CONTINUOUS
10
3.70536
20
-3.67996
11
3.70606
21
-3.67968
0
LINE
8
BLACK
6
CONTINUOUS
10
3.70606
20
-3.67968
11
3.76354
21
-3.67968
0
LINE
8
BLACK
6
CONTINUOUS
10
3.76354
20
-3.67968
11
3.76424
21
-3.67996
0
LINE
8
BLACK
6
CONTINUOUS
10
3.76424
20
-3.67996
11
3.76452
21
-3.68066
0
LINE
8
BLACK
6
CONTINUOUS
10
3.76452
20
-3.68066
11
3.76452
21
-3.7972
0
LINE
8
BLACK
6
CONTINUOUS
10
3.76452
20
-3.7972
11
3.76424
21
-3.79789
0
LINE
8
BLACK
6
CONTINUOUS
10
3.76424
20
-3.79789
11
3.76354
21
-3.79818
0
LINE
8
BLACK
6
CONTINUOUS
10
3.76354
20
-3.79818
11
3.70606
21
-3.79818
0
LINE
8
BLACK
6
CONTINUOUS
10
3.70606
20
-3.79818
11
3.70536
21
-3.79789
0
LINE
8
BLACK
6
CONTINUOUS
10
3.70704
20
-3.68164
11
3.70704
21
-3.79621
0
LINE
8
BLACK
6
CONTINUOUS
10
3.70704
20
-3.79621
11
3.76256
21
-3.79621
0
LINE
8
BLACK
6
CONTINUOUS
10
3.76256
20
-3.79621
11
3.76256
21
-3.68164
0
LINE
8
BLACK
6
CONTINUOUS
10
3.76256
20
-3.68164
11
3.70704
21
-3.68164
0
LINE
8
BLACK
6
CONTINUOUS
10
3.50344
20
-3.53946
11
3.50274
21
-3.53975
0
LINE
8
BLACK
6
CONTINUOUS
10
3.50274
20
-3.53975
11
3.44526
21
-3.53975
0
LINE
8
BLACK
6
CONTINUOUS
10
3.44526
20
-3.53975
11
3.44456
21
-3.53946
0
LINE
8
BLACK
6
CONTINUOUS
10
3.44456
20
-3.53946
11
3.44428
21
-3.53877
0
LINE
8
BLACK
6
CONTINUOUS
10
3.44428
20
-3.53877
11
3.44428
21
-3.32373
0
LINE
8
BLACK
6
CONTINUOUS
10
3.44428
20
-3.32373
11
3.44456
21
-3.32304
0
LINE
8
BLACK
6
CONTINUOUS
10
3.44456
20
-3.32304
11
3.44526
21
-3.32275
0
LINE
8
BLACK
6
CONTINUOUS
10
3.44526
20
-3.32275
11
3.50274
21
-3.32275
0
LINE
8
BLACK
6
CONTINUOUS
10
3.50274
20
-3.32275
11
3.50344
21
-3.32304
0
LINE
8
BLACK
6
CONTINUOUS
10
3.50344
20
-3.32304
11
3.50372
21
-3.32373
0
LINE
8
BLACK
6
CONTINUOUS
10
3.50372
20
-3.32373
11
3.50372
21
-3.53877
0
LINE
8
BLACK
6
CONTINUOUS
10
3.50372
20
-3.53877
11
3.50344
21
-3.53946
0
LINE
8
BLACK
6
CONTINUOUS
10
3.44624
20
-3.44125
11
3.44624
21
-3.53778
0
LINE
8
BLACK
6
CONTINUOUS
10
3.44624
20
-3.53778
11
3.50176
21
-3.53778
0
LINE
8
BLACK
6
CONTINUOUS
10
3.50176
20
-3.53778
11
3.50176
21
-3.44125
0
LINE
8
BLACK
6
CONTINUOUS
10
3.50176
20
-3.44125
11
3.44624
21
-3.44125
0
LINE
8
BLACK
6
CONTINUOUS
10
3.44624
20
-3.42322
11
3.44624
21
-3.43928
0
LINE
8
BLACK
6
CONTINUOUS
10
3.44624
20
-3.43928
11
3.50176
21
-3.43928
0
LINE
8
BLACK
6
CONTINUOUS
10
3.50176
20
-3.43928
11
3.50176
21
-3.42322
0
LINE
8
BLACK
6
CONTINUOUS
10
3.50176
20
-3.42322
11
3.44624
21
-3.42322
0
LINE
8
BLACK
6
CONTINUOUS
10
3.44624
20
-3.32472
11
3.44624
21
-3.42125
0
LINE
8
BLACK
6
CONTINUOUS
10
3.44624
20
-3.42125
11
3.50176
21
-3.42125
0
LINE
8
BLACK
6
CONTINUOUS
10
3.50176
20
-3.42125
11
3.50176
21
-3.32472
0
LINE
8
BLACK
6
CONTINUOUS
10
3.50176
20
-3.32472
11
3.44624
21
-3.32472
0
LINE
8
BLACK
6
CONTINUOUS
10
3.52096
20
-3.17956
11
3.52068
21
-3.17887
0
LINE
8
BLACK
6
CONTINUOUS
10
3.52068
20
-3.17887
11
3.52068
21
-3.06233
0
LINE
8
BLACK
6
CONTINUOUS
10
3.52068
20
-3.06233
11
3.52096
21
-3.06164
0
LINE
8
BLACK
6
CONTINUOUS
10
3.52096
20
-3.06164
11
3.52166
21
-3.06135
0
LINE
8
BLACK
6
CONTINUOUS
10
3.52166
20
-3.06135
11
3.57914
21
-3.06135
0
LINE
8
BLACK
6
CONTINUOUS
10
3.57914
20
-3.06135
11
3.57984
21
-3.06164
0
LINE
8
BLACK
6
CONTINUOUS
10
3.57984
20
-3.06164
11
3.58012
21
-3.06233
0
LINE
8
BLACK
6
CONTINUOUS
10
3.58012
20
-3.06233
11
3.58012
21
-3.17887
0
LINE
8
BLACK
6
CONTINUOUS
10
3.58012
20
-3.17887
11
3.57984
21
-3.17956
0
LINE
8
BLACK
6
CONTINUOUS
10
3.57984
20
-3.17956
11
3.57914
21
-3.17985
0
LINE
8
BLACK
6
CONTINUOUS
10
3.57914
20
-3.17985
11
3.52166
21
-3.17985
0
LINE
8
BLACK
6
CONTINUOUS
10
3.52166
20
-3.17985
11
3.52096
21
-3.17956
0
LINE
8
BLACK
6
CONTINUOUS
10
3.52264
20
-3.06332
11
3.52264
21
-3.17788
0
LINE
8
BLACK
6
CONTINUOUS
10
3.52264
20
-3.17788
11
3.57816
21
-3.17788
0
LINE
8
BLACK
6
CONTINUOUS
10
3.57816
20
-3.17788
11
3.57816
21
-3.06332
0
LINE
8
BLACK
6
CONTINUOUS
10
3.57816
20
-3.06332
11
3.52264
21
-3.06332
0
LINE
8
BLACK
6
CONTINUOUS
10
4.51431
20
-2.74967
11
4.51431
21
-3.03313
0
LINE
8
BLACK
6
CONTINUOUS
10
4.51431
20
-3.03313
11
4.51402
21
-3.03383
0
LINE
8
BLACK
6
CONTINUOUS
10
4.51402
20
-3.03383
11
4.51333
21
-3.03412
0
LINE
8
BLACK
6
CONTINUOUS
10
4.51333
20
-3.03412
11
4.16687
21
-3.03412
0
LINE
8
BLACK
6
CONTINUOUS
10
4.16687
20
-3.03412
11
4.16618
21
-3.03383
0
LINE
8
BLACK
6
CONTINUOUS
10
4.16618
20
-3.03383
11
4.16589
21
-3.03313
0
LINE
8
BLACK
6
CONTINUOUS
10
4.16589
20
-3.03313
11
4.16589
21
-2.75672
0
LINE
8
BLACK
6
CONTINUOUS
10
4.16589
20
-2.75672
11
4.12572
21
-2.75672
0
LINE
8
BLACK
6
CONTINUOUS
10
4.12572
20
-2.75672
11
4.12572
21
-2.8385
0
LINE
8
BLACK
6
CONTINUOUS
10
4.12572
20
-2.8385
11
4.12544
21
-2.83919
0
LINE
8
BLACK
6
CONTINUOUS
10
4.12544
20
-2.83919
11
4.12474
21
-2.83948
0
LINE
8
BLACK
6
CONTINUOUS
10
4.12474
20
-2.83948
11
4.06726
21
-2.83948
0
LINE
8
BLACK
6
CONTINUOUS
10
4.06726
20
-2.83948
11
4.06656
21
-2.83919
0
LINE
8
BLACK
6
CONTINUOUS
10
4.06656
20
-2.83919
11
4.06628
21
-2.8385
0
LINE
8
BLACK
6
CONTINUOUS
10
4.06628
20
-2.8385
11
4.06628
21
-2.72196
0
LINE
8
BLACK
6
CONTINUOUS
10
4.06628
20
-2.72196
11
4.06656
21
-2.72126
0
LINE
8
BLACK
6
CONTINUOUS
10
4.06656
20
-2.72126
11
4.06726
21
-2.72098
0
LINE
8
BLACK
6
CONTINUOUS
10
4.06726
20
-2.72098
11
4.12448
21
-2.72098
0
LINE
8
BLACK
6
CONTINUOUS
10
4.12448
20
-2.72098
11
4.12448
21
-2.69826
0
LINE
8
BLACK
6
CONTINUOUS
10
4.12448
20
-2.69826
11
4.12476
21
-2.69756
0
LINE
8
BLACK
6
CONTINUOUS
10
4.12476
20
-2.69756
11
4.12546
21
-2.69728
0
LINE
8
BLACK
6
CONTINUOUS
10
4.12546
20
-2.69728
11
4.242
21
-2.69728
0
LINE
8
BLACK
6
CONTINUOUS
10
4.242
20
-2.69728
11
4.24269
21
-2.69756
0
LINE
8
BLACK
6
CONTINUOUS
10
4.24269
20
-2.69756
11
4.24298
21
-2.69826
0
LINE
8
BLACK
6
CONTINUOUS
10
4.24298
20
-2.69826
11
4.24298
21
-2.74868
0
LINE
8
BLACK
6
CONTINUOUS
10
4.24298
20
-2.74868
11
4.51333
21
-2.74868
0
LINE
8
BLACK
6
CONTINUOUS
10
4.51333
20
-2.74868
11
4.51402
21
-2.74897
0
LINE
8
BLACK
6
CONTINUOUS
10
4.51402
20
-2.74897
11
4.51431
21
-2.74967
0
LINE
8
BLACK
6
CONTINUOUS
10
4.16786
20
-3.03215
11
4.51234
21
-3.03215
0
LINE
8
BLACK
6
CONTINUOUS
10
4.51234
20
-3.03215
11
4.51234
21
-2.75065
0
LINE
8
BLACK
6
CONTINUOUS
10
4.51234
20
-2.75065
11
4.24298
21
-2.75065
0
LINE
8
BLACK
6
CONTINUOUS
10
4.24298
20
-2.75065
11
4.24298
21
-2.75574
0
LINE
8
BLACK
6
CONTINUOUS
10
4.24298
20
-2.75574
11
4.24269
21
-2.75644
0
LINE
8
BLACK
6
CONTINUOUS
10
4.24269
20
-2.75644
11
4.242
21
-2.75672
0
LINE
8
BLACK
6
CONTINUOUS
10
4.242
20
-2.75672
11
4.16786
21
-2.75672
0
LINE
8
BLACK
6
CONTINUOUS
10
4.16786
20
-2.75672
11
4.16786
21
-3.03215
0
LINE
8
BLACK
6
CONTINUOUS
10
4.06824
20
-2.72294
11
4.06824
21
-2.83751
0
LINE
8
BLACK
6
CONTINUOUS
10
4.06824
20
-2.83751
11
4.12376
21
-2.83751
0
LINE
8
BLACK
6
CONTINUOUS
10
4.12376
20
-2.83751
11
4.12376
21
-2.72294
0
LINE
8
BLACK
6
CONTINUOUS
10
4.12376
20
-2.72294
11
4.06824
21
-2.72294
0
LINE
8
BLACK
6
CONTINUOUS
10
4.12644
20
-2.69924
11
4.12644
21
-2.75476
0
LINE
8
BLACK
6
CONTINUOUS
10
4.12644
20
-2.75476
11
4.16589
21
-2.75476
0
LINE
8
BLACK
6
CONTINUOUS
10
4.16589
20
-2.75476
11
4.16589
21
-2.74967
0
LINE
8
BLACK
6
CONTINUOUS
10
4.16589
20
-2.74967
11
4.16618
21
-2.74897
0
LINE
8
BLACK
6
CONTINUOUS
10
4.16618
20
-2.74897
11
4.16687
21
-2.74868
0
LINE
8
BLACK
6
CONTINUOUS
10
4.16687
20
-2.74868
11
4.24101
21
-2.74868
0
LINE
8
BLACK
6
CONTINUOUS
10
4.24101
20
-2.74868
11
4.24101
21
-2.69924
0
LINE
8
BLACK
6
CONTINUOUS
10
4.24101
20
-2.69924
11
4.12644
21
-2.69924
0
LINE
8
BLACK
6
CONTINUOUS
10
4.16786
20
-2.75065
11
4.16786
21
-2.75476
0
LINE
8
BLACK
6
CONTINUOUS
10
4.16786
20
-2.75476
11
4.24101
21
-2.75476
0
LINE
8
BLACK
6
CONTINUOUS
10
4.24101
20
-2.75476
11
4.24101
21
-2.75065
0
LINE
8
BLACK
6
CONTINUOUS
10
4.24101
20
-2.75065
11
4.16786
21
-2.75065
0
LINE
8
BLACK
6
CONTINUOUS
10
3.66259
20
-3.02678
11
3.6623
21
-3.02608
0
LINE
8
BLACK
6
CONTINUOUS
10
3.6623
20
-3.02608
11
3.6623
21
-2.97325
0
LINE
8
BLACK
6
CONTINUOUS
10
3.6623
20
-2.97325
11
3.60976
21
-2.97325
0
LINE
8
BLACK
6
CONTINUOUS
10
3.60976
20
-2.97325
11
3.60906
21
-2.97296
0
LINE
8
BLACK
6
CONTINUOUS
10
3.60906
20
-2.97296
11
3.60878
21
-2.97227
0
LINE
8
BLACK
6
CONTINUOUS
10
3.60878
20
-2.97227
11
3.60878
21
-2.85573
0
LINE
8
BLACK
6
CONTINUOUS
10
3.60878
20
-2.85573
11
3.60906
21
-2.85504
0
LINE
8
BLACK
6
CONTINUOUS
10
3.60906
20
-2.85504
11
3.60976
21
-2.85475
0
LINE
8
BLACK
6
CONTINUOUS
10
3.60976
20
-2.85475
11
3.6623
21
-2.85475
0
LINE
8
BLACK
6
CONTINUOUS
10
3.6623
20
-2.85475
11
3.6623
21
-2.74262
0
LINE
8
BLACK
6
CONTINUOUS
10
3.6623
20
-2.74262
11
3.66259
21
-2.74192
0
LINE
8
BLACK
6
CONTINUOUS
10
3.66259
20
-2.74192
11
3.66329
21
-2.74163
0
LINE
8
BLACK
6
CONTINUOUS
10
3.66329
20
-2.74163
11
4.00974
21
-2.74163
0
LINE
8
BLACK
6
CONTINUOUS
10
4.00974
20
-2.74163
11
4.01044
21
-2.74192
0
LINE
8
BLACK
6
CONTINUOUS
10
4.01044
20
-2.74192
11
4.01073
21
-2.74262
0
LINE
8
BLACK
6
CONTINUOUS
10
4.01073
20
-2.74262
11
4.01073
21
-3.02608
0
LINE
8
BLACK
6
CONTINUOUS
10
4.01073
20
-3.02608
11
4.01044
21
-3.02678
0
LINE
8
BLACK
6
CONTINUOUS
10
4.01044
20
-3.02678
11
4.00974
21
-3.02707
0
LINE
8
BLACK
6
CONTINUOUS
10
4.00974
20
-3.02707
11
3.66329
21
-3.02707
0
LINE
8
BLACK
6
CONTINUOUS
10
3.66329
20
-3.02707
11
3.66259
21
-3.02678
0
LINE
8
BLACK
6
CONTINUOUS
10
3.66822
20
-2.85573
11
3.66822
21
-2.97227
0
LINE
8
BLACK
6
CONTINUOUS
10
3.66822
20
-2.97227
11
3.66794
21
-2.97296
0
LINE
8
BLACK
6
CONTINUOUS
10
3.66794
20
-2.97296
11
3.66724
21
-2.97325
0
LINE
8
BLACK
6
CONTINUOUS
10
3.66724
20
-2.97325
11
3.66427
21
-2.97325
0
LINE
8
BLACK
6
CONTINUOUS
10
3.66427
20
-2.97325
11
3.66427
21
-3.0251
0
LINE
8
BLACK
6
CONTINUOUS
10
3.66427
20
-3.0251
11
4.00876
21
-3.0251
0
LINE
8
BLACK
6
CONTINUOUS
10
4.00876
20
-3.0251
11
4.00876
21
-2.7436
0
LINE
8
BLACK
6
CONTINUOUS
10
4.00876
20
-2.7436
11
3.66427
21
-2.7436
0
LINE
8
BLACK
6
CONTINUOUS
10
3.66427
20
-2.7436
11
3.66427
21
-2.85475
0
LINE
8
BLACK
6
CONTINUOUS
10
3.66427
20
-2.85475
11
3.66724
21
-2.85475
0
LINE
8
BLACK
6
CONTINUOUS
10
3.66724
20
-2.85475
11
3.66794
21
-2.85504
0
LINE
8
BLACK
6
CONTINUOUS
10
3.66794
20
-2.85504
11
3.66822
21
-2.85573
0
LINE
8
BLACK
6
CONTINUOUS
10
3.61074
20
-2.85672
11
3.61074
21
-2.97128
0
LINE
8
BLACK
6
CONTINUOUS
10
3.61074
20
-2.97128
11
3.6623
21
-2.97128
0
LINE
8
BLACK
6
CONTINUOUS
10
3.6623
20
-2.97128
11
3.6623
21
-2.85672
0
LINE
8
BLACK
6
CONTINUOUS
10
3.6623
20
-2.85672
11
3.61074
21
-2.85672
0
LINE
8
BLACK
6
CONTINUOUS
10
3.66427
20
-2.85672
11
3.66427
21
-2.97128
0
LINE
8
BLACK
6
CONTINUOUS
10
3.66427
20
-2.97128
11
3.66626
21
-2.97128
0
LINE
8
BLACK
6
CONTINUOUS
10
3.66626
20
-2.97128
11
3.66626
21
-2.85672
0
LINE
8
BLACK
6
CONTINUOUS
10
3.66626
20
-2.85672
11
3.66427
21
-2.85672
0
LINE
8
BLACK
6
CONTINUOUS
10
4.05672
20
-2.99813
11
4.05643
21
-2.99743
0
LINE
8
BLACK
6
CONTINUOUS
10
4.05643
20
-2.99743
11
4.05643
21
-2.86357
0
LINE
8
BLACK
6
CONTINUOUS
10
4.05643
20
-2.86357
11
4.05672
21
-2.86287
0
LINE
8
BLACK
6
CONTINUOUS
10
4.05672
20
-2.86287
11
4.05742
21
-2.86259
0
LINE
8
BLACK
6
CONTINUOUS
10
4.05742
20
-2.86259
11
4.13458
21
-2.86259
0
LINE
8
BLACK
6
CONTINUOUS
10
4.13458
20
-2.86259
11
4.13528
21
-2.86287
0
LINE
8
BLACK
6
CONTINUOUS
10
4.13528
20
-2.86287
11
4.13557
21
-2.86357
0
LINE
8
BLACK
6
CONTINUOUS
10
4.13557
20
-2.86357
11
4.13557
21
-2.99743
0
LINE
8
BLACK
6
CONTINUOUS
10
4.13557
20
-2.99743
11
4.13528
21
-2.99813
0
LINE
8
BLACK
6
CONTINUOUS
10
4.13528
20
-2.99813
11
4.13458
21
-2.99841
0
LINE
8
BLACK
6
CONTINUOUS
10
4.13458
20
-2.99841
11
4.05742
21
-2.99841
0
LINE
8
BLACK
6
CONTINUOUS
10
4.05742
20
-2.99841
11
4.05672
21
-2.99813
0
LINE
8
BLACK
6
CONTINUOUS
10
4.0584
20
-2.86456
11
4.0584
21
-2.99644
0
LINE
8
BLACK
6
CONTINUOUS
10
4.0584
20
-2.99644
11
4.1336
21
-2.99644
0
LINE
8
BLACK
6
CONTINUOUS
10
4.1336
20
-2.99644
11
4.1336
21
-2.86456
0
LINE
8
BLACK
6
CONTINUOUS
10
4.1336
20
-2.86456
11
4.0584
21
-2.86456
0
LINE
8
BLACK
6
CONTINUOUS
10
3.52472
20
-2.99213
11
3.52443
21
-2.99143
0
LINE
8
BLACK
6
CONTINUOUS
10
3.52443
20
-2.99143
11
3.52443
21
-2.85757
0
LINE
8
BLACK
6
CONTINUOUS
10
3.52443
20
-2.85757
11
3.52472
21
-2.85687
0
LINE
8
BLACK
6
CONTINUOUS
10
3.52472
20
-2.85687
11
3.52542
21
-2.85659
0
LINE
8
BLACK
6
CONTINUOUS
10
3.52542
20
-2.85659
11
3.60258
21
-2.85659
0
LINE
8
BLACK
6
CONTINUOUS
10
3.60258
20
-2.85659
11
3.60328
21
-2.85687
0
LINE
8
BLACK
6
CONTINUOUS
10
3.60328
20
-2.85687
11
3.60357
21
-2.85757
0
LINE
8
BLACK
6
CONTINUOUS
10
3.60357
20
-2.85757
11
3.60357
21
-2.99143
0
LINE
8
BLACK
6
CONTINUOUS
10
3.60357
20
-2.99143
11
3.60328
21
-2.99213
0
LINE
8
BLACK
6
CONTINUOUS
10
3.60328
20
-2.99213
11
3.60258
21
-2.99241
0
LINE
8
BLACK
6
CONTINUOUS
10
3.60258
20
-2.99241
11
3.52542
21
-2.99241
0
LINE
8
BLACK
6
CONTINUOUS
10
3.52542
20
-2.99241
11
3.52472
21
-2.99213
0
LINE
8
BLACK
6
CONTINUOUS
10
3.5264
20
-2.85856
11
3.5264
21
-2.99044
0
LINE
8
BLACK
6
CONTINUOUS
10
3.5264
20
-2.99044
11
3.6016
21
-2.99044
0
LINE
8
BLACK
6
CONTINUOUS
10
3.6016
20
-2.99044
11
3.6016
21
-2.85856
0
LINE
8
BLACK
6
CONTINUOUS
10
3.6016
20
-2.85856
11
3.5264
21
-2.85856
0
LINE
8
BLACK
6
CONTINUOUS
10
3.53704
20
-2.82344
11
3.53675
21
-2.82274
0
LINE
8
BLACK
6
CONTINUOUS
10
3.53675
20
-2.82274
11
3.53675
21
-2.76526
0
LINE
8
BLACK
6
CONTINUOUS
10
3.53675
20
-2.76526
11
3.53704
21
-2.76456
0
LINE
8
BLACK
6
CONTINUOUS
10
3.53704
20
-2.76456
11
3.53773
21
-2.76428
0
LINE
8
BLACK
6
CONTINUOUS
10
3.53773
20
-2.76428
11
3.65427
21
-2.76428
0
LINE
8
BLACK
6
CONTINUOUS
10
3.65427
20
-2.76428
11
3.65496
21
-2.76456
0
LINE
8
BLACK
6
CONTINUOUS
10
3.65496
20
-2.76456
11
3.65525
21
-2.76526
0
LINE
8
BLACK
6
CONTINUOUS
10
3.65525
20
-2.76526
11
3.65525
21
-2.82274
0
LINE
8
BLACK
6
CONTINUOUS
10
3.65525
20
-2.82274
11
3.65496
21
-2.82344
0
LINE
8
BLACK
6
CONTINUOUS
10
3.65496
20
-2.82344
11
3.65427
21
-2.82372
0
LINE
8
BLACK
6
CONTINUOUS
10
3.65427
20
-2.82372
11
3.53773
21
-2.82372
0
LINE
8
BLACK
6
CONTINUOUS
10
3.53773
20
-2.82372
11
3.53704
21
-2.82344
0
LINE
8
BLACK
6
CONTINUOUS
10
3.53872
20
-2.76624
11
3.53872
21
-2.82176
0
LINE
8
BLACK
6
CONTINUOUS
10
3.53872
20
-2.82176
11
3.65328
21
-2.82176
0
LINE
8
BLACK
6
CONTINUOUS
10
3.65328
20
-2.82176
11
3.65328
21
-2.76624
0
LINE
8
BLACK
6
CONTINUOUS
10
3.65328
20
-2.76624
11
3.53872
21
-2.76624
  0
ENDSEC
  0
EOF
