%TF.GenerationSoftware,KiCad,Pcbnew,9.0.1+1*%
%TF.CreationDate,2025-10-24T14:20:15+00:00*%
%TF.ProjectId,ADCoctoSPI01,4144436f-6374-46f5-9350-4930312e6b69,rev?*%
%TF.SameCoordinates,Original*%
%TF.FileFunction,Legend,Bot*%
%TF.FilePolarity,Positive*%
%FSLAX46Y46*%
G04 Gerber Fmt 4.6, Leading zero omitted, Abs format (unit mm)*
G04 Created by KiCad (PCBNEW 9.0.1+1) date 2025-10-24 14:20:15*
%MOMM*%
%LPD*%
G01*
G04 APERTURE LIST*
%ADD10C,0.150000*%
%ADD11C,0.100000*%
%ADD12C,0.120000*%
G04 APERTURE END LIST*
D10*
X87200000Y-107300000D02*
X90200000Y-106900000D01*
X88700000Y-109100000D02*
X91900000Y-108400000D01*
X98361904Y-77217339D02*
X98361904Y-78026862D01*
X98361904Y-78026862D02*
X98314285Y-78122100D01*
X98314285Y-78122100D02*
X98266666Y-78169720D01*
X98266666Y-78169720D02*
X98171428Y-78217339D01*
X98171428Y-78217339D02*
X97980952Y-78217339D01*
X97980952Y-78217339D02*
X97885714Y-78169720D01*
X97885714Y-78169720D02*
X97838095Y-78122100D01*
X97838095Y-78122100D02*
X97790476Y-78026862D01*
X97790476Y-78026862D02*
X97790476Y-77217339D01*
X97361904Y-77312577D02*
X97314285Y-77264958D01*
X97314285Y-77264958D02*
X97219047Y-77217339D01*
X97219047Y-77217339D02*
X96980952Y-77217339D01*
X96980952Y-77217339D02*
X96885714Y-77264958D01*
X96885714Y-77264958D02*
X96838095Y-77312577D01*
X96838095Y-77312577D02*
X96790476Y-77407815D01*
X96790476Y-77407815D02*
X96790476Y-77503053D01*
X96790476Y-77503053D02*
X96838095Y-77645910D01*
X96838095Y-77645910D02*
X97409523Y-78217339D01*
X97409523Y-78217339D02*
X96790476Y-78217339D01*
X111000444Y-77396379D02*
X111000444Y-78205902D01*
X111000444Y-78205902D02*
X110952825Y-78301140D01*
X110952825Y-78301140D02*
X110905206Y-78348760D01*
X110905206Y-78348760D02*
X110809968Y-78396379D01*
X110809968Y-78396379D02*
X110619492Y-78396379D01*
X110619492Y-78396379D02*
X110524254Y-78348760D01*
X110524254Y-78348760D02*
X110476635Y-78301140D01*
X110476635Y-78301140D02*
X110429016Y-78205902D01*
X110429016Y-78205902D02*
X110429016Y-77396379D01*
X110048063Y-77396379D02*
X109429016Y-77396379D01*
X109429016Y-77396379D02*
X109762349Y-77777331D01*
X109762349Y-77777331D02*
X109619492Y-77777331D01*
X109619492Y-77777331D02*
X109524254Y-77824950D01*
X109524254Y-77824950D02*
X109476635Y-77872569D01*
X109476635Y-77872569D02*
X109429016Y-77967807D01*
X109429016Y-77967807D02*
X109429016Y-78205902D01*
X109429016Y-78205902D02*
X109476635Y-78301140D01*
X109476635Y-78301140D02*
X109524254Y-78348760D01*
X109524254Y-78348760D02*
X109619492Y-78396379D01*
X109619492Y-78396379D02*
X109905206Y-78396379D01*
X109905206Y-78396379D02*
X110000444Y-78348760D01*
X110000444Y-78348760D02*
X110048063Y-78301140D01*
X108754819Y-109593142D02*
X108278628Y-109259809D01*
X108754819Y-109021714D02*
X107754819Y-109021714D01*
X107754819Y-109021714D02*
X107754819Y-109402666D01*
X107754819Y-109402666D02*
X107802438Y-109497904D01*
X107802438Y-109497904D02*
X107850057Y-109545523D01*
X107850057Y-109545523D02*
X107945295Y-109593142D01*
X107945295Y-109593142D02*
X108088152Y-109593142D01*
X108088152Y-109593142D02*
X108183390Y-109545523D01*
X108183390Y-109545523D02*
X108231009Y-109497904D01*
X108231009Y-109497904D02*
X108278628Y-109402666D01*
X108278628Y-109402666D02*
X108278628Y-109021714D01*
X108754819Y-110545523D02*
X108754819Y-109974095D01*
X108754819Y-110259809D02*
X107754819Y-110259809D01*
X107754819Y-110259809D02*
X107897676Y-110164571D01*
X107897676Y-110164571D02*
X107992914Y-110069333D01*
X107992914Y-110069333D02*
X108040533Y-109974095D01*
X108754819Y-111021714D02*
X108754819Y-111212190D01*
X108754819Y-111212190D02*
X108707200Y-111307428D01*
X108707200Y-111307428D02*
X108659580Y-111355047D01*
X108659580Y-111355047D02*
X108516723Y-111450285D01*
X108516723Y-111450285D02*
X108326247Y-111497904D01*
X108326247Y-111497904D02*
X107945295Y-111497904D01*
X107945295Y-111497904D02*
X107850057Y-111450285D01*
X107850057Y-111450285D02*
X107802438Y-111402666D01*
X107802438Y-111402666D02*
X107754819Y-111307428D01*
X107754819Y-111307428D02*
X107754819Y-111116952D01*
X107754819Y-111116952D02*
X107802438Y-111021714D01*
X107802438Y-111021714D02*
X107850057Y-110974095D01*
X107850057Y-110974095D02*
X107945295Y-110926476D01*
X107945295Y-110926476D02*
X108183390Y-110926476D01*
X108183390Y-110926476D02*
X108278628Y-110974095D01*
X108278628Y-110974095D02*
X108326247Y-111021714D01*
X108326247Y-111021714D02*
X108373866Y-111116952D01*
X108373866Y-111116952D02*
X108373866Y-111307428D01*
X108373866Y-111307428D02*
X108326247Y-111402666D01*
X108326247Y-111402666D02*
X108278628Y-111450285D01*
X108278628Y-111450285D02*
X108183390Y-111497904D01*
X89204979Y-78620382D02*
X88728788Y-78287049D01*
X89204979Y-78048954D02*
X88204979Y-78048954D01*
X88204979Y-78048954D02*
X88204979Y-78429906D01*
X88204979Y-78429906D02*
X88252598Y-78525144D01*
X88252598Y-78525144D02*
X88300217Y-78572763D01*
X88300217Y-78572763D02*
X88395455Y-78620382D01*
X88395455Y-78620382D02*
X88538312Y-78620382D01*
X88538312Y-78620382D02*
X88633550Y-78572763D01*
X88633550Y-78572763D02*
X88681169Y-78525144D01*
X88681169Y-78525144D02*
X88728788Y-78429906D01*
X88728788Y-78429906D02*
X88728788Y-78048954D01*
X89204979Y-79572763D02*
X89204979Y-79001335D01*
X89204979Y-79287049D02*
X88204979Y-79287049D01*
X88204979Y-79287049D02*
X88347836Y-79191811D01*
X88347836Y-79191811D02*
X88443074Y-79096573D01*
X88443074Y-79096573D02*
X88490693Y-79001335D01*
X89204979Y-80525144D02*
X89204979Y-79953716D01*
X89204979Y-80239430D02*
X88204979Y-80239430D01*
X88204979Y-80239430D02*
X88347836Y-80144192D01*
X88347836Y-80144192D02*
X88443074Y-80048954D01*
X88443074Y-80048954D02*
X88490693Y-79953716D01*
X87354819Y-84357142D02*
X86878628Y-84023809D01*
X87354819Y-83785714D02*
X86354819Y-83785714D01*
X86354819Y-83785714D02*
X86354819Y-84166666D01*
X86354819Y-84166666D02*
X86402438Y-84261904D01*
X86402438Y-84261904D02*
X86450057Y-84309523D01*
X86450057Y-84309523D02*
X86545295Y-84357142D01*
X86545295Y-84357142D02*
X86688152Y-84357142D01*
X86688152Y-84357142D02*
X86783390Y-84309523D01*
X86783390Y-84309523D02*
X86831009Y-84261904D01*
X86831009Y-84261904D02*
X86878628Y-84166666D01*
X86878628Y-84166666D02*
X86878628Y-83785714D01*
X87354819Y-85309523D02*
X87354819Y-84738095D01*
X87354819Y-85023809D02*
X86354819Y-85023809D01*
X86354819Y-85023809D02*
X86497676Y-84928571D01*
X86497676Y-84928571D02*
X86592914Y-84833333D01*
X86592914Y-84833333D02*
X86640533Y-84738095D01*
X86450057Y-85690476D02*
X86402438Y-85738095D01*
X86402438Y-85738095D02*
X86354819Y-85833333D01*
X86354819Y-85833333D02*
X86354819Y-86071428D01*
X86354819Y-86071428D02*
X86402438Y-86166666D01*
X86402438Y-86166666D02*
X86450057Y-86214285D01*
X86450057Y-86214285D02*
X86545295Y-86261904D01*
X86545295Y-86261904D02*
X86640533Y-86261904D01*
X86640533Y-86261904D02*
X86783390Y-86214285D01*
X86783390Y-86214285D02*
X87354819Y-85642857D01*
X87354819Y-85642857D02*
X87354819Y-86261904D01*
X87424819Y-88032142D02*
X86948628Y-87698809D01*
X87424819Y-87460714D02*
X86424819Y-87460714D01*
X86424819Y-87460714D02*
X86424819Y-87841666D01*
X86424819Y-87841666D02*
X86472438Y-87936904D01*
X86472438Y-87936904D02*
X86520057Y-87984523D01*
X86520057Y-87984523D02*
X86615295Y-88032142D01*
X86615295Y-88032142D02*
X86758152Y-88032142D01*
X86758152Y-88032142D02*
X86853390Y-87984523D01*
X86853390Y-87984523D02*
X86901009Y-87936904D01*
X86901009Y-87936904D02*
X86948628Y-87841666D01*
X86948628Y-87841666D02*
X86948628Y-87460714D01*
X87424819Y-88984523D02*
X87424819Y-88413095D01*
X87424819Y-88698809D02*
X86424819Y-88698809D01*
X86424819Y-88698809D02*
X86567676Y-88603571D01*
X86567676Y-88603571D02*
X86662914Y-88508333D01*
X86662914Y-88508333D02*
X86710533Y-88413095D01*
X86424819Y-89317857D02*
X86424819Y-89936904D01*
X86424819Y-89936904D02*
X86805771Y-89603571D01*
X86805771Y-89603571D02*
X86805771Y-89746428D01*
X86805771Y-89746428D02*
X86853390Y-89841666D01*
X86853390Y-89841666D02*
X86901009Y-89889285D01*
X86901009Y-89889285D02*
X86996247Y-89936904D01*
X86996247Y-89936904D02*
X87234342Y-89936904D01*
X87234342Y-89936904D02*
X87329580Y-89889285D01*
X87329580Y-89889285D02*
X87377200Y-89841666D01*
X87377200Y-89841666D02*
X87424819Y-89746428D01*
X87424819Y-89746428D02*
X87424819Y-89460714D01*
X87424819Y-89460714D02*
X87377200Y-89365476D01*
X87377200Y-89365476D02*
X87329580Y-89317857D01*
D11*
X91764895Y-91885714D02*
X91383942Y-91619047D01*
X91764895Y-91428571D02*
X90964895Y-91428571D01*
X90964895Y-91428571D02*
X90964895Y-91733333D01*
X90964895Y-91733333D02*
X91002990Y-91809523D01*
X91002990Y-91809523D02*
X91041085Y-91847618D01*
X91041085Y-91847618D02*
X91117276Y-91885714D01*
X91117276Y-91885714D02*
X91231561Y-91885714D01*
X91231561Y-91885714D02*
X91307752Y-91847618D01*
X91307752Y-91847618D02*
X91345847Y-91809523D01*
X91345847Y-91809523D02*
X91383942Y-91733333D01*
X91383942Y-91733333D02*
X91383942Y-91428571D01*
X91764895Y-92647618D02*
X91764895Y-92190475D01*
X91764895Y-92419047D02*
X90964895Y-92419047D01*
X90964895Y-92419047D02*
X91079180Y-92342856D01*
X91079180Y-92342856D02*
X91155371Y-92266666D01*
X91155371Y-92266666D02*
X91193466Y-92190475D01*
X90964895Y-93333333D02*
X90964895Y-93180952D01*
X90964895Y-93180952D02*
X91002990Y-93104761D01*
X91002990Y-93104761D02*
X91041085Y-93066666D01*
X91041085Y-93066666D02*
X91155371Y-92990476D01*
X91155371Y-92990476D02*
X91307752Y-92952380D01*
X91307752Y-92952380D02*
X91612514Y-92952380D01*
X91612514Y-92952380D02*
X91688704Y-92990476D01*
X91688704Y-92990476D02*
X91726800Y-93028571D01*
X91726800Y-93028571D02*
X91764895Y-93104761D01*
X91764895Y-93104761D02*
X91764895Y-93257142D01*
X91764895Y-93257142D02*
X91726800Y-93333333D01*
X91726800Y-93333333D02*
X91688704Y-93371428D01*
X91688704Y-93371428D02*
X91612514Y-93409523D01*
X91612514Y-93409523D02*
X91422038Y-93409523D01*
X91422038Y-93409523D02*
X91345847Y-93371428D01*
X91345847Y-93371428D02*
X91307752Y-93333333D01*
X91307752Y-93333333D02*
X91269657Y-93257142D01*
X91269657Y-93257142D02*
X91269657Y-93104761D01*
X91269657Y-93104761D02*
X91307752Y-93028571D01*
X91307752Y-93028571D02*
X91345847Y-92990476D01*
X91345847Y-92990476D02*
X91422038Y-92952380D01*
X93464895Y-91885714D02*
X93083942Y-91619047D01*
X93464895Y-91428571D02*
X92664895Y-91428571D01*
X92664895Y-91428571D02*
X92664895Y-91733333D01*
X92664895Y-91733333D02*
X92702990Y-91809523D01*
X92702990Y-91809523D02*
X92741085Y-91847618D01*
X92741085Y-91847618D02*
X92817276Y-91885714D01*
X92817276Y-91885714D02*
X92931561Y-91885714D01*
X92931561Y-91885714D02*
X93007752Y-91847618D01*
X93007752Y-91847618D02*
X93045847Y-91809523D01*
X93045847Y-91809523D02*
X93083942Y-91733333D01*
X93083942Y-91733333D02*
X93083942Y-91428571D01*
X93464895Y-92647618D02*
X93464895Y-92190475D01*
X93464895Y-92419047D02*
X92664895Y-92419047D01*
X92664895Y-92419047D02*
X92779180Y-92342856D01*
X92779180Y-92342856D02*
X92855371Y-92266666D01*
X92855371Y-92266666D02*
X92893466Y-92190475D01*
X92664895Y-92914285D02*
X92664895Y-93447619D01*
X92664895Y-93447619D02*
X93464895Y-93104761D01*
D10*
X97054819Y-94257142D02*
X96578628Y-93923809D01*
X97054819Y-93685714D02*
X96054819Y-93685714D01*
X96054819Y-93685714D02*
X96054819Y-94066666D01*
X96054819Y-94066666D02*
X96102438Y-94161904D01*
X96102438Y-94161904D02*
X96150057Y-94209523D01*
X96150057Y-94209523D02*
X96245295Y-94257142D01*
X96245295Y-94257142D02*
X96388152Y-94257142D01*
X96388152Y-94257142D02*
X96483390Y-94209523D01*
X96483390Y-94209523D02*
X96531009Y-94161904D01*
X96531009Y-94161904D02*
X96578628Y-94066666D01*
X96578628Y-94066666D02*
X96578628Y-93685714D01*
X97054819Y-95209523D02*
X97054819Y-94638095D01*
X97054819Y-94923809D02*
X96054819Y-94923809D01*
X96054819Y-94923809D02*
X96197676Y-94828571D01*
X96197676Y-94828571D02*
X96292914Y-94733333D01*
X96292914Y-94733333D02*
X96340533Y-94638095D01*
X96483390Y-95780952D02*
X96435771Y-95685714D01*
X96435771Y-95685714D02*
X96388152Y-95638095D01*
X96388152Y-95638095D02*
X96292914Y-95590476D01*
X96292914Y-95590476D02*
X96245295Y-95590476D01*
X96245295Y-95590476D02*
X96150057Y-95638095D01*
X96150057Y-95638095D02*
X96102438Y-95685714D01*
X96102438Y-95685714D02*
X96054819Y-95780952D01*
X96054819Y-95780952D02*
X96054819Y-95971428D01*
X96054819Y-95971428D02*
X96102438Y-96066666D01*
X96102438Y-96066666D02*
X96150057Y-96114285D01*
X96150057Y-96114285D02*
X96245295Y-96161904D01*
X96245295Y-96161904D02*
X96292914Y-96161904D01*
X96292914Y-96161904D02*
X96388152Y-96114285D01*
X96388152Y-96114285D02*
X96435771Y-96066666D01*
X96435771Y-96066666D02*
X96483390Y-95971428D01*
X96483390Y-95971428D02*
X96483390Y-95780952D01*
X96483390Y-95780952D02*
X96531009Y-95685714D01*
X96531009Y-95685714D02*
X96578628Y-95638095D01*
X96578628Y-95638095D02*
X96673866Y-95590476D01*
X96673866Y-95590476D02*
X96864342Y-95590476D01*
X96864342Y-95590476D02*
X96959580Y-95638095D01*
X96959580Y-95638095D02*
X97007200Y-95685714D01*
X97007200Y-95685714D02*
X97054819Y-95780952D01*
X97054819Y-95780952D02*
X97054819Y-95971428D01*
X97054819Y-95971428D02*
X97007200Y-96066666D01*
X97007200Y-96066666D02*
X96959580Y-96114285D01*
X96959580Y-96114285D02*
X96864342Y-96161904D01*
X96864342Y-96161904D02*
X96673866Y-96161904D01*
X96673866Y-96161904D02*
X96578628Y-96114285D01*
X96578628Y-96114285D02*
X96531009Y-96066666D01*
X96531009Y-96066666D02*
X96483390Y-95971428D01*
X88759580Y-95557142D02*
X88807200Y-95509523D01*
X88807200Y-95509523D02*
X88854819Y-95366666D01*
X88854819Y-95366666D02*
X88854819Y-95271428D01*
X88854819Y-95271428D02*
X88807200Y-95128571D01*
X88807200Y-95128571D02*
X88711961Y-95033333D01*
X88711961Y-95033333D02*
X88616723Y-94985714D01*
X88616723Y-94985714D02*
X88426247Y-94938095D01*
X88426247Y-94938095D02*
X88283390Y-94938095D01*
X88283390Y-94938095D02*
X88092914Y-94985714D01*
X88092914Y-94985714D02*
X87997676Y-95033333D01*
X87997676Y-95033333D02*
X87902438Y-95128571D01*
X87902438Y-95128571D02*
X87854819Y-95271428D01*
X87854819Y-95271428D02*
X87854819Y-95366666D01*
X87854819Y-95366666D02*
X87902438Y-95509523D01*
X87902438Y-95509523D02*
X87950057Y-95557142D01*
X87950057Y-95938095D02*
X87902438Y-95985714D01*
X87902438Y-95985714D02*
X87854819Y-96080952D01*
X87854819Y-96080952D02*
X87854819Y-96319047D01*
X87854819Y-96319047D02*
X87902438Y-96414285D01*
X87902438Y-96414285D02*
X87950057Y-96461904D01*
X87950057Y-96461904D02*
X88045295Y-96509523D01*
X88045295Y-96509523D02*
X88140533Y-96509523D01*
X88140533Y-96509523D02*
X88283390Y-96461904D01*
X88283390Y-96461904D02*
X88854819Y-95890476D01*
X88854819Y-95890476D02*
X88854819Y-96509523D01*
X87854819Y-97366666D02*
X87854819Y-97176190D01*
X87854819Y-97176190D02*
X87902438Y-97080952D01*
X87902438Y-97080952D02*
X87950057Y-97033333D01*
X87950057Y-97033333D02*
X88092914Y-96938095D01*
X88092914Y-96938095D02*
X88283390Y-96890476D01*
X88283390Y-96890476D02*
X88664342Y-96890476D01*
X88664342Y-96890476D02*
X88759580Y-96938095D01*
X88759580Y-96938095D02*
X88807200Y-96985714D01*
X88807200Y-96985714D02*
X88854819Y-97080952D01*
X88854819Y-97080952D02*
X88854819Y-97271428D01*
X88854819Y-97271428D02*
X88807200Y-97366666D01*
X88807200Y-97366666D02*
X88759580Y-97414285D01*
X88759580Y-97414285D02*
X88664342Y-97461904D01*
X88664342Y-97461904D02*
X88426247Y-97461904D01*
X88426247Y-97461904D02*
X88331009Y-97414285D01*
X88331009Y-97414285D02*
X88283390Y-97366666D01*
X88283390Y-97366666D02*
X88235771Y-97271428D01*
X88235771Y-97271428D02*
X88235771Y-97080952D01*
X88235771Y-97080952D02*
X88283390Y-96985714D01*
X88283390Y-96985714D02*
X88331009Y-96938095D01*
X88331009Y-96938095D02*
X88426247Y-96890476D01*
X86759580Y-107157142D02*
X86807200Y-107109523D01*
X86807200Y-107109523D02*
X86854819Y-106966666D01*
X86854819Y-106966666D02*
X86854819Y-106871428D01*
X86854819Y-106871428D02*
X86807200Y-106728571D01*
X86807200Y-106728571D02*
X86711961Y-106633333D01*
X86711961Y-106633333D02*
X86616723Y-106585714D01*
X86616723Y-106585714D02*
X86426247Y-106538095D01*
X86426247Y-106538095D02*
X86283390Y-106538095D01*
X86283390Y-106538095D02*
X86092914Y-106585714D01*
X86092914Y-106585714D02*
X85997676Y-106633333D01*
X85997676Y-106633333D02*
X85902438Y-106728571D01*
X85902438Y-106728571D02*
X85854819Y-106871428D01*
X85854819Y-106871428D02*
X85854819Y-106966666D01*
X85854819Y-106966666D02*
X85902438Y-107109523D01*
X85902438Y-107109523D02*
X85950057Y-107157142D01*
X85950057Y-107538095D02*
X85902438Y-107585714D01*
X85902438Y-107585714D02*
X85854819Y-107680952D01*
X85854819Y-107680952D02*
X85854819Y-107919047D01*
X85854819Y-107919047D02*
X85902438Y-108014285D01*
X85902438Y-108014285D02*
X85950057Y-108061904D01*
X85950057Y-108061904D02*
X86045295Y-108109523D01*
X86045295Y-108109523D02*
X86140533Y-108109523D01*
X86140533Y-108109523D02*
X86283390Y-108061904D01*
X86283390Y-108061904D02*
X86854819Y-107490476D01*
X86854819Y-107490476D02*
X86854819Y-108109523D01*
X86854819Y-108585714D02*
X86854819Y-108776190D01*
X86854819Y-108776190D02*
X86807200Y-108871428D01*
X86807200Y-108871428D02*
X86759580Y-108919047D01*
X86759580Y-108919047D02*
X86616723Y-109014285D01*
X86616723Y-109014285D02*
X86426247Y-109061904D01*
X86426247Y-109061904D02*
X86045295Y-109061904D01*
X86045295Y-109061904D02*
X85950057Y-109014285D01*
X85950057Y-109014285D02*
X85902438Y-108966666D01*
X85902438Y-108966666D02*
X85854819Y-108871428D01*
X85854819Y-108871428D02*
X85854819Y-108680952D01*
X85854819Y-108680952D02*
X85902438Y-108585714D01*
X85902438Y-108585714D02*
X85950057Y-108538095D01*
X85950057Y-108538095D02*
X86045295Y-108490476D01*
X86045295Y-108490476D02*
X86283390Y-108490476D01*
X86283390Y-108490476D02*
X86378628Y-108538095D01*
X86378628Y-108538095D02*
X86426247Y-108585714D01*
X86426247Y-108585714D02*
X86473866Y-108680952D01*
X86473866Y-108680952D02*
X86473866Y-108871428D01*
X86473866Y-108871428D02*
X86426247Y-108966666D01*
X86426247Y-108966666D02*
X86378628Y-109014285D01*
X86378628Y-109014285D02*
X86283390Y-109061904D01*
X88259580Y-108757142D02*
X88307200Y-108709523D01*
X88307200Y-108709523D02*
X88354819Y-108566666D01*
X88354819Y-108566666D02*
X88354819Y-108471428D01*
X88354819Y-108471428D02*
X88307200Y-108328571D01*
X88307200Y-108328571D02*
X88211961Y-108233333D01*
X88211961Y-108233333D02*
X88116723Y-108185714D01*
X88116723Y-108185714D02*
X87926247Y-108138095D01*
X87926247Y-108138095D02*
X87783390Y-108138095D01*
X87783390Y-108138095D02*
X87592914Y-108185714D01*
X87592914Y-108185714D02*
X87497676Y-108233333D01*
X87497676Y-108233333D02*
X87402438Y-108328571D01*
X87402438Y-108328571D02*
X87354819Y-108471428D01*
X87354819Y-108471428D02*
X87354819Y-108566666D01*
X87354819Y-108566666D02*
X87402438Y-108709523D01*
X87402438Y-108709523D02*
X87450057Y-108757142D01*
X87354819Y-109090476D02*
X87354819Y-109709523D01*
X87354819Y-109709523D02*
X87735771Y-109376190D01*
X87735771Y-109376190D02*
X87735771Y-109519047D01*
X87735771Y-109519047D02*
X87783390Y-109614285D01*
X87783390Y-109614285D02*
X87831009Y-109661904D01*
X87831009Y-109661904D02*
X87926247Y-109709523D01*
X87926247Y-109709523D02*
X88164342Y-109709523D01*
X88164342Y-109709523D02*
X88259580Y-109661904D01*
X88259580Y-109661904D02*
X88307200Y-109614285D01*
X88307200Y-109614285D02*
X88354819Y-109519047D01*
X88354819Y-109519047D02*
X88354819Y-109233333D01*
X88354819Y-109233333D02*
X88307200Y-109138095D01*
X88307200Y-109138095D02*
X88259580Y-109090476D01*
X87450057Y-110090476D02*
X87402438Y-110138095D01*
X87402438Y-110138095D02*
X87354819Y-110233333D01*
X87354819Y-110233333D02*
X87354819Y-110471428D01*
X87354819Y-110471428D02*
X87402438Y-110566666D01*
X87402438Y-110566666D02*
X87450057Y-110614285D01*
X87450057Y-110614285D02*
X87545295Y-110661904D01*
X87545295Y-110661904D02*
X87640533Y-110661904D01*
X87640533Y-110661904D02*
X87783390Y-110614285D01*
X87783390Y-110614285D02*
X88354819Y-110042857D01*
X88354819Y-110042857D02*
X88354819Y-110661904D01*
X113041580Y-109605142D02*
X113089200Y-109557523D01*
X113089200Y-109557523D02*
X113136819Y-109414666D01*
X113136819Y-109414666D02*
X113136819Y-109319428D01*
X113136819Y-109319428D02*
X113089200Y-109176571D01*
X113089200Y-109176571D02*
X112993961Y-109081333D01*
X112993961Y-109081333D02*
X112898723Y-109033714D01*
X112898723Y-109033714D02*
X112708247Y-108986095D01*
X112708247Y-108986095D02*
X112565390Y-108986095D01*
X112565390Y-108986095D02*
X112374914Y-109033714D01*
X112374914Y-109033714D02*
X112279676Y-109081333D01*
X112279676Y-109081333D02*
X112184438Y-109176571D01*
X112184438Y-109176571D02*
X112136819Y-109319428D01*
X112136819Y-109319428D02*
X112136819Y-109414666D01*
X112136819Y-109414666D02*
X112184438Y-109557523D01*
X112184438Y-109557523D02*
X112232057Y-109605142D01*
X112232057Y-109986095D02*
X112184438Y-110033714D01*
X112184438Y-110033714D02*
X112136819Y-110128952D01*
X112136819Y-110128952D02*
X112136819Y-110367047D01*
X112136819Y-110367047D02*
X112184438Y-110462285D01*
X112184438Y-110462285D02*
X112232057Y-110509904D01*
X112232057Y-110509904D02*
X112327295Y-110557523D01*
X112327295Y-110557523D02*
X112422533Y-110557523D01*
X112422533Y-110557523D02*
X112565390Y-110509904D01*
X112565390Y-110509904D02*
X113136819Y-109938476D01*
X113136819Y-109938476D02*
X113136819Y-110557523D01*
X112136819Y-110890857D02*
X112136819Y-111509904D01*
X112136819Y-111509904D02*
X112517771Y-111176571D01*
X112517771Y-111176571D02*
X112517771Y-111319428D01*
X112517771Y-111319428D02*
X112565390Y-111414666D01*
X112565390Y-111414666D02*
X112613009Y-111462285D01*
X112613009Y-111462285D02*
X112708247Y-111509904D01*
X112708247Y-111509904D02*
X112946342Y-111509904D01*
X112946342Y-111509904D02*
X113041580Y-111462285D01*
X113041580Y-111462285D02*
X113089200Y-111414666D01*
X113089200Y-111414666D02*
X113136819Y-111319428D01*
X113136819Y-111319428D02*
X113136819Y-111033714D01*
X113136819Y-111033714D02*
X113089200Y-110938476D01*
X113089200Y-110938476D02*
X113041580Y-110890857D01*
X92416780Y-122707142D02*
X92464400Y-122659523D01*
X92464400Y-122659523D02*
X92512019Y-122516666D01*
X92512019Y-122516666D02*
X92512019Y-122421428D01*
X92512019Y-122421428D02*
X92464400Y-122278571D01*
X92464400Y-122278571D02*
X92369161Y-122183333D01*
X92369161Y-122183333D02*
X92273923Y-122135714D01*
X92273923Y-122135714D02*
X92083447Y-122088095D01*
X92083447Y-122088095D02*
X91940590Y-122088095D01*
X91940590Y-122088095D02*
X91750114Y-122135714D01*
X91750114Y-122135714D02*
X91654876Y-122183333D01*
X91654876Y-122183333D02*
X91559638Y-122278571D01*
X91559638Y-122278571D02*
X91512019Y-122421428D01*
X91512019Y-122421428D02*
X91512019Y-122516666D01*
X91512019Y-122516666D02*
X91559638Y-122659523D01*
X91559638Y-122659523D02*
X91607257Y-122707142D01*
X92512019Y-123659523D02*
X92512019Y-123088095D01*
X92512019Y-123373809D02*
X91512019Y-123373809D01*
X91512019Y-123373809D02*
X91654876Y-123278571D01*
X91654876Y-123278571D02*
X91750114Y-123183333D01*
X91750114Y-123183333D02*
X91797733Y-123088095D01*
X91940590Y-124230952D02*
X91892971Y-124135714D01*
X91892971Y-124135714D02*
X91845352Y-124088095D01*
X91845352Y-124088095D02*
X91750114Y-124040476D01*
X91750114Y-124040476D02*
X91702495Y-124040476D01*
X91702495Y-124040476D02*
X91607257Y-124088095D01*
X91607257Y-124088095D02*
X91559638Y-124135714D01*
X91559638Y-124135714D02*
X91512019Y-124230952D01*
X91512019Y-124230952D02*
X91512019Y-124421428D01*
X91512019Y-124421428D02*
X91559638Y-124516666D01*
X91559638Y-124516666D02*
X91607257Y-124564285D01*
X91607257Y-124564285D02*
X91702495Y-124611904D01*
X91702495Y-124611904D02*
X91750114Y-124611904D01*
X91750114Y-124611904D02*
X91845352Y-124564285D01*
X91845352Y-124564285D02*
X91892971Y-124516666D01*
X91892971Y-124516666D02*
X91940590Y-124421428D01*
X91940590Y-124421428D02*
X91940590Y-124230952D01*
X91940590Y-124230952D02*
X91988209Y-124135714D01*
X91988209Y-124135714D02*
X92035828Y-124088095D01*
X92035828Y-124088095D02*
X92131066Y-124040476D01*
X92131066Y-124040476D02*
X92321542Y-124040476D01*
X92321542Y-124040476D02*
X92416780Y-124088095D01*
X92416780Y-124088095D02*
X92464400Y-124135714D01*
X92464400Y-124135714D02*
X92512019Y-124230952D01*
X92512019Y-124230952D02*
X92512019Y-124421428D01*
X92512019Y-124421428D02*
X92464400Y-124516666D01*
X92464400Y-124516666D02*
X92416780Y-124564285D01*
X92416780Y-124564285D02*
X92321542Y-124611904D01*
X92321542Y-124611904D02*
X92131066Y-124611904D01*
X92131066Y-124611904D02*
X92035828Y-124564285D01*
X92035828Y-124564285D02*
X91988209Y-124516666D01*
X91988209Y-124516666D02*
X91940590Y-124421428D01*
X91981257Y-69659580D02*
X92028876Y-69707200D01*
X92028876Y-69707200D02*
X92171733Y-69754819D01*
X92171733Y-69754819D02*
X92266971Y-69754819D01*
X92266971Y-69754819D02*
X92409828Y-69707200D01*
X92409828Y-69707200D02*
X92505066Y-69611961D01*
X92505066Y-69611961D02*
X92552685Y-69516723D01*
X92552685Y-69516723D02*
X92600304Y-69326247D01*
X92600304Y-69326247D02*
X92600304Y-69183390D01*
X92600304Y-69183390D02*
X92552685Y-68992914D01*
X92552685Y-68992914D02*
X92505066Y-68897676D01*
X92505066Y-68897676D02*
X92409828Y-68802438D01*
X92409828Y-68802438D02*
X92266971Y-68754819D01*
X92266971Y-68754819D02*
X92171733Y-68754819D01*
X92171733Y-68754819D02*
X92028876Y-68802438D01*
X92028876Y-68802438D02*
X91981257Y-68850057D01*
X91600304Y-68850057D02*
X91552685Y-68802438D01*
X91552685Y-68802438D02*
X91457447Y-68754819D01*
X91457447Y-68754819D02*
X91219352Y-68754819D01*
X91219352Y-68754819D02*
X91124114Y-68802438D01*
X91124114Y-68802438D02*
X91076495Y-68850057D01*
X91076495Y-68850057D02*
X91028876Y-68945295D01*
X91028876Y-68945295D02*
X91028876Y-69040533D01*
X91028876Y-69040533D02*
X91076495Y-69183390D01*
X91076495Y-69183390D02*
X91647923Y-69754819D01*
X91647923Y-69754819D02*
X91028876Y-69754819D01*
X90171733Y-69088152D02*
X90171733Y-69754819D01*
X90409828Y-68707200D02*
X90647923Y-69421485D01*
X90647923Y-69421485D02*
X90028876Y-69421485D01*
X106942857Y-67959580D02*
X106990476Y-68007200D01*
X106990476Y-68007200D02*
X107133333Y-68054819D01*
X107133333Y-68054819D02*
X107228571Y-68054819D01*
X107228571Y-68054819D02*
X107371428Y-68007200D01*
X107371428Y-68007200D02*
X107466666Y-67911961D01*
X107466666Y-67911961D02*
X107514285Y-67816723D01*
X107514285Y-67816723D02*
X107561904Y-67626247D01*
X107561904Y-67626247D02*
X107561904Y-67483390D01*
X107561904Y-67483390D02*
X107514285Y-67292914D01*
X107514285Y-67292914D02*
X107466666Y-67197676D01*
X107466666Y-67197676D02*
X107371428Y-67102438D01*
X107371428Y-67102438D02*
X107228571Y-67054819D01*
X107228571Y-67054819D02*
X107133333Y-67054819D01*
X107133333Y-67054819D02*
X106990476Y-67102438D01*
X106990476Y-67102438D02*
X106942857Y-67150057D01*
X106561904Y-67150057D02*
X106514285Y-67102438D01*
X106514285Y-67102438D02*
X106419047Y-67054819D01*
X106419047Y-67054819D02*
X106180952Y-67054819D01*
X106180952Y-67054819D02*
X106085714Y-67102438D01*
X106085714Y-67102438D02*
X106038095Y-67150057D01*
X106038095Y-67150057D02*
X105990476Y-67245295D01*
X105990476Y-67245295D02*
X105990476Y-67340533D01*
X105990476Y-67340533D02*
X106038095Y-67483390D01*
X106038095Y-67483390D02*
X106609523Y-68054819D01*
X106609523Y-68054819D02*
X105990476Y-68054819D01*
X105085714Y-67054819D02*
X105561904Y-67054819D01*
X105561904Y-67054819D02*
X105609523Y-67531009D01*
X105609523Y-67531009D02*
X105561904Y-67483390D01*
X105561904Y-67483390D02*
X105466666Y-67435771D01*
X105466666Y-67435771D02*
X105228571Y-67435771D01*
X105228571Y-67435771D02*
X105133333Y-67483390D01*
X105133333Y-67483390D02*
X105085714Y-67531009D01*
X105085714Y-67531009D02*
X105038095Y-67626247D01*
X105038095Y-67626247D02*
X105038095Y-67864342D01*
X105038095Y-67864342D02*
X105085714Y-67959580D01*
X105085714Y-67959580D02*
X105133333Y-68007200D01*
X105133333Y-68007200D02*
X105228571Y-68054819D01*
X105228571Y-68054819D02*
X105466666Y-68054819D01*
X105466666Y-68054819D02*
X105561904Y-68007200D01*
X105561904Y-68007200D02*
X105609523Y-67959580D01*
X92559580Y-76557142D02*
X92607200Y-76509523D01*
X92607200Y-76509523D02*
X92654819Y-76366666D01*
X92654819Y-76366666D02*
X92654819Y-76271428D01*
X92654819Y-76271428D02*
X92607200Y-76128571D01*
X92607200Y-76128571D02*
X92511961Y-76033333D01*
X92511961Y-76033333D02*
X92416723Y-75985714D01*
X92416723Y-75985714D02*
X92226247Y-75938095D01*
X92226247Y-75938095D02*
X92083390Y-75938095D01*
X92083390Y-75938095D02*
X91892914Y-75985714D01*
X91892914Y-75985714D02*
X91797676Y-76033333D01*
X91797676Y-76033333D02*
X91702438Y-76128571D01*
X91702438Y-76128571D02*
X91654819Y-76271428D01*
X91654819Y-76271428D02*
X91654819Y-76366666D01*
X91654819Y-76366666D02*
X91702438Y-76509523D01*
X91702438Y-76509523D02*
X91750057Y-76557142D01*
X91654819Y-76890476D02*
X91654819Y-77509523D01*
X91654819Y-77509523D02*
X92035771Y-77176190D01*
X92035771Y-77176190D02*
X92035771Y-77319047D01*
X92035771Y-77319047D02*
X92083390Y-77414285D01*
X92083390Y-77414285D02*
X92131009Y-77461904D01*
X92131009Y-77461904D02*
X92226247Y-77509523D01*
X92226247Y-77509523D02*
X92464342Y-77509523D01*
X92464342Y-77509523D02*
X92559580Y-77461904D01*
X92559580Y-77461904D02*
X92607200Y-77414285D01*
X92607200Y-77414285D02*
X92654819Y-77319047D01*
X92654819Y-77319047D02*
X92654819Y-77033333D01*
X92654819Y-77033333D02*
X92607200Y-76938095D01*
X92607200Y-76938095D02*
X92559580Y-76890476D01*
X91654819Y-78414285D02*
X91654819Y-77938095D01*
X91654819Y-77938095D02*
X92131009Y-77890476D01*
X92131009Y-77890476D02*
X92083390Y-77938095D01*
X92083390Y-77938095D02*
X92035771Y-78033333D01*
X92035771Y-78033333D02*
X92035771Y-78271428D01*
X92035771Y-78271428D02*
X92083390Y-78366666D01*
X92083390Y-78366666D02*
X92131009Y-78414285D01*
X92131009Y-78414285D02*
X92226247Y-78461904D01*
X92226247Y-78461904D02*
X92464342Y-78461904D01*
X92464342Y-78461904D02*
X92559580Y-78414285D01*
X92559580Y-78414285D02*
X92607200Y-78366666D01*
X92607200Y-78366666D02*
X92654819Y-78271428D01*
X92654819Y-78271428D02*
X92654819Y-78033333D01*
X92654819Y-78033333D02*
X92607200Y-77938095D01*
X92607200Y-77938095D02*
X92559580Y-77890476D01*
X102967980Y-69974922D02*
X103015600Y-69927303D01*
X103015600Y-69927303D02*
X103063219Y-69784446D01*
X103063219Y-69784446D02*
X103063219Y-69689208D01*
X103063219Y-69689208D02*
X103015600Y-69546351D01*
X103015600Y-69546351D02*
X102920361Y-69451113D01*
X102920361Y-69451113D02*
X102825123Y-69403494D01*
X102825123Y-69403494D02*
X102634647Y-69355875D01*
X102634647Y-69355875D02*
X102491790Y-69355875D01*
X102491790Y-69355875D02*
X102301314Y-69403494D01*
X102301314Y-69403494D02*
X102206076Y-69451113D01*
X102206076Y-69451113D02*
X102110838Y-69546351D01*
X102110838Y-69546351D02*
X102063219Y-69689208D01*
X102063219Y-69689208D02*
X102063219Y-69784446D01*
X102063219Y-69784446D02*
X102110838Y-69927303D01*
X102110838Y-69927303D02*
X102158457Y-69974922D01*
X102063219Y-70308256D02*
X102063219Y-70927303D01*
X102063219Y-70927303D02*
X102444171Y-70593970D01*
X102444171Y-70593970D02*
X102444171Y-70736827D01*
X102444171Y-70736827D02*
X102491790Y-70832065D01*
X102491790Y-70832065D02*
X102539409Y-70879684D01*
X102539409Y-70879684D02*
X102634647Y-70927303D01*
X102634647Y-70927303D02*
X102872742Y-70927303D01*
X102872742Y-70927303D02*
X102967980Y-70879684D01*
X102967980Y-70879684D02*
X103015600Y-70832065D01*
X103015600Y-70832065D02*
X103063219Y-70736827D01*
X103063219Y-70736827D02*
X103063219Y-70451113D01*
X103063219Y-70451113D02*
X103015600Y-70355875D01*
X103015600Y-70355875D02*
X102967980Y-70308256D01*
X102063219Y-71784446D02*
X102063219Y-71593970D01*
X102063219Y-71593970D02*
X102110838Y-71498732D01*
X102110838Y-71498732D02*
X102158457Y-71451113D01*
X102158457Y-71451113D02*
X102301314Y-71355875D01*
X102301314Y-71355875D02*
X102491790Y-71308256D01*
X102491790Y-71308256D02*
X102872742Y-71308256D01*
X102872742Y-71308256D02*
X102967980Y-71355875D01*
X102967980Y-71355875D02*
X103015600Y-71403494D01*
X103015600Y-71403494D02*
X103063219Y-71498732D01*
X103063219Y-71498732D02*
X103063219Y-71689208D01*
X103063219Y-71689208D02*
X103015600Y-71784446D01*
X103015600Y-71784446D02*
X102967980Y-71832065D01*
X102967980Y-71832065D02*
X102872742Y-71879684D01*
X102872742Y-71879684D02*
X102634647Y-71879684D01*
X102634647Y-71879684D02*
X102539409Y-71832065D01*
X102539409Y-71832065D02*
X102491790Y-71784446D01*
X102491790Y-71784446D02*
X102444171Y-71689208D01*
X102444171Y-71689208D02*
X102444171Y-71498732D01*
X102444171Y-71498732D02*
X102491790Y-71403494D01*
X102491790Y-71403494D02*
X102539409Y-71355875D01*
X102539409Y-71355875D02*
X102634647Y-71308256D01*
X98859580Y-111957142D02*
X98907200Y-111909523D01*
X98907200Y-111909523D02*
X98954819Y-111766666D01*
X98954819Y-111766666D02*
X98954819Y-111671428D01*
X98954819Y-111671428D02*
X98907200Y-111528571D01*
X98907200Y-111528571D02*
X98811961Y-111433333D01*
X98811961Y-111433333D02*
X98716723Y-111385714D01*
X98716723Y-111385714D02*
X98526247Y-111338095D01*
X98526247Y-111338095D02*
X98383390Y-111338095D01*
X98383390Y-111338095D02*
X98192914Y-111385714D01*
X98192914Y-111385714D02*
X98097676Y-111433333D01*
X98097676Y-111433333D02*
X98002438Y-111528571D01*
X98002438Y-111528571D02*
X97954819Y-111671428D01*
X97954819Y-111671428D02*
X97954819Y-111766666D01*
X97954819Y-111766666D02*
X98002438Y-111909523D01*
X98002438Y-111909523D02*
X98050057Y-111957142D01*
X98050057Y-112338095D02*
X98002438Y-112385714D01*
X98002438Y-112385714D02*
X97954819Y-112480952D01*
X97954819Y-112480952D02*
X97954819Y-112719047D01*
X97954819Y-112719047D02*
X98002438Y-112814285D01*
X98002438Y-112814285D02*
X98050057Y-112861904D01*
X98050057Y-112861904D02*
X98145295Y-112909523D01*
X98145295Y-112909523D02*
X98240533Y-112909523D01*
X98240533Y-112909523D02*
X98383390Y-112861904D01*
X98383390Y-112861904D02*
X98954819Y-112290476D01*
X98954819Y-112290476D02*
X98954819Y-112909523D01*
X97954819Y-113242857D02*
X97954819Y-113909523D01*
X97954819Y-113909523D02*
X98954819Y-113480952D01*
X97259580Y-90757142D02*
X97307200Y-90709523D01*
X97307200Y-90709523D02*
X97354819Y-90566666D01*
X97354819Y-90566666D02*
X97354819Y-90471428D01*
X97354819Y-90471428D02*
X97307200Y-90328571D01*
X97307200Y-90328571D02*
X97211961Y-90233333D01*
X97211961Y-90233333D02*
X97116723Y-90185714D01*
X97116723Y-90185714D02*
X96926247Y-90138095D01*
X96926247Y-90138095D02*
X96783390Y-90138095D01*
X96783390Y-90138095D02*
X96592914Y-90185714D01*
X96592914Y-90185714D02*
X96497676Y-90233333D01*
X96497676Y-90233333D02*
X96402438Y-90328571D01*
X96402438Y-90328571D02*
X96354819Y-90471428D01*
X96354819Y-90471428D02*
X96354819Y-90566666D01*
X96354819Y-90566666D02*
X96402438Y-90709523D01*
X96402438Y-90709523D02*
X96450057Y-90757142D01*
X96354819Y-91090476D02*
X96354819Y-91709523D01*
X96354819Y-91709523D02*
X96735771Y-91376190D01*
X96735771Y-91376190D02*
X96735771Y-91519047D01*
X96735771Y-91519047D02*
X96783390Y-91614285D01*
X96783390Y-91614285D02*
X96831009Y-91661904D01*
X96831009Y-91661904D02*
X96926247Y-91709523D01*
X96926247Y-91709523D02*
X97164342Y-91709523D01*
X97164342Y-91709523D02*
X97259580Y-91661904D01*
X97259580Y-91661904D02*
X97307200Y-91614285D01*
X97307200Y-91614285D02*
X97354819Y-91519047D01*
X97354819Y-91519047D02*
X97354819Y-91233333D01*
X97354819Y-91233333D02*
X97307200Y-91138095D01*
X97307200Y-91138095D02*
X97259580Y-91090476D01*
X96354819Y-92328571D02*
X96354819Y-92423809D01*
X96354819Y-92423809D02*
X96402438Y-92519047D01*
X96402438Y-92519047D02*
X96450057Y-92566666D01*
X96450057Y-92566666D02*
X96545295Y-92614285D01*
X96545295Y-92614285D02*
X96735771Y-92661904D01*
X96735771Y-92661904D02*
X96973866Y-92661904D01*
X96973866Y-92661904D02*
X97164342Y-92614285D01*
X97164342Y-92614285D02*
X97259580Y-92566666D01*
X97259580Y-92566666D02*
X97307200Y-92519047D01*
X97307200Y-92519047D02*
X97354819Y-92423809D01*
X97354819Y-92423809D02*
X97354819Y-92328571D01*
X97354819Y-92328571D02*
X97307200Y-92233333D01*
X97307200Y-92233333D02*
X97259580Y-92185714D01*
X97259580Y-92185714D02*
X97164342Y-92138095D01*
X97164342Y-92138095D02*
X96973866Y-92090476D01*
X96973866Y-92090476D02*
X96735771Y-92090476D01*
X96735771Y-92090476D02*
X96545295Y-92138095D01*
X96545295Y-92138095D02*
X96450057Y-92185714D01*
X96450057Y-92185714D02*
X96402438Y-92233333D01*
X96402438Y-92233333D02*
X96354819Y-92328571D01*
X96759580Y-111857142D02*
X96807200Y-111809523D01*
X96807200Y-111809523D02*
X96854819Y-111666666D01*
X96854819Y-111666666D02*
X96854819Y-111571428D01*
X96854819Y-111571428D02*
X96807200Y-111428571D01*
X96807200Y-111428571D02*
X96711961Y-111333333D01*
X96711961Y-111333333D02*
X96616723Y-111285714D01*
X96616723Y-111285714D02*
X96426247Y-111238095D01*
X96426247Y-111238095D02*
X96283390Y-111238095D01*
X96283390Y-111238095D02*
X96092914Y-111285714D01*
X96092914Y-111285714D02*
X95997676Y-111333333D01*
X95997676Y-111333333D02*
X95902438Y-111428571D01*
X95902438Y-111428571D02*
X95854819Y-111571428D01*
X95854819Y-111571428D02*
X95854819Y-111666666D01*
X95854819Y-111666666D02*
X95902438Y-111809523D01*
X95902438Y-111809523D02*
X95950057Y-111857142D01*
X95854819Y-112190476D02*
X95854819Y-112809523D01*
X95854819Y-112809523D02*
X96235771Y-112476190D01*
X96235771Y-112476190D02*
X96235771Y-112619047D01*
X96235771Y-112619047D02*
X96283390Y-112714285D01*
X96283390Y-112714285D02*
X96331009Y-112761904D01*
X96331009Y-112761904D02*
X96426247Y-112809523D01*
X96426247Y-112809523D02*
X96664342Y-112809523D01*
X96664342Y-112809523D02*
X96759580Y-112761904D01*
X96759580Y-112761904D02*
X96807200Y-112714285D01*
X96807200Y-112714285D02*
X96854819Y-112619047D01*
X96854819Y-112619047D02*
X96854819Y-112333333D01*
X96854819Y-112333333D02*
X96807200Y-112238095D01*
X96807200Y-112238095D02*
X96759580Y-112190476D01*
X95854819Y-113142857D02*
X95854819Y-113761904D01*
X95854819Y-113761904D02*
X96235771Y-113428571D01*
X96235771Y-113428571D02*
X96235771Y-113571428D01*
X96235771Y-113571428D02*
X96283390Y-113666666D01*
X96283390Y-113666666D02*
X96331009Y-113714285D01*
X96331009Y-113714285D02*
X96426247Y-113761904D01*
X96426247Y-113761904D02*
X96664342Y-113761904D01*
X96664342Y-113761904D02*
X96759580Y-113714285D01*
X96759580Y-113714285D02*
X96807200Y-113666666D01*
X96807200Y-113666666D02*
X96854819Y-113571428D01*
X96854819Y-113571428D02*
X96854819Y-113285714D01*
X96854819Y-113285714D02*
X96807200Y-113190476D01*
X96807200Y-113190476D02*
X96759580Y-113142857D01*
X88067857Y-99129580D02*
X88115476Y-99177200D01*
X88115476Y-99177200D02*
X88258333Y-99224819D01*
X88258333Y-99224819D02*
X88353571Y-99224819D01*
X88353571Y-99224819D02*
X88496428Y-99177200D01*
X88496428Y-99177200D02*
X88591666Y-99081961D01*
X88591666Y-99081961D02*
X88639285Y-98986723D01*
X88639285Y-98986723D02*
X88686904Y-98796247D01*
X88686904Y-98796247D02*
X88686904Y-98653390D01*
X88686904Y-98653390D02*
X88639285Y-98462914D01*
X88639285Y-98462914D02*
X88591666Y-98367676D01*
X88591666Y-98367676D02*
X88496428Y-98272438D01*
X88496428Y-98272438D02*
X88353571Y-98224819D01*
X88353571Y-98224819D02*
X88258333Y-98224819D01*
X88258333Y-98224819D02*
X88115476Y-98272438D01*
X88115476Y-98272438D02*
X88067857Y-98320057D01*
X87686904Y-98320057D02*
X87639285Y-98272438D01*
X87639285Y-98272438D02*
X87544047Y-98224819D01*
X87544047Y-98224819D02*
X87305952Y-98224819D01*
X87305952Y-98224819D02*
X87210714Y-98272438D01*
X87210714Y-98272438D02*
X87163095Y-98320057D01*
X87163095Y-98320057D02*
X87115476Y-98415295D01*
X87115476Y-98415295D02*
X87115476Y-98510533D01*
X87115476Y-98510533D02*
X87163095Y-98653390D01*
X87163095Y-98653390D02*
X87734523Y-99224819D01*
X87734523Y-99224819D02*
X87115476Y-99224819D01*
X86544047Y-98653390D02*
X86639285Y-98605771D01*
X86639285Y-98605771D02*
X86686904Y-98558152D01*
X86686904Y-98558152D02*
X86734523Y-98462914D01*
X86734523Y-98462914D02*
X86734523Y-98415295D01*
X86734523Y-98415295D02*
X86686904Y-98320057D01*
X86686904Y-98320057D02*
X86639285Y-98272438D01*
X86639285Y-98272438D02*
X86544047Y-98224819D01*
X86544047Y-98224819D02*
X86353571Y-98224819D01*
X86353571Y-98224819D02*
X86258333Y-98272438D01*
X86258333Y-98272438D02*
X86210714Y-98320057D01*
X86210714Y-98320057D02*
X86163095Y-98415295D01*
X86163095Y-98415295D02*
X86163095Y-98462914D01*
X86163095Y-98462914D02*
X86210714Y-98558152D01*
X86210714Y-98558152D02*
X86258333Y-98605771D01*
X86258333Y-98605771D02*
X86353571Y-98653390D01*
X86353571Y-98653390D02*
X86544047Y-98653390D01*
X86544047Y-98653390D02*
X86639285Y-98701009D01*
X86639285Y-98701009D02*
X86686904Y-98748628D01*
X86686904Y-98748628D02*
X86734523Y-98843866D01*
X86734523Y-98843866D02*
X86734523Y-99034342D01*
X86734523Y-99034342D02*
X86686904Y-99129580D01*
X86686904Y-99129580D02*
X86639285Y-99177200D01*
X86639285Y-99177200D02*
X86544047Y-99224819D01*
X86544047Y-99224819D02*
X86353571Y-99224819D01*
X86353571Y-99224819D02*
X86258333Y-99177200D01*
X86258333Y-99177200D02*
X86210714Y-99129580D01*
X86210714Y-99129580D02*
X86163095Y-99034342D01*
X86163095Y-99034342D02*
X86163095Y-98843866D01*
X86163095Y-98843866D02*
X86210714Y-98748628D01*
X86210714Y-98748628D02*
X86258333Y-98701009D01*
X86258333Y-98701009D02*
X86353571Y-98653390D01*
X91942857Y-112259580D02*
X91990476Y-112307200D01*
X91990476Y-112307200D02*
X92133333Y-112354819D01*
X92133333Y-112354819D02*
X92228571Y-112354819D01*
X92228571Y-112354819D02*
X92371428Y-112307200D01*
X92371428Y-112307200D02*
X92466666Y-112211961D01*
X92466666Y-112211961D02*
X92514285Y-112116723D01*
X92514285Y-112116723D02*
X92561904Y-111926247D01*
X92561904Y-111926247D02*
X92561904Y-111783390D01*
X92561904Y-111783390D02*
X92514285Y-111592914D01*
X92514285Y-111592914D02*
X92466666Y-111497676D01*
X92466666Y-111497676D02*
X92371428Y-111402438D01*
X92371428Y-111402438D02*
X92228571Y-111354819D01*
X92228571Y-111354819D02*
X92133333Y-111354819D01*
X92133333Y-111354819D02*
X91990476Y-111402438D01*
X91990476Y-111402438D02*
X91942857Y-111450057D01*
X91561904Y-111450057D02*
X91514285Y-111402438D01*
X91514285Y-111402438D02*
X91419047Y-111354819D01*
X91419047Y-111354819D02*
X91180952Y-111354819D01*
X91180952Y-111354819D02*
X91085714Y-111402438D01*
X91085714Y-111402438D02*
X91038095Y-111450057D01*
X91038095Y-111450057D02*
X90990476Y-111545295D01*
X90990476Y-111545295D02*
X90990476Y-111640533D01*
X90990476Y-111640533D02*
X91038095Y-111783390D01*
X91038095Y-111783390D02*
X91609523Y-112354819D01*
X91609523Y-112354819D02*
X90990476Y-112354819D01*
X90609523Y-111450057D02*
X90561904Y-111402438D01*
X90561904Y-111402438D02*
X90466666Y-111354819D01*
X90466666Y-111354819D02*
X90228571Y-111354819D01*
X90228571Y-111354819D02*
X90133333Y-111402438D01*
X90133333Y-111402438D02*
X90085714Y-111450057D01*
X90085714Y-111450057D02*
X90038095Y-111545295D01*
X90038095Y-111545295D02*
X90038095Y-111640533D01*
X90038095Y-111640533D02*
X90085714Y-111783390D01*
X90085714Y-111783390D02*
X90657142Y-112354819D01*
X90657142Y-112354819D02*
X90038095Y-112354819D01*
X86221459Y-102977653D02*
X86221459Y-102501463D01*
X86221459Y-102501463D02*
X85221459Y-102501463D01*
X85221459Y-103215749D02*
X85221459Y-103834796D01*
X85221459Y-103834796D02*
X85602411Y-103501463D01*
X85602411Y-103501463D02*
X85602411Y-103644320D01*
X85602411Y-103644320D02*
X85650030Y-103739558D01*
X85650030Y-103739558D02*
X85697649Y-103787177D01*
X85697649Y-103787177D02*
X85792887Y-103834796D01*
X85792887Y-103834796D02*
X86030982Y-103834796D01*
X86030982Y-103834796D02*
X86126220Y-103787177D01*
X86126220Y-103787177D02*
X86173840Y-103739558D01*
X86173840Y-103739558D02*
X86221459Y-103644320D01*
X86221459Y-103644320D02*
X86221459Y-103358606D01*
X86221459Y-103358606D02*
X86173840Y-103263368D01*
X86173840Y-103263368D02*
X86126220Y-103215749D01*
X88454819Y-91933333D02*
X88454819Y-91457143D01*
X88454819Y-91457143D02*
X87454819Y-91457143D01*
X87550057Y-92219048D02*
X87502438Y-92266667D01*
X87502438Y-92266667D02*
X87454819Y-92361905D01*
X87454819Y-92361905D02*
X87454819Y-92600000D01*
X87454819Y-92600000D02*
X87502438Y-92695238D01*
X87502438Y-92695238D02*
X87550057Y-92742857D01*
X87550057Y-92742857D02*
X87645295Y-92790476D01*
X87645295Y-92790476D02*
X87740533Y-92790476D01*
X87740533Y-92790476D02*
X87883390Y-92742857D01*
X87883390Y-92742857D02*
X88454819Y-92171429D01*
X88454819Y-92171429D02*
X88454819Y-92790476D01*
X88979580Y-73639442D02*
X89027200Y-73591823D01*
X89027200Y-73591823D02*
X89074819Y-73448966D01*
X89074819Y-73448966D02*
X89074819Y-73353728D01*
X89074819Y-73353728D02*
X89027200Y-73210871D01*
X89027200Y-73210871D02*
X88931961Y-73115633D01*
X88931961Y-73115633D02*
X88836723Y-73068014D01*
X88836723Y-73068014D02*
X88646247Y-73020395D01*
X88646247Y-73020395D02*
X88503390Y-73020395D01*
X88503390Y-73020395D02*
X88312914Y-73068014D01*
X88312914Y-73068014D02*
X88217676Y-73115633D01*
X88217676Y-73115633D02*
X88122438Y-73210871D01*
X88122438Y-73210871D02*
X88074819Y-73353728D01*
X88074819Y-73353728D02*
X88074819Y-73448966D01*
X88074819Y-73448966D02*
X88122438Y-73591823D01*
X88122438Y-73591823D02*
X88170057Y-73639442D01*
X88074819Y-73972776D02*
X88074819Y-74591823D01*
X88074819Y-74591823D02*
X88455771Y-74258490D01*
X88455771Y-74258490D02*
X88455771Y-74401347D01*
X88455771Y-74401347D02*
X88503390Y-74496585D01*
X88503390Y-74496585D02*
X88551009Y-74544204D01*
X88551009Y-74544204D02*
X88646247Y-74591823D01*
X88646247Y-74591823D02*
X88884342Y-74591823D01*
X88884342Y-74591823D02*
X88979580Y-74544204D01*
X88979580Y-74544204D02*
X89027200Y-74496585D01*
X89027200Y-74496585D02*
X89074819Y-74401347D01*
X89074819Y-74401347D02*
X89074819Y-74115633D01*
X89074819Y-74115633D02*
X89027200Y-74020395D01*
X89027200Y-74020395D02*
X88979580Y-73972776D01*
X88503390Y-75163252D02*
X88455771Y-75068014D01*
X88455771Y-75068014D02*
X88408152Y-75020395D01*
X88408152Y-75020395D02*
X88312914Y-74972776D01*
X88312914Y-74972776D02*
X88265295Y-74972776D01*
X88265295Y-74972776D02*
X88170057Y-75020395D01*
X88170057Y-75020395D02*
X88122438Y-75068014D01*
X88122438Y-75068014D02*
X88074819Y-75163252D01*
X88074819Y-75163252D02*
X88074819Y-75353728D01*
X88074819Y-75353728D02*
X88122438Y-75448966D01*
X88122438Y-75448966D02*
X88170057Y-75496585D01*
X88170057Y-75496585D02*
X88265295Y-75544204D01*
X88265295Y-75544204D02*
X88312914Y-75544204D01*
X88312914Y-75544204D02*
X88408152Y-75496585D01*
X88408152Y-75496585D02*
X88455771Y-75448966D01*
X88455771Y-75448966D02*
X88503390Y-75353728D01*
X88503390Y-75353728D02*
X88503390Y-75163252D01*
X88503390Y-75163252D02*
X88551009Y-75068014D01*
X88551009Y-75068014D02*
X88598628Y-75020395D01*
X88598628Y-75020395D02*
X88693866Y-74972776D01*
X88693866Y-74972776D02*
X88884342Y-74972776D01*
X88884342Y-74972776D02*
X88979580Y-75020395D01*
X88979580Y-75020395D02*
X89027200Y-75068014D01*
X89027200Y-75068014D02*
X89074819Y-75163252D01*
X89074819Y-75163252D02*
X89074819Y-75353728D01*
X89074819Y-75353728D02*
X89027200Y-75448966D01*
X89027200Y-75448966D02*
X88979580Y-75496585D01*
X88979580Y-75496585D02*
X88884342Y-75544204D01*
X88884342Y-75544204D02*
X88693866Y-75544204D01*
X88693866Y-75544204D02*
X88598628Y-75496585D01*
X88598628Y-75496585D02*
X88551009Y-75448966D01*
X88551009Y-75448966D02*
X88503390Y-75353728D01*
X104359580Y-77157142D02*
X104407200Y-77109523D01*
X104407200Y-77109523D02*
X104454819Y-76966666D01*
X104454819Y-76966666D02*
X104454819Y-76871428D01*
X104454819Y-76871428D02*
X104407200Y-76728571D01*
X104407200Y-76728571D02*
X104311961Y-76633333D01*
X104311961Y-76633333D02*
X104216723Y-76585714D01*
X104216723Y-76585714D02*
X104026247Y-76538095D01*
X104026247Y-76538095D02*
X103883390Y-76538095D01*
X103883390Y-76538095D02*
X103692914Y-76585714D01*
X103692914Y-76585714D02*
X103597676Y-76633333D01*
X103597676Y-76633333D02*
X103502438Y-76728571D01*
X103502438Y-76728571D02*
X103454819Y-76871428D01*
X103454819Y-76871428D02*
X103454819Y-76966666D01*
X103454819Y-76966666D02*
X103502438Y-77109523D01*
X103502438Y-77109523D02*
X103550057Y-77157142D01*
X103454819Y-77490476D02*
X103454819Y-78109523D01*
X103454819Y-78109523D02*
X103835771Y-77776190D01*
X103835771Y-77776190D02*
X103835771Y-77919047D01*
X103835771Y-77919047D02*
X103883390Y-78014285D01*
X103883390Y-78014285D02*
X103931009Y-78061904D01*
X103931009Y-78061904D02*
X104026247Y-78109523D01*
X104026247Y-78109523D02*
X104264342Y-78109523D01*
X104264342Y-78109523D02*
X104359580Y-78061904D01*
X104359580Y-78061904D02*
X104407200Y-78014285D01*
X104407200Y-78014285D02*
X104454819Y-77919047D01*
X104454819Y-77919047D02*
X104454819Y-77633333D01*
X104454819Y-77633333D02*
X104407200Y-77538095D01*
X104407200Y-77538095D02*
X104359580Y-77490476D01*
X103454819Y-78442857D02*
X103454819Y-79109523D01*
X103454819Y-79109523D02*
X104454819Y-78680952D01*
D12*
%TO.C,U2*%
X93500000Y-76672520D02*
X99510000Y-76672520D01*
X95750000Y-69852520D02*
X99510000Y-69852520D01*
X99510000Y-69852520D02*
X99510000Y-71112520D01*
X99510000Y-76672520D02*
X99510000Y-75412520D01*
%TO.C,U3*%
X106138540Y-76851560D02*
X112148540Y-76851560D01*
X108388540Y-70031560D02*
X112148540Y-70031560D01*
X112148540Y-70031560D02*
X112148540Y-71291560D01*
X112148540Y-76851560D02*
X112148540Y-75591560D01*
%TO.C,R19*%
X109205500Y-110473258D02*
X109205500Y-109998742D01*
X110250500Y-110473258D02*
X110250500Y-109998742D01*
%TO.C,R11*%
X89657660Y-79025982D02*
X89657660Y-79500498D01*
X90702660Y-79025982D02*
X90702660Y-79500498D01*
%TO.C,R12*%
X87877500Y-85437742D02*
X87877500Y-85912258D01*
X88922500Y-85437742D02*
X88922500Y-85912258D01*
%TO.C,R13*%
X87877500Y-88437742D02*
X87877500Y-88912258D01*
X88922500Y-88437742D02*
X88922500Y-88912258D01*
%TO.C,R16*%
X90877500Y-95207858D02*
X90877500Y-94733342D01*
X91922500Y-95207858D02*
X91922500Y-94733342D01*
%TO.C,R17*%
X92577500Y-95207858D02*
X92577500Y-94733342D01*
X93622500Y-95207858D02*
X93622500Y-94733342D01*
%TO.C,R18*%
X94477500Y-95206018D02*
X94477500Y-94731502D01*
X95522500Y-95206018D02*
X95522500Y-94731502D01*
%TO.C,C26*%
X89290000Y-96284420D02*
X89290000Y-96565580D01*
X90310000Y-96284420D02*
X90310000Y-96565580D01*
%TO.C,C29*%
X90490000Y-107040580D02*
X90490000Y-106759420D01*
X91510000Y-107040580D02*
X91510000Y-106759420D01*
%TO.C,C32*%
X91990000Y-107040580D02*
X91990000Y-106759420D01*
X93010000Y-107040580D02*
X93010000Y-106759420D01*
%TO.C,C23*%
X110742000Y-110388580D02*
X110742000Y-110107420D01*
X111762000Y-110388580D02*
X111762000Y-110107420D01*
%TO.C,C18*%
X90117200Y-123490580D02*
X90117200Y-123209420D01*
X91137200Y-123490580D02*
X91137200Y-123209420D01*
%TO.C,C24*%
X91197820Y-70457600D02*
X91478980Y-70457600D01*
X91197820Y-71477600D02*
X91478980Y-71477600D01*
%TO.C,C25*%
X106126100Y-68490000D02*
X106407260Y-68490000D01*
X106126100Y-69510000D02*
X106407260Y-69510000D01*
%TO.C,C35*%
X91690000Y-74156180D02*
X91690000Y-73875020D01*
X92710000Y-74156180D02*
X92710000Y-73875020D01*
%TO.C,C36*%
X103528400Y-70477200D02*
X103528400Y-70758360D01*
X104548400Y-70477200D02*
X104548400Y-70758360D01*
%TO.C,C27*%
X97990000Y-109459420D02*
X97990000Y-109740580D01*
X99010000Y-109459420D02*
X99010000Y-109740580D01*
%TO.C,C30*%
X94990000Y-91515580D02*
X94990000Y-91234420D01*
X96010000Y-91515580D02*
X96010000Y-91234420D01*
%TO.C,C33*%
X95890000Y-109459420D02*
X95890000Y-109740580D01*
X96910000Y-109459420D02*
X96910000Y-109740580D01*
%TO.C,C28*%
X87565580Y-99690000D02*
X87284420Y-99690000D01*
X87565580Y-100710000D02*
X87284420Y-100710000D01*
%TO.C,C22*%
X91084420Y-109690000D02*
X91365580Y-109690000D01*
X91084420Y-110710000D02*
X91365580Y-110710000D01*
%TO.C,L3*%
X86706640Y-102883068D02*
X86706640Y-103405572D01*
X88126640Y-102883068D02*
X88126640Y-103405572D01*
%TO.C,L2*%
X88890000Y-92813748D02*
X88890000Y-93336252D01*
X90310000Y-92813748D02*
X90310000Y-93336252D01*
%TO.C,C38*%
X89565000Y-74021048D02*
X89565000Y-74543552D01*
X91035000Y-74021048D02*
X91035000Y-74543552D01*
%TO.C,C37*%
X103303400Y-74173448D02*
X103303400Y-74695952D01*
X104773400Y-74173448D02*
X104773400Y-74695952D01*
%TD*%
M02*
