M48
; DRILL file {KiCad 9.0.1+1} date 2025-10-24T14:20:15+0000
; FORMAT={3:3/ absolute / metric / suppress leading zeros}
; #@! TF.CreationDate,2025-10-24T14:20:15+00:00
; #@! TF.GenerationSoftware,Kicad,Pcbnew,9.0.1+1
; #@! TF.FileFunction,Plated,1,2,PTH
FMAT,2
METRIC,TZ
; #@! TA.AperFunction,Plated,PTH,ComponentDrill
T1C0.200
; #@! TA.AperFunction,Plated,PTH,ViaDrill
T2C0.400
; #@! TA.AperFunction,Plated,PTH,ComponentDrill
T3C0.740
; #@! TA.AperFunction,Plated,PTH,ComponentDrill
T4C0.800
; #@! TA.AperFunction,Plated,PTH,ComponentDrill
T5C0.889
; #@! TA.AperFunction,Plated,PTH,ComponentDrill
T6C1.350
; #@! TA.AperFunction,Plated,PTH,ComponentDrill
T7C3.000
%
G90
G05
T1
X89245Y-99300
X89245Y-100450
X89245Y-101600
X89245Y-102750
X89245Y-103900
X90395Y-98150
X90395Y-99300
X90395Y-100450
X90395Y-101600
X90395Y-102750
X90395Y-103900
X90395Y-105050
X91545Y-98150
X91545Y-99300
X91545Y-100450
X91545Y-101600
X91545Y-102750
X91545Y-103900
X91545Y-105050
X92695Y-98150
X92695Y-99300
X92695Y-100450
X92695Y-101600
X92695Y-102750
X92695Y-103900
X92695Y-105050
X93845Y-98150
X93845Y-99300
X93845Y-100450
X93845Y-101600
X93845Y-102750
X93845Y-103900
X93845Y-105050
X94995Y-98150
X94995Y-99300
X94995Y-100450
X94995Y-101600
X94995Y-102750
X94995Y-103900
X94995Y-105050
X96145Y-99300
X96145Y-100450
X96145Y-101600
X96145Y-102750
X96145Y-103900
T2
X62230Y-76200
X62230Y-82550
X62230Y-88900
X62230Y-95250
X62230Y-101600
X62230Y-107950
X62230Y-114300
X62230Y-120650
X62230Y-127000
X64300Y-88200
X64300Y-92100
X64300Y-111100
X64300Y-114900
X67308Y-90168
X67310Y-86360
X67310Y-93980
X67310Y-109220
X67310Y-113030
X67310Y-116840
X69848Y-76198
X69848Y-86358
X69850Y-68580
X69850Y-90170
X69850Y-93980
X69850Y-109220
X69850Y-113030
X69850Y-116840
X69850Y-127000
X69850Y-134620
X71500Y-90200
X72388Y-94200
X72500Y-86200
X72600Y-109100
X72600Y-116900
X73100Y-113000
X73658Y-78738
X73660Y-73660
X73660Y-76200
X73660Y-81280
X73660Y-121920
X73660Y-124460
X73660Y-127000
X73660Y-129540
X74676Y-82550
X74676Y-120650
X74928Y-86358
X74930Y-90170
X74930Y-113030
X74930Y-116840
X75184Y-118364
X75311Y-84836
X75690Y-93978
X75690Y-98931
X75692Y-96520
X75692Y-104267
X75692Y-106680
X75692Y-109220
X75800Y-70600
X75800Y-132600
X76198Y-91057
X76200Y-68580
X76200Y-100584
X76200Y-102616
X76200Y-112141
X76200Y-134620
X76325Y-87120
X76327Y-89408
X76327Y-113792
X76327Y-116078
X76962Y-82550
X76962Y-86233
X76962Y-116967
X76962Y-120650
X77470Y-101600
X77700Y-123900
X77722Y-76198
X77722Y-79300
X77722Y-81278
X77724Y-73660
X77724Y-121920
X77724Y-127000
X77724Y-129540
X77851Y-89789
X77851Y-113411
X78103Y-91438
X78103Y-93978
X78103Y-96518
X78105Y-84201
X78105Y-106680
X78105Y-109220
X78105Y-111760
X78105Y-118999
X78230Y-99058
X78232Y-104140
X78486Y-82548
X78486Y-87122
X78486Y-116078
X78486Y-120650
X79248Y-99695
X79248Y-103505
X79600Y-70600
X79600Y-132600
X79629Y-84201
X79629Y-118872
X80137Y-88519
X80137Y-114681
X80289Y-85319
X80391Y-117856
X80645Y-91440
X80645Y-93980
X80645Y-96520
X80645Y-106680
X80645Y-109220
X80645Y-111760
X80772Y-120904
X80899Y-82220
X81659Y-76198
X81659Y-78738
X81661Y-73660
X81661Y-124460
X81661Y-127000
X81661Y-129540
X81786Y-81278
X81786Y-86739
X81788Y-98298
X81788Y-104902
X81788Y-116459
X81788Y-121920
X81915Y-85090
X81915Y-118110
X82550Y-68580
X82550Y-134620
X82931Y-88900
X82931Y-114300
X83056Y-83056
X83058Y-120142
X83183Y-91438
X83183Y-93978
X83185Y-109220
X83185Y-111760
X83310Y-86739
X83312Y-96520
X83312Y-106680
X83312Y-116459
X84199Y-88898
X84201Y-114300
X84580Y-91438
X84580Y-93978
X84582Y-84455
X84582Y-109220
X84582Y-111760
X84582Y-118745
X84709Y-96901
X84836Y-106299
X85725Y-116840
X86487Y-114300
X86792Y-111531
X86868Y-109220
X86900Y-107400
X87500Y-96700
X87630Y-123800
X88300Y-93200
X88500Y-95400
X88700Y-111300
X88900Y-134620
X89400Y-109800
X89418Y-70932
X89900Y-94900
X89900Y-110700
X90000Y-108400
X90065Y-111760
X90065Y-114303
X90100Y-107300
X90564Y-127102
X90627Y-125222
X91059Y-116840
X91200Y-76650
X91400Y-80800
X91400Y-85900
X91669Y-122644
X92200Y-107200
X92320Y-111550
X92500Y-114660
X92583Y-119380
X92600Y-129300
X94000Y-132500
X94234Y-116840
X94600Y-107800
X94700Y-108900
X94996Y-119380
X95100Y-92300
X95100Y-111600
X95100Y-115300
X95220Y-89888
X95225Y-83300
X95225Y-86360
X95225Y-88900
X95250Y-68580
X95250Y-134620
X96100Y-81200
X96520Y-121920
X96700Y-80100
X97079Y-125222
X97200Y-127100
X97400Y-106100
X97700Y-74900
X97700Y-96800
X97700Y-132500
X97790Y-78740
X97900Y-108800
X98000Y-71700
X98000Y-93100
X99060Y-124460
X99300Y-77700
X99600Y-129300
X100330Y-76200
X101600Y-127000
X101600Y-134620
X105321Y-70472
X105410Y-128270
X107950Y-128270
X107950Y-134620
X108500Y-68900
X110490Y-74930
X110490Y-128270
X112014Y-97028
X112522Y-106172
X113030Y-128270
X114300Y-134620
X114427Y-97028
X114935Y-106172
X115570Y-128270
X117348Y-97028
X117602Y-106172
X118110Y-128270
X120650Y-76200
X120650Y-127000
X120650Y-134620
X120777Y-97028
X121285Y-106172
X123190Y-78740
X123190Y-97028
X123190Y-124460
X123698Y-106172
X125476Y-96266
X125730Y-81280
X125730Y-83820
X125730Y-86360
X125730Y-88900
X125730Y-91440
X125730Y-93980
X125730Y-121920
X126365Y-109220
X126365Y-111760
X126365Y-114300
X126365Y-116840
X126365Y-119380
X128270Y-76200
X128270Y-82550
X128270Y-88900
X128270Y-114300
X128270Y-120650
X128270Y-127000
T3
X64262Y-86360
X64262Y-90170
X64262Y-93980
X64262Y-109220
X64262Y-113030
X64262Y-116840
X65762Y-87630
X65762Y-88900
X65762Y-91440
X65762Y-92710
X65762Y-110490
X65762Y-111760
X65762Y-114300
X65762Y-115570
X73865Y-132588
X73915Y-70636
X75135Y-131088
X75185Y-72136
X76405Y-131088
X76455Y-72136
X77675Y-132588
X77725Y-70636
X78945Y-131088
X78995Y-72136
X80215Y-131088
X80265Y-72136
X81485Y-132588
X81535Y-70636
X92015Y-132588
X93285Y-131088
X94555Y-131088
X95825Y-132588
X97095Y-131088
X98365Y-131088
X99635Y-132588
T4
X110180Y-97580
X110180Y-99610
X110180Y-103600
X110180Y-107840
X127980Y-97580
X127980Y-99610
X127980Y-103600
X127980Y-106840
T5
X85675Y-79070
X85675Y-81610
X88140Y-116460
X88140Y-119000
X90170Y-82042
X90170Y-84582
X90170Y-87122
X90170Y-89662
X92710Y-82042
X92710Y-84582
X92710Y-87122
X92710Y-89662
X93730Y-110550
X93730Y-113090
X116940Y-68730
X116940Y-71270
X116940Y-73810
X119480Y-68730
X119480Y-71270
X119480Y-73810
T6
X65762Y-96440
X65762Y-119300
X66762Y-83610
X66762Y-106470
X71115Y-130088
X71455Y-72136
X83945Y-131088
X84285Y-73136
X89265Y-130088
X102095Y-131088
T7
X64770Y-71120
X64770Y-132080
X125730Y-71120
X125730Y-132080
M30
