%TF.GenerationSoftware,KiCad,Pcbnew,9.0.1+1*%
%TF.CreationDate,2025-10-24T14:20:15+00:00*%
%TF.ProjectId,ADCoctoSPI01,4144436f-6374-46f5-9350-4930312e6b69,rev?*%
%TF.SameCoordinates,Original*%
%TF.FileFunction,Copper,L2,Bot*%
%TF.FilePolarity,Positive*%
%FSLAX46Y46*%
G04 Gerber Fmt 4.6, Leading zero omitted, Abs format (unit mm)*
G04 Created by KiCad (PCBNEW 9.0.1+1) date 2025-10-24 14:20:15*
%MOMM*%
%LPD*%
G01*
G04 APERTURE LIST*
G04 Aperture macros list*
%AMRoundRect*
0 Rectangle with rounded corners*
0 $1 Rounding radius*
0 $2 $3 $4 $5 $6 $7 $8 $9 X,Y pos of 4 corners*
0 Add a 4 corners polygon primitive as box body*
4,1,4,$2,$3,$4,$5,$6,$7,$8,$9,$2,$3,0*
0 Add four circle primitives for the rounded corners*
1,1,$1+$1,$2,$3*
1,1,$1+$1,$4,$5*
1,1,$1+$1,$6,$7*
1,1,$1+$1,$8,$9*
0 Add four rect primitives between the rounded corners*
20,1,$1+$1,$2,$3,$4,$5,0*
20,1,$1+$1,$4,$5,$6,$7,0*
20,1,$1+$1,$6,$7,$8,$9,0*
20,1,$1+$1,$8,$9,$2,$3,0*%
G04 Aperture macros list end*
%TA.AperFunction,EtchedComponent*%
%ADD10C,0.000000*%
%TD*%
%TA.AperFunction,ComponentPad*%
%ADD11C,6.000000*%
%TD*%
%TA.AperFunction,ComponentPad*%
%ADD12O,1.100000X1.300000*%
%TD*%
%TA.AperFunction,ComponentPad*%
%ADD13C,2.500000*%
%TD*%
%TA.AperFunction,ComponentPad*%
%ADD14O,1.300000X1.100000*%
%TD*%
%TA.AperFunction,ComponentPad*%
%ADD15R,1.524000X1.524000*%
%TD*%
%TA.AperFunction,ComponentPad*%
%ADD16C,1.550000*%
%TD*%
%TA.AperFunction,ComponentPad*%
%ADD17C,0.400000*%
%TD*%
%TA.AperFunction,SMDPad,CuDef*%
%ADD18R,2.000000X1.500000*%
%TD*%
%TA.AperFunction,SMDPad,CuDef*%
%ADD19R,2.000000X3.800000*%
%TD*%
%TA.AperFunction,SMDPad,CuDef*%
%ADD20RoundRect,0.200000X0.275000X-0.200000X0.275000X0.200000X-0.275000X0.200000X-0.275000X-0.200000X0*%
%TD*%
%TA.AperFunction,SMDPad,CuDef*%
%ADD21RoundRect,0.200000X-0.275000X0.200000X-0.275000X-0.200000X0.275000X-0.200000X0.275000X0.200000X0*%
%TD*%
%TA.AperFunction,SMDPad,CuDef*%
%ADD22RoundRect,0.225000X-0.250000X0.225000X-0.250000X-0.225000X0.250000X-0.225000X0.250000X0.225000X0*%
%TD*%
%TA.AperFunction,SMDPad,CuDef*%
%ADD23RoundRect,0.225000X0.250000X-0.225000X0.250000X0.225000X-0.250000X0.225000X-0.250000X-0.225000X0*%
%TD*%
%TA.AperFunction,SMDPad,CuDef*%
%ADD24RoundRect,0.225000X-0.225000X-0.250000X0.225000X-0.250000X0.225000X0.250000X-0.225000X0.250000X0*%
%TD*%
%TA.AperFunction,SMDPad,CuDef*%
%ADD25RoundRect,0.225000X0.225000X0.250000X-0.225000X0.250000X-0.225000X-0.250000X0.225000X-0.250000X0*%
%TD*%
%TA.AperFunction,SMDPad,CuDef*%
%ADD26RoundRect,0.250000X-0.450000X0.325000X-0.450000X-0.325000X0.450000X-0.325000X0.450000X0.325000X0*%
%TD*%
%TA.AperFunction,SMDPad,CuDef*%
%ADD27RoundRect,0.250000X-0.475000X0.250000X-0.475000X-0.250000X0.475000X-0.250000X0.475000X0.250000X0*%
%TD*%
%TA.AperFunction,SMDPad,CuDef*%
%ADD28C,0.500000*%
%TD*%
%TA.AperFunction,ViaPad*%
%ADD29C,0.800000*%
%TD*%
%TA.AperFunction,ViaPad*%
%ADD30C,0.750000*%
%TD*%
%TA.AperFunction,Conductor*%
%ADD31C,0.300000*%
%TD*%
%TA.AperFunction,Conductor*%
%ADD32C,0.400000*%
%TD*%
%TA.AperFunction,Conductor*%
%ADD33C,0.500000*%
%TD*%
%TA.AperFunction,Conductor*%
%ADD34C,1.000000*%
%TD*%
%TA.AperFunction,Conductor*%
%ADD35C,0.200000*%
%TD*%
%TA.AperFunction,Conductor*%
%ADD36C,0.250000*%
%TD*%
%TA.AperFunction,Conductor*%
%ADD37C,0.800000*%
%TD*%
G04 APERTURE END LIST*
D10*
%TA.AperFunction,EtchedComponent*%
%TO.C,JP1*%
G36*
X89650000Y-106100000D02*
G01*
X89150000Y-106100000D01*
X89150000Y-105100000D01*
X89650000Y-105100000D01*
X89650000Y-106100000D01*
G37*
%TD.AperFunction*%
%TD*%
D11*
%TO.P,M1,1*%
%TO.N,GND*%
X64770000Y-71120000D03*
%TD*%
%TO.P,M2,1*%
%TO.N,GND*%
X125730000Y-71120000D03*
%TD*%
%TO.P,M3,1*%
%TO.N,GND*%
X125730000Y-132080000D03*
%TD*%
%TO.P,M4,1*%
%TO.N,GND*%
X64770000Y-132080000D03*
%TD*%
D12*
%TO.P,J7,1,1*%
%TO.N,GND*%
X99635000Y-132588000D03*
%TO.P,J7,2,2*%
%TO.N,/CLK1_N*%
X98365000Y-131088000D03*
%TO.P,J7,3,3*%
%TO.N,/CLK1_P*%
X97095000Y-131088000D03*
%TO.P,J7,4,4*%
%TO.N,GND*%
X95825000Y-132588000D03*
%TO.P,J7,5,5*%
%TO.N,unconnected-(J7-Pad5)*%
X94555000Y-131088000D03*
%TO.P,J7,6,6*%
%TO.N,unconnected-(J7-Pad6)*%
X93285000Y-131088000D03*
%TO.P,J7,7,7*%
%TO.N,GND*%
X92015000Y-132588000D03*
D13*
%TO.P,J7,8*%
%TO.N,N/C*%
X89265000Y-130088000D03*
%TO.P,J7,9*%
X102095000Y-131088000D03*
%TD*%
D12*
%TO.P,J4,1,1*%
%TO.N,GND*%
X81485000Y-132588000D03*
%TO.P,J4,2,2*%
%TO.N,Net-(C16-Pad2)*%
X80215000Y-131088000D03*
%TO.P,J4,3,3*%
%TO.N,Net-(C15-Pad2)*%
X78945000Y-131088000D03*
%TO.P,J4,4,4*%
%TO.N,GND*%
X77675000Y-132588000D03*
%TO.P,J4,5,5*%
%TO.N,Net-(C8-Pad2)*%
X76405000Y-131088000D03*
%TO.P,J4,6,6*%
%TO.N,Net-(C7-Pad2)*%
X75135000Y-131088000D03*
%TO.P,J4,7,7*%
%TO.N,GND*%
X73865000Y-132588000D03*
D13*
%TO.P,J4,8*%
%TO.N,N/C*%
X71115000Y-130088000D03*
%TO.P,J4,9*%
X83945000Y-131088000D03*
%TD*%
D12*
%TO.P,J1,1,1*%
%TO.N,GND*%
X73915000Y-70636000D03*
%TO.P,J1,2,2*%
%TO.N,Net-(C10-Pad2)*%
X75185000Y-72136000D03*
%TO.P,J1,3,3*%
%TO.N,Net-(C9-Pad2)*%
X76455000Y-72136000D03*
%TO.P,J1,4,4*%
%TO.N,GND*%
X77725000Y-70636000D03*
%TO.P,J1,5,5*%
%TO.N,Net-(C2-Pad2)*%
X78995000Y-72136000D03*
%TO.P,J1,6,6*%
%TO.N,Net-(C1-Pad2)*%
X80265000Y-72136000D03*
%TO.P,J1,7,7*%
%TO.N,GND*%
X81535000Y-70636000D03*
D13*
%TO.P,J1,8*%
%TO.N,N/C*%
X84285000Y-73136000D03*
%TO.P,J1,9*%
X71455000Y-72136000D03*
%TD*%
D14*
%TO.P,J2,1,1*%
%TO.N,GND*%
X64262000Y-93980000D03*
%TO.P,J2,2,2*%
%TO.N,Net-(C12-Pad2)*%
X65762000Y-92710000D03*
%TO.P,J2,3,3*%
%TO.N,Net-(C11-Pad2)*%
X65762000Y-91440000D03*
%TO.P,J2,4,4*%
%TO.N,GND*%
X64262000Y-90170000D03*
%TO.P,J2,5,5*%
%TO.N,Net-(C4-Pad2)*%
X65762000Y-88900000D03*
%TO.P,J2,6,6*%
%TO.N,Net-(C3-Pad2)*%
X65762000Y-87630000D03*
%TO.P,J2,7,7*%
%TO.N,GND*%
X64262000Y-86360000D03*
D13*
%TO.P,J2,8*%
%TO.N,N/C*%
X66762000Y-83610000D03*
%TO.P,J2,9*%
X65762000Y-96440000D03*
%TD*%
D14*
%TO.P,J3,1,1*%
%TO.N,GND*%
X64262000Y-116840000D03*
%TO.P,J3,2,2*%
%TO.N,Net-(C14-Pad2)*%
X65762000Y-115570000D03*
%TO.P,J3,3,3*%
%TO.N,Net-(C13-Pad2)*%
X65762000Y-114300000D03*
%TO.P,J3,4,4*%
%TO.N,GND*%
X64262000Y-113030000D03*
%TO.P,J3,5,5*%
%TO.N,Net-(C6-Pad2)*%
X65762000Y-111760000D03*
%TO.P,J3,6,6*%
%TO.N,Net-(C5-Pad2)*%
X65762000Y-110490000D03*
%TO.P,J3,7,7*%
%TO.N,GND*%
X64262000Y-109220000D03*
D13*
%TO.P,J3,8*%
%TO.N,N/C*%
X66762000Y-106470000D03*
%TO.P,J3,9*%
X65762000Y-119300000D03*
%TD*%
D15*
%TO.P,J8,1*%
%TO.N,Net-(U1-PDN)*%
X90170000Y-82042000D03*
%TO.P,J8,2*%
%TO.N,Net-(U1-SDOUT)*%
X92710000Y-82042000D03*
%TO.P,J8,3*%
%TO.N,Net-(U1-SYNC)*%
X90170000Y-84582000D03*
%TO.P,J8,4*%
%TO.N,Net-(U1-SEN)*%
X92710000Y-84582000D03*
%TO.P,J8,5*%
%TO.N,Net-(U1-RESET)*%
X90170000Y-87122000D03*
%TO.P,J8,6*%
%TO.N,Net-(U1-SDATA)*%
X92710000Y-87122000D03*
%TO.P,J8,7*%
%TO.N,Net-(U1-SCLK)*%
X90170000Y-89662000D03*
%TO.P,J8,8*%
%TO.N,GND*%
X92710000Y-89662000D03*
%TD*%
%TO.P,J6,1*%
%TO.N,Net-(C19-Pad1)*%
X85675000Y-81610000D03*
%TO.P,J6,2*%
%TO.N,GND*%
X85675000Y-79070000D03*
%TD*%
%TO.P,J5,1*%
%TO.N,Net-(C17-Pad2)*%
X88140000Y-116460000D03*
%TO.P,J5,2*%
%TO.N,GND*%
X88140000Y-119000000D03*
%TD*%
%TO.P,J9,1*%
%TO.N,Net-(U1-VREF_IN)*%
X93730000Y-110550000D03*
%TO.P,J9,2*%
%TO.N,GND*%
X93730000Y-113090000D03*
%TD*%
%TO.P,J11,1*%
%TO.N,GND*%
X116940000Y-68730000D03*
%TO.P,J11,2*%
X119480000Y-68730000D03*
%TO.P,J11,3*%
%TO.N,VCC*%
X116940000Y-71270000D03*
%TO.P,J11,4*%
X119480000Y-71270000D03*
%TO.P,J11,5*%
%TO.N,GND*%
X116940000Y-73810000D03*
%TO.P,J11,6*%
X119480000Y-73810000D03*
%TD*%
D16*
%TO.P,J10,1*%
%TO.N,Net-(C23-Pad2)*%
X127980280Y-106840000D03*
%TO.P,J10,2*%
X127980280Y-103600000D03*
%TO.P,J10,3*%
X127980280Y-99610000D03*
%TO.P,J10,4*%
X127980280Y-97580000D03*
%TO.P,J10,5*%
X110180280Y-107840000D03*
%TO.P,J10,6*%
X110180280Y-103600000D03*
%TO.P,J10,7*%
X110180280Y-99610000D03*
%TO.P,J10,8*%
X110180280Y-97580000D03*
%TD*%
D17*
%TO.P,U1,65,AVSS*%
%TO.N,GNDA*%
X89244800Y-99300000D03*
X89244800Y-100450000D03*
X89244800Y-101600000D03*
X89244800Y-102750000D03*
X89244800Y-103900000D03*
X90394800Y-98150000D03*
X90394800Y-99300000D03*
X90394800Y-100450000D03*
X90394800Y-101600000D03*
X90394800Y-102750000D03*
X90394800Y-103900000D03*
X90394800Y-105050000D03*
X91544800Y-98150000D03*
X91544800Y-99300000D03*
X91544800Y-100450000D03*
X91544800Y-101600000D03*
X91544800Y-102750000D03*
X91544800Y-103900000D03*
X91544800Y-105050000D03*
X92694800Y-98150000D03*
X92694800Y-99300000D03*
X92694800Y-100450000D03*
X92694800Y-101600000D03*
X92694800Y-102750000D03*
X92694800Y-103900000D03*
X92694800Y-105050000D03*
X93844800Y-98150000D03*
X93844800Y-99300000D03*
X93844800Y-100450000D03*
X93844800Y-101600000D03*
X93844800Y-102750000D03*
X93844800Y-103900000D03*
X93844800Y-105050000D03*
X94994800Y-98150000D03*
X94994800Y-99300000D03*
X94994800Y-100450000D03*
X94994800Y-101600000D03*
X94994800Y-102750000D03*
X94994800Y-103900000D03*
X94994800Y-105050000D03*
X96144800Y-99300000D03*
X96144800Y-100450000D03*
X96144800Y-101600000D03*
X96144800Y-102750000D03*
X96144800Y-103900000D03*
%TD*%
D18*
%TO.P,U2,1,GND*%
%TO.N,GND*%
X94450000Y-75562520D03*
%TO.P,U2,2,VO*%
%TO.N,DVDD*%
X94450000Y-73262520D03*
D19*
X100750000Y-73262520D03*
D18*
%TO.P,U2,3,VI*%
%TO.N,DVDD3V3*%
X94450000Y-70962520D03*
%TD*%
%TO.P,U3,1,GND*%
%TO.N,GND*%
X107088540Y-75741560D03*
%TO.P,U3,2,VO*%
%TO.N,DVDD3V3*%
X107088540Y-73441560D03*
D19*
X113388540Y-73441560D03*
D18*
%TO.P,U3,3,VI*%
%TO.N,VCC*%
X107088540Y-71141560D03*
%TD*%
D20*
%TO.P,R19,1*%
%TO.N,GND*%
X109728000Y-111061000D03*
%TO.P,R19,2*%
%TO.N,Net-(C23-Pad2)*%
X109728000Y-109411000D03*
%TD*%
D21*
%TO.P,R11,1*%
%TO.N,GND*%
X90180160Y-78438240D03*
%TO.P,R11,2*%
%TO.N,Net-(U1-PDN)*%
X90180160Y-80088240D03*
%TD*%
%TO.P,R12,1*%
%TO.N,Net-(U1-SYNC)*%
X88400000Y-84850000D03*
%TO.P,R12,2*%
%TO.N,GND*%
X88400000Y-86500000D03*
%TD*%
%TO.P,R13,1*%
%TO.N,Net-(U1-RESET)*%
X88400000Y-87850000D03*
%TO.P,R13,2*%
%TO.N,GND*%
X88400000Y-89500000D03*
%TD*%
D20*
%TO.P,R16,1*%
%TO.N,DVDD3V3*%
X91400000Y-95795600D03*
%TO.P,R16,2*%
%TO.N,Net-(U1-SCLK)*%
X91400000Y-94145600D03*
%TD*%
%TO.P,R17,1*%
%TO.N,DVDD3V3*%
X93100000Y-95795600D03*
%TO.P,R17,2*%
%TO.N,Net-(U1-SDATA)*%
X93100000Y-94145600D03*
%TD*%
%TO.P,R18,1*%
%TO.N,DVDD3V3*%
X95000000Y-95793760D03*
%TO.P,R18,2*%
%TO.N,Net-(U1-SEN)*%
X95000000Y-94143760D03*
%TD*%
D22*
%TO.P,C26,1*%
%TO.N,AVDD*%
X89800000Y-95650000D03*
%TO.P,C26,2*%
%TO.N,GNDA*%
X89800000Y-97200000D03*
%TD*%
D23*
%TO.P,C29,1*%
%TO.N,AVDD*%
X91000000Y-107675000D03*
%TO.P,C29,2*%
%TO.N,GNDA*%
X91000000Y-106125000D03*
%TD*%
%TO.P,C32,1*%
%TO.N,AVDD*%
X92500000Y-107675000D03*
%TO.P,C32,2*%
%TO.N,GNDA*%
X92500000Y-106125000D03*
%TD*%
%TO.P,C23,1*%
%TO.N,GND*%
X111252000Y-111023000D03*
%TO.P,C23,2*%
%TO.N,Net-(C23-Pad2)*%
X111252000Y-109473000D03*
%TD*%
%TO.P,C18,1*%
%TO.N,Net-(C18-Pad1)*%
X90627200Y-124125000D03*
%TO.P,C18,2*%
%TO.N,GND*%
X90627200Y-122575000D03*
%TD*%
D24*
%TO.P,C24,1*%
%TO.N,GND*%
X90563400Y-70967600D03*
%TO.P,C24,2*%
%TO.N,DVDD3V3*%
X92113400Y-70967600D03*
%TD*%
%TO.P,C25,1*%
%TO.N,GND*%
X105491680Y-69000000D03*
%TO.P,C25,2*%
%TO.N,VCC*%
X107041680Y-69000000D03*
%TD*%
D23*
%TO.P,C35,1*%
%TO.N,GND*%
X92200000Y-74790600D03*
%TO.P,C35,2*%
%TO.N,DVDD*%
X92200000Y-73240600D03*
%TD*%
D22*
%TO.P,C36,1*%
%TO.N,GND*%
X104038400Y-69842780D03*
%TO.P,C36,2*%
%TO.N,DVDD3V3*%
X104038400Y-71392780D03*
%TD*%
%TO.P,C27,1*%
%TO.N,DVDD*%
X98500000Y-108825000D03*
%TO.P,C27,2*%
%TO.N,GND*%
X98500000Y-110375000D03*
%TD*%
D23*
%TO.P,C30,1*%
%TO.N,DVDD*%
X95500000Y-92150000D03*
%TO.P,C30,2*%
%TO.N,GND*%
X95500000Y-90600000D03*
%TD*%
D22*
%TO.P,C33,1*%
%TO.N,DVDD*%
X96400000Y-108825000D03*
%TO.P,C33,2*%
%TO.N,GND*%
X96400000Y-110375000D03*
%TD*%
D25*
%TO.P,C28,1*%
%TO.N,DVDD3V3*%
X88200000Y-100200000D03*
%TO.P,C28,2*%
%TO.N,GND*%
X86650000Y-100200000D03*
%TD*%
D24*
%TO.P,C22,1*%
%TO.N,GND*%
X90450000Y-110200000D03*
%TO.P,C22,2*%
%TO.N,Net-(U1-VREF_IN)*%
X92000000Y-110200000D03*
%TD*%
D26*
%TO.P,L3,1,1*%
%TO.N,DVDD3V3*%
X87416640Y-102119320D03*
%TO.P,L3,2,2*%
%TO.N,AVDD3V3*%
X87416640Y-104169320D03*
%TD*%
%TO.P,L2,1,1*%
%TO.N,DVDD*%
X89600000Y-92050000D03*
%TO.P,L2,2,2*%
%TO.N,AVDD*%
X89600000Y-94100000D03*
%TD*%
D27*
%TO.P,C38,1*%
%TO.N,DVDD*%
X90300000Y-73332300D03*
%TO.P,C38,2*%
%TO.N,GND*%
X90300000Y-75232300D03*
%TD*%
%TO.P,C37,1*%
%TO.N,DVDD3V3*%
X104038400Y-73484700D03*
%TO.P,C37,2*%
%TO.N,GND*%
X104038400Y-75384700D03*
%TD*%
D28*
%TO.P,JP1,1,A*%
%TO.N,GND*%
X89400000Y-106100000D03*
%TO.P,JP1,2,B*%
%TO.N,GNDA*%
X89400000Y-105100000D03*
%TD*%
D29*
%TO.N,Net-(C17-Pad2)*%
X88700000Y-111300000D03*
D30*
%TO.N,GND*%
X75690320Y-93977978D03*
X75690320Y-98930978D03*
X79248000Y-99695000D03*
X78230320Y-99057978D03*
X78103320Y-96517978D03*
X78103320Y-93977978D03*
X72388320Y-94200000D03*
X69850000Y-93980000D03*
X67310000Y-93980000D03*
X67308320Y-90167978D03*
X69850000Y-90170000D03*
X71500000Y-90200000D03*
X74930000Y-90170000D03*
X62230000Y-127000000D03*
X69850000Y-113030000D03*
X76200000Y-112141000D03*
X69850000Y-134620000D03*
X76327000Y-116078000D03*
X75692000Y-109220000D03*
X62230000Y-120650000D03*
X73660000Y-129540000D03*
X67310000Y-113030000D03*
X73660000Y-127000000D03*
X69850000Y-127000000D03*
X69850000Y-116840000D03*
X72600000Y-116900000D03*
X62230000Y-95250000D03*
X62230000Y-114300000D03*
X77724000Y-129540000D03*
X76200000Y-134620000D03*
X72600000Y-109100000D03*
X62230000Y-107950000D03*
X69850000Y-109220000D03*
X75184000Y-118364000D03*
X62230000Y-101600000D03*
X76962000Y-116967000D03*
X67310000Y-109220000D03*
X74676000Y-120650000D03*
X77724000Y-127000000D03*
X76327000Y-89408000D03*
X62230000Y-88900000D03*
X62230000Y-76200000D03*
X75311000Y-84836000D03*
X72500000Y-86200000D03*
X78486000Y-116078000D03*
X67310000Y-86360000D03*
X62230000Y-82550000D03*
X80137000Y-114681000D03*
X69848320Y-86357978D03*
X76198320Y-91056978D03*
X77851000Y-89789000D03*
X78103320Y-91437978D03*
X74930000Y-116840000D03*
X73100000Y-113000000D03*
X80645000Y-109220000D03*
X78105000Y-111760000D03*
X77851000Y-113411000D03*
X67310000Y-116840000D03*
X76327000Y-113792000D03*
X78232000Y-104140000D03*
X73660000Y-124460000D03*
X69848320Y-76197978D03*
X74930000Y-113030000D03*
X69850000Y-68580000D03*
X80645000Y-111760000D03*
X78105000Y-109220000D03*
X78105000Y-106680000D03*
X77470000Y-101600000D03*
X73660000Y-121920000D03*
X75692000Y-104267000D03*
X84580320Y-93977978D03*
X84580320Y-91437978D03*
X76200000Y-100584000D03*
X79248000Y-103505000D03*
X86868000Y-109220000D03*
X84582000Y-111760000D03*
X84582000Y-109220000D03*
X80645000Y-106680000D03*
X84201000Y-114300000D03*
X83312000Y-106680000D03*
X76962000Y-86233000D03*
X83185000Y-109220000D03*
X84836000Y-106299000D03*
X81788000Y-104902000D03*
X83185000Y-111760000D03*
X82931000Y-114300000D03*
X87500000Y-96700000D03*
X84709000Y-96901000D03*
X78486000Y-82547978D03*
X81788000Y-98298000D03*
X76325320Y-87119978D03*
X83183320Y-93977978D03*
X80645000Y-96520000D03*
X83312000Y-96520000D03*
X80645000Y-93980000D03*
X80645000Y-91440000D03*
X78486000Y-87122000D03*
X75692000Y-106680000D03*
X84582000Y-84455000D03*
X76200000Y-102616000D03*
X81915000Y-85090000D03*
X120777000Y-97028000D03*
X114427000Y-97028000D03*
X80899000Y-82219800D03*
X114935000Y-106172000D03*
X121285000Y-106172000D03*
X83310320Y-86738978D03*
X77722320Y-76197978D03*
X123698000Y-106172000D03*
X117348000Y-97028000D03*
X123190000Y-97028000D03*
X117602000Y-106172000D03*
X125730000Y-88900000D03*
X97790000Y-78740000D03*
X96100000Y-81200000D03*
X125730000Y-86360000D03*
X82931000Y-88900000D03*
X83056320Y-83055978D03*
X81659320Y-76197978D03*
X125730000Y-91440000D03*
X128270000Y-82550000D03*
X108500000Y-68900000D03*
X128270000Y-88900000D03*
X125730000Y-83820000D03*
X74676000Y-82550000D03*
X80289400Y-85318600D03*
X80137000Y-88519000D03*
X76962000Y-82550000D03*
X77722320Y-81277978D03*
X73660000Y-81280000D03*
X73660000Y-76200000D03*
X81786320Y-86738978D03*
X74928320Y-86357978D03*
X78105000Y-84201000D03*
X82550000Y-68580000D03*
X83183320Y-91437978D03*
X79629000Y-84201000D03*
X76200000Y-68580000D03*
X81786320Y-81277978D03*
X77724000Y-73660000D03*
X73660000Y-73660000D03*
X73658320Y-78737978D03*
X84199320Y-88897978D03*
X81661000Y-73660000D03*
X77722320Y-79300000D03*
X105321100Y-70472300D03*
X81659320Y-78737978D03*
X81661000Y-124460000D03*
X81788000Y-121920000D03*
X80772000Y-120904000D03*
X125730000Y-93980000D03*
X81788000Y-116459000D03*
X83312000Y-116459000D03*
X81661000Y-127000000D03*
X80391000Y-117856000D03*
X83058000Y-120142000D03*
X78486000Y-120650000D03*
X76962000Y-120650000D03*
X82550000Y-134620000D03*
X77700000Y-123900000D03*
X79629000Y-118872000D03*
X78105000Y-118999000D03*
X81915000Y-118110000D03*
X77724000Y-121920000D03*
X81661000Y-129540000D03*
X86487000Y-114300000D03*
X85725000Y-116840000D03*
X84582000Y-118745000D03*
X95250000Y-134620000D03*
X91668600Y-122643900D03*
X88900000Y-134620000D03*
X94234000Y-116840000D03*
X94996000Y-119380000D03*
X91059000Y-116840000D03*
X92583000Y-119380000D03*
X96520000Y-121920000D03*
X126365000Y-109220000D03*
X99060000Y-124460000D03*
X101600000Y-127000000D03*
X118110000Y-128270000D03*
X128270000Y-127000000D03*
X123190000Y-124460000D03*
X128270000Y-120650000D03*
X126365000Y-114300000D03*
X120650000Y-127000000D03*
X125730000Y-121920000D03*
X114300000Y-134620000D03*
X110490000Y-128270000D03*
X113030000Y-128270000D03*
X120650000Y-134620000D03*
X107950000Y-128270000D03*
X105410000Y-128270000D03*
X101600000Y-134620000D03*
X107950000Y-134620000D03*
X115570000Y-128270000D03*
X126365000Y-119380000D03*
X128270000Y-114300000D03*
X126365000Y-111760000D03*
X126365000Y-116840000D03*
X100330000Y-76200000D03*
X95224600Y-83300000D03*
X95224600Y-86360000D03*
X95224600Y-88900000D03*
X123190000Y-78740000D03*
X120650000Y-76200000D03*
X95250000Y-68580000D03*
X110490000Y-74930000D03*
X128270000Y-76200000D03*
X125730000Y-81280000D03*
X95220352Y-89888405D03*
X112014000Y-97028000D03*
X90563700Y-127101600D03*
X89418160Y-70932040D03*
X97200000Y-127100000D03*
X99600000Y-129300000D03*
D29*
X94000000Y-132500000D03*
X97700000Y-74900000D03*
D30*
X112522000Y-106172000D03*
D29*
X89900000Y-110700000D03*
X91400000Y-80800000D03*
X64300000Y-88200000D03*
D30*
X90064611Y-111760000D03*
D29*
X96700000Y-80100000D03*
X97700000Y-132500000D03*
D30*
X91200000Y-76650000D03*
D29*
X79600000Y-70600000D03*
X75800000Y-70600000D03*
X79600000Y-132600000D03*
D30*
X92320000Y-111550000D03*
X125476000Y-96266000D03*
D29*
X64300000Y-92100000D03*
X90000000Y-108400000D03*
X95100000Y-115300000D03*
X75800000Y-132600000D03*
X99300000Y-77700000D03*
X95100000Y-111600000D03*
X98000000Y-71700000D03*
X94600000Y-107800000D03*
D30*
X75692000Y-96520000D03*
D29*
X91400000Y-85900000D03*
D30*
X92500000Y-114660000D03*
D29*
X64300000Y-114900000D03*
D30*
X86900000Y-107400000D03*
X92600000Y-129300000D03*
X90064611Y-114302896D03*
X86791800Y-111531400D03*
D29*
X64300000Y-111100000D03*
%TO.N,AVDD*%
X90100000Y-107300000D03*
X89900000Y-94900000D03*
X92200000Y-107200000D03*
%TO.N,DVDD*%
X88500000Y-95400000D03*
X88300000Y-93200000D03*
X98000000Y-93100000D03*
X95100000Y-92300000D03*
X97400000Y-106100000D03*
X97700000Y-96800000D03*
X94700000Y-108900000D03*
X97900000Y-108800000D03*
D30*
%TO.N,Net-(C18-Pad1)*%
X90627200Y-125222000D03*
X97078800Y-125222000D03*
%TO.N,DVDD3V3*%
X87630000Y-123799600D03*
D29*
%TO.N,AVDD3V3*%
X89400000Y-109800000D03*
%TD*%
D31*
%TO.N,Net-(C17-Pad2)*%
X88500000Y-116100000D02*
X88140000Y-116460000D01*
X88700000Y-111300000D02*
X88500000Y-111500000D01*
X88500000Y-111500000D02*
X88500000Y-116100000D01*
D32*
%TO.N,AVDD*%
X88000000Y-94200000D02*
X87400000Y-93600000D01*
X93400000Y-107200000D02*
X92200000Y-107200000D01*
X96850000Y-107550000D02*
X96200000Y-106900000D01*
X87400000Y-93600000D02*
X87400000Y-84400000D01*
X89600000Y-94100000D02*
X89500000Y-94200000D01*
X88500000Y-83300000D02*
X93900000Y-83300000D01*
X97200000Y-86600000D02*
X97200000Y-94400000D01*
X89600000Y-94100000D02*
X89600000Y-95450000D01*
X89600000Y-95450000D02*
X89800000Y-95650000D01*
X99500000Y-96700000D02*
X99500000Y-106100000D01*
X89500000Y-94200000D02*
X88000000Y-94200000D01*
X97200000Y-94400000D02*
X99500000Y-96700000D01*
X87400000Y-84400000D02*
X88500000Y-83300000D01*
X93900000Y-83300000D02*
X97200000Y-86600000D01*
X99500000Y-106100000D02*
X98050000Y-107550000D01*
X93700000Y-106900000D02*
X93400000Y-107200000D01*
X98050000Y-107550000D02*
X96850000Y-107550000D01*
X96200000Y-106900000D02*
X93700000Y-106900000D01*
X92400000Y-107300000D02*
X90100000Y-107300000D01*
%TO.N,DVDD*%
X97400000Y-106100000D02*
X97700000Y-105800000D01*
D31*
X97700000Y-96800000D02*
X97700000Y-96700000D01*
X88850000Y-92050000D02*
X88300000Y-92600000D01*
D33*
X90400600Y-73282300D02*
X90525600Y-73282300D01*
X88615740Y-82184260D02*
X88615740Y-76084260D01*
D31*
X89600000Y-92050000D02*
X88850000Y-92050000D01*
D32*
X96400000Y-108825000D02*
X94775000Y-108825000D01*
D31*
X88300000Y-92600000D02*
X88300000Y-93200000D01*
X97700000Y-96700000D02*
X95975600Y-94975600D01*
D33*
X88615740Y-75067160D02*
X90400600Y-73282300D01*
X86700000Y-84100000D02*
X88615740Y-82184260D01*
D32*
X92329000Y-73239060D02*
X92329000Y-73264060D01*
D33*
X89900000Y-77500000D02*
X91100000Y-77500000D01*
D31*
X95975600Y-93175600D02*
X95100000Y-92300000D01*
D33*
X88615740Y-76084260D02*
X88615740Y-75067160D01*
D32*
X97900000Y-108800000D02*
X96000000Y-108800000D01*
D34*
X94297500Y-73262520D02*
X100597500Y-73262520D01*
D33*
X90525600Y-73282300D02*
X90542300Y-73265600D01*
D32*
X97700000Y-105800000D02*
X97700000Y-96800000D01*
D33*
X90542300Y-73265600D02*
X92417900Y-73265600D01*
X98000000Y-84400000D02*
X98000000Y-93100000D01*
D35*
X94775000Y-108825000D02*
X94700000Y-108900000D01*
D33*
X88500000Y-95400000D02*
X87900000Y-95400000D01*
D31*
X95975600Y-94975600D02*
X95975600Y-93175600D01*
D32*
X92417600Y-73265300D02*
X92417900Y-73265600D01*
D33*
X94297500Y-73262520D02*
X92540420Y-73262520D01*
X87900000Y-95400000D02*
X86700000Y-94200000D01*
X88615740Y-76084260D02*
X88615740Y-76215740D01*
X92540420Y-73262520D02*
X92516960Y-73239060D01*
X91100000Y-77500000D02*
X98000000Y-84400000D01*
X88615740Y-76215740D02*
X89900000Y-77500000D01*
X86700000Y-94200000D02*
X86700000Y-84100000D01*
D34*
%TO.N,VCC*%
X107088540Y-71141560D02*
X109088540Y-71141560D01*
X109088540Y-71141560D02*
X110286120Y-69943980D01*
D33*
X107088540Y-71141560D02*
X107088540Y-69337660D01*
D34*
X114224367Y-69943980D02*
X113167160Y-69943980D01*
X116967000Y-71272400D02*
X115552787Y-71272400D01*
X119507000Y-71272400D02*
X116967000Y-71272400D01*
X110286120Y-69943980D02*
X113167160Y-69943980D01*
X115552787Y-71272400D02*
X114224367Y-69943980D01*
D31*
%TO.N,Net-(C18-Pad1)*%
X97078800Y-125222000D02*
X90627200Y-125222000D01*
D36*
X90627200Y-124143200D02*
X90627200Y-125222000D01*
D34*
%TO.N,Net-(C23-Pad2)*%
X110180280Y-99610000D02*
X110180280Y-97580000D01*
D31*
%TO.N,Net-(U1-VREF_IN)*%
X92000000Y-110200000D02*
X93380000Y-110200000D01*
%TO.N,Net-(U1-SCLK)*%
X90195400Y-89687400D02*
X90195400Y-90504600D01*
X90938000Y-92462000D02*
X91653360Y-93177360D01*
X90170000Y-89662000D02*
X90195400Y-89687400D01*
X91653360Y-93177360D02*
X91653360Y-94220600D01*
X90938000Y-92462000D02*
X90938000Y-91247200D01*
X90938000Y-91247200D02*
X90195400Y-90504600D01*
%TO.N,Net-(U1-RESET)*%
X88239600Y-87654700D02*
X89637300Y-87654700D01*
X89637300Y-87654700D02*
X90170000Y-87122000D01*
D33*
%TO.N,Net-(U1-PDN)*%
X90170000Y-82042000D02*
X90170000Y-80023400D01*
D31*
%TO.N,Net-(U1-SDATA)*%
X93946217Y-88358217D02*
X92710000Y-87122000D01*
X93253560Y-94235840D02*
X93253560Y-91446440D01*
X93946217Y-90753783D02*
X93946217Y-88358217D01*
X93253560Y-91446440D02*
X93946217Y-90753783D01*
%TO.N,Net-(U1-SYNC)*%
X88622200Y-85077800D02*
X89118000Y-84582000D01*
X89118000Y-84582000D02*
X90170000Y-84582000D01*
X88239600Y-85077800D02*
X88622200Y-85077800D01*
D37*
%TO.N,DVDD3V3*%
X94547500Y-70962520D02*
X94297500Y-70962520D01*
D33*
X88000000Y-98700000D02*
X87400000Y-98100000D01*
X88200000Y-101715800D02*
X88200000Y-98900000D01*
X85900000Y-83800000D02*
X87711280Y-81988720D01*
X86207600Y-104907600D02*
X86207600Y-103108760D01*
X85900000Y-95200000D02*
X85900000Y-94300000D01*
D37*
X104038400Y-73434700D02*
X104038400Y-71367780D01*
D35*
X88975000Y-96425000D02*
X88550000Y-96850000D01*
D33*
X87711280Y-81988720D02*
X87711280Y-74388720D01*
D34*
X107088540Y-73441560D02*
X104047020Y-73441560D01*
X107088540Y-73441560D02*
X113388540Y-73441560D01*
D33*
X87122040Y-102194320D02*
X87721480Y-102194320D01*
X87630000Y-123799600D02*
X86600000Y-122769600D01*
X86207600Y-103108760D02*
X87122040Y-102194320D01*
X87711280Y-74388720D02*
X87711280Y-73888720D01*
D37*
X97143980Y-69916040D02*
X101620320Y-69916040D01*
D33*
X85900000Y-96600000D02*
X85900000Y-95200000D01*
X87721480Y-102194320D02*
X88200000Y-101715800D01*
D34*
X104047020Y-73441560D02*
X104038400Y-73432940D01*
D33*
X87711280Y-73888720D02*
X89500000Y-72100000D01*
D35*
X88550000Y-96850000D02*
X88550000Y-98150000D01*
D33*
X87400000Y-98100000D02*
X85900000Y-96600000D01*
D37*
X103072060Y-71367780D02*
X104038400Y-71367780D01*
D31*
X93260480Y-95718760D02*
X93258640Y-95720600D01*
D37*
X96097500Y-70962520D02*
X97143980Y-69916040D01*
X101620320Y-69916040D02*
X103072060Y-71367780D01*
D33*
X85900000Y-94300000D02*
X85900000Y-83800000D01*
D37*
X94297500Y-70962520D02*
X96097500Y-70962520D01*
D35*
X88550000Y-98150000D02*
X88000000Y-98700000D01*
D33*
X86600000Y-122769600D02*
X86600000Y-115400000D01*
X91300000Y-72100000D02*
X92113400Y-71286600D01*
D31*
X93258640Y-95720600D02*
X91396120Y-95720600D01*
X94863920Y-95718760D02*
X93260480Y-95718760D01*
D33*
X87800000Y-114200000D02*
X87800000Y-106500000D01*
D35*
X91400000Y-95795600D02*
X90770600Y-96425000D01*
D33*
X89500000Y-72100000D02*
X91300000Y-72100000D01*
X88200000Y-98900000D02*
X88000000Y-98700000D01*
X92088400Y-70967600D02*
X94292420Y-70967600D01*
X87800000Y-106500000D02*
X86207600Y-104907600D01*
D35*
X90770600Y-96425000D02*
X88975000Y-96425000D01*
D33*
X92113400Y-71286600D02*
X92113400Y-70967600D01*
X86600000Y-115400000D02*
X87800000Y-114200000D01*
D31*
%TO.N,AVDD3V3*%
X89400000Y-109800000D02*
X88600000Y-109000000D01*
X88600000Y-109000000D02*
X88600000Y-106300000D01*
X87416640Y-105116640D02*
X87416640Y-104169320D01*
X88600000Y-106300000D02*
X87416640Y-105116640D01*
%TO.N,Net-(U1-SEN)*%
X94451080Y-94251080D02*
X93900000Y-93700000D01*
X94488000Y-91012000D02*
X94488000Y-86360000D01*
X94874080Y-94251080D02*
X94451080Y-94251080D01*
X93900000Y-91600000D02*
X94488000Y-91012000D01*
X93900000Y-93700000D02*
X93900000Y-91600000D01*
X94488000Y-86360000D02*
X92710000Y-84582000D01*
%TD*%
%TA.AperFunction,Conductor*%
%TO.N,GNDA*%
G36*
X90578326Y-96747174D02*
G01*
X90600000Y-96799500D01*
X90600000Y-97600000D01*
X96626000Y-97600000D01*
X96678326Y-97621674D01*
X96700000Y-97674000D01*
X96700000Y-105426000D01*
X96678326Y-105478326D01*
X96626000Y-105500000D01*
X93100000Y-105500000D01*
X93100000Y-106526000D01*
X93078326Y-106578326D01*
X93026000Y-106600000D01*
X92287706Y-106600000D01*
X92280079Y-106599500D01*
X92279057Y-106599500D01*
X92120943Y-106599500D01*
X92119921Y-106599500D01*
X92112294Y-106600000D01*
X90374000Y-106600000D01*
X90321674Y-106578326D01*
X90300000Y-106526000D01*
X90300000Y-105500000D01*
X88774000Y-105500000D01*
X88721674Y-105478326D01*
X88700000Y-105426000D01*
X88700000Y-100807400D01*
X88721674Y-100755074D01*
X88773528Y-100703220D01*
X88834719Y-100583126D01*
X88850500Y-100483488D01*
X88850500Y-99916512D01*
X88834719Y-99816874D01*
X88773528Y-99696780D01*
X88721674Y-99644926D01*
X88700000Y-99592600D01*
X88700000Y-98455622D01*
X88721673Y-98403297D01*
X88790460Y-98334511D01*
X88830021Y-98265989D01*
X88850499Y-98189564D01*
X88850500Y-98189564D01*
X88850500Y-97674000D01*
X88872174Y-97621674D01*
X88924500Y-97600000D01*
X89300000Y-97600000D01*
X89300000Y-96799500D01*
X89321674Y-96747174D01*
X89374000Y-96725500D01*
X90526000Y-96725500D01*
X90578326Y-96747174D01*
G37*
%TD.AperFunction*%
%TD*%
%TA.AperFunction,Conductor*%
%TO.N,GND*%
G36*
X91729499Y-83722174D02*
G01*
X91751173Y-83774500D01*
X91749751Y-83788937D01*
X91747500Y-83800253D01*
X91747500Y-85363746D01*
X91759133Y-85422232D01*
X91778021Y-85450499D01*
X91803448Y-85488552D01*
X91847560Y-85518027D01*
X91869767Y-85532866D01*
X91869768Y-85532866D01*
X91869769Y-85532867D01*
X91928252Y-85544500D01*
X93146166Y-85544500D01*
X93198492Y-85566174D01*
X94115826Y-86483508D01*
X94137500Y-86535834D01*
X94137500Y-87875166D01*
X94115826Y-87927492D01*
X94063500Y-87949166D01*
X94011174Y-87927492D01*
X93694174Y-87610492D01*
X93672500Y-87558166D01*
X93672500Y-86340253D01*
X93672500Y-86340252D01*
X93660867Y-86281769D01*
X93659364Y-86279520D01*
X93622742Y-86224712D01*
X93616552Y-86215448D01*
X93594343Y-86200608D01*
X93550232Y-86171133D01*
X93530736Y-86167255D01*
X93491748Y-86159500D01*
X91928252Y-86159500D01*
X91899010Y-86165316D01*
X91869767Y-86171133D01*
X91803449Y-86215447D01*
X91803447Y-86215449D01*
X91759133Y-86281767D01*
X91747500Y-86340253D01*
X91747500Y-87903746D01*
X91759133Y-87962232D01*
X91787844Y-88005200D01*
X91803448Y-88028552D01*
X91841261Y-88053818D01*
X91869767Y-88072866D01*
X91869768Y-88072866D01*
X91869769Y-88072867D01*
X91928252Y-88084500D01*
X93146166Y-88084500D01*
X93198492Y-88106174D01*
X93565992Y-88473674D01*
X93587666Y-88526000D01*
X93565992Y-88578326D01*
X93513666Y-88600000D01*
X92964000Y-88600000D01*
X92964000Y-89295381D01*
X92881571Y-89247792D01*
X92768520Y-89217500D01*
X92651480Y-89217500D01*
X92538429Y-89247792D01*
X92456000Y-89295381D01*
X92456000Y-88600000D01*
X91903207Y-88600000D01*
X91878131Y-88602908D01*
X91878125Y-88602910D01*
X91775521Y-88648213D01*
X91696213Y-88727521D01*
X91650910Y-88830124D01*
X91648000Y-88855210D01*
X91648000Y-89408000D01*
X92343382Y-89408000D01*
X92295792Y-89490429D01*
X92265500Y-89603480D01*
X92265500Y-89720520D01*
X92295792Y-89833571D01*
X92343382Y-89916000D01*
X91648001Y-89916000D01*
X91648001Y-90468792D01*
X91650908Y-90493868D01*
X91650910Y-90493874D01*
X91696213Y-90596478D01*
X91775521Y-90675786D01*
X91878124Y-90721089D01*
X91878123Y-90721089D01*
X91903210Y-90723999D01*
X92456000Y-90723999D01*
X92456000Y-90028618D01*
X92538429Y-90076208D01*
X92651480Y-90106500D01*
X92768520Y-90106500D01*
X92881571Y-90076208D01*
X92964000Y-90028618D01*
X92964000Y-90723999D01*
X93301666Y-90723999D01*
X93353992Y-90745673D01*
X93375666Y-90797999D01*
X93353992Y-90850325D01*
X92973090Y-91231227D01*
X92926946Y-91311150D01*
X92926944Y-91311155D01*
X92903060Y-91400293D01*
X92903060Y-93471100D01*
X92881386Y-93523426D01*
X92829062Y-93545100D01*
X92793480Y-93545100D01*
X92699695Y-93559953D01*
X92699693Y-93559954D01*
X92586657Y-93617550D01*
X92496951Y-93707256D01*
X92439353Y-93820298D01*
X92424500Y-93914080D01*
X92424500Y-94377119D01*
X92439353Y-94470904D01*
X92439354Y-94470906D01*
X92473962Y-94538826D01*
X92496950Y-94583942D01*
X92586658Y-94673650D01*
X92699696Y-94731246D01*
X92793481Y-94746100D01*
X93406518Y-94746099D01*
X93406519Y-94746099D01*
X93500304Y-94731246D01*
X93500306Y-94731245D01*
X93524263Y-94719038D01*
X93613342Y-94673650D01*
X93703050Y-94583942D01*
X93760646Y-94470904D01*
X93775500Y-94377119D01*
X93775499Y-94249832D01*
X93797173Y-94197508D01*
X93849498Y-94175833D01*
X93901824Y-94197507D01*
X93901825Y-94197507D01*
X94235868Y-94531550D01*
X94304371Y-94571100D01*
X94315792Y-94577694D01*
X94403244Y-94601126D01*
X94404972Y-94601682D01*
X94408614Y-94604772D01*
X94434655Y-94619807D01*
X94486658Y-94671810D01*
X94599696Y-94729406D01*
X94693481Y-94744260D01*
X95306518Y-94744259D01*
X95306519Y-94744259D01*
X95400304Y-94729406D01*
X95513342Y-94671810D01*
X95513342Y-94671809D01*
X95517504Y-94669689D01*
X95573967Y-94665245D01*
X95617034Y-94702027D01*
X95625100Y-94735623D01*
X95625100Y-95021744D01*
X95626031Y-95025218D01*
X95640580Y-95079519D01*
X95648985Y-95110884D01*
X95648988Y-95110892D01*
X95695130Y-95190812D01*
X97095865Y-96591547D01*
X97117539Y-96643873D01*
X97115018Y-96663024D01*
X97099500Y-96720942D01*
X97099500Y-96879059D01*
X97140421Y-97031779D01*
X97140422Y-97031781D01*
X97140423Y-97031784D01*
X97219480Y-97168716D01*
X97277826Y-97227062D01*
X97299500Y-97279388D01*
X97299500Y-105448463D01*
X97277826Y-105500789D01*
X97244653Y-105519941D01*
X97168218Y-105540421D01*
X97031283Y-105619480D01*
X96938769Y-105711993D01*
X96938750Y-105712013D01*
X96919480Y-105731284D01*
X96916084Y-105737164D01*
X96916080Y-105737170D01*
X96840425Y-105868211D01*
X96840421Y-105868220D01*
X96799500Y-106020940D01*
X96799500Y-106179059D01*
X96840421Y-106331779D01*
X96840422Y-106331781D01*
X96840423Y-106331784D01*
X96919480Y-106468716D01*
X97031284Y-106580520D01*
X97168216Y-106659577D01*
X97320940Y-106700499D01*
X97320941Y-106700500D01*
X97320943Y-106700500D01*
X97479059Y-106700500D01*
X97479059Y-106700499D01*
X97631784Y-106659577D01*
X97768716Y-106580520D01*
X97880520Y-106468716D01*
X97959577Y-106331784D01*
X98000499Y-106179059D01*
X98000500Y-106179059D01*
X98000500Y-106096544D01*
X98019314Y-106051121D01*
X98017532Y-106049754D01*
X98020474Y-106045918D01*
X98020480Y-106045913D01*
X98073207Y-105954588D01*
X98100500Y-105852727D01*
X98100500Y-105747273D01*
X98100500Y-97279388D01*
X98122174Y-97227062D01*
X98149009Y-97200227D01*
X98180520Y-97168716D01*
X98259577Y-97031784D01*
X98300499Y-96879059D01*
X98300500Y-96879059D01*
X98300500Y-96720941D01*
X98300499Y-96720940D01*
X98286549Y-96668879D01*
X98259577Y-96568216D01*
X98180520Y-96431284D01*
X98068716Y-96319480D01*
X97931784Y-96240423D01*
X97931781Y-96240422D01*
X97931779Y-96240421D01*
X97779059Y-96199500D01*
X97779057Y-96199500D01*
X97725834Y-96199500D01*
X97673508Y-96177826D01*
X96347774Y-94852092D01*
X96326100Y-94799766D01*
X96326100Y-93129454D01*
X96326099Y-93129453D01*
X96302215Y-93040315D01*
X96302213Y-93040310D01*
X96256071Y-92960391D01*
X96256070Y-92960390D01*
X96256069Y-92960388D01*
X96190812Y-92895131D01*
X96063540Y-92767859D01*
X96041866Y-92715533D01*
X96063539Y-92663208D01*
X96098528Y-92628220D01*
X96159719Y-92508126D01*
X96175500Y-92408488D01*
X96175500Y-91891512D01*
X96159719Y-91791874D01*
X96098528Y-91671780D01*
X96003220Y-91576472D01*
X96003219Y-91576471D01*
X95883126Y-91515281D01*
X95883125Y-91515280D01*
X95783489Y-91499500D01*
X95783488Y-91499500D01*
X95216512Y-91499500D01*
X95216511Y-91499500D01*
X95116874Y-91515280D01*
X95116873Y-91515281D01*
X94996780Y-91576471D01*
X94901471Y-91671780D01*
X94875731Y-91722298D01*
X94846797Y-91752788D01*
X94731283Y-91819480D01*
X94619480Y-91931283D01*
X94540424Y-92068214D01*
X94540421Y-92068220D01*
X94499500Y-92220940D01*
X94499500Y-92379059D01*
X94540421Y-92531779D01*
X94540422Y-92531781D01*
X94540423Y-92531784D01*
X94619480Y-92668716D01*
X94731284Y-92780520D01*
X94868216Y-92859577D01*
X95020940Y-92900499D01*
X95020941Y-92900500D01*
X95174167Y-92900500D01*
X95226493Y-92922174D01*
X95603426Y-93299107D01*
X95625100Y-93351433D01*
X95625100Y-93551896D01*
X95603426Y-93604222D01*
X95551100Y-93625896D01*
X95517505Y-93617831D01*
X95444276Y-93580519D01*
X95400304Y-93558114D01*
X95400302Y-93558113D01*
X95400301Y-93558113D01*
X95306519Y-93543260D01*
X94693480Y-93543260D01*
X94599695Y-93558113D01*
X94599693Y-93558114D01*
X94486657Y-93615710D01*
X94451351Y-93651017D01*
X94399025Y-93672691D01*
X94346699Y-93651017D01*
X94272174Y-93576492D01*
X94250500Y-93524166D01*
X94250500Y-91775834D01*
X94272174Y-91723508D01*
X94496182Y-91499500D01*
X94768470Y-91227212D01*
X94814614Y-91147288D01*
X94824092Y-91111915D01*
X94826992Y-91101093D01*
X94826993Y-91101087D01*
X94826994Y-91101084D01*
X94838500Y-91058144D01*
X94838500Y-86313856D01*
X94838500Y-86313854D01*
X94838499Y-86313853D01*
X94814615Y-86224715D01*
X94814613Y-86224710D01*
X94783680Y-86171133D01*
X94768470Y-86144788D01*
X93694174Y-85070492D01*
X93672500Y-85018166D01*
X93672500Y-83817544D01*
X93694174Y-83765218D01*
X93746500Y-83743544D01*
X93798824Y-83765217D01*
X95321950Y-85288342D01*
X96777826Y-86744218D01*
X96799500Y-86796544D01*
X96799500Y-94347273D01*
X96799500Y-94452727D01*
X96814767Y-94509704D01*
X96826793Y-94554588D01*
X96826795Y-94554592D01*
X96879517Y-94645909D01*
X96879518Y-94645910D01*
X96879520Y-94645913D01*
X99077826Y-96844219D01*
X99099500Y-96896544D01*
X99099500Y-105903455D01*
X99077826Y-105955781D01*
X97905781Y-107127826D01*
X97853455Y-107149500D01*
X97046545Y-107149500D01*
X96994219Y-107127826D01*
X96765893Y-106899500D01*
X96445913Y-106579520D01*
X96445910Y-106579518D01*
X96445909Y-106579517D01*
X96354592Y-106526795D01*
X96354588Y-106526793D01*
X96351617Y-106525997D01*
X96252727Y-106499500D01*
X93752727Y-106499500D01*
X93647273Y-106499500D01*
X93630919Y-106503882D01*
X93545411Y-106526793D01*
X93545407Y-106526795D01*
X93454090Y-106579517D01*
X93427810Y-106605797D01*
X93375484Y-106627470D01*
X93323158Y-106605795D01*
X93301485Y-106553469D01*
X93302906Y-106539039D01*
X93305500Y-106526000D01*
X93305500Y-105779500D01*
X93327174Y-105727174D01*
X93379500Y-105705500D01*
X96625998Y-105705500D01*
X96626000Y-105705500D01*
X96704641Y-105689857D01*
X96756967Y-105668183D01*
X96815261Y-105631555D01*
X96868183Y-105556967D01*
X96889857Y-105504641D01*
X96905500Y-105426000D01*
X96905500Y-97674000D01*
X96889857Y-97595359D01*
X96889855Y-97595354D01*
X96868185Y-97543037D01*
X96868183Y-97543035D01*
X96868183Y-97543033D01*
X96831555Y-97484739D01*
X96806070Y-97466657D01*
X96756966Y-97431816D01*
X96704645Y-97410144D01*
X96704635Y-97410141D01*
X96651974Y-97399666D01*
X96626000Y-97394500D01*
X96625998Y-97394500D01*
X90879500Y-97394500D01*
X90827174Y-97372826D01*
X90805500Y-97320500D01*
X90805500Y-96799501D01*
X90805283Y-96798411D01*
X90805356Y-96798041D01*
X90805144Y-96795886D01*
X90805797Y-96795821D01*
X90816329Y-96742861D01*
X90858706Y-96712492D01*
X90886589Y-96705021D01*
X90955111Y-96665460D01*
X91011060Y-96609511D01*
X91202797Y-96417772D01*
X91255123Y-96396099D01*
X91706519Y-96396099D01*
X91800304Y-96381246D01*
X91800306Y-96381245D01*
X91803917Y-96379405D01*
X91913342Y-96323650D01*
X92003050Y-96233942D01*
X92060646Y-96120904D01*
X92060646Y-96120901D01*
X92063289Y-96115715D01*
X92065024Y-96116599D01*
X92096998Y-96079165D01*
X92130592Y-96071100D01*
X92369408Y-96071100D01*
X92421734Y-96092774D01*
X92436011Y-96116071D01*
X92436711Y-96115715D01*
X92439353Y-96120901D01*
X92439354Y-96120904D01*
X92496950Y-96233942D01*
X92586658Y-96323650D01*
X92699696Y-96381246D01*
X92793481Y-96396100D01*
X93406518Y-96396099D01*
X93406519Y-96396099D01*
X93500304Y-96381246D01*
X93500306Y-96381245D01*
X93503917Y-96379405D01*
X93613342Y-96323650D01*
X93703050Y-96233942D01*
X93760646Y-96120904D01*
X93760647Y-96120899D01*
X93760813Y-96120390D01*
X93761045Y-96120117D01*
X93763289Y-96115715D01*
X93764346Y-96116253D01*
X93797597Y-96077324D01*
X93831190Y-96069260D01*
X94269408Y-96069260D01*
X94321734Y-96090934D01*
X94336011Y-96114231D01*
X94336711Y-96113875D01*
X94339353Y-96119061D01*
X94339354Y-96119064D01*
X94396950Y-96232102D01*
X94486658Y-96321810D01*
X94599696Y-96379406D01*
X94693481Y-96394260D01*
X95306518Y-96394259D01*
X95306519Y-96394259D01*
X95400304Y-96379406D01*
X95400306Y-96379405D01*
X95402419Y-96378328D01*
X95513342Y-96321810D01*
X95603050Y-96232102D01*
X95660646Y-96119064D01*
X95675500Y-96025279D01*
X95675499Y-95562242D01*
X95664860Y-95495067D01*
X95660646Y-95468455D01*
X95660645Y-95468453D01*
X95609593Y-95368260D01*
X95603050Y-95355418D01*
X95513342Y-95265710D01*
X95400304Y-95208114D01*
X95400302Y-95208113D01*
X95400301Y-95208113D01*
X95306519Y-95193260D01*
X94693480Y-95193260D01*
X94599695Y-95208113D01*
X94599693Y-95208114D01*
X94486658Y-95265710D01*
X94405781Y-95346586D01*
X94353457Y-95368260D01*
X93744704Y-95368260D01*
X93692378Y-95346586D01*
X93613343Y-95267551D01*
X93613342Y-95267550D01*
X93500304Y-95209954D01*
X93500302Y-95209953D01*
X93500301Y-95209953D01*
X93406519Y-95195100D01*
X92793480Y-95195100D01*
X92699695Y-95209953D01*
X92699693Y-95209954D01*
X92590269Y-95265710D01*
X92586658Y-95267550D01*
X92505781Y-95348426D01*
X92453457Y-95370100D01*
X92046543Y-95370100D01*
X91994218Y-95348426D01*
X91913342Y-95267550D01*
X91800304Y-95209954D01*
X91800302Y-95209953D01*
X91800301Y-95209953D01*
X91706519Y-95195100D01*
X91093480Y-95195100D01*
X90999695Y-95209953D01*
X90999693Y-95209954D01*
X90886657Y-95267550D01*
X90796951Y-95357256D01*
X90739353Y-95470298D01*
X90724500Y-95564080D01*
X90724500Y-96015475D01*
X90702827Y-96067799D01*
X90667804Y-96102824D01*
X90615479Y-96124500D01*
X90521180Y-96124500D01*
X90468854Y-96102826D01*
X90447180Y-96050500D01*
X90455244Y-96016908D01*
X90459719Y-96008126D01*
X90475500Y-95908488D01*
X90475500Y-95391512D01*
X90459719Y-95291874D01*
X90434562Y-95242502D01*
X90430119Y-95186041D01*
X90436408Y-95171912D01*
X90459577Y-95131784D01*
X90500499Y-94979059D01*
X90500500Y-94979059D01*
X90500500Y-94820941D01*
X90500499Y-94820940D01*
X90499180Y-94816019D01*
X90461033Y-94673649D01*
X90458322Y-94663532D01*
X90460719Y-94662889D01*
X90459475Y-94618785D01*
X90461015Y-94614386D01*
X90497646Y-94509699D01*
X90500500Y-94479266D01*
X90500500Y-93720734D01*
X90497646Y-93690301D01*
X90494223Y-93680520D01*
X90452793Y-93562118D01*
X90452792Y-93562116D01*
X90372153Y-93452853D01*
X90372146Y-93452846D01*
X90262883Y-93372207D01*
X90262881Y-93372206D01*
X90134704Y-93327355D01*
X90134705Y-93327355D01*
X90134700Y-93327354D01*
X90134699Y-93327354D01*
X90104266Y-93324500D01*
X89095734Y-93324500D01*
X89077474Y-93326212D01*
X89065297Y-93327354D01*
X88998940Y-93350574D01*
X88942392Y-93347397D01*
X88904652Y-93305166D01*
X88900500Y-93280726D01*
X88900500Y-93120941D01*
X88900499Y-93120940D01*
X88879366Y-93042072D01*
X88859577Y-92968216D01*
X88787765Y-92843834D01*
X88780374Y-92787682D01*
X88814852Y-92742749D01*
X88871005Y-92735357D01*
X88895793Y-92747294D01*
X88937118Y-92777793D01*
X89065295Y-92822644D01*
X89065301Y-92822646D01*
X89095734Y-92825500D01*
X89095741Y-92825500D01*
X90104258Y-92825500D01*
X90104266Y-92825500D01*
X90134699Y-92822646D01*
X90262882Y-92777793D01*
X90372150Y-92697150D01*
X90452793Y-92587882D01*
X90461947Y-92561720D01*
X90466763Y-92556330D01*
X90467707Y-92549164D01*
X90485085Y-92535827D01*
X90499685Y-92519490D01*
X90506903Y-92519084D01*
X90512639Y-92514683D01*
X90534359Y-92517541D01*
X90556233Y-92516313D01*
X90561624Y-92521130D01*
X90568791Y-92522074D01*
X90582127Y-92539452D01*
X90598465Y-92554052D01*
X90603272Y-92567006D01*
X90608865Y-92587880D01*
X90608866Y-92587884D01*
X90608867Y-92587884D01*
X90611385Y-92597287D01*
X90657530Y-92677212D01*
X91281186Y-93300868D01*
X91302860Y-93353194D01*
X91302860Y-93471100D01*
X91281186Y-93523426D01*
X91228861Y-93545100D01*
X91093480Y-93545100D01*
X90999695Y-93559953D01*
X90999693Y-93559954D01*
X90886657Y-93617550D01*
X90796951Y-93707256D01*
X90739353Y-93820298D01*
X90724500Y-93914080D01*
X90724500Y-94377119D01*
X90739353Y-94470904D01*
X90739354Y-94470906D01*
X90773962Y-94538826D01*
X90796950Y-94583942D01*
X90886658Y-94673650D01*
X90999696Y-94731246D01*
X91093481Y-94746100D01*
X91706518Y-94746099D01*
X91706519Y-94746099D01*
X91800304Y-94731246D01*
X91800306Y-94731245D01*
X91824263Y-94719038D01*
X91913342Y-94673650D01*
X92003050Y-94583942D01*
X92060646Y-94470904D01*
X92075500Y-94377119D01*
X92075499Y-93914082D01*
X92060646Y-93820296D01*
X92012600Y-93726000D01*
X92011925Y-93724675D01*
X92003860Y-93691080D01*
X92003860Y-93131214D01*
X92003859Y-93131213D01*
X92003387Y-93129453D01*
X91979974Y-93042072D01*
X91967775Y-93020943D01*
X91933830Y-92962148D01*
X91310174Y-92338492D01*
X91288500Y-92286166D01*
X91288500Y-91201054D01*
X91288499Y-91201053D01*
X91264615Y-91111915D01*
X91264614Y-91111913D01*
X91264614Y-91111912D01*
X91258362Y-91101084D01*
X91218470Y-91031988D01*
X90932231Y-90745749D01*
X90910557Y-90693423D01*
X90932231Y-90641097D01*
X90970119Y-90620845D01*
X91010231Y-90612867D01*
X91076552Y-90568552D01*
X91120867Y-90502231D01*
X91132500Y-90443748D01*
X91132500Y-88880252D01*
X91120867Y-88821769D01*
X91076552Y-88755448D01*
X91034757Y-88727521D01*
X91010232Y-88711133D01*
X91010233Y-88711133D01*
X90980989Y-88705316D01*
X90951748Y-88699500D01*
X89388252Y-88699500D01*
X89359010Y-88705316D01*
X89329767Y-88711133D01*
X89263449Y-88755447D01*
X89263447Y-88755449D01*
X89219133Y-88821767D01*
X89207500Y-88880253D01*
X89207500Y-90443746D01*
X89219133Y-90502232D01*
X89227521Y-90514785D01*
X89263448Y-90568552D01*
X89305242Y-90596478D01*
X89329767Y-90612866D01*
X89329768Y-90612866D01*
X89329769Y-90612867D01*
X89388252Y-90624500D01*
X89817178Y-90624500D01*
X89869504Y-90646174D01*
X89881262Y-90661498D01*
X89910329Y-90711843D01*
X89914930Y-90719812D01*
X90565826Y-91370708D01*
X90587500Y-91423034D01*
X90587500Y-91469756D01*
X90565826Y-91522082D01*
X90513500Y-91543756D01*
X90461174Y-91522082D01*
X90453960Y-91513699D01*
X90372150Y-91402850D01*
X90372146Y-91402846D01*
X90262883Y-91322207D01*
X90262881Y-91322206D01*
X90134704Y-91277355D01*
X90134705Y-91277355D01*
X90134700Y-91277354D01*
X90134699Y-91277354D01*
X90104266Y-91274500D01*
X89095734Y-91274500D01*
X89065301Y-91277354D01*
X89065299Y-91277354D01*
X89065295Y-91277355D01*
X88937118Y-91322206D01*
X88937116Y-91322207D01*
X88827853Y-91402846D01*
X88827846Y-91402853D01*
X88747207Y-91512116D01*
X88747206Y-91512118D01*
X88702355Y-91640295D01*
X88702354Y-91640299D01*
X88702354Y-91640301D01*
X88699500Y-91670734D01*
X88699500Y-91670740D01*
X88699500Y-91689444D01*
X88677826Y-91741770D01*
X88662502Y-91753529D01*
X88634788Y-91769530D01*
X88019530Y-92384787D01*
X87993851Y-92429266D01*
X87973386Y-92464710D01*
X87973384Y-92464715D01*
X87949500Y-92553853D01*
X87949500Y-92670612D01*
X87927826Y-92722938D01*
X87926826Y-92723938D01*
X87874500Y-92745612D01*
X87822174Y-92723938D01*
X87800500Y-92671612D01*
X87800500Y-88454907D01*
X87822174Y-88402581D01*
X87874500Y-88380907D01*
X87908095Y-88388973D01*
X87999696Y-88435646D01*
X88093481Y-88450500D01*
X88706518Y-88450499D01*
X88706519Y-88450499D01*
X88800304Y-88435646D01*
X88800306Y-88435645D01*
X88802419Y-88434568D01*
X88913342Y-88378050D01*
X89003050Y-88288342D01*
X89060646Y-88175304D01*
X89075500Y-88081519D01*
X89075500Y-88079200D01*
X89075725Y-88078655D01*
X89075728Y-88078623D01*
X89075738Y-88078623D01*
X89097174Y-88026874D01*
X89149500Y-88005200D01*
X89209444Y-88005200D01*
X89257098Y-88024937D01*
X89257389Y-88024503D01*
X89259570Y-88025960D01*
X89261766Y-88026870D01*
X89263447Y-88028551D01*
X89329767Y-88072866D01*
X89329768Y-88072866D01*
X89329769Y-88072867D01*
X89388252Y-88084500D01*
X89388254Y-88084500D01*
X90951746Y-88084500D01*
X90951748Y-88084500D01*
X91010231Y-88072867D01*
X91076552Y-88028552D01*
X91120867Y-87962231D01*
X91132500Y-87903748D01*
X91132500Y-86340252D01*
X91120867Y-86281769D01*
X91119364Y-86279520D01*
X91082742Y-86224712D01*
X91076552Y-86215448D01*
X91054343Y-86200608D01*
X91010232Y-86171133D01*
X90990736Y-86167255D01*
X90951748Y-86159500D01*
X89388252Y-86159500D01*
X89359010Y-86165316D01*
X89329767Y-86171133D01*
X89263449Y-86215447D01*
X89263447Y-86215449D01*
X89219133Y-86281767D01*
X89207500Y-86340253D01*
X89207500Y-87230200D01*
X89185826Y-87282526D01*
X89133500Y-87304200D01*
X88896271Y-87304200D01*
X88862678Y-87296135D01*
X88800304Y-87264354D01*
X88800302Y-87264353D01*
X88800301Y-87264353D01*
X88706519Y-87249500D01*
X88093480Y-87249500D01*
X87999695Y-87264353D01*
X87999691Y-87264355D01*
X87908095Y-87311026D01*
X87851633Y-87315470D01*
X87808566Y-87278687D01*
X87800500Y-87245092D01*
X87800500Y-85454907D01*
X87822174Y-85402581D01*
X87874500Y-85380907D01*
X87908095Y-85388973D01*
X87999696Y-85435646D01*
X88093481Y-85450500D01*
X88706518Y-85450499D01*
X88706519Y-85450499D01*
X88800304Y-85435646D01*
X88800306Y-85435645D01*
X88826632Y-85422231D01*
X88913342Y-85378050D01*
X89003050Y-85288342D01*
X89060646Y-85175304D01*
X89060647Y-85175298D01*
X89062447Y-85169762D01*
X89064339Y-85170377D01*
X89090002Y-85128497D01*
X89145074Y-85115274D01*
X89193366Y-85144865D01*
X89207500Y-85188363D01*
X89207500Y-85363746D01*
X89219133Y-85422232D01*
X89238021Y-85450499D01*
X89263448Y-85488552D01*
X89307560Y-85518027D01*
X89329767Y-85532866D01*
X89329768Y-85532866D01*
X89329769Y-85532867D01*
X89388252Y-85544500D01*
X89388254Y-85544500D01*
X90951746Y-85544500D01*
X90951748Y-85544500D01*
X91010231Y-85532867D01*
X91076552Y-85488552D01*
X91120867Y-85422231D01*
X91132500Y-85363748D01*
X91132500Y-83800252D01*
X91130249Y-83788936D01*
X91141298Y-83733388D01*
X91188390Y-83701922D01*
X91202827Y-83700500D01*
X91677173Y-83700500D01*
X91729499Y-83722174D01*
G37*
%TD.AperFunction*%
%TA.AperFunction,Conductor*%
G36*
X86476826Y-94613929D02*
G01*
X87623386Y-95760489D01*
X87682696Y-95794731D01*
X87726110Y-95819797D01*
X87726112Y-95819797D01*
X87726114Y-95819799D01*
X87726115Y-95819799D01*
X87726117Y-95819800D01*
X87783402Y-95835149D01*
X87840688Y-95850499D01*
X87840689Y-95850500D01*
X87840691Y-95850500D01*
X88070612Y-95850500D01*
X88122938Y-95872174D01*
X88131284Y-95880520D01*
X88268216Y-95959577D01*
X88420940Y-96000499D01*
X88420941Y-96000500D01*
X88420943Y-96000500D01*
X88579059Y-96000500D01*
X88579059Y-96000499D01*
X88731784Y-95959577D01*
X88868716Y-95880520D01*
X88980520Y-95768716D01*
X88986413Y-95758507D01*
X89031345Y-95724028D01*
X89087498Y-95731419D01*
X89121978Y-95776351D01*
X89124500Y-95795506D01*
X89124500Y-95908488D01*
X89140280Y-96008123D01*
X89140280Y-96008124D01*
X89140281Y-96008126D01*
X89144755Y-96016906D01*
X89149198Y-96073367D01*
X89112415Y-96116435D01*
X89078820Y-96124500D01*
X89014562Y-96124500D01*
X88935438Y-96124500D01*
X88859012Y-96144978D01*
X88859011Y-96144978D01*
X88859009Y-96144979D01*
X88859007Y-96144980D01*
X88790492Y-96184537D01*
X88365489Y-96609540D01*
X88309540Y-96665488D01*
X88269979Y-96734009D01*
X88269977Y-96734014D01*
X88249500Y-96810435D01*
X88249500Y-97994877D01*
X88227826Y-98047203D01*
X88158392Y-98116637D01*
X88106066Y-98138311D01*
X88053740Y-98116637D01*
X86372174Y-96435071D01*
X86350500Y-96382745D01*
X86350500Y-94666255D01*
X86372174Y-94613929D01*
X86424500Y-94592255D01*
X86476826Y-94613929D01*
G37*
%TD.AperFunction*%
%TA.AperFunction,Conductor*%
G36*
X89192564Y-77429667D02*
G01*
X89623386Y-77860489D01*
X89726113Y-77919799D01*
X89726115Y-77919799D01*
X89726116Y-77919800D01*
X89734184Y-77921961D01*
X89750326Y-77926286D01*
X89822618Y-77945657D01*
X89840690Y-77950500D01*
X89840691Y-77950500D01*
X90882745Y-77950500D01*
X90935071Y-77972174D01*
X97527826Y-84564929D01*
X97549500Y-84617255D01*
X97549500Y-86204456D01*
X97527826Y-86256782D01*
X97475500Y-86278456D01*
X97423174Y-86256782D01*
X95882766Y-84716374D01*
X94145913Y-82979520D01*
X94145910Y-82979518D01*
X94145909Y-82979517D01*
X94054592Y-82926795D01*
X94054588Y-82926793D01*
X93952727Y-82899500D01*
X93952726Y-82899500D01*
X93746500Y-82899500D01*
X93694174Y-82877826D01*
X93672500Y-82825500D01*
X93672500Y-81260253D01*
X93664310Y-81219080D01*
X93660867Y-81201769D01*
X93616552Y-81135448D01*
X93594343Y-81120608D01*
X93550232Y-81091133D01*
X93550233Y-81091133D01*
X93520989Y-81085316D01*
X93491748Y-81079500D01*
X91928252Y-81079500D01*
X91899010Y-81085316D01*
X91869767Y-81091133D01*
X91803449Y-81135447D01*
X91803447Y-81135449D01*
X91759133Y-81201767D01*
X91747500Y-81260253D01*
X91747500Y-82825500D01*
X91725826Y-82877826D01*
X91673500Y-82899500D01*
X91206500Y-82899500D01*
X91154174Y-82877826D01*
X91132500Y-82825500D01*
X91132500Y-81260253D01*
X91124310Y-81219080D01*
X91120867Y-81201769D01*
X91076552Y-81135448D01*
X91054343Y-81120608D01*
X91010232Y-81091133D01*
X91010233Y-81091133D01*
X90980989Y-81085316D01*
X90951748Y-81079500D01*
X90951746Y-81079500D01*
X90694500Y-81079500D01*
X90642174Y-81057826D01*
X90620500Y-81005500D01*
X90620500Y-80698833D01*
X90642174Y-80646507D01*
X90660904Y-80632899D01*
X90693502Y-80616290D01*
X90783210Y-80526582D01*
X90840806Y-80413544D01*
X90855660Y-80319759D01*
X90855659Y-79856722D01*
X90840806Y-79762936D01*
X90840806Y-79762935D01*
X90840805Y-79762933D01*
X90783209Y-79649897D01*
X90693503Y-79560191D01*
X90693502Y-79560190D01*
X90580464Y-79502594D01*
X90580462Y-79502593D01*
X90580461Y-79502593D01*
X90486679Y-79487740D01*
X89873640Y-79487740D01*
X89779855Y-79502593D01*
X89779853Y-79502594D01*
X89666817Y-79560190D01*
X89577111Y-79649896D01*
X89519513Y-79762938D01*
X89504660Y-79856720D01*
X89504660Y-80319759D01*
X89519513Y-80413544D01*
X89519514Y-80413546D01*
X89577110Y-80526582D01*
X89666818Y-80616290D01*
X89679092Y-80622544D01*
X89715877Y-80665607D01*
X89719500Y-80688479D01*
X89719500Y-81005500D01*
X89697826Y-81057826D01*
X89645500Y-81079500D01*
X89388252Y-81079500D01*
X89359010Y-81085316D01*
X89329767Y-81091133D01*
X89263449Y-81135447D01*
X89263447Y-81135449D01*
X89219133Y-81201767D01*
X89212818Y-81233517D01*
X89181352Y-81280609D01*
X89125803Y-81291658D01*
X89078711Y-81260192D01*
X89066240Y-81219080D01*
X89066240Y-77481994D01*
X89087914Y-77429668D01*
X89140240Y-77407994D01*
X89192564Y-77429667D01*
G37*
%TD.AperFunction*%
%TA.AperFunction,Conductor*%
G36*
X101393259Y-70538214D02*
G01*
X101907389Y-71052344D01*
X101929063Y-71104670D01*
X101907389Y-71156996D01*
X101855063Y-71178670D01*
X101835440Y-71174767D01*
X101835379Y-71175075D01*
X101828231Y-71173653D01*
X101769748Y-71162020D01*
X99730252Y-71162020D01*
X99701010Y-71167836D01*
X99671767Y-71173653D01*
X99605449Y-71217967D01*
X99605447Y-71217969D01*
X99561133Y-71284287D01*
X99549500Y-71342773D01*
X99549500Y-72488020D01*
X99527826Y-72540346D01*
X99475500Y-72562020D01*
X95724390Y-72562020D01*
X95672064Y-72540346D01*
X95651245Y-72496330D01*
X95651209Y-72496338D01*
X95651180Y-72496192D01*
X95650747Y-72495277D01*
X95650500Y-72492776D01*
X95650500Y-72492772D01*
X95638867Y-72434289D01*
X95594552Y-72367968D01*
X95572343Y-72353128D01*
X95528232Y-72323653D01*
X95528233Y-72323653D01*
X95498989Y-72317836D01*
X95469748Y-72312020D01*
X93430252Y-72312020D01*
X93401010Y-72317836D01*
X93371767Y-72323653D01*
X93305449Y-72367967D01*
X93305447Y-72367969D01*
X93261133Y-72434287D01*
X93249500Y-72492773D01*
X93249500Y-72738020D01*
X93227826Y-72790346D01*
X93175500Y-72812020D01*
X92869168Y-72812020D01*
X92816842Y-72790346D01*
X92803234Y-72771616D01*
X92798528Y-72762380D01*
X92703220Y-72667072D01*
X92703219Y-72667071D01*
X92583126Y-72605881D01*
X92583125Y-72605880D01*
X92483489Y-72590100D01*
X92483488Y-72590100D01*
X91916512Y-72590100D01*
X91916511Y-72590100D01*
X91816874Y-72605880D01*
X91816873Y-72605881D01*
X91696780Y-72667071D01*
X91601470Y-72762381D01*
X91595196Y-72774696D01*
X91552128Y-72811478D01*
X91529262Y-72815100D01*
X91175062Y-72815100D01*
X91122736Y-72793426D01*
X91115522Y-72785043D01*
X91105612Y-72771616D01*
X91097150Y-72760150D01*
X90994023Y-72684039D01*
X90964794Y-72635529D01*
X90978427Y-72580557D01*
X91026938Y-72551327D01*
X91037967Y-72550500D01*
X91359309Y-72550500D01*
X91449673Y-72526286D01*
X91449674Y-72526286D01*
X91460350Y-72523425D01*
X91473887Y-72519799D01*
X91576614Y-72460489D01*
X92381164Y-71655937D01*
X92421911Y-71635176D01*
X92471526Y-71627319D01*
X92591620Y-71566128D01*
X92686928Y-71470820D01*
X92690746Y-71463327D01*
X92693204Y-71458504D01*
X92736272Y-71421722D01*
X92759138Y-71418100D01*
X93175500Y-71418100D01*
X93227826Y-71439774D01*
X93249500Y-71492100D01*
X93249500Y-71732268D01*
X93255481Y-71762335D01*
X93261133Y-71790752D01*
X93285551Y-71827295D01*
X93305448Y-71857072D01*
X93347084Y-71884893D01*
X93371767Y-71901386D01*
X93371768Y-71901386D01*
X93371769Y-71901387D01*
X93430252Y-71913020D01*
X93430254Y-71913020D01*
X95469746Y-71913020D01*
X95469748Y-71913020D01*
X95528231Y-71901387D01*
X95594552Y-71857072D01*
X95638867Y-71790751D01*
X95650500Y-71732268D01*
X95650500Y-71637020D01*
X95672174Y-71584694D01*
X95724500Y-71563020D01*
X96013897Y-71563020D01*
X96013913Y-71563021D01*
X96018443Y-71563021D01*
X96176559Y-71563021D01*
X96176559Y-71563020D01*
X96329285Y-71522097D01*
X96379404Y-71493159D01*
X96466216Y-71443040D01*
X96578020Y-71331236D01*
X96578021Y-71331233D01*
X97371041Y-70538214D01*
X97423367Y-70516540D01*
X101340933Y-70516540D01*
X101393259Y-70538214D01*
G37*
%TD.AperFunction*%
%TA.AperFunction,Conductor*%
G36*
X130433826Y-66416174D02*
G01*
X130455500Y-66468500D01*
X130455500Y-136731500D01*
X130433826Y-136783826D01*
X130381500Y-136805500D01*
X60118500Y-136805500D01*
X60066174Y-136783826D01*
X60044500Y-136731500D01*
X60044500Y-132333999D01*
X73028980Y-132333999D01*
X73028980Y-132334000D01*
X73595740Y-132334000D01*
X73568926Y-132360814D01*
X73520215Y-132445185D01*
X73495000Y-132539289D01*
X73495000Y-132636711D01*
X73520215Y-132730815D01*
X73568926Y-132815186D01*
X73595740Y-132842000D01*
X73028980Y-132842000D01*
X73047663Y-132935930D01*
X73047665Y-132935936D01*
X73111740Y-133090626D01*
X73204761Y-133229843D01*
X73323156Y-133348238D01*
X73462373Y-133441259D01*
X73610999Y-133502823D01*
X73611000Y-133502823D01*
X73611000Y-132857260D01*
X73637814Y-132884074D01*
X73722185Y-132932785D01*
X73816289Y-132958000D01*
X73913711Y-132958000D01*
X74007815Y-132932785D01*
X74092186Y-132884074D01*
X74119000Y-132857260D01*
X74119000Y-133502823D01*
X74267626Y-133441259D01*
X74406843Y-133348238D01*
X74406845Y-133348237D01*
X74525237Y-133229845D01*
X74525238Y-133229843D01*
X74618259Y-133090626D01*
X74682334Y-132935936D01*
X74682336Y-132935930D01*
X74701019Y-132842000D01*
X74134260Y-132842000D01*
X74161074Y-132815186D01*
X74209785Y-132730815D01*
X74235000Y-132636711D01*
X74235000Y-132539289D01*
X74209785Y-132445185D01*
X74161074Y-132360814D01*
X74134260Y-132334000D01*
X74701020Y-132334000D01*
X74701019Y-132333999D01*
X76838980Y-132333999D01*
X76838980Y-132334000D01*
X77405740Y-132334000D01*
X77378926Y-132360814D01*
X77330215Y-132445185D01*
X77305000Y-132539289D01*
X77305000Y-132636711D01*
X77330215Y-132730815D01*
X77378926Y-132815186D01*
X77405740Y-132842000D01*
X76838980Y-132842000D01*
X76857663Y-132935930D01*
X76857665Y-132935936D01*
X76921740Y-133090626D01*
X77014761Y-133229843D01*
X77133156Y-133348238D01*
X77272373Y-133441259D01*
X77420999Y-133502823D01*
X77421000Y-133502823D01*
X77421000Y-132857260D01*
X77447814Y-132884074D01*
X77532185Y-132932785D01*
X77626289Y-132958000D01*
X77723711Y-132958000D01*
X77817815Y-132932785D01*
X77902186Y-132884074D01*
X77929000Y-132857260D01*
X77929000Y-133502823D01*
X78077626Y-133441259D01*
X78216843Y-133348238D01*
X78216845Y-133348237D01*
X78335237Y-133229845D01*
X78335238Y-133229843D01*
X78428259Y-133090626D01*
X78492334Y-132935936D01*
X78492336Y-132935930D01*
X78511019Y-132842000D01*
X77944260Y-132842000D01*
X77971074Y-132815186D01*
X78019785Y-132730815D01*
X78045000Y-132636711D01*
X78045000Y-132539289D01*
X78019785Y-132445185D01*
X77971074Y-132360814D01*
X77944260Y-132334000D01*
X78511020Y-132334000D01*
X78511019Y-132333999D01*
X80648980Y-132333999D01*
X80648980Y-132334000D01*
X81215740Y-132334000D01*
X81188926Y-132360814D01*
X81140215Y-132445185D01*
X81115000Y-132539289D01*
X81115000Y-132636711D01*
X81140215Y-132730815D01*
X81188926Y-132815186D01*
X81215740Y-132842000D01*
X80648980Y-132842000D01*
X80667663Y-132935930D01*
X80667665Y-132935936D01*
X80731740Y-133090626D01*
X80824761Y-133229843D01*
X80943156Y-133348238D01*
X81082373Y-133441259D01*
X81230999Y-133502823D01*
X81231000Y-133502823D01*
X81231000Y-132857260D01*
X81257814Y-132884074D01*
X81342185Y-132932785D01*
X81436289Y-132958000D01*
X81533711Y-132958000D01*
X81627815Y-132932785D01*
X81712186Y-132884074D01*
X81739000Y-132857260D01*
X81739000Y-133502823D01*
X81887626Y-133441259D01*
X82026843Y-133348238D01*
X82026845Y-133348237D01*
X82145237Y-133229845D01*
X82145238Y-133229843D01*
X82238259Y-133090626D01*
X82302334Y-132935936D01*
X82302336Y-132935930D01*
X82321019Y-132842000D01*
X81754260Y-132842000D01*
X81781074Y-132815186D01*
X81829785Y-132730815D01*
X81855000Y-132636711D01*
X81855000Y-132539289D01*
X81829785Y-132445185D01*
X81781074Y-132360814D01*
X81754260Y-132334000D01*
X82321020Y-132334000D01*
X82321019Y-132333999D01*
X82302336Y-132240069D01*
X82302334Y-132240063D01*
X82238259Y-132085373D01*
X82145238Y-131946156D01*
X82026843Y-131827761D01*
X81887621Y-131734737D01*
X81739000Y-131673175D01*
X81739000Y-132318740D01*
X81712186Y-132291926D01*
X81627815Y-132243215D01*
X81533711Y-132218000D01*
X81436289Y-132218000D01*
X81342185Y-132243215D01*
X81257814Y-132291926D01*
X81231000Y-132318740D01*
X81231000Y-131673176D01*
X81230999Y-131673175D01*
X81082378Y-131734737D01*
X80943156Y-131827761D01*
X80943155Y-131827763D01*
X80824763Y-131946155D01*
X80824761Y-131946156D01*
X80731740Y-132085373D01*
X80667665Y-132240063D01*
X80667663Y-132240069D01*
X80648980Y-132333999D01*
X78511019Y-132333999D01*
X78492336Y-132240069D01*
X78492334Y-132240063D01*
X78428259Y-132085373D01*
X78335238Y-131946156D01*
X78216843Y-131827761D01*
X78077621Y-131734737D01*
X77929000Y-131673175D01*
X77929000Y-132318740D01*
X77902186Y-132291926D01*
X77817815Y-132243215D01*
X77723711Y-132218000D01*
X77626289Y-132218000D01*
X77532185Y-132243215D01*
X77447814Y-132291926D01*
X77421000Y-132318740D01*
X77421000Y-131673176D01*
X77420999Y-131673175D01*
X77272378Y-131734737D01*
X77133156Y-131827761D01*
X77133155Y-131827763D01*
X77014763Y-131946155D01*
X77014761Y-131946156D01*
X76921740Y-132085373D01*
X76857665Y-132240063D01*
X76857663Y-132240069D01*
X76838980Y-132333999D01*
X74701019Y-132333999D01*
X74682336Y-132240069D01*
X74682334Y-132240063D01*
X74618259Y-132085373D01*
X74525238Y-131946156D01*
X74406843Y-131827761D01*
X74267621Y-131734737D01*
X74119000Y-131673175D01*
X74119000Y-132318740D01*
X74092186Y-132291926D01*
X74007815Y-132243215D01*
X73913711Y-132218000D01*
X73816289Y-132218000D01*
X73722185Y-132243215D01*
X73637814Y-132291926D01*
X73611000Y-132318740D01*
X73611000Y-131673176D01*
X73610999Y-131673175D01*
X73462378Y-131734737D01*
X73323156Y-131827761D01*
X73323155Y-131827763D01*
X73204763Y-131946155D01*
X73204761Y-131946156D01*
X73111740Y-132085373D01*
X73047665Y-132240063D01*
X73047663Y-132240069D01*
X73028980Y-132333999D01*
X60044500Y-132333999D01*
X60044500Y-129973842D01*
X69664500Y-129973842D01*
X69664500Y-130202157D01*
X69700215Y-130427657D01*
X69700218Y-130427670D01*
X69770766Y-130644793D01*
X69874420Y-130848227D01*
X69965685Y-130973842D01*
X70008621Y-131032937D01*
X70170063Y-131194379D01*
X70354772Y-131328579D01*
X70558201Y-131432231D01*
X70558203Y-131432231D01*
X70558206Y-131432233D01*
X70775329Y-131502781D01*
X70775335Y-131502782D01*
X70775340Y-131502784D01*
X70913492Y-131524665D01*
X71000842Y-131538500D01*
X71000843Y-131538500D01*
X71229158Y-131538500D01*
X71316508Y-131524665D01*
X71454660Y-131502784D01*
X71454667Y-131502781D01*
X71454670Y-131502781D01*
X71671793Y-131432233D01*
X71671793Y-131432232D01*
X71671799Y-131432231D01*
X71875228Y-131328579D01*
X72059937Y-131194379D01*
X72221379Y-131032937D01*
X72305228Y-130917529D01*
X74419500Y-130917529D01*
X74419500Y-131258470D01*
X74446994Y-131396697D01*
X74446996Y-131396704D01*
X74499999Y-131524665D01*
X74500932Y-131526916D01*
X74547886Y-131597188D01*
X74579231Y-131644100D01*
X74579235Y-131644105D01*
X74678895Y-131743765D01*
X74796084Y-131822068D01*
X74926296Y-131876004D01*
X75064529Y-131903500D01*
X75064530Y-131903500D01*
X75205470Y-131903500D01*
X75205471Y-131903500D01*
X75343704Y-131876004D01*
X75473916Y-131822068D01*
X75591105Y-131743765D01*
X75690765Y-131644105D01*
X75708471Y-131617605D01*
X75755562Y-131586139D01*
X75811111Y-131597188D01*
X75831529Y-131617606D01*
X75849231Y-131644100D01*
X75849234Y-131644103D01*
X75849235Y-131644105D01*
X75948895Y-131743765D01*
X76066084Y-131822068D01*
X76196296Y-131876004D01*
X76334529Y-131903500D01*
X76334530Y-131903500D01*
X76475470Y-131903500D01*
X76475471Y-131903500D01*
X76613704Y-131876004D01*
X76743916Y-131822068D01*
X76861105Y-131743765D01*
X76960765Y-131644105D01*
X77039068Y-131526916D01*
X77093004Y-131396704D01*
X77120500Y-131258471D01*
X77120500Y-130917529D01*
X78229500Y-130917529D01*
X78229500Y-131258470D01*
X78256994Y-131396697D01*
X78256996Y-131396704D01*
X78309999Y-131524665D01*
X78310932Y-131526916D01*
X78357886Y-131597188D01*
X78389231Y-131644100D01*
X78389235Y-131644105D01*
X78488895Y-131743765D01*
X78606084Y-131822068D01*
X78736296Y-131876004D01*
X78874529Y-131903500D01*
X78874530Y-131903500D01*
X79015470Y-131903500D01*
X79015471Y-131903500D01*
X79153704Y-131876004D01*
X79283916Y-131822068D01*
X79401105Y-131743765D01*
X79500765Y-131644105D01*
X79518471Y-131617605D01*
X79565562Y-131586139D01*
X79621111Y-131597188D01*
X79641529Y-131617606D01*
X79659231Y-131644100D01*
X79659234Y-131644103D01*
X79659235Y-131644105D01*
X79758895Y-131743765D01*
X79876084Y-131822068D01*
X80006296Y-131876004D01*
X80144529Y-131903500D01*
X80144530Y-131903500D01*
X80285470Y-131903500D01*
X80285471Y-131903500D01*
X80423704Y-131876004D01*
X80553916Y-131822068D01*
X80671105Y-131743765D01*
X80770765Y-131644105D01*
X80849068Y-131526916D01*
X80903004Y-131396704D01*
X80930500Y-131258471D01*
X80930500Y-130973842D01*
X82494500Y-130973842D01*
X82494500Y-131202157D01*
X82530215Y-131427657D01*
X82530218Y-131427670D01*
X82600766Y-131644793D01*
X82704420Y-131848227D01*
X82775569Y-131946155D01*
X82838621Y-132032937D01*
X83000063Y-132194379D01*
X83184772Y-132328579D01*
X83388201Y-132432231D01*
X83388203Y-132432231D01*
X83388206Y-132432233D01*
X83605329Y-132502781D01*
X83605335Y-132502782D01*
X83605340Y-132502784D01*
X83755675Y-132526594D01*
X83830842Y-132538500D01*
X83830843Y-132538500D01*
X84059158Y-132538500D01*
X84115532Y-132529571D01*
X84284660Y-132502784D01*
X84284667Y-132502781D01*
X84284670Y-132502781D01*
X84501793Y-132432233D01*
X84501793Y-132432232D01*
X84501799Y-132432231D01*
X84694591Y-132333999D01*
X91178980Y-132333999D01*
X91178980Y-132334000D01*
X91745740Y-132334000D01*
X91718926Y-132360814D01*
X91670215Y-132445185D01*
X91645000Y-132539289D01*
X91645000Y-132636711D01*
X91670215Y-132730815D01*
X91718926Y-132815186D01*
X91745740Y-132842000D01*
X91178980Y-132842000D01*
X91197663Y-132935930D01*
X91197665Y-132935936D01*
X91261740Y-133090626D01*
X91354761Y-133229843D01*
X91473156Y-133348238D01*
X91612373Y-133441259D01*
X91760999Y-133502823D01*
X91761000Y-133502823D01*
X91761000Y-132857260D01*
X91787814Y-132884074D01*
X91872185Y-132932785D01*
X91966289Y-132958000D01*
X92063711Y-132958000D01*
X92157815Y-132932785D01*
X92242186Y-132884074D01*
X92269000Y-132857260D01*
X92269000Y-133502823D01*
X92417626Y-133441259D01*
X92556843Y-133348238D01*
X92556845Y-133348237D01*
X92675237Y-133229845D01*
X92675238Y-133229843D01*
X92768259Y-133090626D01*
X92832334Y-132935936D01*
X92832336Y-132935930D01*
X92851019Y-132842000D01*
X92284260Y-132842000D01*
X92311074Y-132815186D01*
X92359785Y-132730815D01*
X92385000Y-132636711D01*
X92385000Y-132539289D01*
X92359785Y-132445185D01*
X92311074Y-132360814D01*
X92284260Y-132334000D01*
X92851020Y-132334000D01*
X92851019Y-132333999D01*
X94988980Y-132333999D01*
X94988980Y-132334000D01*
X95555740Y-132334000D01*
X95528926Y-132360814D01*
X95480215Y-132445185D01*
X95455000Y-132539289D01*
X95455000Y-132636711D01*
X95480215Y-132730815D01*
X95528926Y-132815186D01*
X95555740Y-132842000D01*
X94988980Y-132842000D01*
X95007663Y-132935930D01*
X95007665Y-132935936D01*
X95071740Y-133090626D01*
X95164761Y-133229843D01*
X95283156Y-133348238D01*
X95422373Y-133441259D01*
X95570999Y-133502823D01*
X95571000Y-133502823D01*
X95571000Y-132857260D01*
X95597814Y-132884074D01*
X95682185Y-132932785D01*
X95776289Y-132958000D01*
X95873711Y-132958000D01*
X95967815Y-132932785D01*
X96052186Y-132884074D01*
X96079000Y-132857260D01*
X96079000Y-133502823D01*
X96227626Y-133441259D01*
X96366843Y-133348238D01*
X96366845Y-133348237D01*
X96485237Y-133229845D01*
X96485238Y-133229843D01*
X96578259Y-133090626D01*
X96642334Y-132935936D01*
X96642336Y-132935930D01*
X96661019Y-132842000D01*
X96094260Y-132842000D01*
X96121074Y-132815186D01*
X96169785Y-132730815D01*
X96195000Y-132636711D01*
X96195000Y-132539289D01*
X96169785Y-132445185D01*
X96121074Y-132360814D01*
X96094260Y-132334000D01*
X96661020Y-132334000D01*
X96661019Y-132333999D01*
X98798980Y-132333999D01*
X98798980Y-132334000D01*
X99365740Y-132334000D01*
X99338926Y-132360814D01*
X99290215Y-132445185D01*
X99265000Y-132539289D01*
X99265000Y-132636711D01*
X99290215Y-132730815D01*
X99338926Y-132815186D01*
X99365740Y-132842000D01*
X98798980Y-132842000D01*
X98817663Y-132935930D01*
X98817665Y-132935936D01*
X98881740Y-133090626D01*
X98974761Y-133229843D01*
X99093156Y-133348238D01*
X99232373Y-133441259D01*
X99380999Y-133502823D01*
X99381000Y-133502823D01*
X99381000Y-132857260D01*
X99407814Y-132884074D01*
X99492185Y-132932785D01*
X99586289Y-132958000D01*
X99683711Y-132958000D01*
X99777815Y-132932785D01*
X99862186Y-132884074D01*
X99889000Y-132857260D01*
X99889000Y-133502823D01*
X100037626Y-133441259D01*
X100176843Y-133348238D01*
X100176845Y-133348237D01*
X100295237Y-133229845D01*
X100295238Y-133229843D01*
X100388259Y-133090626D01*
X100452334Y-132935936D01*
X100452336Y-132935930D01*
X100471019Y-132842000D01*
X99904260Y-132842000D01*
X99931074Y-132815186D01*
X99979785Y-132730815D01*
X100005000Y-132636711D01*
X100005000Y-132539289D01*
X99979785Y-132445185D01*
X99931074Y-132360814D01*
X99904260Y-132334000D01*
X100471020Y-132334000D01*
X100471019Y-132333999D01*
X100452336Y-132240069D01*
X100452334Y-132240063D01*
X100388259Y-132085373D01*
X100295238Y-131946156D01*
X100176843Y-131827761D01*
X100037621Y-131734737D01*
X99889000Y-131673175D01*
X99889000Y-132318740D01*
X99862186Y-132291926D01*
X99777815Y-132243215D01*
X99683711Y-132218000D01*
X99586289Y-132218000D01*
X99492185Y-132243215D01*
X99407814Y-132291926D01*
X99381000Y-132318740D01*
X99381000Y-131673176D01*
X99380999Y-131673175D01*
X99232378Y-131734737D01*
X99093156Y-131827761D01*
X99093155Y-131827763D01*
X98974763Y-131946155D01*
X98974761Y-131946156D01*
X98881740Y-132085373D01*
X98817665Y-132240063D01*
X98817663Y-132240069D01*
X98798980Y-132333999D01*
X96661019Y-132333999D01*
X96642336Y-132240069D01*
X96642334Y-132240063D01*
X96578259Y-132085373D01*
X96485238Y-131946156D01*
X96366843Y-131827761D01*
X96227621Y-131734737D01*
X96079000Y-131673175D01*
X96079000Y-132318740D01*
X96052186Y-132291926D01*
X95967815Y-132243215D01*
X95873711Y-132218000D01*
X95776289Y-132218000D01*
X95682185Y-132243215D01*
X95597814Y-132291926D01*
X95571000Y-132318740D01*
X95571000Y-131673176D01*
X95570999Y-131673175D01*
X95422378Y-131734737D01*
X95283156Y-131827761D01*
X95283155Y-131827763D01*
X95164763Y-131946155D01*
X95164761Y-131946156D01*
X95071740Y-132085373D01*
X95007665Y-132240063D01*
X95007663Y-132240069D01*
X94988980Y-132333999D01*
X92851019Y-132333999D01*
X92832336Y-132240069D01*
X92832334Y-132240063D01*
X92768259Y-132085373D01*
X92675238Y-131946156D01*
X92556843Y-131827761D01*
X92417621Y-131734737D01*
X92269000Y-131673175D01*
X92269000Y-132318740D01*
X92242186Y-132291926D01*
X92157815Y-132243215D01*
X92063711Y-132218000D01*
X91966289Y-132218000D01*
X91872185Y-132243215D01*
X91787814Y-132291926D01*
X91761000Y-132318740D01*
X91761000Y-131673176D01*
X91760999Y-131673175D01*
X91612378Y-131734737D01*
X91473156Y-131827761D01*
X91473155Y-131827763D01*
X91354763Y-131946155D01*
X91354761Y-131946156D01*
X91261740Y-132085373D01*
X91197665Y-132240063D01*
X91197663Y-132240069D01*
X91178980Y-132333999D01*
X84694591Y-132333999D01*
X84705228Y-132328579D01*
X84889937Y-132194379D01*
X85051379Y-132032937D01*
X85185579Y-131848228D01*
X85289231Y-131644799D01*
X85289456Y-131644106D01*
X85359781Y-131427670D01*
X85359781Y-131427667D01*
X85359784Y-131427660D01*
X85395500Y-131202157D01*
X85395500Y-130973843D01*
X85359784Y-130748340D01*
X85359782Y-130748335D01*
X85359781Y-130748329D01*
X85289233Y-130531206D01*
X85289231Y-130531203D01*
X85289231Y-130531201D01*
X85185579Y-130327772D01*
X85051379Y-130143063D01*
X84889937Y-129981621D01*
X84889934Y-129981618D01*
X84889932Y-129981617D01*
X84879231Y-129973842D01*
X87814500Y-129973842D01*
X87814500Y-130202157D01*
X87850215Y-130427657D01*
X87850218Y-130427670D01*
X87920766Y-130644793D01*
X88024420Y-130848227D01*
X88115685Y-130973842D01*
X88158621Y-131032937D01*
X88320063Y-131194379D01*
X88504772Y-131328579D01*
X88708201Y-131432231D01*
X88708203Y-131432231D01*
X88708206Y-131432233D01*
X88925329Y-131502781D01*
X88925335Y-131502782D01*
X88925340Y-131502784D01*
X89063492Y-131524665D01*
X89150842Y-131538500D01*
X89150843Y-131538500D01*
X89379158Y-131538500D01*
X89466508Y-131524665D01*
X89604660Y-131502784D01*
X89604667Y-131502781D01*
X89604670Y-131502781D01*
X89821793Y-131432233D01*
X89821793Y-131432232D01*
X89821799Y-131432231D01*
X90025228Y-131328579D01*
X90209937Y-131194379D01*
X90371379Y-131032937D01*
X90455228Y-130917529D01*
X92569500Y-130917529D01*
X92569500Y-131258470D01*
X92596994Y-131396697D01*
X92596996Y-131396704D01*
X92649999Y-131524665D01*
X92650932Y-131526916D01*
X92697886Y-131597188D01*
X92729231Y-131644100D01*
X92729235Y-131644105D01*
X92828895Y-131743765D01*
X92946084Y-131822068D01*
X93076296Y-131876004D01*
X93214529Y-131903500D01*
X93214530Y-131903500D01*
X93355470Y-131903500D01*
X93355471Y-131903500D01*
X93493704Y-131876004D01*
X93623916Y-131822068D01*
X93741105Y-131743765D01*
X93840765Y-131644105D01*
X93858471Y-131617605D01*
X93905562Y-131586139D01*
X93961111Y-131597188D01*
X93981529Y-131617606D01*
X93999231Y-131644100D01*
X93999234Y-131644103D01*
X93999235Y-131644105D01*
X94098895Y-131743765D01*
X94216084Y-131822068D01*
X94346296Y-131876004D01*
X94484529Y-131903500D01*
X94484530Y-131903500D01*
X94625470Y-131903500D01*
X94625471Y-131903500D01*
X94763704Y-131876004D01*
X94893916Y-131822068D01*
X95011105Y-131743765D01*
X95110765Y-131644105D01*
X95189068Y-131526916D01*
X95243004Y-131396704D01*
X95270500Y-131258471D01*
X95270500Y-130917529D01*
X96379500Y-130917529D01*
X96379500Y-131258470D01*
X96406994Y-131396697D01*
X96406996Y-131396704D01*
X96459999Y-131524665D01*
X96460932Y-131526916D01*
X96507886Y-131597188D01*
X96539231Y-131644100D01*
X96539235Y-131644105D01*
X96638895Y-131743765D01*
X96756084Y-131822068D01*
X96886296Y-131876004D01*
X97024529Y-131903500D01*
X97024530Y-131903500D01*
X97165470Y-131903500D01*
X97165471Y-131903500D01*
X97303704Y-131876004D01*
X97433916Y-131822068D01*
X97551105Y-131743765D01*
X97650765Y-131644105D01*
X97668471Y-131617605D01*
X97715562Y-131586139D01*
X97771111Y-131597188D01*
X97791529Y-131617606D01*
X97809231Y-131644100D01*
X97809234Y-131644103D01*
X97809235Y-131644105D01*
X97908895Y-131743765D01*
X98026084Y-131822068D01*
X98156296Y-131876004D01*
X98294529Y-131903500D01*
X98294530Y-131903500D01*
X98435470Y-131903500D01*
X98435471Y-131903500D01*
X98573704Y-131876004D01*
X98703916Y-131822068D01*
X98821105Y-131743765D01*
X98920765Y-131644105D01*
X98999068Y-131526916D01*
X99053004Y-131396704D01*
X99080500Y-131258471D01*
X99080500Y-130973842D01*
X100644500Y-130973842D01*
X100644500Y-131202157D01*
X100680215Y-131427657D01*
X100680218Y-131427670D01*
X100750766Y-131644793D01*
X100854420Y-131848227D01*
X100925569Y-131946155D01*
X100988621Y-132032937D01*
X101150063Y-132194379D01*
X101334772Y-132328579D01*
X101538201Y-132432231D01*
X101538203Y-132432231D01*
X101538206Y-132432233D01*
X101755329Y-132502781D01*
X101755335Y-132502782D01*
X101755340Y-132502784D01*
X101905675Y-132526594D01*
X101980842Y-132538500D01*
X101980843Y-132538500D01*
X102209158Y-132538500D01*
X102265532Y-132529571D01*
X102434660Y-132502784D01*
X102434667Y-132502781D01*
X102434670Y-132502781D01*
X102651793Y-132432233D01*
X102651793Y-132432232D01*
X102651799Y-132432231D01*
X102855228Y-132328579D01*
X103039937Y-132194379D01*
X103201379Y-132032937D01*
X103335579Y-131848228D01*
X103439231Y-131644799D01*
X103439456Y-131644106D01*
X103509781Y-131427670D01*
X103509781Y-131427667D01*
X103509784Y-131427660D01*
X103545500Y-131202157D01*
X103545500Y-130973843D01*
X103509784Y-130748340D01*
X103509782Y-130748335D01*
X103509781Y-130748329D01*
X103439233Y-130531206D01*
X103439231Y-130531203D01*
X103439231Y-130531201D01*
X103335579Y-130327772D01*
X103201379Y-130143063D01*
X103039937Y-129981621D01*
X103039934Y-129981618D01*
X103039932Y-129981617D01*
X102855227Y-129847420D01*
X102660770Y-129748340D01*
X102651799Y-129743769D01*
X102651798Y-129743768D01*
X102651793Y-129743766D01*
X102434670Y-129673218D01*
X102434657Y-129673215D01*
X102209158Y-129637500D01*
X102209157Y-129637500D01*
X101980843Y-129637500D01*
X101980842Y-129637500D01*
X101755342Y-129673215D01*
X101755329Y-129673218D01*
X101538206Y-129743766D01*
X101334772Y-129847420D01*
X101150067Y-129981617D01*
X100988617Y-130143067D01*
X100854420Y-130327772D01*
X100750766Y-130531206D01*
X100680218Y-130748329D01*
X100680215Y-130748342D01*
X100644500Y-130973842D01*
X99080500Y-130973842D01*
X99080500Y-130917529D01*
X99053004Y-130779296D01*
X98999068Y-130649084D01*
X98920765Y-130531895D01*
X98821105Y-130432235D01*
X98703916Y-130353932D01*
X98703913Y-130353930D01*
X98703912Y-130353930D01*
X98573704Y-130299996D01*
X98573697Y-130299994D01*
X98469559Y-130279280D01*
X98435471Y-130272500D01*
X98294529Y-130272500D01*
X98267183Y-130277939D01*
X98156302Y-130299994D01*
X98156295Y-130299996D01*
X98026087Y-130353930D01*
X97908895Y-130432234D01*
X97908894Y-130432236D01*
X97809236Y-130531894D01*
X97809234Y-130531895D01*
X97791529Y-130558394D01*
X97744437Y-130589860D01*
X97688888Y-130578811D01*
X97668471Y-130558394D01*
X97650765Y-130531895D01*
X97551104Y-130432234D01*
X97512392Y-130406368D01*
X97433916Y-130353932D01*
X97433913Y-130353930D01*
X97433912Y-130353930D01*
X97303704Y-130299996D01*
X97303697Y-130299994D01*
X97199559Y-130279280D01*
X97165471Y-130272500D01*
X97024529Y-130272500D01*
X96997183Y-130277939D01*
X96886302Y-130299994D01*
X96886295Y-130299996D01*
X96756087Y-130353930D01*
X96638895Y-130432234D01*
X96638894Y-130432236D01*
X96539236Y-130531894D01*
X96539234Y-130531895D01*
X96460930Y-130649087D01*
X96406996Y-130779295D01*
X96406994Y-130779302D01*
X96379500Y-130917529D01*
X95270500Y-130917529D01*
X95243004Y-130779296D01*
X95189068Y-130649084D01*
X95110765Y-130531895D01*
X95011105Y-130432235D01*
X94893916Y-130353932D01*
X94893913Y-130353930D01*
X94893912Y-130353930D01*
X94763704Y-130299996D01*
X94763697Y-130299994D01*
X94659559Y-130279280D01*
X94625471Y-130272500D01*
X94484529Y-130272500D01*
X94457183Y-130277939D01*
X94346302Y-130299994D01*
X94346295Y-130299996D01*
X94216087Y-130353930D01*
X94098895Y-130432234D01*
X94098894Y-130432236D01*
X93999236Y-130531894D01*
X93999234Y-130531895D01*
X93981529Y-130558394D01*
X93934437Y-130589860D01*
X93878888Y-130578811D01*
X93858471Y-130558394D01*
X93840765Y-130531895D01*
X93741104Y-130432234D01*
X93702392Y-130406368D01*
X93623916Y-130353932D01*
X93623913Y-130353930D01*
X93623912Y-130353930D01*
X93493704Y-130299996D01*
X93493697Y-130299994D01*
X93389559Y-130279280D01*
X93355471Y-130272500D01*
X93214529Y-130272500D01*
X93187183Y-130277939D01*
X93076302Y-130299994D01*
X93076295Y-130299996D01*
X92946087Y-130353930D01*
X92828895Y-130432234D01*
X92828894Y-130432236D01*
X92729236Y-130531894D01*
X92729234Y-130531895D01*
X92650930Y-130649087D01*
X92596996Y-130779295D01*
X92596994Y-130779302D01*
X92569500Y-130917529D01*
X90455228Y-130917529D01*
X90505579Y-130848228D01*
X90609231Y-130644799D01*
X90646140Y-130531206D01*
X90679781Y-130427670D01*
X90679781Y-130427667D01*
X90679784Y-130427660D01*
X90715500Y-130202157D01*
X90715500Y-129973843D01*
X90679784Y-129748340D01*
X90679782Y-129748335D01*
X90679781Y-129748329D01*
X90609233Y-129531206D01*
X90609231Y-129531203D01*
X90609231Y-129531201D01*
X90505579Y-129327772D01*
X90371379Y-129143063D01*
X90209937Y-128981621D01*
X90209934Y-128981618D01*
X90209932Y-128981617D01*
X90025227Y-128847420D01*
X89821793Y-128743766D01*
X89604670Y-128673218D01*
X89604657Y-128673215D01*
X89379158Y-128637500D01*
X89379157Y-128637500D01*
X89150843Y-128637500D01*
X89150842Y-128637500D01*
X88925342Y-128673215D01*
X88925329Y-128673218D01*
X88708206Y-128743766D01*
X88504772Y-128847420D01*
X88320067Y-128981617D01*
X88158617Y-129143067D01*
X88024420Y-129327772D01*
X87920766Y-129531206D01*
X87850218Y-129748329D01*
X87850215Y-129748342D01*
X87814500Y-129973842D01*
X84879231Y-129973842D01*
X84705227Y-129847420D01*
X84510770Y-129748340D01*
X84501799Y-129743769D01*
X84501798Y-129743768D01*
X84501793Y-129743766D01*
X84284670Y-129673218D01*
X84284657Y-129673215D01*
X84059158Y-129637500D01*
X84059157Y-129637500D01*
X83830843Y-129637500D01*
X83830842Y-129637500D01*
X83605342Y-129673215D01*
X83605329Y-129673218D01*
X83388206Y-129743766D01*
X83184772Y-129847420D01*
X83000067Y-129981617D01*
X82838617Y-130143067D01*
X82704420Y-130327772D01*
X82600766Y-130531206D01*
X82530218Y-130748329D01*
X82530215Y-130748342D01*
X82494500Y-130973842D01*
X80930500Y-130973842D01*
X80930500Y-130917529D01*
X80903004Y-130779296D01*
X80849068Y-130649084D01*
X80770765Y-130531895D01*
X80671105Y-130432235D01*
X80553916Y-130353932D01*
X80553913Y-130353930D01*
X80553912Y-130353930D01*
X80423704Y-130299996D01*
X80423697Y-130299994D01*
X80319559Y-130279280D01*
X80285471Y-130272500D01*
X80144529Y-130272500D01*
X80117183Y-130277939D01*
X80006302Y-130299994D01*
X80006295Y-130299996D01*
X79876087Y-130353930D01*
X79758895Y-130432234D01*
X79758894Y-130432236D01*
X79659236Y-130531894D01*
X79659234Y-130531895D01*
X79641529Y-130558394D01*
X79594437Y-130589860D01*
X79538888Y-130578811D01*
X79518471Y-130558394D01*
X79500765Y-130531895D01*
X79401104Y-130432234D01*
X79362392Y-130406368D01*
X79283916Y-130353932D01*
X79283913Y-130353930D01*
X79283912Y-130353930D01*
X79153704Y-130299996D01*
X79153697Y-130299994D01*
X79049559Y-130279280D01*
X79015471Y-130272500D01*
X78874529Y-130272500D01*
X78847183Y-130277939D01*
X78736302Y-130299994D01*
X78736295Y-130299996D01*
X78606087Y-130353930D01*
X78488895Y-130432234D01*
X78488894Y-130432236D01*
X78389236Y-130531894D01*
X78389234Y-130531895D01*
X78310930Y-130649087D01*
X78256996Y-130779295D01*
X78256994Y-130779302D01*
X78229500Y-130917529D01*
X77120500Y-130917529D01*
X77093004Y-130779296D01*
X77039068Y-130649084D01*
X76960765Y-130531895D01*
X76861105Y-130432235D01*
X76743916Y-130353932D01*
X76743913Y-130353930D01*
X76743912Y-130353930D01*
X76613704Y-130299996D01*
X76613697Y-130299994D01*
X76509559Y-130279280D01*
X76475471Y-130272500D01*
X76334529Y-130272500D01*
X76307183Y-130277939D01*
X76196302Y-130299994D01*
X76196295Y-130299996D01*
X76066087Y-130353930D01*
X75948895Y-130432234D01*
X75948894Y-130432236D01*
X75849236Y-130531894D01*
X75849234Y-130531895D01*
X75831529Y-130558394D01*
X75784437Y-130589860D01*
X75728888Y-130578811D01*
X75708471Y-130558394D01*
X75690765Y-130531895D01*
X75591104Y-130432234D01*
X75552392Y-130406368D01*
X75473916Y-130353932D01*
X75473913Y-130353930D01*
X75473912Y-130353930D01*
X75343704Y-130299996D01*
X75343697Y-130299994D01*
X75239559Y-130279280D01*
X75205471Y-130272500D01*
X75064529Y-130272500D01*
X75037183Y-130277939D01*
X74926302Y-130299994D01*
X74926295Y-130299996D01*
X74796087Y-130353930D01*
X74678895Y-130432234D01*
X74678894Y-130432236D01*
X74579236Y-130531894D01*
X74579234Y-130531895D01*
X74500930Y-130649087D01*
X74446996Y-130779295D01*
X74446994Y-130779302D01*
X74419500Y-130917529D01*
X72305228Y-130917529D01*
X72355579Y-130848228D01*
X72459231Y-130644799D01*
X72496140Y-130531206D01*
X72529781Y-130427670D01*
X72529781Y-130427667D01*
X72529784Y-130427660D01*
X72565500Y-130202157D01*
X72565500Y-129973843D01*
X72529784Y-129748340D01*
X72529782Y-129748335D01*
X72529781Y-129748329D01*
X72459233Y-129531206D01*
X72459231Y-129531203D01*
X72459231Y-129531201D01*
X72355579Y-129327772D01*
X72221379Y-129143063D01*
X72059937Y-128981621D01*
X72059934Y-128981618D01*
X72059932Y-128981617D01*
X71875227Y-128847420D01*
X71671793Y-128743766D01*
X71454670Y-128673218D01*
X71454657Y-128673215D01*
X71229158Y-128637500D01*
X71229157Y-128637500D01*
X71000843Y-128637500D01*
X71000842Y-128637500D01*
X70775342Y-128673215D01*
X70775329Y-128673218D01*
X70558206Y-128743766D01*
X70354772Y-128847420D01*
X70170067Y-128981617D01*
X70008617Y-129143067D01*
X69874420Y-129327772D01*
X69770766Y-129531206D01*
X69700218Y-129748329D01*
X69700215Y-129748342D01*
X69664500Y-129973842D01*
X60044500Y-129973842D01*
X60044500Y-119185842D01*
X64311500Y-119185842D01*
X64311500Y-119414157D01*
X64347215Y-119639657D01*
X64347218Y-119639670D01*
X64417766Y-119856793D01*
X64521420Y-120060227D01*
X64522707Y-120061999D01*
X64655621Y-120244937D01*
X64817063Y-120406379D01*
X65001772Y-120540579D01*
X65205201Y-120644231D01*
X65205203Y-120644231D01*
X65205206Y-120644233D01*
X65422329Y-120714781D01*
X65422335Y-120714782D01*
X65422340Y-120714784D01*
X65572675Y-120738594D01*
X65647842Y-120750500D01*
X65647843Y-120750500D01*
X65876158Y-120750500D01*
X65932532Y-120741571D01*
X66101660Y-120714784D01*
X66101667Y-120714781D01*
X66101670Y-120714781D01*
X66318793Y-120644233D01*
X66318793Y-120644232D01*
X66318799Y-120644231D01*
X66522228Y-120540579D01*
X66706937Y-120406379D01*
X66868379Y-120244937D01*
X67002579Y-120060228D01*
X67106231Y-119856799D01*
X67176784Y-119639660D01*
X67212500Y-119414157D01*
X67212500Y-119185843D01*
X67176784Y-118960340D01*
X67176782Y-118960335D01*
X67176781Y-118960329D01*
X67106233Y-118743206D01*
X67106231Y-118743203D01*
X67106231Y-118743201D01*
X67002579Y-118539772D01*
X66868379Y-118355063D01*
X66706937Y-118193621D01*
X66706934Y-118193618D01*
X66706932Y-118193617D01*
X66522227Y-118059420D01*
X66318793Y-117955766D01*
X66101670Y-117885218D01*
X66101657Y-117885215D01*
X65876158Y-117849500D01*
X65876157Y-117849500D01*
X65647843Y-117849500D01*
X65647842Y-117849500D01*
X65422342Y-117885215D01*
X65422329Y-117885218D01*
X65205206Y-117955766D01*
X65001772Y-118059420D01*
X64817067Y-118193617D01*
X64655617Y-118355067D01*
X64521420Y-118539772D01*
X64417766Y-118743206D01*
X64347218Y-118960329D01*
X64347215Y-118960342D01*
X64311500Y-119185842D01*
X60044500Y-119185842D01*
X60044500Y-116585999D01*
X63347176Y-116585999D01*
X63347177Y-116586000D01*
X63992740Y-116586000D01*
X63965926Y-116612814D01*
X63917215Y-116697185D01*
X63892000Y-116791289D01*
X63892000Y-116888711D01*
X63917215Y-116982815D01*
X63965926Y-117067186D01*
X63992740Y-117094000D01*
X63347177Y-117094000D01*
X63408740Y-117242626D01*
X63501761Y-117381843D01*
X63620156Y-117500238D01*
X63759373Y-117593259D01*
X63914063Y-117657334D01*
X63914069Y-117657336D01*
X64007999Y-117676019D01*
X64008000Y-117676019D01*
X64008000Y-117109260D01*
X64034814Y-117136074D01*
X64119185Y-117184785D01*
X64213289Y-117210000D01*
X64310711Y-117210000D01*
X64404815Y-117184785D01*
X64489186Y-117136074D01*
X64516000Y-117109260D01*
X64516000Y-117676019D01*
X64609930Y-117657336D01*
X64609936Y-117657334D01*
X64764626Y-117593259D01*
X64903843Y-117500238D01*
X64903845Y-117500237D01*
X65022237Y-117381845D01*
X65022238Y-117381843D01*
X65115259Y-117242626D01*
X65176823Y-117094000D01*
X64531260Y-117094000D01*
X64558074Y-117067186D01*
X64606785Y-116982815D01*
X64632000Y-116888711D01*
X64632000Y-116791289D01*
X64606785Y-116697185D01*
X64558074Y-116612814D01*
X64531260Y-116586000D01*
X65176823Y-116586000D01*
X65176823Y-116585999D01*
X65115259Y-116437373D01*
X65022238Y-116298156D01*
X64903843Y-116179761D01*
X64764626Y-116086740D01*
X64609934Y-116022664D01*
X64609931Y-116022663D01*
X64516000Y-116003979D01*
X64516000Y-116570740D01*
X64489186Y-116543926D01*
X64404815Y-116495215D01*
X64310711Y-116470000D01*
X64213289Y-116470000D01*
X64119185Y-116495215D01*
X64034814Y-116543926D01*
X64008000Y-116570740D01*
X64008000Y-116003979D01*
X63914068Y-116022663D01*
X63914065Y-116022664D01*
X63759373Y-116086740D01*
X63620156Y-116179761D01*
X63620155Y-116179763D01*
X63501763Y-116298155D01*
X63501761Y-116298156D01*
X63408740Y-116437373D01*
X63347176Y-116585999D01*
X60044500Y-116585999D01*
X60044500Y-114229529D01*
X64946500Y-114229529D01*
X64946500Y-114370470D01*
X64973994Y-114508697D01*
X64973996Y-114508704D01*
X65027932Y-114638916D01*
X65080368Y-114717392D01*
X65106234Y-114756104D01*
X65205895Y-114855765D01*
X65232394Y-114873471D01*
X65263860Y-114920563D01*
X65252811Y-114976112D01*
X65232394Y-114996529D01*
X65205895Y-115014234D01*
X65205894Y-115014236D01*
X65106236Y-115113894D01*
X65106234Y-115113895D01*
X65027930Y-115231087D01*
X64973996Y-115361295D01*
X64973994Y-115361302D01*
X64946500Y-115499529D01*
X64946500Y-115640470D01*
X64973994Y-115778697D01*
X64973996Y-115778704D01*
X65027932Y-115908916D01*
X65106235Y-116026105D01*
X65205895Y-116125765D01*
X65323084Y-116204068D01*
X65453296Y-116258004D01*
X65591529Y-116285500D01*
X65591530Y-116285500D01*
X65932470Y-116285500D01*
X65932471Y-116285500D01*
X66070704Y-116258004D01*
X66200916Y-116204068D01*
X66318105Y-116125765D01*
X66417765Y-116026105D01*
X66496068Y-115908916D01*
X66550004Y-115778704D01*
X66577500Y-115640471D01*
X66577500Y-115499529D01*
X66550004Y-115361296D01*
X66496068Y-115231084D01*
X66417765Y-115113895D01*
X66318105Y-115014235D01*
X66318103Y-115014234D01*
X66318100Y-115014231D01*
X66291606Y-114996529D01*
X66260139Y-114949438D01*
X66271188Y-114893889D01*
X66291606Y-114873471D01*
X66318105Y-114855765D01*
X66417765Y-114756105D01*
X66496068Y-114638916D01*
X66550004Y-114508704D01*
X66577500Y-114370471D01*
X66577500Y-114229529D01*
X66550004Y-114091296D01*
X66496068Y-113961084D01*
X66417765Y-113843895D01*
X66318105Y-113744235D01*
X66200916Y-113665932D01*
X66200913Y-113665930D01*
X66200912Y-113665930D01*
X66070704Y-113611996D01*
X66070697Y-113611994D01*
X65966559Y-113591280D01*
X65932471Y-113584500D01*
X65591529Y-113584500D01*
X65564183Y-113589939D01*
X65453302Y-113611994D01*
X65453295Y-113611996D01*
X65323087Y-113665930D01*
X65205895Y-113744234D01*
X65205894Y-113744236D01*
X65106236Y-113843894D01*
X65106234Y-113843895D01*
X65027930Y-113961087D01*
X64973996Y-114091295D01*
X64973994Y-114091302D01*
X64946500Y-114229529D01*
X60044500Y-114229529D01*
X60044500Y-112775999D01*
X63347176Y-112775999D01*
X63347177Y-112776000D01*
X63992740Y-112776000D01*
X63965926Y-112802814D01*
X63917215Y-112887185D01*
X63892000Y-112981289D01*
X63892000Y-113078711D01*
X63917215Y-113172815D01*
X63965926Y-113257186D01*
X63992740Y-113284000D01*
X63347177Y-113284000D01*
X63408740Y-113432626D01*
X63501761Y-113571843D01*
X63620156Y-113690238D01*
X63759373Y-113783259D01*
X63914063Y-113847334D01*
X63914069Y-113847336D01*
X64007999Y-113866019D01*
X64008000Y-113866019D01*
X64008000Y-113299260D01*
X64034814Y-113326074D01*
X64119185Y-113374785D01*
X64213289Y-113400000D01*
X64310711Y-113400000D01*
X64404815Y-113374785D01*
X64489186Y-113326074D01*
X64516000Y-113299260D01*
X64516000Y-113866019D01*
X64609930Y-113847336D01*
X64609936Y-113847334D01*
X64764626Y-113783259D01*
X64903843Y-113690238D01*
X64903845Y-113690237D01*
X65022237Y-113571845D01*
X65022238Y-113571843D01*
X65115259Y-113432626D01*
X65176823Y-113284000D01*
X64531260Y-113284000D01*
X64558074Y-113257186D01*
X64606785Y-113172815D01*
X64632000Y-113078711D01*
X64632000Y-112981289D01*
X64606785Y-112887185D01*
X64558074Y-112802814D01*
X64531260Y-112776000D01*
X65176823Y-112776000D01*
X65176823Y-112775999D01*
X65115259Y-112627373D01*
X65022238Y-112488156D01*
X64903843Y-112369761D01*
X64764626Y-112276740D01*
X64609934Y-112212664D01*
X64609931Y-112212663D01*
X64516000Y-112193979D01*
X64516000Y-112760740D01*
X64489186Y-112733926D01*
X64404815Y-112685215D01*
X64310711Y-112660000D01*
X64213289Y-112660000D01*
X64119185Y-112685215D01*
X64034814Y-112733926D01*
X64008000Y-112760740D01*
X64008000Y-112193979D01*
X63914068Y-112212663D01*
X63914065Y-112212664D01*
X63759373Y-112276740D01*
X63620156Y-112369761D01*
X63620155Y-112369763D01*
X63501763Y-112488155D01*
X63501761Y-112488156D01*
X63408740Y-112627373D01*
X63347176Y-112775999D01*
X60044500Y-112775999D01*
X60044500Y-110419529D01*
X64946500Y-110419529D01*
X64946500Y-110560471D01*
X64951006Y-110583125D01*
X64973994Y-110698697D01*
X64973996Y-110698704D01*
X65027932Y-110828916D01*
X65075605Y-110900264D01*
X65106234Y-110946104D01*
X65205895Y-111045765D01*
X65232394Y-111063471D01*
X65263860Y-111110563D01*
X65252811Y-111166112D01*
X65232394Y-111186529D01*
X65205895Y-111204234D01*
X65205894Y-111204236D01*
X65106236Y-111303894D01*
X65106234Y-111303895D01*
X65027930Y-111421087D01*
X64973996Y-111551295D01*
X64973994Y-111551302D01*
X64950640Y-111668716D01*
X64946500Y-111689529D01*
X64946500Y-111830471D01*
X64953280Y-111864559D01*
X64973994Y-111968697D01*
X64973996Y-111968704D01*
X65027932Y-112098916D01*
X65106235Y-112216105D01*
X65205895Y-112315765D01*
X65323084Y-112394068D01*
X65453296Y-112448004D01*
X65591529Y-112475500D01*
X65591530Y-112475500D01*
X65932470Y-112475500D01*
X65932471Y-112475500D01*
X66070704Y-112448004D01*
X66200916Y-112394068D01*
X66318105Y-112315765D01*
X66417765Y-112216105D01*
X66496068Y-112098916D01*
X66550004Y-111968704D01*
X66577500Y-111830471D01*
X66577500Y-111689529D01*
X66550004Y-111551296D01*
X66496068Y-111421084D01*
X66417765Y-111303895D01*
X66318105Y-111204235D01*
X66318103Y-111204234D01*
X66318100Y-111204231D01*
X66291606Y-111186529D01*
X66260139Y-111139438D01*
X66271188Y-111083889D01*
X66291606Y-111063471D01*
X66318105Y-111045765D01*
X66417765Y-110946105D01*
X66496068Y-110828916D01*
X66550004Y-110698704D01*
X66577500Y-110560471D01*
X66577500Y-110419529D01*
X66550004Y-110281296D01*
X66496068Y-110151084D01*
X66417765Y-110033895D01*
X66318105Y-109934235D01*
X66200916Y-109855932D01*
X66200913Y-109855930D01*
X66200912Y-109855930D01*
X66070704Y-109801996D01*
X66070697Y-109801994D01*
X65966559Y-109781280D01*
X65932471Y-109774500D01*
X65591529Y-109774500D01*
X65564183Y-109779939D01*
X65453302Y-109801994D01*
X65453295Y-109801996D01*
X65323087Y-109855930D01*
X65205895Y-109934234D01*
X65205894Y-109934236D01*
X65106236Y-110033894D01*
X65106234Y-110033895D01*
X65027930Y-110151087D01*
X64973996Y-110281295D01*
X64973994Y-110281302D01*
X64950285Y-110400499D01*
X64946500Y-110419529D01*
X60044500Y-110419529D01*
X60044500Y-108965999D01*
X63347176Y-108965999D01*
X63347177Y-108966000D01*
X63992740Y-108966000D01*
X63965926Y-108992814D01*
X63917215Y-109077185D01*
X63892000Y-109171289D01*
X63892000Y-109268711D01*
X63917215Y-109362815D01*
X63965926Y-109447186D01*
X63992740Y-109474000D01*
X63347177Y-109474000D01*
X63408740Y-109622626D01*
X63501761Y-109761843D01*
X63620156Y-109880238D01*
X63759373Y-109973259D01*
X63914063Y-110037334D01*
X63914069Y-110037336D01*
X64007999Y-110056019D01*
X64008000Y-110056019D01*
X64008000Y-109489260D01*
X64034814Y-109516074D01*
X64119185Y-109564785D01*
X64213289Y-109590000D01*
X64310711Y-109590000D01*
X64404815Y-109564785D01*
X64489186Y-109516074D01*
X64516000Y-109489260D01*
X64516000Y-110056019D01*
X64609930Y-110037336D01*
X64609936Y-110037334D01*
X64764626Y-109973259D01*
X64903843Y-109880238D01*
X64903845Y-109880237D01*
X65022237Y-109761845D01*
X65022238Y-109761843D01*
X65115259Y-109622626D01*
X65176823Y-109474000D01*
X64531260Y-109474000D01*
X64558074Y-109447186D01*
X64606785Y-109362815D01*
X64632000Y-109268711D01*
X64632000Y-109171289D01*
X64606785Y-109077185D01*
X64558074Y-108992814D01*
X64531260Y-108966000D01*
X65176823Y-108966000D01*
X65176823Y-108965999D01*
X65115259Y-108817373D01*
X65022238Y-108678156D01*
X64903843Y-108559761D01*
X64764626Y-108466740D01*
X64609934Y-108402664D01*
X64609931Y-108402663D01*
X64516000Y-108383979D01*
X64516000Y-108950740D01*
X64489186Y-108923926D01*
X64404815Y-108875215D01*
X64310711Y-108850000D01*
X64213289Y-108850000D01*
X64119185Y-108875215D01*
X64034814Y-108923926D01*
X64008000Y-108950740D01*
X64008000Y-108383979D01*
X63914068Y-108402663D01*
X63914065Y-108402664D01*
X63759373Y-108466740D01*
X63620156Y-108559761D01*
X63620155Y-108559763D01*
X63501763Y-108678155D01*
X63501761Y-108678156D01*
X63408740Y-108817373D01*
X63347176Y-108965999D01*
X60044500Y-108965999D01*
X60044500Y-106355842D01*
X65311500Y-106355842D01*
X65311500Y-106584157D01*
X65347215Y-106809657D01*
X65347218Y-106809670D01*
X65417766Y-107026793D01*
X65521420Y-107230227D01*
X65643862Y-107398753D01*
X65655621Y-107414937D01*
X65817063Y-107576379D01*
X65817066Y-107576381D01*
X65817067Y-107576382D01*
X65846828Y-107598005D01*
X66001772Y-107710579D01*
X66205201Y-107814231D01*
X66205203Y-107814231D01*
X66205206Y-107814233D01*
X66422329Y-107884781D01*
X66422335Y-107884782D01*
X66422340Y-107884784D01*
X66563548Y-107907149D01*
X66647842Y-107920500D01*
X66647843Y-107920500D01*
X66876158Y-107920500D01*
X66960370Y-107907162D01*
X67101660Y-107884784D01*
X67101667Y-107884781D01*
X67101670Y-107884781D01*
X67318793Y-107814233D01*
X67318793Y-107814232D01*
X67318799Y-107814231D01*
X67522228Y-107710579D01*
X67706937Y-107576379D01*
X67868379Y-107414937D01*
X68002579Y-107230228D01*
X68106231Y-107026799D01*
X68169758Y-106831284D01*
X68176781Y-106809670D01*
X68176781Y-106809667D01*
X68176784Y-106809660D01*
X68212500Y-106584157D01*
X68212500Y-106355843D01*
X68208689Y-106331784D01*
X68196346Y-106253853D01*
X68176784Y-106130340D01*
X68176782Y-106130335D01*
X68176781Y-106130329D01*
X68106233Y-105913206D01*
X68106231Y-105913203D01*
X68106231Y-105913201D01*
X68002579Y-105709772D01*
X67868379Y-105525063D01*
X67706937Y-105363621D01*
X67706934Y-105363618D01*
X67706932Y-105363617D01*
X67522227Y-105229420D01*
X67318793Y-105125766D01*
X67101670Y-105055218D01*
X67101657Y-105055215D01*
X66876158Y-105019500D01*
X66876157Y-105019500D01*
X66647843Y-105019500D01*
X66647842Y-105019500D01*
X66422342Y-105055215D01*
X66422329Y-105055218D01*
X66205206Y-105125766D01*
X66001772Y-105229420D01*
X65817067Y-105363617D01*
X65655617Y-105525067D01*
X65521420Y-105709772D01*
X65417766Y-105913206D01*
X65347218Y-106130329D01*
X65347215Y-106130342D01*
X65311500Y-106355842D01*
X60044500Y-106355842D01*
X60044500Y-96325842D01*
X64311500Y-96325842D01*
X64311500Y-96554157D01*
X64347215Y-96779657D01*
X64347218Y-96779670D01*
X64417766Y-96996793D01*
X64521420Y-97200227D01*
X64646821Y-97372826D01*
X64655621Y-97384937D01*
X64817063Y-97546379D01*
X64817066Y-97546381D01*
X64817067Y-97546382D01*
X64992717Y-97674000D01*
X65001772Y-97680579D01*
X65205201Y-97784231D01*
X65205203Y-97784231D01*
X65205206Y-97784233D01*
X65422329Y-97854781D01*
X65422335Y-97854782D01*
X65422340Y-97854784D01*
X65572675Y-97878594D01*
X65647842Y-97890500D01*
X65647843Y-97890500D01*
X65876158Y-97890500D01*
X65932532Y-97881571D01*
X66101660Y-97854784D01*
X66101667Y-97854781D01*
X66101670Y-97854781D01*
X66318793Y-97784233D01*
X66318793Y-97784232D01*
X66318799Y-97784231D01*
X66522228Y-97680579D01*
X66706937Y-97546379D01*
X66868379Y-97384937D01*
X67002579Y-97200228D01*
X67106231Y-96996799D01*
X67145283Y-96876610D01*
X67176781Y-96779670D01*
X67176781Y-96779667D01*
X67176784Y-96779660D01*
X67212500Y-96554157D01*
X67212500Y-96325843D01*
X67212152Y-96323648D01*
X67190119Y-96184537D01*
X67176784Y-96100340D01*
X67176782Y-96100335D01*
X67176781Y-96100329D01*
X67106233Y-95883206D01*
X67106231Y-95883203D01*
X67106231Y-95883201D01*
X67002579Y-95679772D01*
X66868379Y-95495063D01*
X66706937Y-95333621D01*
X66706934Y-95333618D01*
X66706932Y-95333617D01*
X66522227Y-95199420D01*
X66318793Y-95095766D01*
X66101670Y-95025218D01*
X66101657Y-95025215D01*
X65876158Y-94989500D01*
X65876157Y-94989500D01*
X65647843Y-94989500D01*
X65647842Y-94989500D01*
X65422342Y-95025215D01*
X65422329Y-95025218D01*
X65205206Y-95095766D01*
X65001772Y-95199420D01*
X64817067Y-95333617D01*
X64655617Y-95495067D01*
X64521420Y-95679772D01*
X64417766Y-95883206D01*
X64347218Y-96100329D01*
X64347215Y-96100342D01*
X64311500Y-96325842D01*
X60044500Y-96325842D01*
X60044500Y-93725999D01*
X63347176Y-93725999D01*
X63347177Y-93726000D01*
X63992740Y-93726000D01*
X63965926Y-93752814D01*
X63917215Y-93837185D01*
X63892000Y-93931289D01*
X63892000Y-94028711D01*
X63917215Y-94122815D01*
X63965926Y-94207186D01*
X63992740Y-94234000D01*
X63347177Y-94234000D01*
X63408740Y-94382626D01*
X63501761Y-94521843D01*
X63620156Y-94640238D01*
X63759373Y-94733259D01*
X63914063Y-94797334D01*
X63914069Y-94797336D01*
X64007999Y-94816019D01*
X64008000Y-94816019D01*
X64008000Y-94249260D01*
X64034814Y-94276074D01*
X64119185Y-94324785D01*
X64213289Y-94350000D01*
X64310711Y-94350000D01*
X64404815Y-94324785D01*
X64489186Y-94276074D01*
X64516000Y-94249260D01*
X64516000Y-94816019D01*
X64609930Y-94797336D01*
X64609936Y-94797334D01*
X64764626Y-94733259D01*
X64903843Y-94640238D01*
X64903845Y-94640237D01*
X65022237Y-94521845D01*
X65022238Y-94521843D01*
X65115259Y-94382626D01*
X65176823Y-94234000D01*
X64531260Y-94234000D01*
X64558074Y-94207186D01*
X64606785Y-94122815D01*
X64632000Y-94028711D01*
X64632000Y-93931289D01*
X64606785Y-93837185D01*
X64558074Y-93752814D01*
X64531260Y-93726000D01*
X65176823Y-93726000D01*
X65176823Y-93725999D01*
X65115259Y-93577373D01*
X65022238Y-93438156D01*
X64903843Y-93319761D01*
X64764626Y-93226740D01*
X64609934Y-93162664D01*
X64609931Y-93162663D01*
X64516000Y-93143979D01*
X64516000Y-93710740D01*
X64489186Y-93683926D01*
X64404815Y-93635215D01*
X64310711Y-93610000D01*
X64213289Y-93610000D01*
X64119185Y-93635215D01*
X64034814Y-93683926D01*
X64008000Y-93710740D01*
X64008000Y-93143979D01*
X63914068Y-93162663D01*
X63914065Y-93162664D01*
X63759373Y-93226740D01*
X63620156Y-93319761D01*
X63620155Y-93319763D01*
X63501763Y-93438155D01*
X63501761Y-93438156D01*
X63408740Y-93577373D01*
X63347176Y-93725999D01*
X60044500Y-93725999D01*
X60044500Y-91369529D01*
X64946500Y-91369529D01*
X64946500Y-91510470D01*
X64973994Y-91648697D01*
X64973996Y-91648704D01*
X65024044Y-91769531D01*
X65027932Y-91778916D01*
X65055036Y-91819480D01*
X65106234Y-91896104D01*
X65205895Y-91995765D01*
X65232394Y-92013471D01*
X65263860Y-92060563D01*
X65252811Y-92116112D01*
X65232394Y-92136529D01*
X65205895Y-92154234D01*
X65205894Y-92154236D01*
X65106236Y-92253894D01*
X65106234Y-92253895D01*
X65027930Y-92371087D01*
X64973996Y-92501295D01*
X64973994Y-92501302D01*
X64948749Y-92628220D01*
X64946500Y-92639529D01*
X64946500Y-92780471D01*
X64953280Y-92814559D01*
X64973994Y-92918697D01*
X64973996Y-92918704D01*
X65025097Y-93042073D01*
X65027932Y-93048916D01*
X65106235Y-93166105D01*
X65205895Y-93265765D01*
X65323084Y-93344068D01*
X65453296Y-93398004D01*
X65591529Y-93425500D01*
X65591530Y-93425500D01*
X65932470Y-93425500D01*
X65932471Y-93425500D01*
X66070704Y-93398004D01*
X66200916Y-93344068D01*
X66318105Y-93265765D01*
X66417765Y-93166105D01*
X66496068Y-93048916D01*
X66550004Y-92918704D01*
X66577500Y-92780471D01*
X66577500Y-92639529D01*
X66550004Y-92501296D01*
X66496068Y-92371084D01*
X66417765Y-92253895D01*
X66318105Y-92154235D01*
X66318103Y-92154234D01*
X66318100Y-92154231D01*
X66291606Y-92136529D01*
X66260139Y-92089438D01*
X66271188Y-92033889D01*
X66291606Y-92013471D01*
X66318105Y-91995765D01*
X66417765Y-91896105D01*
X66496068Y-91778916D01*
X66550004Y-91648704D01*
X66577500Y-91510471D01*
X66577500Y-91369529D01*
X66550004Y-91231296D01*
X66496068Y-91101084D01*
X66417765Y-90983895D01*
X66318105Y-90884235D01*
X66200916Y-90805932D01*
X66200913Y-90805930D01*
X66200912Y-90805930D01*
X66070704Y-90751996D01*
X66070697Y-90751994D01*
X65966559Y-90731280D01*
X65932471Y-90724500D01*
X65591529Y-90724500D01*
X65564183Y-90729939D01*
X65453302Y-90751994D01*
X65453295Y-90751996D01*
X65323087Y-90805930D01*
X65205895Y-90884234D01*
X65205894Y-90884236D01*
X65106236Y-90983894D01*
X65106234Y-90983895D01*
X65027930Y-91101087D01*
X64973996Y-91231295D01*
X64973994Y-91231302D01*
X64946500Y-91369529D01*
X60044500Y-91369529D01*
X60044500Y-89915999D01*
X63347176Y-89915999D01*
X63347177Y-89916000D01*
X63992740Y-89916000D01*
X63965926Y-89942814D01*
X63917215Y-90027185D01*
X63892000Y-90121289D01*
X63892000Y-90218711D01*
X63917215Y-90312815D01*
X63965926Y-90397186D01*
X63992740Y-90424000D01*
X63347177Y-90424000D01*
X63408740Y-90572626D01*
X63501761Y-90711843D01*
X63620156Y-90830238D01*
X63759373Y-90923259D01*
X63914063Y-90987334D01*
X63914069Y-90987336D01*
X64007999Y-91006019D01*
X64008000Y-91006019D01*
X64008000Y-90439260D01*
X64034814Y-90466074D01*
X64119185Y-90514785D01*
X64213289Y-90540000D01*
X64310711Y-90540000D01*
X64404815Y-90514785D01*
X64489186Y-90466074D01*
X64516000Y-90439260D01*
X64516000Y-91006019D01*
X64609930Y-90987336D01*
X64609936Y-90987334D01*
X64764626Y-90923259D01*
X64903843Y-90830238D01*
X64903845Y-90830237D01*
X65022237Y-90711845D01*
X65022238Y-90711843D01*
X65115259Y-90572626D01*
X65176823Y-90424000D01*
X64531260Y-90424000D01*
X64558074Y-90397186D01*
X64606785Y-90312815D01*
X64632000Y-90218711D01*
X64632000Y-90121289D01*
X64606785Y-90027185D01*
X64558074Y-89942814D01*
X64531260Y-89916000D01*
X65176823Y-89916000D01*
X65176823Y-89915999D01*
X65115259Y-89767373D01*
X65022238Y-89628156D01*
X64903843Y-89509761D01*
X64764626Y-89416740D01*
X64609934Y-89352664D01*
X64609931Y-89352663D01*
X64516000Y-89333979D01*
X64516000Y-89900740D01*
X64489186Y-89873926D01*
X64404815Y-89825215D01*
X64310711Y-89800000D01*
X64213289Y-89800000D01*
X64119185Y-89825215D01*
X64034814Y-89873926D01*
X64008000Y-89900740D01*
X64008000Y-89333979D01*
X63914068Y-89352663D01*
X63914065Y-89352664D01*
X63759373Y-89416740D01*
X63620156Y-89509761D01*
X63620155Y-89509763D01*
X63501763Y-89628155D01*
X63501761Y-89628156D01*
X63408740Y-89767373D01*
X63347176Y-89915999D01*
X60044500Y-89915999D01*
X60044500Y-87559529D01*
X64946500Y-87559529D01*
X64946500Y-87700470D01*
X64973994Y-87838697D01*
X64973996Y-87838704D01*
X65027932Y-87968916D01*
X65080368Y-88047392D01*
X65106234Y-88086104D01*
X65205895Y-88185765D01*
X65232394Y-88203471D01*
X65263860Y-88250563D01*
X65252811Y-88306112D01*
X65232394Y-88326529D01*
X65205895Y-88344234D01*
X65205894Y-88344236D01*
X65106236Y-88443894D01*
X65106234Y-88443895D01*
X65027930Y-88561087D01*
X64973996Y-88691295D01*
X64973994Y-88691302D01*
X64946500Y-88829529D01*
X64946500Y-88970470D01*
X64973994Y-89108697D01*
X64973996Y-89108704D01*
X65027932Y-89238916D01*
X65106235Y-89356105D01*
X65205895Y-89455765D01*
X65323084Y-89534068D01*
X65453296Y-89588004D01*
X65591529Y-89615500D01*
X65591530Y-89615500D01*
X65932470Y-89615500D01*
X65932471Y-89615500D01*
X66070704Y-89588004D01*
X66200916Y-89534068D01*
X66318105Y-89455765D01*
X66417765Y-89356105D01*
X66496068Y-89238916D01*
X66550004Y-89108704D01*
X66577500Y-88970471D01*
X66577500Y-88829529D01*
X66550004Y-88691296D01*
X66496068Y-88561084D01*
X66417765Y-88443895D01*
X66318105Y-88344235D01*
X66318103Y-88344234D01*
X66318100Y-88344231D01*
X66291606Y-88326529D01*
X66260139Y-88279438D01*
X66271188Y-88223889D01*
X66291606Y-88203471D01*
X66318105Y-88185765D01*
X66417765Y-88086105D01*
X66496068Y-87968916D01*
X66550004Y-87838704D01*
X66577500Y-87700471D01*
X66577500Y-87559529D01*
X66550004Y-87421296D01*
X66496068Y-87291084D01*
X66417765Y-87173895D01*
X66318105Y-87074235D01*
X66200916Y-86995932D01*
X66200913Y-86995930D01*
X66200912Y-86995930D01*
X66070704Y-86941996D01*
X66070697Y-86941994D01*
X65966559Y-86921280D01*
X65932471Y-86914500D01*
X65591529Y-86914500D01*
X65564183Y-86919939D01*
X65453302Y-86941994D01*
X65453295Y-86941996D01*
X65323087Y-86995930D01*
X65205895Y-87074234D01*
X65205894Y-87074236D01*
X65106236Y-87173894D01*
X65106234Y-87173895D01*
X65027930Y-87291087D01*
X64973996Y-87421295D01*
X64973994Y-87421302D01*
X64946500Y-87559529D01*
X60044500Y-87559529D01*
X60044500Y-86105999D01*
X63347176Y-86105999D01*
X63347177Y-86106000D01*
X63992740Y-86106000D01*
X63965926Y-86132814D01*
X63917215Y-86217185D01*
X63892000Y-86311289D01*
X63892000Y-86408711D01*
X63917215Y-86502815D01*
X63965926Y-86587186D01*
X63992740Y-86614000D01*
X63347177Y-86614000D01*
X63408740Y-86762626D01*
X63501761Y-86901843D01*
X63620156Y-87020238D01*
X63759373Y-87113259D01*
X63914063Y-87177334D01*
X63914069Y-87177336D01*
X64007999Y-87196019D01*
X64008000Y-87196019D01*
X64008000Y-86629260D01*
X64034814Y-86656074D01*
X64119185Y-86704785D01*
X64213289Y-86730000D01*
X64310711Y-86730000D01*
X64404815Y-86704785D01*
X64489186Y-86656074D01*
X64516000Y-86629260D01*
X64516000Y-87196019D01*
X64609930Y-87177336D01*
X64609936Y-87177334D01*
X64764626Y-87113259D01*
X64903843Y-87020238D01*
X64903845Y-87020237D01*
X65022237Y-86901845D01*
X65022238Y-86901843D01*
X65115259Y-86762626D01*
X65176823Y-86614000D01*
X64531260Y-86614000D01*
X64558074Y-86587186D01*
X64606785Y-86502815D01*
X64632000Y-86408711D01*
X64632000Y-86311289D01*
X64606785Y-86217185D01*
X64558074Y-86132814D01*
X64531260Y-86106000D01*
X65176823Y-86106000D01*
X65176823Y-86105999D01*
X65115259Y-85957373D01*
X65022238Y-85818156D01*
X64903843Y-85699761D01*
X64764626Y-85606740D01*
X64609934Y-85542664D01*
X64609931Y-85542663D01*
X64516000Y-85523979D01*
X64516000Y-86090740D01*
X64489186Y-86063926D01*
X64404815Y-86015215D01*
X64310711Y-85990000D01*
X64213289Y-85990000D01*
X64119185Y-86015215D01*
X64034814Y-86063926D01*
X64008000Y-86090740D01*
X64008000Y-85523979D01*
X63914068Y-85542663D01*
X63914065Y-85542664D01*
X63759373Y-85606740D01*
X63620156Y-85699761D01*
X63620155Y-85699763D01*
X63501763Y-85818155D01*
X63501761Y-85818156D01*
X63408740Y-85957373D01*
X63347176Y-86105999D01*
X60044500Y-86105999D01*
X60044500Y-83495842D01*
X65311500Y-83495842D01*
X65311500Y-83724157D01*
X65347215Y-83949657D01*
X65347218Y-83949670D01*
X65417766Y-84166793D01*
X65506369Y-84340688D01*
X65521421Y-84370228D01*
X65655621Y-84554937D01*
X65817063Y-84716379D01*
X66001772Y-84850579D01*
X66205201Y-84954231D01*
X66205203Y-84954231D01*
X66205206Y-84954233D01*
X66422329Y-85024781D01*
X66422335Y-85024782D01*
X66422340Y-85024784D01*
X66572675Y-85048594D01*
X66647842Y-85060500D01*
X66647843Y-85060500D01*
X66876158Y-85060500D01*
X66932532Y-85051571D01*
X67101660Y-85024784D01*
X67101667Y-85024781D01*
X67101670Y-85024781D01*
X67318793Y-84954233D01*
X67318793Y-84954232D01*
X67318799Y-84954231D01*
X67522228Y-84850579D01*
X67706937Y-84716379D01*
X67868379Y-84554937D01*
X68002579Y-84370228D01*
X68106231Y-84166799D01*
X68176784Y-83949660D01*
X68212500Y-83724157D01*
X68212500Y-83495843D01*
X68176784Y-83270340D01*
X68176782Y-83270335D01*
X68176781Y-83270329D01*
X68106233Y-83053206D01*
X68106231Y-83053203D01*
X68106231Y-83053201D01*
X68002579Y-82849772D01*
X67946927Y-82773174D01*
X67868382Y-82665067D01*
X67868381Y-82665066D01*
X67868379Y-82665063D01*
X67706937Y-82503621D01*
X67706934Y-82503618D01*
X67706932Y-82503617D01*
X67522227Y-82369420D01*
X67318793Y-82265766D01*
X67101670Y-82195218D01*
X67101657Y-82195215D01*
X66876158Y-82159500D01*
X66876157Y-82159500D01*
X66647843Y-82159500D01*
X66647842Y-82159500D01*
X66422342Y-82195215D01*
X66422329Y-82195218D01*
X66205206Y-82265766D01*
X66001772Y-82369420D01*
X65817067Y-82503617D01*
X65655617Y-82665067D01*
X65521420Y-82849772D01*
X65417766Y-83053206D01*
X65347218Y-83270329D01*
X65347215Y-83270342D01*
X65311500Y-83495842D01*
X60044500Y-83495842D01*
X60044500Y-80828253D01*
X84712500Y-80828253D01*
X84712500Y-82391746D01*
X84724133Y-82450232D01*
X84753608Y-82494343D01*
X84768448Y-82516552D01*
X84812560Y-82546027D01*
X84834767Y-82560866D01*
X84834768Y-82560866D01*
X84834769Y-82560867D01*
X84893252Y-82572500D01*
X84893254Y-82572500D01*
X86311743Y-82572500D01*
X86364069Y-82594174D01*
X86385743Y-82646500D01*
X86364069Y-82698826D01*
X85539509Y-83523387D01*
X85480201Y-83626112D01*
X85477680Y-83635523D01*
X85477679Y-83635522D01*
X85477679Y-83635525D01*
X85449500Y-83740688D01*
X85449500Y-96659311D01*
X85472767Y-96746141D01*
X85472768Y-96746145D01*
X85480199Y-96773884D01*
X85539508Y-96876610D01*
X85539509Y-96876611D01*
X85539511Y-96876614D01*
X86336897Y-97674000D01*
X87039511Y-98376614D01*
X87727826Y-99064929D01*
X87749500Y-99117255D01*
X87749500Y-99543627D01*
X87727826Y-99595953D01*
X87724212Y-99599039D01*
X87626471Y-99696780D01*
X87565281Y-99816873D01*
X87565280Y-99816874D01*
X87549500Y-99916511D01*
X87549500Y-100483488D01*
X87565280Y-100583125D01*
X87565281Y-100583126D01*
X87626471Y-100703219D01*
X87725898Y-100802646D01*
X87723948Y-100804595D01*
X87748586Y-100844777D01*
X87749500Y-100856372D01*
X87749500Y-101269820D01*
X87727826Y-101322146D01*
X87675500Y-101343820D01*
X86912374Y-101343820D01*
X86881941Y-101346674D01*
X86881939Y-101346674D01*
X86881935Y-101346675D01*
X86753758Y-101391526D01*
X86753756Y-101391527D01*
X86644493Y-101472166D01*
X86644486Y-101472173D01*
X86563847Y-101581436D01*
X86563846Y-101581438D01*
X86518995Y-101709615D01*
X86518994Y-101709619D01*
X86518994Y-101709621D01*
X86516140Y-101740054D01*
X86516140Y-101740060D01*
X86516140Y-102132465D01*
X86494466Y-102184791D01*
X85847108Y-102832149D01*
X85787801Y-102934872D01*
X85785280Y-102944283D01*
X85785279Y-102944282D01*
X85785279Y-102944285D01*
X85757100Y-103049448D01*
X85757100Y-104966911D01*
X85768763Y-105010436D01*
X85768763Y-105010437D01*
X85787799Y-105081482D01*
X85787803Y-105081491D01*
X85847108Y-105184210D01*
X85847109Y-105184211D01*
X85847111Y-105184214D01*
X87327826Y-106664929D01*
X87349500Y-106717254D01*
X87349500Y-113982745D01*
X87327826Y-114035071D01*
X86239508Y-115123389D01*
X86180201Y-115226112D01*
X86177680Y-115235523D01*
X86177679Y-115235522D01*
X86177679Y-115235525D01*
X86149500Y-115340688D01*
X86149500Y-122828908D01*
X86173712Y-122919272D01*
X86180200Y-122943483D01*
X86180203Y-122943491D01*
X86239508Y-123046210D01*
X86239509Y-123046211D01*
X86239511Y-123046214D01*
X86639532Y-123446235D01*
X87035295Y-123841998D01*
X87054447Y-123875171D01*
X87093717Y-124021730D01*
X87093718Y-124021733D01*
X87093719Y-124021735D01*
X87169485Y-124152965D01*
X87276635Y-124260115D01*
X87407865Y-124335881D01*
X87554231Y-124375099D01*
X87554232Y-124375100D01*
X87554234Y-124375100D01*
X87705768Y-124375100D01*
X87705768Y-124375099D01*
X87852135Y-124335881D01*
X87983365Y-124260115D01*
X88090515Y-124152965D01*
X88166281Y-124021735D01*
X88205499Y-123875368D01*
X88205500Y-123875368D01*
X88205500Y-123866511D01*
X89951700Y-123866511D01*
X89951700Y-124383488D01*
X89967480Y-124483125D01*
X89967481Y-124483126D01*
X90028671Y-124603219D01*
X90123980Y-124698528D01*
X90174207Y-124724120D01*
X90210990Y-124767187D01*
X90206546Y-124823649D01*
X90192940Y-124842378D01*
X90166685Y-124868634D01*
X90090921Y-124999860D01*
X90090917Y-124999869D01*
X90051700Y-125146231D01*
X90051700Y-125297768D01*
X90090917Y-125444130D01*
X90090918Y-125444133D01*
X90090919Y-125444135D01*
X90166685Y-125575365D01*
X90273835Y-125682515D01*
X90405065Y-125758281D01*
X90551431Y-125797499D01*
X90551432Y-125797500D01*
X90551434Y-125797500D01*
X90702968Y-125797500D01*
X90702968Y-125797499D01*
X90849335Y-125758281D01*
X90980565Y-125682515D01*
X91068906Y-125594174D01*
X91121232Y-125572500D01*
X96584768Y-125572500D01*
X96637094Y-125594174D01*
X96725435Y-125682515D01*
X96856665Y-125758281D01*
X97003031Y-125797499D01*
X97003032Y-125797500D01*
X97003034Y-125797500D01*
X97154568Y-125797500D01*
X97154568Y-125797499D01*
X97300935Y-125758281D01*
X97432165Y-125682515D01*
X97539315Y-125575365D01*
X97615081Y-125444135D01*
X97654299Y-125297768D01*
X97654300Y-125297768D01*
X97654300Y-125146232D01*
X97654299Y-125146231D01*
X97615082Y-124999869D01*
X97615081Y-124999865D01*
X97539315Y-124868635D01*
X97432165Y-124761485D01*
X97432162Y-124761483D01*
X97300939Y-124685721D01*
X97300930Y-124685717D01*
X97154568Y-124646500D01*
X97154566Y-124646500D01*
X97003034Y-124646500D01*
X97003032Y-124646500D01*
X96856669Y-124685717D01*
X96856660Y-124685721D01*
X96725437Y-124761483D01*
X96637094Y-124849826D01*
X96584768Y-124871500D01*
X91121232Y-124871500D01*
X91068906Y-124849826D01*
X91061460Y-124842380D01*
X91039786Y-124790054D01*
X91061460Y-124737728D01*
X91080185Y-124724123D01*
X91130420Y-124698528D01*
X91225728Y-124603220D01*
X91286919Y-124483126D01*
X91302700Y-124383488D01*
X91302700Y-123866512D01*
X91298817Y-123841998D01*
X91286919Y-123766874D01*
X91286918Y-123766873D01*
X91225728Y-123646780D01*
X91130419Y-123551471D01*
X91010326Y-123490281D01*
X91010325Y-123490280D01*
X90910689Y-123474500D01*
X90910688Y-123474500D01*
X90343712Y-123474500D01*
X90343711Y-123474500D01*
X90244074Y-123490280D01*
X90244073Y-123490281D01*
X90123980Y-123551471D01*
X90028671Y-123646780D01*
X89967481Y-123766873D01*
X89967480Y-123766874D01*
X89951700Y-123866511D01*
X88205500Y-123866511D01*
X88205500Y-123723832D01*
X88205499Y-123723831D01*
X88166282Y-123577469D01*
X88166281Y-123577465D01*
X88090515Y-123446235D01*
X87983365Y-123339085D01*
X87983362Y-123339083D01*
X87852139Y-123263321D01*
X87852130Y-123263317D01*
X87705571Y-123224047D01*
X87672398Y-123204895D01*
X87072174Y-122604671D01*
X87050500Y-122552345D01*
X87050500Y-120037417D01*
X87072174Y-119985091D01*
X87124500Y-119963417D01*
X87176826Y-119985091D01*
X87205521Y-120013786D01*
X87308124Y-120059089D01*
X87308123Y-120059089D01*
X87333210Y-120061999D01*
X87886000Y-120061999D01*
X87886000Y-119366618D01*
X87968429Y-119414208D01*
X88081480Y-119444500D01*
X88198520Y-119444500D01*
X88311571Y-119414208D01*
X88394000Y-119366618D01*
X88394000Y-120061999D01*
X88946792Y-120061999D01*
X88971868Y-120059091D01*
X88971874Y-120059089D01*
X89074478Y-120013786D01*
X89153786Y-119934478D01*
X89199089Y-119831875D01*
X89202000Y-119806789D01*
X89202000Y-119254000D01*
X88506618Y-119254000D01*
X88554208Y-119171571D01*
X88584500Y-119058520D01*
X88584500Y-118941480D01*
X88554208Y-118828429D01*
X88506618Y-118746000D01*
X89201999Y-118746000D01*
X89201999Y-118193207D01*
X89199091Y-118168131D01*
X89199089Y-118168125D01*
X89153786Y-118065521D01*
X89074478Y-117986213D01*
X88971875Y-117940910D01*
X88971876Y-117940910D01*
X88946789Y-117938000D01*
X88394000Y-117938000D01*
X88394000Y-118633381D01*
X88311571Y-118585792D01*
X88198520Y-118555500D01*
X88081480Y-118555500D01*
X87968429Y-118585792D01*
X87886000Y-118633381D01*
X87886000Y-117938000D01*
X87333207Y-117938000D01*
X87308131Y-117940908D01*
X87308125Y-117940910D01*
X87205521Y-117986213D01*
X87176826Y-118014909D01*
X87124500Y-118036583D01*
X87072174Y-118014909D01*
X87050500Y-117962583D01*
X87050500Y-117336698D01*
X87072174Y-117284372D01*
X87124500Y-117262698D01*
X87176826Y-117284372D01*
X87186028Y-117295585D01*
X87213500Y-117336698D01*
X87233448Y-117366552D01*
X87277560Y-117396027D01*
X87299767Y-117410866D01*
X87299768Y-117410866D01*
X87299769Y-117410867D01*
X87358252Y-117422500D01*
X87358254Y-117422500D01*
X88921746Y-117422500D01*
X88921748Y-117422500D01*
X88980231Y-117410867D01*
X89046552Y-117366552D01*
X89090867Y-117300231D01*
X89102500Y-117241748D01*
X89102500Y-115678252D01*
X89090867Y-115619769D01*
X89046552Y-115553448D01*
X89024343Y-115538608D01*
X88980232Y-115509133D01*
X88980233Y-115509133D01*
X88931948Y-115499529D01*
X88921748Y-115497500D01*
X88921747Y-115497500D01*
X88921742Y-115497499D01*
X88918127Y-115497143D01*
X88918343Y-115494949D01*
X88872174Y-115475826D01*
X88850500Y-115423500D01*
X88850500Y-112283210D01*
X92668000Y-112283210D01*
X92668000Y-112836000D01*
X93363382Y-112836000D01*
X93315792Y-112918429D01*
X93285500Y-113031480D01*
X93285500Y-113148520D01*
X93315792Y-113261571D01*
X93363382Y-113344000D01*
X92668001Y-113344000D01*
X92668001Y-113896792D01*
X92670908Y-113921868D01*
X92670910Y-113921874D01*
X92716213Y-114024478D01*
X92795521Y-114103786D01*
X92898124Y-114149089D01*
X92898123Y-114149089D01*
X92923210Y-114151999D01*
X93476000Y-114151999D01*
X93476000Y-113456618D01*
X93558429Y-113504208D01*
X93671480Y-113534500D01*
X93788520Y-113534500D01*
X93901571Y-113504208D01*
X93984000Y-113456618D01*
X93984000Y-114151999D01*
X94536792Y-114151999D01*
X94561868Y-114149091D01*
X94561874Y-114149089D01*
X94664478Y-114103786D01*
X94743786Y-114024478D01*
X94789089Y-113921875D01*
X94792000Y-113896789D01*
X94792000Y-113344000D01*
X94096618Y-113344000D01*
X94144208Y-113261571D01*
X94174500Y-113148520D01*
X94174500Y-113031480D01*
X94144208Y-112918429D01*
X94096618Y-112836000D01*
X94791999Y-112836000D01*
X94791999Y-112283207D01*
X94789091Y-112258131D01*
X94789089Y-112258125D01*
X94743786Y-112155521D01*
X94664478Y-112076213D01*
X94561875Y-112030910D01*
X94561876Y-112030910D01*
X94536789Y-112028000D01*
X93984000Y-112028000D01*
X93984000Y-112723381D01*
X93901571Y-112675792D01*
X93788520Y-112645500D01*
X93671480Y-112645500D01*
X93558429Y-112675792D01*
X93476000Y-112723381D01*
X93476000Y-112028000D01*
X92923207Y-112028000D01*
X92898131Y-112030908D01*
X92898125Y-112030910D01*
X92795521Y-112076213D01*
X92716213Y-112155521D01*
X92670910Y-112258124D01*
X92668000Y-112283210D01*
X88850500Y-112283210D01*
X88850500Y-111938138D01*
X88872174Y-111885812D01*
X88905346Y-111866660D01*
X88931784Y-111859577D01*
X89068716Y-111780520D01*
X89180520Y-111668716D01*
X89259577Y-111531784D01*
X89300499Y-111379059D01*
X89300500Y-111379059D01*
X89300500Y-111220941D01*
X89300499Y-111220940D01*
X89263776Y-111083889D01*
X89259577Y-111068216D01*
X89180520Y-110931284D01*
X89068716Y-110819480D01*
X88931784Y-110740423D01*
X88931781Y-110740422D01*
X88931779Y-110740421D01*
X88779059Y-110699500D01*
X88779057Y-110699500D01*
X88620943Y-110699500D01*
X88620941Y-110699500D01*
X88468220Y-110740421D01*
X88468214Y-110740424D01*
X88361500Y-110802035D01*
X88305347Y-110809427D01*
X88260414Y-110774949D01*
X88250500Y-110737949D01*
X88250500Y-109324834D01*
X88272174Y-109272508D01*
X88324500Y-109250834D01*
X88376826Y-109272508D01*
X88777826Y-109673508D01*
X88799500Y-109725834D01*
X88799500Y-109879059D01*
X88840421Y-110031779D01*
X88840422Y-110031781D01*
X88840423Y-110031784D01*
X88919480Y-110168716D01*
X89031284Y-110280520D01*
X89168216Y-110359577D01*
X89320940Y-110400499D01*
X89320941Y-110400500D01*
X89320943Y-110400500D01*
X89479059Y-110400500D01*
X89479059Y-110400499D01*
X89631784Y-110359577D01*
X89768716Y-110280520D01*
X89880520Y-110168716D01*
X89959577Y-110031784D01*
X89975259Y-109973259D01*
X89990465Y-109916511D01*
X91349500Y-109916511D01*
X91349500Y-110483488D01*
X91365280Y-110583125D01*
X91365281Y-110583126D01*
X91424576Y-110699500D01*
X91426472Y-110703220D01*
X91521780Y-110798528D01*
X91641874Y-110859719D01*
X91741511Y-110875500D01*
X91741512Y-110875500D01*
X92258489Y-110875500D01*
X92308307Y-110867609D01*
X92358126Y-110859719D01*
X92478220Y-110798528D01*
X92573528Y-110703220D01*
X92627566Y-110597165D01*
X92670633Y-110560383D01*
X92727096Y-110564827D01*
X92763878Y-110607894D01*
X92767500Y-110630761D01*
X92767500Y-111331746D01*
X92779133Y-111390232D01*
X92808608Y-111434343D01*
X92823448Y-111456552D01*
X92867560Y-111486027D01*
X92889767Y-111500866D01*
X92889768Y-111500866D01*
X92889769Y-111500867D01*
X92948252Y-111512500D01*
X92948254Y-111512500D01*
X94511746Y-111512500D01*
X94511748Y-111512500D01*
X94570231Y-111500867D01*
X94636552Y-111456552D01*
X94680867Y-111390231D01*
X94692500Y-111331748D01*
X94692500Y-109768252D01*
X94680867Y-109709769D01*
X94636552Y-109643448D01*
X94625446Y-109636027D01*
X94593982Y-109588936D01*
X94605032Y-109533387D01*
X94652124Y-109501922D01*
X94666560Y-109500500D01*
X94779059Y-109500500D01*
X94779059Y-109500499D01*
X94931784Y-109459577D01*
X95068716Y-109380520D01*
X95180520Y-109268716D01*
X95184108Y-109262500D01*
X95229041Y-109228022D01*
X95248195Y-109225500D01*
X95716524Y-109225500D01*
X95768850Y-109247174D01*
X95782458Y-109265905D01*
X95801470Y-109303217D01*
X95801470Y-109303218D01*
X95801471Y-109303219D01*
X95801472Y-109303220D01*
X95896780Y-109398528D01*
X96016874Y-109459719D01*
X96116511Y-109475500D01*
X96116512Y-109475500D01*
X96683489Y-109475500D01*
X96733307Y-109467609D01*
X96783126Y-109459719D01*
X96903220Y-109398528D01*
X96998528Y-109303220D01*
X96999026Y-109302242D01*
X97030280Y-109240905D01*
X97073347Y-109204122D01*
X97096214Y-109200500D01*
X97420612Y-109200500D01*
X97472938Y-109222174D01*
X97531284Y-109280520D01*
X97668216Y-109359577D01*
X97820940Y-109400499D01*
X97820941Y-109400500D01*
X97982886Y-109400500D01*
X98016480Y-109408565D01*
X98116874Y-109459719D01*
X98216511Y-109475500D01*
X98216512Y-109475500D01*
X98783489Y-109475500D01*
X98833307Y-109467609D01*
X98883126Y-109459719D01*
X99003220Y-109398528D01*
X99098528Y-109303220D01*
X99159719Y-109183126D01*
X99175500Y-109083488D01*
X99175500Y-108566512D01*
X99169920Y-108531284D01*
X99159719Y-108466874D01*
X99159718Y-108466873D01*
X99159650Y-108466740D01*
X99098528Y-108346780D01*
X99003220Y-108251472D01*
X99003219Y-108251471D01*
X98883126Y-108190281D01*
X98883125Y-108190280D01*
X98783489Y-108174500D01*
X98783488Y-108174500D01*
X98216512Y-108174500D01*
X98216511Y-108174500D01*
X98116873Y-108190281D01*
X98116870Y-108190281D01*
X98082827Y-108207627D01*
X98030082Y-108213171D01*
X97979057Y-108199500D01*
X97820943Y-108199500D01*
X97820941Y-108199500D01*
X97668220Y-108240421D01*
X97668214Y-108240424D01*
X97531283Y-108319480D01*
X97472938Y-108377826D01*
X97420612Y-108399500D01*
X97070738Y-108399500D01*
X97018412Y-108377826D01*
X97004804Y-108359096D01*
X96998529Y-108346781D01*
X96903219Y-108251471D01*
X96783126Y-108190281D01*
X96783125Y-108190280D01*
X96683489Y-108174500D01*
X96683488Y-108174500D01*
X96116512Y-108174500D01*
X96116511Y-108174500D01*
X96016874Y-108190280D01*
X96016873Y-108190281D01*
X95896780Y-108251471D01*
X95801470Y-108346781D01*
X95801470Y-108346782D01*
X95782458Y-108384095D01*
X95739391Y-108420878D01*
X95716524Y-108424500D01*
X95097239Y-108424500D01*
X95060239Y-108414586D01*
X94931784Y-108340423D01*
X94931781Y-108340422D01*
X94931779Y-108340421D01*
X94779059Y-108299500D01*
X94779057Y-108299500D01*
X94620943Y-108299500D01*
X94620941Y-108299500D01*
X94468220Y-108340421D01*
X94468214Y-108340424D01*
X94331283Y-108419480D01*
X94219480Y-108531283D01*
X94140424Y-108668214D01*
X94140421Y-108668220D01*
X94099500Y-108820940D01*
X94099500Y-108979059D01*
X94140421Y-109131779D01*
X94140422Y-109131781D01*
X94140423Y-109131784D01*
X94219480Y-109268716D01*
X94331284Y-109380520D01*
X94450614Y-109449415D01*
X94485092Y-109494347D01*
X94477700Y-109550500D01*
X94432767Y-109584978D01*
X94413614Y-109587500D01*
X92948252Y-109587500D01*
X92919010Y-109593316D01*
X92889767Y-109599133D01*
X92823449Y-109643447D01*
X92823447Y-109643449D01*
X92779133Y-109709767D01*
X92776910Y-109720943D01*
X92768775Y-109761845D01*
X92767500Y-109768253D01*
X92767500Y-109769238D01*
X92767372Y-109769546D01*
X92767143Y-109771873D01*
X92766437Y-109771803D01*
X92745826Y-109821564D01*
X92693500Y-109843238D01*
X92641174Y-109821564D01*
X92627566Y-109802834D01*
X92604271Y-109757116D01*
X92573528Y-109696780D01*
X92478220Y-109601472D01*
X92478219Y-109601471D01*
X92358126Y-109540281D01*
X92358125Y-109540280D01*
X92258489Y-109524500D01*
X92258488Y-109524500D01*
X91741512Y-109524500D01*
X91741511Y-109524500D01*
X91641874Y-109540280D01*
X91641873Y-109540281D01*
X91521780Y-109601471D01*
X91426471Y-109696780D01*
X91365281Y-109816873D01*
X91365280Y-109816874D01*
X91349500Y-109916511D01*
X89990465Y-109916511D01*
X89996376Y-109894452D01*
X90000500Y-109879058D01*
X90000500Y-109720941D01*
X90000499Y-109720940D01*
X89994025Y-109696780D01*
X89959577Y-109568216D01*
X89880520Y-109431284D01*
X89768716Y-109319480D01*
X89631784Y-109240423D01*
X89631781Y-109240422D01*
X89631779Y-109240421D01*
X89479059Y-109199500D01*
X89479057Y-109199500D01*
X89325834Y-109199500D01*
X89273508Y-109177826D01*
X88972174Y-108876492D01*
X88950500Y-108824166D01*
X88950500Y-106253854D01*
X88950499Y-106253853D01*
X88926615Y-106164715D01*
X88926614Y-106164713D01*
X88926614Y-106164712D01*
X88912064Y-106139511D01*
X88880470Y-106084788D01*
X88600234Y-105804552D01*
X88578560Y-105752226D01*
X88600234Y-105699900D01*
X88652560Y-105678226D01*
X88680878Y-105683859D01*
X88695354Y-105689855D01*
X88695359Y-105689857D01*
X88774000Y-105705500D01*
X90020500Y-105705500D01*
X90072826Y-105727174D01*
X90094500Y-105779500D01*
X90094500Y-106526000D01*
X90099964Y-106553469D01*
X90110852Y-106608206D01*
X90109513Y-106608472D01*
X90104407Y-106660376D01*
X90060630Y-106696311D01*
X90039141Y-106699500D01*
X90020941Y-106699500D01*
X89868220Y-106740421D01*
X89868214Y-106740424D01*
X89731283Y-106819480D01*
X89619480Y-106931283D01*
X89540424Y-107068214D01*
X89540421Y-107068220D01*
X89499500Y-107220940D01*
X89499500Y-107379059D01*
X89540421Y-107531779D01*
X89540422Y-107531781D01*
X89540423Y-107531784D01*
X89619480Y-107668716D01*
X89731284Y-107780520D01*
X89868216Y-107859577D01*
X90020940Y-107900499D01*
X90020941Y-107900500D01*
X90020943Y-107900500D01*
X90179058Y-107900500D01*
X90196386Y-107895856D01*
X90234181Y-107885729D01*
X90290333Y-107893120D01*
X90324812Y-107938053D01*
X90326423Y-107945631D01*
X90340280Y-108033125D01*
X90340281Y-108033126D01*
X90401472Y-108153220D01*
X90496780Y-108248528D01*
X90616874Y-108309719D01*
X90716511Y-108325500D01*
X90716512Y-108325500D01*
X91283489Y-108325500D01*
X91362934Y-108312917D01*
X91383126Y-108309719D01*
X91503220Y-108248528D01*
X91598528Y-108153220D01*
X91659719Y-108033126D01*
X91675500Y-107933488D01*
X91675500Y-107774500D01*
X91697174Y-107722174D01*
X91749500Y-107700500D01*
X91750500Y-107700500D01*
X91802826Y-107722174D01*
X91824500Y-107774500D01*
X91824500Y-107933488D01*
X91840280Y-108033125D01*
X91840281Y-108033126D01*
X91901472Y-108153220D01*
X91996780Y-108248528D01*
X92116874Y-108309719D01*
X92216511Y-108325500D01*
X92216512Y-108325500D01*
X92783489Y-108325500D01*
X92862934Y-108312917D01*
X92883126Y-108309719D01*
X93003220Y-108248528D01*
X93098528Y-108153220D01*
X93159719Y-108033126D01*
X93175500Y-107933488D01*
X93175500Y-107674500D01*
X93197174Y-107622174D01*
X93249500Y-107600500D01*
X93452726Y-107600500D01*
X93452727Y-107600500D01*
X93554588Y-107573207D01*
X93645913Y-107520480D01*
X93844219Y-107322174D01*
X93896545Y-107300500D01*
X96003455Y-107300500D01*
X96055781Y-107322174D01*
X96604087Y-107870480D01*
X96604089Y-107870481D01*
X96604090Y-107870482D01*
X96668281Y-107907542D01*
X96695412Y-107923207D01*
X96797273Y-107950500D01*
X96797274Y-107950500D01*
X98102726Y-107950500D01*
X98102727Y-107950500D01*
X98204588Y-107923207D01*
X98295913Y-107870480D01*
X99745910Y-106420481D01*
X99745913Y-106420480D01*
X99820480Y-106345913D01*
X99873207Y-106254587D01*
X99882969Y-106218155D01*
X99900501Y-106152727D01*
X99900501Y-106047273D01*
X99900501Y-106042744D01*
X99900500Y-106042726D01*
X99900500Y-100338337D01*
X108579226Y-100338337D01*
X108579226Y-102871656D01*
X108590960Y-102980805D01*
X108590962Y-102980811D01*
X108642036Y-103117747D01*
X108642037Y-103117748D01*
X108642038Y-103117749D01*
X108729627Y-103234754D01*
X108729629Y-103234756D01*
X109042545Y-103547672D01*
X109064219Y-103599998D01*
X109042545Y-103652324D01*
X108729626Y-103965243D01*
X108729623Y-103965247D01*
X108660741Y-104050722D01*
X108600025Y-104183673D01*
X108600025Y-104183675D01*
X108579226Y-104328337D01*
X108579226Y-107111656D01*
X108590960Y-107220805D01*
X108590962Y-107220811D01*
X108642036Y-107357747D01*
X108642037Y-107357748D01*
X108642038Y-107357749D01*
X108729627Y-107474754D01*
X108729629Y-107474756D01*
X109042545Y-107787672D01*
X109064219Y-107839998D01*
X109042545Y-107892324D01*
X108729626Y-108205243D01*
X108729623Y-108205247D01*
X108660741Y-108290722D01*
X108600025Y-108423673D01*
X108600025Y-108423675D01*
X108579226Y-108568337D01*
X108579226Y-109802827D01*
X108582167Y-109857694D01*
X108585046Y-109884478D01*
X108593842Y-109938753D01*
X108644920Y-110075693D01*
X108644920Y-110075694D01*
X108678943Y-110138000D01*
X108678946Y-110138005D01*
X108766532Y-110255004D01*
X108946722Y-110435194D01*
X108987603Y-110471917D01*
X108987625Y-110471935D01*
X108987631Y-110471940D01*
X109008563Y-110488809D01*
X109008565Y-110488811D01*
X109008572Y-110488816D01*
X109008577Y-110488820D01*
X109053177Y-110520982D01*
X109186126Y-110581698D01*
X109254247Y-110601700D01*
X109398916Y-110622500D01*
X109398922Y-110622500D01*
X110729021Y-110622500D01*
X110729021Y-110622499D01*
X110810812Y-110615943D01*
X110850444Y-110609548D01*
X110930163Y-110590041D01*
X110953113Y-110582435D01*
X110968858Y-110579064D01*
X110975550Y-110578381D01*
X110983054Y-110578000D01*
X111498019Y-110578000D01*
X111498036Y-110578000D01*
X111552918Y-110575059D01*
X111579701Y-110572180D01*
X111633978Y-110563384D01*
X111770919Y-110512306D01*
X111833231Y-110478280D01*
X111950230Y-110390694D01*
X112085920Y-110255004D01*
X112122643Y-110214123D01*
X112139546Y-110193149D01*
X112171708Y-110148549D01*
X112232424Y-110015600D01*
X112252426Y-109947479D01*
X112273226Y-109802810D01*
X112273226Y-106659656D01*
X112273226Y-106659575D01*
X112273226Y-106659493D01*
X112273206Y-106655167D01*
X112273186Y-106652808D01*
X112273123Y-106648160D01*
X112273123Y-106648152D01*
X112249723Y-106503879D01*
X112230694Y-106443137D01*
X112230692Y-106443137D01*
X112223469Y-106420078D01*
X112212915Y-106394223D01*
X112213468Y-106393995D01*
X112168860Y-106286301D01*
X112168860Y-106286177D01*
X112164794Y-106272769D01*
X112161032Y-106253856D01*
X112153932Y-106218155D01*
X112153422Y-106215592D01*
X112152000Y-106201157D01*
X112152000Y-106142840D01*
X112153422Y-106128404D01*
X112159759Y-106096544D01*
X112164797Y-106071216D01*
X112169003Y-106057349D01*
X112213464Y-105950013D01*
X112213462Y-105950012D01*
X112222088Y-105929188D01*
X112222435Y-105928273D01*
X112224559Y-105923518D01*
X112224941Y-105921686D01*
X112226134Y-105918552D01*
X112231779Y-105899325D01*
X112231801Y-105899260D01*
X112232876Y-105895589D01*
X112232893Y-105895530D01*
X112233847Y-105892280D01*
X112233848Y-105892281D01*
X112250563Y-105835354D01*
X112252061Y-105831548D01*
X112252425Y-105829013D01*
X112252426Y-105829013D01*
X112273226Y-105684343D01*
X112273226Y-104002348D01*
X112294900Y-103950022D01*
X112585748Y-103659174D01*
X112638074Y-103637500D01*
X125867377Y-103637500D01*
X125919703Y-103659174D01*
X126130400Y-103869871D01*
X126161919Y-103894537D01*
X126189770Y-103943853D01*
X126183627Y-103983553D01*
X126146030Y-104065879D01*
X126126025Y-104134011D01*
X126105226Y-104278671D01*
X126105226Y-107262827D01*
X126108167Y-107317694D01*
X126111046Y-107344478D01*
X126119842Y-107398753D01*
X126170920Y-107535693D01*
X126170920Y-107535694D01*
X126204943Y-107598000D01*
X126204946Y-107598005D01*
X126292532Y-107715004D01*
X126853722Y-108276194D01*
X126894603Y-108312917D01*
X126894625Y-108312935D01*
X126894631Y-108312940D01*
X126915563Y-108329809D01*
X126915565Y-108329811D01*
X126915572Y-108329816D01*
X126915577Y-108329820D01*
X126960177Y-108361982D01*
X127093126Y-108422698D01*
X127161247Y-108442700D01*
X127305916Y-108463500D01*
X127305922Y-108463500D01*
X128852519Y-108463500D01*
X128852536Y-108463500D01*
X128907418Y-108460559D01*
X128934201Y-108457680D01*
X128988478Y-108448884D01*
X129125419Y-108397806D01*
X129187731Y-108363780D01*
X129304730Y-108276194D01*
X129611920Y-107969004D01*
X129648643Y-107928123D01*
X129665546Y-107907149D01*
X129697708Y-107862549D01*
X129758424Y-107729600D01*
X129778426Y-107661479D01*
X129799226Y-107516810D01*
X129799226Y-104373763D01*
X129799226Y-104373751D01*
X129795880Y-104315248D01*
X129795879Y-104315247D01*
X129795879Y-104315232D01*
X129792605Y-104286696D01*
X129792600Y-104286672D01*
X129792600Y-104286663D01*
X129782611Y-104228940D01*
X129782610Y-104228933D01*
X129729586Y-104092733D01*
X129695590Y-104032532D01*
X129695021Y-104031461D01*
X129694678Y-104030915D01*
X129694676Y-104030912D01*
X129694675Y-104030910D01*
X129605427Y-103915166D01*
X129543083Y-103869868D01*
X129487183Y-103829252D01*
X129424395Y-103796121D01*
X129286737Y-103747002D01*
X129286739Y-103747002D01*
X129236355Y-103744120D01*
X129188256Y-103722567D01*
X129118014Y-103652325D01*
X129096340Y-103599999D01*
X129118014Y-103547673D01*
X129118015Y-103547672D01*
X129187634Y-103478053D01*
X129229426Y-103457133D01*
X129285148Y-103449122D01*
X129425383Y-103407945D01*
X129548338Y-103328927D01*
X129600500Y-103283728D01*
X129601787Y-103282672D01*
X129601990Y-103282436D01*
X129601994Y-103282434D01*
X129601996Y-103282433D01*
X129697708Y-103171974D01*
X129758424Y-103039025D01*
X129778426Y-102970904D01*
X129799226Y-102826235D01*
X129799226Y-100383763D01*
X129799226Y-100383751D01*
X129795880Y-100325248D01*
X129795879Y-100325247D01*
X129795879Y-100325232D01*
X129792605Y-100296696D01*
X129792600Y-100296672D01*
X129792600Y-100296663D01*
X129782611Y-100238940D01*
X129782610Y-100238933D01*
X129729586Y-100102733D01*
X129695590Y-100042532D01*
X129695021Y-100041461D01*
X129694678Y-100040915D01*
X129694676Y-100040912D01*
X129694675Y-100040910D01*
X129605427Y-99925166D01*
X129576174Y-99903912D01*
X129487183Y-99839252D01*
X129424395Y-99806121D01*
X129286737Y-99757002D01*
X129286739Y-99757002D01*
X129236355Y-99754120D01*
X129188256Y-99732567D01*
X129118014Y-99662325D01*
X129096340Y-99609999D01*
X129118014Y-99557673D01*
X129134861Y-99540826D01*
X129187634Y-99488053D01*
X129229426Y-99467133D01*
X129285148Y-99459122D01*
X129425383Y-99417945D01*
X129548338Y-99338927D01*
X129600500Y-99293728D01*
X129601787Y-99292672D01*
X129601990Y-99292436D01*
X129601994Y-99292434D01*
X129601996Y-99292433D01*
X129697708Y-99181974D01*
X129758424Y-99049025D01*
X129778426Y-98980904D01*
X129799226Y-98836235D01*
X129799226Y-98353763D01*
X129799226Y-98353751D01*
X129795880Y-98295248D01*
X129795879Y-98295247D01*
X129795879Y-98295232D01*
X129792605Y-98266696D01*
X129792600Y-98266672D01*
X129792600Y-98266663D01*
X129782611Y-98208940D01*
X129782610Y-98208933D01*
X129729586Y-98072733D01*
X129695590Y-98012532D01*
X129695021Y-98011461D01*
X129694678Y-98010915D01*
X129694676Y-98010912D01*
X129694675Y-98010910D01*
X129605427Y-97895166D01*
X129549845Y-97854781D01*
X129487183Y-97809252D01*
X129424395Y-97776121D01*
X129286737Y-97727002D01*
X129286739Y-97727002D01*
X129236354Y-97724120D01*
X129188255Y-97702567D01*
X128968217Y-97482529D01*
X128947965Y-97444639D01*
X128945414Y-97431816D01*
X128918292Y-97295457D01*
X128878847Y-97200227D01*
X128844758Y-97117929D01*
X128738002Y-96958158D01*
X128738000Y-96958155D01*
X128602125Y-96822280D01*
X128584402Y-96810438D01*
X128442350Y-96715521D01*
X128264827Y-96641989D01*
X128264817Y-96641986D01*
X128115638Y-96612313D01*
X128077749Y-96592061D01*
X127642588Y-96156900D01*
X127642584Y-96156897D01*
X127557108Y-96088015D01*
X127557109Y-96088015D01*
X127459694Y-96043528D01*
X127424160Y-96027300D01*
X127424158Y-96027299D01*
X127424157Y-96027299D01*
X127279494Y-96006500D01*
X127279490Y-96006500D01*
X126797916Y-96006500D01*
X126797898Y-96006500D01*
X126743031Y-96009441D01*
X126716247Y-96012320D01*
X126661972Y-96021116D01*
X126525032Y-96072194D01*
X126525031Y-96072194D01*
X126462725Y-96106217D01*
X126345722Y-96193805D01*
X125911541Y-96627986D01*
X125911522Y-96628006D01*
X125890933Y-96650927D01*
X125874809Y-96668877D01*
X125874801Y-96668886D01*
X125874785Y-96668905D01*
X125857916Y-96689837D01*
X125857914Y-96689839D01*
X125825744Y-96734450D01*
X125765029Y-96867397D01*
X125745025Y-96935525D01*
X125724226Y-97080185D01*
X125724226Y-99324650D01*
X125702552Y-99376976D01*
X125538702Y-99540826D01*
X125486376Y-99562500D01*
X111829779Y-99562500D01*
X111791793Y-99552006D01*
X111778838Y-99544257D01*
X111778837Y-99544256D01*
X111778836Y-99544256D01*
X111639833Y-99499092D01*
X111639826Y-99499091D01*
X111570840Y-99487153D01*
X111570054Y-99487006D01*
X111569870Y-99486985D01*
X111423774Y-99482815D01*
X111423773Y-99482815D01*
X111403844Y-99488054D01*
X111282420Y-99519973D01*
X111253271Y-99532291D01*
X111238299Y-99532397D01*
X111224467Y-99538127D01*
X111211101Y-99532591D01*
X111196635Y-99532694D01*
X111172141Y-99516453D01*
X111168217Y-99512529D01*
X111168216Y-99512527D01*
X111147965Y-99474639D01*
X111146888Y-99469226D01*
X111118292Y-99325457D01*
X111104712Y-99292672D01*
X111044758Y-99147929D01*
X110938002Y-98988158D01*
X110938000Y-98988155D01*
X110902453Y-98952608D01*
X110880780Y-98900283D01*
X110880780Y-98289716D01*
X110902453Y-98237391D01*
X110938000Y-98201845D01*
X111044757Y-98042073D01*
X111118292Y-97864543D01*
X111155780Y-97676078D01*
X111155780Y-97483922D01*
X111118292Y-97295457D01*
X111078847Y-97200227D01*
X111044758Y-97117929D01*
X110938002Y-96958158D01*
X110938000Y-96958155D01*
X110802125Y-96822280D01*
X110784402Y-96810438D01*
X110642350Y-96715521D01*
X110464827Y-96641989D01*
X110464817Y-96641986D01*
X110338608Y-96616882D01*
X110276358Y-96604500D01*
X110084202Y-96604500D01*
X110030775Y-96615127D01*
X109895742Y-96641986D01*
X109895732Y-96641989D01*
X109718209Y-96715521D01*
X109558438Y-96822277D01*
X109422557Y-96958158D01*
X109315801Y-97117929D01*
X109242269Y-97295452D01*
X109242266Y-97295462D01*
X109215144Y-97431817D01*
X109204780Y-97483922D01*
X109204780Y-97676078D01*
X109210049Y-97702567D01*
X109242266Y-97864537D01*
X109242269Y-97864547D01*
X109315801Y-98042070D01*
X109380107Y-98138311D01*
X109422560Y-98201845D01*
X109458106Y-98237391D01*
X109479780Y-98289716D01*
X109479780Y-98900283D01*
X109458107Y-98952608D01*
X109422557Y-98988158D01*
X109315801Y-99147929D01*
X109242269Y-99325452D01*
X109242266Y-99325462D01*
X109212593Y-99474638D01*
X109192341Y-99512527D01*
X108729626Y-99975243D01*
X108729623Y-99975247D01*
X108660741Y-100060722D01*
X108600025Y-100193673D01*
X108600025Y-100193675D01*
X108579226Y-100338337D01*
X99900500Y-100338337D01*
X99900500Y-96647272D01*
X99895335Y-96627995D01*
X99895335Y-96627994D01*
X99873208Y-96545416D01*
X99873207Y-96545412D01*
X99820480Y-96454087D01*
X97622174Y-94255781D01*
X97600500Y-94203455D01*
X97600500Y-93690917D01*
X97622174Y-93638591D01*
X97674500Y-93616917D01*
X97711495Y-93626829D01*
X97768216Y-93659577D01*
X97920940Y-93700499D01*
X97920941Y-93700500D01*
X97920943Y-93700500D01*
X98079059Y-93700500D01*
X98079059Y-93700499D01*
X98231784Y-93659577D01*
X98368716Y-93580520D01*
X98480520Y-93468716D01*
X98559577Y-93331784D01*
X98600499Y-93179059D01*
X98600500Y-93179059D01*
X98600500Y-93020941D01*
X98600499Y-93020940D01*
X98559578Y-92868220D01*
X98559577Y-92868216D01*
X98480520Y-92731284D01*
X98472174Y-92722938D01*
X98450500Y-92670612D01*
X98450500Y-84340689D01*
X98450499Y-84340688D01*
X98419800Y-84226117D01*
X98419797Y-84226109D01*
X98416154Y-84219800D01*
X98416152Y-84219798D01*
X98385550Y-84166793D01*
X98360490Y-84123386D01*
X91376614Y-77139511D01*
X91376611Y-77139509D01*
X91376610Y-77139508D01*
X91273891Y-77080203D01*
X91273889Y-77080202D01*
X91273887Y-77080201D01*
X91272585Y-77079852D01*
X91249674Y-77073712D01*
X91249674Y-77073713D01*
X91159309Y-77049500D01*
X90117255Y-77049500D01*
X90064929Y-77027826D01*
X89087914Y-76050811D01*
X89066240Y-75998485D01*
X89066240Y-75284415D01*
X89087914Y-75232089D01*
X90265529Y-74054474D01*
X90317855Y-74032800D01*
X90829258Y-74032800D01*
X90829266Y-74032800D01*
X90859699Y-74029946D01*
X90987882Y-73985093D01*
X91097150Y-73904450D01*
X91177793Y-73795182D01*
X91188124Y-73765659D01*
X91225864Y-73723428D01*
X91257971Y-73716100D01*
X91568100Y-73716100D01*
X91620426Y-73737774D01*
X91696780Y-73814128D01*
X91816874Y-73875319D01*
X91916511Y-73891100D01*
X91916512Y-73891100D01*
X92483489Y-73891100D01*
X92533307Y-73883209D01*
X92583126Y-73875319D01*
X92703220Y-73814128D01*
X92782654Y-73734693D01*
X92834979Y-73713020D01*
X93175500Y-73713020D01*
X93227826Y-73734694D01*
X93249500Y-73787020D01*
X93249500Y-74032268D01*
X93253753Y-74053649D01*
X93261133Y-74090752D01*
X93290608Y-74134863D01*
X93305448Y-74157072D01*
X93343270Y-74182344D01*
X93371767Y-74201386D01*
X93371768Y-74201386D01*
X93371769Y-74201387D01*
X93430252Y-74213020D01*
X93430254Y-74213020D01*
X95469746Y-74213020D01*
X95469748Y-74213020D01*
X95528231Y-74201387D01*
X95594552Y-74157072D01*
X95638867Y-74090751D01*
X95650500Y-74032268D01*
X95650500Y-74032263D01*
X95650747Y-74029763D01*
X95651146Y-74029015D01*
X95651209Y-74028702D01*
X95651304Y-74028720D01*
X95677448Y-73979815D01*
X95724390Y-73963020D01*
X99475500Y-73963020D01*
X99527826Y-73984694D01*
X99549500Y-74037020D01*
X99549500Y-75182266D01*
X99561133Y-75240752D01*
X99569827Y-75253763D01*
X99605448Y-75307072D01*
X99649560Y-75336547D01*
X99671767Y-75351386D01*
X99671768Y-75351386D01*
X99671769Y-75351387D01*
X99730252Y-75363020D01*
X99730254Y-75363020D01*
X101769746Y-75363020D01*
X101769748Y-75363020D01*
X101828231Y-75351387D01*
X101894552Y-75307072D01*
X101938867Y-75240751D01*
X101950500Y-75182268D01*
X101950500Y-71342772D01*
X101938867Y-71284289D01*
X101938866Y-71284287D01*
X101937445Y-71277141D01*
X101939482Y-71276735D01*
X101939481Y-71229140D01*
X101979528Y-71189090D01*
X102036165Y-71189088D01*
X102060175Y-71205130D01*
X102588951Y-71733906D01*
X102588956Y-71733912D01*
X102591540Y-71736496D01*
X102703344Y-71848300D01*
X102840276Y-71927357D01*
X102840280Y-71927358D01*
X102952070Y-71957312D01*
X102952074Y-71957312D01*
X102952079Y-71957314D01*
X102982736Y-71965529D01*
X102993001Y-71968280D01*
X102993002Y-71968280D01*
X102993003Y-71968280D01*
X103363900Y-71968280D01*
X103416226Y-71989954D01*
X103437900Y-72042280D01*
X103437900Y-72748824D01*
X103416226Y-72801150D01*
X103388342Y-72818671D01*
X103350516Y-72831907D01*
X103241253Y-72912546D01*
X103241246Y-72912553D01*
X103160607Y-73021816D01*
X103160606Y-73021818D01*
X103115755Y-73149995D01*
X103115754Y-73149999D01*
X103115754Y-73150001D01*
X103112900Y-73180434D01*
X103112900Y-73788966D01*
X103115754Y-73819399D01*
X103115754Y-73819401D01*
X103115755Y-73819404D01*
X103160606Y-73947581D01*
X103160607Y-73947583D01*
X103241246Y-74056846D01*
X103241253Y-74056853D01*
X103350516Y-74137492D01*
X103350518Y-74137493D01*
X103478695Y-74182344D01*
X103478701Y-74182346D01*
X103509134Y-74185200D01*
X103509141Y-74185200D01*
X104567658Y-74185200D01*
X104567666Y-74185200D01*
X104598099Y-74182346D01*
X104670334Y-74157070D01*
X104701362Y-74146213D01*
X104725803Y-74142060D01*
X105814150Y-74142060D01*
X105866476Y-74163734D01*
X105887294Y-74207749D01*
X105887331Y-74207742D01*
X105887359Y-74207887D01*
X105887793Y-74208803D01*
X105888039Y-74211303D01*
X105899673Y-74269792D01*
X105929148Y-74313903D01*
X105943988Y-74336112D01*
X105988100Y-74365587D01*
X106010307Y-74380426D01*
X106010308Y-74380426D01*
X106010309Y-74380427D01*
X106068792Y-74392060D01*
X106068794Y-74392060D01*
X108108286Y-74392060D01*
X108108288Y-74392060D01*
X108166771Y-74380427D01*
X108233092Y-74336112D01*
X108277407Y-74269791D01*
X108289040Y-74211308D01*
X108289040Y-74211303D01*
X108289287Y-74208803D01*
X108289686Y-74208055D01*
X108289749Y-74207742D01*
X108289844Y-74207760D01*
X108315988Y-74158855D01*
X108362930Y-74142060D01*
X112114040Y-74142060D01*
X112166366Y-74163734D01*
X112188040Y-74216060D01*
X112188040Y-75361306D01*
X112199673Y-75419792D01*
X112229148Y-75463903D01*
X112243988Y-75486112D01*
X112288100Y-75515587D01*
X112310307Y-75530426D01*
X112310308Y-75530426D01*
X112310309Y-75530427D01*
X112368792Y-75542060D01*
X112368794Y-75542060D01*
X114408286Y-75542060D01*
X114408288Y-75542060D01*
X114466771Y-75530427D01*
X114533092Y-75486112D01*
X114577407Y-75419791D01*
X114589040Y-75361308D01*
X114589040Y-73003210D01*
X115878000Y-73003210D01*
X115878000Y-73556000D01*
X116573382Y-73556000D01*
X116525792Y-73638429D01*
X116495500Y-73751480D01*
X116495500Y-73868520D01*
X116525792Y-73981571D01*
X116573382Y-74064000D01*
X115878001Y-74064000D01*
X115878001Y-74616792D01*
X115880908Y-74641868D01*
X115880910Y-74641874D01*
X115926213Y-74744478D01*
X116005521Y-74823786D01*
X116108124Y-74869089D01*
X116108123Y-74869089D01*
X116133210Y-74871999D01*
X116686000Y-74871999D01*
X116686000Y-74176618D01*
X116768429Y-74224208D01*
X116881480Y-74254500D01*
X116998520Y-74254500D01*
X117111571Y-74224208D01*
X117194000Y-74176618D01*
X117194000Y-74871999D01*
X117746792Y-74871999D01*
X117771868Y-74869091D01*
X117771874Y-74869089D01*
X117874478Y-74823786D01*
X117953786Y-74744478D01*
X117999089Y-74641875D01*
X118002000Y-74616789D01*
X118002000Y-74064000D01*
X117306618Y-74064000D01*
X117354208Y-73981571D01*
X117384500Y-73868520D01*
X117384500Y-73751480D01*
X117354208Y-73638429D01*
X117306618Y-73556000D01*
X118001999Y-73556000D01*
X118001999Y-73003210D01*
X118418000Y-73003210D01*
X118418000Y-73556000D01*
X119113382Y-73556000D01*
X119065792Y-73638429D01*
X119035500Y-73751480D01*
X119035500Y-73868520D01*
X119065792Y-73981571D01*
X119113382Y-74064000D01*
X118418001Y-74064000D01*
X118418001Y-74616792D01*
X118420908Y-74641868D01*
X118420910Y-74641874D01*
X118466213Y-74744478D01*
X118545521Y-74823786D01*
X118648124Y-74869089D01*
X118648123Y-74869089D01*
X118673210Y-74871999D01*
X119226000Y-74871999D01*
X119226000Y-74176618D01*
X119308429Y-74224208D01*
X119421480Y-74254500D01*
X119538520Y-74254500D01*
X119651571Y-74224208D01*
X119734000Y-74176618D01*
X119734000Y-74871999D01*
X120286792Y-74871999D01*
X120311868Y-74869091D01*
X120311874Y-74869089D01*
X120414478Y-74823786D01*
X120493786Y-74744478D01*
X120539089Y-74641875D01*
X120542000Y-74616789D01*
X120542000Y-74064000D01*
X119846618Y-74064000D01*
X119894208Y-73981571D01*
X119924500Y-73868520D01*
X119924500Y-73751480D01*
X119894208Y-73638429D01*
X119846618Y-73556000D01*
X120541999Y-73556000D01*
X120541999Y-73003207D01*
X120539091Y-72978131D01*
X120539089Y-72978125D01*
X120493786Y-72875521D01*
X120414478Y-72796213D01*
X120311875Y-72750910D01*
X120311876Y-72750910D01*
X120286789Y-72748000D01*
X119734000Y-72748000D01*
X119734000Y-73443381D01*
X119651571Y-73395792D01*
X119538520Y-73365500D01*
X119421480Y-73365500D01*
X119308429Y-73395792D01*
X119226000Y-73443381D01*
X119226000Y-72748000D01*
X118673207Y-72748000D01*
X118648131Y-72750908D01*
X118648125Y-72750910D01*
X118545521Y-72796213D01*
X118466213Y-72875521D01*
X118420910Y-72978124D01*
X118418000Y-73003210D01*
X118001999Y-73003210D01*
X118001999Y-73003207D01*
X117999091Y-72978131D01*
X117999089Y-72978125D01*
X117953786Y-72875521D01*
X117874478Y-72796213D01*
X117771875Y-72750910D01*
X117771876Y-72750910D01*
X117746789Y-72748000D01*
X117194000Y-72748000D01*
X117194000Y-73443381D01*
X117111571Y-73395792D01*
X116998520Y-73365500D01*
X116881480Y-73365500D01*
X116768429Y-73395792D01*
X116686000Y-73443381D01*
X116686000Y-72748000D01*
X116133207Y-72748000D01*
X116108131Y-72750908D01*
X116108125Y-72750910D01*
X116005521Y-72796213D01*
X115926213Y-72875521D01*
X115880910Y-72978124D01*
X115878000Y-73003210D01*
X114589040Y-73003210D01*
X114589040Y-71521812D01*
X114581383Y-71483318D01*
X114592432Y-71427771D01*
X114639524Y-71396305D01*
X114695073Y-71407354D01*
X114706287Y-71416557D01*
X115106244Y-71816514D01*
X115220976Y-71893175D01*
X115348459Y-71945980D01*
X115483793Y-71972900D01*
X115483794Y-71972900D01*
X115903500Y-71972900D01*
X115955826Y-71994574D01*
X115977500Y-72046900D01*
X115977500Y-72051748D01*
X115983205Y-72080427D01*
X115989133Y-72110232D01*
X116018608Y-72154343D01*
X116033448Y-72176552D01*
X116055165Y-72191063D01*
X116099767Y-72220866D01*
X116099768Y-72220866D01*
X116099769Y-72220867D01*
X116158252Y-72232500D01*
X116158254Y-72232500D01*
X117721746Y-72232500D01*
X117721748Y-72232500D01*
X117780231Y-72220867D01*
X117846552Y-72176552D01*
X117890867Y-72110231D01*
X117902500Y-72051748D01*
X117902500Y-72046900D01*
X117924174Y-71994574D01*
X117976500Y-71972900D01*
X118443500Y-71972900D01*
X118495826Y-71994574D01*
X118517500Y-72046900D01*
X118517500Y-72051748D01*
X118523205Y-72080427D01*
X118529133Y-72110232D01*
X118558608Y-72154343D01*
X118573448Y-72176552D01*
X118595165Y-72191063D01*
X118639767Y-72220866D01*
X118639768Y-72220866D01*
X118639769Y-72220867D01*
X118698252Y-72232500D01*
X118698254Y-72232500D01*
X120261746Y-72232500D01*
X120261748Y-72232500D01*
X120320231Y-72220867D01*
X120386552Y-72176552D01*
X120430867Y-72110231D01*
X120442500Y-72051748D01*
X120442500Y-70488252D01*
X120430867Y-70429769D01*
X120386552Y-70363448D01*
X120351978Y-70340346D01*
X120320232Y-70319133D01*
X120320233Y-70319133D01*
X120290989Y-70313316D01*
X120261748Y-70307500D01*
X118698252Y-70307500D01*
X118669010Y-70313316D01*
X118639767Y-70319133D01*
X118573449Y-70363447D01*
X118573447Y-70363449D01*
X118529133Y-70429767D01*
X118517500Y-70488253D01*
X118517500Y-70497900D01*
X118495826Y-70550226D01*
X118443500Y-70571900D01*
X117976500Y-70571900D01*
X117924174Y-70550226D01*
X117902500Y-70497900D01*
X117902500Y-70488253D01*
X117900201Y-70476696D01*
X117890867Y-70429769D01*
X117846552Y-70363448D01*
X117811978Y-70340346D01*
X117780232Y-70319133D01*
X117780233Y-70319133D01*
X117750989Y-70313316D01*
X117721748Y-70307500D01*
X116158252Y-70307500D01*
X116129010Y-70313316D01*
X116099767Y-70319133D01*
X116033449Y-70363447D01*
X116033447Y-70363449D01*
X115989133Y-70429767D01*
X115977500Y-70488253D01*
X115977500Y-70497900D01*
X115955826Y-70550226D01*
X115903500Y-70571900D01*
X115873596Y-70571900D01*
X115821270Y-70550226D01*
X114670909Y-69399865D01*
X114556177Y-69323204D01*
X114428699Y-69270401D01*
X114428689Y-69270398D01*
X114338062Y-69252371D01*
X114293361Y-69243480D01*
X114293360Y-69243480D01*
X113236153Y-69243480D01*
X110355114Y-69243480D01*
X110217126Y-69243480D01*
X110178760Y-69251111D01*
X110081797Y-69270398D01*
X110081787Y-69270401D01*
X109954309Y-69323204D01*
X109839577Y-69399865D01*
X109839576Y-69399867D01*
X108820057Y-70419386D01*
X108767731Y-70441060D01*
X108362930Y-70441060D01*
X108310604Y-70419386D01*
X108289785Y-70375370D01*
X108289749Y-70375378D01*
X108289720Y-70375232D01*
X108289287Y-70374317D01*
X108289040Y-70371816D01*
X108289040Y-70371812D01*
X108277407Y-70313329D01*
X108233092Y-70247008D01*
X108210883Y-70232168D01*
X108166772Y-70202693D01*
X108166773Y-70202693D01*
X108137529Y-70196876D01*
X108108288Y-70191060D01*
X108108286Y-70191060D01*
X107613040Y-70191060D01*
X107560714Y-70169386D01*
X107539040Y-70117060D01*
X107539040Y-69610040D01*
X107560714Y-69557714D01*
X107581639Y-69536789D01*
X107615208Y-69503220D01*
X107676399Y-69383126D01*
X107692180Y-69283488D01*
X107692180Y-68716512D01*
X107676399Y-68616874D01*
X107615208Y-68496780D01*
X107519900Y-68401472D01*
X107519899Y-68401471D01*
X107399806Y-68340281D01*
X107399805Y-68340280D01*
X107300169Y-68324500D01*
X107300168Y-68324500D01*
X106783192Y-68324500D01*
X106783191Y-68324500D01*
X106683554Y-68340280D01*
X106683553Y-68340281D01*
X106563460Y-68401471D01*
X106468151Y-68496780D01*
X106406961Y-68616873D01*
X106406960Y-68616874D01*
X106391180Y-68716511D01*
X106391180Y-69283488D01*
X106406960Y-69383125D01*
X106406961Y-69383126D01*
X106468152Y-69503220D01*
X106563460Y-69598528D01*
X106597634Y-69615940D01*
X106634418Y-69659006D01*
X106638040Y-69681875D01*
X106638040Y-70117060D01*
X106616366Y-70169386D01*
X106564040Y-70191060D01*
X106068792Y-70191060D01*
X106039550Y-70196876D01*
X106010307Y-70202693D01*
X105943989Y-70247007D01*
X105943987Y-70247009D01*
X105899673Y-70313327D01*
X105894299Y-70340346D01*
X105888040Y-70371812D01*
X105888040Y-71911308D01*
X105891233Y-71927358D01*
X105899673Y-71969792D01*
X105929148Y-72013903D01*
X105943988Y-72036112D01*
X105967386Y-72051746D01*
X106010307Y-72080426D01*
X106010308Y-72080426D01*
X106010309Y-72080427D01*
X106068792Y-72092060D01*
X106068794Y-72092060D01*
X108108286Y-72092060D01*
X108108288Y-72092060D01*
X108166771Y-72080427D01*
X108233092Y-72036112D01*
X108277407Y-71969791D01*
X108289040Y-71911308D01*
X108289040Y-71911303D01*
X108289287Y-71908803D01*
X108289686Y-71908055D01*
X108289749Y-71907742D01*
X108289844Y-71907760D01*
X108315988Y-71858855D01*
X108362930Y-71842060D01*
X109157532Y-71842060D01*
X109157534Y-71842060D01*
X109292868Y-71815140D01*
X109420351Y-71762335D01*
X109535083Y-71685674D01*
X110554603Y-70666154D01*
X110606929Y-70644480D01*
X113098167Y-70644480D01*
X113903558Y-70644480D01*
X113955884Y-70666154D01*
X114513542Y-71223812D01*
X114535216Y-71276138D01*
X114513542Y-71328464D01*
X114461216Y-71350138D01*
X114446780Y-71348716D01*
X114408288Y-71341060D01*
X112368792Y-71341060D01*
X112339550Y-71346876D01*
X112310307Y-71352693D01*
X112243989Y-71397007D01*
X112243987Y-71397009D01*
X112199673Y-71463327D01*
X112188040Y-71521813D01*
X112188040Y-72667060D01*
X112166366Y-72719386D01*
X112114040Y-72741060D01*
X108362930Y-72741060D01*
X108310604Y-72719386D01*
X108289785Y-72675370D01*
X108289749Y-72675378D01*
X108289720Y-72675232D01*
X108289287Y-72674317D01*
X108289040Y-72671816D01*
X108289040Y-72671812D01*
X108277407Y-72613329D01*
X108272430Y-72605881D01*
X108251737Y-72574912D01*
X108233092Y-72547008D01*
X108192370Y-72519798D01*
X108166772Y-72502693D01*
X108166773Y-72502693D01*
X108129488Y-72495277D01*
X108108288Y-72491060D01*
X106068792Y-72491060D01*
X106047592Y-72495277D01*
X106010307Y-72502693D01*
X105943989Y-72547007D01*
X105943987Y-72547009D01*
X105899673Y-72613327D01*
X105888039Y-72671816D01*
X105887793Y-72674317D01*
X105887393Y-72675064D01*
X105887331Y-72675378D01*
X105887235Y-72675359D01*
X105861092Y-72724265D01*
X105814150Y-72741060D01*
X104712900Y-72741060D01*
X104660574Y-72719386D01*
X104638900Y-72667060D01*
X104638900Y-71884893D01*
X104646965Y-71851300D01*
X104698119Y-71750906D01*
X104713900Y-71651268D01*
X104713900Y-71134292D01*
X104698119Y-71034654D01*
X104636928Y-70914560D01*
X104541620Y-70819252D01*
X104541619Y-70819251D01*
X104421526Y-70758061D01*
X104421525Y-70758060D01*
X104321889Y-70742280D01*
X104321888Y-70742280D01*
X103754912Y-70742280D01*
X103754911Y-70742280D01*
X103655274Y-70758060D01*
X103655273Y-70758061D01*
X103653011Y-70759214D01*
X103619416Y-70767280D01*
X103351447Y-70767280D01*
X103299121Y-70745606D01*
X102105060Y-69551545D01*
X102105058Y-69551542D01*
X101989036Y-69435520D01*
X101898286Y-69383126D01*
X101852106Y-69356463D01*
X101852101Y-69356461D01*
X101699379Y-69315539D01*
X101699377Y-69315539D01*
X101541263Y-69315539D01*
X101536733Y-69315539D01*
X101536717Y-69315540D01*
X97064920Y-69315540D01*
X96912198Y-69356461D01*
X96912193Y-69356463D01*
X96866014Y-69383126D01*
X96775263Y-69435520D01*
X96663458Y-69547326D01*
X95870439Y-70340346D01*
X95818113Y-70362020D01*
X95724500Y-70362020D01*
X95672174Y-70340346D01*
X95650500Y-70288020D01*
X95650500Y-70192773D01*
X95645848Y-70169386D01*
X95638867Y-70134289D01*
X95594552Y-70067968D01*
X95572343Y-70053128D01*
X95528232Y-70023653D01*
X95528233Y-70023653D01*
X95498989Y-70017836D01*
X95469748Y-70012020D01*
X93430252Y-70012020D01*
X93401010Y-70017836D01*
X93371767Y-70023653D01*
X93305449Y-70067967D01*
X93305447Y-70067969D01*
X93261133Y-70134287D01*
X93249500Y-70192773D01*
X93249500Y-70443100D01*
X93227826Y-70495426D01*
X93175500Y-70517100D01*
X92759138Y-70517100D01*
X92706812Y-70495426D01*
X92693204Y-70476696D01*
X92686929Y-70464381D01*
X92591619Y-70369071D01*
X92471526Y-70307881D01*
X92471525Y-70307880D01*
X92371889Y-70292100D01*
X92371888Y-70292100D01*
X91854912Y-70292100D01*
X91854911Y-70292100D01*
X91755274Y-70307880D01*
X91755273Y-70307881D01*
X91635180Y-70369071D01*
X91539871Y-70464380D01*
X91478681Y-70584473D01*
X91478680Y-70584474D01*
X91462900Y-70684111D01*
X91462900Y-71251089D01*
X91463689Y-71256074D01*
X91450463Y-71311145D01*
X91442925Y-71319970D01*
X91135071Y-71627826D01*
X91082745Y-71649500D01*
X89440689Y-71649500D01*
X89350326Y-71673713D01*
X89336345Y-71677459D01*
X89326111Y-71680201D01*
X89223389Y-71739508D01*
X87350788Y-73612109D01*
X87291481Y-73714832D01*
X87288960Y-73724243D01*
X87288959Y-73724242D01*
X87288959Y-73724245D01*
X87260780Y-73829408D01*
X87260780Y-81771463D01*
X87239106Y-81823789D01*
X86763826Y-82299069D01*
X86711500Y-82320743D01*
X86659174Y-82299069D01*
X86637500Y-82246743D01*
X86637500Y-80828253D01*
X86637500Y-80828252D01*
X86625867Y-80769769D01*
X86581552Y-80703448D01*
X86559150Y-80688479D01*
X86515232Y-80659133D01*
X86515233Y-80659133D01*
X86485989Y-80653316D01*
X86456748Y-80647500D01*
X84893252Y-80647500D01*
X84864010Y-80653316D01*
X84834767Y-80659133D01*
X84768449Y-80703447D01*
X84768447Y-80703449D01*
X84724133Y-80769767D01*
X84712500Y-80828253D01*
X60044500Y-80828253D01*
X60044500Y-78263210D01*
X84613000Y-78263210D01*
X84613000Y-78816000D01*
X85308382Y-78816000D01*
X85260792Y-78898429D01*
X85230500Y-79011480D01*
X85230500Y-79128520D01*
X85260792Y-79241571D01*
X85308382Y-79324000D01*
X84613001Y-79324000D01*
X84613001Y-79876792D01*
X84615908Y-79901868D01*
X84615910Y-79901874D01*
X84661213Y-80004478D01*
X84740521Y-80083786D01*
X84843124Y-80129089D01*
X84843123Y-80129089D01*
X84868210Y-80131999D01*
X85421000Y-80131999D01*
X85421000Y-79436618D01*
X85503429Y-79484208D01*
X85616480Y-79514500D01*
X85733520Y-79514500D01*
X85846571Y-79484208D01*
X85929000Y-79436618D01*
X85929000Y-80131999D01*
X86481792Y-80131999D01*
X86506868Y-80129091D01*
X86506874Y-80129089D01*
X86609478Y-80083786D01*
X86688786Y-80004478D01*
X86734089Y-79901875D01*
X86737000Y-79876789D01*
X86737000Y-79324000D01*
X86041618Y-79324000D01*
X86089208Y-79241571D01*
X86119500Y-79128520D01*
X86119500Y-79011480D01*
X86089208Y-78898429D01*
X86041618Y-78816000D01*
X86736999Y-78816000D01*
X86736999Y-78263207D01*
X86734091Y-78238131D01*
X86734089Y-78238125D01*
X86688786Y-78135521D01*
X86609478Y-78056213D01*
X86506875Y-78010910D01*
X86506876Y-78010910D01*
X86481789Y-78008000D01*
X85929000Y-78008000D01*
X85929000Y-78703381D01*
X85846571Y-78655792D01*
X85733520Y-78625500D01*
X85616480Y-78625500D01*
X85503429Y-78655792D01*
X85421000Y-78703381D01*
X85421000Y-78008000D01*
X84868207Y-78008000D01*
X84843131Y-78010908D01*
X84843125Y-78010910D01*
X84740521Y-78056213D01*
X84661213Y-78135521D01*
X84615910Y-78238124D01*
X84613000Y-78263210D01*
X60044500Y-78263210D01*
X60044500Y-72021842D01*
X70004500Y-72021842D01*
X70004500Y-72250157D01*
X70040215Y-72475657D01*
X70040218Y-72475670D01*
X70110766Y-72692793D01*
X70214420Y-72896227D01*
X70305685Y-73021842D01*
X70348621Y-73080937D01*
X70510063Y-73242379D01*
X70694772Y-73376579D01*
X70898201Y-73480231D01*
X70898203Y-73480231D01*
X70898206Y-73480233D01*
X71115329Y-73550781D01*
X71115335Y-73550782D01*
X71115340Y-73550784D01*
X71265675Y-73574594D01*
X71340842Y-73586500D01*
X71340843Y-73586500D01*
X71569158Y-73586500D01*
X71625532Y-73577571D01*
X71794660Y-73550784D01*
X71794667Y-73550781D01*
X71794670Y-73550781D01*
X72011793Y-73480233D01*
X72011793Y-73480232D01*
X72011799Y-73480231D01*
X72215228Y-73376579D01*
X72399937Y-73242379D01*
X72561379Y-73080937D01*
X72604314Y-73021842D01*
X82834500Y-73021842D01*
X82834500Y-73250157D01*
X82870215Y-73475657D01*
X82870218Y-73475670D01*
X82940766Y-73692793D01*
X83044420Y-73896227D01*
X83161122Y-74056853D01*
X83178621Y-74080937D01*
X83340063Y-74242379D01*
X83524772Y-74376579D01*
X83728201Y-74480231D01*
X83728203Y-74480231D01*
X83728206Y-74480233D01*
X83945329Y-74550781D01*
X83945335Y-74550782D01*
X83945340Y-74550784D01*
X84095675Y-74574594D01*
X84170842Y-74586500D01*
X84170843Y-74586500D01*
X84399158Y-74586500D01*
X84455532Y-74577571D01*
X84624660Y-74550784D01*
X84624667Y-74550781D01*
X84624670Y-74550781D01*
X84841793Y-74480233D01*
X84841793Y-74480232D01*
X84841799Y-74480231D01*
X85045228Y-74376579D01*
X85229937Y-74242379D01*
X85391379Y-74080937D01*
X85525579Y-73896228D01*
X85629231Y-73692799D01*
X85699784Y-73475660D01*
X85735500Y-73250157D01*
X85735500Y-73021843D01*
X85731660Y-72997601D01*
X85702267Y-72812020D01*
X85699784Y-72796340D01*
X85699782Y-72796335D01*
X85699781Y-72796329D01*
X85629233Y-72579206D01*
X85629231Y-72579203D01*
X85629231Y-72579201D01*
X85525579Y-72375772D01*
X85479260Y-72312020D01*
X85391382Y-72191067D01*
X85391381Y-72191066D01*
X85391379Y-72191063D01*
X85229937Y-72029621D01*
X85229934Y-72029618D01*
X85229932Y-72029617D01*
X85045227Y-71895420D01*
X84850770Y-71796340D01*
X84841799Y-71791769D01*
X84841798Y-71791768D01*
X84841793Y-71791766D01*
X84624670Y-71721218D01*
X84624657Y-71721215D01*
X84399158Y-71685500D01*
X84399157Y-71685500D01*
X84170843Y-71685500D01*
X84170842Y-71685500D01*
X83945342Y-71721215D01*
X83945329Y-71721218D01*
X83728206Y-71791766D01*
X83524772Y-71895420D01*
X83340067Y-72029617D01*
X83178617Y-72191067D01*
X83044420Y-72375772D01*
X82940766Y-72579206D01*
X82870218Y-72796329D01*
X82870215Y-72796342D01*
X82834500Y-73021842D01*
X72604314Y-73021842D01*
X72695579Y-72896228D01*
X72799231Y-72692799D01*
X72799456Y-72692106D01*
X72869781Y-72475670D01*
X72869781Y-72475667D01*
X72869784Y-72475660D01*
X72905500Y-72250157D01*
X72905500Y-72021843D01*
X72901181Y-71994574D01*
X72897839Y-71973470D01*
X72896581Y-71965529D01*
X74469500Y-71965529D01*
X74469500Y-72306470D01*
X74496994Y-72444697D01*
X74496996Y-72444704D01*
X74549999Y-72572665D01*
X74550932Y-72574916D01*
X74590848Y-72634654D01*
X74629231Y-72692100D01*
X74629235Y-72692105D01*
X74728895Y-72791765D01*
X74846084Y-72870068D01*
X74976296Y-72924004D01*
X75114529Y-72951500D01*
X75114530Y-72951500D01*
X75255470Y-72951500D01*
X75255471Y-72951500D01*
X75393704Y-72924004D01*
X75523916Y-72870068D01*
X75641105Y-72791765D01*
X75740765Y-72692105D01*
X75758471Y-72665605D01*
X75805562Y-72634139D01*
X75861111Y-72645188D01*
X75881529Y-72665606D01*
X75899231Y-72692100D01*
X75899234Y-72692103D01*
X75899235Y-72692105D01*
X75998895Y-72791765D01*
X76116084Y-72870068D01*
X76246296Y-72924004D01*
X76384529Y-72951500D01*
X76384530Y-72951500D01*
X76525470Y-72951500D01*
X76525471Y-72951500D01*
X76663704Y-72924004D01*
X76793916Y-72870068D01*
X76911105Y-72791765D01*
X77010765Y-72692105D01*
X77089068Y-72574916D01*
X77143004Y-72444704D01*
X77170500Y-72306471D01*
X77170500Y-71965529D01*
X78279500Y-71965529D01*
X78279500Y-72306470D01*
X78306994Y-72444697D01*
X78306996Y-72444704D01*
X78359999Y-72572665D01*
X78360932Y-72574916D01*
X78400848Y-72634654D01*
X78439231Y-72692100D01*
X78439235Y-72692105D01*
X78538895Y-72791765D01*
X78656084Y-72870068D01*
X78786296Y-72924004D01*
X78924529Y-72951500D01*
X78924530Y-72951500D01*
X79065470Y-72951500D01*
X79065471Y-72951500D01*
X79203704Y-72924004D01*
X79333916Y-72870068D01*
X79451105Y-72791765D01*
X79550765Y-72692105D01*
X79568471Y-72665605D01*
X79615562Y-72634139D01*
X79671111Y-72645188D01*
X79691529Y-72665606D01*
X79709231Y-72692100D01*
X79709234Y-72692103D01*
X79709235Y-72692105D01*
X79808895Y-72791765D01*
X79926084Y-72870068D01*
X80056296Y-72924004D01*
X80194529Y-72951500D01*
X80194530Y-72951500D01*
X80335471Y-72951500D01*
X80361322Y-72946358D01*
X80370824Y-72944467D01*
X80473704Y-72924004D01*
X80603916Y-72870068D01*
X80721105Y-72791765D01*
X80820765Y-72692105D01*
X80899068Y-72574916D01*
X80953004Y-72444704D01*
X80980500Y-72306471D01*
X80980500Y-71965529D01*
X80953004Y-71827296D01*
X80899068Y-71697084D01*
X80820765Y-71579895D01*
X80721105Y-71480235D01*
X80707014Y-71470820D01*
X80682392Y-71454368D01*
X80603916Y-71401932D01*
X80603913Y-71401930D01*
X80603912Y-71401930D01*
X80473704Y-71347996D01*
X80473697Y-71347994D01*
X80358798Y-71325140D01*
X80335471Y-71320500D01*
X80194529Y-71320500D01*
X80171202Y-71325140D01*
X80056302Y-71347994D01*
X80056295Y-71347996D01*
X79926087Y-71401930D01*
X79808895Y-71480234D01*
X79808894Y-71480236D01*
X79709236Y-71579894D01*
X79709234Y-71579895D01*
X79691529Y-71606394D01*
X79644437Y-71637860D01*
X79588888Y-71626811D01*
X79568471Y-71606394D01*
X79550765Y-71579895D01*
X79451104Y-71480234D01*
X79412392Y-71454368D01*
X79333916Y-71401932D01*
X79333913Y-71401930D01*
X79333912Y-71401930D01*
X79203704Y-71347996D01*
X79203697Y-71347994D01*
X79088798Y-71325140D01*
X79065471Y-71320500D01*
X78924529Y-71320500D01*
X78901202Y-71325140D01*
X78786302Y-71347994D01*
X78786295Y-71347996D01*
X78656087Y-71401930D01*
X78538895Y-71480234D01*
X78538894Y-71480236D01*
X78439236Y-71579894D01*
X78439234Y-71579895D01*
X78360930Y-71697087D01*
X78306996Y-71827295D01*
X78306994Y-71827302D01*
X78279500Y-71965529D01*
X77170500Y-71965529D01*
X77143004Y-71827296D01*
X77089068Y-71697084D01*
X77010765Y-71579895D01*
X76911105Y-71480235D01*
X76897014Y-71470820D01*
X76872392Y-71454368D01*
X76793916Y-71401932D01*
X76793913Y-71401930D01*
X76793912Y-71401930D01*
X76663704Y-71347996D01*
X76663697Y-71347994D01*
X76548798Y-71325140D01*
X76525471Y-71320500D01*
X76384529Y-71320500D01*
X76361202Y-71325140D01*
X76246302Y-71347994D01*
X76246295Y-71347996D01*
X76116087Y-71401930D01*
X75998895Y-71480234D01*
X75998894Y-71480236D01*
X75899236Y-71579894D01*
X75899234Y-71579895D01*
X75881529Y-71606394D01*
X75834437Y-71637860D01*
X75778888Y-71626811D01*
X75758471Y-71606394D01*
X75740765Y-71579895D01*
X75641104Y-71480234D01*
X75602392Y-71454368D01*
X75523916Y-71401932D01*
X75523913Y-71401930D01*
X75523912Y-71401930D01*
X75393704Y-71347996D01*
X75393697Y-71347994D01*
X75278798Y-71325140D01*
X75255471Y-71320500D01*
X75114529Y-71320500D01*
X75091202Y-71325140D01*
X74976302Y-71347994D01*
X74976295Y-71347996D01*
X74846087Y-71401930D01*
X74728895Y-71480234D01*
X74728894Y-71480236D01*
X74629236Y-71579894D01*
X74629234Y-71579895D01*
X74550930Y-71697087D01*
X74496996Y-71827295D01*
X74496994Y-71827302D01*
X74469500Y-71965529D01*
X72896581Y-71965529D01*
X72872762Y-71815141D01*
X72869784Y-71796340D01*
X72869782Y-71796335D01*
X72869781Y-71796329D01*
X72799233Y-71579206D01*
X72799231Y-71579203D01*
X72799231Y-71579201D01*
X72695579Y-71375772D01*
X72561379Y-71191063D01*
X72399937Y-71029621D01*
X72399934Y-71029618D01*
X72399932Y-71029617D01*
X72262790Y-70929977D01*
X72215227Y-70895420D01*
X72011793Y-70791766D01*
X71794670Y-70721218D01*
X71794657Y-70721215D01*
X71569158Y-70685500D01*
X71569157Y-70685500D01*
X71340843Y-70685500D01*
X71340842Y-70685500D01*
X71115342Y-70721215D01*
X71115329Y-70721218D01*
X70898206Y-70791766D01*
X70694772Y-70895420D01*
X70510067Y-71029617D01*
X70348617Y-71191067D01*
X70214420Y-71375772D01*
X70110766Y-71579206D01*
X70040218Y-71796329D01*
X70040215Y-71796342D01*
X70004500Y-72021842D01*
X60044500Y-72021842D01*
X60044500Y-70381999D01*
X73078980Y-70381999D01*
X73078980Y-70382000D01*
X73645740Y-70382000D01*
X73618926Y-70408814D01*
X73570215Y-70493185D01*
X73545000Y-70587289D01*
X73545000Y-70684711D01*
X73570215Y-70778815D01*
X73618926Y-70863186D01*
X73645740Y-70890000D01*
X73078980Y-70890000D01*
X73097663Y-70983930D01*
X73097665Y-70983936D01*
X73161740Y-71138626D01*
X73254761Y-71277843D01*
X73373156Y-71396238D01*
X73512373Y-71489259D01*
X73660999Y-71550823D01*
X73661000Y-71550823D01*
X73661000Y-70905260D01*
X73687814Y-70932074D01*
X73772185Y-70980785D01*
X73866289Y-71006000D01*
X73963711Y-71006000D01*
X74057815Y-70980785D01*
X74142186Y-70932074D01*
X74169000Y-70905260D01*
X74169000Y-71550823D01*
X74317626Y-71489259D01*
X74456843Y-71396238D01*
X74456845Y-71396237D01*
X74575237Y-71277845D01*
X74575238Y-71277843D01*
X74668259Y-71138626D01*
X74732334Y-70983936D01*
X74732336Y-70983930D01*
X74751019Y-70890000D01*
X74184260Y-70890000D01*
X74211074Y-70863186D01*
X74259785Y-70778815D01*
X74285000Y-70684711D01*
X74285000Y-70587289D01*
X74259785Y-70493185D01*
X74211074Y-70408814D01*
X74184260Y-70382000D01*
X74751020Y-70382000D01*
X74751019Y-70381999D01*
X76888980Y-70381999D01*
X76888980Y-70382000D01*
X77455740Y-70382000D01*
X77428926Y-70408814D01*
X77380215Y-70493185D01*
X77355000Y-70587289D01*
X77355000Y-70684711D01*
X77380215Y-70778815D01*
X77428926Y-70863186D01*
X77455740Y-70890000D01*
X76888980Y-70890000D01*
X76907663Y-70983930D01*
X76907665Y-70983936D01*
X76971740Y-71138626D01*
X77064761Y-71277843D01*
X77183156Y-71396238D01*
X77322373Y-71489259D01*
X77471000Y-71550823D01*
X77471000Y-70905260D01*
X77497814Y-70932074D01*
X77582185Y-70980785D01*
X77676289Y-71006000D01*
X77773711Y-71006000D01*
X77867815Y-70980785D01*
X77952186Y-70932074D01*
X77979000Y-70905260D01*
X77979000Y-71550823D01*
X78127626Y-71489259D01*
X78266843Y-71396238D01*
X78266845Y-71396237D01*
X78385237Y-71277845D01*
X78385238Y-71277843D01*
X78478259Y-71138626D01*
X78542334Y-70983936D01*
X78542336Y-70983930D01*
X78561019Y-70890000D01*
X77994260Y-70890000D01*
X78021074Y-70863186D01*
X78069785Y-70778815D01*
X78095000Y-70684711D01*
X78095000Y-70587289D01*
X78069785Y-70493185D01*
X78021074Y-70408814D01*
X77994260Y-70382000D01*
X78561020Y-70382000D01*
X78561019Y-70381999D01*
X80698980Y-70381999D01*
X80698980Y-70382000D01*
X81265740Y-70382000D01*
X81238926Y-70408814D01*
X81190215Y-70493185D01*
X81165000Y-70587289D01*
X81165000Y-70684711D01*
X81190215Y-70778815D01*
X81238926Y-70863186D01*
X81265740Y-70890000D01*
X80698980Y-70890000D01*
X80717663Y-70983930D01*
X80717665Y-70983936D01*
X80781740Y-71138626D01*
X80874761Y-71277843D01*
X80993156Y-71396238D01*
X81132373Y-71489259D01*
X81280999Y-71550823D01*
X81281000Y-71550823D01*
X81281000Y-70905260D01*
X81307814Y-70932074D01*
X81392185Y-70980785D01*
X81486289Y-71006000D01*
X81583711Y-71006000D01*
X81677815Y-70980785D01*
X81762186Y-70932074D01*
X81789000Y-70905260D01*
X81789000Y-71550823D01*
X81937626Y-71489259D01*
X82076843Y-71396238D01*
X82076845Y-71396237D01*
X82195237Y-71277845D01*
X82195238Y-71277843D01*
X82288259Y-71138626D01*
X82352334Y-70983936D01*
X82352336Y-70983930D01*
X82371019Y-70890000D01*
X81804260Y-70890000D01*
X81831074Y-70863186D01*
X81879785Y-70778815D01*
X81905000Y-70684711D01*
X81905000Y-70587289D01*
X81879785Y-70493185D01*
X81831074Y-70408814D01*
X81804260Y-70382000D01*
X82371020Y-70382000D01*
X82371019Y-70381999D01*
X82352336Y-70288069D01*
X82352334Y-70288063D01*
X82288259Y-70133373D01*
X82195238Y-69994156D01*
X82076843Y-69875761D01*
X81937621Y-69782737D01*
X81789000Y-69721175D01*
X81789000Y-70366740D01*
X81762186Y-70339926D01*
X81677815Y-70291215D01*
X81583711Y-70266000D01*
X81486289Y-70266000D01*
X81392185Y-70291215D01*
X81307814Y-70339926D01*
X81281000Y-70366740D01*
X81281000Y-69721176D01*
X81280999Y-69721175D01*
X81132378Y-69782737D01*
X80993156Y-69875761D01*
X80993155Y-69875763D01*
X80874763Y-69994155D01*
X80874761Y-69994156D01*
X80781740Y-70133373D01*
X80717665Y-70288063D01*
X80717663Y-70288069D01*
X80698980Y-70381999D01*
X78561019Y-70381999D01*
X78542336Y-70288069D01*
X78542334Y-70288063D01*
X78478259Y-70133373D01*
X78385238Y-69994156D01*
X78266843Y-69875761D01*
X78127621Y-69782737D01*
X77979000Y-69721175D01*
X77979000Y-70366740D01*
X77952186Y-70339926D01*
X77867815Y-70291215D01*
X77773711Y-70266000D01*
X77676289Y-70266000D01*
X77582185Y-70291215D01*
X77497814Y-70339926D01*
X77471000Y-70366740D01*
X77471000Y-69721176D01*
X77470999Y-69721175D01*
X77322378Y-69782737D01*
X77183156Y-69875761D01*
X77183155Y-69875763D01*
X77064763Y-69994155D01*
X77064761Y-69994156D01*
X76971740Y-70133373D01*
X76907665Y-70288063D01*
X76907663Y-70288069D01*
X76888980Y-70381999D01*
X74751019Y-70381999D01*
X74732336Y-70288069D01*
X74732334Y-70288063D01*
X74668259Y-70133373D01*
X74575238Y-69994156D01*
X74456843Y-69875761D01*
X74317621Y-69782737D01*
X74169000Y-69721175D01*
X74169000Y-70366740D01*
X74142186Y-70339926D01*
X74057815Y-70291215D01*
X73963711Y-70266000D01*
X73866289Y-70266000D01*
X73772185Y-70291215D01*
X73687814Y-70339926D01*
X73661000Y-70366740D01*
X73661000Y-69721176D01*
X73660999Y-69721175D01*
X73512378Y-69782737D01*
X73373156Y-69875761D01*
X73373155Y-69875763D01*
X73254763Y-69994155D01*
X73254761Y-69994156D01*
X73161740Y-70133373D01*
X73097665Y-70288063D01*
X73097663Y-70288069D01*
X73078980Y-70381999D01*
X60044500Y-70381999D01*
X60044500Y-67923210D01*
X115878000Y-67923210D01*
X115878000Y-68476000D01*
X116573382Y-68476000D01*
X116525792Y-68558429D01*
X116495500Y-68671480D01*
X116495500Y-68788520D01*
X116525792Y-68901571D01*
X116573382Y-68984000D01*
X115878001Y-68984000D01*
X115878001Y-69536792D01*
X115880908Y-69561868D01*
X115880910Y-69561874D01*
X115926213Y-69664478D01*
X116005521Y-69743786D01*
X116108124Y-69789089D01*
X116108123Y-69789089D01*
X116133210Y-69791999D01*
X116686000Y-69791999D01*
X116686000Y-69096618D01*
X116768429Y-69144208D01*
X116881480Y-69174500D01*
X116998520Y-69174500D01*
X117111571Y-69144208D01*
X117194000Y-69096618D01*
X117194000Y-69791999D01*
X117746792Y-69791999D01*
X117771868Y-69789091D01*
X117771874Y-69789089D01*
X117874478Y-69743786D01*
X117953786Y-69664478D01*
X117999089Y-69561875D01*
X118002000Y-69536789D01*
X118002000Y-68984000D01*
X117306618Y-68984000D01*
X117354208Y-68901571D01*
X117384500Y-68788520D01*
X117384500Y-68671480D01*
X117354208Y-68558429D01*
X117306618Y-68476000D01*
X118001999Y-68476000D01*
X118001999Y-67923210D01*
X118418000Y-67923210D01*
X118418000Y-68476000D01*
X119113382Y-68476000D01*
X119065792Y-68558429D01*
X119035500Y-68671480D01*
X119035500Y-68788520D01*
X119065792Y-68901571D01*
X119113382Y-68984000D01*
X118418001Y-68984000D01*
X118418001Y-69536792D01*
X118420908Y-69561868D01*
X118420910Y-69561874D01*
X118466213Y-69664478D01*
X118545521Y-69743786D01*
X118648124Y-69789089D01*
X118648123Y-69789089D01*
X118673210Y-69791999D01*
X119226000Y-69791999D01*
X119226000Y-69096618D01*
X119308429Y-69144208D01*
X119421480Y-69174500D01*
X119538520Y-69174500D01*
X119651571Y-69144208D01*
X119734000Y-69096618D01*
X119734000Y-69791999D01*
X120286792Y-69791999D01*
X120311868Y-69789091D01*
X120311874Y-69789089D01*
X120414478Y-69743786D01*
X120493786Y-69664478D01*
X120539089Y-69561875D01*
X120542000Y-69536789D01*
X120542000Y-68984000D01*
X119846618Y-68984000D01*
X119894208Y-68901571D01*
X119924500Y-68788520D01*
X119924500Y-68671480D01*
X119894208Y-68558429D01*
X119846618Y-68476000D01*
X120541999Y-68476000D01*
X120541999Y-67923207D01*
X120539091Y-67898131D01*
X120539089Y-67898125D01*
X120493786Y-67795521D01*
X120414478Y-67716213D01*
X120311875Y-67670910D01*
X120311876Y-67670910D01*
X120286789Y-67668000D01*
X119734000Y-67668000D01*
X119734000Y-68363381D01*
X119651571Y-68315792D01*
X119538520Y-68285500D01*
X119421480Y-68285500D01*
X119308429Y-68315792D01*
X119226000Y-68363381D01*
X119226000Y-67668000D01*
X118673207Y-67668000D01*
X118648131Y-67670908D01*
X118648125Y-67670910D01*
X118545521Y-67716213D01*
X118466213Y-67795521D01*
X118420910Y-67898124D01*
X118418000Y-67923210D01*
X118001999Y-67923210D01*
X118001999Y-67923207D01*
X117999091Y-67898131D01*
X117999089Y-67898125D01*
X117953786Y-67795521D01*
X117874478Y-67716213D01*
X117771875Y-67670910D01*
X117771876Y-67670910D01*
X117746789Y-67668000D01*
X117194000Y-67668000D01*
X117194000Y-68363381D01*
X117111571Y-68315792D01*
X116998520Y-68285500D01*
X116881480Y-68285500D01*
X116768429Y-68315792D01*
X116686000Y-68363381D01*
X116686000Y-67668000D01*
X116133207Y-67668000D01*
X116108131Y-67670908D01*
X116108125Y-67670910D01*
X116005521Y-67716213D01*
X115926213Y-67795521D01*
X115880910Y-67898124D01*
X115878000Y-67923210D01*
X60044500Y-67923210D01*
X60044500Y-66468500D01*
X60066174Y-66416174D01*
X60118500Y-66394500D01*
X130381500Y-66394500D01*
X130433826Y-66416174D01*
G37*
%TD.AperFunction*%
%TD*%
%TA.AperFunction,Conductor*%
%TO.N,Net-(C23-Pad2)*%
G36*
X127939490Y-97180000D02*
G01*
X127927619Y-97180000D01*
X127825886Y-97207259D01*
X127734674Y-97259920D01*
X127660200Y-97334394D01*
X127607539Y-97425606D01*
X127580280Y-97527339D01*
X127580280Y-97539209D01*
X126910596Y-96869525D01*
X126910595Y-96869525D01*
X126882956Y-96907567D01*
X126791281Y-97087491D01*
X126791278Y-97087499D01*
X126728872Y-97279561D01*
X126697280Y-97479029D01*
X126697280Y-97680970D01*
X126728872Y-97880438D01*
X126791278Y-98072500D01*
X126791279Y-98072502D01*
X126882960Y-98252437D01*
X126910595Y-98290473D01*
X127580280Y-97620788D01*
X127580280Y-97632661D01*
X127607539Y-97734394D01*
X127660200Y-97825606D01*
X127734674Y-97900080D01*
X127825886Y-97952741D01*
X127927619Y-97980000D01*
X127939489Y-97980000D01*
X127324490Y-98594999D01*
X127324490Y-98595001D01*
X127939489Y-99210000D01*
X127927619Y-99210000D01*
X127825886Y-99237259D01*
X127734674Y-99289920D01*
X127660200Y-99364394D01*
X127607539Y-99455606D01*
X127580280Y-99557339D01*
X127580280Y-99569209D01*
X126910596Y-98899525D01*
X126910595Y-98899525D01*
X126882956Y-98937567D01*
X126791281Y-99117491D01*
X126791278Y-99117499D01*
X126728872Y-99309561D01*
X126697280Y-99509029D01*
X126697280Y-99710970D01*
X126728872Y-99910438D01*
X126791278Y-100102500D01*
X126791279Y-100102502D01*
X126882960Y-100282437D01*
X126910595Y-100320473D01*
X127580280Y-99650788D01*
X127580280Y-99662661D01*
X127607539Y-99764394D01*
X127660200Y-99855606D01*
X127734674Y-99930080D01*
X127825886Y-99982741D01*
X127927619Y-100010000D01*
X127939490Y-100010000D01*
X127269805Y-100679683D01*
X127270508Y-100688615D01*
X127255912Y-100758095D01*
X127206069Y-100808654D01*
X127144896Y-100824500D01*
X127003897Y-100824500D01*
X126854074Y-100854302D01*
X126854069Y-100854304D01*
X126712943Y-100912761D01*
X126585928Y-100997629D01*
X126585922Y-100997634D01*
X126477914Y-101105642D01*
X126477909Y-101105648D01*
X126393041Y-101232663D01*
X126334584Y-101373789D01*
X126334582Y-101373794D01*
X126304780Y-101523617D01*
X126304780Y-101523620D01*
X126304780Y-101676380D01*
X126334582Y-101826205D01*
X126393041Y-101967337D01*
X126449748Y-102052205D01*
X126477909Y-102094351D01*
X126477914Y-102094357D01*
X126585922Y-102202365D01*
X126585928Y-102202370D01*
X126712943Y-102287239D01*
X126854075Y-102345698D01*
X127003900Y-102375500D01*
X127003901Y-102375500D01*
X127145683Y-102375500D01*
X127213804Y-102395502D01*
X127260297Y-102449158D01*
X127271295Y-102511386D01*
X127269805Y-102530316D01*
X127939489Y-103200000D01*
X127927619Y-103200000D01*
X127825886Y-103227259D01*
X127734674Y-103279920D01*
X127660200Y-103354394D01*
X127607539Y-103445606D01*
X127580280Y-103547339D01*
X127580280Y-103559209D01*
X126910596Y-102889525D01*
X126910595Y-102889525D01*
X126882956Y-102927567D01*
X126791281Y-103107491D01*
X126791278Y-103107499D01*
X126728872Y-103299561D01*
X126707043Y-103437388D01*
X126676630Y-103501541D01*
X126616362Y-103539068D01*
X126545373Y-103538054D01*
X126493499Y-103506772D01*
X126110727Y-103124000D01*
X126110726Y-103124000D01*
X112394726Y-103124000D01*
X112394724Y-103124000D01*
X111759726Y-103758998D01*
X111759726Y-105684343D01*
X111741149Y-105747610D01*
X111741969Y-105748049D01*
X111739864Y-105751986D01*
X111739724Y-105752464D01*
X111739100Y-105753414D01*
X111739052Y-105753505D01*
X111672454Y-105914287D01*
X111672452Y-105914292D01*
X111638500Y-106084980D01*
X111638500Y-106259019D01*
X111672452Y-106429707D01*
X111672454Y-106429712D01*
X111739055Y-106590502D01*
X111741971Y-106595957D01*
X111740677Y-106596648D01*
X111759706Y-106657390D01*
X111759726Y-106659656D01*
X111759726Y-109802810D01*
X111739724Y-109870931D01*
X111722821Y-109891905D01*
X111587131Y-110027595D01*
X111524819Y-110061621D01*
X111498036Y-110064500D01*
X110953120Y-110064500D01*
X110852666Y-110074763D01*
X110768644Y-110102605D01*
X110729012Y-110109000D01*
X109398916Y-110109000D01*
X109330795Y-110088998D01*
X109309821Y-110072095D01*
X109129631Y-109891905D01*
X109095605Y-109829593D01*
X109092726Y-109802810D01*
X109092726Y-108753558D01*
X109092726Y-108568342D01*
X109110446Y-108550622D01*
X109110449Y-108550619D01*
X109780280Y-107880788D01*
X109780280Y-107892661D01*
X109807539Y-107994394D01*
X109860200Y-108085606D01*
X109934674Y-108160080D01*
X110025886Y-108212741D01*
X110127619Y-108240000D01*
X110139490Y-108240000D01*
X109469805Y-108909683D01*
X109469805Y-108909684D01*
X109507837Y-108937317D01*
X109687777Y-109029000D01*
X109687779Y-109029001D01*
X109879841Y-109091407D01*
X110079309Y-109123000D01*
X110281251Y-109123000D01*
X110480718Y-109091407D01*
X110672780Y-109029001D01*
X110672782Y-109029000D01*
X110852717Y-108937319D01*
X110890753Y-108909683D01*
X110221070Y-108240000D01*
X110232941Y-108240000D01*
X110334674Y-108212741D01*
X110425886Y-108160080D01*
X110500360Y-108085606D01*
X110553021Y-107994394D01*
X110580280Y-107892661D01*
X110580280Y-107880789D01*
X111249963Y-108550472D01*
X111277599Y-108512437D01*
X111369280Y-108332502D01*
X111369281Y-108332500D01*
X111431687Y-108140438D01*
X111463280Y-107940970D01*
X111463280Y-107739029D01*
X111431687Y-107539561D01*
X111369281Y-107347499D01*
X111369280Y-107347497D01*
X111277597Y-107167557D01*
X111249964Y-107129525D01*
X111249963Y-107129525D01*
X110580280Y-107799208D01*
X110580280Y-107787339D01*
X110553021Y-107685606D01*
X110500360Y-107594394D01*
X110425886Y-107519920D01*
X110334674Y-107467259D01*
X110232941Y-107440000D01*
X110221070Y-107440000D01*
X110890753Y-106770315D01*
X110852717Y-106742680D01*
X110672782Y-106650999D01*
X110672780Y-106650998D01*
X110480718Y-106588592D01*
X110281251Y-106557000D01*
X110079309Y-106557000D01*
X109879841Y-106588592D01*
X109687779Y-106650998D01*
X109687771Y-106651001D01*
X109507847Y-106742676D01*
X109469805Y-106770315D01*
X109469805Y-106770316D01*
X110139489Y-107440000D01*
X110127619Y-107440000D01*
X110025886Y-107467259D01*
X109934674Y-107519920D01*
X109860200Y-107594394D01*
X109807539Y-107685606D01*
X109780280Y-107787339D01*
X109780280Y-107799209D01*
X109092726Y-107111655D01*
X109092726Y-104328342D01*
X109110446Y-104310622D01*
X109110449Y-104310619D01*
X109780280Y-103640788D01*
X109780280Y-103652661D01*
X109807539Y-103754394D01*
X109860200Y-103845606D01*
X109934674Y-103920080D01*
X110025886Y-103972741D01*
X110127619Y-104000000D01*
X110139490Y-104000000D01*
X109469805Y-104669683D01*
X109469805Y-104669684D01*
X109507837Y-104697317D01*
X109687777Y-104789000D01*
X109687779Y-104789001D01*
X109879841Y-104851407D01*
X110079309Y-104883000D01*
X110281251Y-104883000D01*
X110480718Y-104851407D01*
X110672780Y-104789001D01*
X110672782Y-104789000D01*
X110852717Y-104697319D01*
X110890753Y-104669683D01*
X110221070Y-104000000D01*
X110232941Y-104000000D01*
X110334674Y-103972741D01*
X110425886Y-103920080D01*
X110500360Y-103845606D01*
X110553021Y-103754394D01*
X110580280Y-103652661D01*
X110580280Y-103640789D01*
X111249963Y-104310472D01*
X111277599Y-104272437D01*
X111369280Y-104092502D01*
X111369281Y-104092500D01*
X111431687Y-103900438D01*
X111463280Y-103700970D01*
X111463280Y-103499029D01*
X111431687Y-103299561D01*
X111369281Y-103107499D01*
X111369280Y-103107497D01*
X111277597Y-102927557D01*
X111249964Y-102889525D01*
X111249963Y-102889525D01*
X110580280Y-103559208D01*
X110580280Y-103547339D01*
X110553021Y-103445606D01*
X110500360Y-103354394D01*
X110425886Y-103279920D01*
X110334674Y-103227259D01*
X110232941Y-103200000D01*
X110221070Y-103200000D01*
X110890753Y-102530315D01*
X110889264Y-102511386D01*
X110903860Y-102441905D01*
X110953703Y-102391346D01*
X111014876Y-102375500D01*
X111156659Y-102375500D01*
X111156660Y-102375500D01*
X111306485Y-102345698D01*
X111447617Y-102287239D01*
X111574632Y-102202370D01*
X111682650Y-102094352D01*
X111767519Y-101967337D01*
X111825978Y-101826205D01*
X111855780Y-101676380D01*
X111855780Y-101523620D01*
X111825978Y-101373795D01*
X111767519Y-101232663D01*
X111682650Y-101105648D01*
X111682645Y-101105642D01*
X111574637Y-100997634D01*
X111574631Y-100997629D01*
X111513903Y-100957052D01*
X111447617Y-100912761D01*
X111306485Y-100854302D01*
X111156662Y-100824500D01*
X111156660Y-100824500D01*
X111015663Y-100824500D01*
X110947542Y-100804498D01*
X110901049Y-100750842D01*
X110890051Y-100688617D01*
X110890753Y-100679684D01*
X110221070Y-100010000D01*
X110232941Y-100010000D01*
X110334674Y-99982741D01*
X110425886Y-99930080D01*
X110500360Y-99855606D01*
X110553021Y-99764394D01*
X110580280Y-99662661D01*
X110580280Y-99650790D01*
X111249963Y-100320473D01*
X111277599Y-100282437D01*
X111369280Y-100102502D01*
X111369281Y-100102501D01*
X111376848Y-100079212D01*
X111416921Y-100020605D01*
X111482317Y-99992967D01*
X111552274Y-100005073D01*
X111585774Y-100029048D01*
X111632726Y-100076000D01*
X125729726Y-100076000D01*
X126237726Y-99568000D01*
X126237726Y-97080190D01*
X126257728Y-97012069D01*
X126274631Y-96991095D01*
X126708821Y-96556905D01*
X126771133Y-96522879D01*
X126797916Y-96520000D01*
X127039167Y-96520000D01*
X127279490Y-96520000D01*
X127939490Y-97180000D01*
G37*
%TD.AperFunction*%
%TA.AperFunction,Conductor*%
G36*
X127580280Y-103652661D02*
G01*
X127607539Y-103754394D01*
X127660200Y-103845606D01*
X127734674Y-103920080D01*
X127825886Y-103972741D01*
X127927619Y-104000000D01*
X127939490Y-104000000D01*
X127269805Y-104669683D01*
X127269805Y-104669684D01*
X127307837Y-104697317D01*
X127487777Y-104789000D01*
X127487779Y-104789001D01*
X127679841Y-104851407D01*
X127879309Y-104883000D01*
X128081251Y-104883000D01*
X128280718Y-104851407D01*
X128472780Y-104789001D01*
X128472782Y-104789000D01*
X128652717Y-104697319D01*
X128690753Y-104669683D01*
X128021070Y-104000000D01*
X128032941Y-104000000D01*
X128134674Y-103972741D01*
X128225886Y-103920080D01*
X128300360Y-103845606D01*
X128353021Y-103754394D01*
X128380280Y-103652661D01*
X128380280Y-103640789D01*
X129049963Y-104310472D01*
X129057791Y-104299700D01*
X129114014Y-104256347D01*
X129184751Y-104250273D01*
X129247542Y-104283406D01*
X129282452Y-104345227D01*
X129285726Y-104373763D01*
X129285726Y-107516810D01*
X129265724Y-107584931D01*
X129248821Y-107605905D01*
X128941631Y-107913095D01*
X128879319Y-107947121D01*
X128852536Y-107950000D01*
X127305916Y-107950000D01*
X127237795Y-107929998D01*
X127216821Y-107913095D01*
X126655631Y-107351905D01*
X126621605Y-107289593D01*
X126618726Y-107262810D01*
X126618726Y-104278676D01*
X126638728Y-104210555D01*
X126692384Y-104164062D01*
X126762658Y-104153958D01*
X126827238Y-104183452D01*
X126856993Y-104221474D01*
X126882958Y-104272435D01*
X126910595Y-104310473D01*
X127580280Y-103640788D01*
X127580280Y-103652661D01*
G37*
%TD.AperFunction*%
%TA.AperFunction,Conductor*%
G36*
X109780280Y-99662661D02*
G01*
X109807539Y-99764394D01*
X109860200Y-99855606D01*
X109934674Y-99930080D01*
X110025886Y-99982741D01*
X110127619Y-100010000D01*
X110139490Y-100010000D01*
X109469805Y-100679683D01*
X109469805Y-100679684D01*
X109507837Y-100707317D01*
X109687777Y-100799000D01*
X109687779Y-100799001D01*
X109879841Y-100861407D01*
X110079309Y-100893000D01*
X110281250Y-100893000D01*
X110384570Y-100876635D01*
X110454982Y-100885734D01*
X110509296Y-100931456D01*
X110530269Y-100999284D01*
X110511242Y-101067684D01*
X110493380Y-101090177D01*
X110477909Y-101105648D01*
X110393041Y-101232663D01*
X110334584Y-101373789D01*
X110334582Y-101373794D01*
X110304780Y-101523617D01*
X110304780Y-101523620D01*
X110304780Y-101676380D01*
X110334582Y-101826205D01*
X110393041Y-101967337D01*
X110449748Y-102052205D01*
X110477909Y-102094351D01*
X110477914Y-102094357D01*
X110505259Y-102121702D01*
X110539285Y-102184014D01*
X110534220Y-102254829D01*
X110491673Y-102311665D01*
X110425153Y-102336476D01*
X110396453Y-102335246D01*
X110281251Y-102317000D01*
X110079309Y-102317000D01*
X109879841Y-102348592D01*
X109687779Y-102410998D01*
X109687771Y-102411001D01*
X109507847Y-102502676D01*
X109469805Y-102530315D01*
X109469805Y-102530316D01*
X110139489Y-103200000D01*
X110127619Y-103200000D01*
X110025886Y-103227259D01*
X109934674Y-103279920D01*
X109860200Y-103354394D01*
X109807539Y-103445606D01*
X109780280Y-103547339D01*
X109780280Y-103559209D01*
X109092726Y-102871655D01*
X109092726Y-100338342D01*
X109110446Y-100320622D01*
X109110449Y-100320619D01*
X109780280Y-99650788D01*
X109780280Y-99662661D01*
G37*
%TD.AperFunction*%
%TA.AperFunction,Conductor*%
G36*
X129049963Y-100320472D02*
G01*
X129057791Y-100309700D01*
X129114014Y-100266347D01*
X129184751Y-100260273D01*
X129247542Y-100293406D01*
X129282452Y-100355227D01*
X129285726Y-100383763D01*
X129285726Y-102826235D01*
X129265724Y-102894356D01*
X129212068Y-102940849D01*
X129141794Y-102950953D01*
X129077214Y-102921459D01*
X129057791Y-102900297D01*
X129049964Y-102889525D01*
X129049963Y-102889525D01*
X128380280Y-103559208D01*
X128380280Y-103547339D01*
X128353021Y-103445606D01*
X128300360Y-103354394D01*
X128225886Y-103279920D01*
X128134674Y-103227259D01*
X128032941Y-103200000D01*
X128021070Y-103200000D01*
X128690753Y-102530315D01*
X128652717Y-102502680D01*
X128472782Y-102410999D01*
X128472780Y-102410998D01*
X128280718Y-102348592D01*
X128081251Y-102317000D01*
X127879308Y-102317000D01*
X127764105Y-102335246D01*
X127693694Y-102326146D01*
X127639380Y-102280424D01*
X127618408Y-102212596D01*
X127637435Y-102144196D01*
X127655297Y-102121704D01*
X127682650Y-102094352D01*
X127767519Y-101967337D01*
X127825978Y-101826205D01*
X127855780Y-101676380D01*
X127855780Y-101523620D01*
X127825978Y-101373795D01*
X127767519Y-101232663D01*
X127682650Y-101105648D01*
X127682645Y-101105642D01*
X127667182Y-101090179D01*
X127633156Y-101027867D01*
X127638221Y-100957052D01*
X127680768Y-100900216D01*
X127747288Y-100875405D01*
X127775988Y-100876635D01*
X127879309Y-100893000D01*
X128081251Y-100893000D01*
X128280718Y-100861407D01*
X128472780Y-100799001D01*
X128472782Y-100799000D01*
X128652717Y-100707319D01*
X128690753Y-100679683D01*
X128021070Y-100010000D01*
X128032941Y-100010000D01*
X128134674Y-99982741D01*
X128225886Y-99930080D01*
X128300360Y-99855606D01*
X128353021Y-99764394D01*
X128380280Y-99662661D01*
X128380280Y-99650789D01*
X129049963Y-100320472D01*
G37*
%TD.AperFunction*%
%TA.AperFunction,Conductor*%
G36*
X129049963Y-98290473D02*
G01*
X129057791Y-98279700D01*
X129114014Y-98236347D01*
X129184751Y-98230273D01*
X129247542Y-98263406D01*
X129282452Y-98325227D01*
X129285726Y-98353763D01*
X129285726Y-98836235D01*
X129265724Y-98904356D01*
X129212068Y-98950849D01*
X129141794Y-98960953D01*
X129077214Y-98931459D01*
X129057791Y-98910297D01*
X129049964Y-98899525D01*
X129049963Y-98899525D01*
X128380280Y-99569208D01*
X128380280Y-99557339D01*
X128353021Y-99455606D01*
X128300360Y-99364394D01*
X128225886Y-99289920D01*
X128134674Y-99237259D01*
X128032941Y-99210000D01*
X128021071Y-99210000D01*
X128636070Y-98595001D01*
X128636070Y-98594999D01*
X128021071Y-97980000D01*
X128032941Y-97980000D01*
X128134674Y-97952741D01*
X128225886Y-97900080D01*
X128300360Y-97825606D01*
X128353021Y-97734394D01*
X128380280Y-97632661D01*
X128380280Y-97620790D01*
X129049963Y-98290473D01*
G37*
%TD.AperFunction*%
%TD*%
M02*
